<svg width="43" height="43" viewBox="0 0 43 43" fill="none" xmlns="http://www.w3.org/2000/svg">
<path d="M3.56111 9.64478H39.4392L39.5602 9.8329C40.2455 10.8911 40.8367 12.0131 41.3238 13.1654L41.5624 13.7331H1.43799L1.6765 13.1654C2.16361 12.0098 2.75486 10.8911 3.44018 9.8329L3.56111 9.64478ZM38.9958 10.4611H4.00455C3.50736 11.2472 3.06057 12.0702 2.6776 12.9134H40.3228C39.9364 12.0702 39.493 11.2472 38.9958 10.4611Z" fill="#1E1E1E"/>
<path d="M6.21832 6.37598H36.7819L36.9029 6.50027C37.8972 7.52152 38.7908 8.64355 39.5635 9.83277L39.9733 10.4643H3.03027L3.44012 9.83277C4.20941 8.64355 5.10637 7.52152 6.10074 6.50027L6.22168 6.37598H6.21832ZM36.4325 7.1923H6.56434C5.83199 7.95824 5.15676 8.78129 4.54871 9.64465H38.4482C37.8401 8.77793 37.1649 7.95824 36.4325 7.1923Z" fill="#1E1E1E"/>
<path d="M0.661836 16.1855H42.3382L42.4122 16.498C42.6742 17.5931 42.8489 18.7152 42.9329 19.8305L42.9664 20.2705H0.0302734L0.0638672 19.8305C0.151211 18.7118 0.325898 17.5898 0.58457 16.498L0.658477 16.1855H0.661836ZM41.6932 17.0019H1.3102C1.13215 17.8115 1.00113 18.6312 0.917148 19.4542H42.0829C42.0023 18.6312 41.8713 17.8115 41.6932 17.0019Z" fill="#1E1E1E"/>
<path d="M1.78031 12.9167H41.2194L41.3235 13.1653C41.7737 14.2403 42.1432 15.359 42.412 16.4978L42.5329 17.0017H0.466797L0.587734 16.4978C0.859844 15.359 1.22602 14.237 1.67617 13.1653L1.78031 12.9167ZM40.6752 13.7331H2.32453C2.00203 14.5292 1.72656 15.3523 1.5082 16.1854H41.4915C41.2698 15.3523 40.9977 14.5292 40.6752 13.7331Z" fill="#1E1E1E"/>
<path d="M21.4998 0C25.4773 0 29.3608 1.09516 32.737 3.16789L33.9698 3.92375H9.0332L10.2661 3.16789C13.6389 1.09516 17.5223 0 21.4998 0ZM30.9632 3.10742C28.0473 1.60578 24.8055 0.819688 21.4998 0.819688C18.1942 0.819688 14.9491 1.60578 12.0365 3.10742H30.9666H30.9632Z" fill="#1E1E1E"/>
<path d="M10.3635 3.10742H32.6362L32.7336 3.16789C34.252 4.09844 35.6529 5.22047 36.8992 6.50039L37.5745 7.19578H5.42188L6.09711 6.50039C7.34344 5.22047 8.7443 4.09844 10.2627 3.16789L10.3602 3.10742H10.3635ZM32.4044 3.92375H10.5953C9.45313 4.63258 8.38148 5.45562 7.39383 6.37609H35.6059C34.6216 5.45562 33.5466 4.63258 32.4044 3.92375Z" fill="#1E1E1E"/>
<path d="M9.03314 39.0762H33.9664L32.7335 39.832C29.3607 41.9048 25.4739 42.9999 21.4964 42.9999C17.5189 42.9999 13.6355 41.9048 10.2627 39.832L9.02979 39.0762H9.03314ZM30.9665 39.8925H12.0364C14.9524 41.3941 18.1942 42.1802 21.4998 42.1802C24.8054 42.1802 28.0506 41.3941 30.9631 39.8925H30.9665Z" fill="#1E1E1E"/>
<path d="M1.43799 29.2668H41.5624L41.3238 29.8346C40.8367 30.9902 40.2455 32.1122 39.5602 33.1671L39.4392 33.3552H3.56111L3.44018 33.1671C2.75486 32.1089 2.16361 30.9868 1.6765 29.8346L1.43799 29.2668ZM40.3228 30.0832H2.6776C3.06393 30.9264 3.50736 31.7494 4.00455 32.5355H38.9958C39.493 31.7494 39.9398 30.9264 40.3228 30.0832Z" fill="#1E1E1E"/>
<path d="M5.42188 35.8076H37.5778L36.9026 36.503C35.6562 37.7829 34.2554 38.905 32.737 39.8355L32.6395 39.896H10.3635L10.2661 39.8355C8.74766 38.905 7.3468 37.7829 6.10047 36.503L5.42523 35.8076H5.42188ZM35.6059 36.6239H7.39383C8.37813 37.5444 9.45313 38.3675 10.5953 39.0763H32.4044C33.5466 38.3675 34.6182 37.5444 35.6059 36.6239Z" fill="#1E1E1E"/>
<path d="M3.03021 32.5356H39.9699L39.5601 33.1672C38.7874 34.3598 37.8938 35.4785 36.8994 36.4997L36.7785 36.624H6.21826L6.09732 36.4997C5.10295 35.4785 4.20936 34.3564 3.4367 33.1672L3.02686 32.5356H3.03021ZM38.4481 33.352H4.55201C5.16006 34.2187 5.83529 35.0384 6.56764 35.8043H36.4358C37.1682 35.0384 37.8434 34.2187 38.4515 33.352H38.4481Z" fill="#1E1E1E"/>
<path d="M0.0302734 22.7261H42.9698L42.9362 23.1662C42.8489 24.2848 42.6742 25.4035 42.4155 26.4987L42.3416 26.8111H0.661836L0.58793 26.4987C0.325898 25.4035 0.151211 24.2848 0.0672266 23.1662L0.0336328 22.7261H0.0302734ZM42.0829 23.5424H0.917148C0.997773 24.3654 1.12879 25.1851 1.30684 25.9947H41.6899C41.8679 25.1851 41.9989 24.3654 42.0796 23.5424H42.0829Z" fill="#1E1E1E"/>
<path d="M0.0940625 19.4575H42.9059L42.9362 19.8338C42.9798 20.3847 43 20.9457 43 21.5C43 22.0543 42.9798 22.6153 42.9362 23.1663L42.9059 23.5425H0.0940625L0.0638281 23.1663C0.0201563 22.6153 0 22.0543 0 21.5C0 20.9457 0.0201563 20.3847 0.0638281 19.8338L0.0940625 19.4575ZM42.1467 20.2738H0.853281C0.829766 20.6837 0.816328 21.0935 0.816328 21.5C0.816328 21.9065 0.829766 22.3163 0.853281 22.7262H42.1467C42.1702 22.3163 42.1837 21.9065 42.1837 21.5C42.1837 21.0935 42.1702 20.6837 42.1467 20.2738Z" fill="#1E1E1E"/>
<path d="M0.466797 25.9949H42.5329L42.412 26.4988C42.1398 27.6376 41.7737 28.7596 41.3235 29.8313L41.2194 30.0799H1.78031L1.67617 29.8313C1.22602 28.7596 0.859844 27.6376 0.587734 26.4988L0.466797 25.9949ZM41.4948 26.8112H1.5082C1.72992 27.6477 2.00203 28.4674 2.32453 29.2635H40.6752C40.9977 28.4674 41.2731 27.6443 41.4915 26.8112H41.4948Z" fill="#1E1E1E"/>
</svg>
