<svg width="21" height="20" viewBox="0 0 21 20" fill="none" xmlns="http://www.w3.org/2000/svg">
<path d="M7.74707 15.75C7.74707 16.5456 8.06314 17.3087 8.62575 17.8713C9.18836 18.4339 9.95142 18.75 10.7471 18.75C11.5427 18.75 12.3058 18.4339 12.8684 17.8713C13.431 17.3087 13.7471 16.5456 13.7471 15.75" stroke="#1E1E1E" stroke-width="1.5" stroke-miterlimit="10"/>
<path d="M17.5202 12.795H16.7702V12.808L17.5202 12.795ZM19.6832 15.485L19.9832 14.799L19.6832 15.485ZM1.8112 15.485L1.5112 14.799L1.8112 15.485ZM3.9732 12.838L4.7232 12.863V12.838H3.9732ZM18.2732 8.161C18.2732 3.719 14.9662 0 10.7502 0V1.5C14.0142 1.5 16.7732 4.418 16.7732 8.161H18.2732ZM18.2732 9.75V8.161H16.7732V9.75H18.2732ZM16.7732 9.75V12.795H18.2732V9.75H16.7732ZM19.9902 14.8C19.5412 14.6629 19.1409 14.4001 18.8366 14.0427C18.5323 13.6852 18.3368 13.2481 18.2732 12.783L16.7732 12.809C16.8392 13.5611 17.1204 14.2782 17.5833 14.8746C18.0461 15.471 18.671 15.9214 19.3832 16.172L19.9902 14.8ZM19.6402 16.5C19.8455 16.497 20.0432 16.4215 20.1982 16.2868C20.3532 16.1521 20.4556 15.9669 20.4872 15.764C20.5235 15.5706 20.494 15.3705 20.4034 15.1958C20.3128 15.0211 20.1662 14.8817 19.9872 14.8L19.3802 16.172C19.3006 16.1371 19.2289 16.0865 19.1693 16.0233C19.1097 15.96 19.0634 15.8855 19.0332 15.804C18.9974 15.7083 18.9877 15.6047 19.0052 15.504C19.024 15.3986 19.0714 15.3003 19.1422 15.22C19.2038 15.1496 19.2798 15.0932 19.365 15.0546C19.4502 15.0159 19.5426 14.996 19.6362 14.996L19.6402 16.5ZM17.5242 16.5H19.6402V15H17.5202L17.5242 16.5ZM17.5242 15V16.5V15ZM17.5242 15H3.9752V16.5H17.5202L17.5242 15ZM3.9792 15V16.5V15ZM1.8622 16.5H3.9732V15H1.8582L1.8622 16.5ZM1.5122 14.8C1.33315 14.8817 1.18663 15.0211 1.09601 15.1958C1.00539 15.3705 0.975881 15.5706 1.0122 15.764C1.04381 15.9669 1.14618 16.1521 1.30119 16.2868C1.4562 16.4215 1.65386 16.497 1.8592 16.5V15C1.95275 15 2.04523 15.0199 2.13044 15.0586C2.21564 15.0972 2.29159 15.1536 2.3532 15.224C2.424 15.3043 2.47139 15.4026 2.4902 15.508C2.5077 15.6087 2.49803 15.7123 2.4622 15.808C2.43199 15.8895 2.3857 15.964 2.32609 16.0273C2.26648 16.0905 2.19476 16.1411 2.1152 16.176L1.5122 14.8ZM3.2282 12.813C3.15699 13.2723 2.9579 13.7022 2.65371 14.0536C2.34953 14.4051 1.95254 14.6637 1.5082 14.8L2.1152 16.172C2.818 15.9233 3.43597 15.4806 3.89754 14.8951C4.3591 14.3097 4.64537 13.6054 4.7232 12.864L3.2282 12.813ZM4.7282 12.838V9.75H3.2282V12.838H4.7282ZM3.2282 8.161V9.75H4.7282V8.161H3.2282ZM10.7472 0C6.5302 0 3.2242 3.719 3.2242 8.161H4.7242C4.7232 4.418 7.4832 1.5 10.7472 1.5V0Z" fill="#1E1E1E"/>
</svg>
