<?xml version="1.0" encoding="utf-8"?>
<!-- Generator: Adobe Illustrator 25.0.1, SVG Export Plug-In . SVG Version: 6.00 Build 0)  -->
<svg version="1.1" id="圖層_1" xmlns="http://www.w3.org/2000/svg" xmlns:xlink="http://www.w3.org/1999/xlink" x="0px" y="0px"
	 viewBox="0 0 44 44" style="enable-background:new 0 0 44 44;" xml:space="preserve">
<style type="text/css">
	.st0{fill:#1E1E1E;}
</style>
<g>
	<path class="st0" d="M28.7,22.4c-2.2-7.6-2.6-15.6-6.4-15.6s-5,8.1-7.2,15.6c-1.5,5.1,0.6,10.5,6.8,10.5c0,0,0,0,0,0c0,0,0,0,0,0
		C28.1,32.9,30.2,27.5,28.7,22.4z"/>
	<path class="st0" d="M21.9,37.2c-3.8,0-7.4-1.9-9.5-5.1C10.2,29,9.8,25,11.2,21.4l2.3-5.7c0.2-0.6,0.2-1.2-0.2-1.8
		c-0.4-0.5-0.9-0.8-1.6-0.8H0v-0.7h11.7c0.9,0,1.7,0.4,2.1,1.1c0.5,0.7,0.6,1.6,0.3,2.4l-2.3,5.7c-1.3,3.4-0.9,7.1,1.1,10.1
		c2.1,3,5.3,4.8,9,4.8s6.9-1.7,9-4.8c2.1-3,2.5-6.7,1.1-10.1L29.7,16c-0.3-0.8-0.2-1.7,0.3-2.4c0.5-0.7,1.3-1.1,2.1-1.1h11.7v0.7
		H32.1c-0.6,0-1.2,0.3-1.6,0.8c-0.4,0.5-0.4,1.2-0.2,1.8l2.3,5.7c1.4,3.6,1,7.6-1.2,10.7C29.3,35.4,25.8,37.2,21.9,37.2L21.9,37.2z"
		/>
	<path class="st0" d="M1,21.2c0.6,0,1-0.5,1-1c0-0.6-0.5-1-1-1c-0.6,0-1,0.5-1,1C0,20.7,0.5,21.2,1,21.2z"/>
	<path class="st0" d="M7.2,21.2c0.6,0,1-0.5,1-1c0-0.6-0.5-1-1-1s-1,0.5-1,1C6.2,20.7,6.6,21.2,7.2,21.2z"/>
	<path class="st0" d="M36.7,21.2c0.6,0,1-0.5,1-1c0-0.6-0.5-1-1-1c-0.6,0-1,0.5-1,1C35.6,20.7,36.1,21.2,36.7,21.2z"/>
	<path class="st0" d="M42.8,21.2c0.6,0,1-0.5,1-1c0-0.6-0.5-1-1-1c-0.6,0-1,0.5-1,1C41.8,20.7,42.3,21.2,42.8,21.2z"/>
	<path class="st0" d="M1.2,9.2c0.6,0,1-0.5,1-1c0-0.6-0.5-1-1-1c-0.6,0-1,0.5-1,1C0.1,8.7,0.6,9.2,1.2,9.2z"/>
	<path class="st0" d="M7.3,9.2c0.6,0,1-0.5,1-1c0-0.6-0.5-1-1-1s-1,0.5-1,1C6.3,8.7,6.8,9.2,7.3,9.2z"/>
	<path class="st0" d="M36.8,9.2c0.6,0,1-0.5,1-1c0-0.6-0.5-1-1-1c-0.6,0-1,0.5-1,1C35.8,8.7,36.2,9.2,36.8,9.2z"/>
	<path class="st0" d="M43,9.2c0.6,0,1-0.5,1-1c0-0.6-0.5-1-1-1s-1,0.5-1,1C41.9,8.7,42.4,9.2,43,9.2z"/>
	<path class="st0" d="M1,26c0.6,0,1-0.5,1-1c0-0.6-0.5-1-1-1c-0.6,0-1,0.5-1,1C0,25.5,0.5,26,1,26z"/>
	<path class="st0" d="M7.2,26c0.6,0,1-0.5,1-1c0-0.6-0.5-1-1-1s-1,0.5-1,1C6.2,25.5,6.6,26,7.2,26z"/>
	<path class="st0" d="M36.7,26c0.6,0,1-0.5,1-1c0-0.6-0.5-1-1-1c-0.6,0-1,0.5-1,1C35.6,25.5,36.1,26,36.7,26z"/>
	<path class="st0" d="M42.8,26c0.6,0,1-0.5,1-1c0-0.6-0.5-1-1-1c-0.6,0-1,0.5-1,1C41.8,25.5,42.3,26,42.8,26z"/>
	<path class="st0" d="M1,30.7c0.6,0,1-0.5,1-1s-0.5-1-1-1c-0.6,0-1,0.5-1,1S0.5,30.7,1,30.7z"/>
	<path class="st0" d="M7.2,30.7c0.6,0,1-0.5,1-1s-0.5-1-1-1s-1,0.5-1,1S6.6,30.7,7.2,30.7z"/>
	<path class="st0" d="M36.7,30.7c0.6,0,1-0.5,1-1s-0.5-1-1-1c-0.6,0-1,0.5-1,1S36.1,30.7,36.7,30.7z"/>
	<path class="st0" d="M42.8,30.7c0.6,0,1-0.5,1-1s-0.5-1-1-1c-0.6,0-1,0.5-1,1S42.3,30.7,42.8,30.7z"/>
</g>
</svg>
