<svg width="20" height="16" viewBox="0 0 20 16" fill="none" xmlns="http://www.w3.org/2000/svg">
<path d="M18.6667 5.83342H19.75V0.416748H0.25V5.83342H1.33333C1.90797 5.83342 2.45907 6.06169 2.8654 6.46802C3.27173 6.87435 3.5 7.42545 3.5 8.00008C3.5 8.57472 3.27173 9.12582 2.8654 9.53215C2.45907 9.93847 1.90797 10.1667 1.33333 10.1667H0.25V15.5834H19.75V10.1667H18.6667C18.092 10.1667 17.5409 9.93847 17.1346 9.53215C16.7283 9.12582 16.5 8.57472 16.5 8.00008C16.5 7.42545 16.7283 6.87435 17.1346 6.46802C17.5409 6.06169 18.092 5.83342 18.6667 5.83342ZM17.5833 12.1969V13.4167H2.41667V12.1969C3.34782 11.9575 4.17291 11.4152 4.76206 10.6554C5.3512 9.89566 5.67094 8.96152 5.67094 8.00008C5.67094 7.03864 5.3512 6.10451 4.76206 5.34472C4.17291 4.58494 3.34782 4.04266 2.41667 3.80325V2.58341H17.5833V3.80325C16.6522 4.04266 15.8271 4.58494 15.2379 5.34472C14.6488 6.10451 14.3291 7.03864 14.3291 8.00008C14.3291 8.96152 14.6488 9.89566 15.2379 10.6554C15.8271 11.4152 16.6522 11.9575 17.5833 12.1969Z" fill="#5C5C5C"/>
<path d="M11.2649 4.1495L6.93164 10.6494L8.73442 11.8513L13.0677 5.35135L11.2649 4.1495Z" fill="#5C5C5C"/>
<path d="M8.91667 4.75H6.75V6.91667H8.91667V4.75Z" fill="#5C5C5C"/>
<path d="M13.2497 9.0835H11.083V11.2502H13.2497V9.0835Z" fill="#5C5C5C"/>
</svg>
