<?xml version="1.0" encoding="utf-8"?>
<!-- Generator: Adobe Illustrator 25.0.1, SVG Export Plug-In . SVG Version: 6.00 Build 0)  -->
<svg version="1.1" id="圖層_1" xmlns="http://www.w3.org/2000/svg" xmlns:xlink="http://www.w3.org/1999/xlink" x="0px" y="0px"
	 viewBox="0 0 20 16" style="enable-background:new 0 0 20 16;" xml:space="preserve">
<style type="text/css">
	.st0{fill:#1E1E1E;}
</style>
<path class="st0" d="M18.7,5.8h1.1V0.4H0.2v5.4h1.1c0.6,0,1.1,0.2,1.5,0.6s0.6,1,0.6,1.5c0,0.6-0.2,1.1-0.6,1.5
	c-0.4,0.4-1,0.6-1.5,0.6H0.2v5.4h19.5v-5.4h-1.1c-0.6,0-1.1-0.2-1.5-0.6c-0.4-0.4-0.6-1-0.6-1.5c0-0.6,0.2-1.1,0.6-1.5
	S18.1,5.8,18.7,5.8z M17.6,12.2v1.2H2.4v-1.2c0.9-0.2,1.8-0.8,2.3-1.5C5.4,9.9,5.7,9,5.7,8S5.4,6.1,4.8,5.3C4.2,4.6,3.3,4,2.4,3.8
	V2.6h15.2v1.2c-0.9,0.2-1.8,0.8-2.3,1.5C14.6,6.1,14.3,7,14.3,8s0.3,1.9,0.9,2.7C15.8,11.4,16.7,12,17.6,12.2z"/>
<path class="st0" d="M11.3,4.1l-4.3,6.5l1.8,1.2l4.3-6.5L11.3,4.1z"/>
<path class="st0" d="M8.9,4.7H6.8v2.2h2.2V4.7z"/>
<path class="st0" d="M13.2,9.1h-2.2v2.2h2.2V9.1z"/>
</svg>
