<svg width="22" height="22" viewBox="0 0 22 22" fill="none" xmlns="http://www.w3.org/2000/svg">
<path d="M21.8336 10.9999C21.8363 9.22361 21.4021 7.4739 20.5694 5.9049C19.7366 4.3359 18.5308 2.99573 17.0582 2.00245C15.5856 1.00916 13.8913 0.393223 12.1246 0.208886C10.3579 0.0245481 8.57291 0.277465 6.92696 0.945362C5.281 1.61326 3.82453 2.67564 2.68581 4.03894C1.5471 5.40225 0.761089 7.02464 0.397001 8.76323C0.0329136 10.5018 0.101923 12.3033 0.597951 14.0089C1.09398 15.7145 2.00181 17.2721 3.24148 18.5442L3.17973 18.5995L4.15473 19.3957C4.40715 19.6016 4.6704 19.7944 4.94015 19.9764C4.96073 19.9905 4.98348 20.0024 5.00515 20.0165C5.25323 20.1812 5.50673 20.3361 5.76348 20.4791C5.88373 20.5462 6.00831 20.6037 6.13073 20.6654C6.29648 20.7488 6.45573 20.8322 6.63015 20.907C6.80456 20.9817 6.93998 21.0348 7.09706 21.0955C7.25415 21.1562 7.39173 21.2038 7.54123 21.258C7.70698 21.3143 7.87381 21.3663 8.0439 21.414C8.19773 21.4573 8.35265 21.4963 8.50865 21.5342C8.66465 21.5722 8.83365 21.6101 9.00156 21.6426C9.18898 21.6772 9.37856 21.7032 9.56815 21.7292C9.70681 21.7477 9.84223 21.7704 9.98198 21.7834C10.3189 21.8148 10.6569 21.8343 10.996 21.8343C11.3351 21.8343 11.6731 21.8148 12.01 21.7834C12.1497 21.7704 12.2851 21.7477 12.4238 21.7292C12.6134 21.7032 12.803 21.6772 12.9904 21.6426C13.1561 21.6112 13.3154 21.5732 13.4833 21.5342C13.6512 21.4952 13.7942 21.4573 13.9481 21.414C14.1181 21.3652 14.285 21.3143 14.4507 21.258C14.6002 21.2082 14.7476 21.1497 14.8949 21.0955C15.0422 21.0413 15.2091 20.9742 15.3629 20.9059C15.5167 20.8377 15.6955 20.7488 15.8601 20.6665C15.9836 20.6037 16.1082 20.5462 16.2285 20.4791C16.4874 20.3361 16.7409 20.1812 16.9868 20.0165C17.0085 20.0024 17.0312 19.9905 17.0518 19.9764C17.3216 19.7944 17.5848 19.6016 17.8372 19.3957L18.8122 18.5995L18.7505 18.5442C20.7247 16.529 21.8314 13.821 21.8336 10.9999ZM11.0003 2.33324C12.7145 2.33468 14.3897 2.84441 15.8142 3.79796C17.2386 4.75152 18.3483 6.10607 19.0029 7.69032C19.6575 9.27457 19.8276 11.0174 19.4917 12.6983C19.1558 14.3792 18.3289 15.9228 17.1157 17.1337C15.3215 15.8966 13.1787 15.2657 11.0003 15.3332C8.82196 15.2657 6.6791 15.8966 4.8849 17.1337C3.6717 15.9228 2.84486 14.3792 2.50895 12.6983C2.17303 11.0174 2.34313 9.27457 2.99772 7.69032C3.65232 6.10607 4.76201 4.75152 6.18647 3.79796C7.61092 2.84441 9.28616 2.33468 11.0003 2.33324ZM15.1917 18.5832C14.9114 18.7403 14.622 18.8807 14.3251 19.0036C14.2687 19.0274 14.2091 19.0447 14.1528 19.0664C13.8623 19.1801 13.5657 19.2778 13.2645 19.3589L13.1702 19.3827C11.7442 19.7402 10.2521 19.7402 8.82606 19.3827L8.73181 19.3589C8.43057 19.2778 8.13401 19.1801 7.84348 19.0664C7.78715 19.0447 7.72756 19.0274 7.67123 19.0036C7.37431 18.8807 7.08492 18.7403 6.80456 18.5832C6.77423 18.5659 6.74498 18.5453 6.71356 18.528C8.02696 17.8136 9.50578 17.459 11.0003 17.4999C12.4931 17.4588 13.9703 17.8123 15.2827 18.5247C15.2513 18.5421 15.2253 18.5627 15.1917 18.5832Z" fill="#1E1E1E"/>
<path d="M11 14.25C11.9642 14.25 12.9067 13.9641 13.7084 13.4284C14.5101 12.8927 15.1349 12.1314 15.5039 11.2406C15.8729 10.3498 15.9694 9.36959 15.7813 8.42394C15.5932 7.47828 15.1289 6.60964 14.4471 5.92786C13.7654 5.24608 12.8967 4.78178 11.9511 4.59367C11.0054 4.40557 10.0252 4.50211 9.13442 4.87109C8.24363 5.24007 7.48226 5.86491 6.94659 6.6666C6.41091 7.46829 6.125 8.41082 6.125 9.375C6.12643 10.6675 6.64051 11.9066 7.55444 12.8206C8.46837 13.7345 9.70751 14.2486 11 14.25ZM11 6.66667C11.5357 6.66667 12.0593 6.82551 12.5047 7.12311C12.9501 7.4207 13.2972 7.84368 13.5022 8.33857C13.7072 8.83345 13.7608 9.37801 13.6563 9.90337C13.5518 10.4287 13.2938 10.9113 12.9151 11.2901C12.5363 11.6689 12.0537 11.9268 11.5284 12.0313C11.003 12.1358 10.4584 12.0822 9.96357 11.8772C9.46868 11.6722 9.0457 11.3251 8.7481 10.8797C8.45051 10.4343 8.29167 9.91066 8.29167 9.375C8.29167 8.65671 8.57701 7.96783 9.08492 7.45992C9.59283 6.95201 10.2817 6.66667 11 6.66667Z" fill="#1E1E1E"/>
</svg>
