<svg width="44" height="44" viewBox="0 0 44 44" fill="none" xmlns="http://www.w3.org/2000/svg">
<path d="M22.7027 1.25063C22.7027 0.56097 22.1349 0 21.4295 0C20.724 0 20.1562 0.55767 20.1562 1.25063C20.1562 1.9403 20.724 2.50127 21.4295 2.50127C22.1349 2.50127 22.7027 1.9436 22.7027 1.25063Z" fill="black"/>
<path d="M13.0039 3.82119C13.0039 3.13153 12.4362 2.57056 11.7307 2.57056C11.0253 2.57056 10.4575 3.12823 10.4575 3.82119C10.4575 4.51085 11.0253 5.07182 11.7307 5.07182C12.4362 5.07182 13.0039 4.51415 13.0039 3.82119Z" fill="black"/>
<path d="M4.61256 11.7935C5.31573 11.7935 5.88576 11.2336 5.88576 10.5429C5.88576 9.85216 5.31573 9.29224 4.61256 9.29224C3.90939 9.29224 3.33936 9.85216 3.33936 10.5429C3.33936 11.2336 3.90939 11.7935 4.61256 11.7935Z" fill="black"/>
<path d="M2.54641 19.911C2.54641 19.2214 1.97867 18.6604 1.2732 18.6604C0.571094 18.6604 0 19.2181 0 19.911C0 20.604 0.567734 21.1617 1.2732 21.1617C1.97531 21.1617 2.54641 20.604 2.54641 19.911Z" fill="black"/>
<path d="M2.78834 31.1172C3.49151 31.1172 4.06154 30.5573 4.06154 29.8666C4.06154 29.1759 3.49151 28.616 2.78834 28.616C2.08517 28.616 1.51514 29.1759 1.51514 29.8666C1.51514 30.5573 2.08517 31.1172 2.78834 31.1172Z" fill="black"/>
<path d="M8.70436 36.3508C8.00225 36.3508 7.43115 36.9085 7.43115 37.6015C7.43115 38.2911 7.99889 38.8521 8.70436 38.8521C9.40982 38.8521 9.97756 38.2944 9.97756 37.6015C9.97756 36.9118 9.40982 36.3508 8.70436 36.3508Z" fill="black"/>
<path d="M17.7141 40.502C17.012 40.502 16.4409 41.0596 16.4409 41.7526C16.4409 42.4422 17.0087 43.0032 17.7141 43.0032C18.4162 43.0032 18.9873 42.4455 18.9873 41.7526C18.9873 41.0629 18.4196 40.502 17.7141 40.502Z" fill="black"/>
<path d="M28.0003 42.3829C28.7034 42.3829 29.2735 41.8229 29.2735 41.1322C29.2735 40.4415 28.7034 39.8816 28.0003 39.8816C27.2971 39.8816 26.7271 40.4415 26.7271 41.1322C26.7271 41.8229 27.2971 42.3829 28.0003 42.3829Z" fill="black"/>
<path d="M37.5434 36.458C37.8125 35.8199 37.504 35.0883 36.8544 34.824C36.2047 34.5597 35.4599 34.8627 35.1908 35.5008C34.9218 36.1389 35.2303 36.8705 35.8799 37.1348C36.5295 37.3992 37.2743 37.0961 37.5434 36.458Z" fill="black"/>
<path d="M41.3235 26.3127C40.6214 26.3127 40.0503 26.8704 40.0503 27.5634C40.0503 28.253 40.618 28.814 41.3235 28.814C42.029 28.814 42.5967 28.2563 42.5967 27.5634C42.5967 26.8737 42.029 26.3127 41.3235 26.3127Z" fill="black"/>
<path d="M41.7302 15.8918C41.0281 15.8918 40.457 16.4495 40.457 17.1425C40.457 17.8354 41.0248 18.3931 41.7302 18.3931C42.4323 18.3931 43.0034 17.8354 43.0034 17.1425C43.0034 16.4495 42.4357 15.8918 41.7302 15.8918Z" fill="black"/>
<path d="M38.2821 9.41785C38.9665 9.25919 39.3903 8.58561 39.2288 7.91338C39.0673 7.24114 38.3815 6.82481 37.6972 6.98347C37.0128 7.14213 36.589 7.81571 36.7505 8.48794C36.912 9.16018 37.5977 9.57651 38.2821 9.41785Z" fill="black"/>
<path d="M31.1113 2.96328C31.1113 2.27362 30.5436 1.71265 29.8381 1.71265C29.1327 1.71265 28.5649 2.27032 28.5649 2.96328C28.5649 3.65294 29.1327 4.21391 29.8381 4.21391C30.5436 4.21391 31.1113 3.65624 31.1113 2.96328Z" fill="black"/>
<path d="M21.4934 8.33867C22.1955 8.33867 22.7666 7.781 22.7666 7.08804C22.7666 6.39507 22.1989 5.8374 21.4934 5.8374C20.7913 5.8374 20.2202 6.39507 20.2202 7.08804C20.2202 7.781 20.7879 8.33867 21.4934 8.33867Z" fill="black"/>
<path d="M15.4566 9.20986C15.4566 8.5202 14.8888 7.95923 14.1834 7.95923C13.4779 7.95923 12.9102 8.5169 12.9102 9.20986C12.9102 9.89952 13.4779 10.4605 14.1834 10.4605C14.8888 10.4605 15.4566 9.90282 15.4566 9.20986Z" fill="black"/>
<path d="M7.83398 14.661C7.83398 15.3507 8.40172 15.9117 9.10719 15.9117C9.81266 15.9117 10.3804 15.354 10.3804 14.661C10.3804 13.9714 9.81266 13.4104 9.10719 13.4104C8.40172 13.4104 7.83398 13.9681 7.83398 14.661Z" fill="black"/>
<path d="M7.35719 23.3396C8.06036 23.3396 8.63039 22.7797 8.63039 22.089C8.63039 21.3983 8.06036 20.8384 7.35719 20.8384C6.65402 20.8384 6.08398 21.3983 6.08398 22.089C6.08398 22.7797 6.65402 23.3396 7.35719 23.3396Z" fill="black"/>
<path d="M9.67164 28.0156C8.96953 28.0156 8.39844 28.5733 8.39844 29.2663C8.39844 29.9559 8.96617 30.5169 9.67164 30.5169C10.3738 30.5169 10.9448 29.9592 10.9448 29.2663C10.9448 28.5766 10.3771 28.0156 9.67164 28.0156Z" fill="black"/>
<path d="M15.4607 35.3838C16.1547 35.2731 16.6261 34.6307 16.5134 33.9489C16.4007 33.2672 15.7467 32.8042 15.0527 32.9149C14.3586 33.0255 13.8872 33.6679 13.9999 34.3497C14.1126 35.0315 14.7666 35.4945 15.4607 35.3838Z" fill="black"/>
<path d="M22.884 36.8228C23.5872 36.8228 24.1572 36.2629 24.1572 35.5722C24.1572 34.8815 23.5872 34.3215 22.884 34.3215C22.1809 34.3215 21.6108 34.8815 21.6108 35.5722C21.6108 36.2629 22.1809 36.8228 22.884 36.8228Z" fill="black"/>
<path d="M30.9274 33.8411C31.4247 33.3527 31.4247 32.5609 30.9274 32.0725C30.4302 31.5841 29.6241 31.5841 29.1269 32.0725C28.6296 32.5609 28.6296 33.3527 29.1269 33.8411C29.6241 34.3295 30.4302 34.3295 30.9274 33.8411Z" fill="black"/>
<path d="M35.999 27.2367C35.999 26.5471 35.4313 25.9861 34.7258 25.9861C34.0204 25.9861 33.4526 26.5438 33.4526 27.2367C33.4526 27.9264 34.0204 28.4874 34.7258 28.4874C35.4313 28.4874 35.999 27.9297 35.999 27.2367Z" fill="black"/>
<path d="M35.8377 20.7757C36.5408 20.7757 37.1109 20.2158 37.1109 19.525C37.1109 18.8343 36.5408 18.2744 35.8377 18.2744C35.1345 18.2744 34.5645 18.8343 34.5645 19.525C34.5645 20.2158 35.1345 20.7757 35.8377 20.7757Z" fill="black"/>
<path d="M33.4124 13.6678C34.1155 13.6678 34.6856 13.1078 34.6856 12.4171C34.6856 11.7264 34.1155 11.1665 33.4124 11.1665C32.7092 11.1665 32.1392 11.7264 32.1392 12.4171C32.1392 13.1078 32.7092 13.6678 33.4124 13.6678Z" fill="black"/>
<path d="M27.437 9.53375C28.1391 9.49555 28.6767 8.90552 28.6378 8.21587C28.5989 7.52622 27.9982 6.99812 27.2962 7.03631C26.5941 7.07451 26.0564 7.66454 26.0953 8.35419C26.1342 9.04384 26.7349 9.57194 27.437 9.53375Z" fill="black"/>
<path d="M21.5033 30.0283C16.7162 30.0283 12.8193 26.2039 12.8193 21.4983C12.8193 16.7928 16.7129 12.9683 21.5033 12.9683C26.2938 12.9683 30.1873 16.7928 30.1873 21.4983C30.1873 26.2039 26.2938 30.0283 21.5033 30.0283ZM21.5033 13.6315C17.0857 13.6315 13.4912 17.1623 13.4912 21.5016C13.4912 25.8409 17.0857 29.3717 21.5033 29.3717C25.9209 29.3717 29.5154 25.8409 29.5154 21.5016C29.5154 17.1623 25.9209 13.6315 21.5033 13.6315Z" fill="black"/>
<path d="M21.5036 26.2236C24.1585 26.2236 26.3108 24.1095 26.3108 21.5016C26.3108 18.8937 24.1585 16.7795 21.5036 16.7795C18.8486 16.7795 16.6963 18.8937 16.6963 21.5016C16.6963 24.1095 18.8486 26.2236 21.5036 26.2236Z" fill="black"/>
</svg>
