<svg width="45" height="45" viewBox="0 0 45 45" fill="none" xmlns="http://www.w3.org/2000/svg">
<path d="M24.4349 44C24.1595 44 24.0285 43.7121 23.7631 42.1776C23.5951 41.1986 23.4103 39.8674 23.2323 38.5801C23.0072 36.9677 22.7183 34.8845 22.4999 33.9394C22.2849 34.8845 21.9927 36.9677 21.7676 38.5801C21.5896 39.8674 21.4014 41.1986 21.2368 42.1776C20.9613 43.79 20.8337 44.0271 20.5213 44C20.1047 43.9628 20.0476 43.5427 20.276 38.3735C20.3466 36.778 20.4373 34.7185 20.397 33.7564C20.0106 34.6473 19.3488 36.629 18.8382 38.1635C18.425 39.3965 17.9984 40.6736 17.6557 41.6085C17.088 43.1498 16.9167 43.3564 16.6177 43.2717C16.2146 43.1566 16.2381 42.7331 17.4071 37.7096C17.7699 36.1514 18.2403 34.1358 18.378 33.1806C17.8371 33.9834 16.8226 35.8058 16.0399 37.2116C15.4049 38.3498 14.7499 39.5252 14.2392 40.3823C13.396 41.7914 13.1878 41.9642 12.9089 41.8287C12.536 41.6424 12.6335 41.2325 14.7062 36.5172C15.3512 35.0504 16.1843 33.1535 16.4967 32.2389C15.8181 32.9265 14.4912 34.5254 13.4632 35.7652C12.6301 36.7679 11.7701 37.8044 11.1083 38.553C10.0266 39.7759 9.77799 39.9148 9.53611 39.7285C9.20354 39.4744 9.37486 39.0916 12.2706 34.8438C13.1743 33.5159 14.3434 31.8053 14.8171 30.9618C14.0242 31.514 12.4319 32.8385 11.199 33.8648C7.2551 37.1473 6.88893 37.3539 6.6101 37.0456C6.32791 36.7374 6.56979 36.3919 10.1811 32.7504C11.3132 31.6122 12.7746 30.1387 13.396 29.3968C12.5192 29.7932 10.7119 30.8026 9.31439 31.5851C4.83299 34.0884 4.43658 34.2273 4.21822 33.8716C4.05361 33.6074 4.20814 33.3838 5.52838 32.4083C6.33127 31.8155 7.4365 31.0533 8.50814 30.3114C9.83174 29.3968 11.5417 28.218 12.2874 27.6015C11.3535 27.8284 9.39838 28.4856 7.8833 28.9971C3.01221 30.6332 2.59564 30.6942 2.44447 30.3047C2.33361 30.0133 2.52174 29.8236 3.99986 29.1123C4.89682 28.6821 6.12299 28.1367 7.30885 27.6083C8.78025 26.9545 10.6817 26.1076 11.5282 25.6436C10.5708 25.6944 8.53166 25.9755 6.95275 26.1957C1.85658 26.9003 1.4333 26.8834 1.35939 26.4701C1.30229 26.1652 1.524 26.0128 3.10291 25.586C4.06033 25.3285 5.36377 25.0203 6.62354 24.7222C8.19236 24.3529 10.2214 23.8719 11.1419 23.5705C10.1912 23.4451 8.14533 23.3469 6.55971 23.269C1.40979 23.0217 0.996582 22.9268 0.996582 22.5068C0.996582 22.0868 1.40979 21.9919 6.55971 21.7446C8.14533 21.6701 10.1912 21.5685 11.1419 21.4431C10.2214 21.1417 8.19236 20.6607 6.62354 20.2914C5.36377 19.9933 4.06033 19.6851 3.10291 19.4276C1.524 19.0042 1.30229 18.8518 1.35939 18.5435C1.43666 18.1302 1.85658 18.1133 6.95611 18.8179C8.53502 19.0347 10.5708 19.3158 11.5316 19.37C10.685 18.9026 8.78361 18.0591 7.31221 17.4019C6.12635 16.8735 4.90018 16.3281 4.00322 15.8979C2.52846 15.1866 2.33697 14.9935 2.44783 14.7056C2.599 14.316 3.01557 14.377 7.88666 16.0131C9.40174 16.5212 11.3569 17.1784 12.2908 17.4087C11.545 16.7922 9.8351 15.6134 8.5115 14.6988C7.43986 13.9603 6.33463 13.1948 5.53174 12.602C4.20814 11.6264 4.05697 11.4028 4.22158 11.1386C4.43994 10.7829 4.83971 10.9184 9.31775 13.4251C10.7153 14.2076 12.5192 15.2137 13.3994 15.6134C12.7779 14.8715 11.3166 13.398 10.1845 12.2598C6.56979 8.61835 6.33127 8.27283 6.61346 7.96457C6.89564 7.65632 7.25846 7.86295 11.2024 11.1454C12.4353 12.1718 14.0276 13.4962 14.8204 14.0484C14.3467 13.2049 13.1777 11.4943 12.274 10.1664C9.38158 5.91857 9.20689 5.53579 9.53947 5.28173C9.78471 5.09542 10.0333 5.23431 11.1117 6.45717C11.7735 7.20579 12.6335 8.24234 13.4666 9.24502C14.4946 10.4814 15.8215 12.0803 16.5001 12.7713C16.1877 11.8567 15.3546 9.95977 14.7096 8.49301C12.6368 3.77771 12.5394 3.36783 12.9123 3.18153C13.1911 3.04264 13.3994 3.2154 14.2426 4.62457C14.7532 5.48159 15.4083 6.65703 16.0432 7.7952C16.8293 9.20437 17.8405 11.0268 18.3813 11.8296C18.2403 10.8744 17.7733 8.85885 17.4105 7.30064C16.2381 2.2737 16.2179 1.85365 16.621 1.73848C16.92 1.6538 17.0913 1.86043 17.6591 3.40171C18.0051 4.33664 18.4284 5.6137 18.8416 6.84672C19.3556 8.38123 20.0174 10.3629 20.4003 11.2538C20.4373 10.2917 20.3466 8.22879 20.2794 6.6367C20.0476 1.46071 20.1047 1.04067 20.5213 1.00002C20.827 0.972924 20.958 1.20666 21.2368 2.82246C21.4048 3.80143 21.5896 5.13268 21.7676 6.41991C21.9927 8.03232 22.2816 10.1156 22.4999 11.0607C22.7149 10.1156 23.0072 8.03232 23.2323 6.41991C23.4103 5.13268 23.5985 3.80143 23.7631 2.82246C24.0385 1.21004 24.1729 0.976311 24.4786 1.00002C24.8952 1.03728 24.9523 1.45733 24.7239 6.62654C24.6533 8.22202 24.5626 10.2816 24.6029 11.2436C24.9892 10.3527 25.651 8.37107 26.1617 6.83656C26.5749 5.60354 27.0015 4.32648 27.3442 3.39155C27.9119 1.85027 28.0832 1.64363 28.3822 1.72832C28.7853 1.84349 28.7618 2.26692 27.5928 7.29048C27.2299 8.84869 26.7596 10.8642 26.6219 11.8195C27.1628 11.0166 28.1773 9.19421 28.96 7.78504C29.5949 6.64686 30.25 5.47143 30.7606 4.61441C31.6038 3.20524 31.8121 3.03248 32.091 3.17136C32.4639 3.35767 32.3664 3.76755 30.2937 8.48285C29.6487 9.94961 28.8156 11.8466 28.5031 12.7612C29.1817 12.0735 30.5087 10.4747 31.5367 9.23486C32.3698 8.23218 33.2298 7.19563 33.8916 6.44701C34.9733 5.22415 35.2219 5.08526 35.4638 5.27157C35.7963 5.52224 35.625 5.90841 32.7292 10.1562C31.8256 11.4841 30.6565 13.1948 30.1828 14.0382C30.9756 13.4861 32.568 12.1616 33.8009 11.1352C37.7448 7.85279 38.111 7.64616 38.3898 7.95441C38.672 8.26267 38.4301 8.60818 34.8188 12.2497C33.6867 13.3878 32.2253 14.8614 31.6038 15.6032C32.4806 15.2069 34.288 14.1974 35.6855 13.4149C40.1669 10.9116 40.5633 10.7728 40.7817 11.1284C40.9463 11.3927 40.7917 11.6162 39.4715 12.5918C38.6686 13.1846 37.5634 13.9468 36.4917 14.6886C35.1681 15.6032 33.4582 16.782 32.7124 17.3986C33.6463 17.1716 35.6015 16.5144 37.1166 16.0029C41.9877 14.3668 42.4042 14.3058 42.5554 14.6954C42.6663 14.9867 42.4781 15.1764 41 15.8878C40.1064 16.318 38.8769 16.8633 37.691 17.3918C36.2196 18.0456 34.3182 18.8924 33.4717 19.3599C34.4291 19.3091 36.4682 19.0279 38.0471 18.8077C43.1433 18.1031 43.5666 18.1201 43.6438 18.5333C43.701 18.8382 43.4792 18.9906 41.9003 19.4175C40.9429 19.6749 39.6395 19.9832 38.3797 20.2813C36.8109 20.6505 34.7818 21.1315 33.8613 21.433C34.812 21.5583 36.8579 21.6566 38.4435 21.7345C43.5935 21.9817 44.0067 22.0766 44.0067 22.4966C44.0067 22.9167 43.5935 23.0115 38.4435 23.2588C36.8579 23.3333 34.812 23.435 33.8613 23.5603C34.7818 23.8618 36.8109 24.3428 38.3831 24.712C39.6428 25.0101 40.9463 25.3184 41.9037 25.5758C43.4826 25.9992 43.7043 26.1517 43.6472 26.4599C43.5699 26.8732 43.15 26.8901 38.0505 26.1855C36.4716 25.9688 34.4358 25.6876 33.475 25.6334C34.3216 26.1009 36.223 26.9443 37.6944 27.6015C38.8803 28.1299 40.1064 28.6753 41.0034 29.1055C42.4781 29.8169 42.6696 30.01 42.5588 30.2979C42.4076 30.6874 41.991 30.6265 37.1199 28.9903C35.6049 28.4822 33.6497 27.8251 32.7158 27.5947C33.4616 28.2112 35.1715 29.3901 36.4951 30.3047C37.5667 31.0431 38.672 31.8087 39.4749 32.4015C40.7985 33.3771 40.9496 33.6006 40.785 33.8648C40.5667 34.2205 40.1669 34.085 35.6889 31.5783C34.2913 30.7958 32.4874 29.7898 31.6072 29.3901C32.2287 30.1319 33.69 31.6054 34.8221 32.7436C38.4368 36.3851 38.6753 36.7306 38.3931 37.0389C38.1143 37.3471 37.7481 37.1405 33.8042 33.8581C32.5713 32.8317 30.979 31.5072 30.1862 30.955C30.6599 31.7985 31.8289 33.5092 32.7326 34.837C35.625 39.0849 35.7997 39.4676 35.4671 39.7217C35.2185 39.908 34.9834 39.7793 33.8949 38.5463C33.2331 37.7976 32.3731 36.7611 31.54 35.7584C30.5121 34.522 29.1851 32.9231 28.5065 32.2321C28.8189 33.1467 29.6521 35.0437 30.2971 36.5104C32.3698 41.2257 32.4672 41.6356 32.0943 41.8219C31.8155 41.9608 31.6072 41.788 30.764 40.3789C30.2534 39.5218 29.5983 38.3464 28.9634 37.2082C28.1773 35.7991 27.1661 33.9766 26.6253 33.1738C26.7663 34.1291 27.2333 36.1446 27.5961 37.7028C28.7685 42.7297 28.7887 43.1498 28.3856 43.265C28.0866 43.3496 27.9153 43.143 27.3475 41.6017C27.0015 40.6668 26.5782 39.3897 26.165 38.1567C25.651 36.6222 24.9892 34.6406 24.6063 33.7497C24.5693 34.7117 24.66 36.7713 24.7272 38.3667C24.9523 43.5359 24.8985 43.9526 24.482 43.9933C24.4685 43.9933 24.4517 43.9933 24.4383 43.9933L24.4349 44ZM20.4978 32.8283C20.5213 32.8283 20.5448 32.8283 20.5717 32.8351C20.9613 32.9062 21.0117 33.3262 20.79 38.3938C20.7295 39.7556 20.6556 41.4493 20.659 42.5333C20.8538 41.4832 21.0823 39.8335 21.2671 38.509C21.9759 33.4211 22.1035 33.0146 22.5033 33.0146C22.9031 33.0146 23.0307 33.4211 23.7396 38.509C23.9243 39.8335 24.1528 41.4832 24.3476 42.5333C24.3476 41.4493 24.2737 39.7556 24.2166 38.3938C23.9949 33.3262 24.0453 32.9096 24.4349 32.8351C24.828 32.7605 25.0262 33.1365 26.6488 37.9975C27.0721 39.2678 27.5995 40.8463 27.9824 41.8456C27.7842 40.782 27.4013 39.1425 27.0956 37.8214C25.9433 32.8723 25.9164 32.4489 26.286 32.3066C26.6555 32.161 26.9209 32.4929 29.4068 36.9576C30.0585 38.1296 30.8715 39.5896 31.4359 40.5008C31.0462 39.4947 30.371 37.9535 29.8267 36.7171C27.7809 32.0593 27.6767 31.6495 28.0127 31.4394C28.352 31.2294 28.6711 31.5072 31.9297 35.4298C32.7897 36.4664 33.858 37.7536 34.5803 38.5497C34.0159 37.6351 33.0685 36.2462 32.3093 35.1284C29.4438 30.9212 29.2657 30.535 29.558 30.2674C29.8503 29.9998 30.2164 30.2098 34.1301 33.4651C35.1648 34.3255 36.4548 35.3993 37.3114 36.0497C36.5892 35.2537 35.4067 34.0647 34.4593 33.1094C30.8715 29.4951 30.6263 29.1495 30.8648 28.8311C31.1033 28.5127 31.4997 28.655 35.9341 31.1346C37.1099 31.7917 38.5746 32.6115 39.5353 33.0925C38.6821 32.4455 37.3081 31.4936 36.2028 30.7315C32.0103 27.8352 31.7046 27.5405 31.8827 27.1814C32.0607 26.8258 32.4773 26.8901 37.2812 28.5059C38.5578 28.9361 40.1501 29.468 41.1848 29.7661C40.2274 29.2884 38.7089 28.6143 37.4895 28.0723C32.8267 25.9992 32.4739 25.7655 32.5814 25.3793C32.6889 24.9966 33.1088 24.9864 38.1177 25.6774C39.4581 25.8637 41.1243 26.0941 42.196 26.1923C41.1713 25.901 39.5555 25.5216 38.2621 25.2134C33.2869 24.0379 32.8972 23.8753 32.9342 23.4756C32.9711 23.0827 33.381 22.9912 38.42 22.7507C39.7906 22.6863 41.5006 22.6016 42.5756 22.5C41.5039 22.3984 39.7906 22.3137 38.42 22.2494C33.381 22.0088 32.9711 21.9174 32.9342 21.5244C32.8972 21.1247 33.2903 20.9587 38.2621 19.7867C39.5588 19.4818 41.1713 19.099 42.196 18.8077C41.1243 18.906 39.4547 19.1363 38.1177 19.3226C33.1088 20.0137 32.6889 20.0035 32.5814 19.6207C32.4739 19.2345 32.8267 19.0008 37.4895 16.9277C38.7089 16.3857 40.2307 15.7116 41.1848 15.234C40.1501 15.5287 38.5611 16.0639 37.2812 16.4941C32.4773 18.1065 32.0607 18.1743 31.8827 17.8186C31.7046 17.4595 32.0103 17.1648 36.2028 14.2686C37.3081 13.5064 38.6821 12.5579 39.5353 11.9075C38.5746 12.3886 37.1099 13.2083 35.9341 13.8655C31.4997 16.3451 31.1033 16.484 30.8648 16.1689C30.6263 15.8505 30.8681 15.505 34.4593 11.8906C35.4067 10.9353 36.5892 9.74297 37.3114 8.95031C36.4548 9.6007 35.1648 10.6711 34.1301 11.5349C30.2164 14.7902 29.8536 15.0036 29.558 14.7327C29.2657 14.465 29.4404 14.0789 32.3093 9.8717C33.0685 8.75723 34.0159 7.36839 34.5803 6.45039C33.858 7.24305 32.7897 8.53366 31.9297 9.57021C28.6711 13.4929 28.352 13.7706 28.0127 13.5606C27.6767 13.3506 27.7809 12.9407 29.8267 8.28299C30.371 7.04658 31.0462 5.5053 31.4359 4.49924C30.8715 5.41384 30.0619 6.87044 29.4068 8.04249C26.9209 12.5071 26.6555 12.8391 26.286 12.6934C25.9164 12.5512 25.9433 12.1277 27.0956 7.17869C27.4013 5.86098 27.7842 4.21808 27.9824 3.15443C27.5995 4.15372 27.0721 5.73226 26.6488 7.00254C25.0262 11.8601 24.828 12.2361 24.4349 12.165C24.0453 12.0938 23.9949 11.6738 24.2166 6.60622C24.2771 5.24447 24.351 3.55076 24.3476 2.46678C24.1528 3.51688 23.9243 5.16656 23.7396 6.49104C23.0307 11.579 22.9031 11.9854 22.5033 11.9854C22.1035 11.9854 21.9759 11.579 21.2671 6.49104C21.0823 5.16656 20.8538 3.52027 20.659 2.46678C20.659 3.55076 20.7329 5.24447 20.79 6.60622C21.0117 11.6738 20.9613 12.0905 20.5717 12.165C20.1786 12.2361 19.9804 11.8635 18.3578 7.00254C17.9345 5.73226 17.4071 4.15372 17.0242 3.15443C17.2224 4.21808 17.6053 5.85759 17.911 7.17869C19.0633 12.1277 19.0902 12.5512 18.7206 12.6934C18.3511 12.8391 18.0857 12.5071 15.5998 8.04249C14.9481 6.87044 14.1351 5.41045 13.5707 4.49924C13.9604 5.5053 14.6356 7.04658 15.1799 8.28299C17.2257 12.9407 17.3299 13.3506 16.9939 13.5606C16.658 13.7706 16.3355 13.4962 13.0769 9.57021C12.2169 8.53366 11.1486 7.24644 10.4263 6.45039C10.9907 7.365 11.9381 8.75384 12.6973 9.8717C15.5662 14.0789 15.7409 14.465 15.4486 14.7327C15.1563 15.0003 14.7902 14.7902 10.8799 11.5349C9.84518 10.6745 8.55518 9.6007 7.69854 8.95031C8.4208 9.74636 9.6033 10.9353 10.5506 11.8906C14.1385 15.505 14.3837 15.8505 14.1452 16.1689C13.9067 16.4873 13.5103 16.3451 9.07588 13.8655C7.9001 13.2083 6.43541 12.3886 5.47463 11.9075C6.32791 12.5545 7.70189 13.5064 8.80713 14.2686C12.9996 17.1648 13.3053 17.4595 13.1273 17.8186C12.9492 18.1743 12.536 18.1099 7.72877 16.4941C6.45221 16.0639 4.85986 15.5321 3.82518 15.234C4.7826 15.7116 6.30103 16.3857 7.52049 16.9277C12.1833 19.0008 12.536 19.2345 12.4285 19.6207C12.321 20.0035 11.9011 20.0137 6.89229 19.3226C5.5519 19.1363 3.88564 18.906 2.814 18.8077C3.83861 19.099 5.45447 19.4784 6.75119 19.7867C11.7264 20.9621 12.1161 21.1247 12.0792 21.5244C12.0422 21.9174 11.6324 22.0088 6.5933 22.2494C5.22268 22.3137 3.51275 22.3984 2.43775 22.5C3.50939 22.6016 5.22268 22.6863 6.5933 22.7507C11.6324 22.9912 12.0422 23.0827 12.0792 23.4756C12.1161 23.8753 11.7231 24.0413 6.75119 25.2134C5.45447 25.5182 3.84197 25.901 2.81736 26.1923C3.889 26.0941 5.55861 25.8637 6.89564 25.6774C11.9045 24.9864 12.3244 24.9966 12.4319 25.3793C12.5394 25.7655 12.1867 25.9992 7.52721 28.0723C6.30775 28.6143 4.78596 29.2918 3.82854 29.7661C4.86322 29.4713 6.45221 28.9361 7.73213 28.5059C12.536 26.8935 12.9526 26.8258 13.1306 27.1814C13.3087 27.5405 13.003 27.8352 8.81049 30.7315C7.70525 31.4936 6.33127 32.4421 5.47799 33.0925C6.43877 32.6115 7.90346 31.7917 9.07924 31.1346C13.5136 28.655 13.91 28.5161 14.1485 28.8311C14.387 29.1495 14.1452 29.4951 10.554 33.1094C9.6033 34.0647 8.42416 35.2571 7.70189 36.0497C8.55854 35.3993 9.84854 34.3289 10.8832 33.4651C14.7969 30.2098 15.1597 29.9964 15.4553 30.2674C15.7476 30.535 15.5729 30.9212 12.704 35.1284C11.9448 36.2428 10.9974 37.6317 10.4331 38.5463C11.1553 37.7536 12.2236 36.463 13.0836 35.4264C16.3422 31.5038 16.6613 31.226 17.0006 31.4361C17.3366 31.6461 17.2324 32.056 15.1866 36.7137C14.6424 37.9501 13.9671 39.4914 13.5774 40.4974C14.1418 39.5828 14.9514 38.1262 15.6065 36.9542C18.0924 32.4895 18.3578 32.1576 18.7274 32.3032C19.0969 32.4455 19.07 32.8689 17.9178 37.818C17.6121 39.1357 17.2291 40.7786 17.0309 41.8422C17.4138 40.8429 17.9413 39.2644 18.3679 37.9941C19.8863 33.4448 20.1585 32.8249 20.5112 32.8249L20.4978 32.8283Z" fill="black"/>
</svg>
