<svg width="24" height="21" viewBox="0 0 24 21" fill="none" xmlns="http://www.w3.org/2000/svg">
<path d="M21.1921 1.98344C19.9724 0.765877 18.3195 0.0820312 16.5961 0.0820313C14.8727 0.0820312 13.2197 0.765877 12 1.98344C10.7777 0.780856 9.12966 0.109988 7.41494 0.11697C5.70022 0.123952 4.05771 0.808219 2.84521 2.02072C1.63271 3.23322 0.948442 4.87573 0.94146 6.59045C0.934478 8.30517 1.60535 9.95319 2.80793 11.1755L12 20.3687L21.1921 11.1766C22.41 9.95689 23.0941 8.30369 23.0941 6.58003C23.0941 4.85637 22.41 3.20317 21.1921 1.98344ZM19.6603 9.64369L12 17.305L4.33977 9.64478C3.89978 9.2146 3.55647 8.69564 3.33265 8.12245C3.10884 7.54925 3.00968 6.93497 3.04175 6.32046C3.07382 5.70596 3.2364 5.10534 3.51867 4.55856C3.80094 4.01178 4.19642 3.53138 4.6788 3.14934C5.16117 2.7673 5.71938 2.49238 6.31628 2.34286C6.91318 2.19335 7.53508 2.17267 8.14059 2.28221C8.7461 2.39175 9.32134 2.62899 9.82802 2.97815C10.3347 3.32731 10.7612 3.78037 11.0792 4.30719L12 5.79353L12.9209 4.30719C13.0932 4.02083 13.2983 3.75544 13.5319 3.51636C14.3578 2.72922 15.4551 2.29013 16.5961 2.29013C17.737 2.29013 18.8343 2.72922 19.6603 3.51636C20.0627 3.91875 20.3819 4.39646 20.5997 4.92222C20.8175 5.44798 20.9296 6.01149 20.9296 6.58057C20.9296 7.14965 20.8175 7.71316 20.5997 8.23892C20.3819 8.76467 20.0627 9.24239 19.6603 9.64478V9.64369Z" fill="#5C5C5C"/>
</svg>
