<svg width="43" height="43" viewBox="0 0 43 43" fill="none" xmlns="http://www.w3.org/2000/svg">
<path d="M21.5 43L21.1339 39.4307C20.3446 31.6883 19.6123 27.8559 17.3787 25.6225C15.1417 23.3858 11.3126 22.6571 3.57046 21.8643L0 21.5L3.57046 21.1357C11.3126 20.3462 15.1417 19.6142 17.3787 17.3775C19.6157 15.1407 20.3446 11.3083 21.1339 3.56928L21.5 0L21.8661 3.56928C22.6554 11.3117 23.3877 15.1441 25.6213 17.3775C27.8583 19.6142 31.6874 20.3429 39.4295 21.1357L43 21.5L39.4295 21.8643C31.6874 22.6538 27.8583 23.3858 25.6213 25.6225C23.3843 27.8592 22.6554 31.6917 21.8661 39.4307L21.5 43ZM6.9461 21.5C18.1344 22.8663 20.1363 24.8702 21.5 36.0571C22.8671 24.8669 24.8689 22.8663 36.0539 21.5C24.8656 20.1337 22.8637 18.1298 21.5 6.94288C20.1329 18.1331 18.1311 20.1337 6.9461 21.5Z" fill="black"/>
<path d="M34.3811 12.7184C34.2434 12.5801 34.2434 12.3575 34.3811 12.2192L34.9588 11.6389C35.0966 11.5006 35.3182 11.5006 35.456 11.6389C35.5937 11.7772 35.5937 11.9999 35.456 12.1382L34.8782 12.7184C34.7405 12.8568 34.5188 12.8568 34.3811 12.7184Z" fill="black"/>
<path d="M36.7859 10.3029C36.6482 10.1646 36.6482 9.94195 36.7859 9.80363L37.3636 9.22337C37.5013 9.08505 37.723 9.08505 37.8607 9.22337C37.9984 9.36169 37.9984 9.58434 37.8607 9.72266L37.283 10.3029C37.1453 10.4412 36.9236 10.4412 36.7859 10.3029Z" fill="black"/>
<path d="M34.9588 10.3029L34.3811 9.72266C34.2434 9.58434 34.2434 9.36169 34.3811 9.22337C34.5188 9.08505 34.7405 9.08505 34.8782 9.22337L35.456 9.80363C35.5937 9.94195 35.5937 10.1646 35.456 10.3029C35.3182 10.4412 35.0966 10.4412 34.9588 10.3029Z" fill="black"/>
<path d="M37.3636 12.7184L36.7859 12.1382C36.6482 11.9999 36.6482 11.7772 36.7859 11.6389C36.9236 11.5006 37.1453 11.5006 37.283 11.6389L37.8607 12.2192C37.9984 12.3575 37.9984 12.5801 37.8607 12.7184C37.723 12.8568 37.5013 12.8568 37.3636 12.7184Z" fill="black"/>
<path d="M7.66823 5.84983C7.80594 5.71151 8.02762 5.71151 8.16534 5.84983L8.74306 6.43009C8.88077 6.56841 8.88077 6.79107 8.74306 6.92939C8.60535 7.0677 8.38366 7.0677 8.24595 6.92939L7.66823 6.34913C7.53051 6.21081 7.53051 5.98815 7.66823 5.84983Z" fill="black"/>
<path d="M10.073 8.26536C10.2107 8.12704 10.4324 8.12704 10.5701 8.26536L11.1478 8.84562C11.2856 8.98394 11.2856 9.2066 11.1478 9.34491C11.0101 9.48323 10.7884 9.48323 10.6507 9.34491L10.073 8.76465C9.9353 8.62634 9.9353 8.40368 10.073 8.26536Z" fill="black"/>
<path d="M10.073 6.43009L10.6507 5.84983C10.7884 5.71151 11.0101 5.71151 11.1478 5.84983C11.2856 5.98815 11.2856 6.21081 11.1478 6.34913L10.5701 6.92939C10.4324 7.0677 10.2107 7.0677 10.073 6.92939C9.9353 6.79107 9.9353 6.56841 10.073 6.43009Z" fill="black"/>
<path d="M7.66823 8.84562L8.24595 8.26536C8.38366 8.12704 8.60535 8.12704 8.74306 8.26536C8.88077 8.40368 8.88077 8.62634 8.74306 8.76465L8.16534 9.34491C8.02762 9.48323 7.80594 9.48323 7.66823 9.34491C7.53051 9.2066 7.53051 8.98394 7.66823 8.84562Z" fill="black"/>
<path d="M1.62233 34.3098C1.48461 34.1714 1.48461 33.9488 1.62233 33.8105L2.20005 33.2302C2.33776 33.0919 2.55945 33.0919 2.69716 33.2302C2.83487 33.3685 2.83487 33.5912 2.69716 33.7295L2.11944 34.3098C1.98172 34.4481 1.76004 34.4481 1.62233 34.3098Z" fill="black"/>
<path d="M4.02711 31.894C3.8894 31.7557 3.8894 31.533 4.02711 31.3947L4.60484 30.8144C4.74255 30.6761 4.96423 30.6761 5.10195 30.8144C5.23966 30.9527 5.23966 31.1754 5.10195 31.3137L4.52422 31.894C4.38651 32.0323 4.16483 32.0323 4.02711 31.894Z" fill="black"/>
<path d="M2.20005 31.894L1.62233 31.3137C1.48461 31.1754 1.48461 30.9527 1.62233 30.8144C1.76004 30.6761 1.98172 30.6761 2.11944 30.8144L2.69716 31.3947C2.83487 31.533 2.83487 31.7557 2.69716 31.894C2.55945 32.0323 2.33776 32.0323 2.20005 31.894Z" fill="black"/>
<path d="M4.60484 34.3098L4.02711 33.7295C3.8894 33.5912 3.8894 33.3685 4.02711 33.2302C4.16483 33.0919 4.38651 33.0919 4.52422 33.2302L5.10195 33.8105C5.23966 33.9488 5.23966 34.1714 5.10195 34.3098C4.96423 34.4481 4.74255 34.4481 4.60484 34.3098Z" fill="black"/>
<path d="M36.796 41.2894L36.4736 40.2133C35.7279 37.7134 35.1972 37.1838 32.6982 36.4382L31.6167 36.1143L32.6982 35.7905C35.1972 35.0415 35.7246 34.5119 36.4736 32.0154L36.796 30.9392L37.1185 32.0154C37.8642 34.5152 38.3949 35.0449 40.8938 35.7905L41.9754 36.1143L40.8938 36.4382C38.3949 37.1871 37.8675 37.7168 37.1185 40.2133L36.796 41.2894ZM33.8705 36.1143C35.4928 36.7182 36.1948 37.4165 36.796 39.0426C37.3973 37.4165 38.0959 36.7182 39.7216 36.1143C38.0993 35.5104 37.3973 34.8121 36.796 33.186C36.1948 34.8121 35.4962 35.5104 33.8705 36.1143Z" fill="black"/>
</svg>
