<svg width="20" height="18" viewBox="0 0 20 18" fill="none" xmlns="http://www.w3.org/2000/svg">
<path fill-rule="evenodd" clip-rule="evenodd" d="M5.62111 15.9323C5.61603 14.7871 6.53895 13.8539 7.68418 13.8462C8.23741 13.8425 8.76925 14.0597 9.16175 14.4496C9.55425 14.8395 9.77497 15.3699 9.77495 15.9232C9.77493 17.0684 8.84785 17.9975 7.70261 18C6.55736 18.0026 5.6262 17.0776 5.62111 15.9323ZM6.9919 15.9232C6.9919 16.3056 7.30186 16.6155 7.68421 16.6155C8.06656 16.6155 8.37652 16.3056 8.37652 15.9232C8.37652 15.5409 8.06656 15.2309 7.68421 15.2309C7.30186 15.2309 6.9919 15.5409 6.9919 15.9232Z" fill="#1E1E1E"/>
<path fill-rule="evenodd" clip-rule="evenodd" d="M11.1602 15.9323C11.1551 14.7871 12.078 13.8539 13.2232 13.8462C13.7765 13.8425 14.3083 14.0597 14.7008 14.4496C15.0933 14.8395 15.314 15.3699 15.314 15.9232C15.314 17.0684 14.3869 17.9975 13.2417 18C12.0964 18.0026 11.1653 17.0776 11.1602 15.9323ZM12.531 15.9232C12.531 16.3056 12.8409 16.6155 13.2233 16.6155C13.6056 16.6155 13.9156 16.3056 13.9156 15.9232C13.9156 15.5409 13.6056 15.2309 13.2233 15.2309C12.8409 15.2309 12.531 15.5409 12.531 15.9232Z" fill="#1E1E1E"/>
<path fill-rule="evenodd" clip-rule="evenodd" d="M3.36463 0L3.75232 2.07693H19.5508L18.3324 9.23542C18.2166 9.90706 17.6292 10.3946 16.9478 10.3847H5.3031L5.53848 11.6862H15.4662C15.8486 11.6862 16.1585 11.9962 16.1585 12.3785C16.1585 12.7609 15.8486 13.0708 15.4662 13.0708H4.38925L2.21539 1.38462H0.69231C0.309958 1.38462 0 1.07466 0 0.69231C0 0.309958 0.309958 0 0.69231 0H3.36463ZM5.04003 9H16.9478L17.917 3.46152H4.0708L5.04003 9Z" fill="#1E1E1E"/>
</svg>
