<svg width="45" height="45" viewBox="0 0 45 45" fill="none" xmlns="http://www.w3.org/2000/svg">
<path d="M22.5 44C10.6452 44 1 34.3548 1 22.5C1 10.6452 10.6452 1 22.5 1C34.3548 1 44 10.6452 44 22.5C44 34.3548 34.3548 44 22.5 44ZM22.5 1.66154C11.0091 1.66154 1.66154 11.0091 1.66154 22.5C1.66154 33.9909 11.0091 43.3385 22.5 43.3385C33.9909 43.3385 43.3385 33.9909 43.3385 22.5C43.3385 11.0091 33.9909 1.66154 22.5 1.66154Z" fill="black" stroke="black" stroke-width="0.1"/>
<path d="M22.2057 22.6621C13.0566 22.6621 5.94837 19.189 5.87891 19.1559L6.17329 18.5639C6.24275 18.5969 13.2187 22.0039 22.2057 22.0039C31.1927 22.0039 38.764 18.5936 38.8401 18.5605L39.1146 19.1625C39.0385 19.1989 31.3481 22.6654 22.2057 22.6654V22.6621Z" fill="black" stroke="black" stroke-width="0.1"/>
<path d="M22.2453 21.0082C14.3531 21.0082 8.22067 18.0114 8.16113 17.9816L8.45552 17.3895C8.51506 17.4193 14.5152 20.3466 22.2453 20.3466C29.9754 20.3466 36.4915 17.416 36.5544 17.3862L36.8289 17.9882C36.7627 18.018 30.1308 21.0082 22.2453 21.0082Z" fill="black" stroke="black" stroke-width="0.1"/>
<path d="M8.58791 25.973L8.22737 25.3677C7.39053 23.9619 7.36407 22.2055 8.16122 20.7766L8.5813 20.0225L9.16014 20.3433L8.74007 21.0975C8.05868 22.3213 8.07853 23.8263 8.7963 25.027L9.15684 25.6323L8.58791 25.9697V25.973Z" fill="black" stroke="black" stroke-width="0.1"/>
<path d="M13.3277 27.2962L12.9671 26.6909C12.1303 25.2852 12.1038 23.5288 12.901 22.0999L13.321 21.3457L13.8999 21.6665L13.4798 22.4207C12.7984 23.6446 12.8183 25.1495 13.536 26.3502L13.8966 26.9556L13.3277 27.2929V27.2962Z" fill="black" stroke="black" stroke-width="0.1"/>
<path d="M18.0679 27.9576L17.7074 27.3523C16.8705 25.9465 16.844 24.1902 17.6412 22.7612L18.0613 22.0071L18.6401 22.3279L18.22 23.0821C17.5387 24.3059 17.5585 25.8109 18.2763 27.0116L18.6368 27.6169L18.0679 27.9543V27.9576Z" fill="black" stroke="black" stroke-width="0.1"/>
<path d="M22.8111 27.9576L22.4505 27.3523C21.6137 25.9465 21.5872 24.1902 22.3844 22.7612L22.8044 22.0071L23.3833 22.3279L22.9632 23.0821C22.2818 24.3059 22.3017 25.8109 23.0194 27.0116L23.38 27.6169L22.8111 27.9543V27.9576Z" fill="black" stroke="black" stroke-width="0.1"/>
<path d="M27.5508 27.6268L27.1903 27.0215C26.3534 25.6157 26.327 23.8593 27.1241 22.4304L27.5442 21.6763L28.123 21.9971L27.703 22.7513C27.0216 23.9751 27.0414 25.4801 27.7592 26.6808L28.1197 27.2861L27.5508 27.6235V27.6268Z" fill="black" stroke="black" stroke-width="0.1"/>
<path d="M32.2905 26.6346L31.93 26.0293C31.0932 24.6235 31.0667 22.8672 31.8639 21.4382L32.2839 20.6841L32.8628 21.0049L32.4427 21.7591C31.7613 22.9829 31.7812 24.4879 32.4989 25.6886L32.8595 26.2939L32.2905 26.6313V26.6346Z" fill="black" stroke="black" stroke-width="0.1"/>
<path d="M37.0342 25.3116L36.6737 24.7063C35.8368 23.3005 35.8104 21.5442 36.6075 20.1152L37.0276 19.3611L37.6064 19.6819L37.1864 20.4361C36.505 21.6599 36.5248 23.1649 37.2426 24.3656L37.6031 24.9709L37.0342 25.3083V25.3116Z" fill="black" stroke="black" stroke-width="0.1"/>
<path d="M5.9418 29.2609L6.43134 27.0117C6.17003 26.9753 5.9451 26.9587 5.76318 26.9687L5.45557 28.391C5.57464 28.6589 5.73672 28.95 5.9451 29.2609H5.9418Z" fill="black" stroke="black" stroke-width="0.1"/>
<path d="M7.75464 27.2662C7.5231 27.2133 7.31141 27.1703 7.10633 27.1306L6.48779 29.9818C6.65318 30.177 6.8351 30.3722 7.03687 30.5739L7.75464 27.2695V27.2662Z" fill="black" stroke="black" stroke-width="0.1"/>
<path d="M9.06118 27.5739C8.83957 27.521 8.62457 27.4681 8.41618 27.4185L7.61572 31.1032C7.79434 31.2554 7.98949 31.4108 8.19457 31.563L9.06118 27.5706V27.5739Z" fill="black" stroke="black" stroke-width="0.1"/>
<path d="M10.371 27.8915C10.1493 27.8386 9.93765 27.7857 9.72596 27.7361L8.7998 31.9931C8.99165 32.1188 9.1868 32.2445 9.39519 32.3669L10.3677 27.8915H10.371Z" fill="black" stroke="black" stroke-width="0.1"/>
<path d="M11.6805 28.1957C11.4622 28.1461 11.2472 28.0965 11.0355 28.0469L10.02 32.714C10.2152 32.8166 10.4203 32.9191 10.6319 33.0183L11.6805 28.1957Z" fill="black" stroke="black" stroke-width="0.1"/>
<path d="M12.9937 28.4801C12.7754 28.4338 12.5604 28.3875 12.3454 28.3445L11.2671 33.306C11.4689 33.392 11.6772 33.4747 11.8889 33.5541L12.9904 28.4834L12.9937 28.4801Z" fill="black" stroke="black" stroke-width="0.1"/>
<path d="M14.3133 28.7381C14.095 28.6984 13.8767 28.6587 13.6617 28.6157L12.5371 33.7823C12.7422 33.8518 12.9539 33.918 13.1722 33.9841L14.3133 28.7381Z" fill="black" stroke="black" stroke-width="0.1"/>
<path d="M15.6433 28.9598C15.4217 28.9268 15.2034 28.8904 14.9884 28.854L13.834 34.1695C14.0457 34.2257 14.2574 34.2819 14.4757 34.3315L15.6433 28.9598Z" fill="black" stroke="black" stroke-width="0.1"/>
<path d="M16.9793 29.1484C16.7577 29.1219 16.5394 29.0922 16.3211 29.0591L15.1436 34.4804C15.3552 34.5234 15.5736 34.5631 15.7952 34.6028L16.9826 29.1484H16.9793Z" fill="black" stroke="black" stroke-width="0.1"/>
<path d="M18.3224 29.2971C18.1008 29.2773 17.8792 29.2541 17.6609 29.231L16.4668 34.7184C16.6818 34.7515 16.9001 34.7846 17.1217 34.8143L18.3224 29.2971Z" fill="black" stroke="black" stroke-width="0.1"/>
<path d="M19.6788 29.3965C19.4539 29.3833 19.2323 29.3701 19.0106 29.3535L17.8066 34.8906C18.0249 34.9137 18.2433 34.9369 18.4715 34.9567L19.6788 29.3998V29.3965Z" fill="black" stroke="black" stroke-width="0.1"/>
<path d="M21.0416 29.4493C20.8167 29.446 20.5918 29.4361 20.3702 29.4294L19.1562 35.0062C19.3746 35.0194 19.5995 35.0294 19.8277 35.0393L21.0416 29.4493Z" fill="black" stroke="black" stroke-width="0.1"/>
<path d="M22.4206 29.4462C22.1924 29.4528 21.9674 29.4561 21.7425 29.4561L20.522 35.0693C20.7436 35.0759 20.9718 35.0759 21.1967 35.0759L22.4206 29.4429V29.4462Z" fill="black" stroke="black" stroke-width="0.1"/>
<path d="M23.8102 29.3865C23.5819 29.403 23.3537 29.4129 23.1255 29.4229L21.895 35.079C22.1166 35.079 22.3482 35.0724 22.5764 35.0658L23.8102 29.3865Z" fill="black" stroke="black" stroke-width="0.1"/>
<path d="M25.2125 29.2607C24.9842 29.2872 24.7527 29.3104 24.5211 29.3302L23.2808 35.0426C23.5123 35.0327 23.7405 35.0227 23.9655 35.0095L25.2158 29.2607H25.2125Z" fill="black" stroke="black" stroke-width="0.1"/>
<path d="M26.6282 29.079C26.3966 29.1121 26.1651 29.1451 25.9303 29.1749L24.6733 34.9568C24.9049 34.9402 25.1397 34.9237 25.3613 34.9005L26.6282 29.0757V29.079Z" fill="black" stroke="black" stroke-width="0.1"/>
<path d="M28.0571 28.8408C27.8256 28.8838 27.5907 28.9235 27.3526 28.9632L26.0791 34.8211C26.3139 34.7947 26.5488 34.7649 26.7737 34.7351L28.0538 28.8408H28.0571Z" fill="black" stroke="black" stroke-width="0.1"/>
<path d="M29.4958 28.5496C29.2609 28.6025 29.0261 28.6521 28.7846 28.7017L27.4946 34.6324C27.7361 34.5927 27.9676 34.5497 28.1992 34.5067L29.4925 28.5529L29.4958 28.5496Z" fill="black" stroke="black" stroke-width="0.1"/>
<path d="M30.948 28.2024C30.7131 28.2619 30.475 28.3215 30.2335 28.381L28.9336 34.3613C29.1751 34.3084 29.4132 34.2588 29.6447 34.2025L30.948 28.2057V28.2024Z" fill="black" stroke="black" stroke-width="0.1"/>
<path d="M32.4101 27.8087C32.1752 27.8749 31.9337 27.9443 31.689 28.0072L30.3857 34.0073C30.6338 33.9379 30.872 33.8684 31.1101 33.7923L32.4101 27.8054V27.8087Z" fill="black" stroke="black" stroke-width="0.1"/>
<path d="M33.882 27.3689C33.6438 27.4417 33.4056 27.5144 33.1576 27.5905L31.8643 33.5444C32.1156 33.455 32.3637 33.3657 32.6019 33.2698L33.8853 27.3689H33.882Z" fill="black" stroke="black" stroke-width="0.1"/>
<path d="M35.3604 26.8992C35.1255 26.9752 34.8808 27.0546 34.6327 27.134L33.3691 32.9522C33.6304 32.8365 33.8818 32.7174 34.1233 32.5983L35.3604 26.9025V26.8992Z" fill="black" stroke="black" stroke-width="0.1"/>
<path d="M36.839 26.4194C36.6075 26.4922 36.366 26.5716 36.1113 26.6543L34.9106 32.1748C35.1852 32.0194 35.4432 31.8573 35.6913 31.6952L36.839 26.4194Z" fill="black" stroke="black" stroke-width="0.1"/>
<path d="M38.1883 26.0159C37.9667 26.0754 37.7252 26.1449 37.4672 26.2243L36.3823 31.2222C36.6767 31.0039 36.9512 30.7823 37.2026 30.5606L38.1916 26.0159H38.1883Z" fill="black" stroke="black" stroke-width="0.1"/>
<path d="M39.6172 25.8572C39.4584 25.8076 39.2335 25.8076 38.9391 25.8539L38.1089 29.671C38.4926 29.2476 38.8035 28.8341 39.0549 28.4405L39.6172 25.8539V25.8572Z" fill="black" stroke="black" stroke-width="0.1"/>
</svg>
