<svg width="43" height="39" viewBox="0 0 43 39" fill="none" xmlns="http://www.w3.org/2000/svg">
<path d="M30.0402 3.26903C29.9112 3.18964 29.931 3.78172 30.0634 3.87434C30.1295 3.92064 30.1163 3.95041 30.0303 3.95041C29.7987 3.95041 30.3313 5.07503 30.6488 5.24372C30.9531 5.4058 31.5617 5.42233 31.6114 5.27018C31.6345 5.19741 31.7536 5.14118 31.8727 5.14118C32.1108 5.14118 32.6434 4.6351 32.554 4.48957C32.4747 4.36387 32.8617 4.31757 32.7757 4.17533C32.7393 4.1191 32.769 4.05957 32.8451 4.0331C33.0072 3.98018 33.1031 2.31972 32.941 2.31972C32.8848 2.31972 32.8617 2.24364 32.8914 2.15764C32.9344 2.03857 32.9014 2.0121 32.7624 2.06503C32.6434 2.10803 32.6004 2.09149 32.6467 2.01541C32.7327 1.87318 32.4085 1.53249 32.2696 1.61849C32.21 1.65487 32.1704 1.64495 32.1704 1.59203C32.1704 1.48287 31.4162 1.46303 31.35 1.56887C31.3831 1.56887 30.748 1.4531 30.285 2.07164C30.1626 2.23372 30.1427 2.3131 30.232 2.26018C30.3214 2.20726 30.3048 2.26018 30.189 2.38918C29.8947 2.71664 30.1791 3.3451 30.0369 3.2558L30.0402 3.26903Z" fill="#1E1E1E"/>
<path d="M33.0306 10.1259C32.9711 10.1259 32.9512 10.03 32.9909 9.90761C33.0736 9.63638 32.8487 9.61322 32.6568 9.87453C32.4055 10.2152 32.5808 9.6893 32.6436 9.62645C32.9843 9.28576 32.2864 9.13692 32.2798 9.39822C32.2798 9.4743 32.2103 9.44122 32.121 9.32215C31.9688 9.12038 31.9589 9.12038 31.7208 9.32215C31.5256 9.48753 31.5058 9.49084 31.6248 9.33868C31.7505 9.17661 31.7505 9.15015 31.6182 9.15015C31.4561 9.15015 31.3338 9.36184 31.3139 9.36184C31.1088 9.6463 30.9898 9.40815 30.9898 9.62315C30.9898 9.85469 30.6656 9.96384 30.6656 10.202C30.6656 10.288 30.5697 10.4501 30.4605 10.546C30.2323 10.7445 29.9379 11.492 30.1364 11.3696C30.401 11.2075 29.7361 12.0675 30.2984 12.4777C30.5631 12.6695 30.1694 12.6728 30.8508 13.04C32.7197 14.0488 33.5168 10.1259 33.0405 10.1259H33.0306Z" fill="#1E1E1E"/>
<path d="M40.172 9.62982C39.9437 9.5372 39.8379 10.1789 39.6394 10.0565C39.5634 10.0102 39.5435 10.0267 39.5898 10.0995C39.6758 10.2417 39.4476 10.7908 39.3318 10.7214C39.2161 10.6486 38.9746 11.2804 38.9878 11.6177C39.0176 12.3554 39.1433 12.8449 39.2888 12.792C39.4939 12.7159 39.4741 12.9408 39.3384 12.9408C39.2028 12.9408 39.3384 13.2947 39.4145 13.2187C39.4476 13.1856 39.5369 13.2451 39.6097 13.3444C39.7287 13.5064 39.7651 13.5097 39.9404 13.3708C40.215 13.1492 39.8677 13.4171 40.1885 13.5891C40.4498 13.728 40.5557 13.7347 40.4763 13.6024C40.4432 13.5494 40.5027 13.5263 40.6119 13.556C40.8501 13.6189 41.3065 13.2286 41.6968 12.6597C41.2999 11.5284 40.8137 10.4402 40.2414 9.4082C40.1984 9.56036 40.3473 9.70259 40.172 9.62982Z" fill="#1E1E1E"/>
<path d="M39.5233 21.4813C39.5233 21.865 41.7229 20.9553 41.5112 20.6246C41.4219 20.4823 41.8486 20.7271 41.9511 20.4691C42.0007 20.3434 41.9577 20.317 41.7725 20.36C41.5542 20.4129 41.5509 20.403 41.7196 20.2773C42.1297 19.973 43.3933 17.1846 40.6843 17.1846C40.1848 17.2739 40.069 17.3698 40.284 17.5186C40.4164 17.6113 40.413 17.6212 40.2609 17.5716C40.0327 17.4988 39.596 17.9056 39.6754 18.1173C39.6854 18.1438 38.058 20.1152 39.09 21.1836C39.4902 21.597 39.5233 21.3357 39.5233 21.4746V21.4813Z" fill="#1E1E1E"/>
<path d="M29.3588 19.0963C29.0611 19.3047 28.8561 20.3334 29.5771 21.1868C30.2387 21.9707 30.2685 21.544 30.3908 21.7325C30.4934 21.8979 30.6621 21.6531 30.6621 21.8351C30.6621 22.0071 30.8804 21.7689 30.8804 21.9442C30.8804 22.1195 31.747 21.974 31.747 21.6565C31.747 21.5705 31.7966 21.5275 31.8561 21.5638C32.0182 21.6598 31.9091 21.2496 32.0745 21.3488C32.3589 21.5208 32.8088 19.308 32.6169 19.0765C32.4945 18.9309 32.4978 18.9177 32.65 18.9739C32.8915 19.0665 32.8848 18.964 32.607 18.5175C32.3655 18.1271 32.2365 18.0643 32.1472 18.2892C32.1175 18.362 32.091 18.3388 32.0844 18.2297C32.0579 17.76 30.9829 18.0808 30.7613 18.0808C30.2188 18.1701 30.1196 18.2264 29.9443 18.5439C29.6764 19.0335 29.5606 18.9243 29.6466 18.7821C29.6962 18.6994 29.6797 18.6861 29.5937 18.7391C29.3985 18.8615 29.6764 18.8747 29.3655 19.0897L29.3588 19.0963ZM32.0149 18.5869C32.1307 18.4017 32.3556 18.5208 32.2828 18.5208C32.2828 18.5737 31.9223 18.7358 32.0149 18.5869Z" fill="#1E1E1E"/>
<path d="M31.7837 29.6679C31.7506 29.615 31.7704 29.5819 31.8267 29.5819C31.9226 29.5819 32.2302 28.8244 32.1938 28.6822C32.1806 28.6359 32.2137 28.6061 32.2699 28.6061C32.3989 28.6061 32.4915 28.1827 32.3791 28.1133C32.2534 28.0372 32.2401 27.7296 32.389 27.9545C32.561 28.2125 32.5378 27.7494 32.3129 27.498C32.1442 27.3095 32.1442 27.2996 32.3394 27.3724C32.5246 27.4418 32.5312 27.4319 32.4088 27.2797C32.1707 26.9887 32.3096 26.4164 31.7473 26.0824C31.2941 25.8144 30.9038 26.3172 31.1684 25.9798C31.3934 25.692 30.4374 25.7979 30.4374 25.8971C30.6624 25.8971 28.9754 26.4826 28.9953 28.3283C29.0317 31.3151 32.0053 30.0284 31.7804 29.6613L31.7837 29.6679ZM31.1354 26.2312C31.3008 26.2213 31.3041 26.2841 31.2776 26.2841C31.1949 26.3668 30.841 26.2444 31.1354 26.2312Z" fill="#1E1E1E"/>
<path d="M39.1135 28.9302C39.1995 29.2345 39.7452 29.6711 39.9172 29.5752C40.0462 29.5024 39.8411 29.7571 40.2215 29.8597C40.2315 29.8597 40.248 29.8597 40.2579 29.8597C40.9955 28.5233 41.5909 27.0977 42.0275 25.606C40.5953 24.6203 38.5611 27.0051 39.1168 28.9269L39.1135 28.9302Z" fill="#1E1E1E"/>
<path d="M32.7657 34.5929C32.6467 34.6359 32.6037 34.6193 32.65 34.5432C32.736 34.401 32.4118 34.0603 32.2729 34.1463C32.2134 34.1827 32.1737 34.1728 32.1737 34.1199C32.1737 34.0107 31.4195 33.9909 31.3534 34.0967C31.3864 34.0967 30.7514 33.9809 30.2883 34.5995C30.1659 34.7616 30.146 34.8409 30.2354 34.788C30.3247 34.7351 30.3081 34.788 30.1924 34.917C29.898 35.2445 30.1824 35.8729 30.0402 35.7836C29.9112 35.7042 29.931 36.2963 30.0634 36.3889C30.1295 36.4352 30.1163 36.465 30.0303 36.465C29.7987 36.465 30.3313 37.5896 30.6488 37.7583C30.9531 37.9204 31.5617 37.9369 31.6114 37.7848C31.6345 37.712 31.7536 37.6558 31.8727 37.6558C32.1108 37.6558 32.6434 37.1497 32.554 37.0042C32.4747 36.8785 32.8617 36.8322 32.7757 36.6899C32.7393 36.6337 32.769 36.5742 32.8451 36.5477C33.0072 36.4948 33.1031 34.8343 32.941 34.8343C32.8848 34.8343 32.8617 34.7582 32.8914 34.6722C32.9344 34.5532 32.9014 34.5267 32.7624 34.5796L32.7657 34.5929Z" fill="#1E1E1E"/>
<path d="M22.75 0.831323C22.664 0.910707 22.1678 0.960322 21.8602 1.11248C21.0333 1.52925 20.8679 2.43225 20.729 2.48186C20.5206 2.55463 20.9241 3.00778 20.7356 2.89201C20.5867 2.80271 20.4478 3.19301 20.6231 3.08717C20.6926 3.04417 20.6727 3.12025 20.5735 3.25917C20.1336 3.89094 21.0928 4.85678 22.0157 4.70463C22.8988 4.5624 23.6993 3.49071 23.5967 3.38817C23.5637 3.35509 23.6397 3.20955 23.7588 3.08055C24.1094 2.70678 23.9606 2.33632 24.126 2.0684C24.1789 1.9824 24.169 1.95594 24.0995 1.99894C23.944 2.09486 23.8514 1.61855 23.9738 1.69463C24.03 1.72771 24.073 1.70455 24.073 1.64171C24.073 1.47632 23.8217 1.56894 23.8977 1.43994C24.04 1.20509 22.9815 0.692399 23.1634 1.00001C23.2461 1.13894 23.5008 0.880938 23.3751 1.08601C23.2428 1.30432 22.9914 0.824707 22.7533 0.824707L22.75 0.831323Z" fill="#1E1E1E"/>
<path d="M13.6672 5.19745C13.9053 5.4356 14.7587 3.02099 13.7598 1.9956C12.9759 1.19183 11.8976 1.58214 11.4676 2.41237C11.193 2.94491 11.2294 3.82806 11.0872 4.05299C11.0508 4.10922 11.0872 4.15553 11.1633 4.15553C11.2691 4.15553 11.2658 4.18199 11.1467 4.25806C10.8391 4.45983 11.3584 4.37053 11.3584 4.60537C11.3584 4.66822 11.3154 4.68145 11.2493 4.64176C10.9648 4.46645 11.1831 4.81045 11.5403 5.09491C12.0729 5.5183 13.0916 5.81268 13.0916 5.54145C13.0916 5.38268 13.4522 5.60429 13.3827 5.48853C13.3232 5.3926 13.5878 5.11806 13.6672 5.19745Z" fill="#1E1E1E"/>
<path d="M20.309 11.4953C20.127 11.3861 20.137 11.6408 20.2825 11.6408C20.4578 11.6408 20.2891 12.0311 20.5967 12.1271C20.8779 12.2164 20.8779 12.5074 21.04 12.5074C21.1061 12.5074 21.1227 12.4479 21.0763 12.3718C21.0102 12.2627 21.0267 12.2627 21.159 12.3685C21.3773 12.5438 22.2307 12.6464 22.2307 12.4975C22.2307 12.4314 22.2737 12.4148 22.3399 12.4545C22.4987 12.5504 22.5317 12.1535 22.6773 12.2428C22.8228 12.3321 22.9717 11.75 23.1172 11.75C23.3223 11.75 22.9981 11.7566 23.5141 11.1579C23.964 10.6386 23.9342 9.55698 23.6167 9.24605C23.4877 9.12036 23.4447 9.04759 23.524 9.0939C23.6332 9.15674 23.653 9.14351 23.5935 9.0509C23.4612 8.83921 23.2561 9.17328 23.0775 8.76974C22.9055 8.37613 22.4854 8.69367 22.5847 8.53159C22.7203 8.31659 22.019 8.53159 21.9926 8.53159C21.1491 8.85905 20.9308 8.79621 20.5008 9.71244C19.7797 11.2439 20.6133 11.6805 20.309 11.4953Z" fill="#1E1E1E"/>
<path d="M1.8222 13.3707C2.09674 13.1491 1.74943 13.417 2.07028 13.589C2.33159 13.7279 2.43743 13.7345 2.35805 13.6022C2.32497 13.5493 2.38451 13.5261 2.49366 13.5559C3.07251 13.7081 4.94797 11.2074 4.00197 9.86451C3.64805 9.36175 3.43635 9.28567 3.26105 9.27905C2.53997 10.5591 1.94459 11.9219 1.49805 13.3508C1.61382 13.5063 1.65351 13.5096 1.8222 13.3707Z" fill="#1E1E1E"/>
<path d="M10.1642 12.2197C10.2304 12.1767 10.2436 12.2495 10.1973 12.4016C10.1344 12.6067 10.1543 12.6398 10.3097 12.5802C10.4718 12.5207 10.4817 12.5339 10.3627 12.6662C10.0319 13.0499 11.5336 13.8603 12.0364 13.5659C12.1786 13.4832 12.2117 13.4866 12.1554 13.5759C12.1124 13.6486 12.1488 13.7016 12.248 13.7016C12.4994 13.7016 12.3572 13.4402 12.5193 13.5329C12.6747 13.6222 12.645 13.3741 12.9691 13.3741C13.2635 13.3741 13.2767 13.0301 13.3826 13.0962C13.505 13.1723 13.935 12.8316 13.935 12.6596C13.935 12.5736 13.9846 12.5075 14.0474 12.5075C14.2227 12.5075 13.9747 11.9782 14.1136 12.1072C14.451 12.4248 14.398 10.3409 14.1301 10.3409C14.0838 10.3409 14.0441 10.2649 14.0441 10.1789C14.0441 10.0929 13.925 9.98702 13.7828 9.95063C13.3264 9.83486 13.5711 9.39494 13.1874 9.50079C12.9691 9.56033 11.9371 8.99802 11.1929 9.4644C9.93266 10.2516 10.0154 12.3123 10.1642 12.2197Z" fill="#1E1E1E"/>
<path d="M0.972294 21.1902C1.37253 21.6036 1.4056 21.3423 1.4056 21.4813C1.4056 21.865 3.60522 20.9553 3.39353 20.6246C3.30422 20.4823 3.73091 20.7271 3.83345 20.4691C3.88306 20.3434 3.84006 20.317 3.65483 20.36C3.43653 20.4129 3.43322 20.403 3.60191 20.2773C4.01206 19.973 5.2756 17.1846 2.5666 17.1846C2.06714 17.2739 1.95137 17.3698 2.16637 17.5186C2.30199 17.6113 2.29537 17.6212 2.14322 17.5716C1.91499 17.4988 1.47837 17.9056 1.55776 18.1173C1.56768 18.1438 -0.0597055 20.1152 0.972294 21.1836V21.1902Z" fill="#1E1E1E"/>
<path d="M19.9516 21.3191C20.0839 21.4415 20.3353 21.5507 20.4974 21.5573C20.6595 21.5639 20.7753 21.6069 20.7455 21.6532C20.6661 21.7822 21.4599 21.7094 21.8602 21.5474C22.2836 21.3787 23.0509 20.651 23.0079 20.4591C22.9914 20.383 23.041 20.3169 23.1171 20.3169C23.2825 20.3169 23.5405 19.7116 23.4611 19.5032C23.3619 19.2386 23.7356 19.3147 23.5273 19.0699C23.3652 18.8814 23.4776 18.4117 22.8558 17.8758C22.439 17.5186 22.0355 17.8361 22.1513 17.6509C22.2505 17.4888 21.4798 17.4987 21.3177 17.6608C21.0763 17.9023 21.0696 17.5847 20.9704 17.8626C20.8778 18.1206 20.7058 17.9089 20.3849 18.3654C20.1005 18.7722 18.9792 21.114 19.4654 20.9288C19.5713 20.8891 19.5977 20.9255 19.5514 21.0446C19.4621 21.2794 19.6176 21.0082 19.9483 21.3158L19.9516 21.3191Z" fill="#1E1E1E"/>
<path d="M10.3 21.4184C10.3628 21.6797 11.1269 22.4107 11.2559 22.3314C11.3221 22.2917 11.3386 22.3314 11.3022 22.4273C11.1071 22.9301 12.4764 22.8143 12.2813 22.4802C12.2416 22.4141 12.3243 22.4372 12.4665 22.5298C12.8568 22.7878 13.1148 22.381 13.0421 22.3777C12.9858 22.3777 13.0354 22.2983 13.1545 22.209C13.3563 22.0568 13.955 19.2717 12.2449 17.9685C11.4114 17.3334 11.4544 17.7767 11.4081 17.7767C11.2857 18.0975 11.0376 17.5749 10.7862 17.8263C10.6936 17.9189 10.7101 17.9321 10.8524 17.8792C11.1335 17.7734 10.9648 18.1637 10.7432 18.081C10.4621 17.9718 10.773 18.382 10.6307 18.3621C10.3364 18.3191 10.2669 18.4051 10.2934 18.7855C10.3198 19.2287 10.0651 20.1946 10.3231 20.5287C10.4224 20.6577 10.4191 20.6742 10.2967 20.6014C10.1511 20.5154 10.1544 20.7867 10.3066 21.4151L10.3 21.4184Z" fill="#1E1E1E"/>
<path d="M23.1107 25.5001C21.1724 24.8154 20.4281 29.4759 21.3344 28.7085C21.5461 28.5299 21.3807 28.9765 21.1889 28.8971C20.9673 28.8078 21.1194 29.2907 21.91 29.5652C23.8549 30.24 25.307 26.2741 23.114 25.5001H23.1107Z" fill="#1E1E1E"/>
<path d="M4.18715 25.854C3.39662 24.9907 2.315 25.4041 1.61377 26.2939C1.99746 27.4549 2.47708 28.5729 3.046 29.6347C3.33377 29.5123 3.60831 29.3634 3.75054 29.2245C4.13754 28.8474 4.73292 27.7658 4.60723 26.4262C4.60062 26.3534 4.41539 26.102 4.18715 25.8507V25.854Z" fill="#1E1E1E"/>
<path d="M14.2591 27.6601C14.1797 27.6104 14.1896 27.5674 14.2855 27.5311C14.4377 27.4748 13.1179 25.6457 12.0165 26.7504C10.8522 27.9147 11.1035 29.6215 11.3351 29.6215C11.4641 29.6215 11.474 29.6447 11.3682 29.7141C11.259 29.7836 11.2722 29.8431 11.4112 29.9589C11.7948 30.2731 12.3175 30.0614 11.9966 30.2698C11.5732 30.5477 12.8136 30.4187 13.1576 30.3922C13.8985 30.3327 14.828 28.0206 14.2624 27.6601H14.2591Z" fill="#1E1E1E"/>
<path d="M24.1261 34.5931C24.179 34.5071 24.1691 34.4806 24.0996 34.5236C23.9442 34.6195 23.8515 34.1432 23.9739 34.2193C24.0302 34.2524 24.0732 34.2292 24.0732 34.1664C24.0732 34.001 23.8218 34.0936 23.8978 33.9646C24.0401 33.7298 22.9816 33.2171 23.1635 33.5247C23.2462 33.6636 23.5009 33.4056 23.3752 33.6107C23.2429 33.829 22.9915 33.3494 22.7534 33.3494C22.6674 33.4287 22.1712 33.4784 21.8636 33.6305C21.0367 34.0473 20.8713 34.9503 20.7324 34.9999C20.524 35.0727 20.9275 35.5258 20.739 35.4101C20.5902 35.3207 20.4512 35.7111 20.6265 35.6052C20.696 35.5622 20.6762 35.6383 20.5769 35.7772C20.137 36.409 21.0962 37.3748 22.0191 37.2227C22.9022 37.0804 23.7027 36.0087 23.6002 35.9062C23.5671 35.8731 23.6432 35.7276 23.7622 35.5986C24.1128 35.2248 23.964 34.8544 24.1294 34.5864L24.1261 34.5931Z" fill="#1E1E1E"/>
<path d="M13.6672 37.7187C13.9053 37.9568 14.7587 35.5422 13.7598 34.5168C12.9759 33.7131 11.8976 34.1034 11.4676 34.9336C11.193 35.4662 11.2294 36.3493 11.0872 36.5742C11.0508 36.6305 11.0872 36.6768 11.1633 36.6768C11.2691 36.6768 11.2658 36.7032 11.1467 36.7793C10.8391 36.9811 11.3584 36.8918 11.3584 37.1266C11.3584 37.1895 11.3154 37.2027 11.2493 37.163C10.9648 36.9877 11.1831 37.3317 11.5403 37.6161C12.0729 38.0395 13.0916 38.3339 13.0916 38.0627C13.0916 37.9039 13.4522 38.1255 13.3827 38.0098C13.3232 37.9138 13.5878 37.6393 13.6672 37.7187Z" fill="#1E1E1E"/>
</svg>
