<?xml version="1.0" encoding="utf-8"?>
<!-- Generator: Adobe Illustrator 25.0.1, SVG Export Plug-In . SVG Version: 6.00 Build 0)  -->
<svg version="1.1" id="圖層_1" xmlns="http://www.w3.org/2000/svg" xmlns:xlink="http://www.w3.org/1999/xlink" x="0px" y="0px"
	 viewBox="0 0 30 30" style="enable-background:new 0 0 30 30;" xml:space="preserve">
<style type="text/css">
	.st0{fill-rule:evenodd;clip-rule:evenodd;fill:#FFFFFF;}
</style>
<path class="st0" d="M9.6,21.9c0-1.1,0.9-2.1,2.1-2.1c0.6,0,1.1,0.2,1.5,0.6s0.6,0.9,0.6,1.5c0,1.1-0.9,2.1-2.1,2.1
	C10.6,24,9.6,23.1,9.6,21.9z M11,21.9c0,0.4,0.3,0.7,0.7,0.7s0.7-0.3,0.7-0.7c0-0.4-0.3-0.7-0.7-0.7S11,21.5,11,21.9z"/>
<path class="st0" d="M15.2,21.9c0-1.1,0.9-2.1,2.1-2.1c0.6,0,1.1,0.2,1.5,0.6s0.6,0.9,0.6,1.5c0,1.1-0.9,2.1-2.1,2.1
	C16.1,24,15.2,23.1,15.2,21.9z M16.5,21.9c0,0.4,0.3,0.7,0.7,0.7c0.4,0,0.7-0.3,0.7-0.7c0-0.4-0.3-0.7-0.7-0.7
	C16.8,21.2,16.5,21.5,16.5,21.9z"/>
<path class="st0" d="M7.4,6l0.4,2.1h15.8l-1.2,7.2c-0.1,0.7-0.7,1.2-1.4,1.1H9.3l0.2,1.3h9.9c0.4,0,0.7,0.3,0.7,0.7
	c0,0.4-0.3,0.7-0.7,0.7H8.4L6.2,7.4H4.7C4.3,7.4,4,7.1,4,6.7S4.3,6,4.7,6H7.4z M9,15h11.9l1-5.5H8.1L9,15z"/>
</svg>
