<svg width="90" height="90" viewBox="0 0 90 90" fill="none" xmlns="http://www.w3.org/2000/svg">
<path d="M46.3361 29.5131L38.9146 14.8915V1.06616C38.4508 1.12847 37.98 1.18385 37.5231 1.26001V14.3239L28.3777 13.86L21.7246 12.0531L18.7823 9.00001C18.4015 9.27693 18.0277 9.55385 17.6538 9.8377L20.5477 12.8423L13.4377 31.5831L4.54152 26.0723C4.34076 26.4946 4.14691 26.9239 3.95999 27.3531L12.9046 32.8915L3.41999 54.3531L1.55768 55.4677C1.67537 55.9385 1.79306 56.4092 1.9246 56.8731L3.68306 55.8208L9.19383 66.8354L7.83691 69.7154C8.1346 70.1585 8.44614 70.5877 8.7646 71.0238L10.5092 67.3131L22.9984 59.6492L30.2815 68.5523L17.3561 79.9269C17.73 80.2177 18.1038 80.5085 18.4846 80.7854L30.9254 69.84L37.0454 87.3692L36.09 88.4839C37.0523 88.6708 38.0284 88.8231 39.0115 88.9477L38.7 87.9439L50.9123 83.5062L56.5684 87.6669C57.1292 87.5077 57.69 87.3485 58.2438 87.1685L51.9023 82.5023L56.9008 71.9446L68.4208 69.4662L70.5877 80.8823C71.01 80.5777 71.4184 80.2662 71.8269 79.9477L69.7154 68.8223L73.9592 63.5539L82.1423 68.5315C82.3915 68.1369 82.6269 67.7423 82.8623 67.3408L74.34 62.1554L69.84 52.6708L76.7284 47.5892L76.7423 47.6239L77.0677 47.3677L87.3761 56.5615C87.5146 56.0562 87.6392 55.5439 87.7569 55.0315L78.1823 46.4954L88.3869 38.4923H88.4285C88.3177 37.7515 88.1931 37.0039 88.0408 36.27L87.6115 37.3292L77.5177 45.2423L73.6061 29.3192L82.3431 21.7939C82.0938 21.3923 81.8446 20.9977 81.5815 20.61L73.0385 27.9623L66.1569 14.6146L68.3446 7.60847C67.9431 7.35232 67.5346 7.09616 67.1192 6.85385L64.8623 14.0815L56.9146 15.6739L53.1 1.52309C52.5946 1.42616 52.0961 1.33616 51.5838 1.25309L55.6546 16.3454L46.3223 29.5269L46.3361 29.5131ZM46.6269 31.8946L57.2261 38.1462V50.6285L46.4884 60.2654L41.2823 48.2054L46.6269 31.8946ZM28.9454 15.2792L37.7792 15.7362L45.0415 30.0392L29.1046 28.4469L29.1738 28.2877L28.9454 28.3431V15.2792ZM28.6823 29.7969L45.3046 31.4585L40.0084 47.6239L26.1623 50.1646L22.1538 44.5569L28.6823 29.7969ZM21.78 13.5139L27.5469 15.0785V28.5092L14.9054 31.6246L21.78 13.5139ZM14.2823 33.21L27.0346 30.0669L20.8038 44.1485L5.47614 53.1346L14.2823 33.2031V33.21ZM22.5761 58.2646L10.2461 65.8315L4.88076 55.1008L21.1569 45.5608L25.0754 51.0439L22.5761 58.2577V58.2646ZM23.94 58.59L26.3769 51.5492L40.1192 49.0223L45.3323 61.0892L31.4446 67.7562L23.9469 58.59H23.94ZM50.5246 82.1492L38.2846 86.6008L38.1185 86.1577L32.1161 68.9815L46.1077 62.2662L55.5923 71.4739L50.5315 82.1562L50.5246 82.1492ZM72.9969 62.5292L68.5938 67.9915L56.6446 70.56L47.2569 61.4492L58.1538 51.6739L68.5177 53.0792L72.9969 62.5362V62.5292ZM76.3269 46.1562L68.8015 51.7085L58.6315 50.3308V38.1531L72.3946 30.1292L76.3338 46.1562H76.3269ZM65.0492 15.4523L71.9238 28.7862L57.9392 36.9415L47.25 30.6415L56.8454 17.1L65.0492 15.4592V15.4523Z" fill="#1E1E1E"/>
<path d="M45 90C20.1877 90 0 69.8123 0 45C0 20.1877 20.1877 0 45 0C69.8123 0 90 20.1877 90 45C90 69.8123 69.8123 90 45 90ZM45 1.38462C20.9492 1.38462 1.38462 20.9492 1.38462 45C1.38462 69.0508 20.9492 88.6154 45 88.6154C69.0508 88.6154 88.6154 69.0508 88.6154 45C88.6154 20.9492 69.0508 1.38462 45 1.38462Z" fill="#1E1E1E"/>
</svg>
