<?xml version="1.0" encoding="utf-8"?>
<!-- Generator: Adobe Illustrator 25.0.1, SVG Export Plug-In . SVG Version: 6.00 Build 0)  -->
<svg version="1.1" id="圖層_1" xmlns="http://www.w3.org/2000/svg" xmlns:xlink="http://www.w3.org/1999/xlink" x="0px" y="0px"
	 viewBox="0 0 24 21" style="enable-background:new 0 0 24 21;" xml:space="preserve">
<style type="text/css">
	.st0{fill:#1E1E1E;}
</style>
<path class="st0" d="M21.2,2c-1.2-1.2-2.9-1.9-4.6-1.9c-1.7,0-3.4,0.7-4.6,1.9c-1.2-1.2-2.9-1.9-4.6-1.9C5.7,0.1,4.1,0.8,2.8,2
	S0.9,4.9,0.9,6.6c0,1.7,0.7,3.4,1.9,4.6l9.2,9.2l9.2-9.2c1.2-1.2,1.9-2.9,1.9-4.6S22.4,3.2,21.2,2z M19.7,9.6L12,17.3L4.3,9.6
	c-0.4-0.4-0.8-0.9-1-1.5C3.1,7.5,3,6.9,3,6.3c0-0.6,0.2-1.2,0.5-1.8s0.7-1,1.2-1.4c0.5-0.4,1-0.7,1.6-0.8c0.6-0.1,1.2-0.2,1.8-0.1
	C8.7,2.4,9.3,2.6,9.8,3c0.5,0.3,0.9,0.8,1.3,1.3L12,5.8l0.9-1.5c0.2-0.3,0.4-0.6,0.6-0.8c0.8-0.8,1.9-1.2,3.1-1.2
	c1.1,0,2.2,0.4,3.1,1.2c0.4,0.4,0.7,0.9,0.9,1.4c0.2,0.5,0.3,1.1,0.3,1.7s-0.1,1.1-0.3,1.7C20.4,8.8,20.1,9.2,19.7,9.6L19.7,9.6z"/>
</svg>
