<svg width="43" height="39" viewBox="0 0 43 39" fill="none" xmlns="http://www.w3.org/2000/svg">
<path d="M35.7803 15.5597C33.5706 15.5597 31.7744 13.7648 31.7744 11.5566C31.7744 9.34843 33.5706 7.55347 35.7803 7.55347C37.99 7.55347 39.7862 9.34843 39.7862 11.5566C39.7862 13.7648 37.99 15.5597 35.7803 15.5597ZM35.7803 8.21129C33.9345 8.21129 32.436 9.71205 32.436 11.5533C32.436 13.3945 33.9378 14.8953 35.7803 14.8953C37.6228 14.8953 39.1246 13.3945 39.1246 11.5533C39.1246 9.71205 37.6228 8.21129 35.7803 8.21129Z" fill="black"/>
<path d="M26.3992 14.2374C26.1676 14.2374 25.9361 14.2077 25.7045 14.1449C25.0132 13.9597 24.431 13.5168 24.0737 12.8986C23.3328 11.6193 23.7694 9.97643 25.0496 9.23266C26.3297 8.4922 27.9738 8.92855 28.718 10.2078C29.459 11.4871 29.0224 13.13 27.7422 13.8705C27.3287 14.1118 26.8656 14.2341 26.3992 14.2341V14.2374ZM25.3804 9.80785C24.4144 10.3665 24.087 11.6061 24.646 12.5681C24.9173 13.0342 25.3539 13.368 25.8765 13.5069C26.3992 13.6457 26.9417 13.573 27.4114 13.3019C28.374 12.7433 28.7048 11.5036 28.1458 10.5417C27.5867 9.57976 26.3463 9.24919 25.3837 9.80785H25.3804Z" fill="black"/>
<path d="M7.21633 31.4499C5.00665 31.4499 3.21045 29.6549 3.21045 27.4467C3.21045 25.2386 5.00665 23.4436 7.21633 23.4436C9.42602 23.4436 11.2222 25.2386 11.2222 27.4467C11.2222 29.6549 9.42602 31.4499 7.21633 31.4499ZM7.21633 24.1014C5.37052 24.1014 3.87203 25.6022 3.87203 27.4434C3.87203 29.2847 5.37382 30.7854 7.21633 30.7854C9.05884 30.7854 10.5606 29.2847 10.5606 27.4434C10.5606 25.6022 9.05884 24.1014 7.21633 24.1014Z" fill="black"/>
<path d="M16.6077 30.1242C15.6815 30.1242 14.7784 29.6449 14.2822 28.7888C13.5413 27.5095 13.9779 25.8666 15.2581 25.1228C16.5382 24.3823 18.1823 24.8187 18.9265 26.098C19.2871 26.7161 19.383 27.4401 19.1978 28.1309C19.0125 28.8218 18.5693 29.4036 17.9507 29.7606C17.5273 30.0052 17.0642 30.1209 16.6077 30.1209V30.1242ZM15.5889 25.698C14.6263 26.2566 14.2955 27.4963 14.8545 28.4582C15.4135 29.4234 16.654 29.7507 17.6166 29.192C18.083 28.921 18.4171 28.4846 18.5561 27.9623C18.695 27.4401 18.6222 26.8979 18.351 26.4285C17.7919 25.4633 16.5515 25.136 15.5889 25.6947V25.698Z" fill="black"/>
<path d="M31.5693 4.69067C30.9176 4.69067 30.2858 4.3568 29.9286 3.75847C29.6673 3.32213 29.5945 2.80976 29.7202 2.31721C29.8459 1.82467 30.1568 1.41147 30.5935 1.15032C31.0301 0.889175 31.5428 0.816451 32.0357 0.942066C32.5286 1.06768 32.9421 1.37841 33.2034 1.81476C33.7393 2.7172 33.4416 3.88739 32.5385 4.42291C32.2342 4.60472 31.9001 4.69067 31.5693 4.69067ZM31.5627 1.54369C31.3411 1.54369 31.126 1.60319 30.9309 1.71889C30.6464 1.88748 30.4446 2.15854 30.3619 2.47919C30.2792 2.79984 30.3288 3.13371 30.4975 3.4213C30.6662 3.70558 30.9375 3.90723 31.2584 3.98987C31.5792 4.07251 31.9133 4.02293 32.2011 3.85434C32.7899 3.50394 32.9851 2.74034 32.6345 2.15193C32.4658 1.86765 32.1945 1.6627 31.8736 1.58336C31.7711 1.55692 31.6685 1.54369 31.566 1.54369H31.5627Z" fill="black"/>
<path d="M11.4375 38.1174C11.2787 38.1174 11.1199 38.0976 10.9644 38.0579C10.4716 37.9323 10.0581 37.6216 9.79675 37.1852C9.53542 36.7489 9.46265 36.2365 9.58835 35.744C9.71405 35.2514 10.025 34.8382 10.4616 34.5771C10.8983 34.3159 11.411 34.2432 11.9039 34.3688C12.3968 34.4944 12.8103 34.8052 13.0716 35.2415C13.3329 35.6779 13.4057 36.1902 13.28 36.6828C13.1543 37.1753 12.8433 37.5885 12.4067 37.8497C12.109 38.0282 11.7749 38.1174 11.4375 38.1174ZM11.4309 34.9705C11.2092 34.9705 10.9942 35.03 10.799 35.1456C10.5146 35.3142 10.3128 35.5853 10.2301 35.9059C10.1474 36.2266 10.197 36.5605 10.3657 36.8481C10.5344 37.1323 10.8057 37.3373 11.1265 37.4166C11.4474 37.4993 11.7815 37.4497 12.0693 37.2811C12.3538 37.1125 12.5555 36.8414 12.6382 36.5208C12.7209 36.2002 12.6713 35.8663 12.5026 35.5787C12.3339 35.2944 12.0627 35.0928 11.7418 35.0101C11.6393 34.9837 11.5367 34.9705 11.4342 34.9705H11.4309Z" fill="black"/>
<path d="M21.5 38.9999C19.2903 38.9999 17.4941 37.205 17.4941 34.9968C17.4941 32.7886 19.2903 30.9937 21.5 30.9937C23.7097 30.9937 25.5059 32.7886 25.5059 34.9968C25.5059 37.205 23.7097 38.9999 21.5 38.9999ZM21.5 31.6515C19.6542 31.6515 18.1557 33.1522 18.1557 34.9935C18.1557 36.8347 19.6575 38.3355 21.5 38.3355C23.3425 38.3355 24.8443 36.8347 24.8443 34.9935C24.8443 33.1522 23.3425 31.6515 21.5 31.6515Z" fill="black"/>
<path d="M35.7803 31.4499C33.5706 31.4499 31.7744 29.6549 31.7744 27.4467C31.7744 25.2386 33.5706 23.4436 35.7803 23.4436C37.99 23.4436 39.7862 25.2386 39.7862 27.4467C39.7862 29.6549 37.99 31.4499 35.7803 31.4499ZM35.7803 24.1014C33.9345 24.1014 32.436 25.6022 32.436 27.4434C32.436 29.2847 33.9378 30.7854 35.7803 30.7854C37.6228 30.7854 39.1246 29.2847 39.1246 27.4434C39.1246 25.6022 37.6228 24.1014 35.7803 24.1014Z" fill="black"/>
<path d="M26.3992 30.1242C25.473 30.1242 24.5699 29.6449 24.0737 28.7888C23.3328 27.5095 23.7694 25.8666 25.0496 25.1228C26.3297 24.3823 27.9738 24.8187 28.718 26.098C29.459 27.3773 29.0224 29.0202 27.7422 29.7639C27.3188 30.0085 26.8557 30.1242 26.3992 30.1242ZM26.3893 25.4236C26.0452 25.4236 25.6979 25.5129 25.3804 25.6947C24.4178 26.2533 24.087 27.4929 24.646 28.4549C25.205 29.4201 26.4455 29.7474 27.4081 29.1887C28.3707 28.6301 28.7015 27.3905 28.1425 26.4285C27.7687 25.7839 27.0872 25.4236 26.3893 25.4236Z" fill="black"/>
<path d="M31.5693 38.1175C31.4105 38.1175 31.2517 38.0976 31.0963 38.058C30.6034 37.9323 30.1899 37.6216 29.9286 37.1853C29.6673 36.7489 29.5945 36.2365 29.7202 35.744C29.8459 35.2515 30.1568 34.8383 30.5935 34.5771C31.4965 34.0416 32.6675 34.3391 33.2034 35.2415C33.7393 36.144 33.4416 37.3142 32.5385 37.8497C32.2408 38.0282 31.9067 38.1175 31.5693 38.1175ZM31.5627 34.9705C31.3477 34.9705 31.1294 35.0267 30.9309 35.1457C30.6464 35.3143 30.4446 35.5853 30.3619 35.906C30.2792 36.2266 30.3288 36.5605 30.4975 36.8481C30.6662 37.1324 30.9375 37.3373 31.2584 37.4167C31.5792 37.4993 31.9133 37.4497 32.2011 37.2811C32.7899 36.9307 32.9851 36.1671 32.6345 35.5787C32.4029 35.1887 31.9894 34.9705 31.5627 34.9705Z" fill="black"/>
<path d="M30.8812 22.1808C29.955 22.1808 29.052 21.7015 28.5558 20.8454C28.1952 20.2272 28.0993 19.5033 28.2845 18.8124C28.4698 18.1215 28.913 17.5397 29.5316 17.1827C30.1502 16.8257 30.8746 16.7265 31.566 16.9117C32.2573 17.0968 32.8395 17.5397 33.1968 18.1579C33.554 18.776 33.6533 19.5 33.468 20.1909C33.2828 20.8817 32.8428 21.4635 32.2209 21.8205C31.7975 22.0652 31.3344 22.1808 30.8779 22.1808H30.8812ZM30.8746 17.4802C30.524 17.4802 30.1766 17.5728 29.8624 17.7546C29.396 18.0257 29.0619 18.462 28.9229 18.9843C28.784 19.5066 28.8568 20.0487 29.128 20.5148C29.6871 21.4767 30.9275 21.8073 31.8901 21.2487C32.3566 20.9776 32.6907 20.5413 32.8296 20.019C32.9685 19.4967 32.8957 18.9545 32.6245 18.4884C32.3532 18.0223 31.9166 17.6885 31.394 17.5496C31.2219 17.5034 31.0466 17.4802 30.8713 17.4802H30.8746Z" fill="black"/>
<path d="M41.0996 21.4041C40.9408 21.4041 40.782 21.3843 40.6266 21.3446C40.1337 21.219 39.7202 20.9082 39.4589 20.4719C38.923 19.5695 39.2207 18.3993 40.1238 17.8637C40.5604 17.6059 41.0731 17.5299 41.566 17.6555C42.0589 17.7811 42.4724 18.0918 42.7337 18.5282C43.2696 19.4306 42.9719 20.6008 42.0688 21.1363C41.7711 21.3148 41.437 21.4041 41.0996 21.4041ZM40.4612 18.4323C39.8724 18.7827 39.6772 19.5463 40.0278 20.1347C40.1965 20.419 40.4678 20.624 40.7887 20.7033C41.1095 20.7859 41.4436 20.7364 41.7314 20.5678C42.3202 20.2174 42.5154 19.4538 42.1648 18.8654C41.9961 18.5811 41.7248 18.3761 41.4039 18.2968C41.0831 18.2141 40.749 18.2637 40.4612 18.4323Z" fill="black"/>
<path d="M21.5034 21.4041C21.3446 21.4041 21.1859 21.3843 21.0304 21.3446C20.5375 21.219 20.124 20.9082 19.8627 20.4719C19.3268 19.5695 19.6245 18.3993 20.5276 17.8637C20.9642 17.6059 21.477 17.5299 21.9698 17.6555C22.4627 17.7811 22.8762 18.0918 23.1375 18.5282C23.6734 19.4306 23.3757 20.6008 22.4726 21.1363C22.1749 21.3148 21.8408 21.4041 21.5034 21.4041ZM20.865 18.4323C20.2762 18.7827 20.081 19.5463 20.4317 20.1347C20.6004 20.419 20.8716 20.624 21.1925 20.7033C21.5133 20.7859 21.8474 20.7364 22.1352 20.5678C22.724 20.2174 22.9192 19.4538 22.5686 18.8654C22.3999 18.5811 22.1286 18.3761 21.8077 18.2968C21.4869 18.2141 21.1528 18.2637 20.865 18.4323Z" fill="black"/>
<path d="M21.5 8.00958C19.2903 8.00958 17.4941 6.21461 17.4941 4.00644C17.4941 1.79827 19.2903 0 21.5 0C23.7097 0 25.5059 1.79497 25.5059 4.00314C25.5059 6.21131 23.7097 8.00627 21.5 8.00627V8.00958ZM21.5 0.661129C19.6542 0.661129 18.1557 2.16189 18.1557 4.00314C18.1557 5.84438 19.6575 7.34514 21.5 7.34514C23.3425 7.34514 24.8443 5.84438 24.8443 4.00314C24.8443 2.16189 23.3425 0.661129 21.5 0.661129Z" fill="black"/>
<path d="M7.21633 15.5597C5.00665 15.5597 3.21045 13.7648 3.21045 11.5566C3.21045 9.34843 5.00665 7.55347 7.21633 7.55347C9.42602 7.55347 11.2222 9.34843 11.2222 11.5566C11.2222 13.7648 9.42602 15.5597 7.21633 15.5597ZM7.21633 8.21129C5.37052 8.21129 3.87203 9.71205 3.87203 11.5533C3.87203 13.3945 5.37382 14.8953 7.21633 14.8953C9.05884 14.8953 10.5606 13.3945 10.5606 11.5533C10.5606 9.71205 9.05884 8.21129 7.21633 8.21129Z" fill="black"/>
<path d="M16.6075 14.2375C16.376 14.2375 16.1444 14.2078 15.9129 14.145C15.2215 13.9598 14.6393 13.5169 14.2821 12.8987C13.9248 12.2806 13.8256 11.5566 14.0108 10.8658C14.1961 10.1749 14.636 9.59309 15.2579 9.23608C16.5381 8.49562 18.1821 8.93196 18.9264 10.2112C19.287 10.8294 19.3829 11.5533 19.1976 12.2442C19.0124 12.9351 18.5691 13.5169 17.9506 13.8739C17.5371 14.1152 17.074 14.2375 16.6075 14.2375ZM15.5887 9.80796C15.1223 10.079 14.7882 10.5154 14.6493 11.0377C14.5103 11.56 14.5831 12.1021 14.8544 12.5715C15.1256 13.0376 15.5622 13.3714 16.0849 13.5103C16.6075 13.6491 17.15 13.5764 17.6165 13.3053C18.0829 13.0343 18.417 12.5979 18.5559 12.0756C18.6948 11.5533 18.6221 11.0112 18.3508 10.5451C17.7918 9.58318 16.5513 9.25261 15.5887 9.81126V9.80796Z" fill="black"/>
<path d="M11.4375 4.69067C10.7858 4.69067 10.154 4.3568 9.79675 3.75847C9.53542 3.32213 9.46265 2.80976 9.58835 2.31721C9.71405 1.82467 10.025 1.41147 10.4616 1.15032C10.8983 0.889175 11.411 0.816451 11.9039 0.942066C12.3968 1.06768 12.8103 1.37841 13.0716 1.81476C13.3329 2.2511 13.4057 2.76348 13.28 3.25602C13.1543 3.74856 12.8433 4.16176 12.4067 4.42291C12.1024 4.60472 11.7683 4.69067 11.4375 4.69067ZM11.4309 1.54369C11.2092 1.54369 10.9942 1.60319 10.799 1.71889C10.5146 1.88748 10.3128 2.15854 10.2301 2.47919C10.1474 2.79984 10.197 3.13371 10.3657 3.4213C10.5344 3.70558 10.8057 3.90723 11.1265 3.98987C11.4474 4.07251 11.7815 4.02293 12.0693 3.85434C12.6581 3.50394 12.8533 2.74034 12.5026 2.15193C12.3339 1.86765 12.0627 1.6627 11.7418 1.58336C11.6393 1.55692 11.5367 1.54369 11.4342 1.54369H11.4309Z" fill="black"/>
<path d="M12.1285 22.181C11.897 22.181 11.6654 22.1512 11.4339 22.0884C10.7425 21.9033 10.1603 21.4603 9.80308 20.8422C9.44583 20.224 9.34659 19.5001 9.53183 18.8092C9.71708 18.1183 10.157 17.5365 10.7789 17.1795C11.4008 16.8192 12.1219 16.7234 12.8133 16.9085C13.5046 17.0936 14.0868 17.5365 14.4441 18.1547C14.8013 18.7729 14.9006 19.4968 14.7153 20.1877C14.5301 20.8786 14.0868 21.4603 13.4682 21.8174C13.0548 22.0587 12.5917 22.181 12.1252 22.181H12.1285ZM12.1219 17.477C11.7713 17.477 11.424 17.5696 11.1097 17.7514C10.6433 18.0225 10.3092 18.4588 10.1703 18.9811C10.0313 19.5034 10.1041 20.0455 10.3754 20.5116C10.6466 20.9777 11.0832 21.3116 11.6059 21.4504C12.1285 21.5893 12.671 21.5165 13.1375 21.2455C13.6039 20.9744 13.938 20.5381 14.0769 20.0158C14.2158 19.4935 14.1431 18.9514 13.8718 18.4853C13.6006 18.0192 13.1639 17.6853 12.6413 17.5465C12.4693 17.5002 12.2939 17.477 12.1186 17.477H12.1219Z" fill="black"/>
<path d="M1.90723 21.4041C1.74845 21.4041 1.58967 21.3842 1.43419 21.3446C0.941315 21.219 0.527826 20.9082 0.266501 20.4719C-0.269381 19.5694 0.0283311 18.3992 0.931392 17.8637C1.83445 17.3282 3.00545 17.6257 3.54134 18.5282C4.07722 19.4306 3.77951 20.6008 2.87644 21.1363C2.57873 21.3148 2.24463 21.4041 1.90723 21.4041ZM1.2688 18.4323C0.984318 18.6009 0.782535 18.872 0.699838 19.1926C0.61714 19.5132 0.666758 19.8471 0.835462 20.1347C1.00417 20.419 1.27541 20.6239 1.59628 20.7033C1.91715 20.7859 2.25125 20.7363 2.53904 20.5677C3.12785 20.2173 3.32301 19.4537 2.97237 18.8653C2.62174 18.2769 1.85761 18.0819 1.2688 18.4323Z" fill="black"/>
</svg>
