<?xml version="1.0" encoding="utf-8"?>
<!-- Generator: Adobe Illustrator 25.0.1, SVG Export Plug-In . SVG Version: 6.00 Build 0)  -->
<svg version="1.1" id="圖層_1" xmlns="http://www.w3.org/2000/svg" xmlns:xlink="http://www.w3.org/1999/xlink" x="0px" y="0px"
	 viewBox="0 0 30 30" style="enable-background:new 0 0 30 30;" xml:space="preserve">
<style type="text/css">
	.st0{fill:none;stroke:#FFFFFF;stroke-width:1.5;stroke-miterlimit:10;}
	.st1{fill:#FFFFFF;}
</style>
<path class="st0" d="M11.7,21.7c0,0.8,0.3,1.6,0.9,2.1c0.6,0.6,1.3,0.9,2.1,0.9c0.8,0,1.6-0.3,2.1-0.9c0.6-0.6,0.9-1.3,0.9-2.1"/>
<path class="st1" d="M21.5,18.8h-0.8v0L21.5,18.8z M23.7,21.5l0.3-0.7L23.7,21.5z M5.8,21.5l-0.3-0.7L5.8,21.5z M8,18.8l0.8,0v0H8z
	 M22.3,14.2C22.3,9.7,19,6,14.8,6v1.5c3.3,0,6,2.9,6,6.7H22.3z M22.3,15.7v-1.6h-1.5v1.6H22.3z M20.8,15.7v3h1.5v-3H20.8z M24,20.8
	c-0.4-0.1-0.8-0.4-1.2-0.8c-0.3-0.4-0.5-0.8-0.6-1.3l-1.5,0c0.1,0.8,0.3,1.5,0.8,2.1c0.5,0.6,1.1,1,1.8,1.3L24,20.8z M23.6,22.5
	c0.2,0,0.4-0.1,0.6-0.2c0.2-0.1,0.3-0.3,0.3-0.5c0-0.2,0-0.4-0.1-0.6c-0.1-0.2-0.2-0.3-0.4-0.4l-0.6,1.4c-0.1,0-0.2-0.1-0.2-0.1
	c-0.1-0.1-0.1-0.1-0.1-0.2c0-0.1,0-0.2,0-0.3c0-0.1,0.1-0.2,0.1-0.3c0.1-0.1,0.1-0.1,0.2-0.2c0.1,0,0.2-0.1,0.3-0.1L23.6,22.5z
	 M21.5,22.5h2.1V21h-2.1L21.5,22.5z M21.5,21v1.5V21z M21.5,21H8v1.5h13.5L21.5,21z M8,21v1.5V21z M5.9,22.5H8V21H5.9L5.9,22.5z
	 M5.5,20.8c-0.2,0.1-0.3,0.2-0.4,0.4C5,21.4,5,21.6,5,21.8c0,0.2,0.1,0.4,0.3,0.5c0.2,0.1,0.4,0.2,0.6,0.2V21C6,21,6,21,6.1,21.1
	c0.1,0,0.2,0.1,0.2,0.2c0.1,0.1,0.1,0.2,0.1,0.3c0,0.1,0,0.2,0,0.3c0,0.1-0.1,0.2-0.1,0.2c-0.1,0.1-0.1,0.1-0.2,0.1L5.5,20.8z
	 M7.2,18.8c-0.1,0.5-0.3,0.9-0.6,1.2c-0.3,0.4-0.7,0.6-1.1,0.7l0.6,1.4c0.7-0.2,1.3-0.7,1.8-1.3c0.5-0.6,0.7-1.3,0.8-2L7.2,18.8z
	 M8.7,18.8v-3.1H7.2v3.1H8.7z M7.2,14.2v1.6h1.5v-1.6H7.2z M14.7,6c-4.2,0-7.5,3.7-7.5,8.2h1.5c0-3.7,2.8-6.7,6-6.7V6z"/>
</svg>
