<svg width="100" height="123" viewBox="0 0 100 123" fill="none" xmlns="http://www.w3.org/2000/svg">
<path d="M83.3044 109.472C74.9528 107.612 66.7912 102.373 66.0121 100.829C65.7454 100.283 65.5249 99.7164 65.3528 99.1344C63.8955 93.6196 63.1809 87.9375 63.2275 82.2365L50.0077 81.6553H49.9923L36.7725 82.2365C36.8194 87.9385 36.1052 93.6217 34.6484 99.1377C34.4727 99.7184 34.2523 100.285 33.989 100.832C33.2088 102.373 25.0473 107.612 16.6956 109.472C8.34396 111.333 1.73407 110.519 0 123L50 122.867L100 123C98.2582 110.519 91.656 111.325 83.3044 109.472Z" fill="#FFE4D6"/>
<path opacity="0.7" d="M53.9443 96.7345C53.9443 96.7345 61.1849 95.8338 63.5465 87.3407C63.3483 85.6281 63.3964 83.8964 63.6893 82.1973L60.8926 82.0337C57.1058 84.6321 53.0542 86.91 50.0047 86.91C43.8816 86.91 36.1421 83.6867 36.1421 83.6867C36.1421 83.6867 44.619 97.3843 53.9443 96.7345Z" fill="#FFC2AF"/>
<path d="M76.1639 65.9918C76.1639 65.9918 72.8155 72.3226 70.1639 73.3007C67.5122 74.2788 71.3738 62.8013 71.3738 62.8013L77.1166 63.0968L76.1639 65.9918Z" fill="#40220F"/>
<path d="M21.4156 54.6702C7.04748 63.3367 25.5673 88.1095 34.442 78.4246C39.1068 73.3433 31.6244 48.5204 21.4156 54.6702Z" fill="#40220F"/>
<path d="M77.6033 26.0819C74.0736 14.9576 63.5582 6.36523 49.0571 6.36523C39.8934 6.36523 29.7253 12.0353 25.1802 19.438C18.7626 29.9048 21.2659 50.1568 21.2659 50.1568C21.2659 50.1568 24.8033 72.8796 32.4846 80.6607C40.1659 88.4418 44.6077 90.4209 50.0022 90.7251C55.3967 90.4209 59.8297 88.4353 67.5198 80.6607C75.2099 72.8862 78.7286 50.1568 78.7286 50.1568C78.7286 50.1568 80.6121 35.5542 77.6033 26.0819Z" fill="#FFE4D6"/>
<path d="M77.6629 26.0819C74.1332 14.9576 63.6178 6.36523 49.1167 6.36523C39.953 6.36523 29.7848 12.0353 25.2398 19.438C18.8222 29.9048 21.3255 50.1568 21.3255 50.1568C21.3255 50.1568 24.8629 72.8796 32.5442 80.6607C40.2255 88.4418 44.6673 90.4209 50.0618 90.7251C55.4563 90.4209 59.8892 88.4353 67.5794 80.6607C75.2695 72.8862 78.7882 50.1568 78.7882 50.1568C78.7882 50.1568 80.6717 35.5542 77.6629 26.0819Z" fill="#FFE4D6"/>
<path d="M56.2899 39.2541C59.3056 38.0931 62.5181 37.5182 65.7525 37.5607C70.3097 37.8399 73.3009 38.3992 75.3558 39.2541C72.9884 37.2309 70.0827 35.9289 66.9877 35.5042C62.938 34.979 58.8225 35.6686 55.1712 37.4844C53.7295 38.2673 55.5437 39.3686 56.2899 39.2541Z" fill="#40220F"/>
<path d="M43.5143 39.2541C40.4983 38.0926 37.2854 37.5173 34.0506 37.5596C29.4934 37.8399 26.5022 38.3992 24.4473 39.2541C26.815 37.2308 29.7211 35.9287 32.8165 35.5042C36.8662 34.979 40.9817 35.6686 44.633 37.4844C46.0659 38.2586 44.2681 39.3686 43.5143 39.2541Z" fill="#40220F"/>
<path d="M49.692 0.00066935C32.0304 0.00066935 22.0128 13.0168 19.104 22.0366C15.6898 32.6342 18.3733 47.9935 20.9854 53.149C18.9051 34.3941 33.2161 28.2518 39.1656 19.4381C57.6436 34.2131 76.7601 17.6215 79.1799 53.1413C81.0942 44.3276 83.7128 33.2524 81.0942 23.4508C79.1726 16.6679 75.0587 10.6991 69.3852 6.46227C63.7116 2.22546 56.7926 -0.0447801 49.692 0.00066935Z" fill="#40220F"/>
<path d="M42.4511 48.8158C42.4511 48.8158 38.9049 45.7321 34.861 45.4453C32.5562 45.2313 30.2456 45.7899 28.2983 47.0319C28.2983 47.0319 29.5005 51.0086 34.7698 51.3564C40.039 51.7042 41.3159 48.577 42.4511 48.8158Z" fill="white"/>
<path d="M32.2023 45.5675C31.926 46.0129 31.7576 46.5158 31.7105 47.0368C31.6633 47.5577 31.7386 48.0823 31.9304 48.5695C32.1222 49.0566 32.4253 49.4929 32.8159 49.8441C33.2065 50.1953 33.6738 50.4518 34.1812 50.5933C34.6887 50.7349 35.2222 50.7577 35.74 50.66C36.2578 50.5622 36.7457 50.3466 37.1653 50.03C37.5848 49.7135 37.9247 49.3046 38.158 48.8357C38.3913 48.3667 38.5118 47.8504 38.5099 47.3274C38.506 46.9866 38.4501 46.6484 38.344 46.3242C37.24 45.844 36.0631 45.5496 34.8616 45.453C33.9737 45.388 33.0812 45.4265 32.2023 45.5675Z" fill="url(#paint0_radial_2055_10793)"/>
<path d="M36.3294 46.9664C36.3294 47.2722 36.238 47.5712 36.0667 47.8255C35.8954 48.0798 35.652 48.278 35.3672 48.3949C35.0824 48.5119 34.769 48.5425 34.4667 48.4828C34.1644 48.423 33.8868 48.2756 33.6689 48.0593C33.451 47.8429 33.3027 47.5673 33.2427 47.2673C33.1827 46.9673 33.2137 46.6564 33.3318 46.3739C33.4499 46.0914 33.6498 45.85 33.9062 45.6802C34.1626 45.5104 34.464 45.42 34.7722 45.4202C35.1853 45.4205 35.5814 45.5835 35.8734 45.8734C36.1654 46.1634 36.3294 46.5565 36.3294 46.9664Z" fill="#2D170B"/>
<path d="M36.8327 48.1441C36.8327 48.3055 36.7845 48.4634 36.6941 48.5976C36.6038 48.7319 36.4754 48.8366 36.3251 48.8984C36.1748 48.9603 36.0094 48.9766 35.8498 48.9453C35.6902 48.9139 35.5436 48.8364 35.4284 48.7224C35.3132 48.6084 35.2346 48.4631 35.2026 48.3048C35.1706 48.1465 35.1866 47.9823 35.2485 47.8331C35.3105 47.6838 35.4157 47.5561 35.5507 47.4661C35.6858 47.3761 35.8447 47.3278 36.0074 47.3274C36.1157 47.3271 36.2229 47.348 36.3231 47.3889C36.4232 47.4299 36.5142 47.49 36.5908 47.5658C36.6675 47.6417 36.7283 47.7318 36.7698 47.8311C36.8113 47.9303 36.8327 48.0367 36.8327 48.1441Z" fill="white"/>
<path d="M30.1667 44.9873C32.6383 44.1117 35.3391 44.1117 37.8107 44.9873C39.6822 45.8143 41.2878 47.137 42.4513 48.8102C42.4513 48.8102 38.9052 45.732 34.8612 45.4441C32.5565 45.2333 30.2469 45.792 28.2986 47.0318C27.2788 46.8671 26.3271 46.806 26.3271 46.806C27.5448 46.0781 28.8306 45.469 30.1667 44.9873Z" fill="#2D170B" stroke="#2D170B" stroke-width="0.280422" stroke-linecap="round" stroke-linejoin="round"/>
<path d="M58.4723 49.111C58.4723 49.111 62.0184 46.0274 66.0624 45.7406C68.3671 45.5266 70.6777 46.0852 72.625 47.3271C72.625 47.3271 71.4228 51.3038 66.1536 51.6517C60.8843 51.9995 59.6074 48.8722 58.4723 49.111Z" fill="white"/>
<path d="M68.722 45.864C69.0516 46.3929 69.2266 47.0021 69.2275 47.6239C69.2275 48.5204 68.8686 49.3802 68.2298 50.0141C67.5909 50.648 66.7244 51.0042 65.8209 51.0042C64.9175 51.0042 64.051 50.648 63.4121 50.0141C62.7733 49.3802 62.4144 48.5204 62.4144 47.6239C62.4183 47.2831 62.4742 46.9449 62.5803 46.6207C63.6836 46.1404 64.8597 45.8456 66.0605 45.7484C66.9492 45.6836 67.8425 45.7224 68.722 45.864Z" fill="url(#paint1_radial_2055_10793)"/>
<path d="M64.5941 47.2618C64.5944 47.6715 64.7585 48.0643 65.0505 48.354C65.3424 48.6437 65.7383 48.8066 66.1512 48.8069C66.5643 48.8069 66.9605 48.6441 67.2527 48.3544C67.5449 48.0647 67.7092 47.6717 67.7095 47.2618C67.7095 46.8517 67.5453 46.4584 67.2531 46.1685C66.9608 45.8785 66.5645 45.7156 66.1512 45.7156C65.7382 45.7159 65.3421 45.8789 65.0501 46.1689C64.7581 46.4588 64.5941 46.8519 64.5941 47.2618Z" fill="#2D170B"/>
<path d="M64.0909 48.4397C64.0906 48.5473 64.1118 48.6539 64.1531 48.7534C64.1945 48.8528 64.2553 48.9432 64.332 49.0193C64.4087 49.0954 64.4998 49.1557 64.6 49.1968C64.7003 49.2378 64.8077 49.2588 64.9162 49.2585C65.0245 49.2585 65.1317 49.2373 65.2317 49.1962C65.3317 49.155 65.4225 49.0946 65.499 49.0186C65.5754 48.9425 65.636 48.8522 65.6772 48.7529C65.7185 48.6535 65.7395 48.5471 65.7393 48.4397C65.7393 48.223 65.6525 48.0153 65.4982 47.8622C65.3438 47.709 65.1345 47.6229 64.9162 47.6229C64.8079 47.6227 64.7006 47.6436 64.6005 47.6845C64.5004 47.7254 64.4094 47.7855 64.3328 47.8614C64.2561 47.9372 64.1953 48.0274 64.1538 48.1266C64.1123 48.2258 64.0909 48.3322 64.0909 48.4397Z" fill="white"/>
<path d="M70.7566 45.2828C68.285 44.4072 65.5843 44.4072 63.1127 45.2828C61.2412 46.1098 59.6355 47.4325 58.472 49.1057C58.472 49.1057 62.0182 46.0275 66.0621 45.7396C68.3668 45.5288 70.6765 46.0876 72.6248 47.3273C73.6445 47.1626 74.5962 47.1016 74.5962 47.1016C73.3786 46.3736 72.0927 45.7645 70.7566 45.2828Z" fill="#2D170B" stroke="#2D170B" stroke-width="0.280422" stroke-linecap="round" stroke-linejoin="round"/>
<path d="M43.0312 74.4758H56.795C56.038 75.4501 55.061 76.2345 53.9427 76.7657C52.8244 77.2969 51.5961 77.5602 50.3565 77.5344C47.6152 77.4599 45.0015 76.3686 43.0312 74.4758V74.4758Z" fill="white"/>
<path d="M40.7041 73.4815C44.0601 77.5847 47.3162 79.7339 50.4239 79.8211C53.5316 79.7339 56.2327 77.4037 59.5887 73.3005C55.4206 74.3691 54.3931 76.6557 50.4239 76.6557C46.4547 76.6557 44.3579 74.476 40.7041 73.4815Z" fill="#FF928B"/>
<path d="M50.348 72.9636C46.693 71.6725 42.5337 73.9831 40.6194 73.1031C40.5205 73.0628 40.6941 73.5186 40.7853 73.572C42.5666 74.5915 47.1161 75.0277 50.3458 74.9699C53.5524 75.0277 57.671 74.5839 59.3447 73.5524C59.488 73.4451 59.5878 73.2903 59.626 73.1162C57.026 73.8926 53.6128 71.6398 50.348 72.9636Z" fill="#F5776E"/>
<path d="M49.6316 4.43311C18.2514 4.43311 16.6415 32.15 17.5965 45.9556C18.9635 44.8782 20.2679 47.0896 20.8283 48.0677C20.3776 42.7396 21.0406 37.3767 22.7756 32.3146C28.6591 16.1767 49.5646 17.2846 49.5646 17.2846C49.5646 17.2846 70.3635 16.3305 76.4217 32.3146C78.2712 36.8796 79.064 41.7983 78.7415 46.7079C79.2558 46.1322 80.7382 46.3132 81.5261 46.576C82.4778 32.7835 80.9448 4.43311 49.6316 4.43311Z" fill="#F0E7EE"/>
<path d="M76.421 30.4729C69.1122 14.9904 49.209 16.2738 49.209 16.2738C49.209 16.2738 28.7002 14.974 22.2958 30.9505C19.4529 38.0371 20.3067 47.493 20.8199 48.0687C20.3768 42.7398 21.0426 37.3775 22.776 32.3146C28.6595 16.1745 49.565 17.2846 49.565 17.2846C49.565 17.2846 70.3639 16.3315 76.421 32.3146C78.2767 36.868 79.0781 41.7767 78.7661 46.6785C79.2881 46.1115 79.5452 37.0917 76.421 30.4729Z" fill="#D4C5D2"/>
<path opacity="0.7" d="M25.9155 16.2441C25.9155 16.2441 34.699 3.00233 55.4639 6.62028C75.7243 10.1477 75.2562 22.1683 69.7166 16.5942C67.2474 16.2572 72.1529 21.248 70.5375 21.2153C65.4787 17.6497 59.6076 15.3849 53.4501 14.6238C47.2926 13.8626 41.0409 14.6288 35.2551 16.8537C25.9001 20.452 34.832 14.7732 33.5562 14.2062C30.5727 12.8639 25.9155 17.6955 25.9155 16.2441Z" fill="white"/>
<path d="M21.2658 50.1559C21.2658 50.1559 21.2494 48.9194 21.1164 46.7844C20.1472 45.9753 18.5647 45.1477 17.1065 46.02C15.2505 47.1213 14.5461 49.6379 16.2439 53.0629C17.6277 55.7667 18.7273 58.6047 19.5252 61.532C19.9812 63.4391 22.1351 68.8377 24.6713 65.0671C24.6878 65.042 24.7043 65.0093 24.7208 64.9853C23.2562 60.1191 22.1022 55.1662 21.2658 50.1559Z" fill="#FFE4D6"/>
<path opacity="0.5" d="M21.2638 50.1558C21.2636 50.1392 21.261 50.1227 21.2561 50.1068C19.3419 49.7938 18.7704 51.2244 18.9188 52.8982C19.1386 55.2502 21.0737 56.105 21.3968 58.818C21.7199 61.5309 23.4935 60.9432 23.4935 60.9432C23.4935 60.9432 23.51 60.9181 23.5517 60.869C22.01 54.9405 21.2638 50.1558 21.2638 50.1558Z" fill="#FFC2AF"/>
<path d="M78.7318 50.1556C78.7364 49.0708 78.56 47.9927 78.2098 46.965C79.1802 46.1603 81.4307 45.1484 82.8922 46.0208C84.7483 47.1221 85.4527 49.6387 83.7538 53.0593C82.3699 55.7631 81.2704 58.6011 80.4725 61.5284C80.0164 63.4355 77.8626 68.8341 75.3263 65.0635C75.3098 65.0384 75.2933 65.0057 75.2769 64.985C76.7415 60.1188 77.8954 55.1658 78.7318 50.1556Z" fill="#FFE4D6"/>
<path opacity="0.5" d="M78.7316 50.1558C78.7322 50.1391 78.7352 50.1226 78.7404 50.1068C80.6547 49.7938 81.2261 51.2244 81.0767 52.8982C80.8569 55.2502 78.9217 56.105 78.5987 58.818C78.2756 61.5309 76.5031 60.9432 76.5031 60.9432C76.5031 60.9432 76.4866 60.9181 76.4448 60.869C77.9833 54.9405 78.7316 50.1558 78.7316 50.1558Z" fill="#FFC2AF"/>
<path opacity="0.15" d="M39.6426 62.3901C39.1119 64.9111 35.1097 66.2196 30.6844 65.3004C26.2591 64.3812 23.1108 61.5919 23.6327 59.0676C24.1547 56.5434 28.1657 55.2349 32.5877 56.1563C37.0097 57.0777 40.1646 59.8571 39.6426 62.3901Z" fill="url(#paint2_radial_2055_10793)"/>
<path opacity="0.15" d="M59.5693 62.3902C60.1 64.9112 64.1022 66.2197 68.5242 65.3005C72.9462 64.3813 76.0978 61.5931 75.5759 59.0667C75.0539 56.5402 71.0462 55.235 66.6209 56.1564C62.1956 57.0778 59.0473 59.8572 59.5693 62.3902Z" fill="url(#paint3_radial_2055_10793)"/>
<path d="M46.0747 63.1335C47.4473 63.7747 48.9456 64.1071 50.4626 64.1071C51.9797 64.1071 53.478 63.7747 54.8505 63.1335C54.3011 64.0408 52.6527 66.3993 50.4626 66.3993C48.2725 66.3993 46.6242 64.0408 46.0747 63.1335Z" fill="#FFC2AF" fill-opacity="0.8"/>
<defs>
<radialGradient id="paint0_radial_2055_10793" cx="0" cy="0" r="1" gradientUnits="userSpaceOnUse" gradientTransform="translate(35.4268 47.7989) scale(3.4048 2.07162)">
<stop offset="0.001" stop-color="#C9A063"/>
<stop offset="1" stop-color="#40220F"/>
</radialGradient>
<radialGradient id="paint1_radial_2055_10793" cx="0" cy="0" r="1" gradientUnits="userSpaceOnUse" gradientTransform="translate(65.4986 42.3962) rotate(180) scale(3.4048 2.0673)">
<stop offset="0.001" stop-color="#C9A063"/>
<stop offset="1" stop-color="#40220F"/>
</radialGradient>
<radialGradient id="paint2_radial_2055_10793" cx="0" cy="0" r="1" gradientUnits="userSpaceOnUse" gradientTransform="translate(29.5936 61.9808) rotate(7.1429) scale(7.44017 4.87229)">
<stop stop-color="#FF97AD"/>
<stop offset="0.237" stop-color="#FFB7C6"/>
<stop offset="0.57" stop-color="#FFDEE5" stop-opacity="0.698"/>
<stop offset="0.836" stop-color="#FFF6F8" stop-opacity="0.2"/>
<stop offset="1" stop-color="white" stop-opacity="0"/>
</radialGradient>
<radialGradient id="paint3_radial_2055_10793" cx="0" cy="0" r="1" gradientUnits="userSpaceOnUse" gradientTransform="translate(54.4627 61.5989) rotate(172.857) scale(7.43867 4.87248)">
<stop stop-color="#FF97AD"/>
<stop offset="0.237" stop-color="#FFB7C6"/>
<stop offset="0.57" stop-color="#FFDEE5" stop-opacity="0.698"/>
<stop offset="0.836" stop-color="#FFF6F8" stop-opacity="0.2"/>
<stop offset="1" stop-color="white" stop-opacity="0"/>
</radialGradient>
</defs>
</svg>
