<svg width="101" height="101" viewBox="0 0 101 101" fill="none" xmlns="http://www.w3.org/2000/svg">
<path d="M98 0H3C1.34315 0 0 1.34314 0 3V98C0 99.6569 1.34314 101 3 101H98C99.6569 101 101 99.6569 101 98V3C101 1.34315 99.6569 0 98 0Z" fill="white"/>
<path d="M37.0345 5H33.931V8.10345H37.0345V5Z" fill="black"/>
<path d="M40.1379 5H37.0345V8.10345H40.1379V5Z" fill="black"/>
<path d="M61.8621 5H58.7586V8.10345H61.8621V5Z" fill="black"/>
<path d="M64.9655 5H61.8621V8.10345H64.9655V5Z" fill="black"/>
<path d="M68.069 5H64.9655V8.10345H68.069V5Z" fill="black"/>
<path d="M71.1724 5H68.069V8.10345H71.1724V5Z" fill="black"/>
<path d="M37.0345 8.10345H33.931V11.2071H37.0345V8.10345Z" fill="black"/>
<path d="M46.3448 8.10364H43.2414V11.2071H46.3448V8.10364Z" fill="black"/>
<path d="M55.6551 8.10364H52.5517V11.2071H55.6551V8.10364Z" fill="black"/>
<path d="M58.7586 8.10345L55.6551 8.10364V11.2071H58.7586L58.7586 8.10345Z" fill="black"/>
<path d="M64.9655 8.10345H61.8621L61.8621 11.2071H64.9655V8.10345Z" fill="black"/>
<path d="M71.1724 8.10345H68.069L68.069 11.2071H71.1724V8.10345Z" fill="black"/>
<path d="M43.2414 11.2071L40.138 11.2067V14.3102H43.2414L43.2414 11.2071Z" fill="black"/>
<path d="M46.3448 11.2071H43.2414L43.2414 14.3102H46.3448V11.2071Z" fill="black"/>
<path d="M52.5517 11.2071L49.4483 11.2067V14.3102H52.5518L52.5517 11.2071Z" fill="black"/>
<path d="M58.7586 11.2071H55.6551L55.6552 14.3102H58.7586V11.2071Z" fill="black"/>
<path d="M61.8621 11.2071H58.7586V14.3102H61.8621L61.8621 11.2071Z" fill="black"/>
<path d="M64.9655 11.2071H61.8621L61.8621 14.3102H64.9655V11.2071Z" fill="black"/>
<path d="M37.0345 14.3104H33.931V17.4138H37.0345V14.3104Z" fill="black"/>
<path d="M46.3448 14.3102H43.2414L43.2414 17.4138H46.3448V14.3102Z" fill="black"/>
<path d="M49.4483 14.3102H46.3448V17.4138H49.4483L49.4483 14.3102Z" fill="black"/>
<path d="M64.9655 14.3102H61.8621L61.8621 17.4138H64.9655V14.3102Z" fill="black"/>
<path d="M68.069 14.3104L64.9655 14.3102V17.4138H68.069V14.3104Z" fill="black"/>
<path d="M71.1724 14.3104H68.069V17.4138H71.1724V14.3104Z" fill="black"/>
<path d="M40.1379 17.4135L37.0345 17.4138L37.0345 20.5169H40.1379V17.4135Z" fill="black"/>
<path d="M52.5518 17.4135L49.4483 17.4138L49.4483 20.5169H52.5518V17.4135Z" fill="black"/>
<path d="M55.6551 17.4135H52.5518V20.5169H55.6551V17.4135Z" fill="black"/>
<path d="M58.7586 17.4135H55.6551V20.5169H58.7586V17.4135Z" fill="black"/>
<path d="M71.1724 17.4138H68.069L68.069 20.5169H71.1724V17.4138Z" fill="black"/>
<path d="M33.931 20.5171H30.8275V23.6205H33.931V20.5171Z" fill="black"/>
<path d="M37.0345 20.5169L33.931 20.5171V23.6205H37.0345L37.0345 20.5169Z" fill="black"/>
<path d="M40.1379 20.5169H37.0345L37.0345 23.6205H40.1379V20.5169Z" fill="black"/>
<path d="M43.2414 20.5171L40.1379 20.5169V23.6205H43.2414V20.5171Z" fill="black"/>
<path d="M55.6551 20.5169H52.5518L52.5517 23.6205H55.6551V20.5169Z" fill="black"/>
<path d="M58.7586 20.5169H55.6551V23.6205H58.7586V20.5169Z" fill="black"/>
<path d="M68.069 20.5169L64.9656 20.5171V23.6205H68.069L68.069 20.5169Z" fill="black"/>
<path d="M71.1724 20.5169H68.069L68.069 23.6205H71.1724V20.5169Z" fill="black"/>
<path d="M33.931 23.6205H30.8275V26.7236H33.931V23.6205Z" fill="black"/>
<path d="M40.1379 23.6205H37.0345L37.0345 26.7236H40.1379V23.6205Z" fill="black"/>
<path d="M46.3448 23.6202L43.2414 23.6205L43.2414 26.7236H46.3448V23.6202Z" fill="black"/>
<path d="M52.5517 23.6205L49.4483 23.6202V26.7236H52.5518L52.5517 23.6205Z" fill="black"/>
<path d="M58.7586 23.6205H55.6551L55.6552 26.7236H58.7586V23.6205Z" fill="black"/>
<path d="M64.9656 23.6205L61.8621 23.6202V26.7236H64.9655L64.9656 23.6205Z" fill="black"/>
<path d="M71.1724 23.6205H68.069L68.069 26.7236H71.1724V23.6205Z" fill="black"/>
<path d="M43.2414 26.7236H40.1379L40.138 29.8273H43.2414L43.2414 26.7236Z" fill="black"/>
<path d="M49.4483 26.7236H46.3448L46.3448 29.8273H49.4483L49.4483 26.7236Z" fill="black"/>
<path d="M55.6552 26.7236H52.5518L52.5517 29.8273H55.6551L55.6552 26.7236Z" fill="black"/>
<path d="M58.7586 26.7236H55.6552L55.6551 29.8273H58.7586V26.7236Z" fill="black"/>
<path d="M61.8621 26.7236H58.7586V29.8273H61.8621L61.8621 26.7236Z" fill="black"/>
<path d="M71.1724 26.7236H68.069V29.8273H71.1724V26.7236Z" fill="black"/>
<path d="M9.10345 29.828H6V32.9315H9.10345V29.828Z" fill="black"/>
<path d="M18.4137 29.828H15.3103V32.9315H18.4137V29.828Z" fill="black"/>
<path d="M24.6207 29.828H21.5172V32.9315H24.6207V29.828Z" fill="black"/>
<path d="M27.7242 29.828H24.6207V32.9315H27.7242V29.828Z" fill="black"/>
<path d="M33.931 29.828H30.8275V32.9315H33.931V29.828Z" fill="black"/>
<path d="M40.138 29.8273L37.0345 29.828V32.9315H40.1379L40.138 29.8273Z" fill="black"/>
<path d="M46.3448 29.8273H43.2414L43.2414 32.9315H46.3448L46.3448 29.8273Z" fill="black"/>
<path d="M52.5517 29.8273H49.4483L49.4483 32.9315H52.5518L52.5517 29.8273Z" fill="black"/>
<path d="M55.6551 29.8273H52.5517L52.5518 32.9315H55.6551V29.8273Z" fill="black"/>
<path d="M68.069 29.8273L64.9656 29.828V32.9315H68.069L68.069 29.8273Z" fill="black"/>
<path d="M74.2759 29.828L71.1724 29.8273L71.1724 32.9315H74.2759V29.828Z" fill="black"/>
<path d="M80.4827 29.828H77.3793V32.9315H80.4827V29.828Z" fill="black"/>
<path d="M9.10345 32.9315H6V36.0346H9.10345V32.9315Z" fill="black"/>
<path d="M18.4137 32.9315H15.3103V36.0346H18.4137V32.9315Z" fill="black"/>
<path d="M21.5172 32.9315H18.4137V36.0346H21.5172L21.5172 32.9315Z" fill="black"/>
<path d="M24.6207 32.9315H21.5172L21.5172 36.0346H24.6207V32.9315Z" fill="black"/>
<path d="M30.8275 32.9315H27.7242L27.7242 36.0346H30.8276L30.8275 32.9315Z" fill="black"/>
<path d="M43.2414 32.9315H40.1379L40.138 36.0346H43.2414L43.2414 32.9315Z" fill="black"/>
<path d="M49.4483 32.9315H46.3448L46.3448 36.0346H49.4483L49.4483 32.9315Z" fill="black"/>
<path d="M61.8621 32.9311H58.7586V36.0346H61.8621V32.9311Z" fill="black"/>
<path d="M71.1724 32.9315H68.069L68.069 36.0346H71.1724L71.1724 32.9315Z" fill="black"/>
<path d="M74.2759 32.9315H71.1724L71.1724 36.0346H74.2759V32.9315Z" fill="black"/>
<path d="M77.3793 32.9315H74.2759V36.0346H77.3793L77.3793 32.9315Z" fill="black"/>
<path d="M86.6897 32.9311H83.5862V36.0346H86.6897V32.9311Z" fill="black"/>
<path d="M96 32.9311H92.8965V36.0346H96V32.9311Z" fill="black"/>
<path d="M12.207 36.0347L9.10345 36.0346L9.1035 39.1382H12.207V36.0347Z" fill="black"/>
<path d="M15.3103 36.0346L12.207 36.0347V39.1382H15.3104L15.3103 36.0346Z" fill="black"/>
<path d="M18.4137 36.0346H15.3103L15.3104 39.1382H18.4137V36.0346Z" fill="black"/>
<path d="M21.5172 36.0346H18.4137V39.1382H21.5172V36.0346Z" fill="black"/>
<path d="M27.7242 36.0346H24.6207L24.6207 39.1382H27.7242L27.7242 36.0346Z" fill="black"/>
<path d="M30.8276 36.0346H27.7242L27.7242 39.1382H30.8276V36.0346Z" fill="black"/>
<path d="M33.931 36.0347L30.8276 36.0346V39.1382H33.931V36.0347Z" fill="black"/>
<path d="M37.0345 36.0347H33.931V39.1382H37.0345V36.0347Z" fill="black"/>
<path d="M49.4483 36.0346H46.3448V39.1382H49.4483V36.0346Z" fill="black"/>
<path d="M52.5518 36.0347L49.4483 36.0346V39.1382H52.5518V36.0347Z" fill="black"/>
<path d="M64.9655 36.0347L61.8621 36.0346L61.8621 39.1382H64.9655V36.0347Z" fill="black"/>
<path d="M68.069 36.0346L64.9655 36.0347V39.1382H68.069L68.069 36.0346Z" fill="black"/>
<path d="M86.6897 36.0346H83.5862V39.1382H86.6897V36.0346Z" fill="black"/>
<path d="M89.7931 36.0347L86.6897 36.0346V39.1382H89.7931V36.0347Z" fill="black"/>
<path d="M92.8965 36.0346L89.7931 36.0347V39.1382H92.8965L92.8965 36.0346Z" fill="black"/>
<path d="M9.1035 39.1382L6 39.1384V42.2418H9.10345L9.1035 39.1382Z" fill="black"/>
<path d="M15.3104 39.1382H12.207L12.2069 42.2418H15.3104V39.1382Z" fill="black"/>
<path d="M21.5172 39.1382H18.4137L18.4138 42.2418H21.5172V39.1382Z" fill="black"/>
<path d="M24.6207 39.1382H21.5172V42.2418H24.6207L24.6207 39.1382Z" fill="black"/>
<path d="M37.0345 39.1382H33.931L33.931 42.2418H37.0345V39.1382Z" fill="black"/>
<path d="M43.2414 39.1384H40.138V42.2418H43.2414V39.1384Z" fill="black"/>
<path d="M46.3448 39.1382L43.2414 39.1384V42.2418H46.3448L46.3448 39.1382Z" fill="black"/>
<path d="M49.4483 39.1382H46.3448L46.3448 42.2418H49.4483V39.1382Z" fill="black"/>
<path d="M64.9655 39.1382H61.8621V42.2418H64.9655V39.1382Z" fill="black"/>
<path d="M68.069 39.1382H64.9655V42.2418H68.069V39.1382Z" fill="black"/>
<path d="M71.1724 39.1384L68.069 39.1382V42.2418H71.1724V39.1384Z" fill="black"/>
<path d="M74.2759 39.1384H71.1724V42.2418H74.2759V39.1384Z" fill="black"/>
<path d="M77.3793 39.1384H74.2759V42.2418H77.3793V39.1384Z" fill="black"/>
<path d="M80.4827 39.1384H77.3793V42.2418H80.4827V39.1384Z" fill="black"/>
<path d="M83.5862 39.1382L80.4827 39.1384V42.2418H83.5862L83.5862 39.1382Z" fill="black"/>
<path d="M89.7931 39.1382H86.6897L86.6897 42.2418H89.7931V39.1382Z" fill="black"/>
<path d="M92.8965 39.1382H89.7931V42.2418H92.8965V39.1382Z" fill="black"/>
<path d="M9.10345 42.2418H6V45.3449H9.10345V42.2418Z" fill="black"/>
<path d="M24.6207 42.2418H21.5172L21.5172 45.3449H24.6207V42.2418Z" fill="black"/>
<path d="M27.7242 42.2415L24.6207 42.2418V45.3449H27.7242V42.2415Z" fill="black"/>
<path d="M37.0345 42.2418H33.931V45.3449H37.0345V42.2418Z" fill="black"/>
<path d="M43.2414 42.2418H40.138V45.3449H43.2414V42.2418Z" fill="black"/>
<path d="M52.5518 42.2415L49.4483 42.2418L49.4483 45.3449H52.5518V42.2415Z" fill="black"/>
<path d="M61.8621 42.2418L58.7586 42.2415V45.3449H61.8621L61.8621 42.2418Z" fill="black"/>
<path d="M71.1724 42.2418H68.069L68.069 45.3449H71.1724V42.2418Z" fill="black"/>
<path d="M74.2759 42.2418H71.1724V45.3449H74.2759V42.2418Z" fill="black"/>
<path d="M77.3793 42.2418H74.2759V45.3449H77.3793V42.2418Z" fill="black"/>
<path d="M86.6897 42.2418H83.5862L83.5862 45.3449H86.6897L86.6897 42.2418Z" fill="black"/>
<path d="M92.8965 42.2418H89.7931L89.7931 45.3449H92.8965V42.2418Z" fill="black"/>
<path d="M96 42.2415L92.8965 42.2418V45.3449H96V42.2415Z" fill="black"/>
<path d="M9.10345 45.3449H6V48.448H9.10345V45.3449Z" fill="black"/>
<path d="M12.207 45.3446L9.10345 45.3449V48.448H12.207V45.3446Z" fill="black"/>
<path d="M21.5172 45.3449L18.4138 45.3446V48.448H21.5172L21.5172 45.3449Z" fill="black"/>
<path d="M24.6207 45.3449H21.5172L21.5172 48.448H24.6207V45.3449Z" fill="black"/>
<path d="M30.8276 45.3446L27.7242 45.3449L27.7242 48.448H30.8276V45.3446Z" fill="black"/>
<path d="M40.138 45.3449H37.0345L37.0345 48.448H40.1379L40.138 45.3449Z" fill="black"/>
<path d="M46.3448 45.3446L43.2414 45.3449L43.2414 48.448H46.3448V45.3446Z" fill="black"/>
<path d="M49.4483 45.3449L46.3448 45.3446V48.448H49.4483L49.4483 45.3449Z" fill="black"/>
<path d="M52.5518 45.3449H49.4483L49.4483 48.448H52.5518V45.3449Z" fill="black"/>
<path d="M58.7586 45.3449L55.6552 45.3446V48.448H58.7586L58.7586 45.3449Z" fill="black"/>
<path d="M61.8621 45.3449H58.7586L58.7586 48.448H61.8621V45.3449Z" fill="black"/>
<path d="M68.069 45.3449L64.9656 45.3446V48.448H68.069L68.069 45.3449Z" fill="black"/>
<path d="M71.1724 45.3449H68.069L68.069 48.448H71.1724V45.3449Z" fill="black"/>
<path d="M74.2759 45.3449H71.1724V48.448H74.2759V45.3449Z" fill="black"/>
<path d="M9.10345 48.448H6V51.5516H9.10345V48.448Z" fill="black"/>
<path d="M15.3104 48.4482L12.207 48.448L12.2069 51.5516H15.3104V48.4482Z" fill="black"/>
<path d="M21.5172 48.448H18.4138V51.5516H21.5172V48.448Z" fill="black"/>
<path d="M27.7242 48.448H24.6207L24.6207 51.5516H27.7242L27.7242 48.448Z" fill="black"/>
<path d="M33.931 48.4482L30.8276 48.448L30.8275 51.5516H33.931V48.4482Z" fill="black"/>
<path d="M40.1379 48.448H37.0345V51.5516H40.1379V48.448Z" fill="black"/>
<path d="M49.4483 48.448H46.3448L46.3448 51.5516H49.4483V48.448Z" fill="black"/>
<path d="M52.5518 48.448H49.4483V51.5516H52.5518V48.448Z" fill="black"/>
<path d="M74.2759 48.448H71.1724L71.1724 51.5516H74.2759V48.448Z" fill="black"/>
<path d="M77.3793 48.4482L74.2759 48.448V51.5516H77.3793V48.4482Z" fill="black"/>
<path d="M83.5862 48.4482H80.4828V51.5516H83.5862V48.4482Z" fill="black"/>
<path d="M86.6897 48.4482H83.5862V51.5516H86.6897V48.4482Z" fill="black"/>
<path d="M89.7931 48.4482H86.6897V51.5516H89.7931V48.4482Z" fill="black"/>
<path d="M92.8965 48.4482H89.7931V51.5516H92.8965V48.4482Z" fill="black"/>
<path d="M96 48.4482H92.8965V51.5516H96V48.4482Z" fill="black"/>
<path d="M12.2069 51.5516H9.10345L9.1035 54.6553H12.207L12.2069 51.5516Z" fill="black"/>
<path d="M18.4138 51.5516H15.3104L15.3103 54.6553H18.4137L18.4138 51.5516Z" fill="black"/>
<path d="M21.5172 51.5516H18.4138L18.4137 54.6553H21.5172V51.5516Z" fill="black"/>
<path d="M30.8275 51.5516H27.7242L27.7242 54.6553H30.8276L30.8275 51.5516Z" fill="black"/>
<path d="M37.0345 51.5516H33.931L33.931 54.6553H37.0345L37.0345 51.5516Z" fill="black"/>
<path d="M46.3448 51.5516L43.2414 51.5518V54.6553H46.3448L46.3448 51.5516Z" fill="black"/>
<path d="M58.7586 51.5518H55.6552V54.6553H58.7586V51.5518Z" fill="black"/>
<path d="M61.8621 51.5518H58.7586V54.6553H61.8621V51.5518Z" fill="black"/>
<path d="M64.9655 51.5518H61.8621V54.6553H64.9655V51.5518Z" fill="black"/>
<path d="M68.069 51.5518H64.9655V54.6553H68.069V51.5518Z" fill="black"/>
<path d="M80.4828 51.5516H77.3793L77.3793 54.6553H80.4827L80.4828 51.5516Z" fill="black"/>
<path d="M83.5862 51.5516H80.4828L80.4827 54.6553H83.5862V51.5516Z" fill="black"/>
<path d="M86.6897 51.5516H83.5862V54.6553H86.6897V51.5516Z" fill="black"/>
<path d="M92.8965 51.5516H89.7931L89.7931 54.6553H92.8965V51.5516Z" fill="black"/>
<path d="M15.3103 54.6553H12.207L12.2069 57.7589H15.3104L15.3103 54.6553Z" fill="black"/>
<path d="M21.5172 54.6553H18.4137L18.4138 57.7589H21.5172V54.6553Z" fill="black"/>
<path d="M24.6207 54.6555L21.5172 54.6553V57.7589H24.6207V54.6555Z" fill="black"/>
<path d="M27.7242 54.6553L24.6207 54.6555V57.7589H27.7242L27.7242 54.6553Z" fill="black"/>
<path d="M30.8276 54.6553H27.7242L27.7242 57.7589H30.8276V54.6553Z" fill="black"/>
<path d="M40.1379 54.6555L37.0345 54.6553L37.0345 57.7589H40.1379V54.6555Z" fill="black"/>
<path d="M43.2414 54.6553L40.1379 54.6555V57.7589H43.2414L43.2414 54.6553Z" fill="black"/>
<path d="M49.4483 54.6555L46.3448 54.6553L46.3448 57.7589H49.4483V54.6555Z" fill="black"/>
<path d="M55.6552 54.6553L52.5517 54.6555V57.7589H55.6551L55.6552 54.6553Z" fill="black"/>
<path d="M61.8621 54.6553H58.7586L58.7586 57.7589H61.8621V54.6553Z" fill="black"/>
<path d="M68.069 54.6553H64.9655L64.9656 57.7589H68.069V54.6553Z" fill="black"/>
<path d="M74.2759 54.6555H71.1724V57.7589H74.2759V54.6555Z" fill="black"/>
<path d="M92.8965 54.6553H89.7931V57.7589H92.8965V54.6553Z" fill="black"/>
<path d="M15.3104 57.7589H12.2069V60.862H15.3104V57.7589Z" fill="black"/>
<path d="M21.5172 57.7589H18.4138V60.862H21.5172V57.7589Z" fill="black"/>
<path d="M30.8276 57.7589H27.7242L27.7242 60.862H30.8276V57.7589Z" fill="black"/>
<path d="M33.931 57.7586L30.8276 57.7589V60.862H33.931V57.7586Z" fill="black"/>
<path d="M40.1379 57.7589H37.0345V60.862H40.1379V57.7589Z" fill="black"/>
<path d="M43.2414 57.7589H40.1379V60.862H43.2414V57.7589Z" fill="black"/>
<path d="M49.4483 57.7589H46.3448V60.862H49.4483V57.7589Z" fill="black"/>
<path d="M52.5517 57.7589H49.4483V60.862H52.5518L52.5517 57.7589Z" fill="black"/>
<path d="M74.2759 57.7589H71.1724V60.862H74.2759V57.7589Z" fill="black"/>
<path d="M77.3793 57.7586L74.2759 57.7589V60.862H77.3793V57.7586Z" fill="black"/>
<path d="M80.4827 57.7586H77.3793V60.862H80.4827V57.7586Z" fill="black"/>
<path d="M86.6897 57.7586H83.5862V60.862H86.6897V57.7586Z" fill="black"/>
<path d="M96 57.7586L92.8965 57.7589L92.8965 60.862H96V57.7586Z" fill="black"/>
<path d="M9.10345 60.8617H6V63.9651H9.10345V60.8617Z" fill="black"/>
<path d="M18.4138 60.862H15.3104L15.3103 63.9651H18.4137L18.4138 60.862Z" fill="black"/>
<path d="M21.5172 60.862H18.4138L18.4137 63.9651H21.5172V60.862Z" fill="black"/>
<path d="M24.6207 60.8617L21.5172 60.862V63.9651H24.6207V60.8617Z" fill="black"/>
<path d="M27.7242 60.862L24.6207 60.8617V63.9651H27.7242L27.7242 60.862Z" fill="black"/>
<path d="M30.8276 60.862H27.7242L27.7242 63.9651H30.8276V60.862Z" fill="black"/>
<path d="M33.931 60.862H30.8276V63.9651H33.931V60.862Z" fill="black"/>
<path d="M37.0345 60.862H33.931V63.9651H37.0345L37.0345 60.862Z" fill="black"/>
<path d="M40.1379 60.862H37.0345L37.0345 63.9651H40.1379V60.862Z" fill="black"/>
<path d="M52.5518 60.862H49.4483L49.4483 63.9651H52.5518V60.862Z" fill="black"/>
<path d="M77.3793 60.862H74.2759L74.2759 63.9651H77.3793V60.862Z" fill="black"/>
<path d="M80.4827 60.862H77.3793V63.9651H80.4827V60.862Z" fill="black"/>
<path d="M92.8965 60.862L89.7931 60.8617V63.9651H92.8965L92.8965 60.862Z" fill="black"/>
<path d="M96 60.862H92.8965L92.8965 63.9651H96V60.862Z" fill="black"/>
<path d="M30.8276 63.9651H27.7242L27.7242 67.0687H30.8276V63.9651Z" fill="black"/>
<path d="M43.2414 63.9653L40.1379 63.9651L40.138 67.0687H43.2414V63.9653Z" fill="black"/>
<path d="M52.5518 63.9651H49.4483V67.0687H52.5518V63.9651Z" fill="black"/>
<path d="M58.7586 63.9653H55.6552V67.0687H58.7586V63.9653Z" fill="black"/>
<path d="M61.8621 63.9653H58.7586V67.0687H61.8621V63.9653Z" fill="black"/>
<path d="M64.9655 63.9653H61.8621V67.0687H64.9655V63.9653Z" fill="black"/>
<path d="M77.3793 63.9651H74.2759V67.0687H77.3793V63.9651Z" fill="black"/>
<path d="M80.4827 63.9651H77.3793V67.0687H80.4827V63.9651Z" fill="black"/>
<path d="M83.5862 63.9653L80.4827 63.9651V67.0687H83.5862V63.9653Z" fill="black"/>
<path d="M92.8965 63.9651H89.7931V67.0687H92.8965V63.9651Z" fill="black"/>
<path d="M96 63.9651H92.8965V67.0687H96V63.9651Z" fill="black"/>
<path d="M9.10345 67.0689H6V70.1724H9.10345V67.0689Z" fill="black"/>
<path d="M15.3104 67.0689H12.2069V70.1724H15.3104V67.0689Z" fill="black"/>
<path d="M18.4137 67.0689H15.3104V70.1724H18.4137V67.0689Z" fill="black"/>
<path d="M24.6207 67.0689H21.5172V70.1724H24.6207V67.0689Z" fill="black"/>
<path d="M27.7242 67.0687L24.6207 67.0689V70.1724H27.7242L27.7242 67.0687Z" fill="black"/>
<path d="M33.931 67.0689L30.8276 67.0687L30.8275 70.1724H33.931V67.0689Z" fill="black"/>
<path d="M40.138 67.0687L37.0345 67.0689V70.1724H40.1379L40.138 67.0687Z" fill="black"/>
<path d="M43.2414 67.0687H40.138L40.1379 70.1724H43.2414V67.0687Z" fill="black"/>
<path d="M55.6552 67.0687H52.5518L52.5517 70.1724H55.6551L55.6552 67.0687Z" fill="black"/>
<path d="M58.7586 67.0687H55.6552L55.6551 70.1724H58.7586V67.0687Z" fill="black"/>
<path d="M64.9655 67.0687H61.8621L61.8621 70.1724H64.9655V67.0687Z" fill="black"/>
<path d="M68.069 67.0689L64.9655 67.0687V70.1724H68.069V67.0689Z" fill="black"/>
<path d="M71.1724 67.0689H68.069V70.1724H71.1724V67.0689Z" fill="black"/>
<path d="M74.2759 67.0687L71.1724 67.0689V70.1724H74.2759L74.2759 67.0687Z" fill="black"/>
<path d="M77.3793 67.0687H74.2759L74.2759 70.1724H77.3793V67.0687Z" fill="black"/>
<path d="M80.4827 67.0687H77.3793V70.1724H80.4827V67.0687Z" fill="black"/>
<path d="M83.5862 67.0687H80.4827V70.1724H83.5862V67.0687Z" fill="black"/>
<path d="M89.7931 67.0687L86.6897 67.0689V70.1724H89.7931L89.7931 67.0687Z" fill="black"/>
<path d="M33.931 70.1724H30.8275V73.2755H33.931V70.1724Z" fill="black"/>
<path d="M43.2414 70.1724H40.1379L40.138 73.2755H43.2414V70.1724Z" fill="black"/>
<path d="M46.3448 70.172L43.2414 70.1724V73.2755H46.3448V70.172Z" fill="black"/>
<path d="M52.5517 70.1724L49.4483 70.172V73.2755H52.5518L52.5517 70.1724Z" fill="black"/>
<path d="M58.7586 70.1724H55.6551L55.6552 73.2755H58.7586V70.1724Z" fill="black"/>
<path d="M71.1724 70.1724H68.069L68.069 73.2755H71.1724V70.1724Z" fill="black"/>
<path d="M83.5862 70.1724H80.4827L80.4828 73.2755H83.5862V70.1724Z" fill="black"/>
<path d="M89.7931 70.1724H86.6897V73.2755H89.7931V70.1724Z" fill="black"/>
<path d="M92.8965 70.172L89.7931 70.1724V73.2755H92.8965V70.172Z" fill="black"/>
<path d="M96 70.172H92.8965V73.2755H96V70.172Z" fill="black"/>
<path d="M61.8621 73.2757L58.7586 73.2755L58.7586 76.3791H61.8621V73.2757Z" fill="black"/>
<path d="M71.1724 73.2755H68.069V76.3791H71.1724V73.2755Z" fill="black"/>
<path d="M77.3793 73.2757H74.2759V76.3791H77.3793V73.2757Z" fill="black"/>
<path d="M83.5862 73.2755H80.4828V76.3791H83.5862V73.2755Z" fill="black"/>
<path d="M92.8965 73.2755H89.7931L89.7931 76.3791H92.8965V73.2755Z" fill="black"/>
<path d="M33.931 76.3798H30.8275V79.4833H33.931V76.3798Z" fill="black"/>
<path d="M37.0345 76.3798H33.931V79.4833H37.0345V76.3798Z" fill="black"/>
<path d="M46.3448 76.3798H43.2414V79.4833H46.3448V76.3798Z" fill="black"/>
<path d="M52.5518 76.3798H49.4483V79.4833H52.5518V76.3798Z" fill="black"/>
<path d="M58.7586 76.3791L55.6552 76.3798V79.4833H58.7586L58.7586 76.3791Z" fill="black"/>
<path d="M71.1724 76.3791H68.069V79.4833H71.1724V76.3791Z" fill="black"/>
<path d="M83.5862 76.3791H80.4828V79.4833H83.5862V76.3791Z" fill="black"/>
<path d="M86.6897 76.3798L83.5862 76.3791V79.4833H86.6897V76.3798Z" fill="black"/>
<path d="M89.7931 76.3791L86.6897 76.3798V79.4833H89.7931L89.7931 76.3791Z" fill="black"/>
<path d="M37.0345 79.4833H33.931L33.931 82.5864H37.0345V79.4833Z" fill="black"/>
<path d="M40.1379 79.4829L37.0345 79.4833V82.5864H40.1379V79.4829Z" fill="black"/>
<path d="M43.2414 79.4833L40.1379 79.4829V82.5864H43.2414L43.2414 79.4833Z" fill="black"/>
<path d="M46.3448 79.4833H43.2414L43.2414 82.5864H46.3448V79.4833Z" fill="black"/>
<path d="M55.6552 79.4833H52.5518L52.5517 82.5864H55.6551L55.6552 79.4833Z" fill="black"/>
<path d="M58.7586 79.4833H55.6552L55.6551 82.5864H58.7586V79.4833Z" fill="black"/>
<path d="M61.8621 79.4829L58.7586 79.4833V82.5864H61.8621V79.4829Z" fill="black"/>
<path d="M71.1724 79.4833H68.069V82.5864H71.1724V79.4833Z" fill="black"/>
<path d="M74.2759 79.4829L71.1724 79.4833V82.5864H74.2759V79.4829Z" fill="black"/>
<path d="M77.3793 79.4829H74.2759V82.5864H77.3793V79.4829Z" fill="black"/>
<path d="M80.4828 79.4833L77.3793 79.4829V82.5864H80.4827L80.4828 79.4833Z" fill="black"/>
<path d="M83.5862 79.4833H80.4828L80.4827 82.5864H83.5862V79.4833Z" fill="black"/>
<path d="M92.8965 79.4829L89.7931 79.4833L89.7931 82.5864H92.8965V79.4829Z" fill="black"/>
<path d="M96 79.4829H92.8965V82.5864H96V79.4829Z" fill="black"/>
<path d="M33.931 82.5864L30.8275 82.5866V85.69H33.931L33.931 82.5864Z" fill="black"/>
<path d="M43.2414 82.5864H40.1379L40.138 85.69H43.2414V82.5864Z" fill="black"/>
<path d="M46.3448 82.5864H43.2414V85.69H46.3448V82.5864Z" fill="black"/>
<path d="M49.4483 82.5866L46.3448 82.5864V85.69H49.4483V82.5866Z" fill="black"/>
<path d="M77.3793 82.5864H74.2759L74.2759 85.69H77.3793V82.5864Z" fill="black"/>
<path d="M80.4827 82.5864H77.3793V85.69H80.4827V82.5864Z" fill="black"/>
<path d="M83.5862 82.5864H80.4827V85.69H83.5862V82.5864Z" fill="black"/>
<path d="M86.6897 82.5866L83.5862 82.5864V85.69H86.6897V82.5866Z" fill="black"/>
<path d="M89.7931 82.5864L86.6897 82.5866V85.69H89.7931L89.7931 82.5864Z" fill="black"/>
<path d="M92.8965 82.5864H89.7931L89.7931 85.69H92.8965V82.5864Z" fill="black"/>
<path d="M37.0345 85.6897L33.931 85.69L33.931 88.7931H37.0345V85.6897Z" fill="black"/>
<path d="M52.5518 85.6897L49.4483 85.69L49.4483 88.7931H52.5518V85.6897Z" fill="black"/>
<path d="M61.8621 85.6897H58.7586V88.7931H61.8621V85.6897Z" fill="black"/>
<path d="M68.069 85.6897H64.9656V88.7931H68.069V85.6897Z" fill="black"/>
<path d="M74.2759 85.69L71.1724 85.6897V88.7931H74.2759L74.2759 85.69Z" fill="black"/>
<path d="M83.5862 85.69H80.4827L80.4828 88.7931H83.5862V85.69Z" fill="black"/>
<path d="M86.6897 85.69H83.5862V88.7931H86.6897V85.69Z" fill="black"/>
<path d="M89.7931 85.69H86.6897V88.7931H89.7931V85.69Z" fill="black"/>
<path d="M96 85.6897L92.8965 85.69L92.8965 88.7931H96V85.6897Z" fill="black"/>
<path d="M37.0345 88.7931H33.931V91.8968H37.0345V88.7931Z" fill="black"/>
<path d="M46.3448 88.7933H43.2414V91.8968H46.3448V88.7933Z" fill="black"/>
<path d="M49.4483 88.7931L46.3448 88.7933V91.8968H49.4483L49.4483 88.7931Z" fill="black"/>
<path d="M52.5518 88.7931H49.4483L49.4483 91.8968H52.5518V88.7931Z" fill="black"/>
<path d="M55.6551 88.7933L52.5518 88.7931V91.8968H55.6551V88.7933Z" fill="black"/>
<path d="M61.8621 88.7931H58.7586V91.8968H61.8621V88.7931Z" fill="black"/>
<path d="M71.1724 88.7931H68.069L68.069 91.8968H71.1724L71.1724 88.7931Z" fill="black"/>
<path d="M83.5862 88.7931H80.4828V91.8968H83.5862V88.7931Z" fill="black"/>
<path d="M92.8965 88.7931H89.7931L89.7931 91.8968H92.8965L92.8965 88.7931Z" fill="black"/>
<path d="M33.931 91.8968L30.8275 91.8964V94.9998H33.931L33.931 91.8968Z" fill="black"/>
<path d="M37.0345 91.8968H33.931L33.931 94.9998H37.0345V91.8968Z" fill="black"/>
<path d="M43.2414 91.8968L40.138 91.8964V94.9998H43.2414L43.2414 91.8968Z" fill="black"/>
<path d="M55.6551 91.8968H52.5518L52.5517 94.9998H55.6551V91.8968Z" fill="black"/>
<path d="M61.8621 91.8968H58.7586V94.9998H61.8621V91.8968Z" fill="black"/>
<path d="M71.1724 91.8968H68.069V94.9998H71.1724V91.8968Z" fill="black"/>
<path d="M74.2759 91.8964L71.1724 91.8968V94.9998H74.2759V91.8964Z" fill="black"/>
<path d="M83.5862 91.8968H80.4828V94.9998H83.5862V91.8968Z" fill="black"/>
<path d="M92.8965 91.8968H89.7931V94.9998H92.8965V91.8968Z" fill="black"/>
<path d="M6 5V26.7241H27.7241V5H6ZM24.4655 23.4654H9.25861V8.25855H24.4655V23.4654Z" fill="black"/>
<path d="M74.2759 5V26.7241H96V5H74.2759ZM92.7415 23.4654H77.5346V8.25855H92.7415V23.4654Z" fill="black"/>
<path d="M6 73.2762V95.0004H27.7241V73.2762H6ZM24.4655 91.7409H9.25861V76.534H24.4655V91.7409Z" fill="black"/>
<path d="M21.5173 11.2067H12.2069V20.5171H21.5173V11.2067Z" fill="black"/>
<path d="M89.7931 11.2067H80.4828V20.5171H89.7931V11.2067Z" fill="black"/>
<path d="M21.5173 79.4829H12.2069V88.7933H21.5173V79.4829Z" fill="black"/>
</svg>
