<svg width="34" height="34" viewBox="0 0 34 34" fill="none" xmlns="http://www.w3.org/2000/svg">
<path d="M17.0001 0.293335L0.206787 4.025L0.333454 5.48334C0.511787 7.44167 2.23179 24.7167 7.73512 28.3867C10.4763 30.2506 13.3209 31.9577 16.2551 33.5L17.0001 33.8717L17.7451 33.5C20.6766 31.9598 23.5189 30.2554 26.2585 28.395C31.7618 24.7167 33.4818 7.44167 33.6668 5.48334L33.7985 4.025L17.0001 0.293335ZM24.4085 25.6133C20.9085 27.9467 18.2418 29.4467 17.0001 30.1133C15.7651 29.4467 13.0835 27.9467 9.59179 25.6133C6.65179 23.6533 4.57845 13.5 3.80845 6.63834L17.0001 3.70667L30.1918 6.63834C29.4218 13.5 27.3485 23.6533 24.4085 25.6133Z" fill="#FF0000"/>
<path d="M13.1784 14.155L10.8218 16.5117L17.2584 22.95L25.0534 11.2583L22.2801 9.40833L16.7418 17.7167L13.1784 14.155Z" fill="#FF0000"/>
</svg>
