<svg width="32" height="32" viewBox="0 0 32 32" fill="none" xmlns="http://www.w3.org/2000/svg">
<path d="M17.3582 30.9674C17.1642 30.9674 17.0718 30.7628 16.8962 29.6932C16.7807 29.0143 16.6514 28.0842 16.5266 27.1866C16.3696 26.0659 16.1663 24.6149 16.0185 23.9313C15.866 24.5917 15.6628 26.0426 15.5057 27.1866C15.381 28.0842 15.2516 29.0143 15.1361 29.6932C14.9421 30.8186 14.8543 30.9814 14.6372 30.9628C14.3462 30.9349 14.3046 30.6466 14.4617 27.0425C14.5125 25.931 14.5771 24.494 14.5494 23.8244C14.2815 24.4475 13.8195 25.8287 13.4592 26.8983C13.1728 27.7586 12.8771 28.6469 12.6369 29.2979C12.2396 30.3722 12.1195 30.5164 11.9116 30.4559C11.6298 30.3768 11.6437 30.0839 12.4613 26.5774C12.7154 25.4939 13.0434 24.0894 13.1404 23.4244C12.7616 23.9825 12.0548 25.2521 11.5097 26.2147C11.057 27.0425 10.5996 27.847 10.2393 28.4376C9.64798 29.4235 9.50477 29.5444 9.31537 29.4468C9.12596 29.3491 9.12134 29.0282 10.5673 25.7264C11.0293 24.7033 11.6021 23.4012 11.8192 22.7455C11.3573 23.2105 10.4333 24.3406 9.70342 25.2009C9.12134 25.8985 8.52079 26.6239 8.05882 27.1448C7.30582 27.9958 7.13489 28.0749 6.95935 27.9633C6.7838 27.8517 6.84848 27.4982 8.86726 24.5591C9.50015 23.629 10.3132 22.4432 10.6458 21.8572C10.0915 22.2432 8.98275 23.164 8.11888 23.8802C5.37019 26.1914 5.11149 26.3356 4.91746 26.1124C4.72344 25.8892 4.88974 25.6473 7.41207 23.1222C8.20203 22.3269 9.22297 21.2992 9.6526 20.7969C9.04281 21.076 7.78164 21.7782 6.8069 22.3223C3.6794 24.0662 3.40222 24.1825 3.24977 23.9174C3.09732 23.6523 3.24977 23.5732 4.1737 22.8943C4.73268 22.485 5.50416 21.9642 6.25254 21.434C7.17647 20.7969 8.36834 19.9738 8.89036 19.546C8.23899 19.7041 6.87157 20.1645 5.81367 20.5179C2.41823 21.6573 2.11795 21.6991 2.02094 21.448C1.92393 21.1969 2.07638 21.1132 3.10656 20.6156C3.73021 20.3133 4.58485 19.9366 5.41638 19.5692C6.44195 19.1042 7.76779 18.5229 8.3591 18.1973C7.69387 18.2345 6.27102 18.4299 5.16692 18.5787C1.60979 19.0716 1.31414 19.0437 1.26332 18.7693C1.22174 18.5601 1.37881 18.4531 2.47829 18.1555C3.1389 17.9509 4.04897 17.7416 4.9267 17.5277C6.02156 17.2672 7.43979 16.9371 8.08192 16.7231C7.41669 16.6348 5.98922 16.5697 4.88512 16.5139C1.28642 16.3465 1 16.2767 1 15.9837C1 15.6907 1.28642 15.621 4.88512 15.4489C5.98922 15.3978 7.41669 15.328 8.08192 15.2397C7.43979 15.0304 6.02156 14.6956 4.9267 14.4398C4.04897 14.2305 3.1389 14.0166 2.46905 13.8352C1.36957 13.5562 1.2125 13.4353 1.25408 13.2214C1.3049 12.933 1.60055 12.9237 5.15768 13.412C6.26178 13.5655 7.68463 13.7608 8.34986 13.798C7.75855 13.4725 6.43271 12.8679 5.40715 12.4261C4.57561 12.0588 3.72097 11.6774 3.09732 11.3798C2.06714 10.8822 1.92393 10.7659 2.0117 10.5474C2.11795 10.273 2.40899 10.3148 5.80443 11.4542C6.86233 11.8123 8.22975 12.268 8.88112 12.4261C8.3591 11.9983 7.16723 11.1752 6.2433 10.5381C5.49492 10.0265 4.72344 9.49171 4.16446 9.07782C3.24053 8.39885 3.13428 8.24539 3.24053 8.05937C3.34678 7.87335 3.67016 7.90591 6.79766 9.64982C7.77241 10.1939 9.03357 10.9008 9.64336 11.1752C9.21373 10.659 8.19279 9.63587 7.40283 8.84995C4.8805 6.3108 4.7142 6.05968 4.90822 5.85506C5.10225 5.65044 5.37019 5.7853 8.11426 8.07332C8.97351 8.78484 10.0868 9.71028 10.6366 10.0963C10.304 9.51031 9.49091 8.31514 8.85802 7.38971C6.84848 4.42272 6.72836 4.153 6.95935 3.97628C7.19033 3.79957 7.30582 3.94373 8.05882 4.79941C8.52079 5.32026 9.12134 6.04108 9.70342 6.73865C10.4195 7.60363 11.348 8.71508 11.8192 9.19873C11.6021 8.56162 11.02 7.24089 10.5673 6.2178C9.12134 2.92993 9.05205 2.64626 9.31537 2.49744C9.57869 2.34863 9.6526 2.52069 10.2393 3.50194C10.595 4.09719 11.0524 4.92032 11.4958 5.7109C12.041 6.69214 12.7478 7.96171 13.1266 8.50116C13.0296 7.83615 12.7016 6.43172 12.4475 5.34351C11.6252 1.88358 11.6252 1.59061 11.9024 1.51155C12.1103 1.45109 12.2304 1.59526 12.6277 2.66951C12.8679 3.32522 13.1635 4.2088 13.4731 5.06914C13.8334 6.13874 14.2953 7.51992 14.5633 8.13843C14.591 7.46876 14.5263 6.03178 14.4755 4.92032C14.2953 1.32088 14.3369 1.0279 14.628 1C14.8405 1 14.9329 1.14416 15.1269 2.26957C15.2424 2.95319 15.3717 3.87862 15.4965 4.77616C15.6535 5.90157 15.8568 7.3525 16.0092 8.03147C16.1571 7.37576 16.3603 5.92482 16.5174 4.77616C16.6421 3.87862 16.7715 2.95319 16.887 2.26957C17.081 1.14416 17.1688 1 17.3859 1C17.6769 1.0279 17.7185 1.32088 17.5614 4.92032C17.5106 6.03178 17.4459 7.46876 17.4737 8.13843C17.7416 7.51992 18.2036 6.13874 18.5639 5.06914C18.8503 4.2088 19.1506 3.32522 19.3908 2.66951C19.7835 1.59526 19.9036 1.46504 20.1115 1.51155C20.3933 1.59061 20.3794 1.88358 19.5617 5.38537C19.3077 6.47357 18.9797 7.878 18.8827 8.54302C19.2615 7.98031 19.9683 6.71074 20.518 5.75275C20.98 4.96218 21.4142 4.13905 21.7746 3.54379C22.3613 2.56255 22.5045 2.44164 22.6985 2.5393C22.8925 2.63696 22.8925 2.95319 21.4466 6.25965C20.9846 7.28275 20.4118 8.58487 20.1946 9.24058C20.6566 8.77554 21.5805 7.64548 22.3104 6.7805C22.8925 6.08293 23.4931 5.36211 23.955 4.84126C24.708 3.98558 24.879 3.91118 25.0545 4.01814C25.2301 4.1251 25.1654 4.48318 23.1466 7.42226C22.5137 8.35235 21.7006 9.54286 21.368 10.1288C21.9224 9.74283 23.0311 8.81739 23.895 8.10588C26.6668 5.81786 26.9024 5.67369 27.0964 5.88761C27.2904 6.10153 27.1241 6.35266 24.6018 8.8825C23.8118 9.67772 22.7955 10.7008 22.3613 11.2077C22.9711 10.9333 24.2091 10.2311 25.207 9.68237C28.3345 7.93846 28.6116 7.8222 28.7641 8.09192C28.9165 8.36165 28.7641 8.43141 27.8402 9.11037C27.2812 9.52426 26.5097 10.0405 25.7613 10.5706C24.8374 11.2077 23.6455 12.0308 23.1235 12.4587C23.7749 12.3006 25.1423 11.8448 26.2002 11.4867C29.6002 10.3474 29.8959 10.3055 29.9929 10.5799C30.0714 10.7799 29.9375 10.9147 28.9073 11.4123C28.2836 11.71 27.429 12.0913 26.5975 12.4587C25.5673 12.9237 24.2415 13.505 23.6501 13.8306C24.32 13.7934 25.7428 13.598 26.8423 13.4446C30.3994 12.9563 30.6951 12.9795 30.7459 13.2539C30.7875 13.4678 30.6304 13.5748 29.531 13.8678C28.8611 14.0491 27.951 14.2631 27.0733 14.4723C25.9784 14.7281 24.5602 15.0629 23.9181 15.2722C24.5833 15.3606 26.0108 15.4303 27.1195 15.4815C30.7136 15.6535 31 15.7233 31 16.0163C31 16.3093 30.7136 16.3744 27.1195 16.5464C26.0108 16.6022 24.5833 16.6673 23.9181 16.7557C24.5602 16.9696 25.9784 17.2998 27.0733 17.5602C27.9557 17.7648 28.8611 17.9834 29.531 18.1601C30.6304 18.4578 30.7875 18.5647 30.7459 18.774C30.6951 19.0623 30.3994 19.0763 26.8423 18.5833C25.7428 18.4345 24.32 18.2392 23.6501 18.202C24.2415 18.5275 25.5673 19.1321 26.5975 19.5739C27.4244 19.9412 28.279 20.3179 28.9073 20.6202C29.9375 21.1178 30.0714 21.248 29.9929 21.4526C29.9144 21.6573 29.6002 21.6805 26.2002 20.5226C25.1423 20.1691 23.7749 19.7087 23.1235 19.5506C23.6455 19.9785 24.8374 20.8016 25.7613 21.4387C26.5097 21.9549 27.2812 22.4897 27.8402 22.8989C28.7641 23.5779 28.8703 23.736 28.7641 23.922C28.6578 24.108 28.3345 24.0708 25.207 22.3269C24.2322 21.7828 22.9711 21.0806 22.3613 20.8016C22.7955 21.3178 23.8118 22.3455 24.6018 23.1268C27.1241 25.6613 27.295 25.9171 27.0964 26.117C26.8978 26.317 26.6344 26.1914 23.895 23.9034C23.0311 23.1873 21.9224 22.2665 21.368 21.8805C21.7006 22.4664 22.5137 23.6616 23.1466 24.5824C25.1654 27.5447 25.2855 27.8098 25.0545 27.9865C24.8235 28.1632 24.7173 28.0284 23.955 27.168C23.4931 26.6472 22.8925 25.9217 22.3104 25.2242C21.5944 24.3638 20.6705 23.2477 20.1946 22.7687C20.4118 23.4058 20.9938 24.7266 21.4466 25.7497C22.8925 29.0329 22.9618 29.3212 22.6985 29.47C22.4352 29.6188 22.3613 29.47 21.7746 28.4609C21.4142 27.8656 20.9569 27.0657 20.5134 26.2519C19.9683 25.2707 19.2615 24.0011 18.8827 23.4616C18.9797 24.1266 19.3077 25.5311 19.5617 26.6193C20.3794 30.1211 20.3933 30.414 20.1115 30.4931C19.9036 30.5536 19.7835 30.4094 19.3908 29.3351C19.1506 28.6841 18.8503 27.7958 18.5639 26.9355C18.2036 25.8659 17.7416 24.4847 17.4737 23.8616C17.4459 24.5312 17.5106 25.9682 17.5614 27.0797C17.7185 30.6838 17.6769 30.9721 17.3859 31L17.3582 30.9674ZM14.6095 23.1826H14.6603C14.9282 23.2338 14.9652 23.5221 14.8127 27.0564C14.7712 27.9865 14.7157 29.1817 14.7204 29.9397C14.8543 29.2049 15.016 28.0563 15.1454 27.1494C15.6397 23.5918 15.7274 23.3221 16.0092 23.3221C16.291 23.3221 16.3742 23.6058 16.8731 27.1541C16.9978 28.0842 17.1595 29.2235 17.2981 29.9443C17.2981 29.1863 17.2473 28.0051 17.2057 27.0611C17.0487 23.5267 17.0856 23.2384 17.3536 23.1873C17.6215 23.1361 17.7693 23.3965 18.9011 26.782C19.1968 27.6656 19.5664 28.7678 19.8251 29.4654C19.6865 28.7259 19.4185 27.5819 19.206 26.6751C18.3976 23.2245 18.3791 22.9547 18.6378 22.8338C18.8965 22.7129 19.0998 22.964 20.8183 26.0891C21.2803 26.903 21.8392 27.9214 22.2319 28.5585C21.964 27.8563 21.4881 26.782 21.1093 25.9217C19.6819 22.6664 19.6079 22.392 19.8435 22.2432C20.0791 22.0944 20.3055 22.2897 22.5784 25.0335C23.1743 25.7543 23.9227 26.6518 24.4262 27.2052C24.0336 26.5681 23.373 25.6008 22.8417 24.8242C20.8414 21.8898 20.7167 21.6247 20.9199 21.434C21.1232 21.2434 21.3819 21.3968 24.1121 23.6663C24.8374 24.2662 25.7336 25.0149 26.3342 25.466C25.8306 24.9126 25.0037 24.0708 24.3431 23.4151C21.8346 20.8946 21.6683 20.6574 21.8346 20.4342C22.0009 20.211 22.2966 20.3086 25.3733 22.0386C26.1956 22.5036 27.2211 23.0663 27.8864 23.4012C27.2904 22.9361 26.3295 22.2897 25.5765 21.7596C22.6523 19.7413 22.4398 19.532 22.5645 19.2855C22.6893 19.0391 22.9757 19.0809 26.3295 20.2156C27.2211 20.5133 28.3345 20.8899 29.0551 21.0946C28.3853 20.7597 27.3274 20.29 26.4727 19.9133C23.239 18.4671 22.971 18.3043 23.0496 18.0532C23.1281 17.802 23.4192 17.7741 26.9162 18.2578C27.8402 18.388 29.0135 18.5461 29.7619 18.6159C29.0459 18.4159 27.9141 18.1508 26.9901 17.9369C23.5208 17.1184 23.2482 17.0068 23.2944 16.7231C23.3406 16.4395 23.6039 16.3883 27.1241 16.2162C28.0804 16.1697 29.2769 16.1139 30.0253 16.0442C29.2769 15.9698 28.0804 15.914 27.1241 15.8675C23.6039 15.7 23.3221 15.6349 23.2944 15.3606C23.2667 15.0862 23.5439 14.9699 26.9901 14.1514C27.9141 13.9375 29.0228 13.6864 29.7619 13.4678C29.0135 13.5376 27.8494 13.7004 26.9162 13.8259C23.4192 14.291 23.1235 14.291 23.0496 14.0352C22.9757 13.7794 23.2205 13.6027 26.4727 12.175C27.3274 11.7937 28.3853 11.324 29.0551 10.9938C28.3345 11.1984 27.2073 11.5705 26.3295 11.8681C22.9757 12.9935 22.6846 13.04 22.5645 12.7982C22.4444 12.5563 22.6523 12.3331 25.5765 10.3241C26.348 9.79399 27.3089 9.12897 27.8864 8.67788C27.2165 9.01271 26.1956 9.58472 25.3733 10.0451C22.2781 11.7704 22.0009 11.8681 21.8346 11.6495C21.6683 11.4309 21.8346 11.1845 24.3431 8.66393C25.0037 7.99891 25.8306 7.17114 26.3342 6.61773C25.7336 7.08278 24.8328 7.81755 24.1121 8.41745C21.3819 10.6869 21.1278 10.831 20.9199 10.645C20.712 10.459 20.8414 10.18 22.8417 7.25949C23.373 6.48287 24.0336 5.51558 24.4262 4.87382C23.9227 5.42722 23.1789 6.32941 22.5784 7.05022C20.3009 9.78468 20.0791 9.97535 19.8435 9.84049C19.6079 9.70563 19.6819 9.41265 21.1093 6.16664C21.4974 5.20865 21.9732 4.1344 22.2504 3.43683C21.8577 4.07394 21.2941 5.08774 20.8368 5.90622C19.0998 9.01736 18.915 9.24988 18.6563 9.16152C18.3976 9.07317 18.4161 8.76624 19.2245 5.32026C19.437 4.39017 19.6865 3.25546 19.8435 2.53C19.5756 3.22756 19.206 4.32507 18.9196 5.20865C17.7693 8.56627 17.6307 8.83134 17.3536 8.78019C17.0764 8.72903 17.0487 8.43606 17.2057 4.90637C17.2473 3.97628 17.2981 2.77647 17.2981 2.0231C17.1595 2.75322 16.9978 3.88327 16.8731 4.81336C16.3742 8.357 16.2864 8.64068 16.0092 8.64068C15.7321 8.64068 15.6397 8.357 15.1454 4.81336C15.016 3.88327 14.8543 2.73927 14.7204 2.0231C14.7204 2.77647 14.7712 3.95768 14.8127 4.90637C14.9652 8.43606 14.9282 8.72903 14.6603 8.78019C14.3924 8.83134 14.2445 8.56627 13.1127 5.18075C12.8171 4.29716 12.4475 3.19966 12.1888 2.50209C12.3274 3.24151 12.5953 4.38552 12.8078 5.29236C13.6163 8.73833 13.6347 9.01271 13.376 9.13362C13.1173 9.25453 12.9141 9.00341 11.1956 5.87831C10.7336 5.05984 10.1746 4.04604 9.78195 3.40893C10.0545 4.10649 10.5257 5.18075 10.9045 6.04573C12.332 9.30104 12.4059 9.57541 12.1703 9.71958C11.9347 9.86374 11.7083 9.67772 9.4401 6.92931C8.83954 6.20849 8.09116 5.30631 7.59224 4.75291C7.98491 5.39467 8.64552 6.36196 9.17678 7.13858C11.1771 10.0684 11.3018 10.3381 11.0986 10.5241C10.8953 10.7101 10.6366 10.566 7.90637 8.29654C7.18571 7.69664 6.28488 6.94791 5.68432 6.49682C6.18787 7.05022 7.01478 7.89195 7.67539 8.54302C10.1839 11.0636 10.3548 11.3054 10.1839 11.5286C10.0129 11.7518 9.7219 11.6495 6.64521 9.9242C5.82753 9.45915 4.79735 8.8918 4.13212 8.55697C4.72806 9.02201 5.68894 9.67307 6.44195 10.2032C9.36618 12.2215 9.57869 12.4261 9.45396 12.6773C9.32923 12.9284 9.04281 12.8772 5.68894 11.7472C4.79735 11.4495 3.68864 11.0775 2.96335 10.8729C3.63782 11.231 4.69572 11.7193 5.55035 12.1006C8.78411 13.5422 9.05205 13.705 8.97351 13.9608C8.89498 14.2166 8.60856 14.2352 5.11149 13.7515C4.18756 13.6259 3.00955 13.4632 2.26116 13.3934C2.97721 13.598 4.10902 13.8585 5.00986 14.077C8.47921 14.8955 8.75639 15.0071 8.72867 15.2862C8.70095 15.5652 8.41916 15.6256 4.89898 15.7931C3.94272 15.8396 2.75085 15.8954 2.00246 15.9698C2.75085 16.0395 3.94272 16.0953 4.89898 16.1418C8.41916 16.3139 8.70557 16.3744 8.72867 16.6487C8.75177 16.9231 8.47921 17.044 5.03295 17.8625C4.10902 18.0764 3.00031 18.3275 2.28426 18.5415C3.03265 18.4717 4.1968 18.3136 5.13459 18.1834C8.62704 17.7183 8.9227 17.7183 8.99661 17.9788C9.07053 18.2392 8.82569 18.4066 5.57345 19.8389C4.71882 20.2156 3.66092 20.6853 2.99107 21.0202C3.71635 20.8155 4.83893 20.4388 5.71666 20.1412C9.07053 19.0158 9.36156 18.9693 9.48168 19.2111C9.60179 19.453 9.3939 19.6762 6.46966 21.6852C5.69818 22.2153 4.7373 22.8757 4.15984 23.3268C4.82969 22.9919 5.85525 22.3967 6.67293 21.9642C9.76809 20.2342 10.0453 20.1366 10.2116 20.3598C10.3779 20.583 10.2116 20.8248 7.70311 23.3407C7.0425 24.0057 6.21558 24.8382 5.71204 25.3916C6.3126 24.9265 7.21343 24.1918 7.93409 23.5918C10.6643 21.3224 10.9184 21.1736 11.1263 21.3596C11.3342 21.5457 11.2048 21.8247 9.2045 24.7498C8.67324 25.5264 8.01263 26.4937 7.61996 27.1308C8.1235 26.5774 8.87188 25.6799 9.46782 24.9591C11.7407 22.2246 11.9624 22.0339 12.198 22.1688C12.4336 22.3037 12.3597 22.6013 10.9322 25.8473C10.5534 26.7076 10.0822 27.7819 9.80967 28.4841C10.2023 27.847 10.7706 26.8286 11.2233 26.0147C12.9603 22.9036 13.1451 22.6711 13.4038 22.7594C13.6625 22.8478 13.644 23.1501 12.8355 26.6007C12.623 27.5308 12.3736 28.6655 12.2165 29.3909C12.4844 28.6934 12.854 27.5912 13.1404 26.7076C14.1752 23.6104 14.3646 23.1826 14.6095 23.1826Z" fill="black" stroke="black" stroke-width="0.4"/>
</svg>
