<svg width="32" height="32" viewBox="0 0 32 32" fill="none" xmlns="http://www.w3.org/2000/svg">
<path d="M16.4545 10.8364L13.9682 5.96366V1.35457L13.5136 1.4182V5.77275L10.4682 5.6182L8.24091 5.0182L7.2591 4.00002L6.88182 4.27729L7.85001 5.28184L5.47728 11.5273L2.51364 9.70911C2.44546 9.85002 2.38183 9.99093 2.32273 10.1364L5.30001 11.9818L2.11819 19.1318L1.49546 19.5046L1.61819 19.9591L2.20455 19.6091L4.02273 23.2773L3.56819 24.2364C3.66364 24.3864 3.76819 24.5273 3.87273 24.6909L4.50001 23.4318L8.66364 20.8773L11.0909 23.8455L6.78637 27.6318C6.9091 27.7318 7.03637 27.8273 7.16364 27.9182L11.3091 24.2818L13.35 30.1227L13.0273 30.4955C13.35 30.5591 13.6773 30.6091 14.0045 30.65L13.9 30.3137L17.9909 28.8364L19.8773 30.2L20.4364 30.0318L18.3227 28.4773L19.9864 24.9591L23.8273 24.1318L24.55 27.9364C24.6909 27.8364 24.8273 27.7318 24.9636 27.6273L24.2591 23.9182L25.6727 22.1637L28.4 23.8227C28.4818 23.6909 28.5636 23.5591 28.6409 23.4227L25.8 21.6955L24.3045 18.5137L26.6 16.8182L26.7045 16.7318L30.1409 19.7955C30.1864 19.6273 30.2273 19.4546 30.2682 19.2864L27.0864 16.4409L30.4864 13.7727C30.45 13.5273 30.4091 13.2773 30.3591 13.0318L30.2136 13.3864L26.85 16.0227L25.5455 10.7682L28.4455 8.27275C28.3636 8.14093 28.2773 8.00911 28.1909 7.87729L25.3455 10.3273L23.05 5.88184L23.7818 3.54548C23.6455 3.45911 23.5136 3.37275 23.3727 3.29548L22.6227 5.70002L19.9727 6.23184L18.7 1.50457L18.1955 1.41366L19.5591 6.44093L16.4545 10.8364ZM16.5546 11.6318L20.0909 13.7273V17.8864L16.5136 21.1L14.7773 17.0818L16.5546 11.6318ZM10.6455 6.09092L13.5909 6.24547L16 11L10.7 10.4773L10.7227 10.4273H10.6455L10.6455 6.09092ZM10.5455 10.9318L16.0864 11.4864L14.3318 16.8727L9.71818 17.7227L8.38182 15.85L10.5455 10.9318ZM8.27273 5.50457L10.1955 6.02729V10.5L5.98182 11.5409L8.27273 5.50457ZM5.77273 12.0682L10.0273 11.0227L7.93637 15.7182L2.81819 18.7273L5.77273 12.0682ZM8.53637 20.4182L4.44546 22.9409L2.62728 19.3636L8.05001 16.1818L9.3591 18L8.53637 20.4182ZM8.99091 20.5273L9.80455 18.1818L14.3727 17.3637L16.1091 21.3818L11.4773 23.5818L8.99091 20.5273ZM17.8182 28.3773L13.7273 29.8637V29.7137L11.7273 23.9864L16.3636 21.75L19.5455 24.8182L17.8182 28.3773ZM25.3273 21.8409L23.8591 23.6591L19.8773 24.5182L16.75 21.4773L20.3864 18.2227L23.8364 18.6773L25.3273 21.8409ZM26.4364 16.3864L23.9273 18.2364L20.5455 17.7727V13.7273L25.1318 11.0546L26.4364 16.3864ZM22.6773 6.15002L24.95 10.5955L20.2864 13.3227L16.7273 11.2182L19.9091 6.70911L22.6773 6.15002Z" fill="black"/>
<path d="M16 31C13.0333 31 10.1332 30.1203 7.66645 28.472C5.19972 26.8238 3.27713 24.4811 2.14181 21.7403C1.0065 18.9994 0.709449 15.9834 1.28823 13.0737C1.86701 10.1639 3.29562 7.49119 5.3934 5.3934C7.49119 3.29562 10.1639 1.86701 13.0737 1.28823C15.9834 0.709449 18.9994 1.0065 21.7403 2.14181C24.4811 3.27713 26.8238 5.19972 28.472 7.66645C30.1203 10.1332 31 13.0333 31 16C31 19.9783 29.4196 23.7936 26.6066 26.6066C23.7936 29.4196 19.9783 31 16 31ZM16 1.45455C13.1232 1.45455 10.311 2.30763 7.91898 3.9059C5.527 5.50418 3.66267 7.77587 2.56176 10.4337C1.46085 13.0915 1.1728 16.0161 1.73404 18.8377C2.29528 21.6592 3.6806 24.251 5.71482 26.2852C7.74903 28.3194 10.3408 29.7047 13.1623 30.266C15.9839 30.8272 18.9085 30.5392 21.5663 29.4382C24.2241 28.3373 26.4958 26.473 28.0941 24.081C29.6924 21.689 30.5455 18.8768 30.5455 16C30.5455 12.1423 29.013 8.44262 26.2852 5.71482C23.5574 2.98702 19.8577 1.45455 16 1.45455Z" fill="black"/>
<path d="M16.4955 21.0864L16.2659 21.1854L16.4038 21.5048L16.6625 21.2724L16.4955 21.0864ZM20.0727 17.8727L20.2398 18.0587L20.3227 17.9842V17.8727H20.0727ZM20.0727 13.7136H20.3227V13.5708L20.1997 13.4983L20.0727 13.7136ZM16.5409 11.6318L16.6679 11.4165L16.4002 11.2587L16.3034 11.5539L16.5409 11.6318ZM14.7591 17.0637L14.5215 16.9857L14.492 17.0757L14.5296 17.1627L14.7591 17.0637ZM9.71818 17.7227L9.51468 17.8679L9.60707 17.9974L9.76348 17.9686L9.71818 17.7227ZM14.3318 16.8727L14.3771 17.1186L14.5231 17.0917L14.5693 16.9507L14.3318 16.8727ZM16.1 11.4864L16.3375 11.5643L16.4346 11.2686L16.1249 11.2376L16.1 11.4864ZM10.5591 10.9318L10.584 10.6831L10.4038 10.665L10.3305 10.8306L10.5591 10.9318ZM8.38182 15.85L8.15299 15.7493L8.09573 15.8795L8.17832 15.9952L8.38182 15.85ZM10.7 10.4773L10.4692 10.3811L10.3395 10.6924L10.6751 10.726L10.7 10.4773ZM16.0091 11.0091L15.9842 11.2579L16.4389 11.3034L16.232 10.8959L16.0091 11.0091ZM13.5909 6.24547L13.8138 6.13231L13.7484 6.00339L13.604 5.99581L13.5909 6.24547ZM10.6455 6.09092L10.6586 5.84127L10.3955 5.82746V6.09092H10.6455ZM10.6455 10.4455H10.3955V10.7796L10.716 10.6853L10.6455 10.4455ZM10.7227 10.4227L10.9535 10.5189L11.1551 10.035L10.6522 10.1829L10.7227 10.4227ZM11.7 23.9909L11.5917 23.7656L11.3903 23.8624L11.464 24.0733L11.7 23.9909ZM13.7 29.7182L13.464 29.8006L13.5953 30.1766L13.8768 29.8949L13.7 29.7182ZM13.7046 29.7136L13.9395 29.6282L13.8053 29.2592L13.5277 29.5369L13.7046 29.7136ZM13.7591 29.8637L13.5242 29.9491L13.6097 30.1842L13.8447 30.0985L13.7591 29.8637ZM17.8364 28.3773L17.922 28.6122L18.0184 28.577L18.0623 28.4843L17.8364 28.3773ZM19.5227 24.8182L19.7487 24.9252L19.8253 24.7635L19.6969 24.6389L19.5227 24.8182ZM16.3636 21.75L16.5372 21.5701L16.4121 21.4494L16.2554 21.5247L16.3636 21.75ZM10.1818 6.02727H10.4318V5.83616L10.2474 5.78603L10.1818 6.02727ZM8.2591 5.50454L8.32468 5.2633L8.10583 5.2038L8.02536 5.41584L8.2591 5.50454ZM5.96819 11.5409L5.73445 11.4522L5.56528 11.898L6.02814 11.7836L5.96819 11.5409ZM10.1818 10.5L10.2418 10.7427L10.4318 10.6958V10.5H10.1818ZM10.0091 11.0227L10.2378 11.1237L10.4431 10.6585L9.94938 10.78L10.0091 11.0227ZM5.75909 12.0682L5.69938 11.8254L5.58003 11.8548L5.53039 11.9672L5.75909 12.0682ZM2.82728 18.7091L2.59857 18.6081L2.28629 19.3155L2.95358 18.9248L2.82728 18.7091ZM7.93637 15.7182L8.06307 15.9337L8.13215 15.8931L8.16475 15.8199L7.93637 15.7182ZM8.05 16.1864L8.25323 16.0408L8.1204 15.8554L7.92362 15.9707L8.05 16.1864ZM2.62728 19.3636L2.50076 19.148L2.29922 19.2663L2.40361 19.4753L2.62728 19.3636ZM4.41364 22.9409L4.18998 23.0526L4.31189 23.2967L4.54444 23.154L4.41364 22.9409ZM8.52273 20.4182L8.65353 20.6312L8.72955 20.5846L8.75885 20.5003L8.52273 20.4182ZM9.35909 18.0136L9.59522 18.0958L9.63779 17.9734L9.56232 17.868L9.35909 18.0136ZM20.3818 18.2182L20.4154 17.9705L20.3009 17.9549L20.2148 18.0321L20.3818 18.2182ZM16.75 21.4773L16.583 21.2912L16.3839 21.4699L16.5757 21.6565L16.75 21.4773ZM19.8773 24.5136L19.7031 24.693L19.799 24.7861L19.9297 24.7581L19.8773 24.5136ZM23.8591 23.6591L23.9118 23.9035L23.9981 23.8849L24.0536 23.8162L23.8591 23.6591ZM25.3273 21.8409L25.5218 21.998L25.6202 21.8761L25.5534 21.7343L25.3273 21.8409ZM23.8318 18.6864L24.0577 18.5793L23.9997 18.4569L23.8654 18.4386L23.8318 18.6864ZM14.3682 17.3409L14.5977 17.2418L14.5187 17.0591L14.323 17.095L14.3682 17.3409ZM9.79091 18.1818L9.74574 17.9359L9.60246 17.9623L9.55472 18.0999L9.79091 18.1818ZM8.97727 20.5273L8.74108 20.4453L8.69526 20.5774L8.78381 20.6856L8.97727 20.5273ZM11.4773 23.5818L11.2838 23.7402L11.4078 23.8916L11.5845 23.8076L11.4773 23.5818ZM16.1045 21.3591L16.2128 21.5845L16.4293 21.4804L16.334 21.2599L16.1045 21.3591ZM20.5364 17.7727H20.2864V17.9912L20.5028 18.0205L20.5364 17.7727ZM23.9273 18.2318L23.8937 18.4796L23.9941 18.4932L24.0756 18.4331L23.9273 18.2318ZM26.4364 16.3818L26.5847 16.5831L26.719 16.4841L26.6791 16.3221L26.4364 16.3818ZM25.1227 11.0409L25.3655 10.9812L25.2857 10.6566L24.9969 10.8249L25.1227 11.0409ZM20.5364 13.7137L20.4105 13.4977L20.2864 13.57V13.7137H20.5364ZM20.3046 13.3137L20.1773 13.5288L20.3036 13.6035L20.4304 13.5296L20.3046 13.3137ZM24.9682 10.5955L25.0941 10.8115L25.2992 10.6919L25.1904 10.4809L24.9682 10.5955ZM22.6773 6.15002L22.8995 6.03549L22.8131 5.86773L22.628 5.90492L22.6773 6.15002ZM19.9409 6.70002L19.8917 6.45492L19.7943 6.47448L19.7369 6.55547L19.9409 6.70002ZM16.7455 11.2091L16.5415 11.0646L16.3845 11.2861L16.6182 11.4243L16.7455 11.2091ZM16.4545 10.8364L16.2319 10.95L16.42 11.3187L16.6588 10.9806L16.4545 10.8364ZM13.9682 5.96366H13.7182V6.02375L13.7455 6.07729L13.9682 5.96366ZM13.9682 1.35457H14.2182V1.06713L13.9335 1.10698L13.9682 1.35457ZM13.5136 1.4182L13.479 1.17062L13.2636 1.20077V1.4182H13.5136ZM13.5136 5.77275L13.501 6.02243L13.7636 6.03576V5.77275H13.5136ZM10.4682 5.6182L10.4032 5.8596L10.4289 5.86653L10.4555 5.86788L10.4682 5.6182ZM8.24091 5.0182L8.06095 5.19174L8.10902 5.24159L8.17589 5.2596L8.24091 5.0182ZM7.2591 4.00002L7.43906 3.82649L7.28726 3.66907L7.11105 3.79857L7.2591 4.00002ZM6.88182 4.27729L6.73377 4.07585L6.50354 4.24506L6.70182 4.45078L6.88182 4.27729ZM7.85001 5.28184L8.08371 5.37063L8.14 5.22247L8.03001 5.10835L7.85001 5.28184ZM5.47728 11.5273L5.34655 11.7404L5.6038 11.8982L5.71098 11.6161L5.47728 11.5273ZM2.51364 9.70911L2.64438 9.49602L2.40892 9.35157L2.2886 9.60022L2.51364 9.70911ZM2.32273 10.1364L2.09112 10.0423L2.01172 10.2377L2.19102 10.3489L2.32273 10.1364ZM5.30001 11.9818L5.52841 12.0835L5.61707 11.8842L5.43172 11.7693L5.30001 11.9818ZM2.11819 19.1318L2.24658 19.3463L2.31444 19.3057L2.34659 19.2335L2.11819 19.1318ZM1.49546 19.5046L1.36707 19.2901L1.20481 19.3872L1.2541 19.5697L1.49546 19.5046ZM1.61819 19.9591L1.37683 20.0243L1.46288 20.343L1.74632 20.1738L1.61819 19.9591ZM2.20455 19.6091L2.42855 19.4981L2.30851 19.2559L2.07642 19.3944L2.20455 19.6091ZM4.02273 23.2773L4.24865 23.3844L4.30055 23.2748L4.24673 23.1663L4.02273 23.2773ZM3.56819 24.2364L3.34228 24.1293L3.28314 24.2541L3.35727 24.3706L3.56819 24.2364ZM3.87273 24.6909L3.66206 24.8255L3.89969 25.1975L4.0965 24.8024L3.87273 24.6909ZM4.50001 23.4318L4.36927 23.2187L4.30819 23.2562L4.27624 23.3204L4.50001 23.4318ZM8.66364 20.8773L8.85717 20.719L8.71898 20.55L8.5329 20.6642L8.66364 20.8773ZM11.0909 23.8455L11.256 24.0332L11.4371 23.8739L11.2844 23.6872L11.0909 23.8455ZM6.78637 27.6318L6.62125 27.4441L6.39955 27.6391L6.62845 27.8256L6.78637 27.6318ZM7.16364 27.9182L7.01833 28.1216L7.17956 28.2368L7.3285 28.1061L7.16364 27.9182ZM11.3091 24.2818L11.5451 24.1994L11.4229 23.8495L11.1442 24.0939L11.3091 24.2818ZM13.35 30.1227L13.539 30.2864L13.6338 30.1769L13.586 30.0403L13.35 30.1227ZM13.0273 30.4955L12.8383 30.3318L12.5564 30.6574L12.9789 30.7407L13.0273 30.4955ZM14.0045 30.65L13.9735 30.8981L14.3584 30.9462L14.2433 30.5758L14.0045 30.65ZM13.9 30.3137L13.8151 30.0785L13.5903 30.1597L13.6613 30.3879L13.9 30.3137ZM17.9909 28.8364L18.1374 28.6338L18.0303 28.5564L17.906 28.6012L17.9909 28.8364ZM19.8773 30.2L19.7308 30.4026L19.831 30.475L19.9493 30.4394L19.8773 30.2ZM20.4364 30.0318L20.5084 30.2712L20.9878 30.127L20.5845 29.8304L20.4364 30.0318ZM18.3227 28.4773L18.0967 28.3704L18.0087 28.5566L18.1746 28.6787L18.3227 28.4773ZM19.9864 24.9591L19.9337 24.7147L19.8131 24.7407L19.7604 24.8522L19.9864 24.9591ZM23.8273 24.1318L24.0729 24.0852L24.0251 23.8335L23.7746 23.8874L23.8273 24.1318ZM24.55 27.9364L24.3044 27.983L24.3771 28.3657L24.6947 28.1403L24.55 27.9364ZM24.9636 27.6273L25.1157 27.8257L25.238 27.732L25.2092 27.5806L24.9636 27.6273ZM24.2591 23.9182L24.0644 23.7614L23.9919 23.8513L24.0135 23.9649L24.2591 23.9182ZM25.6727 22.1637L25.8027 21.9501L25.6155 21.8362L25.4781 22.0068L25.6727 22.1637ZM28.4 23.8227L28.2701 24.0363L28.4817 24.1651L28.6124 23.9546L28.4 23.8227ZM28.6409 23.4227L28.8584 23.546L28.9779 23.3351L28.7708 23.2091L28.6409 23.4227ZM25.8 21.6955L25.5737 21.8018L25.6058 21.87L25.6701 21.9091L25.8 21.6955ZM24.3045 18.5137L24.156 18.3126L23.9911 18.4344L24.0783 18.62L24.3045 18.5137ZM26.6 16.8182L26.7488 17.0196L26.7592 17.0109L26.6 16.8182ZM26.7045 16.7318L26.8709 16.5452L26.7108 16.4024L26.5453 16.5391L26.7045 16.7318ZM30.1409 19.7955L29.9745 19.9821L30.2767 20.2514L30.3823 19.8607L30.1409 19.7955ZM30.2682 19.2864L30.5111 19.3455L30.5465 19.1999L30.4348 19.1L30.2682 19.2864ZM27.0864 16.4409L26.932 16.2443L26.6973 16.4284L26.9197 16.6273L27.0864 16.4409ZM30.4864 13.7727L30.6407 13.9694L30.7549 13.8798L30.7337 13.7361L30.4864 13.7727ZM30.3591 13.0318L30.6041 12.9819L30.4399 12.1762L30.1278 12.9369L30.3591 13.0318ZM30.2136 13.3864L30.3679 13.5831L30.4199 13.5424L30.4449 13.4813L30.2136 13.3864ZM26.85 16.0227L26.6074 16.083L26.7004 16.4577L27.0042 16.2195L26.85 16.0227ZM25.5455 10.7682L25.3824 10.5787L25.2657 10.6791L25.3028 10.8284L25.5455 10.7682ZM28.4455 8.27275L28.6085 8.46225L28.7707 8.32269L28.6579 8.14091L28.4455 8.27275ZM28.1909 7.87729L28.4 7.74029L28.2438 7.50185L28.0278 7.68784L28.1909 7.87729ZM25.3455 10.3273L25.1233 10.442L25.2686 10.7234L25.5086 10.5167L25.3455 10.3273ZM23.05 5.88184L22.8114 5.80711L22.7807 5.90521L22.8279 5.99654L23.05 5.88184ZM23.7818 3.54548L24.0204 3.6202L24.0778 3.43699L23.9156 3.33427L23.7818 3.54548ZM23.3727 3.29548L23.4929 3.07627L23.225 2.92936L23.1341 3.22104L23.3727 3.29548ZM22.6227 5.70002L22.6719 5.94513L22.8173 5.91597L22.8614 5.77446L22.6227 5.70002ZM19.9727 6.23184L19.7313 6.29683L19.7922 6.52305L20.0219 6.47695L19.9727 6.23184ZM18.7 1.50457L18.9414 1.43957L18.9002 1.28662L18.7443 1.25853L18.7 1.50457ZM18.1955 1.41366L18.2398 1.16762L17.8507 1.09751L17.9542 1.47911L18.1955 1.41366ZM19.5591 6.44093L19.7633 6.58516L19.8312 6.48905L19.8004 6.37548L19.5591 6.44093ZM16.5546 11.6318L16.682 11.4168L16.4136 11.2577L16.3169 11.5543L16.5546 11.6318ZM20.0909 13.7273H20.3409V13.5848L20.2184 13.5122L20.0909 13.7273ZM20.0909 17.8864L20.258 18.0724L20.3409 17.9979V17.8864H20.0909ZM16.5136 21.1L16.2842 21.1992L16.4221 21.5183L16.6807 21.286L16.5136 21.1ZM14.7773 17.0818L14.5396 17.0043L14.5103 17.0942L14.5478 17.181L14.7773 17.0818ZM16 11L15.9755 11.2488L16.429 11.2935L16.223 10.887L16 11ZM10.7227 10.4273L10.9503 10.5307L11.111 10.1773H10.7227V10.4273ZM10.6455 10.4273L10.3955 10.4273V10.6773H10.6455V10.4273ZM10.5455 10.9318L10.5704 10.6831L10.3897 10.665L10.3166 10.8312L10.5455 10.9318ZM16.0864 11.4864L16.3241 11.5638L16.4203 11.2686L16.1113 11.2376L16.0864 11.4864ZM8.27273 5.50457L8.33832 5.26332L8.11947 5.20383L8.039 5.41586L8.27273 5.50457ZM10.1955 6.02729H10.4455V5.83619L10.261 5.78605L10.1955 6.02729ZM10.1955 10.5L10.2554 10.7427L10.4455 10.6958V10.5H10.1955ZM5.98182 11.5409L5.74809 11.4522L5.57892 11.898L6.04178 11.7836L5.98182 11.5409ZM5.77273 12.0682L5.71308 11.8254L5.59396 11.8547L5.54422 11.9668L5.77273 12.0682ZM10.0273 11.0227L10.2557 11.1244L10.4633 10.6582L9.96762 10.78L10.0273 11.0227ZM2.81819 18.7273L2.58967 18.6259L2.27408 19.3372L2.94489 18.9428L2.81819 18.7273ZM8.53637 20.4182L8.66759 20.631L8.7441 20.5838L8.77305 20.4987L8.53637 20.4182ZM4.44546 22.9409L4.22259 23.0542L4.3456 23.2962L4.57668 23.1537L4.44546 22.9409ZM8.05001 16.1818L8.25289 16.0358L8.11986 15.851L7.92349 15.9662L8.05001 16.1818ZM9.3591 18L9.59577 18.0805L9.63728 17.9585L9.56198 17.8539L9.3591 18ZM8.99091 20.5273L8.75472 20.4454L8.70905 20.577L8.79703 20.6851L8.99091 20.5273ZM9.80455 18.1818L9.76048 17.9358L9.61635 17.9616L9.56836 18.0999L9.80455 18.1818ZM14.3727 17.3637L14.6022 17.2645L14.5236 17.0826L14.3287 17.1176L14.3727 17.3637ZM16.1091 21.3818L16.2164 21.6077L16.4343 21.5041L16.3386 21.2827L16.1091 21.3818ZM17.8182 28.3773L17.9036 28.6123L17.9988 28.5776L18.0431 28.4864L17.8182 28.3773ZM13.7273 29.8637H13.4773V30.2205L13.8127 30.0986L13.7273 29.8637ZM13.7273 29.7137H13.9773V29.6713L13.9633 29.6312L13.7273 29.7137ZM11.7273 23.9864L11.6187 23.7612L11.4177 23.8581L11.4913 24.0688L11.7273 23.9864ZM19.5455 24.8182L19.7704 24.9274L19.8496 24.7642L19.719 24.6382L19.5455 24.8182ZM19.8773 24.5182L19.703 24.6974L19.799 24.7908L19.93 24.7626L19.8773 24.5182ZM20.3864 18.2227L20.419 17.9749L20.3052 17.9599L20.2196 18.0365L20.3864 18.2227ZM23.8364 18.6773L24.0625 18.5707L24.0043 18.4473L23.869 18.4294L23.8364 18.6773ZM26.4364 16.3864L26.5847 16.5876L26.7188 16.4888L26.6792 16.327L26.4364 16.3864ZM23.9273 18.2364L23.8933 18.4841L23.9939 18.4979L24.0756 18.4376L23.9273 18.2364ZM20.5455 17.7727H20.2955V17.9908L20.5115 18.0204L20.5455 17.7727ZM20.5455 13.7273L20.4196 13.5113L20.2955 13.5836V13.7273H20.5455ZM25.1318 11.0546L25.3747 10.9952L25.2951 10.6701L25.0059 10.8386L25.1318 11.0546ZM24.95 10.5955L25.0762 10.8113L25.2801 10.692L25.1726 10.4817L24.95 10.5955ZM20.2864 13.3227L20.1591 13.5379L20.2857 13.6128L20.4126 13.5386L20.2864 13.3227ZM16.7273 11.2182L16.523 11.0741L16.3668 11.2955L16.6 11.4334L16.7273 11.2182ZM19.9091 6.70911L19.8596 6.46406L19.7621 6.48374L19.7048 6.56497L19.9091 6.70911ZM16 31V31.25V31ZM16 1.45455V1.20455V1.45455ZM16.6625 21.2724L20.2398 18.0587L19.9057 17.6868L16.3284 20.9004L16.6625 21.2724ZM20.3227 17.8727V13.7136H19.8227V17.8727H20.3227ZM20.1997 13.4983L16.6679 11.4165L16.414 11.8472L19.9458 13.929L20.1997 13.4983ZM16.3034 11.5539L14.5215 16.9857L14.9966 17.1416L16.7785 11.7098L16.3034 11.5539ZM14.5296 17.1627L16.2659 21.1854L16.725 20.9873L14.9886 16.9646L14.5296 17.1627ZM9.76348 17.9686L14.3771 17.1186L14.2865 16.6269L9.67289 17.4769L9.76348 17.9686ZM14.5693 16.9507L16.3375 11.5643L15.8625 11.4084L14.0943 16.7947L14.5693 16.9507ZM16.1249 11.2376L10.584 10.6831L10.5342 11.1806L16.0751 11.7351L16.1249 11.2376ZM10.3305 10.8306L8.15322 15.7488L8.61042 15.9512L10.7877 11.033L10.3305 10.8306ZM8.17832 15.9952L9.51468 17.8679L9.92169 17.5775L8.58532 15.7048L8.17832 15.9952ZM10.6751 10.726L15.9842 11.2579L16.034 10.7603L10.7249 10.2285L10.6751 10.726ZM16.232 10.8959L13.8138 6.13231L13.368 6.35863L15.7862 11.1223L16.232 10.8959ZM13.604 5.99581L10.6586 5.84127L10.6324 6.34058L13.5778 6.49512L13.604 5.99581ZM10.3955 6.09092V10.4455H10.8955V6.09092H10.3955ZM10.716 10.6853L10.7933 10.6626L10.6522 10.1829L10.5749 10.2056L10.716 10.6853ZM10.492 10.3266L10.4692 10.3811L10.9308 10.5734L10.9535 10.5189L10.492 10.3266ZM11.464 24.0733L13.464 29.8006L13.936 29.6358L11.936 23.9085L11.464 24.0733ZM13.8768 29.8949L13.8814 29.8904L13.5277 29.5369L13.5232 29.5415L13.8768 29.8949ZM13.4696 29.7991L13.5242 29.9491L13.9941 29.7782L13.9395 29.6282L13.4696 29.7991ZM13.8447 30.0985L17.922 28.6122L17.7507 28.1424L13.6735 29.6288L13.8447 30.0985ZM18.0623 28.4843L19.7487 24.9252L19.2968 24.7112L17.6105 28.2702L18.0623 28.4843ZM19.6969 24.6389L16.5378 21.5707L16.1895 21.9294L19.3486 24.9975L19.6969 24.6389ZM16.2554 21.5247L11.5917 23.7656L11.8083 24.2163L16.4719 21.9754L16.2554 21.5247ZM10.2474 5.78603L8.32468 5.2633L8.19351 5.74578L10.1162 6.26851L10.2474 5.78603ZM8.02536 5.41584L5.73445 11.4522L6.20192 11.6296L8.49283 5.59325L8.02536 5.41584ZM6.02814 11.7836L10.2418 10.7427L10.1219 10.2573L5.90823 11.2982L6.02814 11.7836ZM10.4318 10.5V6.02727H9.93182V10.5H10.4318ZM9.94938 10.78L5.69938 11.8254L5.81881 12.3109L10.0688 11.2655L9.94938 10.78ZM5.53039 11.9672L2.59857 18.6081L3.05598 18.8101L5.9878 12.1692L5.53039 11.9672ZM2.95358 18.9248L8.06267 15.9339L7.81006 15.5024L2.70097 18.4933L2.95358 18.9248ZM8.16507 15.8191L10.2378 11.1237L9.78039 10.9218L7.70766 15.6172L8.16507 15.8191ZM7.92362 15.9707L2.50089 19.1479L2.75366 19.5793L8.17638 16.4021L7.92362 15.9707ZM2.40361 19.4753L4.18998 23.0526L4.6373 22.8292L2.85094 19.2519L2.40361 19.4753ZM4.54444 23.154L8.65353 20.6312L8.39193 20.2051L4.28284 22.7278L4.54444 23.154ZM8.75885 20.5003L9.59522 18.0958L9.12297 17.9315L8.2866 20.336L8.75885 20.5003ZM9.56232 17.868L8.25323 16.0408L7.84677 16.332L9.15586 18.1592L9.56232 17.868ZM20.2148 18.0321L16.583 21.2912L16.917 21.6633L20.5488 18.4043L20.2148 18.0321ZM16.5759 21.6566L19.7031 24.693L20.0514 24.3343L16.9242 21.2979L16.5759 21.6566ZM19.9297 24.7581L23.9116 23.9035L23.8066 23.4147L19.8248 24.2692L19.9297 24.7581ZM24.0536 23.8162L25.5218 21.998L25.1328 21.6839L23.6646 23.502L24.0536 23.8162ZM25.5532 21.7338L24.0577 18.5793L23.6059 18.7935L25.1014 21.948L25.5532 21.7338ZM23.8654 18.4386L20.4154 17.9705L20.3482 18.4659L23.7982 18.9341L23.8654 18.4386ZM14.323 17.095L9.74574 17.9359L9.83608 18.4277L14.4134 17.5868L14.323 17.095ZM9.55472 18.0999L8.74108 20.4453L9.21347 20.6092L10.0271 18.2638L9.55472 18.0999ZM8.78381 20.6856L11.2838 23.7402L11.6707 23.4235L9.17074 20.3689L8.78381 20.6856ZM11.5855 23.8072L16.2128 21.5845L15.9963 21.1338L11.369 23.3565L11.5855 23.8072ZM16.334 21.2599L14.5977 17.2418L14.1387 17.4401L15.8751 21.4583L16.334 21.2599ZM20.5028 18.0205L23.8937 18.4796L23.9608 17.9841L20.5699 17.525L20.5028 18.0205ZM24.0756 18.4331L26.5847 16.5831L26.288 16.1806L23.7789 18.0306L24.0756 18.4331ZM26.6791 16.3221L25.3655 10.9812L24.88 11.1006L26.1936 16.4415L26.6791 16.3221ZM24.9969 10.8249L20.4105 13.4977L20.6622 13.9297L25.2486 11.2569L24.9969 10.8249ZM20.2864 13.7137V17.7727H20.7864V13.7137H20.2864ZM20.4304 13.5296L25.0941 10.8115L24.8423 10.3795L20.1787 13.0977L20.4304 13.5296ZM25.1904 10.4809L22.8995 6.03549L22.4551 6.26454L24.746 10.71L25.1904 10.4809ZM22.628 5.90492L19.8917 6.45492L19.9902 6.94511L22.7265 6.39511L22.628 5.90492ZM19.7369 6.55547L16.5415 11.0646L16.9494 11.3537L20.1449 6.84457L19.7369 6.55547ZM16.6182 11.4243L20.1773 13.5288L20.4318 13.0985L16.8727 10.9939L16.6182 11.4243ZM16.6772 10.7228L14.1909 5.85003L13.7455 6.07729L16.2319 10.95L16.6772 10.7228ZM14.2182 5.96366V1.35457H13.7182V5.96366H14.2182ZM13.9335 1.10698L13.479 1.17062L13.5483 1.66579L14.0028 1.60215L13.9335 1.10698ZM13.2636 1.4182V5.77275H13.7636V1.4182H13.2636ZM13.5263 5.52307L10.4809 5.36852L10.4555 5.86788L13.501 6.02243L13.5263 5.52307ZM10.5332 5.37681L8.30594 4.77681L8.17589 5.2596L10.4032 5.8596L10.5332 5.37681ZM8.42088 4.84467L7.43906 3.82649L7.07914 4.17356L8.06095 5.19174L8.42088 4.84467ZM7.11105 3.79857L6.73377 4.07585L7.02988 4.47874L7.40715 4.20147L7.11105 3.79857ZM6.70182 4.45078L7.67 5.45533L8.03001 5.10835L7.06183 4.10381L6.70182 4.45078ZM7.6163 5.19305L5.24358 11.4385L5.71098 11.6161L8.08371 5.37063L7.6163 5.19305ZM5.60801 11.3142L2.64438 9.49602L2.38291 9.9222L5.34655 11.7404L5.60801 11.3142ZM2.2886 9.60022C2.21851 9.74507 2.15259 9.89097 2.09112 10.0423L2.55435 10.2305C2.61106 10.0909 2.67241 9.95497 2.73868 9.818L2.2886 9.60022ZM2.19102 10.3489L5.16829 12.1943L5.43172 11.7693L2.45445 9.92389L2.19102 10.3489ZM5.0716 11.8802L1.88978 19.0302L2.34659 19.2335L5.52841 12.0835L5.0716 11.8802ZM1.9898 18.9173L1.36707 19.2901L1.62386 19.7191L2.24658 19.3463L1.9898 18.9173ZM1.2541 19.5697L1.37683 20.0243L1.85955 19.8939L1.73682 19.4394L1.2541 19.5697ZM1.74632 20.1738L2.33269 19.8238L2.07642 19.3944L1.49005 19.7444L1.74632 20.1738ZM1.98056 19.7201L3.79874 23.3883L4.24673 23.1663L2.42855 19.4981L1.98056 19.7201ZM3.79682 23.1702L3.34228 24.1293L3.7941 24.3435L4.24865 23.3844L3.79682 23.1702ZM3.35727 24.3706C3.40777 24.45 3.46032 24.5263 3.511 24.6001C3.56238 24.6749 3.61237 24.7477 3.66206 24.8255L4.08341 24.5563C4.02856 24.4705 3.974 24.391 3.92311 24.317C3.87151 24.2419 3.82406 24.1728 3.7791 24.1022L3.35727 24.3706ZM4.0965 24.8024L4.72377 23.5433L4.27624 23.3204L3.64897 24.5794L4.0965 24.8024ZM4.63074 23.6449L8.79438 21.0904L8.5329 20.6642L4.36927 23.2187L4.63074 23.6449ZM8.47011 21.0356L10.8974 24.0037L11.2844 23.6872L8.85717 20.719L8.47011 21.0356ZM10.9258 23.6578L6.62125 27.4441L6.95149 27.8195L11.256 24.0332L10.9258 23.6578ZM6.62845 27.8256C6.75629 27.9298 6.88796 28.0285 7.01833 28.1216L7.30895 27.7148C7.18478 27.6261 7.06191 27.5339 6.94429 27.438L6.62845 27.8256ZM7.3285 28.1061L11.474 24.4698L11.1442 24.0939L6.99878 27.7303L7.3285 28.1061ZM11.0731 24.3643L13.114 30.2052L13.586 30.0403L11.5451 24.1994L11.0731 24.3643ZM13.161 29.9591L12.8383 30.3318L13.2163 30.6591L13.539 30.2864L13.161 29.9591ZM12.9789 30.7407C13.3086 30.8058 13.6418 30.8566 13.9735 30.8981L14.0356 30.4019C13.7127 30.3616 13.3914 30.3125 13.0756 30.2502L12.9789 30.7407ZM14.2433 30.5758L14.1387 30.2395L13.6613 30.3879L13.7658 30.7242L14.2433 30.5758ZM13.9849 30.5488L18.0758 29.0715L17.906 28.6012L13.8151 30.0785L13.9849 30.5488ZM17.8445 29.039L19.7308 30.4026L20.0237 29.9974L18.1374 28.6338L17.8445 29.039ZM19.9493 30.4394L20.5084 30.2712L20.3644 29.7924L19.8053 29.9606L19.9493 30.4394ZM20.5845 29.8304L18.4709 28.2759L18.1746 28.6787L20.2882 30.2332L20.5845 29.8304ZM18.5487 28.5842L20.2124 25.066L19.7604 24.8522L18.0967 28.3704L18.5487 28.5842ZM20.039 25.2035L23.8799 24.3762L23.7746 23.8874L19.9337 24.7147L20.039 25.2035ZM23.5817 24.1785L24.3044 27.983L24.7956 27.8897L24.0729 24.0852L23.5817 24.1785ZM24.6947 28.1403C24.84 28.0371 24.98 27.9298 25.1157 27.8257L24.8115 27.4289C24.6746 27.5339 24.5418 27.6356 24.4053 27.7325L24.6947 28.1403ZM25.2092 27.5806L24.5047 23.8715L24.0135 23.9649L24.718 27.6739L25.2092 27.5806ZM24.4538 24.0751L25.8674 22.3205L25.4781 22.0068L24.0644 23.7614L24.4538 24.0751ZM25.5428 22.3772L28.2701 24.0363L28.5299 23.6092L25.8027 21.9501L25.5428 22.3772ZM28.6124 23.9546C28.6938 23.8234 28.7783 23.6874 28.8584 23.546L28.4234 23.2995C28.349 23.4308 28.2698 23.5584 28.1876 23.6909L28.6124 23.9546ZM28.7708 23.2091L25.9299 21.4819L25.6701 21.9091L28.511 23.6364L28.7708 23.2091ZM26.0263 21.5891L24.5308 18.4073L24.0783 18.62L25.5737 21.8018L26.0263 21.5891ZM24.4531 18.7147L26.7485 17.0193L26.4515 16.6171L24.156 18.3126L24.4531 18.7147ZM26.7592 17.0109L26.8638 16.9246L26.5453 16.5391L26.4408 16.6255L26.7592 17.0109ZM26.5382 16.9184L29.9745 19.9821L30.3073 19.6089L26.8709 16.5452L26.5382 16.9184ZM30.3823 19.8607C30.4288 19.6886 30.4707 19.5115 30.5111 19.3455L30.0253 19.2273C29.9838 19.3976 29.944 19.566 29.8996 19.7302L30.3823 19.8607ZM30.4348 19.1L27.253 16.2546L26.9197 16.6273L30.1015 19.4727L30.4348 19.1ZM27.2407 16.6376L30.6407 13.9694L30.332 13.5761L26.932 16.2443L27.2407 16.6376ZM30.7337 13.7361C30.697 13.4884 30.6553 13.2335 30.6041 12.9819L30.1141 13.0817C30.1629 13.3211 30.203 13.5662 30.2391 13.8094L30.7337 13.7361ZM30.1278 12.9369L29.9823 13.2915L30.4449 13.4813L30.5904 13.1267L30.1278 12.9369ZM30.0594 13.1896L26.6958 15.826L27.0042 16.2195L30.3679 13.5831L30.0594 13.1896ZM27.0926 15.9625L25.7881 10.708L25.3028 10.8284L26.6074 16.083L27.0926 15.9625ZM25.7085 10.9577L28.6085 8.46225L28.2824 8.08325L25.3824 10.5787L25.7085 10.9577ZM28.6579 8.14091C28.5742 8.00604 28.4861 7.87165 28.4 7.74029L27.9818 8.0143C28.0685 8.14658 28.1531 8.27582 28.233 8.40459L28.6579 8.14091ZM28.0278 7.68784L25.1823 10.1378L25.5086 10.5167L28.354 8.06674L28.0278 7.68784ZM25.5676 10.2126L23.2721 5.76714L22.8279 5.99654L25.1233 10.442L25.5676 10.2126ZM23.2886 5.95657L24.0204 3.6202L23.5433 3.47075L22.8114 5.80711L23.2886 5.95657ZM23.9156 3.33427C23.7838 3.25078 23.6427 3.15842 23.4929 3.07627L23.2525 3.51468C23.3845 3.58708 23.5072 3.66745 23.6481 3.75668L23.9156 3.33427ZM23.1341 3.22104L22.3841 5.62558L22.8614 5.77446L23.6114 3.36992L23.1341 3.22104ZM22.5735 5.45491L19.9235 5.98673L20.0219 6.47695L22.6719 5.94513L22.5735 5.45491ZM20.2141 6.16685L18.9414 1.43957L18.4586 1.56956L19.7313 6.29683L20.2141 6.16685ZM18.7443 1.25853L18.2398 1.16762L18.1511 1.6597L18.6557 1.75061L18.7443 1.25853ZM17.9542 1.47911L19.3178 6.50638L19.8004 6.37548L18.4367 1.34821L17.9542 1.47911ZM19.3549 6.2967L16.2503 10.6922L16.6588 10.9806L19.7633 6.58516L19.3549 6.2967ZM16.4271 11.8469L19.9635 13.9424L20.2184 13.5122L16.682 11.4168L16.4271 11.8469ZM19.8409 13.7273V17.8864H20.3409V13.7273H19.8409ZM19.9238 17.7004L16.3466 20.914L16.6807 21.286L20.258 18.0724L19.9238 17.7004ZM16.7431 21.0009L15.0068 16.9827L14.5478 17.181L16.2842 21.1992L16.7431 21.0009ZM15.015 17.1593L16.7922 11.7093L16.3169 11.5543L14.5396 17.0043L15.015 17.1593ZM13.3679 6.35846L15.777 11.113L16.223 10.887L13.8139 6.13247L13.3679 6.35846ZM16.0245 10.7512L10.7245 10.2285L10.6755 10.7261L15.9755 11.2488L16.0245 10.7512ZM10.9276 10.5807L10.9503 10.5307L10.4951 10.3238L10.4724 10.3738L10.9276 10.5807ZM10.7227 10.1773H10.6455V10.6773H10.7227V10.1773ZM10.8955 10.4273L10.8955 6.09092L10.3955 6.09092L10.3955 10.4273L10.8955 10.4273ZM10.5206 11.1806L16.0615 11.7351L16.1113 11.2376L10.5704 10.6831L10.5206 11.1806ZM15.8487 11.409L14.0941 16.7953L14.5695 16.9502L16.3241 11.5638L15.8487 11.409ZM8.61066 15.9507L10.7743 11.0325L10.3166 10.8312L8.15299 15.7493L8.61066 15.9507ZM8.20715 5.74581L10.1299 6.26854L10.261 5.78605L8.33832 5.26332L8.20715 5.74581ZM9.94546 6.02729V10.5H10.4455V6.02729H9.94546ZM10.1355 10.2573L5.92187 11.2982L6.04178 11.7836L10.2554 10.7427L10.1355 10.2573ZM6.21556 11.6296L8.50647 5.59327L8.039 5.41586L5.74809 11.4522L6.21556 11.6296ZM5.83239 12.311L10.0869 11.2655L9.96762 10.78L5.71308 11.8254L5.83239 12.311ZM9.7989 10.921L7.70799 15.6165L8.16475 15.8199L10.2557 11.1244L9.7989 10.921ZM7.80966 15.5027L2.69148 18.5118L2.94489 18.9428L8.06307 15.9337L7.80966 15.5027ZM3.04671 18.8287L6.00125 12.1696L5.54422 11.9668L2.58967 18.6259L3.04671 18.8287ZM8.40515 20.2054L4.31424 22.7281L4.57668 23.1537L8.66759 20.631L8.40515 20.2054ZM4.66833 22.8277L2.85014 19.2504L2.40441 19.4769L4.22259 23.0542L4.66833 22.8277ZM2.75379 19.5793L8.17652 16.3975L7.92349 15.9662L2.50076 19.148L2.75379 19.5793ZM7.84712 16.3279L9.15621 18.1461L9.56198 17.8539L8.25289 16.0358L7.84712 16.3279ZM9.12242 17.9195L8.29969 20.3377L8.77305 20.4987L9.59577 18.0805L9.12242 17.9195ZM9.22711 20.6092L10.0407 18.2638L9.56836 18.0999L8.75472 20.4454L9.22711 20.6092ZM9.84863 18.4279L14.4168 17.6097L14.3287 17.1176L9.76048 17.9358L9.84863 18.4279ZM14.1432 17.4628L15.8796 21.481L16.3386 21.2827L14.6022 17.2645L14.1432 17.4628ZM16.0018 21.156L11.37 23.356L11.5845 23.8076L16.2164 21.6077L16.0018 21.156ZM11.6712 23.424L9.1848 20.3695L8.79703 20.6851L11.2834 23.7397L11.6712 23.424ZM17.7328 28.1423L13.6419 29.6287L13.8127 30.0986L17.9036 28.6123L17.7328 28.1423ZM13.9773 29.8637V29.7137H13.4773V29.8637H13.9773ZM13.9633 29.6312L11.9633 23.904L11.4913 24.0688L13.4913 29.7961L13.9633 29.6312ZM11.8359 24.2116L16.4723 21.9752L16.255 21.5248L11.6187 23.7612L11.8359 24.2116ZM16.1901 21.93L19.3719 24.9982L19.719 24.6382L16.5372 21.5701L16.1901 21.93ZM19.3205 24.709L17.5933 28.2681L18.0431 28.4864L19.7704 24.9274L19.3205 24.709ZM23.8064 23.4147L19.8246 24.2738L19.93 24.7626L23.9118 23.9035L23.8064 23.4147ZM20.0516 24.339L16.9243 21.298L16.5757 21.6565L19.703 24.6974L20.0516 24.339ZM16.9167 21.6636L20.5531 18.409L20.2196 18.0365L16.5833 21.291L16.9167 21.6636ZM20.3537 18.4706L23.8037 18.9251L23.869 18.4294L20.419 17.9749L20.3537 18.4706ZM23.6102 18.7839L25.1011 21.9475L25.5534 21.7343L24.0625 18.5707L23.6102 18.7839ZM26.288 16.1852L23.7789 18.0352L24.0756 18.4376L26.5847 16.5876L26.288 16.1852ZM23.9612 17.9887L20.5794 17.5251L20.5115 18.0204L23.8933 18.4841L23.9612 17.9887ZM20.7955 17.7727V13.7273H20.2955V17.7727H20.7955ZM20.6713 13.9433L25.2577 11.2706L25.0059 10.8386L20.4196 13.5113L20.6713 13.9433ZM24.889 11.114L26.1935 16.4458L26.6792 16.327L25.3747 10.9952L24.889 11.114ZM22.4547 6.26382L24.7274 10.7093L25.1726 10.4817L22.8999 6.03621L22.4547 6.26382ZM24.8238 10.3797L20.1602 13.1069L20.4126 13.5386L25.0762 10.8113L24.8238 10.3797ZM20.4136 13.1076L16.8545 11.003L16.6 11.4334L20.1591 13.5379L20.4136 13.1076ZM16.9315 11.3623L20.1134 6.85325L19.7048 6.56497L16.523 11.0741L16.9315 11.3623ZM19.9586 6.95416L22.7268 6.39507L22.6278 5.90496L19.8596 6.46406L19.9586 6.95416ZM16 30.75C13.0827 30.75 10.231 29.8849 7.80535 28.2642L7.52756 28.6799C10.0354 30.3556 12.9838 31.25 16 31.25V30.75ZM7.80535 28.2642C5.37972 26.6434 3.48918 24.3398 2.37278 21.6446L1.91084 21.8359C3.06508 24.6225 5.01971 27.0042 7.52756 28.6799L7.80535 28.2642ZM2.37278 21.6446C1.25639 18.9494 0.964292 15.9836 1.53342 13.1224L1.04303 13.0249C0.454607 15.9831 0.756608 19.0494 1.91084 21.8359L2.37278 21.6446ZM1.53342 13.1224C2.10256 10.2612 3.50736 7.63301 5.57018 5.57018L5.21663 5.21663C3.08388 7.34938 1.63146 10.0667 1.04303 13.0249L1.53342 13.1224ZM5.57018 5.57018C7.63301 3.50736 10.2612 2.10256 13.1224 1.53342L13.0249 1.04303C10.0667 1.63146 7.34938 3.08388 5.21663 5.21663L5.57018 5.57018ZM13.1224 1.53342C15.9836 0.964292 18.9494 1.25639 21.6446 2.37278L21.8359 1.91084C19.0494 0.756608 15.9831 0.454607 13.0249 1.04303L13.1224 1.53342ZM21.6446 2.37278C24.3398 3.48918 26.6434 5.37972 28.2642 7.80535L28.6799 7.52756C27.0042 5.01971 24.6225 3.06508 21.8359 1.91084L21.6446 2.37278ZM28.2642 7.80535C29.8849 10.231 30.75 13.0827 30.75 16H31.25C31.25 12.9838 30.3556 10.0354 28.6799 7.52756L28.2642 7.80535ZM30.75 16C30.75 19.9119 29.196 23.6637 26.4298 26.4298L26.7834 26.7834C29.6433 23.9234 31.25 20.0446 31.25 16H30.75ZM26.4298 26.4298C23.6637 29.196 19.9119 30.75 16 30.75V31.25C20.0446 31.25 23.9234 29.6433 26.7834 26.7834L26.4298 26.4298ZM16 1.20455C13.0737 1.20455 10.2132 2.07229 7.78009 3.69804L8.05788 4.11377C10.4088 2.54297 13.1726 1.70455 16 1.70455V1.20455ZM7.78009 3.69804C5.34699 5.32378 3.45062 7.63451 2.33079 10.338L2.79273 10.5294C3.87472 7.91722 5.707 5.68457 8.05788 4.11377L7.78009 3.69804ZM2.33079 10.338C1.21096 13.0415 0.917957 16.0164 1.48884 18.8865L1.97924 18.7889C1.42764 16.0159 1.71074 13.1415 2.79273 10.5294L2.33079 10.338ZM1.48884 18.8865C2.05973 21.7565 3.46886 24.3928 5.53804 26.462L5.89159 26.1084C3.89234 24.1092 2.53083 21.562 1.97924 18.7889L1.48884 18.8865ZM5.53804 26.462C7.60722 28.5312 10.2435 29.9403 13.1136 30.5112L13.2111 30.0208C10.4381 29.4692 7.89085 28.1077 5.89159 26.1084L5.53804 26.462ZM13.1136 30.5112C15.9836 31.0821 18.9585 30.7891 21.662 29.6692L21.4706 29.2073C18.8585 30.2893 15.9841 30.5724 13.2111 30.0208L13.1136 30.5112ZM21.662 29.6692C24.3655 28.5494 26.6762 26.653 28.302 24.2199L27.8862 23.9421C26.3154 26.293 24.0828 28.1253 21.4706 29.2073L21.662 29.6692ZM28.302 24.2199C29.9277 21.7868 30.7955 18.9263 30.7955 16H30.2955C30.2955 18.8274 29.457 21.5913 27.8862 23.9421L28.302 24.2199ZM30.7955 16C30.7955 12.076 29.2367 8.31273 26.462 5.53804L26.1084 5.89159C28.7893 8.57251 30.2955 12.2086 30.2955 16H30.7955ZM26.462 5.53804C23.6873 2.76335 19.924 1.20455 16 1.20455V1.70455C19.7914 1.70455 23.4275 3.21068 26.1084 5.89159L26.462 5.53804Z" fill="black"/>
</svg>
