<svg width="31" height="28" viewBox="0 0 31 28" fill="none" xmlns="http://www.w3.org/2000/svg">
<path d="M21.0591 1H1V1.46649H21.0591V1Z" fill="black"/>
<path d="M24.7727 7.6635H1V8.12999H24.7727V7.6635Z" fill="black"/>
<path d="M16.2296 16.6457H1V17.1122H16.2296V16.6457Z" fill="black"/>
<path d="M30.7136 7.6635H27.3704V8.12999H30.7136V7.6635Z" fill="black"/>
<path d="M30.7182 10.4259H10.6591V10.8923H30.7182V10.4259Z" fill="black"/>
<path d="M30.7136 19.4081H6.9409V19.8746H30.7136V19.4081Z" fill="black"/>
<path d="M30.7136 26.5335H15.4841V27H30.7136V26.5335Z" fill="black"/>
<path d="M4.34318 19.4081H1V19.8746H4.34318V19.4081Z" fill="black"/>
<path d="M21.0591 1H1V1.46649H21.0591V1Z" stroke="black" stroke-width="0.4"/>
<path d="M24.7727 7.6635H1V8.12999H24.7727V7.6635Z" stroke="black" stroke-width="0.4"/>
<path d="M16.2296 16.6457H1V17.1122H16.2296V16.6457Z" stroke="black" stroke-width="0.4"/>
<path d="M30.7136 7.6635H27.3704V8.12999H30.7136V7.6635Z" stroke="black" stroke-width="0.4"/>
<path d="M30.7182 10.4259H10.6591V10.8923H30.7182V10.4259Z" stroke="black" stroke-width="0.4"/>
<path d="M30.7136 19.4081H6.9409V19.8746H30.7136V19.4081Z" stroke="black" stroke-width="0.4"/>
<path d="M30.7136 26.5335H15.4841V27H30.7136V26.5335Z" stroke="black" stroke-width="0.4"/>
<path d="M4.34318 19.4081H1V19.8746H4.34318V19.4081Z" stroke="black" stroke-width="0.4"/>
</svg>
