<svg width="32" height="32" viewBox="0 0 32 32" fill="none" xmlns="http://www.w3.org/2000/svg">
<path d="M23.5182 15.3136C23.5682 15.3136 23.4136 15.2318 23.3318 15.3591C23.25 15.4864 23.5182 15.3545 23.5182 15.3136Z" fill="black"/>
<path d="M22.8182 20.7318C22.8182 20.7318 22.8182 20.6864 22.7182 20.6909C22.5091 20.7045 22.7591 20.7864 22.8182 20.7318Z" fill="black"/>
<path d="M21.9545 4.67728C21.8636 4.61819 21.8773 5.03182 21.9545 5.10001C22.0318 5.16819 21.9955 5.15001 21.9318 5.15001C21.7727 5.15001 22.1409 5.93637 22.3864 6.0591C22.6318 6.18182 23.0227 6.18637 23.0591 6.0591C23.0785 6.02908 23.1056 6.00481 23.1376 5.98882C23.1696 5.97283 23.2052 5.96571 23.2409 5.96819C23.4091 5.96819 23.7773 5.61819 23.7182 5.51364C23.6591 5.4091 23.9318 5.39091 23.8727 5.29091C23.8136 5.19091 23.8727 5.21364 23.9227 5.19546C24.0551 4.81085 24.0787 4.39717 23.9909 4.00001C23.95 4.00001 23.9318 3.94546 23.9545 3.88637C23.9773 3.82728 23.9545 3.78637 23.8636 3.82273C23.7727 3.8591 23.75 3.82273 23.7818 3.78637C23.8136 3.75001 23.6182 3.45001 23.5227 3.51364C23.4273 3.57728 23.4545 3.51364 23.4545 3.51364C23.4545 3.51364 22.9273 3.42273 22.8818 3.51364C22.7371 3.49989 22.5914 3.5256 22.4602 3.58802C22.3289 3.65045 22.217 3.74727 22.1364 3.86819C22.0545 3.98182 22.0364 4.03637 22.1 4.00001C22.1636 3.96364 22.15 4.00001 22.0682 4.09092C21.8545 4.30001 22.0545 4.73637 21.9545 4.67728Z" fill="black"/>
<path d="M24.0409 9.4591C24 9.4591 23.9864 9.39091 24.0136 9.30455C24.0682 9.11819 23.9136 9.10001 23.7773 9.28182C23.6409 9.46364 23.7227 9.15455 23.7773 9.1091C24.0182 8.87273 23.5273 8.76819 23.5227 8.95001C23.5227 9.00455 23.4727 8.98182 23.4091 8.9C23.3455 8.81819 23.3 8.7591 23.1318 8.9C22.9636 9.04091 22.9818 9.01364 23.0636 8.9C23.1455 8.78637 23.15 8.76819 23.0636 8.76819C22.9773 8.76819 22.8682 8.91364 22.8545 8.91364C22.7091 9.11364 22.6273 8.94546 22.6273 9.09546C22.6273 9.24546 22.4 9.33637 22.4 9.50001C22.3782 9.59367 22.3273 9.67802 22.2545 9.74091C22.0955 9.88182 21.8909 10.4 22.0273 10.3136C22.1636 10.2273 21.75 10.8 22.1409 11.0864C22.3273 11.2227 22.0545 11.2227 22.5273 11.4818C23.8182 12.1909 24.3727 9.4591 24.0409 9.4591Z" fill="black"/>
<path d="M29.0227 9.11364C28.8636 9.05 28.7909 9.49546 28.65 9.41364C28.6 9.38182 28.5864 9.39091 28.6136 9.44091C28.6409 9.49091 28.5182 9.92273 28.4364 9.89546C28.3545 9.86819 28.1864 10.2864 28.1955 10.5182C28.2182 11.0318 28.3045 11.3773 28.4045 11.3364C28.5045 11.2955 28.5364 11.4409 28.4409 11.4409C28.3455 11.4409 28.4409 11.6864 28.4909 11.6318C28.5409 11.5773 28.5773 11.6318 28.6273 11.7182C28.6773 11.8046 28.7364 11.8364 28.8591 11.7409C29.05 11.5864 28.8091 11.7727 29.0318 11.8909C29.2545 12.0091 29.2864 11.9909 29.2318 11.8909C29.1773 11.7909 29.2318 11.8409 29.3273 11.8591C29.4955 11.9045 29.8136 11.6318 30.0864 11.2364C29.8126 10.4511 29.4719 9.69072 29.0682 8.96364C29.0409 9.06364 29.1455 9.18182 29.0227 9.11364Z" fill="black"/>
<path d="M28.5682 17.3636C28.5682 17.6318 30.1045 17 29.9545 16.7682C29.8909 16.6682 30.1909 16.8409 30.2636 16.6591C30.2955 16.5727 30.2636 16.55 30.1364 16.5818C30.0091 16.6136 29.9818 16.6136 30.1 16.5273C30.3864 16.3136 31.2682 14.3682 29.3773 14.3682C29.0318 14.4318 28.95 14.5 29.1 14.6045C29.25 14.7091 29.1864 14.6773 29.1 14.6409C29.0136 14.6045 28.6455 14.8773 28.6955 15.0227C28.6955 15.0227 27.5636 16.4136 28.2864 17.1636C28.5455 17.4636 28.5682 17.2818 28.5682 17.3636Z" fill="black"/>
<path d="M21.4773 15.7182C21.2727 15.8636 21.1273 16.5773 21.6273 17.1773C22.1273 17.7773 22.1136 17.4227 22.1955 17.5591C22.2773 17.6955 22.3864 17.5 22.3864 17.6273C22.3864 17.7545 22.5364 17.5818 22.5364 17.7045C22.5364 17.8273 23.1409 17.7045 23.1409 17.5045C23.1409 17.4455 23.1773 17.4136 23.2182 17.4409C23.3318 17.5091 23.2545 17.2182 23.3682 17.2909C23.5682 17.4091 23.8818 15.8682 23.7455 15.7045C23.6091 15.5409 23.6636 15.5955 23.7682 15.6318C23.8727 15.6682 23.9318 15.6318 23.7409 15.3136C23.55 14.9955 23.4818 15 23.4182 15.1591C23.4182 15.2091 23.3818 15.1909 23.3773 15.1136C23.3773 14.7864 22.6091 15.0091 22.4682 15.0091C22.0909 15.0727 22.0136 15.1136 21.8955 15.3364C21.7091 15.6773 21.6273 15.6 21.6864 15.5C21.7455 15.4 21.7091 15.4318 21.65 15.4727C21.5 15.5455 21.6955 15.5455 21.4773 15.7182ZM23.5182 15.3136C23.5682 15.3136 23.4136 15.2318 23.3318 15.3591C23.2727 15.4636 23.4682 15.3136 23.5182 15.3136Z" fill="black"/>
<path d="M23.1727 23.0909C23.15 23.0545 23.1727 23.0273 23.2 23.0273C23.3415 22.8455 23.4311 22.6287 23.4591 22.4C23.4591 22.3682 23.4591 22.35 23.5136 22.35C23.5682 22.35 23.6682 22.0545 23.5864 22.0045C23.5045 21.9545 23.4909 21.7364 23.5864 21.8955C23.6818 22.0545 23.6864 21.75 23.5318 21.5773C23.3773 21.4045 23.4136 21.4364 23.5318 21.4909C23.65 21.5455 23.6682 21.5318 23.5818 21.4273C23.4182 21.2227 23.5136 20.8227 23.1273 20.5909C22.8091 20.4045 22.5409 20.7545 22.7227 20.5182C22.9045 20.2818 22.2136 20.3909 22.2136 20.4636C22.3682 20.4636 21.1909 20.8727 21.2045 22.1591C21.2545 24.2455 23.3273 23.3455 23.1727 23.0909ZM22.7182 20.6909C22.8318 20.6909 22.8364 20.7318 22.8182 20.7318C22.8 20.7318 22.5091 20.7045 22.7182 20.6909Z" fill="black"/>
<path d="M28.2727 22.5773C28.3364 22.7864 28.7273 23.0909 28.8364 23.0318C28.9455 22.9727 28.7818 23.1591 29.0455 23.2273H29.0727C29.5906 22.2859 30.0037 21.2905 30.3045 20.2591C29.3136 19.5727 27.8955 21.2318 28.2727 22.5773Z" fill="black"/>
<path d="M23.8545 26.5227C23.7727 26.5545 23.7409 26.5227 23.7727 26.4909C23.8045 26.4591 23.6091 26.1545 23.5136 26.2136C23.4182 26.2727 23.4455 26.2136 23.4455 26.2136C23.4455 26.2136 22.9182 26.1227 22.8727 26.2136C22.7285 26.1994 22.583 26.2244 22.4518 26.286C22.3206 26.3476 22.2085 26.4436 22.1273 26.5636C22.0455 26.6773 22.0273 26.7318 22.0909 26.6955C22.1545 26.6591 22.1409 26.6955 22.0591 26.7864C21.8545 27.0182 22.0591 27.4545 21.9545 27.3909C21.85 27.3273 21.8773 27.75 21.9545 27.8136C22.0318 27.8773 21.9955 27.8682 21.9318 27.8682C21.7727 27.8682 22.1409 28.6545 22.3864 28.7773C22.6318 28.9 23.0227 28.9 23.0591 28.7773C23.0785 28.7473 23.1056 28.723 23.1376 28.707C23.1696 28.691 23.2052 28.6839 23.2409 28.6864C23.4091 28.6864 23.7773 28.3318 23.7182 28.2318C23.6591 28.1318 23.9318 28.1136 23.8727 28.0136C23.8136 27.9136 23.8727 27.9318 23.9227 27.9136C24.0552 27.5306 24.0788 27.1184 23.9909 26.7227C23.95 26.7227 23.9318 26.6682 23.9545 26.6091C23.9773 26.55 23.9545 26.4864 23.8545 26.5227Z" fill="black"/>
<path d="M16.8682 2.97728C16.8091 3.03182 16.4636 3.06364 16.25 3.17273C15.6727 3.46364 15.5591 4.08182 15.4591 4.12728C15.3591 4.17273 15.5955 4.49546 15.4591 4.41364C15.3227 4.33182 15.2591 4.62273 15.3818 4.55001C15.4273 4.52273 15.4136 4.57273 15.3455 4.67273C15.0409 5.12728 15.7091 5.78637 16.35 5.68182C16.9909 5.57728 17.5273 4.83637 17.4545 4.77273C17.3818 4.7091 17.4818 4.64546 17.5682 4.55455C17.8136 4.29546 17.7091 4.03637 17.8273 3.85001C17.8636 3.79092 17.8545 3.76819 17.8045 3.80001C17.7545 3.83182 17.6318 3.53637 17.7182 3.59092C17.8045 3.64546 17.7864 3.59092 17.7864 3.55001C17.7864 3.5091 17.6136 3.50001 17.6636 3.4091C17.7636 3.25001 17.0273 2.89092 17.1545 3.10455C17.2091 3.20455 17.3864 3.02273 17.3 3.16364C17.2136 3.30455 17.0364 2.97728 16.8682 2.97728Z" fill="black"/>
<path d="M10.5455 6.00001C10.7136 6.16819 11.3091 4.48182 10.6136 3.76819C10.5024 3.65137 10.3639 3.56405 10.2106 3.51407C10.0572 3.46409 9.89383 3.45303 9.73514 3.48189C9.57645 3.51074 9.42743 3.5786 9.30148 3.67936C9.17554 3.78012 9.07662 3.91061 9.01364 4.0591C8.8927 4.44026 8.79703 4.82898 8.72728 5.22273C8.7 5.2591 8.72728 5.29546 8.77728 5.29546C8.82728 5.29546 8.85 5.29546 8.77728 5.36819C8.56364 5.50455 8.92273 5.44546 8.92273 5.6091C8.92273 5.65001 8.89546 5.66364 8.85 5.6091C8.65 5.49092 8.80455 5.72728 9.05 5.92728C9.42273 6.22273 10.1318 6.42728 10.1318 6.24091C10.1318 6.12728 10.3864 6.28182 10.3364 6.20001C10.2864 6.11819 10.4773 5.96364 10.5455 6.00001Z" fill="black"/>
<path d="M15.1636 10.4136C15.0409 10.3364 15.0455 10.5136 15.1636 10.5136C15.2818 10.5136 15.1636 10.7864 15.3864 10.8546C15.6091 10.9227 15.5773 11.1182 15.6955 11.1182C15.7409 11.1182 15.75 11.0773 15.7227 11.0273C15.6955 10.9773 15.6864 10.95 15.7773 11.0273C15.8682 11.1045 16.5273 11.2227 16.5273 11.1182C16.5273 11.0136 16.5545 11.0591 16.6 11.0864C16.6455 11.1136 16.7364 10.8773 16.8364 10.9409C16.9364 11.0045 17.0409 10.5955 17.1409 10.5955C17.2409 10.5955 17.0591 10.5955 17.4182 10.1818C17.558 9.99071 17.6392 9.76312 17.6521 9.5267C17.665 9.29029 17.609 9.0552 17.4909 8.85001C17.4 8.7591 17.3682 8.71364 17.4227 8.74546C17.4773 8.77728 17.5136 8.77728 17.4727 8.71364C17.3818 8.56364 17.2409 8.80001 17.1136 8.51819C16.9864 8.23637 16.7 8.46364 16.7727 8.35001C16.8455 8.23637 16.3773 8.35001 16.3591 8.35001C15.7727 8.58182 15.6182 8.53637 15.3182 9.17273C14.7955 10.2409 15.3818 10.5455 15.1636 10.4136Z" fill="black"/>
<path d="M2.26819 11.7227C2.46364 11.5682 2.21819 11.7545 2.44546 11.8727C2.67273 11.9909 2.70001 11.9727 2.64546 11.8727C2.59092 11.7727 2.64546 11.8227 2.74092 11.8409C3.14546 11.95 4.45001 10.2046 3.79092 9.26819C3.54546 8.91819 3.39546 8.86364 3.27273 8.8591C2.76262 9.75915 2.35115 10.7116 2.04546 11.7C2.12273 11.8136 2.15001 11.8182 2.26819 11.7227Z" fill="black"/>
<path d="M8.09091 10.9182C8.13637 10.8909 8.14546 10.9409 8.11364 11.0455C8.08182 11.15 8.08182 11.2091 8.19091 11.1682C8.3 11.1273 8.31364 11.1364 8.23182 11.2318C8 11.4955 9.04546 12.0636 9.4 11.8591C9.49546 11.8 9.51819 11.8 9.48182 11.8591C9.44546 11.9182 9.48182 11.9455 9.54546 11.9455C9.72273 11.9455 9.62273 11.7636 9.73637 11.8318C9.85 11.9 9.82273 11.7182 10.05 11.7182C10.2773 11.7182 10.2636 11.4818 10.3364 11.5273C10.4091 11.5727 10.7227 11.3409 10.7227 11.2227C10.7227 11.1046 10.7545 11.1136 10.8 11.1136C10.9227 11.1136 10.75 10.7455 10.8455 10.8364C11.0818 11.0546 11.0455 9.60455 10.8455 9.60455C10.8136 9.60455 10.7818 9.55 10.7818 9.49091C10.7818 9.43182 10.7 9.35455 10.6 9.33182C10.2818 9.25 10.4545 8.94546 10.1864 9.01819C10.0364 9.0591 9.31364 8.66819 8.79546 8.99091C7.93182 9.54546 7.98637 11 8.09091 10.9182Z" fill="black"/>
<path d="M1.67728 17.1773C1.95455 17.4636 1.98182 17.2818 1.98182 17.3773C1.98182 17.6455 3.51364 17.0136 3.36819 16.7818C3.30455 16.6818 3.60455 16.8545 3.67273 16.6727C3.7091 16.5864 3.67273 16.5636 3.55001 16.5955C3.42728 16.6273 3.39092 16.6273 3.5091 16.5409C3.79546 16.3273 4.67728 14.3818 2.78637 14.3818C2.44092 14.4455 2.3591 14.5136 2.5091 14.6182C2.6591 14.7227 2.60001 14.6909 2.5091 14.6545C2.41819 14.6182 2.05455 14.8909 2.10001 15.0364C2.09546 15.0545 0.959098 16.4273 1.67728 17.1773Z" fill="black"/>
<path d="M14.9182 17.2682C15.027 17.3585 15.1596 17.4153 15.3 17.4318C15.4091 17.4318 15.4909 17.4682 15.4727 17.5C15.4545 17.5318 15.9727 17.5409 16.25 17.4273C16.5273 17.3136 17.0818 16.8 17.05 16.6682C17.0472 16.6566 17.0471 16.6446 17.0497 16.633C17.0523 16.6214 17.0576 16.6106 17.065 16.6014C17.0725 16.5921 17.082 16.5847 17.0928 16.5798C17.1036 16.5748 17.1154 16.5724 17.1273 16.5727C17.2409 16.5727 17.4227 16.1455 17.3682 16.0045C17.3136 15.8636 17.5591 15.8727 17.4136 15.7C17.2682 15.5273 17.3773 15.2455 16.9591 14.8682C16.6682 14.6182 16.3864 14.8409 16.4682 14.7091C16.55 14.5773 16.0136 14.6045 15.8864 14.7091C15.7591 14.8136 15.7136 14.6591 15.6455 14.85C15.5773 15.0409 15.4591 14.8818 15.2364 15.2C15.0136 15.5182 14.2545 17.1182 14.5955 16.9864C14.6682 16.9591 14.6864 16.9864 14.6545 17.0682C14.5773 17.2409 14.6864 17.05 14.9182 17.2682Z" fill="black"/>
<path d="M8.18637 17.3318C8.22728 17.5136 8.76364 18.0273 8.85001 17.9727C8.93637 17.9182 8.9091 17.9727 8.88182 18.0364C8.74546 18.3864 9.70455 18.3091 9.56364 18.0727C9.53637 18.0273 9.59546 18.0455 9.69546 18.1091C9.96819 18.2909 10.15 18.0045 10.0955 18.0045C10.0409 18.0045 10.0955 17.95 10.1727 17.8864C10.25 17.8227 10.7318 15.8364 9.53637 14.9273C8.9591 14.4727 8.98637 14.7955 8.95455 14.7955C8.86819 15.0182 8.69546 14.6545 8.52273 14.8273C8.4591 14.8909 8.46819 14.9045 8.56819 14.8682C8.76364 14.7955 8.64546 15.0636 8.49091 15.0045C8.33637 14.9455 8.51364 15.2182 8.41364 15.2045C8.2091 15.1727 8.1591 15.2318 8.17728 15.4955C8.19546 15.7591 8.01819 16.4818 8.17728 16.7136C8.25 16.8045 8.24546 16.8136 8.17728 16.7636C8.1091 16.7136 8.07728 16.9091 8.18637 17.3318Z" fill="black"/>
<path d="M17.1182 20.1818C15.7545 19.7045 15.2455 22.9545 15.8818 22.4227C16.0273 22.2955 15.9091 22.6091 15.7773 22.5545C15.6455 22.5 15.7318 22.8273 16.2818 23.0091C17.6364 23.4864 18.65 20.7227 17.1182 20.1818Z" fill="black"/>
<path d="M3.91819 20.4273C3.36819 19.8273 2.61364 20.1136 2.12728 20.7364C2.39237 21.5405 2.72539 22.3205 3.12273 23.0682C3.30128 23.0009 3.46723 22.9041 3.61364 22.7818C3.84087 22.5146 4.01127 22.2039 4.11443 21.8686C4.21759 21.5333 4.25135 21.1806 4.21364 20.8318C4.14098 20.6799 4.04081 20.5427 3.91819 20.4273Z" fill="black"/>
<path d="M10.9455 21.6909C10.8909 21.6545 10.8955 21.6227 10.9455 21.6C10.9955 21.5773 10.1318 20.2818 9.36364 21.0545C8.59546 21.8273 8.72728 23.0591 8.88637 23.0591C8.97728 23.0591 8.98182 23.0591 8.9091 23.1227C8.83637 23.1864 8.84091 23.2091 8.94091 23.2909C9.2091 23.5091 9.57273 23.3636 9.35001 23.5091C9.05455 23.7 9.91819 23.6136 10.1591 23.5955C10.6909 23.5545 11.3409 21.9409 10.9455 21.6909Z" fill="black"/>
<path d="M17.8182 26.5227C17.8545 26.4636 17.8455 26.4455 17.7955 26.4773C17.7455 26.5091 17.6227 26.2091 17.7091 26.2636C17.7955 26.3182 17.7773 26.2636 17.7773 26.2273C17.7773 26.1091 17.6045 26.1773 17.6545 26.0864C17.7545 25.9227 17.0182 25.5682 17.1455 25.7818C17.2 25.8773 17.3773 25.6955 17.2909 25.8409C17.2045 25.9864 17.0227 25.6591 16.8364 25.6591C16.7773 25.7136 16.4318 25.75 16.2182 25.8545C15.6409 26.15 15.5273 26.7636 15.4273 26.8136C15.3273 26.8636 15.5636 27.1773 15.4273 27.1C15.2909 27.0227 15.2273 27.3091 15.35 27.2364C15.3955 27.2045 15.3818 27.2591 15.3136 27.3545C15.0091 27.8091 15.6773 28.4682 16.3182 28.3636C16.9591 28.2591 17.4955 27.5182 17.4227 27.4545C17.35 27.3909 17.45 27.3318 17.5364 27.2409C17.8182 26.9682 17.7136 26.7136 17.8182 26.5227Z" fill="black"/>
<path d="M10.5455 28.7273C10.7136 28.8909 11.3091 27.2091 10.6136 26.4955C10.5024 26.3786 10.3639 26.2913 10.2106 26.2413C10.0572 26.1914 9.89383 26.1803 9.73514 26.2092C9.57645 26.238 9.42743 26.3059 9.30148 26.4066C9.17554 26.5074 9.07662 26.6379 9.01364 26.7864C8.89501 27.1528 8.79937 27.5262 8.72728 27.9045C8.7 27.9455 8.72728 27.9773 8.77728 27.9773C8.82728 27.9773 8.85 27.9773 8.77728 28.05C8.56364 28.1909 8.92273 28.1273 8.92273 28.2909C8.92273 28.3364 8.89546 28.3455 8.85 28.3182C8.65 28.1955 8.80455 28.4364 9.05 28.6364C9.42273 28.9318 10.1318 29.1364 10.1318 28.9455C10.1318 28.8364 10.3864 28.9909 10.3364 28.9091C10.2864 28.8273 10.4773 28.65 10.5455 28.7273Z" fill="black"/>
<path d="M16 31C13.0333 31 10.1332 30.1203 7.66645 28.472C5.19972 26.8238 3.27713 24.4811 2.14181 21.7403C1.0065 18.9994 0.709449 15.9834 1.28823 13.0736C1.86701 10.1639 3.29562 7.49119 5.3934 5.3934C7.49119 3.29562 10.1639 1.86701 13.0736 1.28823C15.9834 0.709449 18.9994 1.0065 21.7403 2.14181C24.4811 3.27713 26.8238 5.19972 28.472 7.66645C30.1203 10.1332 31 13.0333 31 16C31 19.9783 29.4196 23.7936 26.6066 26.6066C23.7936 29.4196 19.9783 31 16 31ZM16 1.45455C13.1232 1.45455 10.311 2.30763 7.91898 3.9059C5.527 5.50418 3.66267 7.77587 2.56176 10.4337C1.46085 13.0915 1.1728 16.0161 1.73404 18.8377C2.29528 21.6592 3.6806 24.251 5.71482 26.2852C7.74903 28.3194 10.3408 29.7047 13.1623 30.266C15.9839 30.8272 18.9085 30.5392 21.5663 29.4382C24.2241 28.3373 26.4958 26.473 28.0941 24.081C29.6924 21.689 30.5455 18.8768 30.5455 16C30.5455 12.1423 29.013 8.44262 26.2852 5.71482C23.5574 2.98702 19.8577 1.45455 16 1.45455Z" fill="black"/>
<path d="M23.5182 15.3136C23.5682 15.3136 23.4136 15.2318 23.3318 15.3591M23.5182 15.3136C23.5182 15.3545 23.25 15.4864 23.3318 15.3591M23.5182 15.3136C23.4682 15.3136 23.2727 15.4636 23.3318 15.3591M22.8182 20.7318C22.8182 20.7318 22.8182 20.6864 22.7182 20.6909M22.8182 20.7318C22.7591 20.7864 22.5091 20.7045 22.7182 20.6909M22.8182 20.7318C22.8364 20.7318 22.8318 20.6909 22.7182 20.6909M22.8182 20.7318C22.8 20.7318 22.5091 20.7045 22.7182 20.6909M21.9545 4.67728C21.8636 4.61819 21.8773 5.03182 21.9545 5.10001C22.0318 5.16819 21.9955 5.15001 21.9318 5.15001C21.7727 5.15001 22.1409 5.93637 22.3864 6.0591C22.6318 6.18182 23.0227 6.18637 23.0591 6.0591C23.0785 6.02908 23.1056 6.00481 23.1376 5.98882C23.1696 5.97283 23.2052 5.96571 23.2409 5.96819C23.4091 5.96819 23.7773 5.61819 23.7182 5.51364C23.6591 5.4091 23.9318 5.39091 23.8727 5.29091C23.8136 5.19091 23.8727 5.21364 23.9227 5.19546C24.0551 4.81085 24.0787 4.39717 23.9909 4.00001C23.95 4.00001 23.9318 3.94546 23.9545 3.88637C23.9773 3.82728 23.9545 3.78637 23.8636 3.82273C23.7727 3.8591 23.75 3.82273 23.7818 3.78637C23.8136 3.75001 23.6182 3.45001 23.5227 3.51364C23.4273 3.57728 23.4545 3.51364 23.4545 3.51364C23.4545 3.51364 22.9273 3.42273 22.8818 3.51364C22.7371 3.49989 22.5914 3.5256 22.4602 3.58802C22.3289 3.65045 22.217 3.74727 22.1364 3.86819C22.0545 3.98182 22.0364 4.03637 22.1 4.00001C22.1636 3.96364 22.15 4.00001 22.0682 4.09092C21.8545 4.30001 22.0545 4.73637 21.9545 4.67728ZM24.0409 9.4591C24 9.4591 23.9864 9.39091 24.0136 9.30455C24.0682 9.11819 23.9136 9.1 23.7773 9.28182C23.6409 9.46364 23.7227 9.15455 23.7773 9.1091C24.0182 8.87273 23.5273 8.76819 23.5227 8.95C23.5227 9.00455 23.4727 8.98182 23.4091 8.9C23.3455 8.81819 23.3 8.7591 23.1318 8.9C22.9636 9.04091 22.9818 9.01364 23.0636 8.9C23.1455 8.78637 23.15 8.76819 23.0636 8.76819C22.9773 8.76819 22.8682 8.91364 22.8545 8.91364C22.7091 9.11364 22.6273 8.94546 22.6273 9.09546C22.6273 9.24546 22.4 9.33637 22.4 9.50001C22.3782 9.59367 22.3273 9.67802 22.2545 9.74091C22.0955 9.88182 21.8909 10.4 22.0273 10.3136C22.1636 10.2273 21.75 10.8 22.1409 11.0864C22.3273 11.2227 22.0545 11.2227 22.5273 11.4818C23.8182 12.1909 24.3727 9.4591 24.0409 9.4591ZM29.0227 9.11364C28.8636 9.05001 28.7909 9.49546 28.65 9.41364C28.6 9.38182 28.5864 9.39091 28.6136 9.44091C28.6409 9.49091 28.5182 9.92273 28.4364 9.89546C28.3545 9.86819 28.1864 10.2864 28.1955 10.5182C28.2182 11.0318 28.3045 11.3773 28.4045 11.3364C28.5045 11.2955 28.5364 11.4409 28.4409 11.4409C28.3455 11.4409 28.4409 11.6864 28.4909 11.6318C28.5409 11.5773 28.5773 11.6318 28.6273 11.7182C28.6773 11.8045 28.7364 11.8364 28.8591 11.7409C29.05 11.5864 28.8091 11.7727 29.0318 11.8909C29.2545 12.0091 29.2864 11.9909 29.2318 11.8909C29.1773 11.7909 29.2318 11.8409 29.3273 11.8591C29.4955 11.9045 29.8136 11.6318 30.0864 11.2364C29.8126 10.4511 29.4719 9.69072 29.0682 8.96364C29.0409 9.06364 29.1455 9.18182 29.0227 9.11364ZM28.5682 17.3636C28.5682 17.6318 30.1045 17 29.9545 16.7682C29.8909 16.6682 30.1909 16.8409 30.2636 16.6591C30.2955 16.5727 30.2636 16.55 30.1364 16.5818C30.0091 16.6136 29.9818 16.6136 30.1 16.5273C30.3864 16.3136 31.2682 14.3682 29.3773 14.3682C29.0318 14.4318 28.95 14.5 29.1 14.6045C29.25 14.7091 29.1864 14.6773 29.1 14.6409C29.0136 14.6045 28.6455 14.8773 28.6955 15.0227C28.6955 15.0227 27.5636 16.4136 28.2864 17.1636C28.5455 17.4636 28.5682 17.2818 28.5682 17.3636ZM21.4773 15.7182C21.2727 15.8636 21.1273 16.5773 21.6273 17.1773C22.1273 17.7773 22.1136 17.4227 22.1955 17.5591C22.2773 17.6955 22.3864 17.5 22.3864 17.6273C22.3864 17.7545 22.5364 17.5818 22.5364 17.7045C22.5364 17.8273 23.1409 17.7045 23.1409 17.5045C23.1409 17.4455 23.1773 17.4136 23.2182 17.4409C23.3318 17.5091 23.2545 17.2182 23.3682 17.2909C23.5682 17.4091 23.8818 15.8682 23.7455 15.7045C23.6091 15.5409 23.6636 15.5955 23.7682 15.6318C23.8727 15.6682 23.9318 15.6318 23.7409 15.3136C23.55 14.9955 23.4818 15 23.4182 15.1591C23.4182 15.2091 23.3818 15.1909 23.3773 15.1136C23.3773 14.7864 22.6091 15.0091 22.4682 15.0091C22.0909 15.0727 22.0136 15.1136 21.8955 15.3364C21.7091 15.6773 21.6273 15.6 21.6864 15.5C21.7455 15.4 21.7091 15.4318 21.65 15.4727C21.5 15.5455 21.6955 15.5455 21.4773 15.7182ZM23.1727 23.0909C23.15 23.0545 23.1727 23.0273 23.2 23.0273C23.3415 22.8455 23.4311 22.6287 23.4591 22.4C23.4591 22.3682 23.4591 22.35 23.5136 22.35C23.5682 22.35 23.6682 22.0545 23.5864 22.0045C23.5045 21.9545 23.4909 21.7364 23.5864 21.8955C23.6818 22.0545 23.6864 21.75 23.5318 21.5773C23.3773 21.4045 23.4136 21.4364 23.5318 21.4909C23.65 21.5455 23.6682 21.5318 23.5818 21.4273C23.4182 21.2227 23.5136 20.8227 23.1273 20.5909C22.8091 20.4045 22.5409 20.7545 22.7227 20.5182C22.9045 20.2818 22.2136 20.3909 22.2136 20.4636C22.3682 20.4636 21.1909 20.8727 21.2045 22.1591C21.2545 24.2455 23.3273 23.3455 23.1727 23.0909ZM28.2727 22.5773C28.3364 22.7864 28.7273 23.0909 28.8364 23.0318C28.9455 22.9727 28.7818 23.1591 29.0455 23.2273H29.0727C29.5906 22.2859 30.0037 21.2905 30.3045 20.2591C29.3136 19.5727 27.8955 21.2318 28.2727 22.5773ZM23.8545 26.5227C23.7727 26.5545 23.7409 26.5227 23.7727 26.4909C23.8045 26.4591 23.6091 26.1545 23.5136 26.2136C23.4182 26.2727 23.4455 26.2136 23.4455 26.2136C23.4455 26.2136 22.9182 26.1227 22.8727 26.2136C22.7285 26.1994 22.583 26.2244 22.4518 26.286C22.3206 26.3476 22.2085 26.4436 22.1273 26.5636C22.0455 26.6773 22.0273 26.7318 22.0909 26.6955C22.1545 26.6591 22.1409 26.6955 22.0591 26.7864C21.8545 27.0182 22.0591 27.4545 21.9545 27.3909C21.85 27.3273 21.8773 27.75 21.9545 27.8136C22.0318 27.8773 21.9955 27.8682 21.9318 27.8682C21.7727 27.8682 22.1409 28.6545 22.3864 28.7773C22.6318 28.9 23.0227 28.9 23.0591 28.7773C23.0785 28.7473 23.1056 28.723 23.1376 28.707C23.1696 28.691 23.2052 28.6839 23.2409 28.6864C23.4091 28.6864 23.7773 28.3318 23.7182 28.2318C23.6591 28.1318 23.9318 28.1136 23.8727 28.0136C23.8136 27.9136 23.8727 27.9318 23.9227 27.9136C24.0552 27.5306 24.0788 27.1184 23.9909 26.7227C23.95 26.7227 23.9318 26.6682 23.9545 26.6091C23.9773 26.55 23.9545 26.4864 23.8545 26.5227ZM16.8682 2.97728C16.8091 3.03182 16.4636 3.06364 16.25 3.17273C15.6727 3.46364 15.5591 4.08182 15.4591 4.12728C15.3591 4.17273 15.5955 4.49546 15.4591 4.41364C15.3227 4.33182 15.2591 4.62273 15.3818 4.55001C15.4273 4.52273 15.4136 4.57273 15.3455 4.67273C15.0409 5.12728 15.7091 5.78637 16.35 5.68182C16.9909 5.57728 17.5273 4.83637 17.4545 4.77273C17.3818 4.7091 17.4818 4.64546 17.5682 4.55455C17.8136 4.29546 17.7091 4.03637 17.8273 3.85001C17.8636 3.79092 17.8545 3.76819 17.8045 3.80001C17.7545 3.83182 17.6318 3.53637 17.7182 3.59092C17.8045 3.64546 17.7864 3.59092 17.7864 3.55001C17.7864 3.5091 17.6136 3.50001 17.6636 3.4091C17.7636 3.25001 17.0273 2.89092 17.1545 3.10455C17.2091 3.20455 17.3864 3.02273 17.3 3.16364C17.2136 3.30455 17.0364 2.97728 16.8682 2.97728ZM10.5455 6.00001C10.7136 6.16819 11.3091 4.48182 10.6136 3.76819C10.5024 3.65137 10.3639 3.56405 10.2106 3.51407C10.0572 3.46409 9.89383 3.45303 9.73514 3.48189C9.57645 3.51074 9.42743 3.5786 9.30148 3.67936C9.17553 3.78012 9.07662 3.91061 9.01364 4.0591C8.8927 4.44026 8.79703 4.82898 8.72728 5.22273C8.7 5.2591 8.72728 5.29546 8.77728 5.29546C8.82728 5.29546 8.85 5.29546 8.77728 5.36819C8.56364 5.50455 8.92273 5.44546 8.92273 5.6091C8.92273 5.65001 8.89546 5.66364 8.85 5.6091C8.65 5.49092 8.80455 5.72728 9.05 5.92728C9.42273 6.22273 10.1318 6.42728 10.1318 6.24091C10.1318 6.12728 10.3864 6.28182 10.3364 6.20001C10.2864 6.11819 10.4773 5.96364 10.5455 6.00001ZM15.1636 10.4136C15.0409 10.3364 15.0455 10.5136 15.1636 10.5136C15.2818 10.5136 15.1636 10.7864 15.3864 10.8546C15.6091 10.9227 15.5773 11.1182 15.6955 11.1182C15.7409 11.1182 15.75 11.0773 15.7227 11.0273C15.6955 10.9773 15.6864 10.95 15.7773 11.0273C15.8682 11.1045 16.5273 11.2227 16.5273 11.1182C16.5273 11.0136 16.5545 11.0591 16.6 11.0864C16.6455 11.1136 16.7364 10.8773 16.8364 10.9409C16.9364 11.0046 17.0409 10.5955 17.1409 10.5955C17.2409 10.5955 17.0591 10.5955 17.4182 10.1818C17.558 9.99071 17.6392 9.76312 17.6521 9.5267C17.665 9.29029 17.609 9.0552 17.4909 8.85001C17.4 8.7591 17.3682 8.71364 17.4227 8.74546C17.4773 8.77728 17.5136 8.77728 17.4727 8.71364C17.3818 8.56364 17.2409 8.80001 17.1136 8.51819C16.9864 8.23637 16.7 8.46364 16.7727 8.35001C16.8455 8.23637 16.3773 8.35001 16.3591 8.35001C15.7727 8.58182 15.6182 8.53637 15.3182 9.17273C14.7955 10.2409 15.3818 10.5455 15.1636 10.4136ZM2.26819 11.7227C2.46364 11.5682 2.21819 11.7545 2.44546 11.8727C2.67273 11.9909 2.70001 11.9727 2.64546 11.8727C2.59092 11.7727 2.64546 11.8227 2.74092 11.8409C3.14546 11.95 4.45001 10.2046 3.79092 9.26819C3.54546 8.91819 3.39546 8.86364 3.27273 8.8591C2.76262 9.75915 2.35115 10.7116 2.04546 11.7C2.12273 11.8136 2.15001 11.8182 2.26819 11.7227ZM8.09091 10.9182C8.13637 10.8909 8.14546 10.9409 8.11364 11.0455C8.08182 11.15 8.08182 11.2091 8.19091 11.1682C8.3 11.1273 8.31364 11.1364 8.23182 11.2318C8 11.4955 9.04546 12.0636 9.4 11.8591C9.49546 11.8 9.51819 11.8 9.48182 11.8591C9.44546 11.9182 9.48182 11.9455 9.54546 11.9455C9.72273 11.9455 9.62273 11.7636 9.73637 11.8318C9.85 11.9 9.82273 11.7182 10.05 11.7182C10.2773 11.7182 10.2636 11.4818 10.3364 11.5273C10.4091 11.5727 10.7227 11.3409 10.7227 11.2227C10.7227 11.1045 10.7545 11.1136 10.8 11.1136C10.9227 11.1136 10.75 10.7455 10.8455 10.8364C11.0818 11.0545 11.0455 9.60455 10.8455 9.60455C10.8136 9.60455 10.7818 9.55001 10.7818 9.49091C10.7818 9.43182 10.7 9.35455 10.6 9.33182C10.2818 9.25 10.4545 8.94546 10.1864 9.01819C10.0364 9.0591 9.31364 8.66819 8.79546 8.99091C7.93182 9.54546 7.98637 11 8.09091 10.9182ZM1.67728 17.1773C1.95455 17.4636 1.98182 17.2818 1.98182 17.3773C1.98182 17.6455 3.51364 17.0136 3.36819 16.7818C3.30455 16.6818 3.60455 16.8545 3.67273 16.6727C3.7091 16.5864 3.67273 16.5636 3.55001 16.5955C3.42728 16.6273 3.39092 16.6273 3.5091 16.5409C3.79546 16.3273 4.67728 14.3818 2.78637 14.3818C2.44092 14.4455 2.3591 14.5136 2.5091 14.6182C2.6591 14.7227 2.60001 14.6909 2.5091 14.6545C2.41819 14.6182 2.05455 14.8909 2.10001 15.0364C2.09546 15.0545 0.959098 16.4273 1.67728 17.1773ZM14.9182 17.2682C15.027 17.3585 15.1596 17.4153 15.3 17.4318C15.4091 17.4318 15.4909 17.4682 15.4727 17.5C15.4545 17.5318 15.9727 17.5409 16.25 17.4273C16.5273 17.3136 17.0818 16.8 17.05 16.6682C17.0472 16.6566 17.0471 16.6446 17.0497 16.633C17.0523 16.6214 17.0576 16.6106 17.065 16.6014C17.0725 16.5921 17.082 16.5847 17.0928 16.5798C17.1036 16.5748 17.1154 16.5724 17.1273 16.5727C17.2409 16.5727 17.4227 16.1455 17.3682 16.0045C17.3136 15.8636 17.5591 15.8727 17.4136 15.7C17.2682 15.5273 17.3773 15.2455 16.9591 14.8682C16.6682 14.6182 16.3864 14.8409 16.4682 14.7091C16.55 14.5773 16.0136 14.6045 15.8864 14.7091C15.7591 14.8136 15.7136 14.6591 15.6455 14.85C15.5773 15.0409 15.4591 14.8818 15.2364 15.2C15.0136 15.5182 14.2545 17.1182 14.5955 16.9864C14.6682 16.9591 14.6864 16.9864 14.6545 17.0682C14.5773 17.2409 14.6864 17.05 14.9182 17.2682ZM8.18637 17.3318C8.22728 17.5136 8.76364 18.0273 8.85001 17.9727C8.93637 17.9182 8.9091 17.9727 8.88182 18.0364C8.74546 18.3864 9.70455 18.3091 9.56364 18.0727C9.53637 18.0273 9.59546 18.0455 9.69546 18.1091C9.96819 18.2909 10.15 18.0045 10.0955 18.0045C10.0409 18.0045 10.0955 17.95 10.1727 17.8864C10.25 17.8227 10.7318 15.8364 9.53637 14.9273C8.9591 14.4727 8.98637 14.7955 8.95455 14.7955C8.86819 15.0182 8.69546 14.6545 8.52273 14.8273C8.4591 14.8909 8.46819 14.9045 8.56819 14.8682C8.76364 14.7955 8.64546 15.0636 8.49091 15.0045C8.33637 14.9455 8.51364 15.2182 8.41364 15.2045C8.2091 15.1727 8.1591 15.2318 8.17728 15.4955C8.19546 15.7591 8.01819 16.4818 8.17728 16.7136C8.25 16.8045 8.24546 16.8136 8.17728 16.7636C8.1091 16.7136 8.07728 16.9091 8.18637 17.3318ZM17.1182 20.1818C15.7545 19.7045 15.2455 22.9545 15.8818 22.4227C16.0273 22.2955 15.9091 22.6091 15.7773 22.5545C15.6455 22.5 15.7318 22.8273 16.2818 23.0091C17.6364 23.4864 18.65 20.7227 17.1182 20.1818ZM3.91819 20.4273C3.36819 19.8273 2.61364 20.1136 2.12728 20.7364C2.39237 21.5405 2.72539 22.3205 3.12273 23.0682C3.30128 23.0009 3.46723 22.9041 3.61364 22.7818C3.84087 22.5146 4.01127 22.2039 4.11443 21.8686C4.21759 21.5333 4.25135 21.1806 4.21364 20.8318C4.14098 20.6799 4.04081 20.5427 3.91819 20.4273ZM10.9455 21.6909C10.8909 21.6545 10.8955 21.6227 10.9455 21.6C10.9955 21.5773 10.1318 20.2818 9.36364 21.0545C8.59546 21.8273 8.72728 23.0591 8.88637 23.0591C8.97728 23.0591 8.98182 23.0591 8.9091 23.1227C8.83637 23.1864 8.84091 23.2091 8.94091 23.2909C9.2091 23.5091 9.57273 23.3636 9.35001 23.5091C9.05455 23.7 9.91819 23.6136 10.1591 23.5955C10.6909 23.5545 11.3409 21.9409 10.9455 21.6909ZM17.8182 26.5227C17.8545 26.4636 17.8455 26.4455 17.7955 26.4773C17.7455 26.5091 17.6227 26.2091 17.7091 26.2636C17.7955 26.3182 17.7773 26.2636 17.7773 26.2273C17.7773 26.1091 17.6045 26.1773 17.6545 26.0864C17.7545 25.9227 17.0182 25.5682 17.1455 25.7818C17.2 25.8773 17.3773 25.6955 17.2909 25.8409C17.2045 25.9864 17.0227 25.6591 16.8364 25.6591C16.7773 25.7136 16.4318 25.75 16.2182 25.8545C15.6409 26.15 15.5273 26.7636 15.4273 26.8136C15.3273 26.8636 15.5636 27.1773 15.4273 27.1C15.2909 27.0227 15.2273 27.3091 15.35 27.2364C15.3955 27.2045 15.3818 27.2591 15.3136 27.3545C15.0091 27.8091 15.6773 28.4682 16.3182 28.3636C16.9591 28.2591 17.4955 27.5182 17.4227 27.4545C17.35 27.3909 17.45 27.3318 17.5364 27.2409C17.8182 26.9682 17.7136 26.7136 17.8182 26.5227ZM10.5455 28.7273C10.7136 28.8909 11.3091 27.2091 10.6136 26.4955C10.5024 26.3786 10.3639 26.2913 10.2106 26.2413C10.0572 26.1914 9.89383 26.1803 9.73514 26.2092C9.57645 26.238 9.42743 26.3059 9.30148 26.4066C9.17553 26.5074 9.07662 26.6379 9.01364 26.7864C8.89501 27.1528 8.79937 27.5262 8.72728 27.9045C8.7 27.9455 8.72728 27.9773 8.77728 27.9773C8.82728 27.9773 8.85 27.9773 8.77728 28.05C8.56364 28.1909 8.92273 28.1273 8.92273 28.2909C8.92273 28.3364 8.89546 28.3455 8.85 28.3182C8.65 28.1955 8.80455 28.4364 9.05 28.6364C9.42273 28.9318 10.1318 29.1364 10.1318 28.9455C10.1318 28.8364 10.3864 28.9909 10.3364 28.9091C10.2864 28.8273 10.4773 28.65 10.5455 28.7273ZM16 31C13.0333 31 10.1332 30.1203 7.66645 28.472C5.19972 26.8238 3.27713 24.4811 2.14181 21.7403C1.0065 18.9994 0.709449 15.9834 1.28823 13.0736C1.86701 10.1639 3.29562 7.49119 5.3934 5.3934C7.49119 3.29562 10.1639 1.86701 13.0736 1.28823C15.9834 0.709449 18.9994 1.0065 21.7403 2.14181C24.4811 3.27713 26.8238 5.19972 28.472 7.66645C30.1203 10.1332 31 13.0333 31 16C31 19.9782 29.4196 23.7936 26.6066 26.6066C23.7936 29.4196 19.9782 31 16 31ZM16 1.45455C13.1232 1.45455 10.311 2.30763 7.91898 3.9059C5.527 5.50418 3.66267 7.77587 2.56176 10.4337C1.46085 13.0915 1.1728 16.0161 1.73404 18.8377C2.29528 21.6592 3.6806 24.251 5.71482 26.2852C7.74903 28.3194 10.3408 29.7047 13.1623 30.266C15.9839 30.8272 18.9085 30.5392 21.5663 29.4382C24.2241 28.3373 26.4958 26.473 28.0941 24.081C29.6924 21.689 30.5455 18.8768 30.5455 16C30.5455 12.1423 29.013 8.44262 26.2852 5.71482C23.5574 2.98702 19.8577 1.45455 16 1.45455Z" stroke="black" stroke-width="0.4"/>
</svg>
