<svg width="32" height="32" viewBox="0 0 32 32" fill="none" xmlns="http://www.w3.org/2000/svg">
<path d="M16.8381 1.87075C16.8381 1.7564 16.8151 1.64317 16.7706 1.53753C16.726 1.43188 16.6607 1.33589 16.5784 1.25504C16.4961 1.17418 16.3984 1.11004 16.2908 1.06628C16.1832 1.02252 16.0679 1 15.9515 1C15.8351 1 15.7198 1.02252 15.6122 1.06628C15.5047 1.11004 15.4069 1.17418 15.3246 1.25504C15.2423 1.33589 15.177 1.43188 15.1324 1.53753C15.0879 1.64317 15.065 1.7564 15.065 1.87075C15.065 1.9851 15.0879 2.09833 15.1324 2.20397C15.177 2.30961 15.2423 2.4056 15.3246 2.48646C15.4069 2.56732 15.5047 2.63146 15.6122 2.67521C15.7198 2.71897 15.8351 2.7415 15.9515 2.7415C16.0679 2.7415 16.1832 2.71897 16.2908 2.67521C16.3984 2.63146 16.4961 2.56732 16.5784 2.48646C16.6607 2.4056 16.726 2.30961 16.7706 2.20397C16.8151 2.09833 16.8381 1.9851 16.8381 1.87075Z" fill="black"/>
<path d="M10.0688 3.66667C10.0688 3.43573 9.9754 3.21425 9.80913 3.05095C9.64287 2.88766 9.41737 2.79592 9.18224 2.79592C8.94711 2.79592 8.72161 2.88766 8.55534 3.05095C8.38908 3.21425 8.29568 3.43573 8.29568 3.66667C8.29568 3.8976 8.38908 4.11908 8.55534 4.28238C8.72161 4.44568 8.94711 4.53742 9.18224 4.53742C9.41737 4.53742 9.64287 4.44568 9.80913 4.28238C9.9754 4.11908 10.0688 3.8976 10.0688 3.66667Z" fill="black"/>
<path d="M4.21379 9.22676C4.70343 9.22676 5.10035 8.83691 5.10035 8.35601C5.10035 7.87511 4.70343 7.48526 4.21379 7.48526C3.72416 7.48526 3.32723 7.87511 3.32723 8.35601C3.32723 8.83691 3.72416 9.22676 4.21379 9.22676Z" fill="black"/>
<path d="M2.77313 14.8912C2.77313 14.6602 2.67972 14.4387 2.51346 14.2754C2.3472 14.1121 2.12169 14.0204 1.88656 14.0204C1.77014 14.0204 1.65485 14.0429 1.54729 14.0867C1.43973 14.1304 1.34199 14.1946 1.25967 14.2754C1.17734 14.3563 1.11204 14.4523 1.06749 14.5579C1.02293 14.6636 1 14.7768 1 14.8912C1 15.0055 1.02293 15.1187 1.06749 15.2244C1.11204 15.33 1.17734 15.426 1.25967 15.5069C1.34199 15.5877 1.43973 15.6519 1.54729 15.6956C1.65485 15.7394 1.77014 15.7619 1.88656 15.7619C2.12169 15.7619 2.3472 15.6702 2.51346 15.5069C2.67972 15.3436 2.77313 15.1221 2.77313 14.8912Z" fill="black"/>
<path d="M2.94397 22.7052C3.43361 22.7052 3.83054 22.3154 3.83054 21.8345C3.83054 21.3536 3.43361 20.9637 2.94397 20.9637C2.45434 20.9637 2.05741 21.3536 2.05741 21.8345C2.05741 22.3154 2.45434 22.7052 2.94397 22.7052Z" fill="black"/>
<path d="M7.07203 26.3605C6.8369 26.3605 6.6114 26.4523 6.44514 26.6156C6.27888 26.7789 6.18547 27.0004 6.18547 27.2313C6.18547 27.4622 6.27888 27.6837 6.44514 27.847C6.6114 28.0103 6.8369 28.102 7.07203 28.102C7.30716 28.102 7.53267 28.0103 7.69893 27.847C7.86519 27.6837 7.9586 27.4622 7.9586 27.2313C7.9586 27.0004 7.86519 26.7789 7.69893 26.6156C7.53267 26.4523 7.30716 26.3605 7.07203 26.3605Z" fill="black"/>
<path d="M13.3565 29.254C13.1213 29.254 12.8958 29.3457 12.7296 29.509C12.5633 29.6723 12.4699 29.8938 12.4699 30.1247C12.4693 30.2394 12.4918 30.3532 12.5361 30.4593C12.5803 30.5655 12.6456 30.662 12.7279 30.7434C12.8103 30.8247 12.9083 30.8892 13.0161 30.9333C13.124 30.9773 13.2397 31 13.3565 31C13.4733 31 13.589 30.9773 13.6968 30.9333C13.8047 30.8892 13.9026 30.8247 13.985 30.7434C14.0674 30.662 14.1326 30.5655 14.1769 30.4593C14.2212 30.3532 14.2436 30.2394 14.243 30.1247C14.243 30.0104 14.2201 29.8971 14.1755 29.7915C14.131 29.6859 14.0657 29.5899 13.9834 29.509C13.901 29.4281 13.8033 29.364 13.6957 29.3202C13.5882 29.2765 13.4729 29.254 13.3565 29.254Z" fill="black"/>
<path d="M20.5321 30.5646C21.0217 30.5646 21.4187 30.1748 21.4187 29.6939C21.4187 29.213 21.0217 28.8231 20.5321 28.8231C20.0425 28.8231 19.6455 29.213 19.6455 29.6939C19.6455 30.1748 20.0425 30.5646 20.5321 30.5646Z" fill="black"/>
<path d="M27.1905 26.431C27.3778 25.9867 27.163 25.4773 26.7107 25.2933C26.2583 25.1092 25.7397 25.3202 25.5523 25.7645C25.3649 26.2088 25.5797 26.7182 26.0321 26.9022C26.4845 27.0862 27.0031 26.8753 27.1905 26.431Z" fill="black"/>
<path d="M29.8272 19.3583C29.592 19.3583 29.3665 19.45 29.2003 19.6133C29.034 19.7766 28.9406 19.9981 28.9406 20.229C28.9406 20.46 29.034 20.6814 29.2003 20.8447C29.3665 21.008 29.592 21.0998 29.8272 21.0998C30.0623 21.0998 30.2878 21.008 30.454 20.8447C30.6203 20.6814 30.7137 20.46 30.7137 20.229C30.7137 19.9981 30.6203 19.7766 30.454 19.6133C30.2878 19.45 30.0623 19.3583 29.8272 19.3583Z" fill="black"/>
<path d="M30.1134 12.0884C29.8783 12.0884 29.6528 12.1802 29.4865 12.3435C29.3203 12.5068 29.2269 12.7282 29.2269 12.9592C29.2269 13.1901 29.3203 13.4116 29.4865 13.5749C29.6528 13.7382 29.8783 13.8299 30.1134 13.8299C30.3486 13.8299 30.5741 13.7382 30.7403 13.5749C30.9066 13.4116 31 13.1901 31 12.9592C31 12.7282 30.9066 12.5068 30.7403 12.3435C30.5741 12.1802 30.3486 12.0884 30.1134 12.0884Z" fill="black"/>
<path d="M27.7045 7.56617C28.181 7.4557 28.4762 6.98672 28.3637 6.51868C28.2512 6.05064 27.7737 5.76077 27.2972 5.87124C26.8206 5.98171 26.5255 6.45068 26.638 6.91872C26.7505 7.38676 27.2279 7.67663 27.7045 7.56617Z" fill="black"/>
<path d="M22.7023 3.06803C22.7023 2.83709 22.6089 2.61561 22.4427 2.45232C22.2764 2.28902 22.0509 2.19728 21.8158 2.19728C21.5806 2.19728 21.3551 2.28902 21.1889 2.45232C21.0226 2.61561 20.9292 2.83709 20.9292 3.06803C20.9292 3.29896 21.0226 3.52044 21.1889 3.68374C21.3551 3.84704 21.5806 3.93878 21.8158 3.93878C22.0509 3.93878 22.2764 3.84704 22.4427 3.68374C22.6089 3.52044 22.7023 3.29896 22.7023 3.06803Z" fill="black"/>
<path d="M15.9931 6.81859C16.2177 6.80268 16.428 6.70379 16.5814 6.54182C16.7348 6.37985 16.8201 6.16682 16.8201 5.94558C16.8201 5.72434 16.7348 5.51131 16.5814 5.34934C16.428 5.18737 16.2177 5.08848 15.9931 5.07256C15.7684 5.08848 15.5582 5.18737 15.4047 5.34934C15.2513 5.51131 15.166 5.72434 15.166 5.94558C15.166 6.16682 15.2513 6.37985 15.4047 6.54182C15.5582 6.70379 15.7684 6.80268 15.9931 6.81859Z" fill="black"/>
<path d="M11.7819 7.42177C11.7657 7.2011 11.665 6.99465 11.5001 6.84394C11.3352 6.69323 11.1183 6.60945 10.893 6.60945C10.6678 6.60945 10.4509 6.69323 10.286 6.84394C10.121 6.99465 10.0204 7.2011 10.0042 7.42177C9.99535 7.54171 10.0118 7.66214 10.0525 7.77556C10.0932 7.88897 10.1572 7.99294 10.2406 8.08097C10.324 8.16901 10.425 8.23922 10.5372 8.28723C10.6495 8.33524 10.7706 8.36002 10.893 8.36002C11.0155 8.36002 11.1366 8.33524 11.2488 8.28723C11.3611 8.23922 11.4621 8.16901 11.5455 8.08097C11.6289 7.99294 11.6929 7.88897 11.7336 7.77556C11.7743 7.66214 11.7907 7.54171 11.7819 7.42177Z" fill="black"/>
<path d="M6.46252 11.2268C6.47872 11.4474 6.57941 11.6539 6.74432 11.8046C6.90923 11.9553 7.12613 12.0391 7.35139 12.0391C7.57665 12.0391 7.79355 11.9553 7.95846 11.8046C8.12338 11.6539 8.22406 11.4474 8.24026 11.2268C8.22406 11.0061 8.12338 10.7996 7.95846 10.6489C7.79355 10.4982 7.57665 10.4144 7.35139 10.4144C7.12613 10.4144 6.90923 10.4982 6.74432 10.6489C6.57941 10.7996 6.47872 11.0061 6.46252 11.2268Z" fill="black"/>
<path d="M6.13006 17.2812C6.6197 17.2812 7.01662 16.8913 7.01662 16.4104C7.01662 15.9295 6.6197 15.5397 6.13006 15.5397C5.64042 15.5397 5.2435 15.9295 5.2435 16.4104C5.2435 16.8913 5.64042 17.2812 6.13006 17.2812Z" fill="black"/>
<path d="M7.74619 20.542C7.51186 20.5419 7.28705 20.6331 7.12092 20.7954C6.95479 20.9577 6.86085 21.178 6.85963 21.4082C6.85902 21.5229 6.8815 21.6366 6.92578 21.7428C6.97006 21.8489 7.03527 21.9455 7.11766 22.0268C7.20004 22.1081 7.29798 22.1727 7.40585 22.2167C7.51371 22.2608 7.62938 22.2834 7.74619 22.2834C7.86301 22.2834 7.97867 22.2608 8.08653 22.2167C8.1944 22.1727 8.29234 22.1081 8.37472 22.0268C8.45711 21.9455 8.52232 21.8489 8.5666 21.7428C8.61088 21.6366 8.63336 21.5229 8.63275 21.4082C8.63153 21.178 8.53759 20.9577 8.37146 20.7954C8.20533 20.6331 7.98052 20.5419 7.74619 20.542Z" fill="black"/>
<path d="M11.7849 25.6818C12.2682 25.6047 12.5964 25.1575 12.518 24.6828C12.4395 24.2081 11.9841 23.8857 11.5008 23.9628C11.0175 24.0398 10.6893 24.4871 10.7677 24.9618C10.8462 25.4365 11.3016 25.7588 11.7849 25.6818Z" fill="black"/>
<path d="M16.9628 26.6871C17.4524 26.6871 17.8493 26.2972 17.8493 25.8163C17.8493 25.3354 17.4524 24.9456 16.9628 24.9456C16.4731 24.9456 16.0762 25.3354 16.0762 25.8163C16.0762 26.2972 16.4731 26.6871 16.9628 26.6871Z" fill="black"/>
<path d="M21.9451 24.8594C22.4347 24.8594 22.8316 24.4696 22.8316 23.9887C22.8316 23.5078 22.4347 23.1179 21.9451 23.1179C21.4554 23.1179 21.0585 23.5078 21.0585 23.9887C21.0585 24.4696 21.4554 24.8594 21.9451 24.8594Z" fill="black"/>
<path d="M26.1147 20.0023C26.1147 19.7713 26.0213 19.5499 25.855 19.3866C25.6887 19.2233 25.4632 19.1315 25.2281 19.1315C24.993 19.1315 24.7675 19.2233 24.6012 19.3866C24.4349 19.5499 24.3415 19.7713 24.3415 20.0023C24.3415 20.2332 24.4349 20.4547 24.6012 20.618C24.7675 20.7813 24.993 20.873 25.2281 20.873C25.4632 20.873 25.6887 20.7813 25.855 20.618C26.0213 20.4547 26.1147 20.2332 26.1147 20.0023Z" fill="black"/>
<path d="M26.0038 15.4898C26.4935 15.4898 26.8904 15.0999 26.8904 14.619C26.8904 14.1381 26.4935 13.7483 26.0038 13.7483C25.5142 13.7483 25.1173 14.1381 25.1173 14.619C25.1173 15.0999 25.5142 15.4898 26.0038 15.4898Z" fill="black"/>
<path d="M24.3092 10.5329C24.7989 10.5329 25.1958 10.143 25.1958 9.66213C25.1958 9.18123 24.7989 8.79138 24.3092 8.79138C23.8196 8.79138 23.4227 9.18123 23.4227 9.66213C23.4227 10.143 23.8196 10.5329 24.3092 10.5329Z" fill="black"/>
<path d="M20.1384 7.64921C20.6273 7.62262 21.0017 7.21181 20.9746 6.73165C20.9475 6.25148 20.5292 5.88379 20.0404 5.91038C19.5515 5.93698 19.1771 6.34778 19.2042 6.82795C19.2313 7.30812 19.6495 7.67581 20.1384 7.64921Z" fill="black"/>
<path d="M16.0023 21.9478C14.8041 21.9478 13.6328 21.5989 12.6366 20.9451C11.6403 20.2913 10.8638 19.362 10.4053 18.2747C9.94675 17.1875 9.82678 15.9911 10.0605 14.8369C10.2943 13.6827 10.8713 12.6225 11.7185 11.7904C12.5658 10.9582 13.6452 10.3915 14.8204 10.1619C15.9956 9.93236 17.2137 10.0502 18.3207 10.5005C19.4277 10.9509 20.3738 11.7135 21.0395 12.692C21.7052 13.6705 22.0605 14.8209 22.0605 15.9977C22.0593 17.5754 21.4206 19.0882 20.2847 20.2038C19.1489 21.3194 17.6087 21.9466 16.0023 21.9478ZM16.0023 10.5102C14.896 10.5093 13.8142 10.8308 12.8939 11.4339C11.9737 12.037 11.2562 12.8947 10.8324 13.8984C10.4086 14.9022 10.2975 16.0068 10.5131 17.0726C10.7287 18.1384 11.2614 19.1174 12.0437 19.8857C12.826 20.6541 13.8228 21.1773 14.9079 21.389C15.9931 21.6008 17.1178 21.4916 18.1397 21.0754C19.1617 20.6592 20.035 19.9545 20.649 19.0507C21.2631 18.1468 21.5904 17.0843 21.5895 15.9977C21.5834 14.5454 20.9924 13.1546 19.9455 12.1289C18.8986 11.1032 17.481 10.5262 16.0023 10.5238V10.5102Z" fill="black"/>
<path d="M16.0023 19.2902C17.8537 19.2902 19.3546 17.8161 19.3546 15.9977C19.3546 14.1793 17.8537 12.7052 16.0023 12.7052C14.1509 12.7052 12.65 14.1793 12.65 15.9977C12.65 17.8161 14.1509 19.2902 16.0023 19.2902Z" fill="black"/>
<path d="M16.8381 1.87075C16.8381 1.7564 16.8151 1.64317 16.7706 1.53753C16.726 1.43188 16.6607 1.33589 16.5784 1.25504C16.4961 1.17418 16.3984 1.11004 16.2908 1.06628C16.1832 1.02252 16.0679 1 15.9515 1C15.8351 1 15.7198 1.02252 15.6122 1.06628C15.5047 1.11004 15.4069 1.17418 15.3246 1.25504C15.2423 1.33589 15.177 1.43188 15.1324 1.53753C15.0879 1.64317 15.065 1.7564 15.065 1.87075C15.065 1.9851 15.0879 2.09833 15.1324 2.20397C15.177 2.30961 15.2423 2.4056 15.3246 2.48646C15.4069 2.56732 15.5047 2.63146 15.6122 2.67521C15.7198 2.71897 15.8351 2.7415 15.9515 2.7415C16.0679 2.7415 16.1832 2.71897 16.2908 2.67521C16.3984 2.63146 16.4961 2.56732 16.5784 2.48646C16.6607 2.4056 16.726 2.30961 16.7706 2.20397C16.8151 2.09833 16.8381 1.9851 16.8381 1.87075Z" stroke="black" stroke-width="0.4"/>
<path d="M10.0688 3.66667C10.0688 3.43573 9.9754 3.21425 9.80913 3.05095C9.64287 2.88766 9.41737 2.79592 9.18224 2.79592C8.94711 2.79592 8.72161 2.88766 8.55534 3.05095C8.38908 3.21425 8.29568 3.43573 8.29568 3.66667C8.29568 3.8976 8.38908 4.11908 8.55534 4.28238C8.72161 4.44568 8.94711 4.53742 9.18224 4.53742C9.41737 4.53742 9.64287 4.44568 9.80913 4.28238C9.9754 4.11908 10.0688 3.8976 10.0688 3.66667Z" stroke="black" stroke-width="0.4"/>
<path d="M4.21379 9.22676C4.70343 9.22676 5.10035 8.83691 5.10035 8.35601C5.10035 7.87511 4.70343 7.48526 4.21379 7.48526C3.72416 7.48526 3.32723 7.87511 3.32723 8.35601C3.32723 8.83691 3.72416 9.22676 4.21379 9.22676Z" stroke="black" stroke-width="0.4"/>
<path d="M2.77313 14.8912C2.77313 14.6602 2.67972 14.4387 2.51346 14.2754C2.3472 14.1121 2.12169 14.0204 1.88656 14.0204C1.77014 14.0204 1.65485 14.0429 1.54729 14.0867C1.43973 14.1304 1.34199 14.1946 1.25967 14.2754C1.17734 14.3563 1.11204 14.4523 1.06749 14.5579C1.02293 14.6636 1 14.7768 1 14.8912C1 15.0055 1.02293 15.1187 1.06749 15.2244C1.11204 15.33 1.17734 15.426 1.25967 15.5069C1.34199 15.5877 1.43973 15.6519 1.54729 15.6956C1.65485 15.7394 1.77014 15.7619 1.88656 15.7619C2.12169 15.7619 2.3472 15.6702 2.51346 15.5069C2.67972 15.3436 2.77313 15.1221 2.77313 14.8912Z" stroke="black" stroke-width="0.4"/>
<path d="M2.94397 22.7052C3.43361 22.7052 3.83054 22.3154 3.83054 21.8345C3.83054 21.3536 3.43361 20.9637 2.94397 20.9637C2.45434 20.9637 2.05741 21.3536 2.05741 21.8345C2.05741 22.3154 2.45434 22.7052 2.94397 22.7052Z" stroke="black" stroke-width="0.4"/>
<path d="M7.07203 26.3605C6.8369 26.3605 6.6114 26.4523 6.44514 26.6156C6.27888 26.7789 6.18547 27.0004 6.18547 27.2313C6.18547 27.4622 6.27888 27.6837 6.44514 27.847C6.6114 28.0103 6.8369 28.102 7.07203 28.102C7.30716 28.102 7.53267 28.0103 7.69893 27.847C7.86519 27.6837 7.9586 27.4622 7.9586 27.2313C7.9586 27.0004 7.86519 26.7789 7.69893 26.6156C7.53267 26.4523 7.30716 26.3605 7.07203 26.3605Z" stroke="black" stroke-width="0.4"/>
<path d="M13.3565 29.254C13.1213 29.254 12.8958 29.3457 12.7296 29.509C12.5633 29.6723 12.4699 29.8938 12.4699 30.1247C12.4693 30.2394 12.4918 30.3532 12.5361 30.4593C12.5803 30.5655 12.6456 30.662 12.7279 30.7434C12.8103 30.8247 12.9083 30.8892 13.0161 30.9333C13.124 30.9773 13.2397 31 13.3565 31C13.4733 31 13.589 30.9773 13.6968 30.9333C13.8047 30.8892 13.9026 30.8247 13.985 30.7434C14.0674 30.662 14.1326 30.5655 14.1769 30.4593C14.2212 30.3532 14.2436 30.2394 14.243 30.1247C14.243 30.0104 14.2201 29.8971 14.1755 29.7915C14.131 29.6859 14.0657 29.5899 13.9834 29.509C13.901 29.4281 13.8033 29.364 13.6957 29.3202C13.5882 29.2765 13.4729 29.254 13.3565 29.254Z" stroke="black" stroke-width="0.4"/>
<path d="M20.5321 30.5646C21.0217 30.5646 21.4187 30.1748 21.4187 29.6939C21.4187 29.213 21.0217 28.8231 20.5321 28.8231C20.0425 28.8231 19.6455 29.213 19.6455 29.6939C19.6455 30.1748 20.0425 30.5646 20.5321 30.5646Z" stroke="black" stroke-width="0.4"/>
<path d="M27.1905 26.431C27.3778 25.9867 27.163 25.4773 26.7107 25.2933C26.2583 25.1092 25.7397 25.3202 25.5523 25.7645C25.3649 26.2088 25.5797 26.7182 26.0321 26.9022C26.4845 27.0862 27.0031 26.8753 27.1905 26.431Z" stroke="black" stroke-width="0.4"/>
<path d="M29.8272 19.3583C29.592 19.3583 29.3665 19.45 29.2003 19.6133C29.034 19.7766 28.9406 19.9981 28.9406 20.229C28.9406 20.46 29.034 20.6814 29.2003 20.8447C29.3665 21.008 29.592 21.0998 29.8272 21.0998C30.0623 21.0998 30.2878 21.008 30.454 20.8447C30.6203 20.6814 30.7137 20.46 30.7137 20.229C30.7137 19.9981 30.6203 19.7766 30.454 19.6133C30.2878 19.45 30.0623 19.3583 29.8272 19.3583Z" stroke="black" stroke-width="0.4"/>
<path d="M30.1134 12.0884C29.8783 12.0884 29.6528 12.1802 29.4865 12.3435C29.3203 12.5068 29.2269 12.7282 29.2269 12.9592C29.2269 13.1901 29.3203 13.4116 29.4865 13.5749C29.6528 13.7382 29.8783 13.8299 30.1134 13.8299C30.3486 13.8299 30.5741 13.7382 30.7403 13.5749C30.9066 13.4116 31 13.1901 31 12.9592C31 12.7282 30.9066 12.5068 30.7403 12.3435C30.5741 12.1802 30.3486 12.0884 30.1134 12.0884Z" stroke="black" stroke-width="0.4"/>
<path d="M27.7045 7.56617C28.181 7.4557 28.4762 6.98672 28.3637 6.51868C28.2512 6.05064 27.7737 5.76077 27.2972 5.87124C26.8206 5.98171 26.5255 6.45068 26.638 6.91872C26.7505 7.38676 27.2279 7.67663 27.7045 7.56617Z" stroke="black" stroke-width="0.4"/>
<path d="M22.7023 3.06803C22.7023 2.83709 22.6089 2.61561 22.4427 2.45232C22.2764 2.28902 22.0509 2.19728 21.8158 2.19728C21.5806 2.19728 21.3551 2.28902 21.1889 2.45232C21.0226 2.61561 20.9292 2.83709 20.9292 3.06803C20.9292 3.29896 21.0226 3.52044 21.1889 3.68374C21.3551 3.84704 21.5806 3.93878 21.8158 3.93878C22.0509 3.93878 22.2764 3.84704 22.4427 3.68374C22.6089 3.52044 22.7023 3.29896 22.7023 3.06803Z" stroke="black" stroke-width="0.4"/>
<path d="M15.9931 6.81859C16.2177 6.80268 16.428 6.70379 16.5814 6.54182C16.7348 6.37985 16.8201 6.16682 16.8201 5.94558C16.8201 5.72434 16.7348 5.51131 16.5814 5.34934C16.428 5.18737 16.2177 5.08848 15.9931 5.07256C15.7684 5.08848 15.5582 5.18737 15.4047 5.34934C15.2513 5.51131 15.166 5.72434 15.166 5.94558C15.166 6.16682 15.2513 6.37985 15.4047 6.54182C15.5582 6.70379 15.7684 6.80268 15.9931 6.81859Z" stroke="black" stroke-width="0.4"/>
<path d="M11.7819 7.42177C11.7657 7.2011 11.665 6.99465 11.5001 6.84394C11.3352 6.69323 11.1183 6.60945 10.893 6.60945C10.6678 6.60945 10.4509 6.69323 10.286 6.84394C10.121 6.99465 10.0204 7.2011 10.0042 7.42177C9.99535 7.54171 10.0118 7.66214 10.0525 7.77556C10.0932 7.88897 10.1572 7.99294 10.2406 8.08097C10.324 8.16901 10.425 8.23922 10.5372 8.28723C10.6495 8.33524 10.7706 8.36002 10.893 8.36002C11.0155 8.36002 11.1366 8.33524 11.2488 8.28723C11.3611 8.23922 11.4621 8.16901 11.5455 8.08097C11.6289 7.99294 11.6929 7.88897 11.7336 7.77556C11.7743 7.66214 11.7907 7.54171 11.7819 7.42177Z" stroke="black" stroke-width="0.4"/>
<path d="M6.46252 11.2268C6.47872 11.4474 6.57941 11.6539 6.74432 11.8046C6.90923 11.9553 7.12613 12.0391 7.35139 12.0391C7.57665 12.0391 7.79355 11.9553 7.95846 11.8046C8.12338 11.6539 8.22406 11.4474 8.24026 11.2268C8.22406 11.0061 8.12338 10.7996 7.95846 10.6489C7.79355 10.4982 7.57665 10.4144 7.35139 10.4144C7.12613 10.4144 6.90923 10.4982 6.74432 10.6489C6.57941 10.7996 6.47872 11.0061 6.46252 11.2268Z" stroke="black" stroke-width="0.4"/>
<path d="M6.13006 17.2812C6.6197 17.2812 7.01662 16.8913 7.01662 16.4104C7.01662 15.9295 6.6197 15.5397 6.13006 15.5397C5.64042 15.5397 5.2435 15.9295 5.2435 16.4104C5.2435 16.8913 5.64042 17.2812 6.13006 17.2812Z" stroke="black" stroke-width="0.4"/>
<path d="M7.74619 20.542C7.51186 20.5419 7.28705 20.6331 7.12092 20.7954C6.95479 20.9577 6.86085 21.178 6.85963 21.4082C6.85902 21.5229 6.8815 21.6366 6.92578 21.7428C6.97006 21.8489 7.03527 21.9455 7.11766 22.0268C7.20004 22.1081 7.29798 22.1727 7.40585 22.2167C7.51371 22.2608 7.62938 22.2834 7.74619 22.2834C7.86301 22.2834 7.97867 22.2608 8.08653 22.2167C8.1944 22.1727 8.29234 22.1081 8.37472 22.0268C8.45711 21.9455 8.52232 21.8489 8.5666 21.7428C8.61088 21.6366 8.63336 21.5229 8.63275 21.4082C8.63153 21.178 8.53759 20.9577 8.37146 20.7954C8.20533 20.6331 7.98052 20.5419 7.74619 20.542Z" stroke="black" stroke-width="0.4"/>
<path d="M11.7849 25.6818C12.2682 25.6047 12.5964 25.1575 12.518 24.6828C12.4395 24.2081 11.9841 23.8857 11.5008 23.9628C11.0175 24.0398 10.6893 24.4871 10.7677 24.9618C10.8462 25.4365 11.3016 25.7588 11.7849 25.6818Z" stroke="black" stroke-width="0.4"/>
<path d="M16.9628 26.6871C17.4524 26.6871 17.8493 26.2972 17.8493 25.8163C17.8493 25.3354 17.4524 24.9456 16.9628 24.9456C16.4731 24.9456 16.0762 25.3354 16.0762 25.8163C16.0762 26.2972 16.4731 26.6871 16.9628 26.6871Z" stroke="black" stroke-width="0.4"/>
<path d="M21.9451 24.8594C22.4347 24.8594 22.8316 24.4696 22.8316 23.9887C22.8316 23.5078 22.4347 23.1179 21.9451 23.1179C21.4554 23.1179 21.0585 23.5078 21.0585 23.9887C21.0585 24.4696 21.4554 24.8594 21.9451 24.8594Z" stroke="black" stroke-width="0.4"/>
<path d="M26.1147 20.0023C26.1147 19.7713 26.0213 19.5499 25.855 19.3866C25.6887 19.2233 25.4632 19.1315 25.2281 19.1315C24.993 19.1315 24.7675 19.2233 24.6012 19.3866C24.4349 19.5499 24.3415 19.7713 24.3415 20.0023C24.3415 20.2332 24.4349 20.4547 24.6012 20.618C24.7675 20.7813 24.993 20.873 25.2281 20.873C25.4632 20.873 25.6887 20.7813 25.855 20.618C26.0213 20.4547 26.1147 20.2332 26.1147 20.0023Z" stroke="black" stroke-width="0.4"/>
<path d="M26.0038 15.4898C26.4935 15.4898 26.8904 15.0999 26.8904 14.619C26.8904 14.1381 26.4935 13.7483 26.0038 13.7483C25.5142 13.7483 25.1173 14.1381 25.1173 14.619C25.1173 15.0999 25.5142 15.4898 26.0038 15.4898Z" stroke="black" stroke-width="0.4"/>
<path d="M24.3092 10.5329C24.7989 10.5329 25.1958 10.143 25.1958 9.66213C25.1958 9.18123 24.7989 8.79138 24.3092 8.79138C23.8196 8.79138 23.4227 9.18123 23.4227 9.66213C23.4227 10.143 23.8196 10.5329 24.3092 10.5329Z" stroke="black" stroke-width="0.4"/>
<path d="M20.1384 7.64921C20.6273 7.62262 21.0017 7.21181 20.9746 6.73165C20.9475 6.25148 20.5292 5.88379 20.0404 5.91038C19.5515 5.93698 19.1771 6.34778 19.2042 6.82795C19.2313 7.30812 19.6495 7.67581 20.1384 7.64921Z" stroke="black" stroke-width="0.4"/>
<path d="M16.0023 21.9478C14.8041 21.9478 13.6328 21.5989 12.6366 20.9451C11.6403 20.2913 10.8638 19.362 10.4053 18.2747C9.94675 17.1875 9.82678 15.9911 10.0605 14.8369C10.2943 13.6827 10.8713 12.6225 11.7185 11.7904C12.5658 10.9582 13.6452 10.3915 14.8204 10.1619C15.9956 9.93236 17.2137 10.0502 18.3207 10.5005C19.4277 10.9509 20.3738 11.7135 21.0395 12.692C21.7052 13.6705 22.0605 14.8209 22.0605 15.9977C22.0593 17.5754 21.4206 19.0882 20.2847 20.2038C19.1489 21.3194 17.6087 21.9466 16.0023 21.9478ZM16.0023 10.5102C14.896 10.5093 13.8142 10.8308 12.8939 11.4339C11.9737 12.037 11.2562 12.8947 10.8324 13.8984C10.4086 14.9022 10.2975 16.0068 10.5131 17.0726C10.7287 18.1384 11.2614 19.1174 12.0437 19.8857C12.826 20.6541 13.8228 21.1773 14.9079 21.389C15.9931 21.6008 17.1178 21.4916 18.1397 21.0754C19.1617 20.6592 20.035 19.9545 20.649 19.0507C21.2631 18.1468 21.5904 17.0843 21.5895 15.9977C21.5834 14.5454 20.9924 13.1546 19.9455 12.1289C18.8986 11.1032 17.481 10.5262 16.0023 10.5238V10.5102Z" stroke="black" stroke-width="0.4"/>
<path d="M16.0023 19.2902C17.8537 19.2902 19.3546 17.8161 19.3546 15.9977C19.3546 14.1793 17.8537 12.7052 16.0023 12.7052C14.1509 12.7052 12.65 14.1793 12.65 15.9977C12.65 17.8161 14.1509 19.2902 16.0023 19.2902Z" stroke="black" stroke-width="0.4"/>
</svg>
