<?xml version="1.0" encoding="utf-8"?>
<!-- Generator: Adobe Illustrator 25.0.1, SVG Export Plug-In . SVG Version: 6.00 Build 0)  -->
<svg version="1.1" id="圖層_1" xmlns="http://www.w3.org/2000/svg" xmlns:xlink="http://www.w3.org/1999/xlink" x="0px" y="0px"
	 viewBox="0 0 12.7 12.9" style="enable-background:new 0 0 12.7 12.9;" xml:space="preserve">
<style type="text/css">
	.st0{fill:none;stroke:#333333;}
	.st1{fill:#1E1E1E;}
</style>
<g>
	<path class="st0" d="M6.4,12c3.1,0,5.6-2.5,5.6-5.5S9.4,0.9,6.4,0.9c-3.1,0-5.5,2.5-5.5,5.5S3.3,12,6.4,12z"/>
</g>
<path class="st1" d="M6.4,4.5c0.1,0,0.1,0,0.2,0c0.1,0,0.1-0.1,0.1-0.1s0.1-0.1,0.1-0.1c0-0.1,0-0.1,0-0.2c0-0.1,0-0.1,0-0.2
	c0-0.1-0.1-0.1-0.1-0.1c0,0-0.1-0.1-0.1-0.1c-0.1,0-0.1,0-0.2,0c-0.1,0-0.2,0.1-0.3,0.1C6,3.9,6,4,6,4.1c0,0.1,0,0.2,0.1,0.3
	C6.2,4.5,6.3,4.5,6.4,4.5L6.4,4.5z M6,9.3h0.7V5.2H6V9.3z"/>
</svg>
