<svg width="30" height="30" viewBox="0 0 30 30" fill="none" xmlns="http://www.w3.org/2000/svg">
<mask id="path-1-inside-1_3016_5734" fill="white">
<path d="M29.7862 15.6339C30.0697 15.2308 30.0697 14.7668 29.7862 14.3614C29.2893 13.6513 27.616 12.8943 24.4194 12.8943C22.6945 12.8943 20.7283 13.1123 18.5722 13.5435L18.455 13.5669L18.5534 13.5013C21.136 11.7788 23.1867 9.99063 24.4827 8.32904C25.5255 6.9932 26.0435 5.77689 25.9052 4.9918C25.8208 4.50434 25.4927 4.17858 25.0053 4.09187C24.9233 4.07781 24.8365 4.07078 24.7451 4.07078C24.2506 4.07078 23.1585 4.28638 21.4079 5.72299C19.8236 7.02133 18.1269 9.00164 16.4958 11.446L16.4302 11.5444L16.4536 11.4272C17.0629 8.38294 17.2481 5.66675 16.9879 3.57863C16.7794 1.89595 16.2872 0.67026 15.6357 0.213265C15.4341 0.0726506 15.2209 0 15.0006 0C14.7803 0 14.567 0.0726506 14.3655 0.213265C13.714 0.67026 13.2195 1.89829 13.0132 3.57863C12.7555 5.66909 12.9406 8.38294 13.5476 11.4272L13.571 11.5444L13.5054 11.446C11.8743 9.00164 10.1752 7.02367 8.59093 5.72299C6.84029 4.28638 5.74818 4.07312 5.25369 4.07312C5.16229 4.07312 5.07558 4.08015 4.9959 4.09421C4.50844 4.17858 4.18268 4.50668 4.09597 4.99414C3.9577 5.77924 4.47797 6.99555 5.51852 8.33138C6.81451 9.99063 8.86513 11.7811 11.4477 13.5036L11.5462 13.5693L11.429 13.5458C9.27291 13.1146 7.30431 12.8966 5.58179 12.8966C2.38282 12.8966 0.711859 13.6536 0.212679 14.3637C-0.0708929 14.7668 -0.0708929 15.2308 0.212679 15.6363C0.709515 16.3464 2.38282 17.1034 5.57945 17.1034C7.30431 17.1034 9.27057 16.8854 11.429 16.4542L11.5462 16.4307L11.4477 16.4964C8.86513 18.2189 6.81451 20.007 5.51852 21.6686C4.47563 23.0045 3.9577 24.2208 4.09597 25.0059C4.18034 25.4933 4.50844 25.8191 4.9959 25.9058C5.07558 25.9199 5.16229 25.9269 5.25369 25.9269C5.74818 25.9269 6.83794 25.7113 8.59093 24.277C10.1752 22.9787 11.8743 20.9984 13.5054 18.554L13.571 18.4556L13.5476 18.5728C12.9382 21.6171 12.7531 24.3333 13.0132 26.4214C13.2218 28.1041 13.714 29.3297 14.3655 29.7867C14.567 29.9274 14.7803 30 15.0006 30C15.2209 30 15.4341 29.9274 15.6357 29.7867C16.2872 29.3297 16.7817 28.1017 16.9879 26.4214C17.2457 24.3309 17.0606 21.6171 16.4536 18.5728L16.4302 18.4556L16.4958 18.554C18.1269 20.9984 19.826 22.9763 21.4102 24.277C23.1609 25.7136 24.253 25.9269 24.7475 25.9269C24.8389 25.9269 24.9256 25.9199 25.0076 25.9058C25.4951 25.8214 25.8208 25.4933 25.9075 25.0059C26.0458 24.2208 25.5255 23.0045 24.485 21.6686C23.189 20.0094 21.1384 18.2189 18.5558 16.4964L18.4573 16.4307L18.5745 16.4542C20.7306 16.8854 22.6992 17.1034 24.4217 17.1034C27.6207 17.1034 29.2917 16.3464 29.7885 15.6363L29.7862 15.6339ZM21.2064 6.57839C22.6008 5.30818 23.878 4.57699 24.7123 4.57699C24.785 4.57699 24.8553 4.58167 24.9186 4.59339C25.1998 4.64261 25.3545 4.79728 25.4037 5.07851C25.467 5.44411 25.4224 6.5198 23.6085 8.5798C22.5422 9.79142 20.5337 11.6944 17.0137 13.8809H17.0114L17.0067 13.8833C16.5755 13.9864 16.2099 14.0755 15.856 14.1692L15.8161 14.1786L15.8255 14.1387C15.9169 13.7849 16.0083 13.4193 16.1114 12.988V12.9834L16.1138 12.981C17.7707 10.314 19.5307 8.09937 21.2064 6.57371V6.57839ZM13.4491 4.37544C13.6226 1.63581 14.3514 0.843684 14.6561 0.63042C14.7733 0.548395 14.8858 0.508554 14.9982 0.508554C15.1107 0.508554 15.2232 0.548395 15.3404 0.63042C15.6451 0.843684 16.3739 1.63815 16.5473 4.37544C16.6505 5.98547 16.5755 8.75088 15.6333 12.7865V12.7912L15.631 12.7935C15.399 13.1708 15.2045 13.4943 15.0193 13.8106L14.9982 13.8458L14.9772 13.8106C14.792 13.4943 14.5975 13.1708 14.3655 12.7935V12.7865C13.4234 8.75088 13.3484 5.98547 13.4515 4.37544H13.4491ZM15.1482 15.2988L15.1951 15.4746L15.1037 15.3152L14.9982 15.1301L14.8928 15.3152L14.8014 15.4746L14.8483 15.2988L14.9045 15.0926L14.6983 15.1488L14.5202 15.198L14.6795 15.1066L14.8647 15.0012L14.6795 14.8957L14.5202 14.8043L14.6983 14.8535L14.9045 14.9098L14.8483 14.7035L14.8014 14.5278L14.8928 14.6871L14.9982 14.8723L15.1037 14.6871L15.1951 14.5278L15.1482 14.7035L15.092 14.9098L15.2982 14.8535L15.4763 14.8043L15.317 14.8957L15.1318 15.0012L15.317 15.1066L15.4763 15.198L15.2982 15.1488L15.092 15.0926L15.1482 15.2988ZM6.39267 8.58214C4.57874 6.52215 4.53422 5.44645 4.59749 5.08085C4.64671 4.79963 4.80138 4.64495 5.08261 4.59574C5.14589 4.58402 5.21619 4.57933 5.28885 4.57933C6.12081 4.57933 7.39806 5.30818 8.79482 6.57839C10.4681 8.10405 12.2305 10.3187 13.8874 12.9857V12.9927C13.9905 13.4263 14.0819 13.7919 14.1733 14.1434L14.1827 14.1833L14.1428 14.1739C13.789 14.0802 13.4234 13.9911 12.9922 13.888H12.9875L12.9851 13.8856C9.46508 11.6967 7.45665 9.79611 6.39032 8.58449L6.39267 8.58214ZM5.5232 16.5831C3.04371 16.5831 1.16885 16.1073 0.632177 15.341C0.468128 15.1066 0.468128 14.8887 0.632177 14.6543C1.16885 13.888 3.04371 13.4122 5.5232 13.4122C7.64413 13.4122 10.0885 13.731 12.7906 14.3614H12.7953L12.7976 14.3637C13.1749 14.5981 13.4984 14.7926 13.8124 14.9754L13.8476 14.9965L13.8124 15.0176C13.496 15.2027 13.1726 15.3972 12.7953 15.6292H12.7929L12.7883 15.6316C10.126 16.2526 7.61366 16.5807 5.52086 16.5807L5.5232 16.5831ZM8.79482 23.4169C7.4004 24.6871 6.12316 25.4183 5.28885 25.4183C5.21619 25.4183 5.14823 25.4136 5.08261 25.4019C4.80138 25.3527 4.64671 25.198 4.59749 24.9168C4.53422 24.5512 4.57874 23.4755 6.39267 21.4155C7.45899 20.2039 9.46743 18.3033 12.9875 16.1144H12.9898L12.9945 16.112C13.4281 16.0089 13.7936 15.9199 14.1452 15.8261L14.185 15.8167L14.1757 15.8566C14.0819 16.2105 13.9929 16.576 13.8897 17.0073V17.012L13.8874 17.0143C12.2305 19.6813 10.4705 21.8959 8.79716 23.4216L8.79482 23.4169ZM16.5497 25.6199C16.3763 28.3595 15.6474 29.1516 15.3427 29.3649C15.2256 29.4469 15.1131 29.4868 15.0006 29.4868C14.8881 29.4868 14.7756 29.4469 14.6584 29.3649C14.3538 29.1516 13.6273 28.3572 13.4515 25.6199C13.3484 24.0098 13.4234 21.2444 14.3655 17.2088V17.2041L14.3678 17.2018C14.5998 16.8245 14.7944 16.5011 14.9795 16.1847L15.0006 16.1495L15.0217 16.1847C15.2068 16.5011 15.406 16.8338 15.6333 17.2018V17.2088C16.5755 21.2444 16.6505 24.0098 16.5473 25.6199H16.5497ZM23.6085 21.4132C25.4224 23.4732 25.467 24.5489 25.4037 24.9145C25.3545 25.1957 25.1998 25.3504 24.9186 25.3996C24.8553 25.4113 24.785 25.416 24.7123 25.416C23.8804 25.416 22.6031 24.6871 21.2087 23.4169C19.5354 21.8913 17.773 19.6766 16.1161 17.0096V17.0026C16.013 16.569 15.924 16.2034 15.8302 15.8519L15.8208 15.812L15.8607 15.8214C16.2146 15.9152 16.5802 16.0042 17.0114 16.1073H17.0161L17.0184 16.1097C20.5384 18.2986 22.5469 20.1992 23.6132 21.4108L23.6085 21.4132ZM29.369 15.341C28.8323 16.1073 26.9575 16.5831 24.478 16.5831C22.357 16.5831 19.9127 16.2644 17.2106 15.6339H17.2059L17.2035 15.6316C16.8239 15.3972 16.5028 15.2027 16.1864 15.0199L16.1513 14.9988L16.1864 14.9777C16.5005 14.7926 16.8239 14.5981 17.2012 14.3661H17.2035L17.2082 14.3637C19.8705 13.7427 22.3828 13.4146 24.4756 13.4146C26.9551 13.4146 28.83 13.8903 29.3667 14.6567C29.5307 14.891 29.5307 15.109 29.3667 15.3433L29.369 15.341Z"/>
</mask>
<path d="M29.7862 15.6339C30.0697 15.2308 30.0697 14.7668 29.7862 14.3614C29.2893 13.6513 27.616 12.8943 24.4194 12.8943C22.6945 12.8943 20.7283 13.1123 18.5722 13.5435L18.455 13.5669L18.5534 13.5013C21.136 11.7788 23.1867 9.99063 24.4827 8.32904C25.5255 6.9932 26.0435 5.77689 25.9052 4.9918C25.8208 4.50434 25.4927 4.17858 25.0053 4.09187C24.9233 4.07781 24.8365 4.07078 24.7451 4.07078C24.2506 4.07078 23.1585 4.28638 21.4079 5.72299C19.8236 7.02133 18.1269 9.00164 16.4958 11.446L16.4302 11.5444L16.4536 11.4272C17.0629 8.38294 17.2481 5.66675 16.9879 3.57863C16.7794 1.89595 16.2872 0.67026 15.6357 0.213265C15.4341 0.0726506 15.2209 0 15.0006 0C14.7803 0 14.567 0.0726506 14.3655 0.213265C13.714 0.67026 13.2195 1.89829 13.0132 3.57863C12.7555 5.66909 12.9406 8.38294 13.5476 11.4272L13.571 11.5444L13.5054 11.446C11.8743 9.00164 10.1752 7.02367 8.59093 5.72299C6.84029 4.28638 5.74818 4.07312 5.25369 4.07312C5.16229 4.07312 5.07558 4.08015 4.9959 4.09421C4.50844 4.17858 4.18268 4.50668 4.09597 4.99414C3.9577 5.77924 4.47797 6.99555 5.51852 8.33138C6.81451 9.99063 8.86513 11.7811 11.4477 13.5036L11.5462 13.5693L11.429 13.5458C9.27291 13.1146 7.30431 12.8966 5.58179 12.8966C2.38282 12.8966 0.711859 13.6536 0.212679 14.3637C-0.0708929 14.7668 -0.0708929 15.2308 0.212679 15.6363C0.709515 16.3464 2.38282 17.1034 5.57945 17.1034C7.30431 17.1034 9.27057 16.8854 11.429 16.4542L11.5462 16.4307L11.4477 16.4964C8.86513 18.2189 6.81451 20.007 5.51852 21.6686C4.47563 23.0045 3.9577 24.2208 4.09597 25.0059C4.18034 25.4933 4.50844 25.8191 4.9959 25.9058C5.07558 25.9199 5.16229 25.9269 5.25369 25.9269C5.74818 25.9269 6.83794 25.7113 8.59093 24.277C10.1752 22.9787 11.8743 20.9984 13.5054 18.554L13.571 18.4556L13.5476 18.5728C12.9382 21.6171 12.7531 24.3333 13.0132 26.4214C13.2218 28.1041 13.714 29.3297 14.3655 29.7867C14.567 29.9274 14.7803 30 15.0006 30C15.2209 30 15.4341 29.9274 15.6357 29.7867C16.2872 29.3297 16.7817 28.1017 16.9879 26.4214C17.2457 24.3309 17.0606 21.6171 16.4536 18.5728L16.4302 18.4556L16.4958 18.554C18.1269 20.9984 19.826 22.9763 21.4102 24.277C23.1609 25.7136 24.253 25.9269 24.7475 25.9269C24.8389 25.9269 24.9256 25.9199 25.0076 25.9058C25.4951 25.8214 25.8208 25.4933 25.9075 25.0059C26.0458 24.2208 25.5255 23.0045 24.485 21.6686C23.189 20.0094 21.1384 18.2189 18.5558 16.4964L18.4573 16.4307L18.5745 16.4542C20.7306 16.8854 22.6992 17.1034 24.4217 17.1034C27.6207 17.1034 29.2917 16.3464 29.7885 15.6363L29.7862 15.6339ZM21.2064 6.57839C22.6008 5.30818 23.878 4.57699 24.7123 4.57699C24.785 4.57699 24.8553 4.58167 24.9186 4.59339C25.1998 4.64261 25.3545 4.79728 25.4037 5.07851C25.467 5.44411 25.4224 6.5198 23.6085 8.5798C22.5422 9.79142 20.5337 11.6944 17.0137 13.8809H17.0114L17.0067 13.8833C16.5755 13.9864 16.2099 14.0755 15.856 14.1692L15.8161 14.1786L15.8255 14.1387C15.9169 13.7849 16.0083 13.4193 16.1114 12.988V12.9834L16.1138 12.981C17.7707 10.314 19.5307 8.09937 21.2064 6.57371V6.57839ZM13.4491 4.37544C13.6226 1.63581 14.3514 0.843684 14.6561 0.63042C14.7733 0.548395 14.8858 0.508554 14.9982 0.508554C15.1107 0.508554 15.2232 0.548395 15.3404 0.63042C15.6451 0.843684 16.3739 1.63815 16.5473 4.37544C16.6505 5.98547 16.5755 8.75088 15.6333 12.7865V12.7912L15.631 12.7935C15.399 13.1708 15.2045 13.4943 15.0193 13.8106L14.9982 13.8458L14.9772 13.8106C14.792 13.4943 14.5975 13.1708 14.3655 12.7935V12.7865C13.4234 8.75088 13.3484 5.98547 13.4515 4.37544H13.4491ZM15.1482 15.2988L15.1951 15.4746L15.1037 15.3152L14.9982 15.1301L14.8928 15.3152L14.8014 15.4746L14.8483 15.2988L14.9045 15.0926L14.6983 15.1488L14.5202 15.198L14.6795 15.1066L14.8647 15.0012L14.6795 14.8957L14.5202 14.8043L14.6983 14.8535L14.9045 14.9098L14.8483 14.7035L14.8014 14.5278L14.8928 14.6871L14.9982 14.8723L15.1037 14.6871L15.1951 14.5278L15.1482 14.7035L15.092 14.9098L15.2982 14.8535L15.4763 14.8043L15.317 14.8957L15.1318 15.0012L15.317 15.1066L15.4763 15.198L15.2982 15.1488L15.092 15.0926L15.1482 15.2988ZM6.39267 8.58214C4.57874 6.52215 4.53422 5.44645 4.59749 5.08085C4.64671 4.79963 4.80138 4.64495 5.08261 4.59574C5.14589 4.58402 5.21619 4.57933 5.28885 4.57933C6.12081 4.57933 7.39806 5.30818 8.79482 6.57839C10.4681 8.10405 12.2305 10.3187 13.8874 12.9857V12.9927C13.9905 13.4263 14.0819 13.7919 14.1733 14.1434L14.1827 14.1833L14.1428 14.1739C13.789 14.0802 13.4234 13.9911 12.9922 13.888H12.9875L12.9851 13.8856C9.46508 11.6967 7.45665 9.79611 6.39032 8.58449L6.39267 8.58214ZM5.5232 16.5831C3.04371 16.5831 1.16885 16.1073 0.632177 15.341C0.468128 15.1066 0.468128 14.8887 0.632177 14.6543C1.16885 13.888 3.04371 13.4122 5.5232 13.4122C7.64413 13.4122 10.0885 13.731 12.7906 14.3614H12.7953L12.7976 14.3637C13.1749 14.5981 13.4984 14.7926 13.8124 14.9754L13.8476 14.9965L13.8124 15.0176C13.496 15.2027 13.1726 15.3972 12.7953 15.6292H12.7929L12.7883 15.6316C10.126 16.2526 7.61366 16.5807 5.52086 16.5807L5.5232 16.5831ZM8.79482 23.4169C7.4004 24.6871 6.12316 25.4183 5.28885 25.4183C5.21619 25.4183 5.14823 25.4136 5.08261 25.4019C4.80138 25.3527 4.64671 25.198 4.59749 24.9168C4.53422 24.5512 4.57874 23.4755 6.39267 21.4155C7.45899 20.2039 9.46743 18.3033 12.9875 16.1144H12.9898L12.9945 16.112C13.4281 16.0089 13.7936 15.9199 14.1452 15.8261L14.185 15.8167L14.1757 15.8566C14.0819 16.2105 13.9929 16.576 13.8897 17.0073V17.012L13.8874 17.0143C12.2305 19.6813 10.4705 21.8959 8.79716 23.4216L8.79482 23.4169ZM16.5497 25.6199C16.3763 28.3595 15.6474 29.1516 15.3427 29.3649C15.2256 29.4469 15.1131 29.4868 15.0006 29.4868C14.8881 29.4868 14.7756 29.4469 14.6584 29.3649C14.3538 29.1516 13.6273 28.3572 13.4515 25.6199C13.3484 24.0098 13.4234 21.2444 14.3655 17.2088V17.2041L14.3678 17.2018C14.5998 16.8245 14.7944 16.5011 14.9795 16.1847L15.0006 16.1495L15.0217 16.1847C15.2068 16.5011 15.406 16.8338 15.6333 17.2018V17.2088C16.5755 21.2444 16.6505 24.0098 16.5473 25.6199H16.5497ZM23.6085 21.4132C25.4224 23.4732 25.467 24.5489 25.4037 24.9145C25.3545 25.1957 25.1998 25.3504 24.9186 25.3996C24.8553 25.4113 24.785 25.416 24.7123 25.416C23.8804 25.416 22.6031 24.6871 21.2087 23.4169C19.5354 21.8913 17.773 19.6766 16.1161 17.0096V17.0026C16.013 16.569 15.924 16.2034 15.8302 15.8519L15.8208 15.812L15.8607 15.8214C16.2146 15.9152 16.5802 16.0042 17.0114 16.1073H17.0161L17.0184 16.1097C20.5384 18.2986 22.5469 20.1992 23.6132 21.4108L23.6085 21.4132ZM29.369 15.341C28.8323 16.1073 26.9575 16.5831 24.478 16.5831C22.357 16.5831 19.9127 16.2644 17.2106 15.6339H17.2059L17.2035 15.6316C16.8239 15.3972 16.5028 15.2027 16.1864 15.0199L16.1513 14.9988L16.1864 14.9777C16.5005 14.7926 16.8239 14.5981 17.2012 14.3661H17.2035L17.2082 14.3637C19.8705 13.7427 22.3828 13.4146 24.4756 13.4146C26.9551 13.4146 28.83 13.8903 29.3667 14.6567C29.5307 14.891 29.5307 15.109 29.3667 15.3433L29.369 15.341Z" fill="#1E1E1E" stroke="#1E1E1E" stroke-width="0.8" mask="url(#path-1-inside-1_3016_5734)"/>
</svg>
