<?xml version="1.0" encoding="utf-8"?>
<!-- Generator: Adobe Illustrator 25.0.1, SVG Export Plug-In . SVG Version: 6.00 Build 0)  -->
<svg version="1.1" id="圖層_1" xmlns="http://www.w3.org/2000/svg" xmlns:xlink="http://www.w3.org/1999/xlink" x="0px" y="0px"
	 viewBox="0 0 889.9 76" style="enable-background:new 0 0 889.9 76;" xml:space="preserve">
<style type="text/css">
	.st0{fill:#FFFFFF;}
</style>
<path class="st0" d="M210.6,319.8c1.2,4.7,1.8,10.9,1.6,14.8l8.2-1c0.1-4-0.8-10.1-2.2-14.7L210.6,319.8z M222.7,319
	c1.6,4.2,3.2,9.7,3.7,13.3l7.6-1.9c-0.6-3.6-2.2-9-3.8-13L222.7,319z M246.3,299.2c-0.5,2.3-1,4.6-1.4,6.5h-30.6
	c2.2-2.1,4.2-4.2,6-6.5H246.3z M240,284.6c-0.4,2.2-0.9,4.4-1.4,6.3h-12.2c1.4-2.1,2.6-4.2,3.8-6.3H240z M262,305.7h-8.6
	c1-4.3,2-9.9,2.9-14.7h-9.1c1-4.4,2.2-9.8,3-14.6h-15.7c1.7-3.6,3.2-7.3,4.6-11l-9.5-2.6c-1.4,4.6-3.3,9.2-5.5,13.7h-11.6l4-1.7
	c-1.1-3.3-3.7-8.1-6.2-11.7l-8.2,3.2c1.9,3.1,3.8,7,5,10.2h-13.4v8.3h25.7c-7.4,11.4-17.4,21.4-30.6,27.4c1.6,2.2,3.8,5.9,5,8.3
	c2-1,4-2.1,5.9-3.3c-1.4,5.9-4.4,11.5-8.6,15.1l7.4,4.7c5-4.3,7.8-11.2,9.4-18.1l-7.3-2.3c1.4-0.9,2.8-1.8,4.1-2.7h47.6
	c-1,9.1-2,13.1-3.3,14.4c-0.8,0.7-1.5,0.9-2.6,0.9c-1.5,0-4.6,0-7.8-0.4c1.4,2.4,2.4,5.9,2.6,8.5c3.8,0.2,7.4,0.1,9.5-0.2
	c2.5-0.3,4.2-1,6-3c2.5-2.6,3.8-9.3,5.2-24.8L262,305.7z M246.2,325.6c-0.8-3-3-7.4-5.2-10.6l-6.6,2.2c2,3.4,4.1,8,4.7,10.8
	L246.2,325.6z M304.6,321.9v-26.5h8.9v-9.1h-8.9v-23.6h-10.1v60.9l-5.7,1v-45.4h-9.4V326c-2.1,0.3-4,0.6-5.8,0.9l1.5,10.1
	c10.5-2,25.1-4.6,38.6-7.2l-0.6-9.4L304.6,321.9z M329.3,326.2c-2.6,0-2.9-0.6-2.9-5v-25.8h18.1v-9.1h-18.1v-23.6h-10.1V321
	c0,11.3,2.6,14.6,11.4,14.6h9.8c8.1,0,10.6-5,11.6-18.3c-2.8-0.7-6.7-2.6-9.1-4.2c-0.4,10.4-0.9,13.2-3.4,13.2H329.3z M431,275.3
	v-9.7h-72.6v9.7h29c-0.6,2.8-1.2,5.7-2,8.4h-23.3v53.7h9.8v-44.8h8.6v42.3h9.4v-42.3h8.8v42.3h9.5v-42.3h9.4v34.6
	c0,1.1-0.3,1.4-1.4,1.4s-4.6,0.1-7.8-0.1c1.2,2.3,2.6,6.1,3,8.6c5.4,0,9.4-0.2,12.2-1.6c2.9-1.5,3.7-3.8,3.7-8.3v-43.6h-31.6
	c1-2.6,1.9-5.4,2.9-8.4H431z M483.7,325.8v-16.1h23.9v-9.2h-23.9v-14.1h27v-9.3h-27v-14.4h-10v14.4h-12.3c1.4-3.7,2.6-7.4,3.8-11.3
	l-9.8-2.2c-2.7,10.9-7.9,21.9-14.2,28.6c2.4,1.3,6.6,4.2,8.6,5.7c2.6-3.1,5.1-7.2,7.4-11.6h16.6v14.1H452v9.2h21.7v16.1h-30.9v9.4
	h71.9v-9.4H483.7z"/>
<g>
	<path class="st0" d="M878.4,37c3.1-3.5,5-8.1,5-13.2c0-11.1-9-20-20-20h-33.7v68.5h35.8c11.1,0,20-9,20-20
		C885.4,46.1,882.7,40.6,878.4,37L878.4,37z M841.2,15.3h22.1c4.7,0,8.4,3.8,8.4,8.4s-3.8,8.4-8.4,8.4h-22.1V15.3z M865.4,60.7
		h-24.2V43.8h24.2c4.7,0,8.4,3.8,8.4,8.4S870.1,60.7,865.4,60.7z"/>
	<path class="st0" d="M708.4,60.7V3.7h-11.6v56.9v11.6h11.6h39V60.7H708.4z"/>
	<path class="st0" d="M788.5,3.7l-32.7,68.5h12.6l20.1-41.6l19.9,41.6h12.7L788.5,3.7z"/>
	<path class="st0" d="M649.6,16.4V4.8h-48.5v11.6H649.6z"/>
	<path class="st0" d="M649.6,71.2V59.6h-48.5v11.6H649.6z"/>
	<path class="st0" d="M649.6,43.8V32.2h-48.5v11.6H649.6z"/>
	<path class="st0" d="M498.8,3.7h-50.6v11.6h19.5v56.9h11.6V15.3h19.5V3.7z"/>
	<path class="st0" d="M518.9,3.7h-11.6v68.5h11.6V3.7z"/>
	<path class="st0" d="M343.9,3.7l-32.7,68.5h12.6l20.1-41.6l19.9,41.6h12.7L343.9,3.7z"/>
	<path class="st0" d="M560,72.3L527.3,3.7h12.6L560,45.3l19.9-41.6h12.7L560,72.3z"/>
	<path class="st0" d="M429.2,51.6c-4.2,5.5-10.8,9.1-18.2,9.1c-12.6,0-22.8-10.2-22.8-22.7c0-12.5,10.2-22.7,22.8-22.7
		c7.4,0,14,3.6,18.2,9.1l10.6-5.2C433.6,9.9,423,3.7,411,3.7c-19,0-34.5,15.3-34.5,34.3c0,18.9,15.4,34.3,34.5,34.3
		c12,0,22.6-6.1,28.8-15.4L429.2,51.6L429.2,51.6z"/>
	<path class="st0" d="M281.5,59.6h-11.6v11.6h11.6V59.6z"/>
	<path class="st0" d="M121.9,16.4V4.8H73.4v11.6H121.9z"/>
	<path class="st0" d="M121.9,71.2V59.6H73.4v11.6H121.9z"/>
	<path class="st0" d="M121.9,43.8V32.2H73.4v11.6H121.9z"/>
	<path class="st0" d="M40.3,3.7H4.4v68.5H16V45.9h24.2c11.6,0,21.1-9.4,21.1-21.1C61.4,13.2,51.9,3.7,40.3,3.7z M40.3,34.3H16v-19
		h24.2c5.2,0,9.5,4.2,9.5,9.5C49.8,30.1,45.5,34.3,40.3,34.3z"/>
	<path class="st0" d="M192.8,24.8c0-11.6-9.4-21.1-21.1-21.1h-35.8v68.5h11.6V45.9h11.9l19.2,26.4h13.7L173,45.8
		C184.1,45.1,192.8,36,192.8,24.8L192.8,24.8z M171.7,34.3h-24.2v-19h24.2c5.2,0,9.5,4.2,9.5,9.5C181.2,30.1,176.9,34.3,171.7,34.3z
		"/>
	<path class="st0" d="M223.7,15.3h34.8V3.7h-34.8c-11.1,0-20,9-20,20c0,11.1,9,20,20,20h16.9c4.7,0,8.4,3.8,8.4,8.4
		s-3.8,8.4-8.4,8.4h-34.8v11.6h34.8c11.1,0,20-9,20-20c0-11.1-9-20-20-20h-16.9c-4.7,0-8.4-3.8-8.4-8.4S219.1,15.3,223.7,15.3z"/>
</g>
</svg>
