<?xml version="1.0" encoding="utf-8"?>
<!-- Generator: Adobe Illustrator 25.0.1, SVG Export Plug-In . SVG Version: 6.00 Build 0)  -->
<svg version="1.1" id="圖層_1" xmlns="http://www.w3.org/2000/svg" xmlns:xlink="http://www.w3.org/1999/xlink" x="0px" y="0px"
	 viewBox="0 0 359.2 76" style="enable-background:new 0 0 359.2 76;" xml:space="preserve">
<style type="text/css">
	.st0{fill:#FFFFFF;}
</style>
<path class="st0" d="M38.4,57.8c1.2,4.7,1.8,10.9,1.6,14.8l8.2-1c0.1-4-0.8-10.1-2.2-14.7L38.4,57.8z M50.5,57
	c1.6,4.2,3.2,9.7,3.7,13.3l7.6-1.9c-0.6-3.6-2.2-9-3.8-13L50.5,57z M74.1,37.2c-0.5,2.3-1,4.6-1.4,6.5H42.1c2.2-2.1,4.2-4.2,6-6.5
	H74.1z M67.9,22.6C67.5,24.9,67,27,66.5,29H54.3c1.4-2.1,2.6-4.2,3.8-6.3H67.9z M89.9,43.7h-8.6c1-4.3,2-9.9,2.9-14.7h-9.1
	c1-4.4,2.2-9.8,3-14.6H62.4c1.7-3.6,3.2-7.3,4.6-11l-9.5-2.6c-1.4,4.6-3.3,9.2-5.5,13.7H40.3l4-1.7C43.2,9.4,40.7,4.6,38.2,1
	l-8.2,3.2c1.9,3.1,3.8,7,5,10.2H21.5v8.3h25.7C39.9,34.1,29.8,44,16.6,50.1c1.6,2.2,3.8,5.9,5,8.3c2-1,4-2.1,5.9-3.3
	C26,61,23.1,66.6,18.8,70.2l7.4,4.7c5-4.3,7.8-11.2,9.4-18.1l-7.3-2.3c1.4-0.9,2.8-1.8,4.1-2.7H80c-1,9.1-2,13.1-3.3,14.4
	c-0.8,0.7-1.5,0.9-2.6,0.9c-1.5,0-4.6,0-7.8-0.4c1.4,2.4,2.4,5.9,2.6,8.5c3.8,0.2,7.4,0.1,9.5-0.2c2.5-0.3,4.2-1,6-3
	c2.5-2.6,3.8-9.3,5.2-24.8L89.9,43.7z M74,63.6c-0.8-3-3-7.4-5.2-10.6l-6.6,2.2c2,3.4,4.1,8,4.7,10.8L74,63.6z M132.4,59.9V33.4h8.9
	v-9.1h-8.9V0.7h-10.1v60.9l-5.7,1V17.2h-9.4V64c-2.1,0.3-4,0.6-5.8,0.9l1.5,10.1c10.5-2,25.1-4.6,38.6-7.2l-0.6-9.4L132.4,59.9z
	 M157.1,64.2c-2.6,0-2.9-0.6-2.9-5V33.4h18.1v-9.1h-18.1V0.7h-10.1V59c0,11.3,2.6,14.6,11.4,14.6h9.8c8.1,0,10.6-5,11.6-18.3
	c-2.8-0.7-6.7-2.6-9.1-4.2c-0.4,10.4-0.9,13.2-3.4,13.2H157.1z M258.8,13.3V3.6h-72.6v9.7h29c-0.6,2.8-1.2,5.7-2,8.4H190v53.7h9.8
	V30.6h8.6v42.3h9.4V30.6h8.8v42.3h9.5V30.6h9.4v34.6c0,1.1-0.3,1.4-1.4,1.4s-4.6,0.1-7.8-0.1c1.2,2.3,2.6,6.1,3,8.6
	c5.4,0,9.4-0.2,12.2-1.6c2.9-1.5,3.7-3.8,3.7-8.3V21.7h-31.6c1-2.6,1.9-5.4,2.9-8.4H258.8z M311.5,63.8V47.7h23.9v-9.2h-23.9V24.4
	h27v-9.3h-27V0.7h-10v14.4h-12.3c1.4-3.7,2.6-7.4,3.8-11.3l-9.8-2.2c-2.7,10.9-7.9,21.9-14.2,28.6c2.4,1.3,6.6,4.2,8.6,5.7
	c2.6-3.1,5.1-7.2,7.4-11.6h16.6v14.1h-21.7v9.2h21.7v16.1h-30.9v9.4h71.9v-9.4H311.5z"/>
</svg>
