<svg width="1241" height="76" viewBox="0 0 1241 76" fill="none" xmlns="http://www.w3.org/2000/svg">
<path d="M933 57.7619C934.2 62.4819 934.84 68.6419 934.6 72.5619L942.84 71.5219C942.92 67.5219 942.04 61.4419 940.68 56.8019L933 57.7619ZM945.08 56.9619C946.68 61.2019 948.28 66.6419 948.76 70.2419L956.36 68.3219C955.8 64.7219 954.2 59.3619 952.52 55.3619L945.08 56.9619ZM968.68 37.2019C968.2 39.5219 967.72 41.7619 967.24 43.6819H936.68C938.84 41.6019 940.84 39.4419 942.68 37.2019H968.68ZM962.44 22.6419C962.04 24.8819 961.56 27.0419 961.08 28.9619H948.84C950.2 26.8819 951.48 24.8019 952.68 22.6419H962.44ZM984.44 43.6819H975.88C976.84 39.3619 977.88 33.7619 978.76 28.9619H969.64C970.68 24.5619 971.88 19.1219 972.68 14.3219H957C958.68 10.7219 960.2 7.04191 961.56 3.28192L952.04 0.641912C950.6 5.28191 948.76 9.84191 946.52 14.3219H934.92L938.92 12.6419C937.8 9.36191 935.24 4.56191 932.76 0.961912L924.52 4.16191C926.44 7.28191 928.36 11.2019 929.56 14.3219H916.12V22.6419H941.8C934.44 34.0819 924.36 44.0019 911.16 50.0819C912.76 52.2419 915 56.0019 916.12 58.4019C918.12 57.3619 920.12 56.3219 922.04 55.1219C920.6 61.0419 917.64 66.6419 913.4 70.2419L920.84 74.9619C925.88 70.6419 928.6 63.7619 930.2 56.8819L922.92 54.5619C924.36 53.6819 925.72 52.8019 927 51.8419H974.6C973.64 60.9619 972.6 64.9619 971.32 66.2419C970.52 66.9619 969.8 67.1219 968.68 67.1219C967.16 67.1219 964.12 67.1219 960.92 66.7219C962.36 69.1219 963.32 72.6419 963.48 75.2019C967.32 75.3619 970.92 75.2819 973 75.0419C975.48 74.7219 977.24 74.0819 979 72.0819C981.48 69.5219 982.84 62.8019 984.2 47.2819L984.44 43.6819ZM968.6 63.6019C967.8 60.6419 965.56 56.2419 963.4 53.0419L956.84 55.2819C958.84 58.6419 960.92 63.2819 961.56 66.0819L968.6 63.6019ZM1027 59.9219V33.4419H1035.88V24.3219H1027V0.721915H1016.92V61.6019L1011.24 62.5619V17.2019H1001.8V64.0019C999.72 64.3219 997.8 64.6419 995.96 64.8819L997.48 74.9619C1007.96 72.9619 1022.6 70.3219 1036.04 67.7619L1035.4 58.4019L1027 59.9219ZM1051.72 64.2419C1049.16 64.2419 1048.84 63.6019 1048.84 59.2019V33.4419H1066.92V24.3219H1048.84V0.721915H1038.76V59.0419C1038.76 70.3219 1041.32 73.6019 1050.12 73.6019H1059.88C1067.96 73.6019 1070.44 68.5619 1071.48 55.2819C1068.68 54.5619 1064.76 52.7219 1062.36 51.0419C1061.96 61.4419 1061.48 64.2419 1058.92 64.2419H1051.72ZM1153.4 13.2819V3.60191H1080.84V13.2819H1109.88C1109.32 16.0819 1108.68 18.9619 1107.88 21.6819H1084.6V75.3619H1094.44V30.5619H1103V72.8819H1112.44V30.5619H1121.24V72.8819H1130.76V30.5619H1140.2V65.2019C1140.2 66.3219 1139.88 66.6419 1138.76 66.6419C1137.64 66.6419 1134.12 66.7219 1130.92 66.5619C1132.12 68.8819 1133.56 72.6419 1133.96 75.2019C1139.32 75.2019 1143.32 74.9619 1146.2 73.6019C1149.08 72.0819 1149.88 69.7619 1149.88 65.2819V21.6819H1118.28C1119.24 19.0419 1120.2 16.2419 1121.16 13.2819H1153.4ZM1206.12 63.7619V47.6819H1230.04V38.4819H1206.12V24.4019H1233.08V15.1219H1206.12V0.721915H1196.12V15.1219H1183.8C1185.16 11.4419 1186.44 7.68191 1187.56 3.84191L1177.72 1.68191C1175 12.5619 1169.8 23.6019 1163.56 30.3219C1165.96 31.6019 1170.2 34.4819 1172.12 36.0019C1174.76 32.8819 1177.24 28.8019 1179.56 24.4019H1196.12V38.4819H1174.44V47.6819H1196.12V63.7619H1165.24V73.1219H1237.16V63.7619H1206.12Z" fill="white"/>
<path d="M873.916 37.216C877.005 33.6952 878.892 29.0886 878.892 24.0287C878.892 12.9708 869.921 4 858.863 4H825.13V72.5193H860.971C872.029 72.5193 881 63.5485 881 52.4906C881 46.366 878.238 40.895 873.916 37.216V37.216ZM836.726 15.5956H858.863C863.522 15.5956 867.296 19.3694 867.296 24.0287C867.296 28.688 863.522 32.4619 858.863 32.4619H836.726V15.5956ZM860.971 60.9237H836.726V44.0574H860.971C865.631 44.0574 869.404 47.8313 869.404 52.4906C869.404 57.1499 865.631 60.9237 860.971 60.9237Z" fill="white"/>
<path d="M703.904 60.9237V4H692.309V60.9237V72.5193H703.904H742.907V60.9237H703.904Z" fill="white"/>
<path d="M784.05 4L751.34 72.5193H763.906L784.04 30.9334L803.963 72.5193H816.697L784.05 4Z" fill="white"/>
<path d="M645.136 16.6496V5.05408L596.645 5.05408V16.6496L645.136 16.6496Z" fill="white"/>
<path d="M645.136 71.465V59.8695H596.645V71.465H645.136Z" fill="white"/>
<path d="M645.136 44.0573V32.4617H596.645V44.0573H645.136Z" fill="white"/>
<path d="M494.393 4H443.794V15.5956H463.296V72.5193H474.891V15.5956H494.393V4Z" fill="white"/>
<path d="M514.422 4H502.826V72.5193H514.422V4Z" fill="white"/>
<path d="M339.466 4L306.756 72.5193H319.321L339.455 30.9334L359.379 72.5193H372.113L339.466 4Z" fill="white"/>
<path d="M555.565 72.5193L522.855 4H535.42L555.555 45.5859L575.478 4H588.212L555.565 72.5193Z" fill="white"/>
<path d="M424.788 51.8265C420.624 57.3396 414.014 60.9237 406.572 60.9237C394.007 60.9237 383.771 50.7618 383.771 38.2596C383.771 25.7575 393.996 15.5956 406.572 15.5956C414.014 15.5956 420.613 19.1691 424.777 24.6717L435.35 19.4221C429.184 10.1351 418.6 4 406.572 4C387.545 4 372.112 19.3378 372.112 38.2596C372.112 57.1815 387.545 72.5193 406.572 72.5193C418.611 72.5193 429.205 66.3736 435.361 57.0761L424.788 51.8159V51.8265Z" fill="white"/>
<path d="M277.071 59.8695H265.476V71.4651H277.071V59.8695Z" fill="white"/>
<path d="M117.453 16.6496V5.05408L68.9621 5.05408V16.6496L117.453 16.6496Z" fill="white"/>
<path d="M117.453 71.465V59.8695H68.9621V71.465H117.453Z" fill="white"/>
<path d="M117.453 44.0573V32.4617H68.9621V44.0573H117.453Z" fill="white"/>
<path d="M35.8409 4H0V72.5193H11.5956V46.1657H35.8409C47.4891 46.1657 56.9237 36.7311 56.9237 25.0829C56.9237 13.4346 47.4891 4 35.8409 4ZM35.8409 34.5701H11.5956V15.5956H35.8409C41.08 15.5956 45.3281 19.8438 45.3281 25.0829C45.3281 30.3219 41.08 34.5701 35.8409 34.5701Z" fill="white"/>
<path d="M188.344 25.0829C188.344 13.4346 178.909 4 167.261 4H131.42V72.5193H143.015V46.1657H154.948L174.113 72.5193H187.817L168.6 46.1025C179.615 45.4067 188.344 36.2779 188.344 25.0829V25.0829ZM167.261 34.5701H143.015V15.5956H167.261C172.5 15.5956 176.748 19.8438 176.748 25.0829C176.748 30.3219 172.5 34.5701 167.261 34.5701Z" fill="white"/>
<path d="M219.262 15.5956H254.048V4H219.262C208.204 4 199.233 12.9708 199.233 24.0287C199.233 35.0867 208.204 44.0574 219.262 44.0574H236.128C240.787 44.0574 244.561 47.8313 244.561 52.4906C244.561 57.1499 240.787 60.9237 236.128 60.9237H201.341V72.5193H236.128C247.186 72.5193 256.157 63.5485 256.157 52.4906C256.157 41.4326 247.186 32.4619 236.128 32.4619H219.262C214.602 32.4619 210.828 28.688 210.828 24.0287C210.828 19.3694 214.602 15.5956 219.262 15.5956Z" fill="white"/>
</svg>
