<svg width="51" height="51" viewBox="0 0 51 51" fill="none" xmlns="http://www.w3.org/2000/svg">
<path d="M50.1465 26.0586C50.6191 25.3867 50.6191 24.6133 50.1465 23.9375C49.3184 22.7539 46.5293 21.4922 41.2012 21.4922C38.3262 21.4922 35.0488 21.8555 31.4551 22.5742L31.2598 22.6133L31.4238 22.5039C35.7285 19.6328 39.1465 16.6523 41.3066 13.8828C43.0449 11.6562 43.9082 9.62891 43.6777 8.32031C43.5371 7.50781 42.9902 6.96484 42.1777 6.82031C42.041 6.79687 41.8965 6.78516 41.7441 6.78516C40.9199 6.78516 39.0996 7.14453 36.1816 9.53906C33.541 11.7031 30.7129 15.0039 27.9941 19.0781L27.8848 19.2422L27.9238 19.0469C28.9395 13.9727 29.248 9.44531 28.8145 5.96484C28.4668 3.16016 27.6465 1.11719 26.5605 0.355469C26.2246 0.121094 25.8691 0 25.502 0C25.1348 0 24.7793 0.121094 24.4434 0.355469C23.3574 1.11719 22.5332 3.16406 22.1895 5.96484C21.7598 9.44922 22.0684 13.9727 23.0801 19.0469L23.1191 19.2422L23.0098 19.0781C20.291 15.0039 17.459 11.707 14.8184 9.53906C11.9004 7.14453 10.0801 6.78906 9.25586 6.78906C9.10352 6.78906 8.95898 6.80078 8.82617 6.82422C8.01367 6.96484 7.4707 7.51172 7.32617 8.32422C7.0957 9.63281 7.96289 11.6602 9.69727 13.8867C11.8574 16.6523 15.2754 19.6367 19.5801 22.5078L19.7441 22.6172L19.5488 22.5781C15.9551 21.8594 12.6738 21.4961 9.80273 21.4961C4.4707 21.4961 1.68555 22.7578 0.853516 23.9414C0.380859 24.6133 0.380859 25.3867 0.853516 26.0625C1.68164 27.2461 4.4707 28.5078 9.79883 28.5078C12.6738 28.5078 15.9512 28.1445 19.5488 27.4258L19.7441 27.3867L19.5801 27.4961C15.2754 30.3672 11.8574 33.3477 9.69727 36.1172C7.95898 38.3438 7.0957 40.3711 7.32617 41.6797C7.4668 42.4922 8.01367 43.0352 8.82617 43.1797C8.95898 43.2031 9.10352 43.2148 9.25586 43.2148C10.0801 43.2148 11.8965 42.8555 14.8184 40.4648C17.459 38.3008 20.291 35 23.0098 30.9258L23.1191 30.7617L23.0801 30.957C22.0645 36.0312 21.7559 40.5586 22.1895 44.0391C22.5371 46.8438 23.3574 48.8867 24.4434 49.6484C24.7793 49.8828 25.1348 50.0039 25.502 50.0039C25.8691 50.0039 26.2246 49.8828 26.5605 49.6484C27.6465 48.8867 28.4707 46.8398 28.8145 44.0391C29.2441 40.5547 28.9355 36.0312 27.9238 30.957L27.8848 30.7617L27.9941 30.9258C30.7129 35 33.5449 38.2969 36.1855 40.4648C39.1035 42.8594 40.9238 43.2148 41.748 43.2148C41.9004 43.2148 42.0449 43.2031 42.1816 43.1797C42.9941 43.0391 43.5371 42.4922 43.6816 41.6797C43.9121 40.3711 43.0449 38.3438 41.3105 36.1172C39.1504 33.3516 35.7324 30.3672 31.4277 27.4961L31.2637 27.3867L31.459 27.4258C35.0527 28.1445 38.334 28.5078 41.2051 28.5078C46.5371 28.5078 49.3223 27.2461 50.1504 26.0625L50.1465 26.0586ZM35.8457 10.9648C38.1699 8.84766 40.2988 7.62891 41.6895 7.62891C41.8105 7.62891 41.9277 7.63672 42.0332 7.65625C42.502 7.73828 42.7598 7.99609 42.8418 8.46484C42.9473 9.07422 42.873 10.8672 39.8496 14.3008C38.0723 16.3203 34.7246 19.4922 28.8574 23.1367H28.8535L28.8457 23.1406C28.127 23.3125 27.5176 23.4609 26.9277 23.6172L26.8613 23.6328L26.877 23.5664C27.0293 22.9766 27.1816 22.3672 27.3535 21.6484V21.6406L27.3574 21.6367C30.1191 17.1914 33.0527 13.5 35.8457 10.957V10.9648ZM22.916 7.29297C23.2051 2.72656 24.4199 1.40625 24.9277 1.05078C25.123 0.914062 25.3105 0.847656 25.498 0.847656C25.6855 0.847656 25.873 0.914062 26.0684 1.05078C26.5762 1.40625 27.791 2.73047 28.0801 7.29297C28.252 9.97656 28.127 14.5859 26.5566 21.3125V21.3203L26.5527 21.3242C26.166 21.9531 25.8418 22.4922 25.5332 23.0195L25.498 23.0781L25.4629 23.0195C25.1543 22.4922 24.8301 21.9531 24.4434 21.3242V21.3125C22.873 14.5859 22.748 9.97656 22.9199 7.29297H22.916ZM25.748 25.5L25.8262 25.793L25.6738 25.5273L25.498 25.2188L25.3223 25.5273L25.1699 25.793L25.248 25.5L25.3418 25.1562L24.998 25.25L24.7012 25.332L24.9668 25.1797L25.2754 25.0039L24.9668 24.8281L24.7012 24.6758L24.998 24.7578L25.3418 24.8516L25.248 24.5078L25.1699 24.2148L25.3223 24.4805L25.498 24.7891L25.6738 24.4805L25.8262 24.2148L25.748 24.5078L25.6543 24.8516L25.998 24.7578L26.2949 24.6758L26.0293 24.8281L25.7207 25.0039L26.0293 25.1797L26.2949 25.332L25.998 25.25L25.6543 25.1562L25.748 25.5ZM11.1543 14.3047C8.13086 10.8711 8.05664 9.07812 8.16211 8.46875C8.24414 8 8.50195 7.74219 8.9707 7.66016C9.07617 7.64062 9.19336 7.63281 9.31445 7.63281C10.7012 7.63281 12.8301 8.84766 15.1582 10.9648C17.9473 13.5078 20.8848 17.1992 23.6465 21.6445V21.6562C23.8184 22.3789 23.9707 22.9883 24.123 23.5742L24.1387 23.6406L24.0723 23.625C23.4824 23.4688 22.873 23.3203 22.1543 23.1484H22.1465L22.1426 23.1445C16.2754 19.4961 12.9277 16.3281 11.1504 14.3086L11.1543 14.3047ZM9.70508 27.6406C5.57227 27.6406 2.44727 26.8477 1.55273 25.5703C1.2793 25.1797 1.2793 24.8164 1.55273 24.4258C2.44727 23.1484 5.57227 22.3555 9.70508 22.3555C13.2402 22.3555 17.3145 22.8867 21.8184 23.9375H21.8262L21.8301 23.9414C22.459 24.332 22.998 24.6562 23.5215 24.9609L23.5801 24.9961L23.5215 25.0312C22.9941 25.3398 22.4551 25.6641 21.8262 26.0508H21.8223L21.8145 26.0547C17.377 27.0898 13.1895 27.6367 9.70117 27.6367L9.70508 27.6406ZM15.1582 39.0312C12.834 41.1484 10.7051 42.3672 9.31445 42.3672C9.19336 42.3672 9.08008 42.3594 8.9707 42.3398C8.50195 42.2578 8.24414 42 8.16211 41.5312C8.05664 40.9219 8.13086 39.1289 11.1543 35.6953C12.9316 33.6758 16.2793 30.5078 22.1465 26.8594H22.1504L22.1582 26.8555C22.8809 26.6836 23.4902 26.5352 24.0762 26.3789L24.1426 26.3633L24.127 26.4297C23.9707 27.0195 23.8223 27.6289 23.6504 28.3477V28.3555L23.6465 28.3594C20.8848 32.8047 17.9512 36.4961 15.1621 39.0391L15.1582 39.0312ZM28.084 42.7031C27.7949 47.2695 26.5801 48.5898 26.0723 48.9453C25.877 49.082 25.6895 49.1484 25.502 49.1484C25.3145 49.1484 25.127 49.082 24.9316 48.9453C24.4238 48.5898 23.2129 47.2656 22.9199 42.7031C22.748 40.0195 22.873 35.4102 24.4434 28.6836V28.6758L24.4473 28.6719C24.834 28.043 25.1582 27.5039 25.4668 26.9766L25.502 26.918L25.5371 26.9766C25.8457 27.5039 26.1777 28.0586 26.5566 28.6719V28.6836C28.127 35.4102 28.252 40.0195 28.0801 42.7031H28.084ZM39.8496 35.6914C42.873 39.125 42.9473 40.918 42.8418 41.5273C42.7598 41.9961 42.502 42.2539 42.0332 42.3359C41.9277 42.3555 41.8105 42.3633 41.6895 42.3633C40.3027 42.3633 38.1738 41.1484 35.8496 39.0312C33.0605 36.4883 30.123 32.7969 27.3613 28.3516V28.3398C27.1895 27.6172 27.041 27.0078 26.8848 26.4219L26.8691 26.3555L26.9355 26.3711C27.5254 26.5273 28.1348 26.6758 28.8535 26.8477H28.8613L28.8652 26.8516C34.7324 30.5 38.0801 33.668 39.8574 35.6875L39.8496 35.6914ZM49.4512 25.5703C48.5566 26.8477 45.4316 27.6406 41.2988 27.6406C37.7637 27.6406 33.6895 27.1094 29.1855 26.0586H29.1777L29.1738 26.0547C28.541 25.6641 28.0059 25.3398 27.4785 25.0352L27.4199 25L27.4785 24.9648C28.002 24.6562 28.541 24.332 29.1699 23.9453H29.1738L29.1816 23.9414C33.6191 22.9062 37.8066 22.3594 41.2949 22.3594C45.4277 22.3594 48.5527 23.1523 49.4473 24.4297C49.7207 24.8203 49.7207 25.1836 49.4473 25.5742L49.4512 25.5703Z" fill="#1E1E1E"/>
</svg>
