<svg width="51" height="50" viewBox="0 0 51 50" fill="none" xmlns="http://www.w3.org/2000/svg">
<g clip-path="url(#clip0_3016_5129)">
<path d="M25.5036 50.0001C14.8998 50.0001 5.41519 43.2809 1.90749 33.2847C1.86134 33.1578 1.88826 33.0116 1.97672 32.9078C2.06519 32.804 2.20365 32.754 2.33826 32.777C2.73826 32.8463 3.13826 32.8232 3.49596 32.7116C4.86134 32.277 5.46519 30.7655 5.66134 30.1386C5.88442 29.404 5.98442 28.6463 6.09211 27.8463C6.15365 27.3693 6.21903 26.8732 6.31519 26.3886C6.44211 25.7001 6.69596 24.704 7.41134 24.0193C8.11903 23.3386 9.06519 23.1386 9.98442 22.9424C10.8344 22.7616 11.6421 22.5886 12.1883 22.054C13.1075 21.1655 12.9844 19.6386 12.7152 18.1232C12.5421 17.1078 12.3498 16.2193 11.769 15.6078C10.8767 14.6693 9.35365 14.6847 7.98057 14.827H7.94211C6.46134 14.9847 4.78057 15.1578 3.49596 14.2232C3.43442 14.1809 3.37288 14.1309 3.31134 14.0693C3.19211 13.9501 3.16519 13.7693 3.24211 13.6232C7.08826 6.09626 14.3883 1.06165 22.769 0.157799C22.9421 0.138569 23.1152 0.242415 23.1729 0.411646C23.2306 0.580876 23.1652 0.765492 23.0152 0.861646C22.9267 0.919338 22.8383 0.984723 22.746 1.05011C22.6498 1.12318 22.5421 1.20011 22.4306 1.27703C21.9036 1.65011 21.3036 2.07703 21.1306 2.58088C21.0152 2.91549 20.9229 3.27318 20.8267 3.65011C20.7267 4.03472 20.6267 4.43472 20.4921 4.81934C20.046 6.13088 19.4806 8.6578 20.6806 10.8001C21.2536 11.8078 22.1613 12.6309 23.0344 13.427C23.3075 13.677 23.5806 13.9232 23.846 14.1809C25.4036 15.6693 26.169 17.0924 26.1883 18.5232C26.1883 18.9963 26.1075 19.4463 26.0306 19.8847C25.9767 20.1963 25.9229 20.4886 25.8998 20.7809C25.869 21.1463 25.8613 22.0501 26.4267 22.4963C26.6306 22.6616 26.919 22.7732 27.3229 22.8386C28.2844 22.9924 29.3575 22.8501 30.7036 22.3924C30.9883 22.2963 31.269 22.1886 31.5536 22.0809C32.2267 21.8232 32.9229 21.5616 33.6575 21.4116C34.9152 21.1616 36.0652 21.3347 36.896 21.9078C37.5575 22.3655 37.9729 23.0309 38.3767 23.6732C38.719 24.2193 39.046 24.7386 39.4998 25.1078C40.3498 25.8001 41.5613 25.9078 42.6306 25.954C42.9729 25.9693 43.3036 25.977 43.5921 25.8924C43.9806 25.7847 44.3344 25.504 44.6767 25.2347C45.8306 24.3193 47.0652 23.4193 48.5498 23.2155C48.8729 23.1693 49.2036 23.154 49.5229 23.1424C49.6921 23.1347 49.8613 23.127 50.0306 23.1155C50.1306 23.1078 50.2344 23.1424 50.3113 23.2078C50.3883 23.2732 50.4344 23.3693 50.4421 23.4732C50.4767 23.9809 50.496 24.4809 50.496 25.0001C50.496 32.8116 46.9498 40.0193 40.7652 44.7809C40.6652 44.8578 40.5383 44.8809 40.419 44.8424C40.2998 44.8078 40.2075 44.7155 40.1652 44.5963C40.1344 44.5078 40.0998 44.4193 40.0536 44.3347C39.6498 43.5193 38.9152 42.877 38.1921 42.2886C37.9267 42.0693 37.6267 41.8232 37.4575 41.454C37.2229 40.8847 37.4036 40.2963 37.546 39.8232L37.5613 39.7732C37.869 38.7616 37.9344 37.9309 37.7652 37.227C37.5883 36.5309 37.0498 35.7578 36.246 35.604C35.396 35.4309 34.5652 36.0155 34.1536 36.627C33.619 37.4155 33.469 38.427 33.3998 39.2193L33.369 39.5616C33.3036 40.354 33.2383 41.1693 32.8267 41.8963C32.1806 43.0424 30.969 43.5078 29.796 43.9578C28.8844 44.3078 28.0229 44.6386 27.4152 45.2616C26.7575 45.9309 26.4075 47.0001 26.4536 48.1963C26.469 48.5193 26.5037 49.0155 26.5729 49.5463C26.5883 49.6501 26.5575 49.7578 26.4921 49.8386C26.4267 49.9193 26.3267 49.9732 26.2229 49.9809C25.9806 50.0001 25.7498 50.0001 25.5036 50.0001ZM2.83826 33.5847C6.39211 42.9655 15.4229 49.2309 25.5036 49.2309C25.5921 49.2309 25.6767 49.2309 25.7613 49.2309C25.719 48.8386 25.696 48.4847 25.6844 48.2309C25.6306 46.8232 26.0613 45.5463 26.8652 44.727C27.5921 43.9847 28.5729 43.6078 29.5229 43.2424C30.6152 42.8232 31.6498 42.427 32.1613 41.5193C32.4921 40.9424 32.546 40.2424 32.6075 39.5001L32.6383 39.1501C32.719 38.2655 32.8921 37.1309 33.5229 36.1963C34.0921 35.354 35.1998 34.6078 36.3998 34.8501C37.3806 35.0386 38.2344 35.9193 38.519 37.0424C38.7229 37.8847 38.6536 38.8501 38.3036 39.9963L38.2883 40.0463C38.169 40.4386 38.046 40.8463 38.169 41.1501C38.2575 41.3463 38.4767 41.5232 38.6844 41.6963C39.4344 42.3078 40.2075 42.9809 40.6844 43.8693C46.4383 39.254 49.7306 32.4078 49.7306 25.0001C49.7306 24.627 49.7229 24.2655 49.7037 23.904C49.6575 23.904 49.6075 23.904 49.5575 23.9078C49.246 23.9193 48.9498 23.9309 48.6613 23.9732C47.3652 24.154 46.2267 24.9847 45.1729 25.8193C44.7729 26.1386 44.3383 26.4809 43.8075 26.6309C43.4075 26.7501 42.9883 26.7424 42.596 26.7232C41.4075 26.6693 40.0498 26.5424 39.0152 25.704C38.4613 25.254 38.0883 24.6578 37.7229 24.0809C37.346 23.477 36.9883 22.9078 36.4575 22.5424C35.569 21.9309 34.4152 22.0463 33.8036 22.1655C33.1344 22.3001 32.469 22.554 31.8229 22.7963C31.5306 22.9078 31.2421 23.0155 30.9498 23.1193C29.4806 23.6193 28.2883 23.7732 27.1998 23.5963C26.6613 23.5116 26.2498 23.3463 25.9421 23.0963C25.346 22.6232 25.046 21.7578 25.1306 20.7193C25.1575 20.3886 25.2152 20.0655 25.2729 19.7501C25.346 19.327 25.419 18.927 25.419 18.527C25.4075 17.3155 24.719 16.0732 23.3152 14.7347C23.0536 14.4847 22.7883 14.2386 22.519 13.9963C21.5998 13.1578 20.646 12.2924 20.0113 11.177C19.0113 9.39241 18.9229 7.04626 19.7652 4.56934C19.8883 4.21165 19.9883 3.83088 20.0806 3.4578C20.1767 3.08088 20.2767 2.69241 20.3998 2.32703C20.5652 1.84626 20.9344 1.4578 21.3344 1.12703C13.9652 2.40011 7.60365 7.00395 4.06903 13.6886C5.11519 14.3501 6.50749 14.2078 7.85749 14.0693H7.89596C9.36519 13.9155 11.1921 13.8963 12.319 15.0809C13.1113 15.9116 13.3152 17.1155 13.4652 17.9924C13.7575 19.6309 13.896 21.4655 12.7152 22.604C12.0113 23.2924 11.0575 23.4963 10.1383 23.6924C9.28826 23.8732 8.48826 24.0463 7.93826 24.5732C7.51134 24.9809 7.24211 25.5847 7.06519 26.527C6.97672 26.9924 6.91134 27.477 6.8498 27.9424C6.74596 28.7386 6.63442 29.5655 6.39211 30.3616C5.8998 31.9347 4.93057 33.054 3.72672 33.4386C3.44211 33.5309 3.14211 33.577 2.83442 33.5809L2.83826 33.5847Z" fill="#1E1E1E"/>
<path d="M26.1924 49.9847C26.0001 49.9847 25.8385 49.8424 25.8116 49.6501C25.7385 49.0924 25.7039 48.5731 25.6847 48.2308C25.6308 46.8231 26.0616 45.5462 26.8655 44.727C27.5924 43.9847 28.5731 43.6077 29.5231 43.2424C30.6154 42.8231 31.6501 42.427 32.1616 41.5193C32.4924 40.9424 32.5462 40.2424 32.6078 39.5001L32.6385 39.1501C32.7193 38.2654 32.8924 37.1308 33.5231 36.1962C34.0924 35.3539 35.2001 34.6077 36.4001 34.8501C37.3808 35.0385 38.2347 35.9193 38.5193 37.0424C38.7231 37.8847 38.6539 38.8501 38.3039 39.9962L38.2885 40.0462C38.1693 40.4385 38.0462 40.8462 38.1693 41.1501C38.2578 41.3462 38.477 41.5231 38.6847 41.6962C39.4693 42.3385 40.277 43.0424 40.7462 43.9924C40.8039 44.1116 40.8578 44.2347 40.8962 44.3539C40.9462 44.5077 40.8962 44.6808 40.7693 44.7808C36.5693 48.0424 31.5308 49.8424 26.2039 49.9808H26.1924V49.9847ZM35.9462 35.5808C35.2078 35.5808 34.5193 36.0962 34.1578 36.6347C33.6231 37.4231 33.4731 38.4347 33.4039 39.227L33.3731 39.5693C33.3078 40.3616 33.2424 41.177 32.8308 41.9039C32.1847 43.0501 30.9731 43.5154 29.8001 43.9654C28.8885 44.3154 28.027 44.6462 27.4193 45.2693C26.7616 45.9385 26.4116 47.0077 26.4578 48.2039C26.4693 48.4539 26.4924 48.8116 26.5347 49.2078C31.4731 49.0116 36.1385 47.3385 40.0693 44.3616C40.0693 44.3577 40.0655 44.3501 40.0616 44.3462C39.6578 43.5308 38.9231 42.8885 38.2001 42.3001C37.9347 42.0808 37.6347 41.8347 37.4655 41.4654C37.2308 40.8962 37.4116 40.3077 37.5539 39.8347L37.5693 39.7847C37.877 38.7731 37.9424 37.9424 37.7731 37.2385C37.5962 36.5424 37.0578 35.7693 36.2539 35.6154C36.1501 35.5962 36.0501 35.5847 35.9501 35.5847L35.9462 35.5808Z" fill="#1E1E1E"/>
<path d="M2.79231 33.5884C2.59615 33.5884 2.4 33.5731 2.20385 33.5346C2.06538 33.5115 1.95385 33.4154 1.90769 33.2846C0.973077 30.6269 0.5 27.8423 0.5 25.0038C0.5 21.0423 1.44615 17.1077 3.23846 13.6269C3.29615 13.5192 3.4 13.4423 3.52308 13.4231C3.64615 13.4038 3.76923 13.4423 3.85385 13.5307C3.88077 13.5577 3.90385 13.5769 3.93462 13.5961C4.99231 14.3654 6.45385 14.2154 7.86154 14.0692H7.9C9.36923 13.9154 11.1962 13.8961 12.3231 15.0807C13.1154 15.9115 13.3192 17.1154 13.4692 17.9923C13.7615 19.6307 13.9 21.4654 12.7231 22.6038C12.0192 23.2923 11.0654 23.4961 10.1462 23.6923C9.29615 23.8731 8.49615 24.0461 7.94615 24.5731C7.51923 24.9807 7.25 25.5846 7.07308 26.5269C6.98462 26.9923 6.91923 27.4769 6.85769 27.9423C6.75385 28.7384 6.64231 29.5654 6.4 30.3615C5.90769 31.9346 4.93846 33.0538 3.73462 33.4384C3.43846 33.5346 3.11923 33.5807 2.79615 33.5807L2.79231 33.5884ZM2.55769 32.8077C2.88462 32.8384 3.20385 32.8077 3.49615 32.7115C4.86154 32.2769 5.46538 30.7654 5.66154 30.1384C5.88462 29.4038 5.98462 28.6461 6.09231 27.8461C6.15385 27.3692 6.21923 26.8731 6.31538 26.3884C6.44231 25.7 6.69615 24.7038 7.41154 24.0192C8.11923 23.3384 9.06538 23.1384 9.98462 22.9423C10.8346 22.7615 11.6423 22.5884 12.1885 22.0538C13.1038 21.1654 12.9846 19.6423 12.7154 18.1269C12.5423 17.1115 12.35 16.2231 11.7692 15.6115C10.8769 14.6731 9.35385 14.6884 7.98077 14.8307H7.94231C6.54615 14.9807 4.97692 15.1384 3.72308 14.3807C2.09615 17.6884 1.27308 21.2615 1.27308 25.0077C1.27308 27.6769 1.70769 30.3 2.56154 32.8115L2.55769 32.8077Z" fill="#1E1E1E"/>
<path d="M42.9846 26.7423C42.8538 26.7423 42.7231 26.7385 42.5961 26.7308C41.4077 26.6769 40.05 26.55 39.0154 25.7115C38.4615 25.2615 38.0885 24.6654 37.7231 24.0885C37.3461 23.4846 36.9885 22.9154 36.4577 22.55C35.5692 21.9385 34.4154 22.0538 33.8038 22.1731C33.1346 22.3077 32.4692 22.5615 31.8231 22.8038C31.5308 22.9154 31.2423 23.0231 30.95 23.1269C29.4808 23.6269 28.2885 23.7808 27.2 23.6038C26.6615 23.5192 26.25 23.3538 25.9423 23.1038C25.3461 22.6308 25.0461 21.7654 25.1308 20.7269C25.1577 20.3962 25.2154 20.0731 25.2731 19.7577C25.3461 19.3346 25.4192 18.9346 25.4192 18.5346C25.4077 17.3231 24.7192 16.0808 23.3154 14.7423C23.0538 14.4923 22.7885 14.2462 22.5192 14.0038C21.6 13.1654 20.6461 12.3 20.0115 11.1846C19.0115 9.4 18.9231 7.05385 19.7654 4.57692C19.8885 4.21923 19.9885 3.83846 20.0808 3.46538C20.1769 3.08846 20.2769 2.7 20.4 2.33462C20.6538 1.59615 21.3885 1.07308 21.9808 0.653846C22.0885 0.576923 22.1885 0.503846 22.2846 0.434615C22.3885 0.357692 22.4923 0.284615 22.5961 0.219231C22.6461 0.188462 22.7 0.169231 22.7577 0.161538C23.6461 0.0538462 24.5692 0 25.4961 0C38.7 0 49.6577 10.3154 50.4385 23.4808C50.45 23.6923 50.2923 23.8731 50.0808 23.8885C49.9038 23.9 49.7269 23.9077 49.5461 23.9154C49.2346 23.9269 48.9385 23.9385 48.65 23.9808C47.3538 24.1615 46.2154 24.9923 45.1615 25.8269C44.7615 26.1462 44.3269 26.4885 43.7961 26.6385C43.5269 26.7192 43.2461 26.7423 42.9692 26.7423H42.9846ZM34.7461 21.3077C35.5731 21.3077 36.3154 21.5154 36.8961 21.9154C37.5577 22.3731 37.9731 23.0385 38.3769 23.6808C38.7192 24.2269 39.0461 24.7462 39.5 25.1154C40.35 25.8077 41.5615 25.9154 42.6308 25.9615C42.9731 25.9769 43.3038 25.9846 43.5923 25.9C43.9808 25.7923 44.3346 25.5115 44.6769 25.2423C45.8308 24.3269 47.0654 23.4269 48.55 23.2231C48.8731 23.1769 49.2038 23.1615 49.5231 23.15C49.5654 23.15 49.6077 23.15 49.65 23.1462C48.7077 10.5654 38.1731 0.769231 25.5038 0.769231C24.6385 0.769231 23.7769 0.819231 22.9461 0.911538C22.8808 0.957692 22.8154 1.00385 22.75 1.05C22.6538 1.12308 22.5461 1.2 22.4346 1.27692C21.9077 1.65 21.3077 2.07692 21.1346 2.58077C21.0192 2.91538 20.9269 3.27308 20.8308 3.65C20.7308 4.03462 20.6308 4.43462 20.4961 4.81923C20.05 6.13077 19.4846 8.65769 20.6846 10.8C21.2577 11.8077 22.1654 12.6308 23.0385 13.4269C23.3115 13.6769 23.5846 13.9231 23.85 14.1808C25.4077 15.6692 26.1731 17.0923 26.1923 18.5231C26.1923 18.9962 26.1115 19.4462 26.0346 19.8846C25.9808 20.1962 25.9269 20.4885 25.9038 20.7808C25.8731 21.1462 25.8654 22.05 26.4308 22.4962C26.6346 22.6615 26.9231 22.7731 27.3269 22.8385C28.2885 22.9923 29.3615 22.85 30.7077 22.3923C30.9923 22.2962 31.2731 22.1885 31.5577 22.0808C32.2308 21.8231 32.9269 21.5615 33.6615 21.4115C34.0346 21.3385 34.4 21.3 34.75 21.3L34.7461 21.3077Z" fill="#1E1E1E"/>
</g>
<defs>
<clipPath id="clip0_3016_5129">
<rect width="50" height="50" fill="white" transform="translate(0.5)"/>
</clipPath>
</defs>
</svg>
