<svg width="51" height="50" viewBox="0 0 51 50" fill="none" xmlns="http://www.w3.org/2000/svg">
<path d="M49.7033 27.6614C48.2994 25.231 45.0799 22.7314 40.772 20.551C41.6413 19.1858 42.4067 17.8476 43.0375 16.5555C45.403 11.7101 45.7069 8.03767 43.8837 6.21874C41.499 3.83837 36.0563 5.18045 29.6867 9.22209C27.5673 5.16892 25.171 2.15018 22.8363 0.800404C21.5054 0.0351458 20.24 -0.184049 19.0707 0.154357C16.0205 1.03883 14.2781 5.54962 14.0357 11.9255C12.7203 11.964 11.6433 12.9407 11.451 14.2136C5.59292 14.5866 1.49267 16.3055 0.654161 19.1974C0.315679 20.3664 0.531077 21.6354 1.30035 22.966C2.60428 25.2233 5.47753 27.5422 9.33546 29.611C5.34675 35.9331 4.03514 41.3245 6.40066 43.6933C7.20071 44.4932 8.34309 44.8739 9.75087 44.8739C12.5472 44.8739 16.382 43.3703 20.6285 40.6746C22.7594 44.7778 25.1787 47.8388 27.5327 49.1963C28.4559 49.7308 29.3521 50 30.2021 50C30.5752 50 30.9445 49.95 31.2983 49.8462C34.2254 48.9963 35.9525 44.8085 36.2986 38.8365C37.5602 38.7134 38.5603 37.7213 38.7065 36.4676C45.0145 36.21 49.4687 34.4679 50.3456 31.4377C50.6841 30.2686 50.4687 28.9996 49.6994 27.6691L49.7033 27.6614ZM40.5681 5.81118C41.7451 5.81118 42.6952 6.11498 43.3375 6.76103C45.43 8.85299 43.9452 14.1098 40.0565 20.1973C37.9487 19.1744 35.6024 18.2322 33.0946 17.4054C32.2022 14.6982 31.1752 12.1794 30.0559 9.94512C34.2023 7.31478 37.9564 5.81118 40.5681 5.81118ZM33.4062 35.5716C31.7291 35.4447 29.979 35.2332 28.1751 34.9371C29.3713 33.8834 30.5714 32.7605 31.7637 31.5684C32.86 30.4724 33.91 29.3534 34.9062 28.2305C35.1909 30.0533 35.3832 31.8222 35.4909 33.5066C34.4524 33.7219 33.6331 34.5333 33.4062 35.5678V35.5716ZM31.2176 31.0261C29.8867 32.3566 28.5366 33.6026 27.1827 34.7639C25.8095 34.5178 24.4133 34.2217 22.9978 33.8756C21.29 33.4565 19.6322 32.9758 18.0398 32.4528C17.5129 30.8607 17.0359 29.2033 16.6167 27.4959C16.209 25.8346 15.8705 24.1926 15.6012 22.5929C16.6859 21.3469 17.8437 20.101 19.0668 18.8781C20.2092 17.736 21.367 16.6554 22.5286 15.6363C24.3094 15.9209 26.1442 16.2901 28.0058 16.7438C29.5444 17.1207 31.0406 17.5475 32.4869 18.0128C32.9523 19.4588 33.3754 20.9548 33.7562 22.493C34.1523 24.1043 34.4793 25.6925 34.7447 27.246C33.6446 28.5151 32.4676 29.7803 31.2214 31.03L31.2176 31.0261ZM26.425 35.4101C24.5595 36.9675 22.6978 38.3481 20.9015 39.5286C19.9784 37.6597 19.1168 35.5831 18.3475 33.3604C19.7899 33.8257 21.2862 34.2487 22.817 34.6256C24.0364 34.9256 25.2403 35.1832 26.425 35.4101ZM17.1321 32.1491C14.7127 31.3069 12.4626 30.3609 10.4624 29.3457C11.7279 27.4037 13.2357 25.381 14.9473 23.3544C15.2012 24.7695 15.5051 26.2155 15.8666 27.6806C16.2436 29.2111 16.6667 30.7032 17.1321 32.1491ZM16.7705 14.9981C18.2898 15.0904 19.8823 15.2519 21.5208 15.4903C20.5208 16.3901 19.5168 17.34 18.5206 18.336C17.4359 19.4204 16.409 20.5125 15.4397 21.6008C15.2089 20.0818 15.0397 18.6013 14.9281 17.1785C15.8974 16.8708 16.6244 16.0287 16.7705 14.9981ZM23.2863 14.9788C25.3557 13.2137 27.425 11.6602 29.4136 10.3565C30.4214 12.3908 31.3599 14.6674 32.1868 17.1169C30.8868 16.7093 29.5521 16.3363 28.1828 16.0017C26.5173 15.5941 24.8787 15.2557 23.2825 14.9827L23.2863 14.9788ZM34.4985 22.3084C34.1639 20.9432 33.7869 19.605 33.3831 18.3052C35.6294 19.0628 37.7372 19.9203 39.6411 20.8356C38.4257 22.6737 36.9987 24.5773 35.3909 26.4846C35.1409 25.1156 34.8485 23.7236 34.4985 22.3084ZM19.2822 0.892697C19.5668 0.811941 19.8592 0.76964 20.163 0.76964C20.8823 0.76964 21.6477 1.00422 22.4516 1.46568C24.6902 2.75777 26.9981 5.68806 29.0482 9.63357C26.8634 11.0679 24.5825 12.81 22.2824 14.8173C20.3707 14.5212 18.5245 14.3251 16.7705 14.2213C16.6128 13.1522 15.8282 12.287 14.8012 12.0139C15.005 5.97648 16.5551 1.68487 19.2822 0.892697ZM14.1127 12.6908C15.1743 12.6908 16.0359 13.5522 16.0359 14.6135C16.0359 15.6749 15.1743 16.5363 14.1127 16.5363C13.0511 16.5363 12.1895 15.6749 12.1895 14.6135C12.1895 13.5522 13.0511 12.6908 14.1127 12.6908ZM1.96963 22.5814C1.31189 21.4393 1.11573 20.3741 1.39651 19.4127C2.13887 16.8516 5.97756 15.3249 11.451 14.9827C11.6318 16.294 12.7549 17.3092 14.1165 17.3092C14.1319 17.3092 14.1511 17.3092 14.1665 17.3092C14.2935 18.9282 14.4973 20.6164 14.7819 22.3584C12.8318 24.608 11.1433 26.8384 9.74702 28.9765C6.00064 26.9807 3.2197 24.7503 1.96963 22.5891V22.5814ZM6.9507 43.1473C4.88903 41.0861 6.29297 35.9562 10.0586 29.9841C12.2587 31.1108 14.7512 32.1529 17.4398 33.0605C18.2783 35.5447 19.2361 37.8674 20.2669 39.9401C14.2319 43.7741 9.03159 45.22 6.95454 43.1434L6.9507 43.1473ZM31.0906 49.1001C30.129 49.377 29.0636 49.1847 27.9212 48.5272C25.6634 47.2235 23.3325 44.2548 21.2708 40.2554C23.2632 38.948 25.3364 37.3828 27.4289 35.5908C29.4828 35.9485 31.4676 36.2023 33.3561 36.3446C33.4446 37.5713 34.3524 38.5673 35.537 38.7942C35.2255 44.4009 33.6946 48.3464 31.0945 49.104L31.0906 49.1001ZM36.0371 38.0712C34.9755 38.0712 34.1139 37.2098 34.1139 36.1484C34.1139 35.0871 34.9755 34.2257 36.0371 34.2257C37.0987 34.2257 37.9603 35.0871 37.9603 36.1484C37.9603 37.2098 37.0987 38.0712 36.0371 38.0712ZM49.611 31.2145C48.8302 33.9102 44.6184 35.4561 38.6872 35.6868C38.4795 34.4947 37.491 33.5718 36.2679 33.468C36.1448 31.5644 35.914 29.5571 35.5678 27.4805C37.3795 25.3808 38.995 23.262 40.3604 21.1931C44.5645 23.3043 47.6916 25.7154 49.0379 28.0458C49.6956 29.1879 49.8918 30.2531 49.611 31.2145Z" fill="#1E1E1E"/>
</svg>
