<svg width="51" height="50" viewBox="0 0 51 50" fill="none" xmlns="http://www.w3.org/2000/svg">
<path d="M26.5273 1.02734C26.5273 1.59375 26.0664 2.05469 25.5 2.05469C24.9336 2.05469 24.4727 1.59375 24.4727 1.02734C24.4727 0.460938 24.9336 0 25.5 0C26.0664 0 26.5273 0.460938 26.5273 1.02734Z" fill="#1E1E1E"/>
<path d="M21.1641 1.39844C21.2891 1.94922 20.9453 2.5 20.3906 2.62891C19.8398 2.75391 19.2891 2.41016 19.1602 1.85547C19.0352 1.30469 19.3789 0.753906 19.9336 0.625C20.4844 0.5 21.0352 0.84375 21.1641 1.39844Z" fill="#1E1E1E"/>
<path d="M16.0234 2.95312C16.2695 3.46484 16.0547 4.07812 15.543 4.32422C15.0312 4.57031 14.418 4.35547 14.1719 3.84375C13.9258 3.33203 14.1406 2.71875 14.6523 2.47266C15.1641 2.22656 15.7773 2.44141 16.0234 2.95312Z" fill="#1E1E1E"/>
<path d="M11.3555 5.61719C11.707 6.05859 11.6367 6.70703 11.1914 7.05859C10.75 7.41016 10.1016 7.33984 9.75 6.89453C9.39844 6.45312 9.46875 5.80469 9.91406 5.45312C10.3555 5.10156 11.0039 5.17188 11.3555 5.61719Z" fill="#1E1E1E"/>
<path d="M7.39453 9.25C7.83594 9.60156 7.91016 10.25 7.55859 10.6914C7.20703 11.1328 6.55859 11.207 6.11719 10.8555C5.67578 10.5039 5.60156 9.85547 5.95312 9.41406C6.30469 8.97266 6.95312 8.89844 7.39453 9.25Z" fill="#1E1E1E"/>
<path d="M4.34375 13.6719C4.85547 13.918 5.07031 14.5312 4.82422 15.043C4.57812 15.5547 3.96484 15.7695 3.45312 15.5234C2.94141 15.2773 2.72656 14.6641 2.97266 14.1523C3.21875 13.6406 3.83203 13.4258 4.34375 13.6719Z" fill="#1E1E1E"/>
<path d="M2.35547 18.6641C2.90625 18.7891 3.25391 19.3398 3.12891 19.8945C3.00391 20.4453 2.45312 20.793 1.89844 20.668C1.34766 20.543 1 19.9922 1.125 19.4375C1.25 18.8867 1.80078 18.5391 2.35547 18.6641Z" fill="#1E1E1E"/>
<path d="M1.52734 23.9727C2.09375 23.9727 2.55469 24.4336 2.55469 25C2.55469 25.5664 2.09375 26.0273 1.52734 26.0273C0.960938 26.0273 0.5 25.5664 0.5 25C0.5 24.4336 0.960938 23.9727 1.52734 23.9727Z" fill="#1E1E1E"/>
<path d="M1.89844 29.3359C2.44922 29.2109 3 29.5547 3.12891 30.1094C3.25391 30.6602 2.91016 31.2109 2.35547 31.3398C1.80469 31.4648 1.25391 31.1211 1.125 30.5664C1 30.0156 1.34375 29.4648 1.89844 29.3359Z" fill="#1E1E1E"/>
<path d="M3.45703 34.4766C3.96875 34.2305 4.58203 34.4453 4.82812 34.957C5.07422 35.4687 4.85938 36.082 4.34766 36.3281C3.83594 36.5742 3.22266 36.3594 2.97656 35.8477C2.73047 35.3359 2.94531 34.7227 3.45703 34.4766Z" fill="#1E1E1E"/>
<path d="M6.11719 39.1445C6.55859 38.793 7.20703 38.8633 7.55859 39.3086C7.91016 39.75 7.83984 40.3984 7.39453 40.75C6.94922 41.1016 6.30469 41.0313 5.95312 40.5859C5.60156 40.1445 5.67188 39.4961 6.11719 39.1445Z" fill="#1E1E1E"/>
<path d="M9.75 43.1055C10.1016 42.6641 10.75 42.5898 11.1914 42.9414C11.6328 43.293 11.707 43.9414 11.3555 44.3828C11.0039 44.8242 10.3555 44.8984 9.91406 44.5469C9.47266 44.1953 9.39844 43.5469 9.75 43.1055Z" fill="#1E1E1E"/>
<path d="M14.1719 46.1562C14.418 45.6445 15.0312 45.4297 15.543 45.6758C16.0547 45.9219 16.2695 46.5352 16.0234 47.0469C15.7773 47.5586 15.1641 47.7734 14.6523 47.5273C14.1406 47.2812 13.9258 46.668 14.1719 46.1562Z" fill="#1E1E1E"/>
<path d="M19.1641 48.1445C19.2891 47.5938 19.8398 47.2461 20.3945 47.3711C20.9453 47.4961 21.293 48.0469 21.168 48.6016C21.043 49.1523 20.4922 49.5 19.9375 49.375C19.3867 49.25 19.0391 48.6992 19.1641 48.1445Z" fill="#1E1E1E"/>
<path d="M24.4727 48.9727C24.4727 48.4063 24.9336 47.9453 25.5 47.9453C26.0664 47.9453 26.5273 48.4063 26.5273 48.9727C26.5273 49.5391 26.0664 50 25.5 50C24.9336 50 24.4727 49.5391 24.4727 48.9727Z" fill="#1E1E1E"/>
<path d="M29.8359 48.6016C29.7109 48.0508 30.0547 47.5 30.6094 47.3711C31.1602 47.2461 31.7109 47.5898 31.8398 48.1445C31.9648 48.6953 31.6211 49.2461 31.0664 49.375C30.5156 49.5 29.9648 49.1562 29.8359 48.6016Z" fill="#1E1E1E"/>
<path d="M34.9766 47.0469C34.7305 46.5352 34.9453 45.9219 35.457 45.6758C35.9687 45.4297 36.582 45.6445 36.8281 46.1562C37.0742 46.668 36.8594 47.2812 36.3477 47.5273C35.8359 47.7734 35.2227 47.5586 34.9766 47.0469Z" fill="#1E1E1E"/>
<path d="M39.6445 44.3828C39.293 43.9414 39.3633 43.293 39.8086 42.9414C40.2539 42.5898 40.8984 42.6602 41.25 43.1055C41.6016 43.5469 41.5313 44.1953 41.0859 44.5469C40.6445 44.8984 39.9961 44.8281 39.6445 44.3828Z" fill="#1E1E1E"/>
<path d="M43.6055 40.75C43.1641 40.3984 43.0898 39.75 43.4414 39.3086C43.793 38.8672 44.4414 38.793 44.8828 39.1445C45.3242 39.4961 45.3984 40.1445 45.0469 40.5859C44.6953 41.0273 44.0469 41.1016 43.6055 40.75Z" fill="#1E1E1E"/>
<path d="M46.6562 36.3281C46.1445 36.082 45.9297 35.4687 46.1758 34.957C46.4219 34.4453 47.0352 34.2305 47.5469 34.4766C48.0586 34.7227 48.2734 35.3359 48.0273 35.8477C47.7812 36.3594 47.168 36.5742 46.6562 36.3281Z" fill="#1E1E1E"/>
<path d="M48.6445 31.3359C48.0938 31.2109 47.7461 30.6602 47.8711 30.1055C47.9961 29.5547 48.5469 29.207 49.1016 29.332C49.6523 29.457 50 30.0078 49.875 30.5625C49.75 31.1133 49.1992 31.4609 48.6445 31.3359Z" fill="#1E1E1E"/>
<path d="M49.4727 26.0273C48.9063 26.0273 48.4453 25.5664 48.4453 25C48.4453 24.4336 48.9063 23.9727 49.4727 23.9727C50.0391 23.9727 50.5 24.4336 50.5 25C50.5 25.5664 50.0391 26.0273 49.4727 26.0273Z" fill="#1E1E1E"/>
<path d="M49.1016 20.6641C48.5508 20.7891 48 20.4453 47.8711 19.8906C47.7461 19.3398 48.0898 18.7891 48.6445 18.6602C49.1953 18.5352 49.7461 18.8789 49.875 19.4336C50 19.9844 49.6562 20.5352 49.1016 20.6641Z" fill="#1E1E1E"/>
<path d="M47.543 15.5234C47.0312 15.7695 46.418 15.5547 46.1719 15.043C45.9258 14.5312 46.1406 13.918 46.6523 13.6719C47.1641 13.4258 47.7773 13.6406 48.0234 14.1523C48.2695 14.6641 48.0547 15.2773 47.543 15.5234Z" fill="#1E1E1E"/>
<path d="M44.8828 10.8555C44.4414 11.207 43.793 11.1367 43.4414 10.6914C43.0898 10.25 43.1602 9.60156 43.6055 9.25C44.0469 8.89844 44.6953 8.96875 45.0469 9.41406C45.3984 9.85547 45.3281 10.5039 44.8828 10.8555Z" fill="#1E1E1E"/>
<path d="M41.25 6.89453C40.8984 7.33594 40.25 7.41016 39.8086 7.05859C39.3672 6.70703 39.293 6.05859 39.6445 5.61719C39.9961 5.17578 40.6445 5.10156 41.0859 5.45312C41.5273 5.80469 41.6016 6.45312 41.25 6.89453Z" fill="#1E1E1E"/>
<path d="M36.8281 3.84375C36.582 4.35547 35.9687 4.57031 35.457 4.32422C34.9453 4.07812 34.7305 3.46484 34.9766 2.95312C35.2227 2.44141 35.8359 2.22656 36.3477 2.47266C36.8594 2.71875 37.0742 3.33203 36.8281 3.84375Z" fill="#1E1E1E"/>
<path d="M31.8359 1.85547C31.7109 2.40625 31.1602 2.75391 30.6055 2.62891C30.0547 2.50391 29.707 1.95312 29.832 1.39844C29.957 0.847656 30.5078 0.5 31.0625 0.625C31.6133 0.75 31.9609 1.30078 31.8359 1.85547Z" fill="#1E1E1E"/>
<path d="M26.3359 5.47656C26.3359 5.9375 25.9609 6.3125 25.5 6.3125C25.0391 6.3125 24.6641 5.9375 24.6641 5.47656C24.6641 5.01562 25.0391 4.64062 25.5 4.64062C25.9609 4.64062 26.3359 5.01562 26.3359 5.47656Z" fill="#1E1E1E"/>
<path d="M21.9688 5.77734C22.0703 6.22656 21.7891 6.67578 21.3398 6.77734C20.8906 6.87891 20.4414 6.59766 20.3398 6.14844C20.2383 5.69922 20.5195 5.25 20.9688 5.14844C21.418 5.04688 21.8672 5.32812 21.9688 5.77734Z" fill="#1E1E1E"/>
<path d="M17.7812 7.04688C17.9805 7.46094 17.8086 7.96094 17.3906 8.16406C16.9766 8.36328 16.4766 8.19141 16.2734 7.77344C16.0742 7.35938 16.2461 6.85938 16.6641 6.65625C17.0781 6.45703 17.5781 6.62891 17.7812 7.04688Z" fill="#1E1E1E"/>
<path d="M13.9805 9.21484C14.2695 9.57422 14.2109 10.1016 13.8477 10.3906C13.4883 10.6797 12.9609 10.6211 12.6719 10.2578C12.3828 9.89844 12.4453 9.37109 12.8047 9.08203C13.1641 8.79297 13.6914 8.85156 13.9805 9.21484Z" fill="#1E1E1E"/>
<path d="M10.7578 12.1719C11.1172 12.4609 11.1797 12.9844 10.8906 13.3477C10.6016 13.707 10.0781 13.7695 9.71484 13.4805C9.35547 13.1914 9.29297 12.668 9.58203 12.3047C9.87109 11.9453 10.3945 11.8828 10.7578 12.1719Z" fill="#1E1E1E"/>
<path d="M8.26953 15.7773C8.68359 15.9766 8.85938 16.4766 8.66016 16.8945C8.46094 17.3086 7.96094 17.4844 7.54297 17.2852C7.12891 17.0859 6.95313 16.5859 7.15234 16.168C7.35156 15.7539 7.85156 15.5781 8.26953 15.7773Z" fill="#1E1E1E"/>
<path d="M6.65234 19.8398C7.10156 19.9414 7.38281 20.3906 7.28125 20.8398C7.17969 21.2891 6.73047 21.5703 6.28125 21.4688C5.83203 21.3672 5.55078 20.918 5.65234 20.4688C5.75391 20.0195 6.20313 19.7383 6.65234 19.8398Z" fill="#1E1E1E"/>
<path d="M5.97656 24.1641C6.4375 24.1641 6.8125 24.5391 6.8125 25C6.8125 25.4609 6.4375 25.8359 5.97656 25.8359C5.51562 25.8359 5.14062 25.4609 5.14062 25C5.14062 24.5391 5.51562 24.1641 5.97656 24.1641Z" fill="#1E1E1E"/>
<path d="M6.27734 28.5313C6.72656 28.4297 7.17578 28.7109 7.27734 29.1602C7.37891 29.6094 7.09766 30.0586 6.64844 30.1602C6.19922 30.2617 5.75 29.9805 5.64844 29.5313C5.54688 29.082 5.82812 28.6328 6.27734 28.5313Z" fill="#1E1E1E"/>
<path d="M7.54688 32.7188C7.96094 32.5195 8.46094 32.6914 8.66406 33.1094C8.86328 33.5234 8.69141 34.0234 8.27344 34.2266C7.85938 34.4258 7.35938 34.2539 7.15625 33.8359C6.95703 33.4219 7.12891 32.9219 7.54688 32.7188Z" fill="#1E1E1E"/>
<path d="M9.71484 36.5195C10.0742 36.2305 10.6016 36.2891 10.8906 36.6523C11.1797 37.0117 11.1211 37.5391 10.7578 37.8281C10.3984 38.1172 9.87109 38.0547 9.58203 37.6953C9.29297 37.3359 9.35547 36.8086 9.71484 36.5195Z" fill="#1E1E1E"/>
<path d="M12.6719 39.7422C12.9609 39.3828 13.4844 39.3203 13.8477 39.6094C14.207 39.8984 14.2695 40.4219 13.9805 40.7852C13.6914 41.1445 13.168 41.207 12.8047 40.918C12.4453 40.6289 12.3828 40.1055 12.6719 39.7422Z" fill="#1E1E1E"/>
<path d="M16.2773 42.2305C16.4766 41.8164 16.9766 41.6406 17.3945 41.8398C17.8086 42.0391 17.9844 42.5391 17.7852 42.957C17.5859 43.3711 17.0859 43.5469 16.668 43.3477C16.2539 43.1484 16.0781 42.6484 16.2773 42.2305Z" fill="#1E1E1E"/>
<path d="M20.3398 43.8477C20.4414 43.3984 20.8906 43.1172 21.3398 43.2188C21.7891 43.3203 22.0703 43.7695 21.9688 44.2188C21.8672 44.668 21.418 44.9492 20.9688 44.8477C20.5195 44.7461 20.2383 44.2969 20.3398 43.8477Z" fill="#1E1E1E"/>
<path d="M24.6641 44.5234C24.6641 44.0625 25.0391 43.6875 25.5 43.6875C25.9609 43.6875 26.3359 44.0625 26.3359 44.5234C26.3359 44.9844 25.9609 45.3594 25.5 45.3594C25.0391 45.3594 24.6641 44.9844 24.6641 44.5234Z" fill="#1E1E1E"/>
<path d="M29.0313 44.2227C28.9297 43.7734 29.2109 43.3242 29.6602 43.2227C30.1094 43.1211 30.5586 43.4023 30.6602 43.8516C30.7617 44.3008 30.4805 44.75 30.0313 44.8516C29.582 44.9531 29.1328 44.6719 29.0313 44.2227Z" fill="#1E1E1E"/>
<path d="M33.2188 42.9531C33.0195 42.5391 33.1914 42.0391 33.6094 41.8359C34.0234 41.6367 34.5234 41.8086 34.7266 42.2266C34.9258 42.6406 34.7539 43.1406 34.3359 43.3438C33.9219 43.543 33.4219 43.3711 33.2188 42.9531Z" fill="#1E1E1E"/>
<path d="M37.0195 40.7852C36.7305 40.4258 36.7891 39.8984 37.1523 39.6094C37.5156 39.3203 38.0391 39.3789 38.3281 39.7422C38.6172 40.1016 38.5547 40.6289 38.1953 40.918C37.8359 41.207 37.3086 41.1484 37.0195 40.7852Z" fill="#1E1E1E"/>
<path d="M40.2422 37.8281C39.8828 37.5391 39.8203 37.0156 40.1094 36.6523C40.3984 36.293 40.9219 36.2305 41.2852 36.5195C41.6445 36.8086 41.707 37.332 41.418 37.6953C41.1289 38.0547 40.6055 38.1172 40.2422 37.8281Z" fill="#1E1E1E"/>
<path d="M42.7305 34.2227C42.3164 34.0234 42.1406 33.5234 42.3398 33.1055C42.5391 32.6914 43.0391 32.5156 43.457 32.7148C43.8711 32.9141 44.0469 33.4141 43.8477 33.832C43.6484 34.2461 43.1484 34.4219 42.7305 34.2227Z" fill="#1E1E1E"/>
<path d="M44.3477 30.1602C43.8984 30.0586 43.6172 29.6094 43.7188 29.1602C43.8203 28.7109 44.2695 28.4297 44.7188 28.5313C45.168 28.6328 45.4492 29.082 45.3477 29.5313C45.2461 29.9805 44.7969 30.2617 44.3477 30.1602Z" fill="#1E1E1E"/>
<path d="M45.0234 25.8359C44.5625 25.8359 44.1875 25.4609 44.1875 25C44.1875 24.5391 44.5625 24.1641 45.0234 24.1641C45.4844 24.1641 45.8594 24.5391 45.8594 25C45.8594 25.4609 45.4844 25.8359 45.0234 25.8359Z" fill="#1E1E1E"/>
<path d="M44.7227 21.4688C44.2734 21.5703 43.8242 21.2891 43.7227 20.8398C43.6211 20.3906 43.9023 19.9414 44.3516 19.8398C44.8008 19.7383 45.25 20.0195 45.3516 20.4688C45.4531 20.918 45.1719 21.3672 44.7227 21.4688Z" fill="#1E1E1E"/>
<path d="M43.4531 17.2812C43.0391 17.4805 42.5391 17.3086 42.3359 16.8906C42.1367 16.4766 42.3086 15.9766 42.7266 15.7734C43.1406 15.5742 43.6406 15.7461 43.8438 16.1641C44.043 16.5781 43.8711 17.0781 43.4531 17.2812Z" fill="#1E1E1E"/>
<path d="M41.2852 13.4805C40.9258 13.7695 40.3984 13.7109 40.1094 13.3477C39.8203 12.9883 39.8789 12.4609 40.2422 12.1719C40.6016 11.8828 41.1289 11.9453 41.418 12.3047C41.707 12.6641 41.6484 13.1914 41.2852 13.4805Z" fill="#1E1E1E"/>
<path d="M38.3281 10.2578C38.0391 10.6172 37.5156 10.6797 37.1523 10.3906C36.793 10.1016 36.7305 9.57812 37.0195 9.21484C37.3086 8.85547 37.832 8.79297 38.1953 9.08203C38.5547 9.37109 38.6172 9.89453 38.3281 10.2578Z" fill="#1E1E1E"/>
<path d="M34.7227 7.76953C34.5234 8.18359 34.0234 8.35938 33.6055 8.16016C33.1914 7.96094 33.0156 7.46094 33.2148 7.04297C33.4141 6.62891 33.9141 6.45313 34.332 6.65234C34.7461 6.85156 34.9219 7.35156 34.7227 7.76953Z" fill="#1E1E1E"/>
<path d="M30.6602 6.15234C30.5586 6.60156 30.1094 6.88281 29.6602 6.78125C29.2109 6.67969 28.9297 6.23047 29.0313 5.78125C29.1328 5.33203 29.582 5.05078 30.0313 5.15234C30.4805 5.25391 30.7617 5.70313 30.6602 6.15234Z" fill="#1E1E1E"/>
<path d="M26.1602 9.55859C26.1602 9.92187 25.8633 10.2188 25.5 10.2188C25.1367 10.2188 24.8398 9.92187 24.8398 9.55859C24.8398 9.19531 25.1367 8.89844 25.5 8.89844C25.8633 8.89844 26.1602 9.19531 26.1602 9.55859Z" fill="#1E1E1E"/>
<path d="M22.707 9.80078C22.7891 10.1563 22.5664 10.5117 22.2109 10.5938C21.8555 10.6758 21.5 10.4531 21.418 10.0977C21.3359 9.74219 21.5586 9.38672 21.9141 9.30469C22.2695 9.22266 22.625 9.44531 22.707 9.80078Z" fill="#1E1E1E"/>
<path d="M19.3945 10.8008C19.5547 11.1289 19.4141 11.5234 19.0859 11.6836C18.7578 11.8438 18.3633 11.7031 18.2031 11.375C18.043 11.0469 18.1836 10.6523 18.5117 10.4922C18.8398 10.332 19.2344 10.4727 19.3945 10.8008Z" fill="#1E1E1E"/>
<path d="M16.3906 12.5156C16.6172 12.8008 16.5703 13.2187 16.2852 13.4453C16 13.6719 15.582 13.625 15.3555 13.3398C15.1289 13.0547 15.1758 12.6367 15.4609 12.4102C15.7461 12.1836 16.1641 12.2305 16.3906 12.5156Z" fill="#1E1E1E"/>
<path d="M13.8398 14.8555C14.125 15.082 14.1719 15.5 13.9453 15.7852C13.7187 16.0703 13.3008 16.1172 13.0156 15.8906C12.7305 15.6641 12.6836 15.2461 12.9102 14.9609C13.1367 14.6758 13.5547 14.6289 13.8398 14.8555Z" fill="#1E1E1E"/>
<path d="M11.875 17.707C12.2031 17.8672 12.3438 18.2617 12.1836 18.5898C12.0234 18.918 11.6289 19.0586 11.3008 18.8984C10.9727 18.7383 10.832 18.3438 10.9922 18.0156C11.1523 17.6875 11.5469 17.5469 11.875 17.707Z" fill="#1E1E1E"/>
<path d="M10.5938 20.918C10.9492 21 11.1719 21.3555 11.0898 21.7109C11.0078 22.0664 10.6523 22.2891 10.2969 22.207C9.94141 22.125 9.71875 21.7734 9.80078 21.4141C9.88281 21.0586 10.2344 20.8359 10.5938 20.918Z" fill="#1E1E1E"/>
<path d="M10.0586 24.3398C10.4219 24.3398 10.7188 24.6367 10.7188 25C10.7188 25.3633 10.4219 25.6602 10.0586 25.6602C9.69531 25.6602 9.39844 25.3633 9.39844 25C9.39844 24.6367 9.69531 24.3398 10.0586 24.3398Z" fill="#1E1E1E"/>
<path d="M10.3008 27.793C10.6563 27.7109 11.0117 27.9336 11.0938 28.2891C11.1758 28.6445 10.9531 29 10.5977 29.082C10.2422 29.1641 9.88672 28.9414 9.80469 28.5859C9.72266 28.2305 9.94531 27.875 10.3008 27.793Z" fill="#1E1E1E"/>
<path d="M11.3008 31.1055C11.6289 30.9453 12.0234 31.0859 12.1836 31.4141C12.3438 31.7422 12.2031 32.1367 11.875 32.2969C11.5469 32.457 11.1523 32.3164 10.9922 31.9883C10.832 31.6602 10.9727 31.2656 11.3008 31.1055Z" fill="#1E1E1E"/>
<path d="M13.0156 34.1094C13.3008 33.8828 13.7187 33.9297 13.9453 34.2148C14.1719 34.5 14.125 34.918 13.8398 35.1445C13.5547 35.3711 13.1367 35.3242 12.9102 35.0391C12.6836 34.7539 12.7305 34.3359 13.0156 34.1094Z" fill="#1E1E1E"/>
<path d="M15.3555 36.6602C15.582 36.375 16 36.3281 16.2852 36.5547C16.5703 36.7813 16.6172 37.1992 16.3906 37.4844C16.1641 37.7695 15.7461 37.8164 15.4609 37.5898C15.1758 37.3633 15.1289 36.9453 15.3555 36.6602Z" fill="#1E1E1E"/>
<path d="M18.207 38.625C18.3672 38.2969 18.7617 38.1562 19.0898 38.3164C19.418 38.4766 19.5586 38.8711 19.3984 39.1992C19.2383 39.5273 18.8438 39.668 18.5156 39.5078C18.1875 39.3477 18.0469 38.9531 18.207 38.625Z" fill="#1E1E1E"/>
<path d="M21.418 39.9062C21.5 39.5508 21.8516 39.3281 22.2109 39.4102C22.5664 39.4922 22.7891 39.8438 22.707 40.2031C22.625 40.5586 22.2695 40.7812 21.9141 40.6992C21.5586 40.6172 21.3359 40.2617 21.418 39.9062Z" fill="#1E1E1E"/>
<path d="M24.8398 40.4414C24.8398 40.0781 25.1367 39.7812 25.5 39.7812C25.8633 39.7812 26.1602 40.0781 26.1602 40.4414C26.1602 40.8047 25.8633 41.1016 25.5 41.1016C25.1367 41.1016 24.8398 40.8047 24.8398 40.4414Z" fill="#1E1E1E"/>
<path d="M28.293 40.1992C28.2109 39.8438 28.4336 39.4883 28.7891 39.4062C29.1445 39.3242 29.5 39.5469 29.582 39.9023C29.6641 40.2578 29.4414 40.6133 29.0859 40.6953C28.7305 40.7773 28.375 40.5547 28.293 40.1992Z" fill="#1E1E1E"/>
<path d="M31.6055 39.1992C31.4453 38.8711 31.5859 38.4766 31.9141 38.3164C32.2422 38.1562 32.6367 38.2969 32.7969 38.625C32.957 38.9531 32.8164 39.3477 32.4883 39.5078C32.1602 39.668 31.7656 39.5273 31.6055 39.1992Z" fill="#1E1E1E"/>
<path d="M34.6094 37.4844C34.3828 37.1992 34.4297 36.7813 34.7148 36.5547C35 36.3281 35.418 36.375 35.6445 36.6602C35.8711 36.9453 35.8242 37.3633 35.5391 37.5898C35.2539 37.8164 34.8359 37.7695 34.6094 37.4844Z" fill="#1E1E1E"/>
<path d="M37.1602 35.1445C36.875 34.918 36.8281 34.5 37.0547 34.2148C37.2813 33.9297 37.6992 33.8828 37.9844 34.1094C38.2695 34.3359 38.3164 34.7539 38.0898 35.0391C37.8633 35.3242 37.4453 35.3711 37.1602 35.1445Z" fill="#1E1E1E"/>
<path d="M39.125 32.293C38.7969 32.1328 38.6562 31.7383 38.8164 31.4102C38.9766 31.082 39.3711 30.9414 39.6992 31.1016C40.0273 31.2617 40.168 31.6562 40.0078 31.9844C39.8477 32.3125 39.4531 32.4531 39.125 32.293Z" fill="#1E1E1E"/>
<path d="M40.4062 29.082C40.0508 29 39.8281 28.6445 39.9102 28.2891C39.9922 27.9336 40.3438 27.7109 40.7031 27.793C41.0586 27.875 41.2812 28.2266 41.1992 28.5859C41.1172 28.9414 40.7656 29.1641 40.4062 29.082Z" fill="#1E1E1E"/>
<path d="M40.9414 25.6602C40.5781 25.6602 40.2812 25.3633 40.2812 25C40.2812 24.6367 40.5781 24.3398 40.9414 24.3398C41.3047 24.3398 41.6016 24.6367 41.6016 25C41.6016 25.3633 41.3047 25.6602 40.9414 25.6602Z" fill="#1E1E1E"/>
<path d="M40.6992 22.207C40.3438 22.2891 39.9883 22.0664 39.9062 21.7109C39.8242 21.3555 40.0469 21 40.4023 20.918C40.7578 20.8359 41.1133 21.0586 41.1953 21.4141C41.2773 21.7695 41.0547 22.125 40.6992 22.207Z" fill="#1E1E1E"/>
<path d="M39.6992 18.8945C39.3711 19.0547 38.9766 18.9141 38.8164 18.5859C38.6562 18.2578 38.7969 17.8633 39.125 17.7031C39.4531 17.543 39.8477 17.6836 40.0078 18.0117C40.168 18.3398 40.0273 18.7344 39.6992 18.8945Z" fill="#1E1E1E"/>
<path d="M37.9844 15.8906C37.6992 16.1172 37.2813 16.0703 37.0547 15.7852C36.8281 15.5 36.875 15.082 37.1602 14.8555C37.4453 14.6289 37.8633 14.6758 38.0898 14.9609C38.3164 15.2461 38.2695 15.6641 37.9844 15.8906Z" fill="#1E1E1E"/>
<path d="M35.6445 13.3398C35.418 13.625 35 13.6719 34.7148 13.4453C34.4297 13.2187 34.3828 12.8008 34.6094 12.5156C34.8359 12.2305 35.2539 12.1836 35.5391 12.4102C35.8242 12.6367 35.8711 13.0547 35.6445 13.3398Z" fill="#1E1E1E"/>
<path d="M32.793 11.375C32.6328 11.7031 32.2383 11.8438 31.9102 11.6836C31.582 11.5234 31.4414 11.1289 31.6016 10.8008C31.7617 10.4727 32.1562 10.332 32.4844 10.4922C32.8125 10.6523 32.9531 11.0469 32.793 11.375Z" fill="#1E1E1E"/>
<path d="M29.582 10.0938C29.5 10.4492 29.1484 10.6719 28.7891 10.5898C28.4336 10.5078 28.2109 10.1563 28.293 9.79688C28.375 9.44141 28.7266 9.21875 29.0859 9.30078C29.4414 9.38281 29.6641 9.73828 29.582 10.0938Z" fill="#1E1E1E"/>
<path d="M26 13.3086C26 13.5859 25.7773 13.8086 25.5 13.8086C25.2227 13.8086 25 13.5859 25 13.3086C25 13.0312 25.2227 12.8086 25.5 12.8086C25.7773 12.8086 26 13.0312 26 13.3086Z" fill="#1E1E1E"/>
<path d="M23.3867 13.4883C23.4492 13.7578 23.2812 14.0273 23.0117 14.0859C22.7422 14.1484 22.4727 13.9805 22.4141 13.7109C22.3516 13.4414 22.5195 13.1719 22.7891 13.1133C23.0586 13.0508 23.3281 13.2187 23.3867 13.4883Z" fill="#1E1E1E"/>
<path d="M20.8789 14.25C21 14.5 20.8945 14.7969 20.6445 14.918C20.3945 15.0391 20.0977 14.9336 19.9766 14.6836C19.8555 14.4336 19.9609 14.1367 20.2109 14.0156C20.4609 13.8945 20.7578 14 20.8789 14.25Z" fill="#1E1E1E"/>
<path d="M18.6016 15.5469C18.7734 15.7617 18.7383 16.0781 18.5234 16.25C18.3086 16.4219 17.9922 16.3867 17.8203 16.1719C17.6484 15.957 17.6836 15.6406 17.8984 15.4688C18.1133 15.2969 18.4297 15.332 18.6016 15.5469Z" fill="#1E1E1E"/>
<path d="M16.6719 17.3203C16.8867 17.4922 16.9219 17.8086 16.75 18.0234C16.5781 18.2383 16.2617 18.2734 16.0469 18.1016C15.832 17.9297 15.7969 17.6133 15.9688 17.3984C16.1406 17.1836 16.457 17.1484 16.6719 17.3203Z" fill="#1E1E1E"/>
<path d="M15.1836 19.4766C15.4336 19.5977 15.5391 19.8945 15.418 20.1445C15.2969 20.3945 15 20.5 14.75 20.3789C14.5 20.2578 14.3945 19.9609 14.5156 19.7109C14.6367 19.4609 14.9336 19.3555 15.1836 19.4766Z" fill="#1E1E1E"/>
<path d="M14.2109 21.9102C14.4805 21.9727 14.6484 22.2383 14.5859 22.5078C14.5234 22.7773 14.2578 22.9453 13.9883 22.8828C13.7187 22.8203 13.5508 22.5547 13.6133 22.2852C13.6758 22.0156 13.9414 21.8477 14.2109 21.9102Z" fill="#1E1E1E"/>
<path d="M13.8086 24.5C14.0859 24.5 14.3086 24.7227 14.3086 25C14.3086 25.2773 14.0859 25.5 13.8086 25.5C13.5312 25.5 13.3086 25.2773 13.3086 25C13.3086 24.7227 13.5312 24.5 13.8086 24.5Z" fill="#1E1E1E"/>
<path d="M13.9883 27.1133C14.2578 27.0508 14.5273 27.2188 14.5859 27.4883C14.6484 27.7578 14.4805 28.0273 14.2109 28.0859C13.9414 28.1484 13.6719 27.9805 13.6133 27.7109C13.5508 27.4414 13.7187 27.1719 13.9883 27.1133Z" fill="#1E1E1E"/>
<path d="M14.75 29.6211C15 29.5 15.2969 29.6055 15.418 29.8555C15.5391 30.1055 15.4336 30.4023 15.1836 30.5234C14.9336 30.6445 14.6367 30.5391 14.5156 30.2891C14.3945 30.0391 14.5 29.7422 14.75 29.6211Z" fill="#1E1E1E"/>
<path d="M16.0469 31.8984C16.2617 31.7266 16.5781 31.7617 16.75 31.9766C16.9219 32.1914 16.8867 32.5078 16.6719 32.6797C16.457 32.8516 16.1406 32.8164 15.9688 32.6016C15.7969 32.3867 15.832 32.0703 16.0469 31.8984Z" fill="#1E1E1E"/>
<path d="M17.8203 33.8281C17.9922 33.6133 18.3086 33.5781 18.5234 33.75C18.7383 33.9219 18.7734 34.2383 18.6016 34.4531C18.4297 34.668 18.1133 34.7031 17.8984 34.5312C17.6836 34.3594 17.6484 34.043 17.8203 33.8281Z" fill="#1E1E1E"/>
<path d="M19.9766 35.3164C20.0977 35.0664 20.3945 34.9609 20.6445 35.082C20.8945 35.2031 21 35.5 20.8789 35.75C20.7578 36 20.4609 36.1055 20.2109 35.9844C19.9609 35.8633 19.8555 35.5664 19.9766 35.3164Z" fill="#1E1E1E"/>
<path d="M22.4102 36.2891C22.4727 36.0195 22.7383 35.8516 23.0078 35.9141C23.2773 35.9766 23.4453 36.2422 23.3828 36.5117C23.3203 36.7812 23.0547 36.9492 22.7852 36.8867C22.5156 36.8242 22.3477 36.5586 22.4102 36.2891Z" fill="#1E1E1E"/>
<path d="M25 36.6914C25 36.4141 25.2227 36.1914 25.5 36.1914C25.7773 36.1914 26 36.4141 26 36.6914C26 36.9688 25.7773 37.1914 25.5 37.1914C25.2227 37.1914 25 36.9688 25 36.6914Z" fill="#1E1E1E"/>
<path d="M27.6133 36.5117C27.5508 36.2422 27.7188 35.9727 27.9883 35.9141C28.2578 35.8555 28.5273 36.0195 28.5859 36.2891C28.6484 36.5586 28.4805 36.8281 28.2109 36.8867C27.9414 36.9492 27.6719 36.7812 27.6133 36.5117Z" fill="#1E1E1E"/>
<path d="M30.1211 35.75C30 35.5 30.1055 35.2031 30.3555 35.082C30.6055 34.9609 30.9023 35.0664 31.0234 35.3164C31.1445 35.5664 31.0391 35.8633 30.7891 35.9844C30.5391 36.1055 30.2422 36 30.1211 35.75Z" fill="#1E1E1E"/>
<path d="M32.3984 34.4531C32.2266 34.2383 32.2617 33.9219 32.4766 33.75C32.6914 33.5781 33.0078 33.6133 33.1797 33.8281C33.3516 34.043 33.3164 34.3594 33.1016 34.5312C32.8867 34.7031 32.5703 34.668 32.3984 34.4531Z" fill="#1E1E1E"/>
<path d="M34.3281 32.6797C34.1133 32.5078 34.0781 32.1914 34.25 31.9766C34.4219 31.7617 34.7383 31.7266 34.9531 31.8984C35.168 32.0703 35.2031 32.3867 35.0312 32.6016C34.8594 32.8164 34.543 32.8516 34.3281 32.6797Z" fill="#1E1E1E"/>
<path d="M35.8164 30.5234C35.5664 30.4023 35.4609 30.1055 35.582 29.8555C35.7031 29.6055 36 29.5 36.25 29.6211C36.5 29.7422 36.6055 30.0391 36.4844 30.2891C36.3633 30.5391 36.0664 30.6445 35.8164 30.5234Z" fill="#1E1E1E"/>
<path d="M36.7891 28.0898C36.5195 28.0273 36.3516 27.7617 36.4141 27.4922C36.4766 27.2227 36.7422 27.0547 37.0117 27.1172C37.2812 27.1797 37.4492 27.4453 37.3867 27.7148C37.3242 27.9844 37.0586 28.1523 36.7891 28.0898Z" fill="#1E1E1E"/>
<path d="M37.1914 25.5C36.9141 25.5 36.6914 25.2773 36.6914 25C36.6914 24.7227 36.9141 24.5 37.1914 24.5C37.4688 24.5 37.6914 24.7227 37.6914 25C37.6914 25.2773 37.4688 25.5 37.1914 25.5Z" fill="#1E1E1E"/>
<path d="M37.0117 22.8867C36.7422 22.9492 36.4727 22.7812 36.4141 22.5117C36.3516 22.2422 36.5195 21.9727 36.7891 21.9141C37.0586 21.8516 37.3281 22.0195 37.3867 22.2891C37.4492 22.5586 37.2812 22.8281 37.0117 22.8867Z" fill="#1E1E1E"/>
<path d="M36.25 20.3789C36 20.5 35.7031 20.3945 35.582 20.1445C35.4609 19.8945 35.5664 19.5977 35.8164 19.4766C36.0664 19.3555 36.3633 19.4609 36.4844 19.7109C36.6055 19.9609 36.5 20.2578 36.25 20.3789Z" fill="#1E1E1E"/>
<path d="M34.9531 18.1016C34.7383 18.2734 34.4219 18.2383 34.25 18.0234C34.0781 17.8086 34.1133 17.4922 34.3281 17.3203C34.543 17.1484 34.8594 17.1836 35.0312 17.3984C35.2031 17.6133 35.168 17.9297 34.9531 18.1016Z" fill="#1E1E1E"/>
<path d="M33.1797 16.1719C33.0078 16.3867 32.6914 16.4219 32.4766 16.25C32.2617 16.0781 32.2266 15.7617 32.3984 15.5469C32.5703 15.332 32.8867 15.2969 33.1016 15.4688C33.3164 15.6406 33.3516 15.957 33.1797 16.1719Z" fill="#1E1E1E"/>
<path d="M31.0234 14.6836C30.9023 14.9336 30.6055 15.0391 30.3555 14.918C30.1055 14.7969 30 14.5 30.1211 14.25C30.2422 14 30.5391 13.8945 30.7891 14.0156C31.0391 14.1367 31.1445 14.4336 31.0234 14.6836Z" fill="#1E1E1E"/>
<path d="M28.5898 13.7109C28.5273 13.9805 28.2617 14.1484 27.9922 14.0859C27.7227 14.0234 27.5547 13.7578 27.6172 13.4883C27.6797 13.2187 27.9453 13.0508 28.2148 13.1133C28.4844 13.1758 28.6523 13.4414 28.5898 13.7109Z" fill="#1E1E1E"/>
<path d="M25.8516 16.75C25.8516 16.9453 25.6953 17.1016 25.5 17.1016C25.3047 17.1016 25.1484 16.9453 25.1484 16.75C25.1484 16.5547 25.3047 16.3984 25.5 16.3984C25.6953 16.3984 25.8516 16.5547 25.8516 16.75Z" fill="#1E1E1E"/>
<path d="M24.0078 16.8789C24.0508 17.0703 23.9336 17.2578 23.7422 17.3008C23.5508 17.3438 23.3633 17.2266 23.3203 17.0352C23.2773 16.8438 23.3945 16.6562 23.5859 16.6133C23.7773 16.5703 23.9648 16.6875 24.0078 16.8789Z" fill="#1E1E1E"/>
<path d="M22.2383 17.4141C22.3242 17.5898 22.25 17.8008 22.0742 17.8867C21.8984 17.9727 21.6875 17.8984 21.6016 17.7227C21.5156 17.5469 21.5898 17.3359 21.7656 17.25C21.9414 17.1641 22.1523 17.2383 22.2383 17.4141Z" fill="#1E1E1E"/>
<path d="M20.6328 18.3281C20.7539 18.4805 20.7305 18.7031 20.5781 18.8242C20.4258 18.9453 20.2031 18.9219 20.082 18.7695C19.9609 18.6172 19.9844 18.3945 20.1367 18.2734C20.2891 18.1523 20.5117 18.1758 20.6328 18.3281Z" fill="#1E1E1E"/>
<path d="M19.2695 19.5781C19.4219 19.6992 19.4453 19.9219 19.3242 20.0742C19.2031 20.2266 18.9805 20.25 18.8281 20.1289C18.6758 20.0078 18.6523 19.7852 18.7734 19.6328C18.8945 19.4805 19.1172 19.457 19.2695 19.5781Z" fill="#1E1E1E"/>
<path d="M18.2188 21.1016C18.3945 21.1875 18.4688 21.3984 18.3828 21.5742C18.2969 21.75 18.0859 21.8242 17.9102 21.7383C17.7344 21.6523 17.6602 21.4414 17.7461 21.2656C17.832 21.0898 18.043 21.0156 18.2188 21.1016Z" fill="#1E1E1E"/>
<path d="M17.5352 22.8203C17.7266 22.8633 17.8438 23.0547 17.8008 23.2422C17.7578 23.4336 17.5664 23.5508 17.3789 23.5078C17.1875 23.4648 17.0703 23.2734 17.1133 23.0859C17.1562 22.8945 17.3477 22.7773 17.5352 22.8203Z" fill="#1E1E1E"/>
<path d="M17.25 24.6484C17.4453 24.6484 17.6016 24.8047 17.6016 25C17.6016 25.1953 17.4453 25.3516 17.25 25.3516C17.0547 25.3516 16.8984 25.1953 16.8984 25C16.8984 24.8047 17.0547 24.6484 17.25 24.6484Z" fill="#1E1E1E"/>
<path d="M17.3789 26.4922C17.5703 26.4492 17.7578 26.5664 17.8008 26.7578C17.8438 26.9492 17.7266 27.1367 17.5352 27.1797C17.3438 27.2227 17.1562 27.1055 17.1133 26.9141C17.0703 26.7227 17.1875 26.5352 17.3789 26.4922Z" fill="#1E1E1E"/>
<path d="M17.9141 28.2617C18.0898 28.1758 18.3008 28.25 18.3867 28.4258C18.4727 28.6016 18.3984 28.8125 18.2227 28.8984C18.0469 28.9844 17.8359 28.9102 17.75 28.7344C17.6641 28.5586 17.7383 28.3477 17.9141 28.2617Z" fill="#1E1E1E"/>
<path d="M18.8281 29.8672C18.9805 29.7461 19.2031 29.7695 19.3242 29.9219C19.4453 30.0742 19.4219 30.2969 19.2695 30.418C19.1172 30.5391 18.8945 30.5156 18.7734 30.3633C18.6523 30.2109 18.6758 29.9883 18.8281 29.8672Z" fill="#1E1E1E"/>
<path d="M20.0781 31.2305C20.1992 31.0781 20.4219 31.0547 20.5742 31.1758C20.7266 31.2969 20.75 31.5195 20.6289 31.6719C20.5078 31.8242 20.2852 31.8477 20.1328 31.7266C19.9805 31.6055 19.957 31.3828 20.0781 31.2305Z" fill="#1E1E1E"/>
<path d="M21.6016 32.2812C21.6875 32.1055 21.8984 32.0312 22.0742 32.1172C22.25 32.2031 22.3242 32.4141 22.2383 32.5898C22.1523 32.7656 21.9414 32.8398 21.7656 32.7539C21.5898 32.668 21.5156 32.457 21.6016 32.2812Z" fill="#1E1E1E"/>
<path d="M23.3203 32.9648C23.3633 32.7734 23.5547 32.6562 23.7422 32.6992C23.9336 32.7422 24.0508 32.9336 24.0078 33.1211C23.9648 33.3125 23.7734 33.4297 23.5859 33.3867C23.3945 33.3438 23.2773 33.1523 23.3203 32.9648Z" fill="#1E1E1E"/>
<path d="M25.1484 33.25C25.1484 33.0547 25.3047 32.8984 25.5 32.8984C25.6953 32.8984 25.8516 33.0547 25.8516 33.25C25.8516 33.4453 25.6953 33.6016 25.5 33.6016C25.3047 33.6016 25.1484 33.4453 25.1484 33.25Z" fill="#1E1E1E"/>
<path d="M26.9922 33.1211C26.9492 32.9297 27.0664 32.7422 27.2578 32.6992C27.4492 32.6562 27.6367 32.7734 27.6797 32.9648C27.7227 33.1562 27.6055 33.3438 27.4141 33.3867C27.2227 33.4297 27.0352 33.3125 26.9922 33.1211Z" fill="#1E1E1E"/>
<path d="M28.7617 32.5859C28.6758 32.4102 28.75 32.1992 28.9258 32.1133C29.1016 32.0273 29.3125 32.1016 29.3984 32.2773C29.4844 32.4531 29.4102 32.6641 29.2344 32.75C29.0586 32.8359 28.8477 32.7617 28.7617 32.5859Z" fill="#1E1E1E"/>
<path d="M30.3672 31.6719C30.2461 31.5195 30.2695 31.2969 30.4219 31.1758C30.5742 31.0547 30.7969 31.0781 30.918 31.2305C31.0391 31.3828 31.0156 31.6055 30.8633 31.7266C30.7109 31.8477 30.4883 31.8242 30.3672 31.6719Z" fill="#1E1E1E"/>
<path d="M31.7305 30.4219C31.5781 30.3008 31.5547 30.0781 31.6758 29.9258C31.7969 29.7734 32.0195 29.75 32.1719 29.8711C32.3242 29.9922 32.3477 30.2148 32.2266 30.3672C32.1055 30.5195 31.8828 30.543 31.7305 30.4219Z" fill="#1E1E1E"/>
<path d="M32.7812 28.8984C32.6055 28.8125 32.5312 28.6016 32.6172 28.4258C32.7031 28.25 32.9141 28.1758 33.0898 28.2617C33.2656 28.3477 33.3398 28.5586 33.2539 28.7344C33.168 28.9102 32.957 28.9844 32.7812 28.8984Z" fill="#1E1E1E"/>
<path d="M33.4648 27.1797C33.2734 27.1367 33.1562 26.9453 33.1992 26.7578C33.2422 26.5664 33.4336 26.4492 33.6211 26.4922C33.8125 26.5352 33.9297 26.7266 33.8867 26.9141C33.8438 27.1055 33.6523 27.2227 33.4648 27.1797Z" fill="#1E1E1E"/>
<path d="M33.75 25.3516C33.5547 25.3516 33.3984 25.1953 33.3984 25C33.3984 24.8047 33.5547 24.6484 33.75 24.6484C33.9453 24.6484 34.1016 24.8047 34.1016 25C34.1016 25.1953 33.9453 25.3516 33.75 25.3516Z" fill="#1E1E1E"/>
<path d="M33.6211 23.5078C33.4297 23.5508 33.2422 23.4336 33.1992 23.2422C33.1562 23.0508 33.2734 22.8633 33.4648 22.8203C33.6562 22.7773 33.8438 22.8945 33.8867 23.0859C33.9297 23.2773 33.8125 23.4648 33.6211 23.5078Z" fill="#1E1E1E"/>
<path d="M33.0859 21.7383C32.9102 21.8242 32.6992 21.75 32.6133 21.5742C32.5273 21.3984 32.6016 21.1875 32.7773 21.1016C32.9531 21.0156 33.1641 21.0898 33.25 21.2656C33.3359 21.4414 33.2617 21.6523 33.0859 21.7383Z" fill="#1E1E1E"/>
<path d="M32.1719 20.1328C32.0195 20.2539 31.7969 20.2305 31.6758 20.0781C31.5547 19.9258 31.5781 19.7031 31.7305 19.582C31.8828 19.4609 32.1055 19.4844 32.2266 19.6367C32.3477 19.7891 32.3242 20.0117 32.1719 20.1328Z" fill="#1E1E1E"/>
<path d="M30.9219 18.7695C30.8008 18.9219 30.5781 18.9453 30.4258 18.8242C30.2734 18.7031 30.25 18.4805 30.3711 18.3281C30.4922 18.1758 30.7148 18.1523 30.8672 18.2734C31.0195 18.3945 31.043 18.6172 30.9219 18.7695Z" fill="#1E1E1E"/>
<path d="M29.3984 17.7188C29.3125 17.8945 29.1016 17.9688 28.9258 17.8828C28.75 17.7969 28.6758 17.5859 28.7617 17.4102C28.8477 17.2344 29.0586 17.1602 29.2344 17.2461C29.4102 17.332 29.4844 17.543 29.3984 17.7188Z" fill="#1E1E1E"/>
<path d="M27.6797 17.0352C27.6367 17.2266 27.4453 17.3438 27.2578 17.3008C27.0664 17.2578 26.9492 17.0664 26.9922 16.8789C27.0352 16.6875 27.2266 16.5703 27.4141 16.6133C27.6055 16.6562 27.7227 16.8477 27.6797 17.0352Z" fill="#1E1E1E"/>
<path d="M25.7188 19.9062C25.7188 20.0273 25.6211 20.125 25.5 20.125C25.3789 20.125 25.2812 20.0273 25.2812 19.9062C25.2812 19.7852 25.3789 19.6875 25.5 19.6875C25.6211 19.6875 25.7188 19.7852 25.7188 19.9062Z" fill="#1E1E1E"/>
<path d="M24.5781 19.9883C24.6055 20.1055 24.5313 20.2227 24.4141 20.25C24.2969 20.2773 24.1797 20.2031 24.1523 20.0859C24.125 19.9688 24.1992 19.8516 24.3164 19.8242C24.4336 19.7969 24.5508 19.8711 24.5781 19.9883Z" fill="#1E1E1E"/>
<path d="M23.4883 20.3164C23.5391 20.4258 23.4961 20.5547 23.3867 20.6055C23.2773 20.6562 23.1484 20.6133 23.0977 20.5039C23.0469 20.3945 23.0898 20.2656 23.1992 20.2148C23.3086 20.1641 23.4375 20.207 23.4883 20.3164Z" fill="#1E1E1E"/>
<path d="M22.4961 20.8828C22.5703 20.9766 22.5547 21.1133 22.4609 21.1875C22.3672 21.2617 22.2305 21.2461 22.1562 21.1523C22.082 21.0586 22.0977 20.9219 22.1914 20.8477C22.2852 20.7734 22.4219 20.7891 22.4961 20.8828Z" fill="#1E1E1E"/>
<path d="M21.6562 21.6562C21.75 21.7305 21.7656 21.8672 21.6914 21.9609C21.6172 22.0547 21.4805 22.0703 21.3867 21.9961C21.293 21.9219 21.2773 21.7852 21.3516 21.6914C21.4258 21.5977 21.5625 21.582 21.6562 21.6562Z" fill="#1E1E1E"/>
<path d="M21.0078 22.5937C21.1172 22.6445 21.1602 22.7773 21.1094 22.8828C21.0586 22.9922 20.9258 23.0352 20.8203 22.9844C20.7109 22.9336 20.668 22.8008 20.7188 22.6953C20.7695 22.5859 20.9023 22.543 21.0078 22.5937Z" fill="#1E1E1E"/>
<path d="M20.582 23.6562C20.6992 23.6836 20.7734 23.8008 20.7461 23.918C20.7188 24.0352 20.6016 24.1094 20.4844 24.082C20.3672 24.0547 20.293 23.9375 20.3203 23.8203C20.3477 23.7031 20.4648 23.6289 20.582 23.6562Z" fill="#1E1E1E"/>
<path d="M20.4062 24.7812C20.5273 24.7812 20.625 24.8789 20.625 25C20.625 25.1211 20.5273 25.2188 20.4062 25.2188C20.2852 25.2188 20.1875 25.1211 20.1875 25C20.1875 24.8789 20.2852 24.7812 20.4062 24.7812Z" fill="#1E1E1E"/>
<path d="M20.4883 25.9219C20.6055 25.8945 20.7227 25.9687 20.75 26.0859C20.7773 26.2031 20.7031 26.3203 20.5859 26.3477C20.4688 26.375 20.3516 26.3008 20.3242 26.1836C20.2969 26.0664 20.3711 25.9492 20.4883 25.9219Z" fill="#1E1E1E"/>
<path d="M20.8164 27.0117C20.9258 26.9609 21.0547 27.0039 21.1055 27.1133C21.1562 27.2227 21.1133 27.3516 21.0039 27.4023C20.8945 27.4531 20.7656 27.4102 20.7148 27.3008C20.6641 27.1914 20.707 27.0625 20.8164 27.0117Z" fill="#1E1E1E"/>
<path d="M21.3828 28.0039C21.4766 27.9297 21.6133 27.9453 21.6875 28.0391C21.7617 28.1328 21.7461 28.2695 21.6523 28.3437C21.5586 28.418 21.4219 28.4023 21.3477 28.3086C21.2734 28.2148 21.2891 28.0781 21.3828 28.0039Z" fill="#1E1E1E"/>
<path d="M22.1562 28.8437C22.2305 28.75 22.3672 28.7344 22.4609 28.8086C22.5547 28.8828 22.5703 29.0195 22.4961 29.1133C22.4219 29.207 22.2852 29.2227 22.1914 29.1484C22.0977 29.0742 22.082 28.9375 22.1562 28.8437Z" fill="#1E1E1E"/>
<path d="M23.0937 29.4922C23.1445 29.3828 23.2773 29.3398 23.3828 29.3906C23.4922 29.4414 23.5352 29.5742 23.4844 29.6797C23.4336 29.7891 23.3008 29.832 23.1953 29.7812C23.0859 29.7305 23.043 29.5977 23.0937 29.4922Z" fill="#1E1E1E"/>
<path d="M24.1562 29.918C24.1836 29.8008 24.3008 29.7266 24.418 29.7539C24.5352 29.7812 24.6094 29.8984 24.582 30.0156C24.5547 30.1328 24.4375 30.207 24.3203 30.1797C24.2031 30.1523 24.1289 30.0352 24.1562 29.918Z" fill="#1E1E1E"/>
<path d="M25.2812 30.0938C25.2812 29.9727 25.3789 29.875 25.5 29.875C25.6211 29.875 25.7188 29.9727 25.7188 30.0938C25.7188 30.2148 25.6211 30.3125 25.5 30.3125C25.3789 30.3125 25.2812 30.2148 25.2812 30.0938Z" fill="#1E1E1E"/>
<path d="M26.4219 30.0117C26.3945 29.8945 26.4687 29.7773 26.5859 29.75C26.7031 29.7227 26.8203 29.7969 26.8477 29.9141C26.875 30.0312 26.8008 30.1484 26.6836 30.1758C26.5664 30.2031 26.4492 30.1289 26.4219 30.0117Z" fill="#1E1E1E"/>
<path d="M27.5117 29.6836C27.4609 29.5742 27.5039 29.4453 27.6133 29.3945C27.7227 29.3438 27.8516 29.3867 27.9023 29.4961C27.9531 29.6055 27.9102 29.7344 27.8008 29.7852C27.6914 29.8359 27.5625 29.793 27.5117 29.6836Z" fill="#1E1E1E"/>
<path d="M28.5039 29.1172C28.4297 29.0234 28.4453 28.8867 28.5391 28.8125C28.6328 28.7383 28.7695 28.7539 28.8437 28.8477C28.918 28.9414 28.9023 29.0781 28.8086 29.1523C28.7148 29.2266 28.5781 29.2109 28.5039 29.1172Z" fill="#1E1E1E"/>
<path d="M29.3437 28.3437C29.25 28.2695 29.2344 28.1328 29.3086 28.0391C29.3828 27.9453 29.5195 27.9297 29.6133 28.0039C29.707 28.0781 29.7227 28.2148 29.6484 28.3086C29.5742 28.4023 29.4375 28.418 29.3437 28.3437Z" fill="#1E1E1E"/>
<path d="M29.9922 27.4063C29.8828 27.3555 29.8398 27.2227 29.8906 27.1172C29.9414 27.0117 30.0742 26.9648 30.1797 27.0156C30.2891 27.0664 30.332 27.1992 30.2812 27.3047C30.2305 27.4102 30.0977 27.457 29.9922 27.4063Z" fill="#1E1E1E"/>
<path d="M30.418 26.3438C30.3008 26.3164 30.2266 26.1992 30.2539 26.082C30.2812 25.9648 30.3984 25.8906 30.5156 25.918C30.6328 25.9453 30.707 26.0625 30.6797 26.1797C30.6523 26.2969 30.5352 26.3711 30.418 26.3438Z" fill="#1E1E1E"/>
<path d="M30.5938 25.2188C30.4727 25.2188 30.375 25.1211 30.375 25C30.375 24.8789 30.4727 24.7812 30.5938 24.7812C30.7148 24.7812 30.8125 24.8789 30.8125 25C30.8125 25.1211 30.7148 25.2188 30.5938 25.2188Z" fill="#1E1E1E"/>
<path d="M30.5117 24.0781C30.3945 24.1055 30.2773 24.0313 30.25 23.9141C30.2227 23.7969 30.2969 23.6797 30.4141 23.6523C30.5312 23.625 30.6484 23.6992 30.6758 23.8164C30.7031 23.9336 30.6289 24.0508 30.5117 24.0781Z" fill="#1E1E1E"/>
<path d="M30.1836 22.9883C30.0742 23.0391 29.9453 22.9961 29.8945 22.8867C29.8438 22.7773 29.8867 22.6484 29.9961 22.5977C30.1055 22.5469 30.2344 22.5898 30.2852 22.6992C30.3359 22.8086 30.293 22.9375 30.1836 22.9883Z" fill="#1E1E1E"/>
<path d="M29.6172 21.9961C29.5234 22.0703 29.3867 22.0547 29.3125 21.9609C29.2383 21.8672 29.2539 21.7305 29.3477 21.6562C29.4414 21.582 29.5781 21.5977 29.6523 21.6914C29.7266 21.7852 29.7109 21.9219 29.6172 21.9961Z" fill="#1E1E1E"/>
<path d="M28.8437 21.1562C28.7695 21.25 28.6328 21.2656 28.5391 21.1914C28.4453 21.1172 28.4297 20.9805 28.5039 20.8867C28.5781 20.793 28.7148 20.7773 28.8086 20.8516C28.9023 20.9258 28.918 21.0625 28.8437 21.1562Z" fill="#1E1E1E"/>
<path d="M27.9063 20.5078C27.8555 20.6172 27.7227 20.6602 27.6172 20.6094C27.5078 20.5586 27.4648 20.4258 27.5156 20.3203C27.5664 20.2109 27.6992 20.168 27.8047 20.2188C27.9141 20.2695 27.957 20.4023 27.9063 20.5078Z" fill="#1E1E1E"/>
<path d="M26.8438 20.082C26.8164 20.1992 26.6992 20.2734 26.582 20.2461C26.4648 20.2188 26.3906 20.1016 26.418 19.9844C26.4453 19.8672 26.5625 19.793 26.6797 19.8203C26.7969 19.8477 26.8711 19.9648 26.8438 20.082Z" fill="#1E1E1E"/>
</svg>
