<svg width="51" height="50" viewBox="0 0 51 50" fill="none" xmlns="http://www.w3.org/2000/svg">
<path d="M25.5 50C11.7154 50 0.5 38.7846 0.5 25C0.5 11.2154 11.7154 0 25.5 0C39.2846 0 50.5 11.2154 50.5 25C50.5 38.7846 39.2846 50 25.5 50ZM25.5 0.769231C12.1385 0.769231 1.26923 11.6385 1.26923 25C1.26923 38.3615 12.1385 49.2308 25.5 49.2308C38.8615 49.2308 49.7308 38.3615 49.7308 25C49.7308 11.6385 38.8615 0.769231 25.5 0.769231Z" fill="#1E1E1E"/>
<path d="M20.3692 18.6079C19.6615 18.6079 18.9154 18.4387 18.1654 18.1002C16.6962 17.4349 15.3808 16.1926 14.4577 14.5964C12.5346 11.2618 12.9577 7.40409 15.4 5.99256C17.8462 4.58102 21.4 6.1464 23.3231 9.47717C25.2462 12.8118 24.8231 16.6695 22.3808 18.081C21.7731 18.431 21.0885 18.6079 20.3692 18.6079ZM17.4192 6.23486C16.8385 6.23486 16.2846 6.36948 15.7846 6.65794C13.7077 7.85794 13.4115 11.2464 15.1231 14.2118C15.9654 15.6695 17.1577 16.8002 18.4808 17.4002C19.7615 17.9772 21.0115 17.9849 21.9962 17.4156C24.0731 16.2156 24.3692 12.8272 22.6577 9.86179C21.3577 7.60794 19.2615 6.23486 17.4192 6.23486Z" fill="#1E1E1E"/>
<path d="M11.7769 25.7618C9.98074 25.7618 7.94613 24.8964 6.31151 23.2618C5.01151 21.9618 4.14997 20.3657 3.88843 18.7734C3.6192 17.1349 4.01151 15.6888 4.99613 14.708C6.99228 12.7118 10.8307 13.3003 13.55 16.0234C16.2692 18.7464 16.8615 22.5811 14.8654 24.5772C14.0654 25.3772 12.9731 25.7618 11.7769 25.7618ZM8.09228 14.2849C7.09228 14.2849 6.19228 14.6003 5.53843 15.2541C4.73459 16.058 4.41536 17.2657 4.64613 18.6541C4.88074 20.0888 5.66536 21.5349 6.85382 22.7234C9.2769 25.1426 12.6231 25.7349 14.3192 24.0388C16.0154 22.3426 15.4269 18.9926 13.0038 16.5734C11.5154 15.0849 9.68074 14.2888 8.08843 14.2888L8.09228 14.2849Z" fill="#1E1E1E"/>
<path d="M30.6307 18.6079C29.9076 18.6079 29.2268 18.431 28.6191 18.081C26.173 16.6695 25.7499 12.8118 27.6768 9.47717C29.5999 6.1464 33.1537 4.58102 35.5999 5.99256C38.0461 7.40409 38.4691 11.2618 36.5422 14.5964C35.623 16.1926 34.3037 17.4349 32.8345 18.1002C32.0845 18.4387 31.3384 18.6079 30.6307 18.6079ZM28.3422 9.86179C26.6307 12.8272 26.9268 16.2156 29.0037 17.4156C29.9884 17.9849 31.2345 17.9772 32.5191 17.4002C33.8422 16.8002 35.0345 15.6695 35.8768 14.2118C37.5884 11.2464 37.2922 7.85794 35.2153 6.65794C33.1384 5.45794 30.0537 6.8964 28.3422 9.86179Z" fill="#1E1E1E"/>
<path d="M39.2232 25.7618C38.0232 25.7618 36.9309 25.3772 36.1347 24.5772C34.1386 22.5811 34.727 18.7426 37.4501 16.0234C40.1694 13.3003 44.0078 12.7118 46.004 14.708C46.9886 15.6926 47.3809 17.1349 47.1117 18.7734C46.8501 20.3657 45.9886 21.958 44.6886 23.2618C43.054 24.8964 41.0194 25.7618 39.2232 25.7618ZM37.9924 16.5695C35.5732 18.9926 34.9809 22.3388 36.677 24.0349C38.3732 25.7311 41.7232 25.1426 44.1424 22.7195C45.3309 21.5311 46.1155 20.0849 46.3501 18.6503C46.577 17.2618 46.2617 16.0541 45.4578 15.2503C43.7617 13.5541 40.4117 14.1426 37.9924 16.5657V16.5695Z" fill="#1E1E1E"/>
<path d="M25.5001 45.3847C18.7155 45.3847 13.1924 39.8616 13.1924 33.077C13.1924 26.2924 18.7155 20.7693 25.5001 20.7693C32.2847 20.7693 37.8078 26.2924 37.8078 33.077C37.8078 39.8616 32.2847 45.3847 25.5001 45.3847ZM25.5001 21.5385C19.1385 21.5385 13.9616 26.7154 13.9616 33.077C13.9616 39.4385 19.1385 44.6154 25.5001 44.6154C31.8616 44.6154 37.0385 39.4385 37.0385 33.077C37.0385 26.7154 31.8616 21.5385 25.5001 21.5385Z" fill="#1E1E1E"/>
</svg>
