<svg width="666" height="389" viewBox="0 0 666 389" fill="none" xmlns="http://www.w3.org/2000/svg">
<path d="M33.7 105.2C29.0333 105.2 24.6333 104.367 20.5 102.7C16.4333 100.967 12.9 98.5333 9.9 95.4C6.96667 92.2667 4.76667 88.5667 3.3 84.3L16 78.6C17.8667 82.6667 20.4333 85.8667 23.7 88.2C27.0333 90.5333 30.7 91.7 34.7 91.7C36.8333 91.7 38.6667 91.3667 40.2 90.7C41.7333 90.0333 42.9333 89.1333 43.8 88C44.6667 86.8 45.1 85.4 45.1 83.8C45.1 82.0667 44.5667 80.6 43.5 79.4C42.4333 78.1333 40.7667 77.1333 38.5 76.4L23.9 71.6C17.9667 69.6667 13.5 66.9333 10.5 63.4C7.5 59.8 6 55.5 6 50.5C6 46.1 7.06667 42.2333 9.2 38.9C11.4 35.5667 14.4333 32.9667 18.3 31.1C22.2333 29.2333 26.7333 28.3 31.8 28.3C36.2667 28.3 40.4 29.0667 44.2 30.6C48 32.1333 51.2667 34.3 54 37.1C56.8 39.9 58.9 43.2667 60.3 47.2L47.7 52.9C46.3 49.4333 44.2 46.7333 41.4 44.8C38.6 42.8 35.4 41.8 31.8 41.8C29.7333 41.8 27.9 42.1333 26.3 42.8C24.7 43.4667 23.4667 44.4333 22.6 45.7C21.7333 46.9 21.3 48.3 21.3 49.9C21.3 51.6333 21.8667 53.1667 23 54.5C24.1333 55.7667 25.8333 56.7667 28.1 57.5L42.4 62.1C48.4 64.0333 52.8667 66.7333 55.8 70.2C58.8 73.6667 60.3 77.9 60.3 82.9C60.3 87.2333 59.1667 91.1 56.9 94.5C54.6333 97.8333 51.5 100.467 47.5 102.4C43.5667 104.267 38.9667 105.2 33.7 105.2ZM76.3461 104V29.5H91.8461V66.8L87.5461 65.3L117.346 29.5H136.746L107.246 65.1L108.146 54.1L137.346 104H119.246L101.046 72.5L91.8461 83.6V104H76.3461ZM149.998 104V29.5H165.498V104H149.998ZM183.709 104V29.5H195.609L235.609 82.2L229.209 83.7V29.5H244.709V104H232.709L193.409 50.9L199.209 49.4V104H183.709ZM321.297 105.2C315.964 105.2 310.997 104.233 306.397 102.3C301.864 100.367 297.897 97.6667 294.497 94.2C291.097 90.7333 288.43 86.6667 286.497 82C284.63 77.3333 283.697 72.2333 283.697 66.7C283.697 61.1667 284.63 56.0667 286.497 51.4C288.364 46.6667 290.997 42.6 294.397 39.2C297.797 35.7333 301.764 33.0667 306.297 31.2C310.897 29.2667 315.897 28.3 321.297 28.3C326.697 28.3 331.53 29.2 335.797 31C340.13 32.8 343.797 35.2 346.797 38.2C349.797 41.2 351.93 44.5333 353.197 48.2L339.497 54.8C338.23 51.2 335.997 48.2333 332.797 45.9C329.664 43.5 325.83 42.3 321.297 42.3C316.897 42.3 313.03 43.3333 309.697 45.4C306.364 47.4667 303.764 50.3333 301.897 54C300.097 57.6 299.197 61.8333 299.197 66.7C299.197 71.5667 300.097 75.8333 301.897 79.5C303.764 83.1667 306.364 86.0333 309.697 88.1C313.03 90.1667 316.897 91.2 321.297 91.2C325.83 91.2 329.664 90.0333 332.797 87.7C335.997 85.3 338.23 82.3 339.497 78.7L353.197 85.3C351.93 88.9667 349.797 92.3 346.797 95.3C343.797 98.3 340.13 100.7 335.797 102.5C331.53 104.3 326.697 105.2 321.297 105.2ZM362.643 104L387.843 29.5H408.443L433.643 104H416.743L411.743 88.8H384.443L379.443 104H362.643ZM388.743 75.3H407.443L396.043 40.1H400.243L388.743 75.3ZM446.385 104V29.5H474.885C480.018 29.5 484.552 30.4 488.485 32.2C492.485 34 495.618 36.6667 497.885 40.2C500.152 43.7333 501.285 48.1 501.285 53.3C501.285 58.3667 500.118 62.7 497.785 66.3C495.452 69.8333 492.318 72.5 488.385 74.3L505.385 104H487.985L469.585 71.1L479.585 77H461.885V104H446.385ZM461.885 63.5H474.985C477.185 63.5 479.085 63.0667 480.685 62.2C482.285 61.3333 483.518 60.1333 484.385 58.6C485.318 57.0667 485.785 55.3 485.785 53.3C485.785 51.2333 485.318 49.4333 484.385 47.9C483.518 46.3667 482.285 45.1667 480.685 44.3C479.085 43.4333 477.185 43 474.985 43H461.885V63.5ZM518.084 104V29.5H568.184V43H533.584V59.9H566.184V73.4H533.584V90.5H568.184V104H518.084ZM20.6 230L1.1 155.5H17.9L32.6 217.9H28.1L43.6 155.5H59.6L75.1 217.9H70.6L85.3 155.5H102.1L82.6 230H64.6L49 170H54.2L38.6 230H20.6ZM114.823 230V155.5H130.323V230H114.823ZM161.934 230V169H143.034V155.5H196.034V169H177.434V230H161.934ZM208.709 230V155.5H224.209V187.7H253.209V155.5H268.709V230H253.209V201.2H224.209V230H208.709ZM304.42 230L329.62 155.5H350.22L375.42 230H358.52L353.52 214.8H326.22L321.22 230H304.42ZM330.52 201.3H349.22L337.82 166.1H342.02L330.52 201.3ZM388.162 230V155.5H403.663V230H388.162Z" fill="#1E1E1E"/>
<path d="M71.4 294.8C68.4 290.4 61.6 284.2 56.4 280L46.9 288.1C52.2 292.7 58.6 299.4 61.2 303.8L71.4 294.8ZM43.4 314.6C48.8 319.2 55.5 325.9 58.4 330.4L68.4 321.1C65.2 316.7 58.1 310.5 52.7 306.3L43.4 314.6ZM43.5 329.4C41.6 327.3 33.7 318.7 31 316.4V316.1H43.3V302.6H31V290.6C35.4 289.6 39.7 288.4 43.7 287L35.8 275.1C27.1 278.6 14.8 281.7 3.3 283.4C4.8 286.5 6.6 291.4 7.1 294.6C10.3 294.3 13.6 293.8 16.9 293.3V302.6H2.7V316.1H15C11.6 324.8 6.7 334.3 1.5 340.4C3.7 344.1 6.8 350.2 8.1 354.4C11.3 350.2 14.2 344.7 16.9 338.6V369.5H31V332.5C32.7 335.5 34.2 338.5 35.2 340.8L43.5 329.4ZM98 342.6L95.8 328.9L86.8 330.5V274.4H72.5V333L41.3 338.6L43.6 352.5L72.5 347.2V369.4H86.8V344.6L98 342.6ZM141.8 316.6L133.6 318.5V306.3H142.8V292.9H133.6V274.5H119.3V292.9H108.5V306.3H119.3V321.7C114.8 322.6 110.7 323.5 107.2 324.1L110.8 338L119.3 336V353.8C119.3 355.2 118.8 355.7 117.4 355.7C116.1 355.7 112 355.7 108.5 355.6C110.2 359.3 112 365.1 112.4 368.8C119.7 368.8 124.9 368.4 128.7 366.2C132.5 364 133.6 360.5 133.6 353.9V332.5C137 331.6 140.3 330.8 143.6 329.9L141.8 316.6ZM182.2 324.7C179.5 330.3 175.9 335.2 171.5 339.4C167.4 335 164.1 330.1 161.5 324.7H182.2ZM191.1 311.1L188.7 311.6H178.8V301.3H200.4V288H178.8V274.5H164.4V288H144V301.3H164.4V311.6H145.6V324.7H152L147.4 326C150.9 334.3 155.2 341.5 160.4 347.7C153.9 351.5 146.5 354.3 138.2 356.1C141 359.2 144.4 365.4 145.9 369.2C155.4 366.4 163.8 362.8 171.1 357.9C177.9 363 185.8 366.9 195.2 369.6C197.2 365.9 201.3 360 204.4 357.1C196.1 355.2 188.9 352.2 182.7 348.4C190.9 339.8 196.9 328.9 200.5 314.8L191.1 311.1ZM276.4 308.7H267.7V306.3H276.4V308.7ZM276.4 317.9H267.7V315.5H276.4V317.9ZM276.4 327.3H267.7V324.7H276.4V327.3ZM263.2 292.8L258.3 291.3C256 297.8 252 304.3 247.6 308.9V305.2H217V316H247.6V311.7C249.7 314.6 252.3 318.8 253.4 320.9C254.2 320.1 255.1 319.2 255.9 318.2V336.5H267.7V335.4H306V327.3H288.3V324.7H301.4V317.9H288.3V315.5H301.4V308.7H288.3V306.3H304.1V297.9H288.8C288.4 296.5 287.9 294.9 287.4 293.5H294.6V289.1H306.6V278.5H294.6V274.6H281.8V292.3L273.7 294.3C274.1 295.4 274.4 296.6 274.8 297.9H268.3C268.8 296.8 269.2 295.8 269.6 294.7L265.6 293.5H275.8V274.6H263.2V278.7H250.8V289.3H263.2V292.8ZM217 329.8H247.6V319H217V329.8ZM251 290.9H234.8L240.6 287.7C239.1 283.9 236.2 278.3 233.6 274L222.8 279.3C224.6 282.8 226.8 287.2 228.2 290.9H212.6V302.2H251V290.9ZM283.9 347.4C282.3 348.6 280.4 349.6 278.4 350.6C276.7 349.6 275.2 348.6 273.8 347.4H283.9ZM236.2 352.7H228.4V344.5H236.2V352.7ZM296.2 337.4L294 337.9H253.3V347.4H264L259.9 348.6C261.6 351 263.6 353.2 265.8 355.2C260.3 356.6 254.4 357.7 248.2 358.3V333.1H216.6V368.2H228.4V364.2H248.2V359.6C250.2 362.5 252.3 366.8 253.3 369.7C262.2 368.3 270.6 366.3 278 363.3C284.4 366.3 292 368.3 300.7 369.4C302.3 366 305.8 360.7 308.6 358C302.6 357.6 297 356.8 292.1 355.6C297.2 351.8 301.5 347.1 304.5 341.3L296.2 337.4ZM382.8 352.1L384.7 348.1C380.9 346.7 374.5 345.1 368.7 344H386.4V351.7L382.8 352.1ZM361.3 344H364L361.7 348.6C366.8 349.5 373.1 351.1 377.9 352.7C371.6 353.3 365.7 353.9 361.1 354.3C361.2 352.5 361.3 350.7 361.3 349V344ZM400.3 338.6H347.6V348.6C347.6 353.3 347.1 358.1 341.2 362C344.3 363.7 350.5 368.4 352.8 370.7C358.1 366.9 360.2 361.2 360.9 355.4L363.3 363C370.2 361.8 378.1 360.3 386.4 358.8V359.3C386.4 360.2 386 360.5 385.1 360.5C384.3 360.6 381.6 360.6 379.7 360.4C380.9 362.9 382.4 366.2 383.1 369.1C388.3 369.1 392.7 369.1 395.9 367.8C399.3 366.4 400.3 364.4 400.3 359.2V338.6ZM355.4 329.3H366.9V331.6H355.4V329.3ZM355.4 322.2H366.9V324.5H355.4V322.2ZM391.8 324.5H379.9V322.2H391.8V324.5ZM391.8 331.6H379.9V329.3H391.8V331.6ZM342.3 336.6H405.6V317.2H342.3V336.6ZM374.3 307.7C371.9 307.7 370.7 307.3 370.2 306.5L391.1 306L391 300L369.8 300.5V298.4H393.9C393.4 300.1 392.8 301.8 392.3 303.1L404.5 307C406.8 303 409.3 296.9 411 291.3L400.2 288.6L397.9 289.2H371.6V287H402.3V278.3H371.6V274.3H357V289.2H325.9V314.9C325.9 328.9 325.3 348.8 317.1 362.2C320.6 363.5 326.9 367.2 329.6 369.5C338.5 354.7 340 330.9 340 315V298.4H357V300.8L341.9 301.1L342 307.1L357.1 306.8C357.7 312.7 360.8 316 371.3 316H394.1C399.2 316 405.5 315.8 408.4 315C407.9 312.4 407.7 310.2 407.3 306.6C404.8 307.2 396.7 307.7 392.3 307.7H374.3ZM478.1 352.2V335.8H505.4V321.8H478.1V307H510.5V292.8H479.3L484.8 288.8C480.3 284.1 471.4 277.9 465 274L452.9 282.5C457.2 285.4 462.2 289.2 466.3 292.8H429V307H462V321.8H434.7V335.8H462V352.2H424.9V366.5H515.4V352.2H478.1ZM543.8 323C543.9 319.8 544 316.5 544.1 313.2H560.8V278.7H530.6V291.5H547.6V300.3H531.7C531.8 311.8 531.2 326.1 530.3 335.4H547.6C546.9 347.4 546.1 352.7 544.7 354.1C543.6 355.2 542.6 355.4 541.1 355.4C539.1 355.4 535.3 355.3 531.3 354.9C533.8 358.8 535.4 364.7 535.7 369.2C540.5 369.3 545 369.2 547.8 368.7C551.3 368.1 553.6 367.1 556 364C559 360.4 560.1 350.4 561.2 328.3C561.3 326.6 561.4 323 561.4 323H543.8ZM610.7 331.5C608.3 334 604.6 337.2 601.1 339.8C599 337.1 597.2 334.4 595.6 331.5H610.7ZM610.9 331.5H620.8V319.3H581.4V315.9H615.2V305.9H581.4V302.5H615.1V292.6H581.4V289.5H619.3V278.3H567.3V319.3H562.2V331.5H565.8V348.8C565.8 353.6 562.9 356.8 560.5 358.4C562.6 360.9 565.7 366.6 566.6 369.7C568.9 368 572.7 366.3 591.1 360.8C590.6 357.9 590.3 352.6 590.4 349L579.4 351.9V331.5H582.5C589.2 347.5 599.4 361.2 613.4 368.6C615.6 364.9 620 359.5 623.1 356.8C617.9 354.6 613.1 351.5 608.9 347.8C612.7 345.7 617 343.1 621.4 340.5L610.9 331.5ZM647.6 361.4C653.7 361.4 658.2 356.5 658.2 350.3C658.2 344.1 653.7 339.3 647.6 339.3C641.4 339.3 637 344.1 637 350.3C637 356.5 641.4 361.4 647.6 361.4Z" fill="#1E1E1E"/>
<mask id="mask0_3016_5261" style="mask-type:alpha" maskUnits="userSpaceOnUse" x="220" y="0" width="250" height="250">
<circle cx="345" cy="125" r="125" fill="#D9D9D9"/>
</mask>
<g mask="url(#mask0_3016_5261)">
<path d="M33.7 105.2C29.0333 105.2 24.6333 104.367 20.5 102.7C16.4333 100.967 12.9 98.5333 9.9 95.4C6.96667 92.2667 4.76667 88.5667 3.3 84.3L16 78.6C17.8667 82.6667 20.4333 85.8667 23.7 88.2C27.0333 90.5333 30.7 91.7 34.7 91.7C36.8333 91.7 38.6667 91.3667 40.2 90.7C41.7333 90.0333 42.9333 89.1333 43.8 88C44.6667 86.8 45.1 85.4 45.1 83.8C45.1 82.0667 44.5667 80.6 43.5 79.4C42.4333 78.1333 40.7667 77.1333 38.5 76.4L23.9 71.6C17.9667 69.6667 13.5 66.9333 10.5 63.4C7.5 59.8 6 55.5 6 50.5C6 46.1 7.06667 42.2333 9.2 38.9C11.4 35.5667 14.4333 32.9667 18.3 31.1C22.2333 29.2333 26.7333 28.3 31.8 28.3C36.2667 28.3 40.4 29.0667 44.2 30.6C48 32.1333 51.2667 34.3 54 37.1C56.8 39.9 58.9 43.2667 60.3 47.2L47.7 52.9C46.3 49.4333 44.2 46.7333 41.4 44.8C38.6 42.8 35.4 41.8 31.8 41.8C29.7333 41.8 27.9 42.1333 26.3 42.8C24.7 43.4667 23.4667 44.4333 22.6 45.7C21.7333 46.9 21.3 48.3 21.3 49.9C21.3 51.6333 21.8667 53.1667 23 54.5C24.1333 55.7667 25.8333 56.7667 28.1 57.5L42.4 62.1C48.4 64.0333 52.8667 66.7333 55.8 70.2C58.8 73.6667 60.3 77.9 60.3 82.9C60.3 87.2333 59.1667 91.1 56.9 94.5C54.6333 97.8333 51.5 100.467 47.5 102.4C43.5667 104.267 38.9667 105.2 33.7 105.2ZM76.3461 104V29.5H91.8461V66.8L87.5461 65.3L117.346 29.5H136.746L107.246 65.1L108.146 54.1L137.346 104H119.246L101.046 72.5L91.8461 83.6V104H76.3461ZM149.998 104V29.5H165.498V104H149.998ZM183.709 104V29.5H195.609L235.609 82.2L229.209 83.7V29.5H244.709V104H232.709L193.409 50.9L199.209 49.4V104H183.709ZM321.297 105.2C315.964 105.2 310.997 104.233 306.397 102.3C301.864 100.367 297.897 97.6667 294.497 94.2C291.097 90.7333 288.43 86.6667 286.497 82C284.63 77.3333 283.697 72.2333 283.697 66.7C283.697 61.1667 284.63 56.0667 286.497 51.4C288.364 46.6667 290.997 42.6 294.397 39.2C297.797 35.7333 301.764 33.0667 306.297 31.2C310.897 29.2667 315.897 28.3 321.297 28.3C326.697 28.3 331.53 29.2 335.797 31C340.13 32.8 343.797 35.2 346.797 38.2C349.797 41.2 351.93 44.5333 353.197 48.2L339.497 54.8C338.23 51.2 335.997 48.2333 332.797 45.9C329.664 43.5 325.83 42.3 321.297 42.3C316.897 42.3 313.03 43.3333 309.697 45.4C306.364 47.4667 303.764 50.3333 301.897 54C300.097 57.6 299.197 61.8333 299.197 66.7C299.197 71.5667 300.097 75.8333 301.897 79.5C303.764 83.1667 306.364 86.0333 309.697 88.1C313.03 90.1667 316.897 91.2 321.297 91.2C325.83 91.2 329.664 90.0333 332.797 87.7C335.997 85.3 338.23 82.3 339.497 78.7L353.197 85.3C351.93 88.9667 349.797 92.3 346.797 95.3C343.797 98.3 340.13 100.7 335.797 102.5C331.53 104.3 326.697 105.2 321.297 105.2ZM362.643 104L387.843 29.5H408.443L433.643 104H416.743L411.743 88.8H384.443L379.443 104H362.643ZM388.743 75.3H407.443L396.043 40.1H400.243L388.743 75.3ZM446.385 104V29.5H474.885C480.018 29.5 484.552 30.4 488.485 32.2C492.485 34 495.618 36.6667 497.885 40.2C500.152 43.7333 501.285 48.1 501.285 53.3C501.285 58.3667 500.118 62.7 497.785 66.3C495.452 69.8333 492.318 72.5 488.385 74.3L505.385 104H487.985L469.585 71.1L479.585 77H461.885V104H446.385ZM461.885 63.5H474.985C477.185 63.5 479.085 63.0667 480.685 62.2C482.285 61.3333 483.518 60.1333 484.385 58.6C485.318 57.0667 485.785 55.3 485.785 53.3C485.785 51.2333 485.318 49.4333 484.385 47.9C483.518 46.3667 482.285 45.1667 480.685 44.3C479.085 43.4333 477.185 43 474.985 43H461.885V63.5ZM518.084 104V29.5H568.184V43H533.584V59.9H566.184V73.4H533.584V90.5H568.184V104H518.084ZM20.6 230L1.1 155.5H17.9L32.6 217.9H28.1L43.6 155.5H59.6L75.1 217.9H70.6L85.3 155.5H102.1L82.6 230H64.6L49 170H54.2L38.6 230H20.6ZM114.823 230V155.5H130.323V230H114.823ZM161.934 230V169H143.034V155.5H196.034V169H177.434V230H161.934ZM208.709 230V155.5H224.209V187.7H253.209V155.5H268.709V230H253.209V201.2H224.209V230H208.709ZM304.42 230L329.62 155.5H350.22L375.42 230H358.52L353.52 214.8H326.22L321.22 230H304.42ZM330.52 201.3H349.22L337.82 166.1H342.02L330.52 201.3ZM388.162 230V155.5H403.663V230H388.162Z" fill="white"/>
<path d="M20.5 102.7L19.9119 104.08L19.9254 104.086L19.939 104.091L20.5 102.7ZM9.9 95.4L8.80497 96.4251L8.81072 96.4313L8.81654 96.4374L9.9 95.4ZM3.3 84.3L2.6858 82.9315L1.43622 83.4923L1.88147 84.7876L3.3 84.3ZM16 78.6L17.3632 77.9743L16.7428 76.6225L15.3858 77.2315L16 78.6ZM23.7 88.2L22.8281 89.4206L22.834 89.4248L22.8398 89.4288L23.7 88.2ZM40.2 90.7L40.7981 92.0756L40.2 90.7ZM43.8 88L44.9915 88.9112L45.004 88.8949L45.016 88.8782L43.8 88ZM43.5 79.4L42.3526 80.3662L42.3656 80.3815L42.3789 80.3965L43.5 79.4ZM38.5 76.4L38.0315 77.825L38.0383 77.8272L38.5 76.4ZM23.9 71.6L24.3685 70.175L24.3647 70.1738L23.9 71.6ZM10.5 63.4L9.34762 64.3603L9.35656 64.3708L10.5 63.4ZM9.2 38.9L7.94809 38.0737L7.94228 38.0825L7.93659 38.0914L9.2 38.9ZM18.3 31.1L17.6569 29.7448L17.6479 29.7492L18.3 31.1ZM44.2 30.6L44.7613 29.209L44.2 30.6ZM54 37.1L52.9266 38.1478L52.933 38.1543L52.9393 38.1607L54 37.1ZM60.3 47.2L60.9183 48.5667L62.1761 47.9976L61.7132 46.697L60.3 47.2ZM47.7 52.9L46.3091 53.4617L46.8944 54.9108L48.3183 54.2667L47.7 52.9ZM41.4 44.8L40.5281 46.0206L40.5379 46.0275L40.5477 46.0343L41.4 44.8ZM26.3 42.8L26.8769 44.1846L26.3 42.8ZM22.6 45.7L23.816 46.5782L23.8272 46.5628L23.838 46.547L22.6 45.7ZM23 54.5L21.8571 55.4715L21.8694 55.486L21.8821 55.5002L23 54.5ZM28.1 57.5L27.6383 58.9272L27.6407 58.9279L28.1 57.5ZM42.4 62.1L42.86 60.6723L42.8593 60.6721L42.4 62.1ZM55.8 70.2L54.6549 71.1689L54.6603 71.1753L54.6657 71.1816L55.8 70.2ZM56.9 94.5L58.1404 95.3435L58.1481 95.332L56.9 94.5ZM47.5 102.4L48.1431 103.755L48.1528 103.751L47.5 102.4ZM33.7 103.7C29.2164 103.7 25.0077 102.9 21.061 101.309L19.939 104.091C24.259 105.833 28.8503 106.7 33.7 106.7V103.7ZM21.0881 101.32C17.2044 99.6647 13.8405 97.3466 10.9835 94.3626L8.81654 96.4374C11.9595 99.72 15.6623 102.269 19.9119 104.08L21.0881 101.32ZM10.995 94.3749C8.21358 91.4038 6.12005 87.8895 4.71853 83.8124L1.88147 84.7876C3.41329 89.2438 5.71976 93.1296 8.80497 96.4251L10.995 94.3749ZM3.9142 85.6685L16.6142 79.9685L15.3858 77.2315L2.6858 82.9315L3.9142 85.6685ZM14.6368 79.2258C16.5998 83.5023 19.325 86.9183 22.8281 89.4206L24.5719 86.9794C21.5417 84.815 19.1336 81.831 17.3632 77.9743L14.6368 79.2258ZM22.8398 89.4288C26.4206 91.9354 30.3866 93.2 34.7 93.2V90.2C31.0134 90.2 27.646 89.1312 24.5602 86.9712L22.8398 89.4288ZM34.7 93.2C36.9845 93.2 39.0317 92.8436 40.7981 92.0756L39.6019 89.3244C38.3017 89.8897 36.6822 90.2 34.7 90.2V93.2ZM40.7981 92.0756C42.5251 91.3247 43.945 90.2797 44.9915 88.9112L42.6085 87.0888C41.9216 87.987 40.9416 88.7419 39.6019 89.3244L40.7981 92.0756ZM45.016 88.8782C46.0825 87.4016 46.6 85.6884 46.6 83.8H43.6C43.6 85.1116 43.2509 86.1984 42.584 87.1218L45.016 88.8782ZM46.6 83.8C46.6 81.731 45.9521 79.9009 44.6211 78.4035L42.3789 80.3965C43.1812 81.2991 43.6 82.4023 43.6 83.8H46.6ZM44.6474 78.4338C43.3371 76.8778 41.3846 75.7567 38.9617 74.9728L38.0383 77.8272C40.1488 78.51 41.5296 79.3889 42.3526 80.3662L44.6474 78.4338ZM38.9685 74.975L24.3685 70.175L23.4315 73.025L38.0315 77.825L38.9685 74.975ZM24.3647 70.1738C18.6068 68.2976 14.4117 65.6895 11.6434 62.4292L9.35656 64.3708C12.5883 68.1771 17.3265 71.0357 23.4353 73.0262L24.3647 70.1738ZM11.6523 62.4397C8.89269 59.1282 7.5 55.1744 7.5 50.5H4.5C4.5 55.8255 6.10731 60.4718 9.34767 64.3603L11.6523 62.4397ZM7.5 50.5C7.5 46.3535 8.5015 42.7741 10.4634 39.7086L7.93659 38.0914C5.63183 41.6926 4.5 45.8465 4.5 50.5H7.5ZM10.4519 39.7263C12.4918 36.6356 15.3101 34.2091 18.9521 32.4508L17.6479 29.7492C13.5566 31.7243 10.3082 34.4977 7.94809 38.0737L10.4519 39.7263ZM18.9431 32.4551C22.6451 30.6983 26.9195 29.8 31.8 29.8V26.8C26.5471 26.8 21.8216 27.7684 17.6569 29.7449L18.9431 32.4551ZM31.8 29.8C36.0917 29.8 40.0326 30.5359 43.6387 31.991L44.7613 29.209C40.7675 27.5974 36.4416 26.8 31.8 26.8V29.8ZM43.6387 31.991C47.2554 33.4504 50.3452 35.5034 52.9266 38.1478L55.0734 36.0522C52.1881 33.0966 48.7446 30.8163 44.7613 29.209L43.6387 31.991ZM52.9393 38.1607C55.5734 40.7947 57.5574 43.9677 58.8869 47.703L61.7132 46.697C60.2427 42.5656 58.0266 39.0053 55.0607 36.0393L52.9393 38.1607ZM59.6818 45.8333L47.0818 51.5333L48.3183 54.2667L60.9183 48.5667L59.6818 45.8333ZM49.0909 52.3383C47.5923 48.6275 45.3174 45.682 42.2523 43.5657L40.5477 46.0343C43.0826 47.7846 45.0077 50.2391 46.3091 53.4617L49.0909 52.3383ZM42.2719 43.5794C39.2052 41.3889 35.6973 40.3 31.8 40.3V43.3C35.1027 43.3 37.9948 44.2111 40.5281 46.0206L42.2719 43.5794ZM31.8 40.3C29.5726 40.3 27.5375 40.6594 25.7231 41.4154L26.8769 44.1846C28.2625 43.6073 29.894 43.3 31.8 43.3V40.3ZM25.7231 41.4154C23.8911 42.1787 22.413 43.3169 21.362 44.853L23.838 46.547C24.5203 45.5497 25.5089 44.7546 26.8769 44.1846L25.7231 41.4154ZM21.384 44.8218C20.3175 46.2984 19.8 48.0116 19.8 49.9H22.8C22.8 48.5884 23.1491 47.5016 23.816 46.5782L21.384 44.8218ZM19.8 49.9C19.8 51.993 20.4957 53.8698 21.8571 55.4715L24.1429 53.5285C23.2377 52.4635 22.8 51.2737 22.8 49.9H19.8ZM21.8821 55.5002C23.2497 57.0286 25.2154 58.1433 27.6383 58.9272L28.5617 56.0728C26.4513 55.39 25.017 54.5047 24.1179 53.4998L21.8821 55.5002ZM27.6407 58.9279L41.9407 63.5279L42.8593 60.6721L28.5593 56.0721L27.6407 58.9279ZM41.94 63.5277C47.7726 65.4071 51.9599 67.9839 54.6549 71.1689L56.9451 69.2311C53.7734 65.4828 49.0274 62.6596 42.86 60.6723L41.94 63.5277ZM54.6657 71.1816C57.4078 74.3501 58.8 78.2253 58.8 82.9H61.8C61.8 77.5747 60.1922 72.9832 56.9343 69.2184L54.6657 71.1816ZM58.8 82.9C58.8 86.956 57.7442 90.5296 55.6519 93.6679L58.1481 95.332C60.5892 91.6704 61.8 87.5106 61.8 82.9H58.8ZM55.6596 93.6565C53.5557 96.7505 50.6351 99.2187 46.8472 101.049L48.1528 103.751C52.3649 101.715 55.7109 98.9162 58.1404 95.3435L55.6596 93.6565ZM46.8569 101.045C43.1622 102.798 38.7901 103.7 33.7 103.7V106.7C39.1432 106.7 43.9711 105.735 48.1431 103.755L46.8569 101.045ZM76.3461 104H74.8461V105.5H76.3461V104ZM76.3461 29.5V28H74.8461V29.5H76.3461ZM91.8461 29.5H93.3461V28H91.8461V29.5ZM91.8461 66.8L91.352 68.2163L93.3461 68.9119V66.8H91.8461ZM87.5461 65.3L86.3932 64.3404L85.0088 66.0035L87.052 66.7163L87.5461 65.3ZM117.346 29.5V28H116.643L116.193 28.5403L117.346 29.5ZM136.746 29.5L137.901 30.4571L139.937 28H136.746V29.5ZM107.246 65.1L105.751 64.9777L105.363 69.7236L108.401 66.0571L107.246 65.1ZM108.146 54.1L109.441 53.3424L107.039 49.2379L106.651 53.9777L108.146 54.1ZM137.346 104V105.5H139.962L138.641 103.242L137.346 104ZM119.246 104L117.947 104.75L118.38 105.5H119.246V104ZM101.046 72.5L102.345 71.7496L101.267 69.8833L99.8912 71.5428L101.046 72.5ZM91.8461 83.6L90.6912 82.6428L90.3461 83.0592V83.6H91.8461ZM91.8461 104V105.5H93.3461V104H91.8461ZM77.8461 104V29.5H74.8461V104H77.8461ZM76.3461 31H91.8461V28H76.3461V31ZM90.3461 29.5V66.8H93.3461V29.5H90.3461ZM92.3402 65.3837L88.0402 63.8837L87.052 66.7163L91.352 68.2163L92.3402 65.3837ZM88.699 66.2596L118.499 30.4596L116.193 28.5403L86.3932 64.3404L88.699 66.2596ZM117.346 31H136.746V28H117.346V31ZM135.591 28.5429L106.091 64.1429L108.401 66.0571L137.901 30.4571L135.591 28.5429ZM108.741 65.2223L109.641 54.2223L106.651 53.9777L105.751 64.9777L108.741 65.2223ZM106.851 54.8576L136.051 104.758L138.641 103.242L109.441 53.3424L106.851 54.8576ZM137.346 102.5H119.246V105.5H137.346V102.5ZM120.545 103.25L102.345 71.7496L99.7473 73.2504L117.947 104.75L120.545 103.25ZM99.8912 71.5428L90.6912 82.6428L93.001 84.5572L102.201 73.4572L99.8912 71.5428ZM90.3461 83.6V104H93.3461V83.6H90.3461ZM91.8461 102.5H76.3461V105.5H91.8461V102.5ZM149.998 104H148.498V105.5H149.998V104ZM149.998 29.5V28H148.498V29.5H149.998ZM165.498 29.5H166.998V28H165.498V29.5ZM165.498 104V105.5H166.998V104H165.498ZM151.498 104V29.5H148.498V104H151.498ZM149.998 31H165.498V28H149.998V31ZM163.998 29.5V104H166.998V29.5H163.998ZM165.498 102.5H149.998V105.5H165.498V102.5ZM183.709 104H182.209V105.5H183.709V104ZM183.709 29.5V28H182.209V29.5H183.709ZM195.609 29.5L196.804 28.5931L196.354 28H195.609V29.5ZM235.609 82.2L235.952 83.6604L238.201 83.1333L236.804 81.2931L235.609 82.2ZM229.209 83.7H227.709V85.5922L229.552 85.1604L229.209 83.7ZM229.209 29.5V28H227.709V29.5H229.209ZM244.709 29.5H246.209V28H244.709V29.5ZM244.709 104V105.5H246.209V104H244.709ZM232.709 104L231.504 104.892L231.953 105.5H232.709V104ZM193.409 50.9L193.034 49.4478L190.881 50.0046L192.204 51.7924L193.409 50.9ZM199.209 49.4H200.709V47.4627L198.834 47.9478L199.209 49.4ZM199.209 104V105.5H200.709V104H199.209ZM185.209 104V29.5H182.209V104H185.209ZM183.709 31H195.609V28H183.709V31ZM194.415 30.4069L234.415 83.1069L236.804 81.2931L196.804 28.5931L194.415 30.4069ZM235.267 80.7396L228.867 82.2396L229.552 85.1604L235.952 83.6604L235.267 80.7396ZM230.709 83.7V29.5H227.709V83.7H230.709ZM229.209 31H244.709V28H229.209V31ZM243.209 29.5V104H246.209V29.5H243.209ZM244.709 102.5H232.709V105.5H244.709V102.5ZM233.915 103.108L194.615 50.0076L192.204 51.7924L231.504 104.892L233.915 103.108ZM193.785 52.3522L199.585 50.8522L198.834 47.9478L193.034 49.4478L193.785 52.3522ZM197.709 49.4V104H200.709V49.4H197.709ZM199.209 102.5H183.709V105.5H199.209V102.5ZM306.397 102.3L305.808 103.68L305.816 103.683L306.397 102.3ZM294.497 94.2L295.568 93.1497L294.497 94.2ZM286.497 82L285.104 82.5571L285.108 82.5656L285.111 82.5741L286.497 82ZM286.497 51.4L287.89 51.9571L287.892 51.9503L286.497 51.4ZM294.397 39.2L295.458 40.2607L295.463 40.2555L295.468 40.2503L294.397 39.2ZM306.297 31.2L306.868 32.587L306.878 32.5828L306.297 31.2ZM335.797 31L335.214 32.3821L335.221 32.3852L335.797 31ZM346.797 38.2L347.858 37.1393L346.797 38.2ZM353.197 48.2L353.848 49.5514L355.051 48.972L354.615 47.7102L353.197 48.2ZM339.497 54.8L338.082 55.2979L338.638 56.8787L340.148 56.1514L339.497 54.8ZM332.797 45.9L331.885 47.0908L331.899 47.1016L331.913 47.112L332.797 45.9ZM309.697 45.4L310.487 46.6749L309.697 45.4ZM301.897 54L300.56 53.3195L300.555 53.3292L301.897 54ZM301.897 79.5L300.55 80.161L300.555 80.1708L300.56 80.1805L301.897 79.5ZM309.697 88.1L310.487 86.8251L309.697 88.1ZM332.797 87.7L333.693 88.9031L333.697 88.9L332.797 87.7ZM339.497 78.7L340.148 77.3486L338.638 76.6213L338.082 78.2021L339.497 78.7ZM353.197 85.3L354.615 85.7898L355.051 84.528L353.848 83.9486L353.197 85.3ZM346.797 95.3L345.736 94.2393L346.797 95.3ZM335.797 102.5L335.221 101.115L335.214 101.118L335.797 102.5ZM321.297 103.7C316.149 103.7 311.382 102.768 306.978 100.917L305.816 103.683C310.612 105.699 315.778 106.7 321.297 106.7V103.7ZM306.985 100.92C302.63 99.0629 298.828 96.4738 295.568 93.1497L293.426 95.2503C296.966 98.8595 301.097 101.67 305.808 103.68L306.985 100.92ZM295.568 93.1497C292.308 89.8256 289.746 85.9224 287.883 81.4259L285.111 82.5741C287.115 87.4109 289.886 91.641 293.426 95.2503L295.568 93.1497ZM287.89 81.4429C286.101 76.9705 285.197 72.0618 285.197 66.7H282.197C282.197 72.4049 283.16 77.6962 285.104 82.5571L287.89 81.4429ZM285.197 66.7C285.197 61.3382 286.101 56.4295 287.89 51.9571L285.104 50.8429C283.16 55.7038 282.197 60.9951 282.197 66.7H285.197ZM287.892 51.9503C289.688 47.3969 292.211 43.5069 295.458 40.2607L293.336 38.1393C289.782 41.6931 287.039 45.9364 285.101 50.8497L287.892 51.9503ZM295.468 40.2503C298.724 36.93 302.52 34.3772 306.868 32.587L305.726 29.813C301.007 31.7561 296.869 34.5367 293.326 38.1497L295.468 40.2503ZM306.878 32.5828C311.279 30.733 316.08 29.8 321.297 29.8V26.8C315.714 26.8 310.514 27.8003 305.716 29.8172L306.878 32.5828ZM321.297 29.8C326.529 29.8 331.16 30.6717 335.214 32.382L336.38 29.618C331.901 27.7283 326.864 26.8 321.297 26.8V29.8ZM335.221 32.3852C339.393 34.1179 342.889 36.4136 345.736 39.2607L347.858 37.1393C344.705 33.9864 340.868 31.4821 336.372 29.6148L335.221 32.3852ZM345.736 39.2607C348.591 42.1152 350.593 45.2576 351.779 48.6898L354.615 47.7102C353.267 43.8091 351.003 40.2848 347.858 37.1393L345.736 39.2607ZM352.546 46.8486L338.846 53.4486L340.148 56.1514L353.848 49.5514L352.546 46.8486ZM340.912 54.3021C339.54 50.4046 337.116 47.193 333.681 44.688L331.913 47.112C334.878 49.2737 336.92 51.9954 338.082 55.2979L340.912 54.3021ZM333.709 44.7092C330.276 42.0796 326.109 40.8 321.297 40.8V43.8C325.552 43.8 329.051 44.9204 331.885 47.0908L333.709 44.7092ZM321.297 40.8C316.653 40.8 312.505 41.8939 308.906 44.1251L310.487 46.6749C313.555 44.7728 317.141 43.8 321.297 43.8V40.8ZM308.906 44.1251C305.328 46.3435 302.545 49.421 300.56 53.3195L303.234 54.6805C304.982 51.2456 307.399 48.5898 310.487 46.6749L308.906 44.1251ZM300.555 53.3292C298.632 57.1766 297.697 61.6486 297.697 66.7H300.697C300.697 62.0181 301.562 58.0234 303.239 54.6708L300.555 53.3292ZM297.697 66.7C297.697 71.7524 298.632 76.2529 300.55 80.161L303.243 78.839C301.562 75.4138 300.697 71.381 300.697 66.7H297.697ZM300.56 80.1805C302.545 84.079 305.328 87.1565 308.906 89.3749L310.487 86.8251C307.399 84.9102 304.982 82.2544 303.234 78.8195L300.56 80.1805ZM308.906 89.3749C312.505 91.6061 316.653 92.7 321.297 92.7V89.7C317.141 89.7 313.555 88.7272 310.487 86.8251L308.906 89.3749ZM321.297 92.7C326.099 92.7 330.26 91.459 333.693 88.9031L331.901 86.4969C329.067 88.6077 325.561 89.7 321.297 89.7V92.7ZM333.697 88.9C337.122 86.3311 339.542 83.0916 340.912 79.1979L338.082 78.2021C336.919 81.5084 334.872 84.2689 331.897 86.5L333.697 88.9ZM338.846 80.0514L352.546 86.6514L353.848 83.9486L340.148 77.3486L338.846 80.0514ZM351.779 84.8102C350.593 88.2424 348.591 91.3848 345.736 94.2393L347.858 96.3607C351.003 93.2152 353.267 89.6909 354.615 85.7898L351.779 84.8102ZM345.736 94.2393C342.889 97.0864 339.393 99.3821 335.221 101.115L336.372 103.885C340.868 102.018 344.705 99.5136 347.858 96.3607L345.736 94.2393ZM335.214 101.118C331.16 102.828 326.529 103.7 321.297 103.7V106.7C326.864 106.7 331.901 105.772 336.38 103.882L335.214 101.118ZM362.643 104L361.222 103.519L360.552 105.5H362.643V104ZM387.843 29.5V28H386.767L386.422 29.0194L387.843 29.5ZM408.443 29.5L409.864 29.0194L409.519 28H408.443V29.5ZM433.643 104V105.5H435.734L435.064 103.519L433.643 104ZM416.743 104L415.318 104.469L415.657 105.5H416.743V104ZM411.743 88.8L413.168 88.3313L412.829 87.3H411.743V88.8ZM384.443 88.8V87.3H383.357L383.018 88.3313L384.443 88.8ZM379.443 104V105.5H380.529L380.868 104.469L379.443 104ZM388.743 75.3L387.317 74.8342L386.675 76.8H388.743V75.3ZM407.443 75.3V76.8H409.505L408.87 74.8378L407.443 75.3ZM396.043 40.1V38.6H393.98L394.616 40.5622L396.043 40.1ZM400.243 40.1L401.669 40.5658L402.311 38.6H400.243V40.1ZM364.064 104.481L389.264 29.9806L386.422 29.0194L361.222 103.519L364.064 104.481ZM387.843 31H408.443V28H387.843V31ZM407.022 29.9806L432.222 104.481L435.064 103.519L409.864 29.0194L407.022 29.9806ZM433.643 102.5H416.743V105.5H433.643V102.5ZM418.168 103.531L413.168 88.3313L410.318 89.2687L415.318 104.469L418.168 103.531ZM411.743 87.3H384.443V90.3H411.743V87.3ZM383.018 88.3313L378.018 103.531L380.868 104.469L385.868 89.2687L383.018 88.3313ZM379.443 102.5H362.643V105.5H379.443V102.5ZM388.743 76.8H407.443V73.8H388.743V76.8ZM408.87 74.8378L397.47 39.6378L394.616 40.5622L406.016 75.7622L408.87 74.8378ZM396.043 41.6H400.243V38.6H396.043V41.6ZM398.817 39.6342L387.317 74.8342L390.169 75.7658L401.669 40.5658L398.817 39.6342ZM446.385 104H444.885V105.5H446.385V104ZM446.385 29.5V28H444.885V29.5H446.385ZM488.485 32.2L487.861 33.564L487.87 33.5679L488.485 32.2ZM497.885 40.2L496.623 41.0099L497.885 40.2ZM497.785 66.3L499.037 67.1266L499.044 67.1158L497.785 66.3ZM488.385 74.3L487.761 72.936L486.267 73.6196L487.083 75.0452L488.385 74.3ZM505.385 104V105.5H507.972L506.687 103.255L505.385 104ZM487.985 104L486.676 104.732L487.105 105.5H487.985V104ZM469.585 71.1L470.347 69.8081L465.566 66.9873L468.276 71.8322L469.585 71.1ZM479.585 77V78.5H485.079L480.347 75.7081L479.585 77ZM461.885 77V75.5H460.385V77H461.885ZM461.885 104V105.5H463.385V104H461.885ZM461.885 63.5H460.385V65H461.885V63.5ZM480.685 62.2L481.4 63.5189H481.4L480.685 62.2ZM484.385 58.6L483.104 57.8201L483.091 57.8408L483.079 57.8619L484.385 58.6ZM484.385 47.9L483.079 48.6381L483.091 48.6592L483.104 48.6799L484.385 47.9ZM480.685 44.3L479.971 45.6189L480.685 44.3ZM461.885 43V41.5H460.385V43H461.885ZM447.885 104V29.5H444.885V104H447.885ZM446.385 31H474.885V28H446.385V31ZM474.885 31C479.843 31 484.157 31.8688 487.861 33.564L489.109 30.836C484.947 28.9312 480.194 28 474.885 28V31ZM487.87 33.5679C491.617 35.2542 494.52 37.7327 496.623 41.0099L499.148 39.3901C496.717 35.6006 493.353 32.7458 489.101 30.8321L487.87 33.5679ZM496.623 41.0099C498.701 44.2497 499.785 48.3185 499.785 53.3H502.785C502.785 47.8815 501.603 43.217 499.148 39.3901L496.623 41.0099ZM499.785 53.3C499.785 58.1304 498.676 62.1683 496.526 65.4842L499.044 67.1158C501.561 63.2317 502.785 58.6029 502.785 53.3H499.785ZM496.533 65.4734C494.358 68.7671 491.445 71.2502 487.761 72.936L489.009 75.664C493.192 73.7498 496.545 70.8995 499.037 67.1266L496.533 65.4734ZM487.083 75.0452L504.083 104.745L506.687 103.255L489.687 73.5548L487.083 75.0452ZM505.385 102.5H487.985V105.5H505.385V102.5ZM489.294 103.268L470.894 70.3678L468.276 71.8322L486.676 104.732L489.294 103.268ZM468.823 72.3919L478.823 78.2919L480.347 75.7081L470.347 69.8081L468.823 72.3919ZM479.585 75.5H461.885V78.5H479.585V75.5ZM460.385 77V104H463.385V77H460.385ZM461.885 102.5H446.385V105.5H461.885V102.5ZM461.885 65H474.985V62H461.885V65ZM474.985 65C477.383 65 479.539 64.5269 481.4 63.5189L479.971 60.8811C478.632 61.6065 476.987 62 474.985 62V65ZM481.4 63.5189C483.239 62.5227 484.681 61.1252 485.691 59.3381L483.079 57.8619C482.356 59.1415 481.332 60.1439 479.971 60.8811L481.4 63.5189ZM485.666 59.3799C486.759 57.5854 487.285 55.5428 487.285 53.3H484.285C484.285 55.0572 483.878 56.5479 483.104 57.8201L485.666 59.3799ZM487.285 53.3C487.285 51.0006 486.763 48.9222 485.666 47.1201L483.104 48.6799C483.874 49.9445 484.285 51.466 484.285 53.3H487.285ZM485.691 47.1619C484.681 45.3748 483.239 43.9773 481.4 42.9811L479.971 45.6189C481.332 46.3561 482.356 47.3585 483.079 48.6381L485.691 47.1619ZM481.4 42.9811C479.539 41.9731 477.383 41.5 474.985 41.5V44.5C476.987 44.5 478.632 44.8935 479.971 45.6189L481.4 42.9811ZM474.985 41.5H461.885V44.5H474.985V41.5ZM460.385 43V63.5H463.385V43H460.385ZM518.084 104H516.584V105.5H518.084V104ZM518.084 29.5V28H516.584V29.5H518.084ZM568.184 29.5H569.684V28H568.184V29.5ZM568.184 43V44.5H569.684V43H568.184ZM533.584 43V41.5H532.084V43H533.584ZM533.584 59.9H532.084V61.4H533.584V59.9ZM566.184 59.9H567.684V58.4H566.184V59.9ZM566.184 73.4V74.9H567.684V73.4H566.184ZM533.584 73.4V71.9H532.084V73.4H533.584ZM533.584 90.5H532.084V92H533.584V90.5ZM568.184 90.5H569.684V89H568.184V90.5ZM568.184 104V105.5H569.684V104H568.184ZM519.584 104V29.5H516.584V104H519.584ZM518.084 31H568.184V28H518.084V31ZM566.684 29.5V43H569.684V29.5H566.684ZM568.184 41.5H533.584V44.5H568.184V41.5ZM532.084 43V59.9H535.084V43H532.084ZM533.584 61.4H566.184V58.4H533.584V61.4ZM564.684 59.9V73.4H567.684V59.9H564.684ZM566.184 71.9H533.584V74.9H566.184V71.9ZM532.084 73.4V90.5H535.084V73.4H532.084ZM533.584 92H568.184V89H533.584V92ZM566.684 90.5V104H569.684V90.5H566.684ZM568.184 102.5H518.084V105.5H568.184V102.5ZM20.6 230L19.1489 230.38L19.4421 231.5H20.6V230ZM1.1 155.5V154H-0.843149L-0.351115 155.88L1.1 155.5ZM17.9 155.5L19.36 155.156L19.0877 154H17.9V155.5ZM32.6 217.9V219.4H34.4944L34.06 217.556L32.6 217.9ZM28.1 217.9L26.6442 217.538L26.1818 219.4H28.1V217.9ZM43.6 155.5V154H42.427L42.1442 155.138L43.6 155.5ZM59.6 155.5L61.0558 155.138L60.773 154H59.6V155.5ZM75.1 217.9V219.4H77.0182L76.5558 217.538L75.1 217.9ZM70.6 217.9L69.14 217.556L68.7056 219.4H70.6V217.9ZM85.3 155.5V154H84.1123L83.84 155.156L85.3 155.5ZM102.1 155.5L103.551 155.88L104.043 154H102.1V155.5ZM82.6 230V231.5H83.7579L84.0511 230.38L82.6 230ZM64.6 230L63.1483 230.377L63.4401 231.5H64.6V230ZM49 170V168.5H47.0601L47.5483 170.377L49 170ZM54.2 170L55.6517 170.377L56.1399 168.5H54.2V170ZM38.6 230V231.5H39.7599L40.0517 230.377L38.6 230ZM22.0511 229.62L2.55112 155.12L-0.351115 155.88L19.1489 230.38L22.0511 229.62ZM1.1 157H17.9V154H1.1V157ZM16.44 155.844L31.14 218.244L34.06 217.556L19.36 155.156L16.44 155.844ZM32.6 216.4H28.1V219.4H32.6V216.4ZM29.5558 218.262L45.0558 155.862L42.1442 155.138L26.6442 217.538L29.5558 218.262ZM43.6 157H59.6V154H43.6V157ZM58.1442 155.862L73.6442 218.262L76.5558 217.538L61.0558 155.138L58.1442 155.862ZM75.1 216.4H70.6V219.4H75.1V216.4ZM72.06 218.244L86.76 155.844L83.84 155.156L69.14 217.556L72.06 218.244ZM85.3 157H102.1V154H85.3V157ZM100.649 155.12L81.1489 229.62L84.0511 230.38L103.551 155.88L100.649 155.12ZM82.6 228.5H64.6V231.5H82.6V228.5ZM66.0517 229.623L50.4517 169.623L47.5483 170.377L63.1483 230.377L66.0517 229.623ZM49 171.5H54.2V168.5H49V171.5ZM52.7483 169.623L37.1483 229.623L40.0517 230.377L55.6517 170.377L52.7483 169.623ZM38.6 228.5H20.6V231.5H38.6V228.5ZM114.823 230H113.323V231.5H114.823V230ZM114.823 155.5V154H113.323V155.5H114.823ZM130.323 155.5H131.823V154H130.323V155.5ZM130.323 230V231.5H131.823V230H130.323ZM116.323 230V155.5H113.323V230H116.323ZM114.823 157H130.323V154H114.823V157ZM128.823 155.5V230H131.823V155.5H128.823ZM130.323 228.5H114.823V231.5H130.323V228.5ZM161.934 230H160.434V231.5H161.934V230ZM161.934 169H163.434V167.5H161.934V169ZM143.034 169H141.534V170.5H143.034V169ZM143.034 155.5V154H141.534V155.5H143.034ZM196.034 155.5H197.534V154H196.034V155.5ZM196.034 169V170.5H197.534V169H196.034ZM177.434 169V167.5H175.934V169H177.434ZM177.434 230V231.5H178.934V230H177.434ZM163.434 230V169H160.434V230H163.434ZM161.934 167.5H143.034V170.5H161.934V167.5ZM144.534 169V155.5H141.534V169H144.534ZM143.034 157H196.034V154H143.034V157ZM194.534 155.5V169H197.534V155.5H194.534ZM196.034 167.5H177.434V170.5H196.034V167.5ZM175.934 169V230H178.934V169H175.934ZM177.434 228.5H161.934V231.5H177.434V228.5ZM208.709 230H207.209V231.5H208.709V230ZM208.709 155.5V154H207.209V155.5H208.709ZM224.209 155.5H225.709V154H224.209V155.5ZM224.209 187.7H222.709V189.2H224.209V187.7ZM253.209 187.7V189.2H254.709V187.7H253.209ZM253.209 155.5V154H251.709V155.5H253.209ZM268.709 155.5H270.209V154H268.709V155.5ZM268.709 230V231.5H270.209V230H268.709ZM253.209 230H251.709V231.5H253.209V230ZM253.209 201.2H254.709V199.7H253.209V201.2ZM224.209 201.2V199.7H222.709V201.2H224.209ZM224.209 230V231.5H225.709V230H224.209ZM210.209 230V155.5H207.209V230H210.209ZM208.709 157H224.209V154H208.709V157ZM222.709 155.5V187.7H225.709V155.5H222.709ZM224.209 189.2H253.209V186.2H224.209V189.2ZM254.709 187.7V155.5H251.709V187.7H254.709ZM253.209 157H268.709V154H253.209V157ZM267.209 155.5V230H270.209V155.5H267.209ZM268.709 228.5H253.209V231.5H268.709V228.5ZM254.709 230V201.2H251.709V230H254.709ZM253.209 199.7H224.209V202.7H253.209V199.7ZM222.709 201.2V230H225.709V201.2H222.709ZM224.209 228.5H208.709V231.5H224.209V228.5ZM304.42 230L302.999 229.519L302.329 231.5H304.42V230ZM329.62 155.5V154H328.544L328.199 155.019L329.62 155.5ZM350.22 155.5L351.641 155.019L351.296 154H350.22V155.5ZM375.42 230V231.5H377.511L376.841 229.519L375.42 230ZM358.52 230L357.095 230.469L357.435 231.5H358.52V230ZM353.52 214.8L354.945 214.331L354.606 213.3H353.52V214.8ZM326.22 214.8V213.3H325.135L324.795 214.331L326.22 214.8ZM321.22 230V231.5H322.306L322.645 230.469L321.22 230ZM330.52 201.3L329.094 200.834L328.452 202.8H330.52V201.3ZM349.22 201.3V202.8H351.283L350.647 200.838L349.22 201.3ZM337.82 166.1V164.6H335.758L336.393 166.562L337.82 166.1ZM342.02 166.1L343.446 166.566L344.088 164.6H342.02V166.1ZM305.841 230.481L331.041 155.981L328.199 155.019L302.999 229.519L305.841 230.481ZM329.62 157H350.22V154H329.62V157ZM348.799 155.981L373.999 230.481L376.841 229.519L351.641 155.019L348.799 155.981ZM375.42 228.5H358.52V231.5H375.42V228.5ZM359.945 229.531L354.945 214.331L352.095 215.269L357.095 230.469L359.945 229.531ZM353.52 213.3H326.22V216.3H353.52V213.3ZM324.795 214.331L319.795 229.531L322.645 230.469L327.645 215.269L324.795 214.331ZM321.22 228.5H304.42V231.5H321.22V228.5ZM330.52 202.8H349.22V199.8H330.52V202.8ZM350.647 200.838L339.247 165.638L336.393 166.562L347.793 201.762L350.647 200.838ZM337.82 167.6H342.02V164.6H337.82V167.6ZM340.594 165.634L329.094 200.834L331.946 201.766L343.446 166.566L340.594 165.634ZM388.163 230H386.663V231.5H388.163V230ZM388.163 155.5V154H386.663V155.5H388.163ZM403.663 155.5H405.163V154H403.663V155.5ZM403.663 230V231.5H405.163V230H403.663ZM389.663 230V155.5H386.663V230H389.663ZM388.163 157H403.663V154H388.163V157ZM402.163 155.5V230H405.163V155.5H402.163ZM403.663 228.5H388.163V231.5H403.663V228.5Z" fill="#1E1E1E"/>
</g>
<circle cx="345" cy="125" r="124.5" stroke="black"/>
</svg>
