<svg width="51" height="50" viewBox="0 0 51 50" fill="none" xmlns="http://www.w3.org/2000/svg">
<path d="M25.5 34.2383C20.4062 34.2383 16.2617 30.0938 16.2617 25C16.2617 19.9062 20.4062 15.7617 25.5 15.7617C30.5938 15.7617 34.7383 19.9062 34.7383 25C34.7383 30.0938 30.5938 34.2383 25.5 34.2383ZM25.5 16.4492C20.7852 16.4492 16.9492 20.2852 16.9492 25C16.9492 29.7148 20.7852 33.5508 25.5 33.5508C30.2148 33.5508 34.0508 29.7148 34.0508 25C34.0508 20.2852 30.2148 16.4492 25.5 16.4492Z" fill="#1E1E1E"/>
<path d="M25.5 28.7813C23.4141 28.7813 21.7188 27.0859 21.7188 25C21.7188 22.9141 23.4141 21.2188 25.5 21.2188C27.5859 21.2188 29.2813 22.9141 29.2813 25C29.2813 27.0859 27.5859 28.7813 25.5 28.7813ZM25.5 21.9063C23.793 21.9063 22.4063 23.293 22.4063 25C22.4063 26.707 23.793 28.0938 25.5 28.0938C27.207 28.0938 28.5938 26.707 28.5938 25C28.5938 23.293 27.207 21.9063 25.5 21.9063Z" fill="#1E1E1E"/>
<path d="M25.5 39.4727C17.5195 39.4727 11.0273 32.9805 11.0273 25C11.0273 17.0195 17.5195 10.5273 25.5 10.5273C33.4805 10.5273 39.9727 17.0195 39.9727 25C39.9727 32.9805 33.4805 39.4727 25.5 39.4727ZM25.5 11.2109C17.8984 11.2109 11.7109 17.3945 11.7109 25C11.7109 32.6055 17.8945 38.7891 25.5 38.7891C33.1055 38.7891 39.2891 32.6055 39.2891 25C39.2891 17.3945 33.1055 11.2109 25.5 11.2109Z" fill="#1E1E1E"/>
<path d="M25.5 44.8633C14.5469 44.8633 5.63672 35.9531 5.63672 25C5.63672 14.0469 14.5469 5.13672 25.5 5.13672C36.4531 5.13672 45.3633 14.0469 45.3633 25C45.3633 35.9531 36.4531 44.8633 25.5 44.8633ZM25.5 5.82031C14.9258 5.82031 6.32031 14.4219 6.32031 25C6.32031 35.5781 14.9219 44.1797 25.5 44.1797C36.0781 44.1797 44.6797 35.5781 44.6797 25C44.6797 14.4219 36.0742 5.82031 25.5 5.82031Z" fill="#1E1E1E"/>
<path d="M25.5 50C11.7148 50 0.5 38.7852 0.5 25C0.5 11.2148 11.7148 0 25.5 0C39.2852 0 50.5 11.2148 50.5 25C50.5 38.7852 39.2852 50 25.5 50ZM25.5 0.683594C12.0938 0.683594 1.18359 11.5938 1.18359 25C1.18359 38.4062 12.0898 49.3164 25.5 49.3164C38.9102 49.3164 49.8164 38.4102 49.8164 25C49.8164 11.5898 38.9062 0.683594 25.5 0.683594Z" fill="#1E1E1E"/>
</svg>
