<svg width="296" height="148" viewBox="0 0 296 148" fill="none" xmlns="http://www.w3.org/2000/svg">
<path d="M87.05 36.35C86.6 33.95 85.7 31.1 84.5 28.4H105.35C104.75 31.1 103.85 33.95 103.1 36.35H87.05ZM117.05 101.75V78.65H104.15V71.6H120.05V58.85H104.15V52.55H121.1V99.5C121.1 101.15 120.5 101.75 118.85 101.75H117.05ZM102.35 96.05H90.35V90.2H102.35V96.05ZM64.55 28.55C65.6 30.95 66.65 33.65 67.25 36.35H53.45V117.95H72.95V52.55H88.85V58.85H74V71.6H88.85V78.65H75.95V111.8H90.35V107.6H110.3C111.8 111.5 113 115.7 113.45 119C122.3 119 128.9 118.7 134.3 115.85C139.7 112.85 141.05 108.2 141.05 99.8V36.35H122.6C123.8 33.95 125 31.25 126.5 28.4H142.7V11.75H103.7C101.6 7.7 98.9 3.5 96.05 0.0499961L79.1 6.49999C80.3 8.14999 81.35 9.94999 82.4 11.75H50.15V28.4H65.15L64.55 28.55ZM44.45 24.95C39.8 18.95 31.25 9.65 23.9 2.59999L7.85 12.65C14.9 20.15 23.75 30.65 27.95 37.1L44.45 24.95ZM39.2 73.4L35.9 73.85H28.4C35.9 63.95 44.6 51.05 50 42.95L37.1 37.25L35.3 38H5V55.1H21.8C17 62 11.9 68.6 9.65 70.85C6.65 74 4.1 75.2 1.55 75.8C3.35 79.55 7.1 88.55 8.15 92.9C9.5 91.55 14.15 90.5 17.6 90.5H28.1C23.3 109.25 14 123.05 0.65 130.85C4.7 133.7 11.75 141.2 14.45 145.25C21.65 140.6 27.8 134.15 33.2 126.05C44.45 140 60.95 142.7 86.6 142.7C104.75 142.7 124.1 142.25 140.6 141.2C141.65 135.35 144.5 125.6 147.5 121.25C129.5 123.05 103.25 124.1 87.05 124.1C65.3 123.95 50 122.3 41.45 109.25C45.05 99.95 47.75 89.3 49.55 77.15L39.2 73.4ZM253.7 119.15L256.55 113.15C250.85 111.05 241.25 108.65 232.55 107H259.1V118.55L253.7 119.15ZM221.45 107H225.5L222.05 113.9C229.7 115.25 239.15 117.65 246.35 120.05C236.9 120.95 228.05 121.85 221.15 122.45C221.3 119.75 221.45 117.05 221.45 114.5V107ZM279.95 98.9H200.9V113.9C200.9 120.95 200.15 128.15 191.3 134C195.95 136.55 205.25 143.6 208.7 147.05C216.65 141.35 219.8 132.8 220.85 124.1L224.45 135.5C234.8 133.7 246.65 131.45 259.1 129.2V129.95C259.1 131.3 258.5 131.75 257.15 131.75C255.95 131.9 251.9 131.9 249.05 131.6C250.85 135.35 253.1 140.3 254.15 144.65C261.95 144.65 268.55 144.65 273.35 142.7C278.45 140.6 279.95 137.6 279.95 129.8V98.9ZM212.6 84.95H229.85V88.4H212.6V84.95ZM212.6 74.3H229.85V77.75H212.6V74.3ZM267.2 77.75H249.35V74.3H267.2V77.75ZM267.2 88.4H249.35V84.95H267.2V88.4ZM192.95 95.9H287.9V66.8H192.95V95.9ZM240.95 52.55C237.35 52.55 235.55 51.95 234.8 50.75L266.15 50L266 41L234.2 41.75V38.6H270.35C269.6 41.15 268.7 43.7 267.95 45.65L286.25 51.5C289.7 45.5 293.45 36.35 296 27.95L279.8 23.9L276.35 24.8H236.9V21.5H282.95V8.45H236.9V2.44999H215V24.8H168.35V63.35C168.35 84.35 167.45 114.2 155.15 134.3C160.4 136.25 169.85 141.8 173.9 145.25C187.25 123.05 189.5 87.35 189.5 63.5V38.6H215V42.2L192.35 42.65L192.5 51.65L215.15 51.2C216.05 60.05 220.7 65 236.45 65H270.65C278.3 65 287.75 64.7 292.1 63.5C291.35 59.6 291.05 56.3 290.45 50.9C286.7 51.8 274.55 52.55 267.95 52.55H240.95Z" fill="white"/>
<path d="M87.05 36.35L85.5757 36.6264L85.8051 37.85H87.05V36.35ZM84.5 28.4V26.9H82.1919L83.1293 29.0092L84.5 28.4ZM105.35 28.4L106.814 28.7254L107.22 26.9H105.35V28.4ZM103.1 36.35V37.85H104.203L104.532 36.7974L103.1 36.35ZM117.05 101.75H115.55V103.25H117.05V101.75ZM117.05 78.65H118.55V77.15H117.05V78.65ZM104.15 78.65H102.65V80.15H104.15V78.65ZM104.15 71.6V70.1H102.65V71.6H104.15ZM120.05 71.6V73.1H121.55V71.6H120.05ZM120.05 58.85H121.55V57.35H120.05V58.85ZM104.15 58.85H102.65V60.35H104.15V58.85ZM104.15 52.55V51.05H102.65V52.55H104.15ZM121.1 52.55H122.6V51.05H121.1V52.55ZM102.35 96.05V97.55H103.85V96.05H102.35ZM90.35 96.05H88.85V97.55H90.35V96.05ZM90.35 90.2V88.7H88.85V90.2H90.35ZM102.35 90.2H103.85V88.7H102.35V90.2ZM64.55 28.55L64.1862 27.0948L62.4644 27.5252L63.1758 29.1512L64.55 28.55ZM67.25 36.35V37.85H69.1199L68.7143 36.0246L67.25 36.35ZM53.45 36.35V34.85H51.95V36.35H53.45ZM53.45 117.95H51.95V119.45H53.45V117.95ZM72.95 117.95V119.45H74.45V117.95H72.95ZM72.95 52.55V51.05H71.45V52.55H72.95ZM88.85 52.55H90.35V51.05H88.85V52.55ZM88.85 58.85V60.35H90.35V58.85H88.85ZM74 58.85V57.35H72.5V58.85H74ZM74 71.6H72.5V73.1H74V71.6ZM88.85 71.6H90.35V70.1H88.85V71.6ZM88.85 78.65V80.15H90.35V78.65H88.85ZM75.95 78.65V77.15H74.45V78.65H75.95ZM75.95 111.8H74.45V113.3H75.95V111.8ZM90.35 111.8V113.3H91.85V111.8H90.35ZM90.35 107.6V106.1H88.85V107.6H90.35ZM110.3 107.6L111.7 107.062L111.33 106.1H110.3V107.6ZM113.45 119L111.964 119.203L112.141 120.5H113.45V119ZM134.3 115.85L135 117.177L135.014 117.169L135.028 117.161L134.3 115.85ZM141.05 36.35H142.55V34.85H141.05V36.35ZM122.6 36.35L121.258 35.6792L120.173 37.85H122.6V36.35ZM126.5 28.4V26.9H125.594L125.173 27.7014L126.5 28.4ZM142.7 28.4V29.9H144.2V28.4H142.7ZM142.7 11.75H144.2V10.25H142.7V11.75ZM103.7 11.75L102.368 12.4405L102.788 13.25H103.7V11.75ZM96.05 0.0499954L97.2064 -0.905327L96.5216 -1.73438L95.5165 -1.35193L96.05 0.0499954ZM79.1 6.49999L78.5665 5.09806L76.7331 5.79575L77.8869 7.38225L79.1 6.49999ZM82.4 11.75V13.25H85.0116L83.6957 10.9942L82.4 11.75ZM50.15 11.75V10.25H48.65V11.75H50.15ZM50.15 28.4H48.65V29.9H50.15V28.4ZM65.15 28.4L65.5138 29.8552L65.15 26.9V28.4ZM44.45 24.95L45.3394 26.1579L46.5774 25.2463L45.6356 24.0311L44.45 24.95ZM23.9 2.59999L24.9383 1.51747L24.0947 0.708271L23.1039 1.32866L23.9 2.59999ZM7.85 12.65L7.05393 11.3787L5.50688 12.3474L6.75706 13.6774L7.85 12.65ZM27.95 37.1L26.693 37.9185L27.56 39.25L28.8394 38.3079L27.95 37.1ZM39.2 73.4L39.711 71.9897L39.3635 71.8638L38.9973 71.9138L39.2 73.4ZM35.9 73.85V75.35H36.0018L36.1027 75.3362L35.9 73.85ZM28.4 73.85L27.2044 72.9442L25.3818 75.35H28.4V73.85ZM50 42.95L51.2481 43.7821L52.2371 42.2986L50.6062 41.578L50 42.95ZM37.1 37.25L37.7062 35.878L37.1174 35.6178L36.5231 35.8654L37.1 37.25ZM35.3 38V39.5H35.6L35.8769 39.3846L35.3 38ZM5 38V36.5H3.5V38H5ZM5 55.1H3.5V56.6H5V55.1ZM21.8 55.1L23.0314 55.9566L24.6707 53.6H21.8V55.1ZM9.65 70.85L8.58934 69.7893L8.57641 69.8023L8.56379 69.8155L9.65 70.85ZM1.55 75.8L1.20644 74.3399L-0.609606 74.7672L0.197716 76.4491L1.55 75.8ZM8.15 92.9L6.69188 93.252L7.31944 95.8519L9.21066 93.9607L8.15 92.9ZM28.1 90.5L29.5531 90.872L30.0324 89H28.1V90.5ZM0.65 130.85L-0.106711 129.555L-2.12291 130.733L-0.21324 132.077L0.65 130.85ZM14.45 145.25L13.2019 146.082L14.0219 147.312L15.2638 146.51L14.45 145.25ZM33.2 126.05L34.3676 125.108L33.0852 123.518L31.9519 125.218L33.2 126.05ZM140.6 141.2L140.695 142.697L141.869 142.622L142.076 141.465L140.6 141.2ZM147.5 121.25L148.735 122.102L150.574 119.435L147.351 119.757L147.5 121.25ZM87.05 124.1L87.0397 125.6H87.05V124.1ZM41.45 109.25L40.0512 108.709L39.7729 109.427L40.1953 110.072L41.45 109.25ZM49.55 77.15L51.0338 77.3698L51.2134 76.1573L50.061 75.7397L49.55 77.15ZM88.5243 36.0736C88.0502 33.5448 87.1118 30.5832 85.8707 27.7908L83.1293 29.0092C84.2882 31.6168 85.1498 34.3552 85.5757 36.6264L88.5243 36.0736ZM84.5 29.9H105.35V26.9H84.5V29.9ZM103.886 28.0746C103.302 30.7008 102.423 33.4868 101.668 35.9026L104.532 36.7974C105.277 34.4132 106.198 31.4992 106.814 28.7254L103.886 28.0746ZM103.1 34.85H87.05V37.85H103.1V34.85ZM118.55 101.75V78.65H115.55V101.75H118.55ZM117.05 77.15H104.15V80.15H117.05V77.15ZM105.65 78.65V71.6H102.65V78.65H105.65ZM104.15 73.1H120.05V70.1H104.15V73.1ZM121.55 71.6V58.85H118.55V71.6H121.55ZM120.05 57.35H104.15V60.35H120.05V57.35ZM105.65 58.85V52.55H102.65V58.85H105.65ZM104.15 54.05H121.1V51.05H104.15V54.05ZM119.6 52.55V99.5H122.6V52.55H119.6ZM119.6 99.5C119.6 100.211 119.456 100.26 119.533 100.183C119.61 100.106 119.561 100.25 118.85 100.25V103.25C119.789 103.25 120.865 103.094 121.654 102.304C122.444 101.515 122.6 100.439 122.6 99.5H119.6ZM118.85 100.25H117.05V103.25H118.85V100.25ZM102.35 94.55H90.35V97.55H102.35V94.55ZM91.85 96.05V90.2H88.85V96.05H91.85ZM90.35 91.7H102.35V88.7H90.35V91.7ZM100.85 90.2V96.05H103.85V90.2H100.85ZM63.1758 29.1512C64.2122 31.5201 65.217 34.1163 65.7857 36.6754L68.7143 36.0246C68.083 33.1837 66.9878 30.3798 65.9242 27.9488L63.1758 29.1512ZM67.25 34.85H53.45V37.85H67.25V34.85ZM51.95 36.35V117.95H54.95V36.35H51.95ZM53.45 119.45H72.95V116.45H53.45V119.45ZM74.45 117.95V52.55H71.45V117.95H74.45ZM72.95 54.05H88.85V51.05H72.95V54.05ZM87.35 52.55V58.85H90.35V52.55H87.35ZM88.85 57.35H74V60.35H88.85V57.35ZM72.5 58.85V71.6H75.5V58.85H72.5ZM74 73.1H88.85V70.1H74V73.1ZM87.35 71.6V78.65H90.35V71.6H87.35ZM88.85 77.15H75.95V80.15H88.85V77.15ZM74.45 78.65V111.8H77.45V78.65H74.45ZM75.95 113.3H90.35V110.3H75.95V113.3ZM91.85 111.8V107.6H88.85V111.8H91.85ZM90.35 109.1H110.3V106.1H90.35V109.1ZM108.9 108.138C110.375 111.972 111.535 116.055 111.964 119.203L114.936 118.797C114.465 115.345 113.225 111.028 111.7 107.062L108.9 108.138ZM113.45 120.5C122.244 120.5 129.221 120.227 135 117.177L133.6 114.523C128.579 117.173 122.356 117.5 113.45 117.5V120.5ZM135.028 117.161C138.011 115.505 139.948 113.333 141.097 110.397C142.215 107.539 142.55 104.044 142.55 99.8H139.55C139.55 103.956 139.21 106.986 138.303 109.303C137.427 111.542 135.989 113.195 133.572 114.539L135.028 117.161ZM142.55 99.8V36.35H139.55V99.8H142.55ZM141.05 34.85H122.6V37.85H141.05V34.85ZM123.942 37.0208C125.194 34.5163 126.324 31.9549 127.827 29.0986L125.173 27.7014C123.676 30.5451 122.406 33.3837 121.258 35.6792L123.942 37.0208ZM126.5 29.9H142.7V26.9H126.5V29.9ZM144.2 28.4V11.75H141.2V28.4H144.2ZM142.7 10.25H103.7V13.25H142.7V10.25ZM105.032 11.0595C102.89 6.92889 100.133 2.63753 97.2064 -0.905327L94.8936 1.00532C97.6669 4.36246 100.31 8.47111 102.368 12.4405L105.032 11.0595ZM95.5165 -1.35193L78.5665 5.09806L79.6335 7.90192L96.5835 1.45192L95.5165 -1.35193ZM77.8869 7.38225C79.0348 8.96059 80.0473 10.6938 81.1043 12.5058L83.6957 10.9942C82.6527 9.20619 81.5652 7.33939 80.3131 5.61773L77.8869 7.38225ZM82.4 10.25H50.15V13.25H82.4V10.25ZM48.65 11.75V28.4H51.65V11.75H48.65ZM50.15 29.9H65.15V26.9H50.15V29.9ZM64.7862 26.9448L64.1862 27.0948L64.9138 30.0052L65.5138 29.8552L64.7862 26.9448ZM45.6356 24.0311C40.9284 17.9573 32.3248 8.60245 24.9383 1.51747L22.8617 3.68251C30.1752 10.6975 38.6716 19.9426 43.2644 25.8689L45.6356 24.0311ZM23.1039 1.32866L7.05393 11.3787L8.64607 13.9213L24.6961 3.87132L23.1039 1.32866ZM6.75706 13.6774C13.7872 21.1562 22.5657 31.5801 26.693 37.9185L29.207 36.2815C24.9343 29.7199 16.0128 19.1438 8.94294 11.6226L6.75706 13.6774ZM28.8394 38.3079L45.3394 26.1579L43.5606 23.7421L27.0606 35.8921L28.8394 38.3079ZM38.9973 71.9138L35.6973 72.3638L36.1027 75.3362L39.4027 74.8862L38.9973 71.9138ZM35.9 72.35H28.4V75.35H35.9V72.35ZM29.5956 74.7558C37.1262 64.8155 45.8488 51.8809 51.2481 43.7821L48.7519 42.118C43.3512 50.2191 34.6738 63.0845 27.2044 72.9442L29.5956 74.7558ZM50.6062 41.578L37.7062 35.878L36.4938 38.622L49.3938 44.322L50.6062 41.578ZM36.5231 35.8654L34.7231 36.6154L35.8769 39.3846L37.6769 38.6346L36.5231 35.8654ZM35.3 36.5H5V39.5H35.3V36.5ZM3.5 38V55.1H6.5V38H3.5ZM5 56.6H21.8V53.6H5V56.6ZM20.5686 54.2434C15.7644 61.1495 10.7331 67.6456 8.58934 69.7893L10.7107 71.9107C13.0669 69.5544 18.2356 62.8505 23.0314 55.9566L20.5686 54.2434ZM8.56379 69.8155C5.76005 72.7594 3.46624 73.8082 1.20644 74.3399L1.89356 77.2601C4.73376 76.5918 7.53995 75.2405 10.7362 71.8845L8.56379 69.8155ZM0.197716 76.4491C1.98799 80.1788 5.6805 89.062 6.69188 93.252L9.60812 92.548C8.5195 88.038 4.71201 78.9212 2.90228 75.1509L0.197716 76.4491ZM9.21066 93.9607C9.34629 93.825 9.68222 93.597 10.2966 93.3364C10.8825 93.0879 11.6173 92.8531 12.444 92.6508C14.1023 92.245 16.0073 92 17.6 92V89C15.7427 89 13.5977 89.28 11.731 89.7367C10.7952 89.9657 9.89874 90.2465 9.12524 90.5745C8.38028 90.8905 7.62871 91.3 7.08934 91.8393L9.21066 93.9607ZM17.6 92H28.1V89H17.6V92ZM26.6469 90.128C21.9178 108.601 12.8091 122.009 -0.106711 129.555L1.40671 132.145C15.1909 124.091 24.6822 109.899 29.5531 90.872L26.6469 90.128ZM-0.21324 132.077C1.68874 133.415 4.3825 135.917 6.96987 138.634C9.55274 141.347 11.9222 144.162 13.2019 146.082L15.6981 144.418C14.2778 142.288 11.7723 139.328 9.14263 136.566C6.5175 133.808 3.66126 131.135 1.51324 129.623L-0.21324 132.077ZM15.2638 146.51C22.6723 141.725 28.9605 135.113 34.4481 126.882L31.9519 125.218C26.6395 133.187 20.6277 139.475 13.6362 143.99L15.2638 146.51ZM32.0324 126.992C43.7659 141.541 60.9562 144.2 86.6 144.2V141.2C60.9438 141.2 45.1341 138.459 34.3676 125.108L32.0324 126.992ZM86.6 144.2C104.771 144.2 124.154 143.75 140.695 142.697L140.505 139.703C124.046 140.75 104.729 141.2 86.6 141.2V144.2ZM142.076 141.465C142.588 138.615 143.545 134.783 144.744 131.13C145.954 127.444 147.363 124.091 148.735 122.102L146.265 120.398C144.637 122.759 143.121 126.456 141.894 130.195C140.655 133.967 139.662 137.935 139.124 140.935L142.076 141.465ZM147.351 119.757C129.41 121.552 103.21 122.6 87.05 122.6V125.6C103.29 125.6 129.59 124.548 147.649 122.743L147.351 119.757ZM87.0603 122.6C76.1832 122.525 67.0972 122.071 59.6923 120.065C52.3521 118.076 46.7363 114.581 42.7047 108.428L40.1953 110.072C44.7137 116.969 51.023 120.824 58.9077 122.96C66.7278 125.079 76.1668 125.525 87.0397 125.6L87.0603 122.6ZM42.8489 109.791C46.4964 100.369 49.2208 89.6074 51.0338 77.3698L48.0662 76.9302C46.2792 88.9926 43.6036 99.5314 40.0512 108.709L42.8489 109.791ZM50.061 75.7397L39.711 71.9897L38.689 74.8103L49.039 78.5603L50.061 75.7397ZM253.7 119.15L252.345 118.506L251.19 120.938L253.866 120.641L253.7 119.15ZM256.55 113.15L257.905 113.794L258.61 112.31L257.069 111.742L256.55 113.15ZM232.55 107V105.5L232.27 108.474L232.55 107ZM259.1 107H260.6V105.5H259.1V107ZM259.1 118.55L259.266 120.041L260.6 119.893V118.55H259.1ZM221.45 107V105.5H219.95V107H221.45ZM225.5 107L226.842 107.671L227.927 105.5H225.5V107ZM222.05 113.9L220.708 113.229L219.809 115.028L221.789 115.377L222.05 113.9ZM246.35 120.05L246.492 121.543L246.824 118.627L246.35 120.05ZM221.15 122.45L219.652 122.367L219.556 124.094L221.28 123.944L221.15 122.45ZM279.95 98.9H281.45V97.4H279.95V98.9ZM200.9 98.9V97.4H199.4V98.9H200.9ZM191.3 134L190.473 132.749L188.399 134.12L190.579 135.315L191.3 134ZM208.7 147.05L207.639 148.111L208.539 149.011L209.574 148.269L208.7 147.05ZM220.85 124.1L222.28 123.648L219.361 123.92L220.85 124.1ZM224.45 135.5L223.02 135.952L223.415 137.203L224.707 136.978L224.45 135.5ZM259.1 129.2H260.6V127.405L258.833 127.724L259.1 129.2ZM257.15 131.75V130.25H257.057L256.964 130.262L257.15 131.75ZM249.05 131.6L249.207 130.108L246.535 129.827L247.698 132.249L249.05 131.6ZM254.15 144.65L252.692 145.002L252.969 146.15H254.15V144.65ZM273.35 142.7L273.915 144.09L273.921 144.087L273.35 142.7ZM212.6 84.95V83.45H211.1V84.95H212.6ZM229.85 84.95H231.35V83.45H229.85V84.95ZM229.85 88.4V89.9H231.35V88.4H229.85ZM212.6 88.4H211.1V89.9H212.6V88.4ZM212.6 74.3V72.8H211.1V74.3H212.6ZM229.85 74.3H231.35V72.8H229.85V74.3ZM229.85 77.75V79.25H231.35V77.75H229.85ZM212.6 77.75H211.1V79.25H212.6V77.75ZM267.2 77.75V79.25H268.7V77.75H267.2ZM249.35 77.75H247.85V79.25H249.35V77.75ZM249.35 74.3V72.8H247.85V74.3H249.35ZM267.2 74.3H268.7V72.8H267.2V74.3ZM267.2 88.4V89.9H268.7V88.4H267.2ZM249.35 88.4H247.85V89.9H249.35V88.4ZM249.35 84.95V83.45H247.85V84.95H249.35ZM267.2 84.95H268.7V83.45H267.2V84.95ZM192.95 95.9H191.45V97.4H192.95V95.9ZM287.9 95.9V97.4H289.4V95.9H287.9ZM287.9 66.8H289.4V65.3H287.9V66.8ZM192.95 66.8V65.3H191.45V66.8H192.95ZM234.8 50.75L234.764 49.2504L232.133 49.3134L233.528 51.545L234.8 50.75ZM266.15 50L266.186 51.4996L267.675 51.464L267.65 49.975L266.15 50ZM266 41L267.5 40.975L267.475 39.4648L265.965 39.5004L266 41ZM234.2 41.75H232.7V43.2858L234.235 43.2496L234.2 41.75ZM234.2 38.6V37.1H232.7V38.6H234.2ZM270.35 38.6L271.789 39.0232L272.355 37.1H270.35V38.6ZM267.95 45.65L266.55 45.1115L265.979 46.5949L267.493 47.0788L267.95 45.65ZM286.25 51.5L285.793 52.9288L286.947 53.2975L287.55 52.2477L286.25 51.5ZM296 27.95L297.435 28.3857L297.893 26.8772L296.364 26.4948L296 27.95ZM279.8 23.9L280.164 22.4448L279.792 22.3519L279.421 22.4486L279.8 23.9ZM276.35 24.8V26.3H276.542L276.729 26.2514L276.35 24.8ZM236.9 24.8H235.4V26.3H236.9V24.8ZM236.9 21.5V20H235.4V21.5H236.9ZM282.95 21.5V23H284.45V21.5H282.95ZM282.95 8.45H284.45V6.95H282.95V8.45ZM236.9 8.45H235.4V9.95H236.9V8.45ZM236.9 2.44999H238.4V0.949993H236.9V2.44999ZM215 2.44999V0.949993H213.5V2.44999H215ZM215 24.8V26.3H216.5V24.8H215ZM168.35 24.8V23.3H166.85V24.8H168.35ZM155.15 134.3L153.871 133.517L152.919 135.072L154.628 135.706L155.15 134.3ZM173.9 145.25L172.927 146.392L174.274 147.539L175.185 146.023L173.9 145.25ZM189.5 38.6V37.1H188V38.6H189.5ZM215 38.6H216.5V37.1H215V38.6ZM215 42.2L215.03 43.6997L216.5 43.6705V42.2H215ZM192.35 42.65L192.32 41.1503L190.825 41.18L190.85 42.675L192.35 42.65ZM192.5 51.65L191 51.675L191.025 53.1796L192.53 53.1497L192.5 51.65ZM215.15 51.2L216.642 51.0482L216.502 49.6728L215.12 49.7003L215.15 51.2ZM292.1 63.5L292.499 64.946L293.835 64.5775L293.573 63.2167L292.1 63.5ZM290.45 50.9L291.941 50.7343L291.753 49.0447L290.1 49.4414L290.45 50.9ZM255.055 119.794L257.905 113.794L255.195 112.506L252.345 118.506L255.055 119.794ZM257.069 111.742C251.256 109.601 241.564 107.183 232.829 105.526L232.27 108.474C240.936 110.117 250.444 112.499 256.031 114.558L257.069 111.742ZM232.55 108.5H259.1V105.5H232.55V108.5ZM257.6 107V118.55H260.6V107H257.6ZM258.934 117.059L253.534 117.659L253.866 120.641L259.266 120.041L258.934 117.059ZM221.45 108.5H225.5V105.5H221.45V108.5ZM224.158 106.329L220.708 113.229L223.392 114.571L226.842 107.671L224.158 106.329ZM221.789 115.377C229.367 116.714 238.746 119.096 245.876 121.473L246.824 118.627C239.554 116.204 230.033 113.786 222.311 112.423L221.789 115.377ZM246.208 118.557C236.742 119.458 227.913 120.356 221.02 120.956L221.28 123.944C228.187 123.344 237.058 122.442 246.492 121.543L246.208 118.557ZM222.648 122.533C222.797 119.842 222.95 117.099 222.95 114.5H219.95C219.95 117.001 219.803 119.658 219.652 122.367L222.648 122.533ZM222.95 114.5V107H219.95V114.5H222.95ZM279.95 97.4H200.9V100.4H279.95V97.4ZM199.4 98.9V113.9H202.4V98.9H199.4ZM199.4 113.9C199.4 117.394 199.208 120.725 198.016 123.868C196.842 126.965 194.655 129.984 190.473 132.749L192.127 135.251C196.795 132.166 199.408 128.66 200.821 124.932C202.217 121.25 202.4 117.456 202.4 113.9H199.4ZM190.579 135.315C192.806 136.537 196.224 138.884 199.548 141.386C202.872 143.888 205.991 146.462 207.639 148.111L209.761 145.989C207.959 144.188 204.703 141.512 201.352 138.989C198.001 136.466 194.444 134.013 192.021 132.685L190.579 135.315ZM209.574 148.269C217.998 142.229 221.262 133.202 222.339 124.28L219.361 123.92C218.338 132.398 215.302 140.471 207.826 145.831L209.574 148.269ZM219.42 124.552L223.02 135.952L225.88 135.048L222.28 123.648L219.42 124.552ZM224.707 136.978C235.061 135.177 246.938 132.922 259.367 130.676L258.833 127.724C246.362 129.978 234.539 132.223 224.193 134.022L224.707 136.978ZM257.6 129.2V129.95H260.6V129.2H257.6ZM257.6 129.95C257.6 130.186 257.573 130.295 257.562 130.326C257.557 130.342 257.575 130.288 257.639 130.231C257.697 130.181 257.725 130.187 257.651 130.206C257.568 130.227 257.413 130.25 257.15 130.25V133.25C257.922 133.25 258.881 133.137 259.624 132.481C260.414 131.784 260.6 130.806 260.6 129.95H257.6ZM256.964 130.262C255.918 130.392 251.991 130.401 249.207 130.108L248.893 133.092C251.809 133.399 255.982 133.408 257.336 133.238L256.964 130.262ZM247.698 132.249C249.5 136.004 251.683 140.824 252.692 145.002L255.608 144.298C254.517 139.776 252.2 134.696 250.402 130.951L247.698 132.249ZM254.15 146.15C258.035 146.15 261.695 146.151 264.988 145.902C268.279 145.653 271.306 145.149 273.915 144.09L272.785 141.31C270.594 142.201 267.921 142.672 264.762 142.911C261.605 143.149 258.065 143.15 254.15 143.15V146.15ZM273.921 144.087C276.671 142.955 278.669 141.483 279.899 139.068C281.082 136.747 281.45 133.743 281.45 129.8H278.45C278.45 133.657 278.068 136.053 277.226 137.707C276.431 139.267 275.129 140.345 272.779 141.313L273.921 144.087ZM281.45 129.8V98.9H278.45V129.8H281.45ZM212.6 86.45H229.85V83.45H212.6V86.45ZM228.35 84.95V88.4H231.35V84.95H228.35ZM229.85 86.9H212.6V89.9H229.85V86.9ZM214.1 88.4V84.95H211.1V88.4H214.1ZM212.6 75.8H229.85V72.8H212.6V75.8ZM228.35 74.3V77.75H231.35V74.3H228.35ZM229.85 76.25H212.6V79.25H229.85V76.25ZM214.1 77.75V74.3H211.1V77.75H214.1ZM267.2 76.25H249.35V79.25H267.2V76.25ZM250.85 77.75V74.3H247.85V77.75H250.85ZM249.35 75.8H267.2V72.8H249.35V75.8ZM265.7 74.3V77.75H268.7V74.3H265.7ZM267.2 86.9H249.35V89.9H267.2V86.9ZM250.85 88.4V84.95H247.85V88.4H250.85ZM249.35 86.45H267.2V83.45H249.35V86.45ZM265.7 84.95V88.4H268.7V84.95H265.7ZM192.95 97.4H287.9V94.4H192.95V97.4ZM289.4 95.9V66.8H286.4V95.9H289.4ZM287.9 65.3H192.95V68.3H287.9V65.3ZM191.45 66.8V95.9H194.45V66.8H191.45ZM240.95 51.05C239.211 51.05 238.029 50.9023 237.24 50.664C236.473 50.4327 236.197 50.1546 236.072 49.955L233.528 51.545C234.153 52.5454 235.152 53.1673 236.373 53.536C237.571 53.8977 239.089 54.05 240.95 54.05V51.05ZM234.836 52.2496L266.186 51.4996L266.114 48.5004L234.764 49.2504L234.836 52.2496ZM267.65 49.975L267.5 40.975L264.5 41.025L264.65 50.025L267.65 49.975ZM265.965 39.5004L234.165 40.2504L234.235 43.2496L266.035 42.4996L265.965 39.5004ZM235.7 41.75V38.6H232.7V41.75H235.7ZM234.2 40.1H270.35V37.1H234.2V40.1ZM268.911 38.1767C268.175 40.6797 267.289 43.1906 266.55 45.1115L269.35 46.1885C270.111 44.2094 271.025 41.6203 271.789 39.0232L268.911 38.1767ZM267.493 47.0788L285.793 52.9288L286.707 50.0712L268.407 44.2212L267.493 47.0788ZM287.55 52.2477C291.073 46.1221 294.863 36.8598 297.435 28.3857L294.565 27.5143C292.037 35.8401 288.327 44.8779 284.95 50.7523L287.55 52.2477ZM296.364 26.4948L280.164 22.4448L279.436 25.3552L295.636 29.4052L296.364 26.4948ZM279.421 22.4486L275.971 23.3486L276.729 26.2514L280.179 25.3514L279.421 22.4486ZM276.35 23.3H236.9V26.3H276.35V23.3ZM238.4 24.8V21.5H235.4V24.8H238.4ZM236.9 23H282.95V20H236.9V23ZM284.45 21.5V8.45H281.45V21.5H284.45ZM282.95 6.95H236.9V9.95H282.95V6.95ZM238.4 8.45V2.44999H235.4V8.45H238.4ZM236.9 0.949993H215V3.94999H236.9V0.949993ZM213.5 2.44999V24.8H216.5V2.44999H213.5ZM215 23.3H168.35V26.3H215V23.3ZM166.85 24.8V63.35H169.85V24.8H166.85ZM166.85 63.35C166.85 73.8367 166.624 86.4629 164.877 98.9547C163.128 111.46 159.868 123.717 153.871 133.517L156.429 135.083C162.732 124.783 166.072 112.065 167.848 99.3703C169.626 86.6621 169.85 73.8633 169.85 63.35H166.85ZM154.628 135.706C157.133 136.637 160.722 138.462 164.217 140.507C167.715 142.554 171.002 144.752 172.927 146.392L174.873 144.108C172.748 142.298 169.285 139.996 165.733 137.918C162.178 135.838 158.417 133.913 155.672 132.894L154.628 135.706ZM175.185 146.023C182.007 134.679 185.946 119.981 188.189 105.219C190.436 90.435 191 75.4651 191 63.5H188C188 75.3849 187.439 90.19 185.223 104.768C183.004 119.369 179.143 133.621 172.615 144.477L175.185 146.023ZM191 63.5V38.6H188V63.5H191ZM189.5 40.1H215V37.1H189.5V40.1ZM213.5 38.6V42.2H216.5V38.6H213.5ZM214.97 40.7003L192.32 41.1503L192.38 44.1497L215.03 43.6997L214.97 40.7003ZM190.85 42.675L191 51.675L194 51.625L193.85 42.625L190.85 42.675ZM192.53 53.1497L215.18 52.6997L215.12 49.7003L192.47 50.1503L192.53 53.1497ZM213.658 51.3518C214.131 56.0099 215.631 59.9453 219.353 62.6346C222.985 65.2588 228.476 66.5 236.45 66.5V63.5C228.674 63.5 223.965 62.2662 221.11 60.2029C218.344 58.2047 217.069 55.2401 216.642 51.0482L213.658 51.3518ZM236.45 66.5H270.65V63.5H236.45V66.5ZM270.65 66.5C274.491 66.5 278.797 66.4248 282.7 66.1975C286.565 65.9723 290.156 65.5922 292.499 64.946L291.701 62.054C289.694 62.6078 286.385 62.9777 282.525 63.2025C278.703 63.4252 274.459 63.5 270.65 63.5V66.5ZM293.573 63.2167C292.837 59.3915 292.545 56.1712 291.941 50.7343L288.959 51.0656C289.555 56.4287 289.863 59.8085 290.627 63.7833L293.573 63.2167ZM290.1 49.4414C288.367 49.8574 284.517 50.2646 280.165 50.5661C275.857 50.8644 271.206 51.05 267.95 51.05V54.05C271.294 54.05 276.018 53.8605 280.372 53.5589C284.683 53.2604 288.783 52.8426 290.8 52.3586L290.1 49.4414ZM267.95 51.05H240.95V54.05H267.95V51.05Z" fill="#282828"/>
</svg>
