<svg width="301" height="144" viewBox="0 0 301 144" fill="none" xmlns="http://www.w3.org/2000/svg">
<path d="M105.1 31.2C100.6 24.6 90.4 15.3 82.6 9L68.35 21.15C76.3 28.05 85.9 38.1 89.8 44.7L105.1 31.2ZM63.1 60.9C71.2 67.8 81.25 77.85 85.6 84.6L100.6 70.65C95.8 64.05 85.15 54.75 77.05 48.45L63.1 60.9ZM63.25 83.1C60.4 79.95 48.55 67.05 44.5 63.6V63.15H62.95V42.9H44.5V24.9C51.1 23.4 57.55 21.6 63.55 19.5L51.7 1.64999C38.65 6.9 20.2 11.55 2.95 14.1C5.2 18.75 7.9 26.1 8.65 30.9C13.45 30.45 18.4 29.7 23.35 28.95V42.9H2.05V63.15H20.5C15.4 76.2 8.05 90.45 0.25 99.6C3.55 105.15 8.2 114.3 10.15 120.6C14.95 114.3 19.3 106.05 23.35 96.9V143.25H44.5V87.75C47.05 92.25 49.3 96.75 50.8 100.2L63.25 83.1ZM145 102.9L141.7 82.35L128.2 84.75V0.59999H106.75V88.5L59.95 96.9L63.4 117.75L106.75 109.8V143.1H128.2V105.9L145 102.9ZM206.2 63.9L193.9 66.75V48.45H207.7V28.35H193.9V0.749997H172.45V28.35H156.25V48.45H172.45V71.55C165.7 72.9 159.55 74.25 154.3 75.15L159.7 96L172.45 93V119.7C172.45 121.8 171.7 122.55 169.6 122.55C167.65 122.55 161.5 122.55 156.25 122.4C158.8 127.95 161.5 136.65 162.1 142.2C173.05 142.2 180.85 141.6 186.55 138.3C192.25 135 193.9 129.75 193.9 119.85V87.75C199 86.4 203.95 85.2 208.9 83.85L206.2 63.9ZM266.8 76.05C262.75 84.45 257.35 91.8 250.75 98.1C244.6 91.5 239.65 84.15 235.75 76.05H266.8ZM280.15 55.65L276.55 56.4H261.7V40.95H294.1V21H261.7V0.749997H240.1V21H209.5V40.95H240.1V56.4H211.9V76.05H221.5L214.6 78C219.85 90.45 226.3 101.25 234.1 110.55C224.35 116.25 213.25 120.45 200.8 123.15C205 127.8 210.1 137.1 212.35 142.8C226.6 138.6 239.2 133.2 250.15 125.85C260.35 133.5 272.2 139.35 286.3 143.4C289.3 137.85 295.45 129 300.1 124.65C287.65 121.8 276.85 117.3 267.55 111.6C279.85 98.7 288.85 82.35 294.25 61.2L280.15 55.65Z" fill="white"/>
<path d="M105.1 31.2L106.092 32.3248L107.085 31.4488L106.339 30.355L105.1 31.2ZM82.6 9L83.5425 7.83308L82.5741 7.05089L81.6268 7.85857L82.6 9ZM68.35 21.15L67.3768 20.0086L66.0499 21.1399L67.3668 22.2828L68.35 21.15ZM89.8 44.7L88.5086 45.4631L89.4318 47.0253L90.7924 45.8248L89.8 44.7ZM63.1 60.9L62.1012 59.7809L60.8178 60.9263L62.1273 62.0419L63.1 60.9ZM85.6 84.6L84.3391 85.4126L85.3096 86.9185L86.6215 85.6984L85.6 84.6ZM100.6 70.65L101.622 71.7484L102.595 70.843L101.813 69.7677L100.6 70.65ZM77.05 48.45L77.9709 47.266L76.984 46.4984L76.0512 47.3309L77.05 48.45ZM63.25 83.1L64.4626 83.9829L65.1801 82.9975L64.3623 82.0936L63.25 83.1ZM44.5 63.6H43V64.2927L43.5273 64.7419L44.5 63.6ZM44.5 63.15V61.65H43V63.15H44.5ZM62.95 63.15V64.65H64.45V63.15H62.95ZM62.95 42.9H64.45V41.4H62.95V42.9ZM44.5 42.9H43V44.4H44.5V42.9ZM44.5 24.9L44.1676 23.4373L43 23.7027V24.9H44.5ZM63.55 19.5L64.0455 20.9158L65.8671 20.2782L64.7997 18.6704L63.55 19.5ZM51.7 1.64999L52.9497 0.82037L52.2738 -0.197693L51.1402 0.258385L51.7 1.64999ZM2.95 14.1L2.73064 12.6161L0.710149 12.9148L1.59976 14.7533L2.95 14.1ZM8.65 30.9L7.16798 31.1316L7.38572 32.5251L8.79001 32.3934L8.65 30.9ZM23.35 28.95H24.85V27.2056L23.1253 27.4669L23.35 28.95ZM23.35 42.9V44.4H24.85V42.9H23.35ZM2.05 42.9V41.4H0.55V42.9H2.05ZM2.05 63.15H0.55V64.65H2.05V63.15ZM20.5 63.15L21.8971 63.696L22.6967 61.65H20.5V63.15ZM0.25 99.6L-0.891522 98.6269L-1.58796 99.4439L-1.0393 100.367L0.25 99.6ZM10.15 120.6L8.71707 121.044L9.57818 123.826L11.3431 121.509L10.15 120.6ZM23.35 96.9H24.85L21.9784 96.2929L23.35 96.9ZM23.35 143.25H21.85V144.75H23.35V143.25ZM44.5 143.25V144.75H46V143.25H44.5ZM44.5 87.75L45.805 87.0105L43 82.0604V87.75H44.5ZM50.8 100.2L49.4244 100.798L50.4697 103.202L52.0126 101.083L50.8 100.2ZM145 102.9L145.264 104.377L146.715 104.118L146.481 102.662L145 102.9ZM141.7 82.35L143.181 82.1122L142.939 80.6062L141.437 80.8732L141.7 82.35ZM128.2 84.75H126.7V86.5402L128.463 86.2268L128.2 84.75ZM128.2 0.599991H129.7V-0.900009H128.2V0.599991ZM106.75 0.599991V-0.900009H105.25V0.599991H106.75ZM106.75 88.5L107.015 89.9764L108.25 89.7547V88.5H106.75ZM59.95 96.9L59.685 95.4236L58.2286 95.685L58.4701 97.1449L59.95 96.9ZM63.4 117.75L61.9201 117.995L62.1693 119.501L63.6706 119.225L63.4 117.75ZM106.75 109.8H108.25V108L106.479 108.325L106.75 109.8ZM106.75 143.1H105.25V144.6H106.75V143.1ZM128.2 143.1V144.6H129.7V143.1H128.2ZM128.2 105.9L127.936 104.423L126.7 104.644V105.9H128.2ZM106.339 30.355C101.703 23.5548 91.345 14.1351 83.5425 7.83308L81.6575 10.1669C89.455 16.4649 99.4972 25.6452 103.861 32.045L106.339 30.355ZM81.6268 7.85857L67.3768 20.0086L69.3232 22.2914L83.5732 10.1414L81.6268 7.85857ZM67.3668 22.2828C75.2853 29.1555 84.7352 39.0772 88.5086 45.4631L91.0914 43.9369C87.0648 37.1227 77.3147 26.9445 69.3332 20.0172L67.3668 22.2828ZM90.7924 45.8248L106.092 32.3248L104.108 30.0752L88.8076 43.5752L90.7924 45.8248ZM62.1273 62.0419C70.2025 68.9207 80.1129 78.8546 84.3391 85.4126L86.8609 83.7874C82.3871 76.8454 72.1975 66.6793 64.0727 59.7581L62.1273 62.0419ZM86.6215 85.6984L101.622 71.7484L99.5785 69.5516L84.5785 83.5016L86.6215 85.6984ZM101.813 69.7677C96.8762 62.9794 86.0724 53.5671 77.9709 47.266L76.1291 49.634C84.2276 55.9329 94.7238 65.1205 99.3869 71.5323L101.813 69.7677ZM76.0512 47.3309L62.1012 59.7809L64.0988 62.0191L78.0488 49.5691L76.0512 47.3309ZM64.3623 82.0936C61.5468 78.9818 49.6163 65.9878 45.4727 62.4581L43.5273 64.7419C47.4837 68.1122 59.2532 80.9182 62.1377 84.1064L64.3623 82.0936ZM46 63.6V63.15H43V63.6H46ZM44.5 64.65H62.95V61.65H44.5V64.65ZM64.45 63.15V42.9H61.45V63.15H64.45ZM62.95 41.4H44.5V44.4H62.95V41.4ZM46 42.9V24.9H43V42.9H46ZM44.8324 26.3627C51.4777 24.8524 57.9832 23.0376 64.0455 20.9158L63.0545 18.0842C57.1168 20.1624 50.7223 21.9476 44.1676 23.4373L44.8324 26.3627ZM64.7997 18.6704L52.9497 0.82037L50.4503 2.47962L62.3003 20.3296L64.7997 18.6704ZM51.1402 0.258385C38.2266 5.4535 19.8967 10.0785 2.73064 12.6161L3.16936 15.5839C20.5033 13.0215 39.0734 8.3465 52.2598 3.0416L51.1402 0.258385ZM1.59976 14.7533C3.81636 19.3343 6.44974 26.5348 7.16798 31.1316L10.132 30.6684C9.35026 25.6652 6.58364 18.1657 4.30024 13.4467L1.59976 14.7533ZM8.79001 32.3934C13.64 31.9388 18.6329 31.1818 23.5747 30.4331L23.1253 27.4669C18.1671 28.2182 13.26 28.9612 8.50999 29.4065L8.79001 32.3934ZM21.85 28.95V42.9H24.85V28.95H21.85ZM23.35 41.4H2.05V44.4H23.35V41.4ZM0.55 42.9V63.15H3.55V42.9H0.55ZM2.05 64.65H20.5V61.65H2.05V64.65ZM19.1029 62.604C14.03 75.5846 6.75302 89.6593 -0.891522 98.6269L1.39152 100.573C9.34698 91.2407 16.77 76.8154 21.8971 63.696L19.1029 62.604ZM-1.0393 100.367C2.23673 105.876 6.81823 114.909 8.71707 121.044L11.5829 120.156C9.58177 113.691 4.86327 104.424 1.5393 98.8334L-1.0393 100.367ZM11.3431 121.509C16.2476 115.072 20.6534 106.698 24.7216 97.5071L21.9784 96.2929C17.9466 105.402 13.6524 113.528 8.95685 119.691L11.3431 121.509ZM21.85 96.9V143.25H24.85V96.9H21.85ZM23.35 144.75H44.5V141.75H23.35V144.75ZM46 143.25V87.75H43V143.25H46ZM43.195 88.4895C45.7234 92.9515 47.9487 97.4041 49.4244 100.798L52.1756 99.6019C50.6513 96.0959 48.3766 91.5485 45.805 87.0105L43.195 88.4895ZM52.0126 101.083L64.4626 83.9829L62.0374 82.2171L49.5874 99.3171L52.0126 101.083ZM146.481 102.662L143.181 82.1122L140.219 82.5878L143.519 103.138L146.481 102.662ZM141.437 80.8732L127.937 83.2731L128.463 86.2268L141.963 83.8268L141.437 80.8732ZM129.7 84.75V0.599991H126.7V84.75H129.7ZM128.2 -0.900009H106.75V2.09999H128.2V-0.900009ZM105.25 0.599991V88.5H108.25V0.599991H105.25ZM106.485 87.0236L59.685 95.4236L60.215 98.3764L107.015 89.9764L106.485 87.0236ZM58.4701 97.1449L61.9201 117.995L64.8799 117.505L61.4299 96.6551L58.4701 97.1449ZM63.6706 119.225L107.021 111.275L106.479 108.325L63.1294 116.275L63.6706 119.225ZM105.25 109.8V143.1H108.25V109.8H105.25ZM106.75 144.6H128.2V141.6H106.75V144.6ZM129.7 143.1V105.9H126.7V143.1H129.7ZM128.464 107.377L145.264 104.377L144.736 101.423L127.936 104.423L128.464 107.377ZM206.2 63.9L207.686 63.6988L207.466 62.067L205.861 62.4387L206.2 63.9ZM193.9 66.75H192.4V68.6373L194.239 68.2113L193.9 66.75ZM193.9 48.45V46.95H192.4V48.45H193.9ZM207.7 48.45V49.95H209.2V48.45H207.7ZM207.7 28.35H209.2V26.85H207.7V28.35ZM193.9 28.35H192.4V29.85H193.9V28.35ZM193.9 0.749996H195.4V-0.750004H193.9V0.749996ZM172.45 0.749996V-0.750004H170.95V0.749996H172.45ZM172.45 28.35V29.85H173.95V28.35H172.45ZM156.25 28.35V26.85H154.75V28.35H156.25ZM156.25 48.45H154.75V49.95H156.25V48.45ZM172.45 48.45H173.95V46.95H172.45V48.45ZM172.45 71.55L172.744 73.0209L173.95 72.7797V71.55H172.45ZM154.3 75.15L154.047 73.6716L152.439 73.9471L152.848 75.5261L154.3 75.15ZM159.7 96L158.248 96.3761L158.616 97.7961L160.044 97.4601L159.7 96ZM172.45 93H173.95V91.1061L172.106 91.5399L172.45 93ZM156.25 122.4L156.293 120.901L153.879 120.832L154.887 123.026L156.25 122.4ZM162.1 142.2L160.609 142.361L160.753 143.7H162.1V142.2ZM186.55 138.3L187.302 139.598L186.55 138.3ZM193.9 87.75L193.516 86.2999L192.4 86.5954V87.75H193.9ZM208.9 83.85L209.295 85.2971L210.563 84.9513L210.386 83.6488L208.9 83.85ZM266.8 76.05L268.151 76.7014L269.188 74.55H266.8V76.05ZM250.75 98.1L249.653 99.1226L250.688 100.233L251.786 99.185L250.75 98.1ZM235.75 76.05V74.55H233.363L234.398 76.7007L235.75 76.05ZM280.15 55.65L280.699 54.2542L280.283 54.0902L279.844 54.1815L280.15 55.65ZM276.55 56.4V57.9H276.705L276.856 57.8685L276.55 56.4ZM261.7 56.4H260.2V57.9H261.7V56.4ZM261.7 40.95V39.45H260.2V40.95H261.7ZM294.1 40.95V42.45H295.6V40.95H294.1ZM294.1 21H295.6V19.5H294.1V21ZM261.7 21H260.2V22.5H261.7V21ZM261.7 0.749996H263.2V-0.750004H261.7V0.749996ZM240.1 0.749996V-0.750004H238.6V0.749996H240.1ZM240.1 21V22.5H241.6V21H240.1ZM209.5 21V19.5H208V21H209.5ZM209.5 40.95H208V42.45H209.5V40.95ZM240.1 40.95H241.6V39.45H240.1V40.95ZM240.1 56.4V57.9H241.6V56.4H240.1ZM211.9 56.4V54.9H210.4V56.4H211.9ZM211.9 76.05H210.4V77.55H211.9V76.05ZM221.5 76.05L221.908 77.4935L221.5 74.55V76.05ZM214.6 78L214.192 76.5565L212.558 77.0183L213.218 78.5828L214.6 78ZM234.1 110.55L234.857 111.845L236.391 110.948L235.249 109.586L234.1 110.55ZM200.8 123.15L200.482 121.684L197.951 122.233L199.687 124.155L200.8 123.15ZM212.35 142.8L210.955 143.351L211.458 144.627L212.774 144.239L212.35 142.8ZM250.15 125.85L251.05 124.65L250.198 124.011L249.314 124.605L250.15 125.85ZM286.3 143.4L285.886 144.842L287.046 145.175L287.62 144.113L286.3 143.4ZM300.1 124.65L301.125 125.745L303.186 123.818L300.435 123.188L300.1 124.65ZM267.55 111.6L266.464 110.565L265.183 111.909L266.766 112.879L267.55 111.6ZM294.25 61.2L295.703 61.5711L296.031 60.2889L294.799 59.8042L294.25 61.2ZM205.861 62.4387L193.561 65.2887L194.239 68.2113L206.539 65.3613L205.861 62.4387ZM195.4 66.75V48.45H192.4V66.75H195.4ZM193.9 49.95H207.7V46.95H193.9V49.95ZM209.2 48.45V28.35H206.2V48.45H209.2ZM207.7 26.85H193.9V29.85H207.7V26.85ZM195.4 28.35V0.749996H192.4V28.35H195.4ZM193.9 -0.750004H172.45V2.25H193.9V-0.750004ZM170.95 0.749996V28.35H173.95V0.749996H170.95ZM172.45 26.85H156.25V29.85H172.45V26.85ZM154.75 28.35V48.45H157.75V28.35H154.75ZM156.25 49.95H172.45V46.95H156.25V49.95ZM170.95 48.45V71.55H173.95V48.45H170.95ZM172.156 70.0791C165.364 71.4375 159.27 72.7761 154.047 73.6716L154.553 76.6284C159.83 75.7239 166.036 74.3625 172.744 73.0209L172.156 70.0791ZM152.848 75.5261L158.248 96.3761L161.152 95.6239L155.752 74.7739L152.848 75.5261ZM160.044 97.4601L172.794 94.4601L172.106 91.5399L159.356 94.5399L160.044 97.4601ZM170.95 93V119.7H173.95V93H170.95ZM170.95 119.7C170.95 120.643 170.766 120.837 170.752 120.852C170.737 120.866 170.543 121.05 169.6 121.05V124.05C170.757 124.05 171.988 123.859 172.873 122.973C173.759 122.088 173.95 120.857 173.95 119.7H170.95ZM169.6 121.05C167.648 121.05 161.518 121.05 156.293 120.901L156.207 123.899C161.482 124.05 167.652 124.05 169.6 124.05V121.05ZM154.887 123.026C157.39 128.473 160.031 137.014 160.609 142.361L163.591 142.039C162.969 136.286 160.21 127.427 157.613 121.774L154.887 123.026ZM162.1 143.7C172.999 143.7 181.203 143.129 187.302 139.598L185.798 137.002C180.497 140.071 173.101 140.7 162.1 140.7V143.7ZM187.302 139.598C190.438 137.782 192.513 135.38 193.765 132.083C194.989 128.859 195.4 124.85 195.4 119.85H192.4C192.4 124.75 191.986 128.316 190.96 131.017C189.962 133.645 188.362 135.518 185.798 137.002L187.302 139.598ZM195.4 119.85V87.75H192.4V119.85H195.4ZM194.284 89.2001C199.325 87.8656 204.356 86.644 209.295 85.2971L208.505 82.4028C203.544 83.756 198.675 84.9344 193.516 86.2999L194.284 89.2001ZM210.386 83.6488L207.686 63.6988L204.714 64.1012L207.414 84.0512L210.386 83.6488ZM265.449 75.3986C261.478 83.6338 256.186 90.8375 249.714 97.015L251.786 99.185C258.514 92.7625 264.022 85.2662 268.151 76.7014L265.449 75.3986ZM251.847 97.0774C245.805 90.5926 240.939 83.3692 237.102 75.3993L234.398 76.7007C238.361 84.9308 243.395 92.4074 249.653 99.1226L251.847 97.0774ZM235.75 77.55H266.8V74.55H235.75V77.55ZM279.844 54.1815L276.244 54.9315L276.856 57.8685L280.456 57.1185L279.844 54.1815ZM276.55 54.9H261.7V57.9H276.55V54.9ZM263.2 56.4V40.95H260.2V56.4H263.2ZM261.7 42.45H294.1V39.45H261.7V42.45ZM295.6 40.95V21H292.6V40.95H295.6ZM294.1 19.5H261.7V22.5H294.1V19.5ZM263.2 21V0.749996H260.2V21H263.2ZM261.7 -0.750004H240.1V2.25H261.7V-0.750004ZM238.6 0.749996V21H241.6V0.749996H238.6ZM240.1 19.5H209.5V22.5H240.1V19.5ZM208 21V40.95H211V21H208ZM209.5 42.45H240.1V39.45H209.5V42.45ZM238.6 40.95V56.4H241.6V40.95H238.6ZM240.1 54.9H211.9V57.9H240.1V54.9ZM210.4 56.4V76.05H213.4V56.4H210.4ZM211.9 77.55H221.5V74.55H211.9V77.55ZM221.092 74.6065L214.192 76.5565L215.008 79.4435L221.908 77.4935L221.092 74.6065ZM213.218 78.5828C218.519 91.1533 225.043 102.086 232.951 111.514L235.249 109.586C227.557 100.414 221.181 89.7467 215.982 77.4172L213.218 78.5828ZM233.343 109.255C223.746 114.866 212.797 119.013 200.482 121.684L201.118 124.616C213.703 121.887 224.954 117.634 234.857 111.845L233.343 109.255ZM199.687 124.155C203.725 128.626 208.744 137.749 210.955 143.351L213.745 142.249C211.456 136.451 206.275 126.974 201.913 122.145L199.687 124.155ZM212.774 144.239C227.126 140.009 239.876 134.553 250.986 127.095L249.314 124.605C238.524 131.847 226.074 137.191 211.926 141.361L212.774 144.239ZM249.25 127.05C259.609 134.819 271.627 140.746 285.886 144.842L286.714 141.958C272.773 137.954 261.091 132.181 251.05 124.65L249.25 127.05ZM287.62 144.113C290.576 138.645 296.635 129.946 301.125 125.745L299.075 123.555C294.265 128.054 288.024 137.055 284.98 142.687L287.62 144.113ZM300.435 123.188C288.138 120.373 277.49 115.933 268.334 110.321L266.766 112.879C276.21 118.667 287.162 123.227 299.765 126.112L300.435 123.188ZM268.636 112.635C281.133 99.5276 290.247 82.9401 295.703 61.5711L292.797 60.8289C287.453 81.7599 278.567 97.8724 266.464 110.565L268.636 112.635ZM294.799 59.8042L280.699 54.2542L279.601 57.0458L293.701 62.5958L294.799 59.8042Z" fill="#282828"/>
</svg>
