<svg width="296" height="145" viewBox="0 0 296 145" fill="none" xmlns="http://www.w3.org/2000/svg">
<path d="M42.75 60.3L39 61.05H4.2V81.6H29.7C23.4 97.35 13.05 110.25 0.15 118.05C5.4 121.35 14.25 129.75 17.85 134.4C35.85 121.95 50.55 98.1 57.45 66.45L42.75 60.3ZM119.55 43.35C113.1 51.6 103.35 61.05 94.2 68.7C90.45 61.5 87.45 53.7 84.9 45.45V36.45C87.15 37.5 89.1 38.55 90.75 39.6L102.6 19.35C89.7 12.75 64.2 4.79999 47.25 1.35L36.3 19.2C47.1 21.9 60.6 26.4 72 30.9H25.65V51.75H61.2V118.35C61.2 120.75 60.3 121.5 57.6 121.65C54.9 121.65 45.15 121.65 38.4 121.2C41.55 127.05 44.85 136.8 45.75 143.1C58.65 143.1 68.25 142.8 75.45 139.35C82.65 135.75 84.9 129.9 84.9 118.8V94.35C95.55 112.05 109.8 126 129.45 135.15C132.75 129.15 139.8 120 144.75 115.65C128.1 109.2 114.9 98.85 104.85 85.65C115.65 78.3 128.4 68.1 139.65 58.35L119.55 43.35ZM239.4 23.25H210.15V35.85H289.2V23.25H260.7V19.8H293.1V6.3H260.7V0.749997H239.4V6.3H205.2V19.8H239.4V23.25ZM223.05 51.6H230.25V58.5H223.05V51.6ZM274.95 58.5H268.35V51.6H274.95V58.5ZM246 58.5V51.6H252.6V58.5H246ZM205.5 71.25H293.55V38.85H205.5V71.25ZM181.35 75.6C183.75 72.45 186.15 69.3 188.4 66C189.15 68.7 189.9 71.55 190.65 74.55L181.35 75.6ZM209.7 92.25C208.65 84.3 205.5 71.1 202.2 60.9L189.45 64.35C196.95 53.85 203.7 42.3 209.1 31.05L192.9 21.15C190.2 27.9 186.9 34.95 183.6 41.4L176.85 41.85C183.3 31.35 189.45 18.9 193.8 7.34999L176.25 0.449992C171.9 16.35 163.8 33.15 160.95 37.35C158.25 41.85 155.85 44.7 153 45.6C154.95 50.25 157.95 58.65 158.85 62.25C161.1 61.2 164.25 60.3 173.1 59.25C169.95 64.35 167.1 68.25 165.45 70.2C160.95 75.9 157.95 79.35 154.05 80.4C156.15 85.2 159.15 94.05 160.05 97.65C163.5 95.85 168.9 94.35 193.8 90.75C194.25 93.15 194.55 95.25 194.7 97.05L209.7 92.25ZM159 101.25C158.4 114.15 156.9 128.1 153.45 137.1C157.65 138.3 165.45 140.55 169.05 142.5C172.2 133.05 174.45 118.05 175.2 103.8L159 101.25ZM175.65 103.65C176.85 114.6 177.9 129 177.75 138.45L192.75 135.75C192.6 126.15 191.4 112.2 189.75 101.1L175.65 103.65ZM190.2 100.8C192.75 109.35 195.45 120.6 196.5 127.95L210.15 123.3C208.95 116.1 205.95 105.15 203.25 96.75L190.2 100.8ZM230.4 106.35H268.35V109.95H230.4V106.35ZM230.4 95.85H268.35V99.3H230.4V95.85ZM230.4 85.35H268.35V88.65H230.4V85.35ZM288.45 120.45V74.7H211.2V120.45H228.9C220.65 123.9 210.6 127.5 203.1 129.6C205.8 133.95 208.8 140.25 210.45 144.45C221.85 140.85 237.3 135.6 249.45 130.65L239.7 120.45H259.95L254.4 130.95C266.1 134.85 279.45 140.1 287.55 143.55L295.95 128.7C289.8 126.45 280.65 123.3 271.65 120.45H288.45Z" fill="white"/>
<path d="M42.75 60.3L43.3289 58.9162L42.9057 58.7392L42.4558 58.8291L42.75 60.3ZM39 61.05V62.55H39.1485L39.2942 62.5209L39 61.05ZM4.2 61.05V59.55H2.7V61.05H4.2ZM4.2 81.6H2.7V83.1H4.2V81.6ZM29.7 81.6L31.0927 82.1571L31.9156 80.1H29.7V81.6ZM0.15 118.05L-0.626129 116.766L-2.70804 118.025L-0.648257 119.32L0.15 118.05ZM17.85 134.4L16.6639 135.318L17.5341 136.442L18.7033 135.634L17.85 134.4ZM57.45 66.45L58.9156 66.7695L59.1818 65.5485L58.0289 65.0662L57.45 66.45ZM119.55 43.35L120.447 42.1478L119.272 41.2706L118.368 42.4261L119.55 43.35ZM94.2 68.7L92.8696 69.3929L93.7312 71.0471L95.1621 69.8508L94.2 68.7ZM84.9 45.45H83.4V45.6765L83.4669 45.893L84.9 45.45ZM84.9 36.45L85.5343 35.0907L83.4 34.0947V36.45H84.9ZM90.75 39.6L89.9447 40.8655L91.2582 41.7014L92.0446 40.3576L90.75 39.6ZM102.6 19.35L103.895 20.1076L104.696 18.7376L103.283 18.0146L102.6 19.35ZM47.25 1.35L47.5492 -0.119865L46.5204 -0.329262L45.9714 0.565651L47.25 1.35ZM36.3 19.2L35.0214 18.4156L33.9519 20.1591L35.9362 20.6552L36.3 19.2ZM72 30.9V32.4L72.5508 29.5048L72 30.9ZM25.65 30.9V29.4H24.15V30.9H25.65ZM25.65 51.75H24.15V53.25H25.65V51.75ZM61.2 51.75H62.7V50.25H61.2V51.75ZM57.6 121.65V123.15H57.6416L57.6832 123.148L57.6 121.65ZM38.4 121.2L38.4998 119.703L35.7933 119.523L37.0793 121.911L38.4 121.2ZM45.75 143.1L44.2651 143.312L44.4491 144.6H45.75V143.1ZM75.45 139.35L76.0982 140.703L76.1096 140.697L76.1208 140.692L75.45 139.35ZM84.9 94.35L86.1853 93.5767L83.4 88.9476V94.35H84.9ZM129.45 135.15L128.817 136.51L130.088 137.102L130.764 135.873L129.45 135.15ZM144.75 115.65L145.74 116.777L147.598 115.144L145.292 114.251L144.75 115.65ZM104.85 85.65L104.006 84.4099L102.698 85.3L103.657 86.5587L104.85 85.65ZM139.65 58.35L140.632 59.4835L142.041 58.2627L140.547 57.1479L139.65 58.35ZM42.4558 58.8291L38.7058 59.5791L39.2942 62.5209L43.0442 61.7709L42.4558 58.8291ZM39 59.55H4.2V62.55H39V59.55ZM2.7 61.05V81.6H5.7V61.05H2.7ZM4.2 83.1H29.7V80.1H4.2V83.1ZM28.3073 81.0429C22.1091 96.5385 11.9534 109.16 -0.626129 116.766L0.926129 119.334C14.1466 111.34 24.6909 98.1615 31.0927 82.1571L28.3073 81.0429ZM-0.648257 119.32C1.85571 120.894 5.29872 123.742 8.59594 126.816C11.8885 129.885 14.935 133.085 16.6639 135.318L19.0361 133.482C17.165 131.065 13.9865 127.74 10.6416 124.622C7.30128 121.508 3.69429 118.506 0.948258 116.78L-0.648257 119.32ZM18.7033 135.634C37.1078 122.904 51.9621 98.6648 58.9156 66.7695L55.9844 66.1305C49.1379 97.5352 34.5922 120.996 16.9967 133.166L18.7033 135.634ZM58.0289 65.0662L43.3289 58.9162L42.1711 61.6838L56.8711 67.8338L58.0289 65.0662ZM118.368 42.4261C112.006 50.5634 102.342 59.9376 93.2379 67.5492L95.1621 69.8508C104.358 62.1624 114.194 52.6366 120.732 44.2739L118.368 42.4261ZM95.5304 68.0071C91.8331 60.9083 88.8646 53.1971 86.3331 45.007L83.4669 45.893C86.0354 54.2029 89.0669 62.0917 92.8696 69.3929L95.5304 68.0071ZM86.4 45.45V36.45H83.4V45.45H86.4ZM84.2657 37.8093C86.4716 38.8387 88.3619 39.8583 89.9447 40.8655L91.5553 38.3345C89.8381 37.2417 87.8284 36.1613 85.5343 35.0907L84.2657 37.8093ZM92.0446 40.3576L103.895 20.1076L101.305 18.5924L89.4554 38.8424L92.0446 40.3576ZM103.283 18.0146C90.2192 11.3307 64.5758 3.34571 47.5492 -0.119865L46.9508 2.81986C63.8242 6.25426 89.1808 14.1693 101.917 20.6854L103.283 18.0146ZM45.9714 0.565651L35.0214 18.4156L37.5786 19.9843L48.5286 2.13435L45.9714 0.565651ZM35.9362 20.6552C46.6587 23.3358 60.0952 27.8134 71.4492 32.2952L72.5508 29.5048C61.1048 24.9866 47.5413 20.4642 36.6638 17.7448L35.9362 20.6552ZM72 29.4H25.65V32.4H72V29.4ZM24.15 30.9V51.75H27.15V30.9H24.15ZM25.65 53.25H61.2V50.25H25.65V53.25ZM59.7 51.75V118.35H62.7V51.75H59.7ZM59.7 118.35C59.7 119.421 59.4873 119.658 59.4091 119.729C59.2605 119.863 58.8312 120.079 57.5168 120.152L57.6832 123.148C59.0689 123.071 60.4395 122.837 61.4159 121.959C62.4627 121.017 62.7 119.679 62.7 118.35H59.7ZM57.6 120.15C54.8883 120.15 45.1906 120.149 38.4998 119.703L38.3002 122.697C45.1094 123.151 54.9117 123.15 57.6 123.15V120.15ZM37.0793 121.911C40.1522 127.618 43.3919 137.2 44.2651 143.312L47.2349 142.888C46.3081 136.4 42.9478 126.482 39.7207 120.489L37.0793 121.911ZM45.75 144.6C58.5616 144.6 68.5323 144.328 76.0982 140.703L74.8018 137.997C67.9677 141.272 58.7384 141.6 45.75 141.6V144.6ZM76.1208 140.692C79.9907 138.757 82.6249 136.154 84.2464 132.495C85.8365 128.907 86.4 124.419 86.4 118.8H83.4C83.4 124.281 82.8385 128.268 81.5036 131.28C80.2001 134.221 78.1093 136.343 74.7792 138.008L76.1208 140.692ZM86.4 118.8V94.35H83.4V118.8H86.4ZM83.6147 95.1233C94.3996 113.048 108.864 127.219 128.817 136.51L130.083 133.79C110.736 124.781 96.7004 111.052 86.1853 93.5767L83.6147 95.1233ZM130.764 135.873C133.995 130 140.941 120.994 145.74 116.777L143.76 114.523C138.659 119.006 131.505 128.3 128.136 134.427L130.764 135.873ZM145.292 114.251C128.91 107.905 115.932 97.7293 106.043 84.7413L103.657 86.5587C113.868 99.9707 127.29 110.495 144.208 117.049L145.292 114.251ZM105.694 86.8901C116.56 79.4952 129.358 69.2544 140.632 59.4835L138.668 57.2165C127.442 66.9456 114.74 77.1048 104.006 84.4099L105.694 86.8901ZM140.547 57.1479L120.447 42.1478L118.653 44.5521L138.753 59.5521L140.547 57.1479ZM239.4 23.25V24.75H240.9V23.25H239.4ZM210.15 23.25V21.75H208.65V23.25H210.15ZM210.15 35.85H208.65V37.35H210.15V35.85ZM289.2 35.85V37.35H290.7V35.85H289.2ZM289.2 23.25H290.7V21.75H289.2V23.25ZM260.7 23.25H259.2V24.75H260.7V23.25ZM260.7 19.8V18.3H259.2V19.8H260.7ZM293.1 19.8V21.3H294.6V19.8H293.1ZM293.1 6.3H294.6V4.8H293.1V6.3ZM260.7 6.3H259.2V7.8H260.7V6.3ZM260.7 0.749996H262.2V-0.750004H260.7V0.749996ZM239.4 0.749996V-0.750004H237.9V0.749996H239.4ZM239.4 6.3V7.8H240.9V6.3H239.4ZM205.2 6.3V4.8H203.7V6.3H205.2ZM205.2 19.8H203.7V21.3H205.2V19.8ZM239.4 19.8H240.9V18.3H239.4V19.8ZM223.05 51.6V50.1H221.55V51.6H223.05ZM230.25 51.6H231.75V50.1H230.25V51.6ZM230.25 58.5V60H231.75V58.5H230.25ZM223.05 58.5H221.55V60H223.05V58.5ZM274.95 58.5V60H276.45V58.5H274.95ZM268.35 58.5H266.85V60H268.35V58.5ZM268.35 51.6V50.1H266.85V51.6H268.35ZM274.95 51.6H276.45V50.1H274.95V51.6ZM246 58.5H244.5V60H246V58.5ZM246 51.6V50.1H244.5V51.6H246ZM252.6 51.6H254.1V50.1H252.6V51.6ZM252.6 58.5V60H254.1V58.5H252.6ZM205.5 71.25H204V72.75H205.5V71.25ZM293.55 71.25V72.75H295.05V71.25H293.55ZM293.55 38.85H295.05V37.35H293.55V38.85ZM205.5 38.85V37.35H204V38.85H205.5ZM181.35 75.6L180.157 74.6909L178.028 77.4846L181.518 77.0905L181.35 75.6ZM188.4 66L189.845 65.5985L188.981 62.4857L187.161 65.155L188.4 66ZM190.65 74.55L190.818 76.0405L192.521 75.8483L192.105 74.1862L190.65 74.55ZM209.7 92.25L210.157 93.6786L211.351 93.2965L211.187 92.0536L209.7 92.25ZM202.2 60.9L203.627 60.4383L203.187 59.0789L201.808 59.4521L202.2 60.9ZM189.45 64.35L188.229 63.4781L185.789 66.8945L189.842 65.7979L189.45 64.35ZM209.1 31.05L210.452 31.6991L211.039 30.477L209.882 29.7701L209.1 31.05ZM192.9 21.15L193.682 19.8701L192.167 18.944L191.507 20.5929L192.9 21.15ZM183.6 41.4L183.7 42.8967L184.548 42.8401L184.935 42.0832L183.6 41.4ZM176.85 41.85L175.572 41.0649L174.052 43.5399L176.95 43.3467L176.85 41.85ZM193.8 7.34999L195.204 7.87867L195.725 6.49501L194.349 5.95401L193.8 7.34999ZM176.25 0.449993L176.799 -0.945992L175.244 -1.55728L174.803 0.0541611L176.25 0.449993ZM160.95 37.35L159.709 36.5078L159.685 36.5424L159.664 36.5783L160.95 37.35ZM153 45.6L152.548 44.1696L150.981 44.6645L151.617 46.1801L153 45.6ZM158.85 62.25L157.395 62.6138L157.836 64.3785L159.484 63.6093L158.85 62.25ZM173.1 59.25L174.376 60.0382L176.009 57.3943L172.923 57.7604L173.1 59.25ZM165.45 70.2L164.305 69.2311L164.288 69.2505L164.273 69.2705L165.45 70.2ZM154.05 80.4L153.66 78.9516L151.977 79.4046L152.676 81.0012L154.05 80.4ZM160.05 97.65L158.595 98.0138L159.056 99.8603L160.744 98.9799L160.05 97.65ZM193.8 90.75L195.274 90.4736L195.009 89.0596L193.585 89.2654L193.8 90.75ZM194.7 97.05L193.205 97.1746L193.362 99.0532L195.157 98.4786L194.7 97.05ZM159 101.25L159.233 99.7682L157.579 99.5079L157.502 101.18L159 101.25ZM153.45 137.1L152.049 136.563L151.463 138.092L153.038 138.542L153.45 137.1ZM169.05 142.5L168.336 143.819L169.908 144.67L170.473 142.974L169.05 142.5ZM175.2 103.8L176.698 103.879L176.769 102.529L175.433 102.318L175.2 103.8ZM175.65 103.65L175.383 102.174L174.007 102.423L174.159 103.813L175.65 103.65ZM177.75 138.45L176.25 138.426L176.221 140.249L178.016 139.926L177.75 138.45ZM192.75 135.75L193.016 137.226L194.27 137.001L194.25 135.727L192.75 135.75ZM189.75 101.1L191.234 100.879L191.006 99.3485L189.483 99.6239L189.75 101.1ZM190.2 100.8L189.755 99.3674L188.339 99.8071L188.763 101.229L190.2 100.8ZM196.5 127.95L195.015 128.162L195.271 129.953L196.984 129.37L196.5 127.95ZM210.15 123.3L210.634 124.72L211.839 124.309L211.63 123.053L210.15 123.3ZM203.25 96.75L204.678 96.291L204.224 94.8773L202.805 95.3174L203.25 96.75ZM230.4 106.35V104.85H228.9V106.35H230.4ZM268.35 106.35H269.85V104.85H268.35V106.35ZM268.35 109.95V111.45H269.85V109.95H268.35ZM230.4 109.95H228.9V111.45H230.4V109.95ZM230.4 95.85V94.35H228.9V95.85H230.4ZM268.35 95.85H269.85V94.35H268.35V95.85ZM268.35 99.3V100.8H269.85V99.3H268.35ZM230.4 99.3H228.9V100.8H230.4V99.3ZM230.4 85.35V83.85H228.9V85.35H230.4ZM268.35 85.35H269.85V83.85H268.35V85.35ZM268.35 88.65V90.15H269.85V88.65H268.35ZM230.4 88.65H228.9V90.15H230.4V88.65ZM288.45 120.45V121.95H289.95V120.45H288.45ZM288.45 74.7H289.95V73.2H288.45V74.7ZM211.2 74.7V73.2H209.7V74.7H211.2ZM211.2 120.45H209.7V121.95H211.2V120.45ZM228.9 120.45L229.479 121.834L228.9 118.95V120.45ZM203.1 129.6L202.696 128.156L200.772 128.694L201.826 130.391L203.1 129.6ZM210.45 144.45L209.054 144.998L209.566 146.302L210.902 145.88L210.45 144.45ZM249.45 130.65L250.016 132.039L252.058 131.207L250.534 129.614L249.45 130.65ZM239.7 120.45V118.95H236.191L238.616 121.486L239.7 120.45ZM259.95 120.45L261.276 121.151L262.44 118.95H259.95V120.45ZM254.4 130.95L253.074 130.249L252.247 131.813L253.926 132.373L254.4 130.95ZM287.55 143.55L286.962 144.93L288.196 145.455L288.856 144.289L287.55 143.55ZM295.95 128.7L297.256 129.439L298.126 127.899L296.465 127.291L295.95 128.7ZM271.65 120.45V118.95L271.197 121.88L271.65 120.45ZM239.4 21.75H210.15V24.75H239.4V21.75ZM208.65 23.25V35.85H211.65V23.25H208.65ZM210.15 37.35H289.2V34.35H210.15V37.35ZM290.7 35.85V23.25H287.7V35.85H290.7ZM289.2 21.75H260.7V24.75H289.2V21.75ZM262.2 23.25V19.8H259.2V23.25H262.2ZM260.7 21.3H293.1V18.3H260.7V21.3ZM294.6 19.8V6.3H291.6V19.8H294.6ZM293.1 4.8H260.7V7.8H293.1V4.8ZM262.2 6.3V0.749996H259.2V6.3H262.2ZM260.7 -0.750004H239.4V2.25H260.7V-0.750004ZM237.9 0.749996V6.3H240.9V0.749996H237.9ZM239.4 4.8H205.2V7.8H239.4V4.8ZM203.7 6.3V19.8H206.7V6.3H203.7ZM205.2 21.3H239.4V18.3H205.2V21.3ZM237.9 19.8V23.25H240.9V19.8H237.9ZM223.05 53.1H230.25V50.1H223.05V53.1ZM228.75 51.6V58.5H231.75V51.6H228.75ZM230.25 57H223.05V60H230.25V57ZM224.55 58.5V51.6H221.55V58.5H224.55ZM274.95 57H268.35V60H274.95V57ZM269.85 58.5V51.6H266.85V58.5H269.85ZM268.35 53.1H274.95V50.1H268.35V53.1ZM273.45 51.6V58.5H276.45V51.6H273.45ZM247.5 58.5V51.6H244.5V58.5H247.5ZM246 53.1H252.6V50.1H246V53.1ZM251.1 51.6V58.5H254.1V51.6H251.1ZM252.6 57H246V60H252.6V57ZM205.5 72.75H293.55V69.75H205.5V72.75ZM295.05 71.25V38.85H292.05V71.25H295.05ZM293.55 37.35H205.5V40.35H293.55V37.35ZM204 38.85V71.25H207V38.85H204ZM182.543 76.5091C184.939 73.3641 187.363 70.183 189.639 66.845L187.161 65.155C184.937 68.417 182.561 71.5359 180.157 74.6909L182.543 76.5091ZM186.955 66.4015C187.701 69.0878 188.448 71.9251 189.195 74.9138L192.105 74.1862C191.352 71.1749 190.599 68.3122 189.845 65.5985L186.955 66.4015ZM190.482 73.0595L181.182 74.1095L181.518 77.0905L190.818 76.0405L190.482 73.0595ZM211.187 92.0536C210.122 83.9903 206.947 70.6991 203.627 60.4383L200.773 61.3617C204.053 71.5009 207.178 84.6097 208.213 92.4464L211.187 92.0536ZM201.808 59.4521L189.058 62.9021L189.842 65.7979L202.592 62.3479L201.808 59.4521ZM190.671 65.2219C198.223 54.6485 205.017 43.0236 210.452 31.6991L207.748 30.4009C202.383 41.5764 195.677 53.0515 188.229 63.4781L190.671 65.2219ZM209.882 29.7701L193.682 19.8701L192.118 22.4299L208.318 32.3299L209.882 29.7701ZM191.507 20.5929C188.828 27.2901 185.549 34.2971 182.265 40.7168L184.935 42.0832C188.251 35.6029 191.572 28.5099 194.293 21.7071L191.507 20.5929ZM183.5 39.9033L176.75 40.3533L176.95 43.3467L183.7 42.8967L183.5 39.9033ZM178.128 42.6351C184.626 32.0568 190.819 19.5211 195.204 7.87867L192.396 6.82131C188.081 18.2788 181.974 30.6432 175.572 41.0649L178.128 42.6351ZM194.349 5.95401L176.799 -0.945992L175.701 1.84597L193.251 8.74598L194.349 5.95401ZM174.803 0.0541611C172.653 7.91487 169.568 16.0197 166.662 22.6883C163.743 29.3872 161.051 34.5295 159.709 36.5078L162.191 38.1923C163.699 35.9705 166.482 30.6127 169.413 23.8867C172.357 17.1303 175.497 8.88512 177.697 0.845821L174.803 0.0541611ZM159.664 36.5783C156.952 41.0982 154.802 43.4579 152.548 44.1696L153.452 47.0304C156.898 45.9421 159.548 42.6018 162.236 38.1217L159.664 36.5783ZM151.617 46.1801C153.553 50.7985 156.521 59.1194 157.395 62.6138L160.305 61.8862C159.379 58.1806 156.347 49.7015 154.383 45.0199L151.617 46.1801ZM159.484 63.6093C161.504 62.6668 164.451 61.7867 173.277 60.7395L172.923 57.7604C164.049 58.8133 160.696 59.7332 158.216 60.8907L159.484 63.6093ZM171.824 58.4618C168.699 63.5211 165.892 67.3553 164.305 69.2311L166.595 71.1689C168.308 69.1447 171.201 65.1789 174.376 60.0382L171.824 58.4618ZM164.273 69.2705C162.016 72.1285 160.204 74.3337 158.493 75.9551C156.799 77.561 155.286 78.5137 153.66 78.9516L154.44 81.8484C156.714 81.2363 158.651 79.939 160.557 78.1324C162.446 76.3413 164.384 73.9715 166.627 71.1295L164.273 69.2705ZM152.676 81.0012C154.745 85.7308 157.717 94.5015 158.595 98.0138L161.505 97.2862C160.583 93.5985 157.555 84.6692 155.424 79.7988L152.676 81.0012ZM160.744 98.9799C163.917 97.3246 169.02 95.8483 194.015 92.2346L193.585 89.2654C168.78 92.8517 163.083 94.3754 159.356 96.3201L160.744 98.9799ZM192.326 91.0264C192.769 93.3924 193.061 95.4396 193.205 97.1746L196.195 96.9254C196.039 95.0604 195.731 92.9076 195.274 90.4736L192.326 91.0264ZM195.157 98.4786L210.157 93.6786L209.243 90.8214L194.243 95.6214L195.157 98.4786ZM157.502 101.18C156.902 114.08 155.404 127.811 152.049 136.563L154.851 137.637C158.396 128.389 159.898 114.22 160.498 101.32L157.502 101.18ZM153.038 138.542C155.138 139.142 158.114 139.998 161.009 140.944C163.934 141.901 166.667 142.915 168.336 143.819L169.764 141.181C167.833 140.135 164.866 139.049 161.941 138.093C158.986 137.127 155.962 136.258 153.862 135.658L153.038 138.542ZM170.473 142.974C173.684 133.342 175.945 118.191 176.698 103.879L173.702 103.721C172.955 117.909 170.716 132.758 167.627 142.026L170.473 142.974ZM175.433 102.318L159.233 99.7682L158.767 102.732L174.967 105.282L175.433 102.318ZM174.159 103.813C175.356 114.74 176.399 129.069 176.25 138.426L179.25 138.474C179.401 128.931 178.344 114.46 177.141 103.487L174.159 103.813ZM178.016 139.926L193.016 137.226L192.484 134.274L177.484 136.974L178.016 139.926ZM194.25 135.727C194.099 126.052 192.892 112.035 191.234 100.879L188.266 101.321C189.908 112.365 191.101 126.248 191.25 135.773L194.25 135.727ZM189.483 99.6239L175.383 102.174L175.917 105.126L190.017 102.576L189.483 99.6239ZM188.763 101.229C191.3 109.738 193.979 120.911 195.015 128.162L197.985 127.738C196.921 120.289 194.2 108.962 191.637 100.371L188.763 101.229ZM196.984 129.37L210.634 124.72L209.666 121.88L196.016 126.53L196.984 129.37ZM211.63 123.053C210.412 115.747 207.386 104.717 204.678 96.291L201.822 97.209C204.514 105.583 207.488 116.453 208.67 123.547L211.63 123.053ZM202.805 95.3174L189.755 99.3674L190.645 102.233L203.695 98.1826L202.805 95.3174ZM230.4 107.85H268.35V104.85H230.4V107.85ZM266.85 106.35V109.95H269.85V106.35H266.85ZM268.35 108.45H230.4V111.45H268.35V108.45ZM231.9 109.95V106.35H228.9V109.95H231.9ZM230.4 97.35H268.35V94.35H230.4V97.35ZM266.85 95.85V99.3H269.85V95.85H266.85ZM268.35 97.8H230.4V100.8H268.35V97.8ZM231.9 99.3V95.85H228.9V99.3H231.9ZM230.4 86.85H268.35V83.85H230.4V86.85ZM266.85 85.35V88.65H269.85V85.35H266.85ZM268.35 87.15H230.4V90.15H268.35V87.15ZM231.9 88.65V85.35H228.9V88.65H231.9ZM289.95 120.45V74.7H286.95V120.45H289.95ZM288.45 73.2H211.2V76.2H288.45V73.2ZM209.7 74.7V120.45H212.7V74.7H209.7ZM211.2 121.95H228.9V118.95H211.2V121.95ZM228.321 119.066C220.114 122.498 210.123 126.076 202.696 128.156L203.504 131.044C211.077 128.924 221.186 125.302 229.479 121.834L228.321 119.066ZM201.826 130.391C204.468 134.648 207.429 140.864 209.054 144.998L211.846 143.902C210.171 139.636 207.132 133.252 204.374 128.809L201.826 130.391ZM210.902 145.88C222.319 142.275 237.812 137.011 250.016 132.039L248.884 129.261C236.788 134.189 221.381 139.425 209.998 143.02L210.902 145.88ZM250.534 129.614L240.784 119.414L238.616 121.486L248.366 131.686L250.534 129.614ZM239.7 121.95H259.95V118.95H239.7V121.95ZM258.624 119.749L253.074 130.249L255.726 131.651L261.276 121.151L258.624 119.749ZM253.926 132.373C265.58 136.258 278.891 141.492 286.962 144.93L288.138 142.17C280.009 138.708 266.621 133.442 254.874 129.527L253.926 132.373ZM288.856 144.289L297.256 129.439L294.644 127.961L286.244 142.811L288.856 144.289ZM296.465 127.291C290.294 125.034 281.123 121.876 272.103 119.02L271.197 121.88C280.177 124.724 289.306 127.866 295.435 130.109L296.465 127.291ZM271.65 121.95H288.45V118.95H271.65V121.95Z" fill="#282828"/>
</svg>
