<svg width="295" height="144" viewBox="0 0 295 144" fill="none" xmlns="http://www.w3.org/2000/svg">
<path d="M47.75 17.4C41.3 13.35 28.1 6.74999 20.15 2.69999L7.85 18.45C16.1 23.4 29 30.6 34.85 34.95L47.75 17.4ZM41.15 58.2C34.4 54.15 20.6 47.7 12.35 43.95L0.65 60.15C9.5 64.8 22.85 72 29 76.35L41.15 58.2ZM20.6 141.6C29.75 126.6 38.75 110.4 46.7 94.65L30.65 80.1C21.5 97.65 10.1 115.8 2.15 126.9L20.6 141.6ZM114.95 117.45H74.6V100.65H114.95V117.45ZM141.95 65.1V44.25H105.35V26.7C116.6 24.3 127.25 21.3 136.7 17.55L120.2 0.449992C103.55 7.49999 76.55 12.6 51.35 15C53.75 19.8 56.6 28.35 57.5 33.6C66.35 32.85 75.5 31.8 84.65 30.45V44.25H46.25V65.1H84.65V81H54.8V143.1H74.6V137.1H114.95V142.5H135.65V81H105.35V65.1H141.95ZM260.75 118.05V92.1H286.4V71.85H260.75V50.85H289.55V30.3H260.75V1.79999H239V30.3H230.6C231.8 24 232.7 17.4 233.45 10.8L212.3 7.65C211.25 19.2 209.3 30.9 206.45 41.1C204.5 36 202.1 30.6 199.7 25.95L191.3 29.55V0.749997H169.4V31.5L157.4 29.85C156.35 42.45 153.8 59.4 150.35 69.6L166.25 75.3C167.45 71.1 168.5 66.15 169.4 60.9V143.25H191.3V47.85C192.35 51.3 193.25 54.3 193.7 56.85L202.4 52.95C201.2 55.65 200 58.05 198.65 60.3C203.9 62.4 213.65 67.2 218 70.2C220.85 64.8 223.4 58.2 225.65 50.85H239V71.85H211.4V92.1H239V118.05H200.15V138.75H294.8V118.05H260.75Z" fill="white"/>
<path d="M47.75 17.4L48.9586 18.2884L49.9145 16.9879L48.5477 16.1297L47.75 17.4ZM20.15 2.69999L20.8309 1.36343L19.729 0.802071L18.9678 1.77674L20.15 2.69999ZM7.85 18.45L6.66779 17.5267L5.6238 18.8636L7.07826 19.7362L7.85 18.45ZM34.85 34.95L33.9549 36.1537L35.1653 37.0537L36.0586 35.8384L34.85 34.95ZM41.15 58.2L42.3965 59.0344L43.2733 57.7247L41.9217 56.9138L41.15 58.2ZM12.35 43.95L12.9707 42.5844L11.8529 42.0763L11.134 43.0718L12.35 43.95ZM0.65 60.15L-0.566019 59.2718L-1.57844 60.6736L-0.0476913 61.4779L0.65 60.15ZM29 76.35L28.1338 77.5746L29.3903 78.4634L30.2465 77.1844L29 76.35ZM20.6 141.6L19.6653 142.773L20.9951 143.833L21.8806 142.381L20.6 141.6ZM46.7 94.65L48.0391 95.3259L48.5539 94.306L47.7075 93.5387L46.7 94.65ZM30.65 80.1L31.6575 78.9887L30.2181 77.6838L29.3199 79.4065L30.65 80.1ZM2.15 126.9L0.930514 126.027L0.100734 127.185L1.21529 128.073L2.15 126.9ZM114.95 117.45V118.95H116.45V117.45H114.95ZM74.6 117.45H73.1V118.95H74.6V117.45ZM74.6 100.65V99.15H73.1V100.65H74.6ZM114.95 100.65H116.45V99.15H114.95V100.65ZM141.95 65.1V66.6H143.45V65.1H141.95ZM141.95 44.25H143.45V42.75H141.95V44.25ZM105.35 44.25H103.85V45.75H105.35V44.25ZM105.35 26.7L105.037 25.233L103.85 25.4862V26.7H105.35ZM136.7 17.55L137.253 18.9442L139.333 18.1188L137.779 16.5084L136.7 17.55ZM120.2 0.449993L121.279 -0.59156L120.564 -1.33304L119.615 -0.931286L120.2 0.449993ZM51.35 15L51.2078 13.5067L49.03 13.7142L50.0084 15.6708L51.35 15ZM57.5 33.6L56.0216 33.8534L56.2543 35.2109L57.6267 35.0946L57.5 33.6ZM84.65 30.45H86.15V28.7124L84.4311 28.9661L84.65 30.45ZM84.65 44.25V45.75H86.15V44.25H84.65ZM46.25 44.25V42.75H44.75V44.25H46.25ZM46.25 65.1H44.75V66.6H46.25V65.1ZM84.65 65.1H86.15V63.6H84.65V65.1ZM84.65 81V82.5H86.15V81H84.65ZM54.8 81V79.5H53.3V81H54.8ZM54.8 143.1H53.3V144.6H54.8V143.1ZM74.6 143.1V144.6H76.1V143.1H74.6ZM74.6 137.1V135.6H73.1V137.1H74.6ZM114.95 137.1H116.45V135.6H114.95V137.1ZM114.95 142.5H113.45V144H114.95V142.5ZM135.65 142.5V144H137.15V142.5H135.65ZM135.65 81H137.15V79.5H135.65V81ZM105.35 81H103.85V82.5H105.35V81ZM105.35 65.1V63.6H103.85V65.1H105.35ZM48.5477 16.1297C42.0237 12.0332 28.7346 5.38987 20.8309 1.36343L19.4691 4.03655C27.4654 8.11011 40.5763 14.6668 46.9524 18.6703L48.5477 16.1297ZM18.9678 1.77674L6.66779 17.5267L9.03221 19.3732L21.3322 3.62324L18.9678 1.77674ZM7.07826 19.7362C15.4287 24.7465 28.1841 31.8626 33.9549 36.1537L35.7451 33.7463C29.8159 29.3374 16.7713 22.0535 8.62174 17.1638L7.07826 19.7362ZM36.0586 35.8384L48.9586 18.2884L46.5414 16.5116L33.6414 34.0616L36.0586 35.8384ZM41.9217 56.9138C35.084 52.8111 21.2 46.325 12.9707 42.5844L11.7293 45.3155C20 49.0749 33.716 55.4889 40.3783 59.4862L41.9217 56.9138ZM11.134 43.0718L-0.566019 59.2718L1.86602 61.0282L13.566 44.8282L11.134 43.0718ZM-0.0476913 61.4779C8.83168 66.1433 22.0821 73.2942 28.1338 77.5746L29.8662 75.1254C23.6179 70.7058 10.1683 63.4567 1.34769 58.8221L-0.0476913 61.4779ZM30.2465 77.1844L42.3965 59.0344L39.9035 57.3656L27.7535 75.5156L30.2465 77.1844ZM21.8806 142.381C31.0518 127.346 40.0713 111.111 48.0391 95.3259L45.3609 93.9741C37.4287 109.689 28.4482 125.854 19.3194 140.819L21.8806 142.381ZM47.7075 93.5387L31.6575 78.9887L29.6425 81.2113L45.6925 95.7613L47.7075 93.5387ZM29.3199 79.4065C20.2023 96.8943 8.83926 114.984 0.930514 126.027L3.36949 127.773C11.3607 116.616 22.7977 98.4057 31.9801 80.7935L29.3199 79.4065ZM1.21529 128.073L19.6653 142.773L21.5347 140.427L3.08471 125.727L1.21529 128.073ZM114.95 115.95H74.6V118.95H114.95V115.95ZM76.1 117.45V100.65H73.1V117.45H76.1ZM74.6 102.15H114.95V99.15H74.6V102.15ZM113.45 100.65V117.45H116.45V100.65H113.45ZM143.45 65.1V44.25H140.45V65.1H143.45ZM141.95 42.75H105.35V45.75H141.95V42.75ZM106.85 44.25V26.7H103.85V44.25H106.85ZM105.663 28.167C116.969 25.7551 127.704 22.7336 137.253 18.9442L136.147 16.1558C126.796 19.8663 116.231 22.8449 105.037 25.233L105.663 28.167ZM137.779 16.5084L121.279 -0.59156L119.121 1.49155L135.621 18.5915L137.779 16.5084ZM119.615 -0.931286C103.178 6.02842 76.3606 11.1112 51.2078 13.5067L51.4922 16.4932C76.7393 14.0887 103.922 8.97157 120.785 1.83127L119.615 -0.931286ZM50.0084 15.6708C52.3456 20.3453 55.1476 28.7552 56.0216 33.8534L58.9784 33.3465C58.0524 27.9448 55.1544 19.2547 52.6916 14.3292L50.0084 15.6708ZM57.6267 35.0946C66.5069 34.3421 75.6877 33.2886 84.8689 31.9339L84.4311 28.9661C75.3123 30.3114 66.1931 31.3579 57.3733 32.1054L57.6267 35.0946ZM83.15 30.45V44.25H86.15V30.45H83.15ZM84.65 42.75H46.25V45.75H84.65V42.75ZM44.75 44.25V65.1H47.75V44.25H44.75ZM46.25 66.6H84.65V63.6H46.25V66.6ZM83.15 65.1V81H86.15V65.1H83.15ZM84.65 79.5H54.8V82.5H84.65V79.5ZM53.3 81V143.1H56.3V81H53.3ZM54.8 144.6H74.6V141.6H54.8V144.6ZM76.1 143.1V137.1H73.1V143.1H76.1ZM74.6 138.6H114.95V135.6H74.6V138.6ZM113.45 137.1V142.5H116.45V137.1H113.45ZM114.95 144H135.65V141H114.95V144ZM137.15 142.5V81H134.15V142.5H137.15ZM135.65 79.5H105.35V82.5H135.65V79.5ZM106.85 81V65.1H103.85V81H106.85ZM105.35 66.6H141.95V63.6H105.35V66.6ZM260.75 118.05H259.25V119.55H260.75V118.05ZM260.75 92.1V90.6H259.25V92.1H260.75ZM286.4 92.1V93.6H287.9V92.1H286.4ZM286.4 71.85H287.9V70.35H286.4V71.85ZM260.75 71.85H259.25V73.35H260.75V71.85ZM260.75 50.85V49.35H259.25V50.85H260.75ZM289.55 50.85V52.35H291.05V50.85H289.55ZM289.55 30.3H291.05V28.8H289.55V30.3ZM260.75 30.3H259.25V31.8H260.75V30.3ZM260.75 1.79999H262.25V0.299992H260.75V1.79999ZM239 1.79999V0.299992H237.5V1.79999H239ZM239 30.3V31.8H240.5V30.3H239ZM230.6 30.3L229.126 30.0193L228.787 31.8H230.6V30.3ZM233.45 10.8L234.94 10.9694L235.104 9.52979L233.671 9.31636L233.45 10.8ZM212.3 7.65L212.521 6.16636L210.95 5.93238L210.806 7.51419L212.3 7.65ZM206.45 41.1L205.049 41.6357L206.672 45.8802L207.895 41.5037L206.45 41.1ZM199.7 25.95L201.033 25.262L200.393 24.0212L199.109 24.5713L199.7 25.95ZM191.3 29.55H189.8V31.8248L191.891 30.9287L191.3 29.55ZM191.3 0.749996H192.8V-0.750004H191.3V0.749996ZM169.4 0.749996V-0.750004H167.9V0.749996H169.4ZM169.4 31.5L169.196 32.986L170.9 33.2204V31.5H169.4ZM157.4 29.85L157.604 28.364L156.037 28.1484L155.905 29.7254L157.4 29.85ZM150.35 69.6L148.929 69.1194L148.457 70.5149L149.844 71.012L150.35 69.6ZM166.25 75.3L165.744 76.712L167.252 77.2527L167.692 75.7121L166.25 75.3ZM169.4 60.9H170.9L167.922 60.6466L169.4 60.9ZM169.4 143.25H167.9V144.75H169.4V143.25ZM191.3 143.25V144.75H192.8V143.25H191.3ZM191.3 47.85L192.735 47.4133L189.8 47.85H191.3ZM193.7 56.85L192.223 57.1107L192.557 59.0061L194.314 58.2188L193.7 56.85ZM202.4 52.95L203.771 53.5592L205.362 49.9783L201.786 51.5812L202.4 52.95ZM198.65 60.3L197.364 59.5283L196.458 61.0386L198.093 61.6927L198.65 60.3ZM218 70.2L217.148 71.4348L218.538 72.3935L219.327 70.9001L218 70.2ZM225.65 50.85V49.35H224.54L224.216 50.4109L225.65 50.85ZM239 50.85H240.5V49.35H239V50.85ZM239 71.85V73.35H240.5V71.85H239ZM211.4 71.85V70.35H209.9V71.85H211.4ZM211.4 92.1H209.9V93.6H211.4V92.1ZM239 92.1H240.5V90.6H239V92.1ZM239 118.05V119.55H240.5V118.05H239ZM200.15 118.05V116.55H198.65V118.05H200.15ZM200.15 138.75H198.65V140.25H200.15V138.75ZM294.8 138.75V140.25H296.3V138.75H294.8ZM294.8 118.05H296.3V116.55H294.8V118.05ZM262.25 118.05V92.1H259.25V118.05H262.25ZM260.75 93.6H286.4V90.6H260.75V93.6ZM287.9 92.1V71.85H284.9V92.1H287.9ZM286.4 70.35H260.75V73.35H286.4V70.35ZM262.25 71.85V50.85H259.25V71.85H262.25ZM260.75 52.35H289.55V49.35H260.75V52.35ZM291.05 50.85V30.3H288.05V50.85H291.05ZM289.55 28.8H260.75V31.8H289.55V28.8ZM262.25 30.3V1.79999H259.25V30.3H262.25ZM260.75 0.299992H239V3.29999H260.75V0.299992ZM237.5 1.79999V30.3H240.5V1.79999H237.5ZM239 28.8H230.6V31.8H239V28.8ZM232.074 30.5807C233.283 24.2298 234.188 17.5891 234.94 10.9694L231.96 10.6306C231.212 17.2109 230.317 23.7702 229.126 30.0193L232.074 30.5807ZM233.671 9.31636L212.521 6.16636L212.079 9.13363L233.229 12.2836L233.671 9.31636ZM210.806 7.51419C209.762 18.9958 207.826 30.6031 205.005 40.6963L207.895 41.5037C210.774 31.1969 212.738 19.4042 213.794 7.7858L210.806 7.51419ZM207.851 40.5643C205.883 35.416 203.46 29.9649 201.033 25.262L198.367 26.638C200.74 31.2351 203.117 36.584 205.049 41.6357L207.851 40.5643ZM199.109 24.5713L190.709 28.1713L191.891 30.9287L200.291 27.3287L199.109 24.5713ZM192.8 29.55V0.749996H189.8V29.55H192.8ZM191.3 -0.750004H169.4V2.25H191.3V-0.750004ZM167.9 0.749996V31.5H170.9V0.749996H167.9ZM169.604 30.014L157.604 28.364L157.196 31.336L169.196 32.986L169.604 30.014ZM155.905 29.7254C154.858 42.2895 152.32 59.0944 148.929 69.1194L151.771 70.0806C155.28 59.7056 157.842 42.6105 158.895 29.9746L155.905 29.7254ZM149.844 71.012L165.744 76.712L166.756 73.888L150.856 68.188L149.844 71.012ZM167.692 75.7121C168.912 71.4419 169.973 66.4347 170.878 61.1534L167.922 60.6466C167.027 65.8653 165.988 70.7581 164.808 74.8879L167.692 75.7121ZM167.9 60.9V143.25H170.9V60.9H167.9ZM169.4 144.75H191.3V141.75H169.4V144.75ZM192.8 143.25V47.85H189.8V143.25H192.8ZM189.865 48.2867C190.922 51.7604 191.792 54.6678 192.223 57.1107L195.177 56.5893C194.708 53.9322 193.778 50.8396 192.735 47.4133L189.865 48.2867ZM194.314 58.2188L203.014 54.3188L201.786 51.5812L193.086 55.4812L194.314 58.2188ZM201.029 52.3408C199.846 55.0038 198.673 57.3458 197.364 59.5283L199.936 61.0717C201.327 58.7542 202.554 56.2962 203.771 53.5592L201.029 52.3408ZM198.093 61.6927C203.29 63.7714 212.926 68.5231 217.148 71.4348L218.852 68.9652C214.374 65.8769 204.51 61.0286 199.207 58.9073L198.093 61.6927ZM219.327 70.9001C222.235 65.3895 224.817 58.6941 227.084 51.2891L224.216 50.4109C221.983 57.7059 219.465 64.2105 216.673 69.4999L219.327 70.9001ZM225.65 52.35H239V49.35H225.65V52.35ZM237.5 50.85V71.85H240.5V50.85H237.5ZM239 70.35H211.4V73.35H239V70.35ZM209.9 71.85V92.1H212.9V71.85H209.9ZM211.4 93.6H239V90.6H211.4V93.6ZM237.5 92.1V118.05H240.5V92.1H237.5ZM239 116.55H200.15V119.55H239V116.55ZM198.65 118.05V138.75H201.65V118.05H198.65ZM200.15 140.25H294.8V137.25H200.15V140.25ZM296.3 138.75V118.05H293.3V138.75H296.3ZM294.8 116.55H260.75V119.55H294.8V116.55Z" fill="#282828"/>
</svg>
