<svg width="452" height="144" viewBox="0 0 452 144" fill="none" xmlns="http://www.w3.org/2000/svg">
<path d="M30.45 1.04999C24 21.9 12.9 42.75 0.9 56.1C4.2 61.8 9.45 74.7 10.95 80.1C13.5 77.25 15.9 74.25 18.3 70.95V143.4H39V35.55C43.35 26.25 47.25 16.5 50.4 7.19999L30.45 1.04999ZM100.5 95.55H90.9V84.15H100.5V95.55ZM119.1 58.35V42.9H103.8V28.5H87.15V42.9H73.05V58.35H87.15V69.45H75.6V110.1H116.7V69.45H103.8V58.35H119.1ZM70.5 115.65V26.4H121.5V115.65H70.5ZM50.7 7.65V143.1H70.5V134.4H121.5V141.75H142.2V7.65H50.7ZM213.15 0.749997C212.4 27.75 216.3 91.8 156 125.25C163.35 130.2 170.4 137.25 174.3 143.1C202.95 125.4 218.7 100.65 227.25 76.05C236.4 100.5 253.2 126.9 284.7 142.05C287.85 135.9 294 128.4 300.75 123.15C248.85 100.05 239.4 47.1 237.15 25.8C237.9 16.2 238.2 7.65 238.35 0.749997H213.15ZM345.6 1.35C337.35 22.2 323.1 42.9 308.55 55.65C312.15 61.2 317.85 73.35 319.8 78.6C323.55 75 327.3 71.1 330.9 66.6V143.1H351.6V36.75C357 27.3 361.95 17.7 365.85 8.24999L345.6 1.35ZM403.95 121.5C396.9 121.5 396.15 120.15 396.15 110.85V61.5H448.05V40.65H396.15V3.74999H375.15V110.55C375.15 133.8 380.85 140.7 401.4 140.7H424.65C444.3 140.7 449.55 129.6 451.8 100.05C446.25 98.85 437.55 94.8 432.6 91.05C431.25 115.65 430.05 121.5 422.7 121.5H403.95Z" fill="white"/>
<path d="M30.45 1.04999L30.8919 -0.383442L29.4599 -0.82489L29.017 0.606693L30.45 1.04999ZM0.9 56.1L-0.215564 55.0972L-0.944378 55.908L-0.39814 56.8515L0.9 56.1ZM10.95 80.1L9.50472 80.5015L10.2389 83.1444L12.0679 81.1002L10.95 80.1ZM18.3 70.95H19.8V66.3372L17.0869 70.0677L18.3 70.95ZM18.3 143.4H16.8V144.9H18.3V143.4ZM39 143.4V144.9H40.5V143.4H39ZM39 35.55L37.6413 34.9145L37.5 35.2165V35.55H39ZM50.4 7.19999L51.8207 7.68121L52.3154 6.22079L50.8419 5.76656L50.4 7.19999ZM100.5 95.55V97.05H102V95.55H100.5ZM90.9 95.55H89.4V97.05H90.9V95.55ZM90.9 84.15V82.65H89.4V84.15H90.9ZM100.5 84.15H102V82.65H100.5V84.15ZM119.1 58.35V59.85H120.6V58.35H119.1ZM119.1 42.9H120.6V41.4H119.1V42.9ZM103.8 42.9H102.3V44.4H103.8V42.9ZM103.8 28.5H105.3V27H103.8V28.5ZM87.15 28.5V27H85.65V28.5H87.15ZM87.15 42.9V44.4H88.65V42.9H87.15ZM73.05 42.9V41.4H71.55V42.9H73.05ZM73.05 58.35H71.55V59.85H73.05V58.35ZM87.15 58.35H88.65V56.85H87.15V58.35ZM87.15 69.45V70.95H88.65V69.45H87.15ZM75.6 69.45V67.95H74.1V69.45H75.6ZM75.6 110.1H74.1V111.6H75.6V110.1ZM116.7 110.1V111.6H118.2V110.1H116.7ZM116.7 69.45H118.2V67.95H116.7V69.45ZM103.8 69.45H102.3V70.95H103.8V69.45ZM103.8 58.35V56.85H102.3V58.35H103.8ZM70.5 115.65H69V117.15H70.5V115.65ZM70.5 26.4V24.9H69V26.4H70.5ZM121.5 26.4H123V24.9H121.5V26.4ZM121.5 115.65V117.15H123V115.65H121.5ZM50.7 7.65V6.15H49.2V7.65H50.7ZM50.7 143.1H49.2V144.6H50.7V143.1ZM70.5 143.1V144.6H72V143.1H70.5ZM70.5 134.4V132.9H69V134.4H70.5ZM121.5 134.4H123V132.9H121.5V134.4ZM121.5 141.75H120V143.25H121.5V141.75ZM142.2 141.75V143.25H143.7V141.75H142.2ZM142.2 7.65H143.7V6.15H142.2V7.65ZM29.017 0.606693C22.6155 21.2998 11.6079 41.9437 -0.215564 55.0972L2.01556 57.1028C14.1921 43.5563 25.3845 22.5002 31.883 1.49329L29.017 0.606693ZM-0.39814 56.8515C2.83341 62.4333 8.03609 75.2144 9.50472 80.5015L12.3953 79.6985C10.8639 74.1856 5.56659 61.1667 2.19814 55.3484L-0.39814 56.8515ZM12.0679 81.1002C14.6556 78.208 17.0871 75.168 19.5131 71.8323L17.0869 70.0677C14.7129 73.332 12.3444 76.292 9.83214 79.0998L12.0679 81.1002ZM16.8 70.95V143.4H19.8V70.95H16.8ZM18.3 144.9H39V141.9H18.3V144.9ZM40.5 143.4V35.55H37.5V143.4H40.5ZM40.3587 36.1855C44.7324 26.8349 48.653 17.0334 51.8207 7.68121L48.9793 6.71878C45.847 15.9666 41.9676 25.665 37.6413 34.9145L40.3587 36.1855ZM50.8419 5.76656L30.8919 -0.383442L30.0081 2.48343L49.9581 8.63343L50.8419 5.76656ZM100.5 94.05H90.9V97.05H100.5V94.05ZM92.4 95.55V84.15H89.4V95.55H92.4ZM90.9 85.65H100.5V82.65H90.9V85.65ZM99 84.15V95.55H102V84.15H99ZM120.6 58.35V42.9H117.6V58.35H120.6ZM119.1 41.4H103.8V44.4H119.1V41.4ZM105.3 42.9V28.5H102.3V42.9H105.3ZM103.8 27H87.15V30H103.8V27ZM85.65 28.5V42.9H88.65V28.5H85.65ZM87.15 41.4H73.05V44.4H87.15V41.4ZM71.55 42.9V58.35H74.55V42.9H71.55ZM73.05 59.85H87.15V56.85H73.05V59.85ZM85.65 58.35V69.45H88.65V58.35H85.65ZM87.15 67.95H75.6V70.95H87.15V67.95ZM74.1 69.45V110.1H77.1V69.45H74.1ZM75.6 111.6H116.7V108.6H75.6V111.6ZM118.2 110.1V69.45H115.2V110.1H118.2ZM116.7 67.95H103.8V70.95H116.7V67.95ZM105.3 69.45V58.35H102.3V69.45H105.3ZM103.8 59.85H119.1V56.85H103.8V59.85ZM72 115.65V26.4H69V115.65H72ZM70.5 27.9H121.5V24.9H70.5V27.9ZM120 26.4V115.65H123V26.4H120ZM121.5 114.15H70.5V117.15H121.5V114.15ZM49.2 7.65V143.1H52.2V7.65H49.2ZM50.7 144.6H70.5V141.6H50.7V144.6ZM72 143.1V134.4H69V143.1H72ZM70.5 135.9H121.5V132.9H70.5V135.9ZM120 134.4V141.75H123V134.4H120ZM121.5 143.25H142.2V140.25H121.5V143.25ZM143.7 141.75V7.65H140.7V141.75H143.7ZM142.2 6.15H50.7V9.15H142.2V6.15ZM213.15 0.749996V-0.750004H211.691L211.651 0.708347L213.15 0.749996ZM156 125.25L155.272 123.938L153.131 125.126L155.162 126.494L156 125.25ZM174.3 143.1L173.052 143.932L173.856 145.138L175.088 144.376L174.3 143.1ZM227.25 76.05L228.655 75.5243L227.198 71.631L225.833 75.5575L227.25 76.05ZM284.7 142.05L284.05 143.402L285.368 144.036L286.035 142.734L284.7 142.05ZM300.75 123.15L301.671 124.334L303.647 122.797L301.36 121.78L300.75 123.15ZM237.15 25.8L235.655 25.6832L235.644 25.8205L235.658 25.9576L237.15 25.8ZM238.35 0.749996L239.85 0.782597L239.883 -0.750004H238.35V0.749996ZM211.651 0.708347C210.894 27.9411 214.699 90.9729 155.272 123.938L156.728 126.562C217.901 92.6271 213.906 27.5589 214.649 0.791649L211.651 0.708347ZM155.162 126.494C162.369 131.348 169.273 138.263 173.052 143.932L175.548 142.268C171.527 136.237 164.331 129.052 156.838 124.006L155.162 126.494ZM175.088 144.376C204.089 126.459 220.028 101.398 228.667 76.5424L225.833 75.5575C217.372 99.9022 201.811 124.341 173.512 141.824L175.088 144.376ZM225.845 76.5757C235.079 101.25 252.088 128.03 284.05 143.402L285.35 140.698C254.312 125.77 237.721 99.7498 228.655 75.5243L225.845 76.5757ZM286.035 142.734C289.078 136.792 295.081 129.459 301.671 124.334L299.829 121.966C292.919 127.341 286.622 135.008 283.365 141.366L286.035 142.734ZM301.36 121.78C250.263 99.0368 240.884 46.8739 238.642 25.6424L235.658 25.9576C237.916 47.3261 247.437 101.063 300.14 124.52L301.36 121.78ZM238.645 25.9168C239.398 16.2793 239.699 7.69926 239.85 0.782597L236.85 0.717396C236.701 7.60074 236.402 16.1207 235.655 25.6832L238.645 25.9168ZM238.35 -0.750004H213.15V2.25H238.35V-0.750004ZM345.6 1.35L346.084 -0.0698395L344.731 -0.530781L344.205 0.798107L345.6 1.35ZM308.55 55.65L307.561 54.5219L306.585 55.3773L307.292 56.4663L308.55 55.65ZM319.8 78.6L318.394 79.1223L319.19 81.2651L320.839 79.6821L319.8 78.6ZM330.9 66.6H332.4V62.3238L329.729 65.663L330.9 66.6ZM330.9 143.1H329.4V144.6H330.9V143.1ZM351.6 143.1V144.6H353.1V143.1H351.6ZM351.6 36.75L350.298 36.0058L350.1 36.3517V36.75H351.6ZM365.85 8.24999L367.237 8.82222L367.846 7.34543L366.334 6.83015L365.85 8.24999ZM396.15 61.5V60H394.65V61.5H396.15ZM448.05 61.5V63H449.55V61.5H448.05ZM448.05 40.65H449.55V39.15H448.05V40.65ZM396.15 40.65H394.65V42.15H396.15V40.65ZM396.15 3.74999H397.65V2.24999H396.15V3.74999ZM375.15 3.74999V2.24999H373.65V3.74999H375.15ZM451.8 100.05L453.296 100.164L453.395 98.8602L452.117 98.5839L451.8 100.05ZM432.6 91.05L433.506 89.8544L431.257 88.1506L431.102 90.9678L432.6 91.05ZM344.205 0.798107C336.032 21.4542 321.911 41.9475 307.561 54.5219L309.539 56.7781C324.289 43.8525 338.668 22.9458 346.995 1.90189L344.205 0.798107ZM307.292 56.4663C310.816 61.8994 316.47 73.9438 318.394 79.1223L321.206 78.0777C319.23 72.7562 313.484 60.5005 309.808 54.8337L307.292 56.4663ZM320.839 79.6821C324.619 76.0532 328.418 72.104 332.071 67.537L329.729 65.663C326.182 70.096 322.481 73.9468 318.761 77.5179L320.839 79.6821ZM329.4 66.6V143.1H332.4V66.6H329.4ZM330.9 144.6H351.6V141.6H330.9V144.6ZM353.1 143.1V36.75H350.1V143.1H353.1ZM352.902 37.4942C358.322 28.0106 363.304 18.3507 367.237 8.82222L364.463 7.67776C360.596 17.0493 355.678 26.5894 350.298 36.0058L352.902 37.4942ZM366.334 6.83015L346.084 -0.0698395L345.116 2.76984L365.366 9.66983L366.334 6.83015ZM403.95 120C402.203 120 400.996 119.912 400.129 119.691C399.317 119.483 398.907 119.184 398.628 118.792C398.307 118.342 398.035 117.594 397.866 116.25C397.698 114.919 397.65 113.174 397.65 110.85H394.65C394.65 113.176 394.696 115.088 394.889 116.625C395.081 118.15 395.437 119.483 396.185 120.533C396.974 121.641 398.073 122.261 399.385 122.597C400.642 122.919 402.172 123 403.95 123V120ZM397.65 110.85V61.5H394.65V110.85H397.65ZM396.15 63H448.05V60H396.15V63ZM449.55 61.5V40.65H446.55V61.5H449.55ZM448.05 39.15H396.15V42.15H448.05V39.15ZM397.65 40.65V3.74999H394.65V40.65H397.65ZM396.15 2.24999H375.15V5.24999H396.15V2.24999ZM373.65 3.74999V110.55H376.65V3.74999H373.65ZM373.65 110.55C373.65 122.178 375.046 130.236 379.433 135.323C383.884 140.485 391.05 142.2 401.4 142.2V139.2C391.2 139.2 385.241 137.465 381.705 133.364C378.104 129.189 376.65 122.171 376.65 110.55H373.65ZM401.4 142.2H424.65V139.2H401.4V142.2ZM424.65 142.2C429.693 142.2 433.938 141.489 437.489 139.868C441.066 138.235 443.852 135.717 446.021 132.252C450.291 125.432 452.172 114.916 453.296 100.164L450.304 99.9361C449.178 114.734 447.309 124.543 443.479 130.66C441.598 133.664 439.247 135.768 436.243 137.139C433.212 138.523 429.432 139.2 424.65 139.2V142.2ZM452.117 98.5839C446.794 97.433 438.293 93.481 433.506 89.8544L431.694 92.2456C436.807 96.119 445.706 100.267 451.483 101.516L452.117 98.5839ZM431.102 90.9678C430.424 103.335 429.788 110.737 428.466 115.061C427.814 117.192 427.054 118.365 426.221 119.03C425.414 119.675 424.342 120 422.7 120V123C424.733 123 426.567 122.594 428.094 121.373C429.596 120.173 430.598 118.346 431.334 115.939C432.787 111.188 433.426 103.365 434.098 91.1322L431.102 90.9678ZM422.7 120H403.95V123H422.7V120Z" fill="#282828"/>
</svg>
