<svg width="298" height="145" viewBox="0 0 298 145" fill="none" xmlns="http://www.w3.org/2000/svg">
<path d="M39.85 106.35H30.25V72.75H39.85V106.35ZM59.65 26.85V7.19999H3.85V26.85H18.25C14.65 44.7 9.1 61.35 0.4 72.75C3.25 79.2 6.85 93.45 7.45 99.3C9.1 97.35 10.75 95.25 12.4 93V136.05H30.25V125.4H58.3V53.7H31.3C34.15 45 36.55 35.85 38.5 26.85H59.65ZM95.95 61.5V28.05H108.55V61.5H95.95ZM144.25 61.5H129.25V28.05H141.25V7.8H66.25V28.05H75.55V61.5H62.5V82.05H75.1C73.9 99.45 70.15 119.25 58.6 132C63.4 134.7 71.35 140.85 74.95 144.6C89.8 128.85 94.3 104.1 95.5 82.05H108.55V143.25H129.25V82.05H144.25V61.5ZM289 1.79999H269.35V60.15C269.35 61.95 268.6 62.55 266.5 62.55C264.4 62.7 257.05 62.7 251.2 62.4C253.6 67.05 256.45 74.25 257.35 79.35C267.7 79.35 275.35 79.2 281.35 76.5C287.35 73.8 289 69.45 289 60.6V1.79999ZM259 8.09999H239.65V58.05H259V8.09999ZM270.25 98.4C265.6 101.7 260.05 105.15 254.8 108C251.35 105.15 248.35 102 245.95 98.4H270.25ZM172 27.45C172.9 26.25 173.8 24.9 174.7 23.4H187.15V27.45H172ZM280 98.4H294.25V81.45H240.55C239.05 77.25 236.95 72.6 234.85 69L229.6 70.5C230.95 68.55 231.4 65.85 231.4 61.8V45.45H205.6V41.7H232.6V27.45H205.6V23.4H229.3V9.9H205.6V0.749997H187.15V9.9H181.6C182.35 8.24999 182.95 6.45 183.55 4.79999L167.8 0.899995C165.4 8.4 161.2 16.35 156.25 21.75C158.8 23.1 163 25.35 166.3 27.45H157.6V41.7H187.15V45.45H162.55V75.9H178.75V58.2H187.15V79.05H205.6V58.2H214.15V61.95C214.15 63.15 213.7 63.45 212.5 63.45C211.45 63.45 208.15 63.45 205.6 63.3C207.25 66.6 209.65 71.4 210.55 75.45H214.75C215.65 77.25 216.4 79.35 217.15 81.45H157.75V98.4H195.7C184 102.75 169.75 105.75 155.2 107.4C159.1 111.3 164.2 118.35 166.6 122.85C173.8 121.65 181 120.15 187.75 118.2C186.85 124.5 183.55 127.95 181 129.9C183.1 132.45 185.95 138.3 187.15 142.5L187.3 144.6C190.6 142.35 196 141 229.75 133.5C229.75 129.6 230.5 122.1 231.25 117.15L207.4 122.1V110.85C214.3 107.7 220.6 103.95 226 99.6C237.25 122.55 254.95 135.75 285.7 141.45C288.25 136.35 293.35 128.4 297.4 124.35C287.05 123 278.2 120.75 270.7 117.6C277.3 114.3 284.2 110.4 290.5 106.2L280 98.4Z" fill="white"/>
<path d="M39.85 106.35V107.85H41.35V106.35H39.85ZM30.25 106.35H28.75V107.85H30.25V106.35ZM30.25 72.75V71.25H28.75V72.75H30.25ZM39.85 72.75H41.35V71.25H39.85V72.75ZM59.65 26.85V28.35H61.15V26.85H59.65ZM59.65 7.19999H61.15V5.69999H59.65V7.19999ZM3.85 7.19999V5.69999H2.35V7.19999H3.85ZM3.85 26.85H2.35V28.35H3.85V26.85ZM18.25 26.85L19.7204 27.1465L20.0827 25.35H18.25V26.85ZM0.4 72.75L-0.792427 71.84L-1.33048 72.545L-0.97203 73.3562L0.4 72.75ZM7.45 99.3L5.95783 99.453L6.31757 102.961L8.59508 100.269L7.45 99.3ZM12.4 93H13.9V88.418L11.1904 92.1129L12.4 93ZM12.4 136.05H10.9V137.55H12.4V136.05ZM30.25 136.05V137.55H31.75V136.05H30.25ZM30.25 125.4V123.9H28.75V125.4H30.25ZM58.3 125.4V126.9H59.8V125.4H58.3ZM58.3 53.7H59.8V52.2H58.3V53.7ZM31.3 53.7L29.8745 53.233L29.2302 55.2H31.3V53.7ZM38.5 26.85V25.35H37.2902L37.034 26.5324L38.5 26.85ZM95.95 61.5H94.45V63H95.95V61.5ZM95.95 28.05V26.55H94.45V28.05H95.95ZM108.55 28.05H110.05V26.55H108.55V28.05ZM108.55 61.5V63H110.05V61.5H108.55ZM144.25 61.5H145.75V60H144.25V61.5ZM129.25 61.5H127.75V63H129.25V61.5ZM129.25 28.05V26.55H127.75V28.05H129.25ZM141.25 28.05V29.55H142.75V28.05H141.25ZM141.25 7.8H142.75V6.3H141.25V7.8ZM66.25 7.8V6.3H64.75V7.8H66.25ZM66.25 28.05H64.75V29.55H66.25V28.05ZM75.55 28.05H77.05V26.55H75.55V28.05ZM75.55 61.5V63H77.05V61.5H75.55ZM62.5 61.5V60H61V61.5H62.5ZM62.5 82.05H61V83.55H62.5V82.05ZM75.1 82.05L76.5964 82.1532L76.707 80.55H75.1V82.05ZM58.6 132L57.4883 130.993L56.2265 132.386L57.8646 133.307L58.6 132ZM74.95 144.6L73.8679 145.639L74.9598 146.776L76.0414 145.629L74.95 144.6ZM95.5 82.05V80.55H94.0794L94.0022 81.9685L95.5 82.05ZM108.55 82.05H110.05V80.55H108.55V82.05ZM108.55 143.25H107.05V144.75H108.55V143.25ZM129.25 143.25V144.75H130.75V143.25H129.25ZM129.25 82.05V80.55H127.75V82.05H129.25ZM144.25 82.05V83.55H145.75V82.05H144.25ZM39.85 104.85H30.25V107.85H39.85V104.85ZM31.75 106.35V72.75H28.75V106.35H31.75ZM30.25 74.25H39.85V71.25H30.25V74.25ZM38.35 72.75V106.35H41.35V72.75H38.35ZM61.15 26.85V7.19999H58.15V26.85H61.15ZM59.65 5.69999H3.85V8.69999H59.65V5.69999ZM2.35 7.19999V26.85H5.35V7.19999H2.35ZM3.85 28.35H18.25V25.35H3.85V28.35ZM16.7796 26.5534C13.1932 44.336 7.69798 60.7146 -0.792427 71.84L1.59243 73.66C10.502 61.9854 16.1068 45.064 19.7204 27.1465L16.7796 26.5534ZM-0.97203 73.3562C0.402935 76.468 1.99131 81.5487 3.31738 86.6288C4.64388 91.7106 5.6699 96.6457 5.95783 99.453L8.94217 99.147C8.6301 96.1043 7.55612 90.9893 6.22012 85.8711C4.88369 80.7513 3.24707 75.482 1.77203 72.1438L-0.97203 73.3562ZM8.59508 100.269C10.2695 98.2901 11.9409 96.1625 13.6096 93.887L11.1904 92.1129C9.55909 94.3374 7.93053 96.4099 6.30492 98.3311L8.59508 100.269ZM10.9 93V136.05H13.9V93H10.9ZM12.4 137.55H30.25V134.55H12.4V137.55ZM31.75 136.05V125.4H28.75V136.05H31.75ZM30.25 126.9H58.3V123.9H30.25V126.9ZM59.8 125.4V53.7H56.8V125.4H59.8ZM58.3 52.2H31.3V55.2H58.3V52.2ZM32.7255 54.167C35.5941 45.41 38.007 36.2092 39.966 27.1676L37.034 26.5324C35.093 35.4908 32.7059 44.59 29.8745 53.233L32.7255 54.167ZM38.5 28.35H59.65V25.35H38.5V28.35ZM97.45 61.5V28.05H94.45V61.5H97.45ZM95.95 29.55H108.55V26.55H95.95V29.55ZM107.05 28.05V61.5H110.05V28.05H107.05ZM108.55 60H95.95V63H108.55V60ZM144.25 60H129.25V63H144.25V60ZM130.75 61.5V28.05H127.75V61.5H130.75ZM129.25 29.55H141.25V26.55H129.25V29.55ZM142.75 28.05V7.8H139.75V28.05H142.75ZM141.25 6.3H66.25V9.3H141.25V6.3ZM64.75 7.8V28.05H67.75V7.8H64.75ZM66.25 29.55H75.55V26.55H66.25V29.55ZM74.05 28.05V61.5H77.05V28.05H74.05ZM75.55 60H62.5V63H75.55V60ZM61 61.5V82.05H64V61.5H61ZM62.5 83.55H75.1V80.55H62.5V83.55ZM73.6036 81.9468C72.4063 99.3072 68.6717 118.648 57.4883 130.993L59.7117 133.007C71.6283 119.852 75.3937 99.5928 76.5964 82.1532L73.6036 81.9468ZM57.8646 133.307C62.5399 135.937 70.3724 141.998 73.8679 145.639L76.0321 143.561C72.3276 139.702 64.2601 133.463 59.3354 130.693L57.8646 133.307ZM76.0414 145.629C91.2863 129.46 95.7955 104.223 96.9978 82.1315L94.0022 81.9685C92.8045 103.977 88.3138 128.24 73.8586 143.571L76.0414 145.629ZM95.5 83.55H108.55V80.55H95.5V83.55ZM107.05 82.05V143.25H110.05V82.05H107.05ZM108.55 144.75H129.25V141.75H108.55V144.75ZM130.75 143.25V82.05H127.75V143.25H130.75ZM129.25 83.55H144.25V80.55H129.25V83.55ZM145.75 82.05V61.5H142.75V82.05H145.75ZM289 1.79999H290.5V0.299992H289V1.79999ZM269.35 1.79999V0.299992H267.85V1.79999H269.35ZM266.5 62.55V61.05H266.447L266.393 61.0538L266.5 62.55ZM251.2 62.4L251.277 60.902L248.67 60.7683L249.867 63.088L251.2 62.4ZM257.35 79.35L255.873 79.6107L256.092 80.85H257.35V79.35ZM281.35 76.5L280.734 75.1321V75.1321L281.35 76.5ZM259 8.09999H260.5V6.59999H259V8.09999ZM239.65 8.09999V6.59999H238.15V8.09999H239.65ZM239.65 58.05H238.15V59.55H239.65V58.05ZM259 58.05V59.55H260.5V58.05H259ZM270.25 98.4L271.118 99.6233L274.955 96.9H270.25V98.4ZM254.8 108L253.845 109.156L254.626 109.801L255.516 109.318L254.8 108ZM245.95 98.4V96.9H243.147L244.702 99.2321L245.95 98.4ZM172 27.45L170.8 26.55L169 28.95H172V27.45ZM174.7 23.4V21.9H173.851L173.414 22.6283L174.7 23.4ZM187.15 23.4H188.65V21.9H187.15V23.4ZM187.15 27.45V28.95H188.65V27.45H187.15ZM280 98.4V96.9H275.465L279.106 99.6041L280 98.4ZM294.25 98.4V99.9H295.75V98.4H294.25ZM294.25 81.45H295.75V79.95H294.25V81.45ZM240.55 81.45L239.137 81.9545L239.493 82.95H240.55V81.45ZM234.85 69L236.146 68.2442L235.558 67.2376L234.438 67.5577L234.85 69ZM229.6 70.5L228.367 69.6462L225.979 73.0945L230.012 71.9423L229.6 70.5ZM231.4 45.45H232.9V43.95H231.4V45.45ZM205.6 45.45H204.1V46.95H205.6V45.45ZM205.6 41.7V40.2H204.1V41.7H205.6ZM232.6 41.7V43.2H234.1V41.7H232.6ZM232.6 27.45H234.1V25.95H232.6V27.45ZM205.6 27.45H204.1V28.95H205.6V27.45ZM205.6 23.4V21.9H204.1V23.4H205.6ZM229.3 23.4V24.9H230.8V23.4H229.3ZM229.3 9.89999H230.8V8.39999H229.3V9.89999ZM205.6 9.89999H204.1V11.4H205.6V9.89999ZM205.6 0.749996H207.1V-0.750004H205.6V0.749996ZM187.15 0.749996V-0.750004H185.65V0.749996H187.15ZM187.15 9.89999V11.4H188.65V9.89999H187.15ZM181.6 9.89999L180.234 9.27929L179.27 11.4H181.6V9.89999ZM183.55 4.79999L184.96 5.3126L185.53 3.74491L183.911 3.34396L183.55 4.79999ZM167.8 0.899994L168.161 -0.55603L166.799 -0.8932L166.371 0.442833L167.8 0.899994ZM156.25 21.75L155.144 20.7364L153.833 22.1674L155.548 23.0757L156.25 21.75ZM166.3 27.45V28.95H171.451L167.105 26.1845L166.3 27.45ZM157.6 27.45V25.95H156.1V27.45H157.6ZM157.6 41.7H156.1V43.2H157.6V41.7ZM187.15 41.7H188.65V40.2H187.15V41.7ZM187.15 45.45V46.95H188.65V45.45H187.15ZM162.55 45.45V43.95H161.05V45.45H162.55ZM162.55 75.9H161.05V77.4H162.55V75.9ZM178.75 75.9V77.4H180.25V75.9H178.75ZM178.75 58.2V56.7H177.25V58.2H178.75ZM187.15 58.2H188.65V56.7H187.15V58.2ZM187.15 79.05H185.65V80.55H187.15V79.05ZM205.6 79.05V80.55H207.1V79.05H205.6ZM205.6 58.2V56.7H204.1V58.2H205.6ZM214.15 58.2H215.65V56.7H214.15V58.2ZM205.6 63.3L205.688 61.8026L203.098 61.6502L204.258 63.9708L205.6 63.3ZM210.55 75.45L209.086 75.7754L209.347 76.95H210.55V75.45ZM214.75 75.45L216.092 74.7792L215.677 73.95H214.75V75.45ZM217.15 81.45V82.95H219.279L218.563 80.9455L217.15 81.45ZM157.75 81.45V79.95H156.25V81.45H157.75ZM157.75 98.4H156.25V99.9H157.75V98.4ZM195.7 98.4L196.223 99.806L195.7 96.9V98.4ZM155.2 107.4L155.031 105.91L151.939 106.26L154.139 108.461L155.2 107.4ZM166.6 122.85L165.276 123.556L165.784 124.507L166.847 124.33L166.6 122.85ZM187.75 118.2L189.235 118.412L189.563 116.115L187.334 116.759L187.75 118.2ZM181 129.9L180.089 128.708L178.854 129.653L179.842 130.854L181 129.9ZM187.15 142.5L188.646 142.393L188.635 142.238L188.592 142.088L187.15 142.5ZM187.3 144.6L185.804 144.707L185.99 147.309L188.145 145.839L187.3 144.6ZM229.75 133.5L230.075 134.964L231.25 134.703V133.5H229.75ZM231.25 117.15L232.733 117.375L233.056 115.243L230.945 115.681L231.25 117.15ZM207.4 122.1H205.9V123.943L207.705 123.569L207.4 122.1ZM207.4 110.85L206.777 109.485L205.9 109.886V110.85H207.4ZM226 99.6L227.347 98.9398L226.521 97.2544L225.059 98.4319L226 99.6ZM285.7 141.45L285.427 142.925L286.537 143.131L287.042 142.121L285.7 141.45ZM297.4 124.35L298.461 125.411L300.615 123.257L297.594 122.863L297.4 124.35ZM270.7 117.6L270.029 116.258L267.109 117.719L270.119 118.983L270.7 117.6ZM290.5 106.2L291.332 107.448L293.105 106.266L291.395 104.996L290.5 106.2ZM289 0.299992H269.35V3.29999H289V0.299992ZM267.85 1.79999V60.15H270.85V1.79999H267.85ZM267.85 60.15C267.85 60.508 267.811 60.7078 267.777 60.81C267.762 60.8563 267.75 60.8746 267.748 60.8766C267.748 60.878 267.748 60.8772 267.749 60.8754C267.751 60.8736 267.752 60.8726 267.752 60.8727C267.752 60.8728 267.749 60.8753 267.742 60.8798C267.734 60.8844 267.722 60.8916 267.702 60.9004C267.663 60.9185 267.597 60.9428 267.494 60.9665C267.281 61.0158 266.964 61.05 266.5 61.05V64.05C267.602 64.05 268.789 63.9135 269.673 63.1773C270.637 62.3737 270.85 61.2071 270.85 60.15H267.85ZM266.393 61.0538C264.383 61.1974 257.103 61.2008 251.277 60.902L251.123 63.898C256.997 64.1992 264.417 64.2026 266.607 64.0462L266.393 61.0538ZM249.867 63.088C252.23 67.6654 255.009 74.7153 255.873 79.6107L258.827 79.0893C257.891 73.7847 254.97 66.4346 252.533 61.712L249.867 63.088ZM257.35 80.85C267.609 80.85 275.614 80.7262 281.966 77.8679L280.734 75.1321C275.086 77.6738 267.791 77.85 257.35 77.85V80.85ZM281.966 77.8679C285.227 76.4001 287.445 74.4059 288.788 71.4823C290.091 68.6458 290.5 65.0758 290.5 60.6H287.5C287.5 64.9742 287.084 68.0042 286.062 70.2302C285.08 72.3691 283.473 73.8999 280.734 75.1321L281.966 77.8679ZM290.5 60.6V1.79999H287.5V60.6H290.5ZM259 6.59999H239.65V9.59999H259V6.59999ZM238.15 8.09999V58.05H241.15V8.09999H238.15ZM239.65 59.55H259V56.55H239.65V59.55ZM260.5 58.05V8.09999H257.5V58.05H260.5ZM269.382 97.1767C264.783 100.441 259.284 103.859 254.084 106.682L255.516 109.318C260.816 106.441 266.417 102.959 271.118 99.6233L269.382 97.1767ZM255.755 106.844C252.394 104.067 249.501 101.023 247.198 97.5679L244.702 99.2321C247.199 102.977 250.306 106.233 253.845 109.156L255.755 106.844ZM245.95 99.9H270.25V96.9H245.95V99.9ZM173.2 28.35C174.135 27.1027 175.064 25.7089 175.986 24.1717L173.414 22.6283C172.536 24.0911 171.665 25.3973 170.8 26.55L173.2 28.35ZM174.7 24.9H187.15V21.9H174.7V24.9ZM185.65 23.4V27.45H188.65V23.4H185.65ZM187.15 25.95H172V28.95H187.15V25.95ZM280 99.9H294.25V96.9H280V99.9ZM295.75 98.4V81.45H292.75V98.4H295.75ZM294.25 79.95H240.55V82.95H294.25V79.95ZM241.963 80.9455C240.437 76.6733 238.3 71.9368 236.146 68.2442L233.554 69.7558C235.6 73.2632 237.663 77.8267 239.137 81.9545L241.963 80.9455ZM234.438 67.5577L229.188 69.0577L230.012 71.9423L235.262 70.4423L234.438 67.5577ZM230.833 71.3538C232.463 68.9995 232.9 65.8904 232.9 61.8H229.9C229.9 65.8096 229.437 68.1005 228.367 69.6462L230.833 71.3538ZM232.9 61.8V45.45H229.9V61.8H232.9ZM231.4 43.95H205.6V46.95H231.4V43.95ZM207.1 45.45V41.7H204.1V45.45H207.1ZM205.6 43.2H232.6V40.2H205.6V43.2ZM234.1 41.7V27.45H231.1V41.7H234.1ZM232.6 25.95H205.6V28.95H232.6V25.95ZM207.1 27.45V23.4H204.1V27.45H207.1ZM205.6 24.9H229.3V21.9H205.6V24.9ZM230.8 23.4V9.89999H227.8V23.4H230.8ZM229.3 8.39999H205.6V11.4H229.3V8.39999ZM207.1 9.89999V0.749996H204.1V9.89999H207.1ZM205.6 -0.750004H187.15V2.25H205.6V-0.750004ZM185.65 0.749996V9.89999H188.65V0.749996H185.65ZM187.15 8.39999H181.6V11.4H187.15V8.39999ZM182.966 10.5207C183.747 8.80042 184.379 6.9084 184.96 5.3126L182.14 4.28738C181.521 5.99159 180.953 7.69956 180.234 9.27929L182.966 10.5207ZM183.911 3.34396L168.161 -0.55603L167.439 2.35602L183.189 6.25602L183.911 3.34396ZM166.371 0.442833C164.021 7.78855 159.915 15.5324 155.144 20.7364L157.356 22.7636C162.485 17.1675 166.779 9.01144 169.229 1.35716L166.371 0.442833ZM155.548 23.0757C158.102 24.4276 162.252 26.6519 165.495 28.7155L167.105 26.1845C163.748 24.0481 159.498 21.7724 156.952 20.4243L155.548 23.0757ZM166.3 25.95H157.6V28.95H166.3V25.95ZM156.1 27.45V41.7H159.1V27.45H156.1ZM157.6 43.2H187.15V40.2H157.6V43.2ZM185.65 41.7V45.45H188.65V41.7H185.65ZM187.15 43.95H162.55V46.95H187.15V43.95ZM161.05 45.45V75.9H164.05V45.45H161.05ZM162.55 77.4H178.75V74.4H162.55V77.4ZM180.25 75.9V58.2H177.25V75.9H180.25ZM178.75 59.7H187.15V56.7H178.75V59.7ZM185.65 58.2V79.05H188.65V58.2H185.65ZM187.15 80.55H205.6V77.55H187.15V80.55ZM207.1 79.05V58.2H204.1V79.05H207.1ZM205.6 59.7H214.15V56.7H205.6V59.7ZM212.65 58.2V61.95H215.65V58.2H212.65ZM212.65 61.95C212.65 62.0547 212.645 62.1299 212.639 62.1817C212.633 62.2336 212.626 62.2521 212.628 62.2471C212.63 62.2407 212.641 62.2067 212.671 62.1587C212.702 62.1087 212.745 62.0569 212.799 62.0111C212.907 61.918 212.988 61.9091 212.939 61.9201C212.914 61.9255 212.868 61.9336 212.791 61.9399C212.716 61.9462 212.62 61.95 212.5 61.95V64.95C213.117 64.95 214.038 64.9001 214.751 64.2889C215.533 63.6185 215.65 62.6596 215.65 61.95H212.65ZM212.5 61.95C211.443 61.95 208.187 61.9496 205.688 61.8026L205.512 64.7974C208.113 64.9504 211.457 64.95 212.5 64.95V61.95ZM204.258 63.9708C205.932 67.3174 208.234 71.9418 209.086 75.7754L212.014 75.1246C211.066 70.8582 208.568 65.8826 206.942 62.6292L204.258 63.9708ZM210.55 76.95H214.75V73.95H210.55V76.95ZM213.408 76.1208C214.26 77.8243 214.98 79.8337 215.737 81.9545L218.563 80.9455C217.82 78.8663 217.04 76.6757 216.092 74.7792L213.408 76.1208ZM217.15 79.95H157.75V82.95H217.15V79.95ZM156.25 81.45V98.4H159.25V81.45H156.25ZM157.75 99.9H195.7V96.9H157.75V99.9ZM195.177 96.994C183.624 101.29 169.5 104.269 155.031 105.91L155.369 108.89C170 107.231 184.376 104.21 196.223 99.806L195.177 96.994ZM154.139 108.461C157.928 112.249 162.941 119.178 165.276 123.556L167.924 122.144C165.459 117.522 160.272 110.351 156.261 106.339L154.139 108.461ZM166.847 124.33C174.083 123.123 181.344 121.612 188.166 119.641L187.334 116.759C180.656 118.688 173.517 120.177 166.353 121.37L166.847 124.33ZM186.265 117.988C185.437 123.788 182.429 126.919 180.089 128.708L181.911 131.092C184.671 128.981 188.263 125.212 189.235 118.412L186.265 117.988ZM179.842 130.854C180.781 131.994 181.958 133.971 183.064 136.239C184.163 138.49 185.138 140.919 185.708 142.912L188.592 142.088C187.962 139.881 186.913 137.285 185.761 134.924C184.617 132.579 183.319 130.356 182.158 128.946L179.842 130.854ZM185.654 142.607L185.804 144.707L188.796 144.493L188.646 142.393L185.654 142.607ZM188.145 145.839C189.56 144.874 191.508 144.025 197.484 142.47C203.433 140.923 213.189 138.717 230.075 134.964L229.425 132.036C212.561 135.783 202.742 138.002 196.729 139.567C190.742 141.125 188.34 142.076 186.455 143.361L188.145 145.839ZM231.25 133.5C231.25 129.708 231.988 122.292 232.733 117.375L229.767 116.925C229.012 121.908 228.25 129.492 228.25 133.5H231.25ZM230.945 115.681L207.095 120.631L207.705 123.569L231.555 118.619L230.945 115.681ZM208.9 122.1V110.85H205.9V122.1H208.9ZM208.023 112.215C215.016 109.022 221.427 105.21 226.941 100.768L225.059 98.4319C219.773 102.69 213.584 106.378 206.777 109.485L208.023 112.215ZM224.653 100.26C230.37 111.923 237.759 121.168 247.668 128.216C257.567 135.257 269.9 140.047 285.427 142.925L285.973 139.975C270.75 137.153 258.858 132.493 249.407 125.771C239.966 119.057 232.88 110.227 227.347 98.9398L224.653 100.26ZM287.042 142.121C289.553 137.097 294.568 129.303 298.461 125.411L296.339 123.289C292.132 127.497 286.947 135.603 284.358 140.779L287.042 142.121ZM297.594 122.863C287.344 121.526 278.63 119.304 271.281 116.217L270.119 118.983C277.77 122.196 286.756 124.474 297.206 125.837L297.594 122.863ZM271.371 118.942C278.016 115.619 284.972 111.688 291.332 107.448L289.668 104.952C283.428 109.112 276.584 112.981 270.029 116.258L271.371 118.942ZM291.395 104.996L280.895 97.1959L279.106 99.6041L289.606 107.404L291.395 104.996Z" fill="#282828"/>
</svg>
