<svg width="24" height="24" viewBox="0 0 24 24" fill="none" xmlns="http://www.w3.org/2000/svg">
<path d="M9.70479 13.2399C9.62943 13.2399 8.04855 13.2404 7.31943 13.2397C6.94407 13.2394 6.81015 13.1045 6.81015 12.7268C6.80967 11.7565 6.80943 10.7861 6.81015 9.81581C6.81039 9.44285 6.95199 9.30053 7.32255 9.30029C8.05167 9.29981 9.62391 9.30005 9.70479 9.30005C9.70479 9.23357 9.70455 7.83269 9.70479 7.18757C9.70527 6.23381 9.87543 5.32085 10.36 4.48493C10.8561 3.62933 11.578 3.04325 12.5032 2.70437C13.0957 2.48717 13.7109 2.40053 14.3397 2.40005C15.1264 2.39957 15.9131 2.40029 16.7001 2.40173C17.0382 2.40221 17.1882 2.55173 17.1889 2.89229C17.1904 3.80501 17.1904 4.71773 17.1889 5.63021C17.1885 5.97437 17.0447 6.11261 16.6989 6.11645C16.054 6.12341 15.4086 6.11909 14.7645 6.14501C14.1138 6.14501 13.7716 6.46277 13.7716 7.13621C13.756 7.84853 13.7651 8.56157 13.7651 9.29981C13.8261 9.29981 15.6777 9.29957 16.5431 9.29981C16.9362 9.29981 17.0706 9.43493 17.0706 9.83021C17.0706 10.7953 17.0704 11.7605 17.0697 12.7256C17.0694 13.1151 16.9432 13.2394 16.5477 13.2397C15.6822 13.2401 13.8378 13.2399 13.7572 13.2399V21.0507C13.7572 21.4671 13.6261 21.5998 13.2153 21.5998C12.2135 21.5998 11.2115 21.6001 10.2097 21.5998C9.84663 21.5998 9.70503 21.4587 9.70503 21.0956C9.70479 18.5518 9.70479 13.3292 9.70479 13.2399Z" fill="#3D6AD6"/>
</svg>
