<svg width="54" height="54" viewBox="0 0 54 54" fill="none" xmlns="http://www.w3.org/2000/svg">
<path d="M41.8264 0H12.1736C5.45032 0 0 5.45032 0 12.1736V41.8264C0 48.5497 5.45032 54 12.1736 54H41.8264C48.5497 54 54 48.5497 54 41.8264V12.1736C54 5.45032 48.5497 0 41.8264 0Z" fill="#06C755"/>
<path d="M44.9989 24.4552C44.9989 16.3991 36.9225 9.84485 26.995 9.84485C17.0674 9.84485 8.99103 16.3991 8.99103 24.4552C8.99103 31.6777 15.3968 37.7257 24.0486 38.8698C24.6342 38.9964 25.4323 39.2563 25.6348 39.7575C25.8171 40.2131 25.753 40.9252 25.6939 41.3859C25.6939 41.3859 25.483 42.6566 25.4374 42.9266C25.3581 43.3822 25.0763 44.7069 26.9967 43.8969C28.9187 43.0869 37.3647 37.7915 41.1413 33.4445C43.7502 30.5825 45.0006 27.68 45.0006 24.4552H44.9989Z" fill="white"/>
<path d="M39.0084 29.1076H33.9509C33.7603 29.1076 33.6067 28.9541 33.6067 28.7634V28.7583V20.9148V20.9064C33.6067 20.7157 33.7603 20.5621 33.9509 20.5621H39.0084C39.1974 20.5621 39.3526 20.7174 39.3526 20.9064V22.1838C39.3526 22.3745 39.1991 22.5281 39.0084 22.5281H35.5709V23.8544H39.0084C39.1974 23.8544 39.3526 24.0097 39.3526 24.1987V25.4761C39.3526 25.6668 39.1991 25.8204 39.0084 25.8204H35.5709V27.1468H39.0084C39.1974 27.1468 39.3526 27.302 39.3526 27.491V28.7684C39.3526 28.9591 39.1991 29.1127 39.0084 29.1127V29.1076Z" fill="#06C755"/>
<path d="M20.299 29.1076C20.488 29.1076 20.6433 28.954 20.6433 28.7634V27.4859C20.6433 27.2969 20.488 27.1417 20.299 27.1417H16.8616V20.9047C16.8616 20.7157 16.7063 20.5604 16.5173 20.5604H15.2399C15.0492 20.5604 14.8956 20.714 14.8956 20.9047V28.7566V28.7634C14.8956 28.954 15.0492 29.1076 15.2399 29.1076H20.2973H20.299Z" fill="#06C755"/>
<path d="M23.3433 20.5621H22.0676C21.8775 20.5621 21.7233 20.7163 21.7233 20.9064V28.7634C21.7233 28.9535 21.8775 29.1076 22.0676 29.1076H23.3433C23.5335 29.1076 23.6876 28.9535 23.6876 28.7634V20.9064C23.6876 20.7163 23.5335 20.5621 23.3433 20.5621Z" fill="#06C755"/>
<path d="M32.0356 20.5621H30.7581C30.5675 20.5621 30.4139 20.7157 30.4139 20.9064V25.5723L26.8195 20.7174C26.8111 20.7056 26.801 20.6938 26.7925 20.6819H26.7908C26.7841 20.6718 26.7773 20.6651 26.7706 20.6583L26.7638 20.6533C26.7638 20.6533 26.752 20.6431 26.7453 20.6381C26.7419 20.6364 26.7385 20.633 26.7351 20.6313C26.7301 20.6263 26.7233 20.6229 26.7166 20.6195C26.7132 20.6178 26.7098 20.6144 26.7065 20.6128C26.6997 20.6094 26.6946 20.606 26.6879 20.6026C26.6845 20.6009 26.6811 20.5993 26.6778 20.5976C26.671 20.5942 26.6643 20.5908 26.6575 20.5891L26.6457 20.5858C26.6457 20.5858 26.6322 20.5807 26.6255 20.579C26.6221 20.579 26.617 20.5773 26.6136 20.5756C26.6069 20.5756 26.6001 20.5723 26.5934 20.5706C26.5883 20.5706 26.5833 20.5706 26.5782 20.5689C26.5715 20.5689 26.5664 20.5672 26.5596 20.5672C26.5529 20.5672 26.5478 20.5672 26.5411 20.5672C26.5377 20.5672 26.5326 20.5672 26.5293 20.5672H25.2603C25.0713 20.5672 24.916 20.7208 24.916 20.9114V28.7684C24.916 28.9574 25.0696 29.1127 25.2603 29.1127H26.5377C26.7284 29.1127 26.882 28.9591 26.882 28.7684V24.1025L30.4814 28.9642C30.5067 28.9996 30.5371 29.0283 30.5708 29.0503L30.5742 29.0536C30.5742 29.0536 30.5877 29.0621 30.5961 29.0671C30.5995 29.0688 30.6029 29.0705 30.6063 29.0722C30.6113 29.0756 30.6181 29.0773 30.6231 29.0806C30.6282 29.084 30.635 29.0857 30.64 29.0874C30.6434 29.0874 30.6468 29.0908 30.6501 29.0908C30.6586 29.0941 30.6653 29.0958 30.6738 29.0975H30.6788C30.7075 29.1059 30.7379 29.111 30.7683 29.111H32.0373C32.2263 29.111 32.3815 28.9574 32.3815 28.7668V20.9098C32.3815 20.7208 32.228 20.5655 32.0373 20.5655L32.0356 20.5621Z" fill="#06C755"/>
</svg>
