<svg width="7" height="14" viewBox="0 0 7 14" fill="none" xmlns="http://www.w3.org/2000/svg">
<path d="M0.938348 1.30998C0.984069 1.30946 1.02933 1.31911 1.07084 1.33827C1.11236 1.35743 1.14908 1.38561 1.17834 1.42075L5.48602 6.66995C5.60253 6.80512 5.66663 6.97767 5.66663 7.15612C5.66663 7.33458 5.60253 7.50709 5.48602 7.64226L1.17834 12.8915C1.12474 12.9535 1.04904 12.992 0.9674 12.9989C0.88576 13.0058 0.804657 12.9805 0.74142 12.9284C0.710229 12.9029 0.684478 12.8713 0.66568 12.8357C0.646883 12.8 0.635431 12.761 0.631989 12.7208C0.628547 12.6807 0.633186 12.6402 0.645642 12.6019C0.658098 12.5635 0.678108 12.5281 0.704498 12.4976L5.01218 7.24841C5.03554 7.22335 5.04852 7.19038 5.04852 7.15612C5.04852 7.12186 5.03554 7.08886 5.01218 7.0638L0.704499 1.8146C0.652406 1.75137 0.6271 1.67024 0.633999 1.58861C0.640898 1.50697 0.679454 1.43127 0.741421 1.37767C0.798511 1.33534 0.867297 1.3117 0.938348 1.30998Z" fill="#1E1E1E" stroke="#1E1E1E" stroke-width="0.892"/>
</svg>
