<svg width="4" height="8" viewBox="0 0 4 8" fill="none" xmlns="http://www.w3.org/2000/svg">
<path d="M0.763124 0.585965C0.790557 0.585647 0.817711 0.591438 0.84262 0.602935C0.867529 0.614431 0.889562 0.631342 0.907118 0.652424L3.49173 3.80195C3.56164 3.88305 3.6001 3.98658 3.6001 4.09366C3.6001 4.20073 3.56164 4.30424 3.49173 4.38534L0.907118 7.53489C0.874959 7.57207 0.829539 7.59518 0.780555 7.59932C0.731571 7.60346 0.682909 7.5883 0.644967 7.55704C0.626253 7.54172 0.610802 7.52279 0.599523 7.5014C0.588244 7.48001 0.581373 7.45658 0.579308 7.43249C0.577243 7.40839 0.580026 7.38411 0.5875 7.36111C0.594974 7.33811 0.60698 7.31686 0.622814 7.29858L3.20743 4.14903C3.22145 4.13399 3.22923 4.11421 3.22923 4.09366C3.22923 4.0731 3.22145 4.0533 3.20743 4.03826L0.622815 0.888737C0.591558 0.850795 0.576375 0.802121 0.580514 0.753137C0.584654 0.704153 0.607787 0.658734 0.644967 0.626575C0.679222 0.601176 0.720493 0.586996 0.763124 0.585965Z" fill="#808080" stroke="#808080" stroke-width="0.5"/>
</svg>
