<svg width="17" height="17" viewBox="0 0 17 17" fill="none" xmlns="http://www.w3.org/2000/svg">
<path d="M14.5049 15.7523C14.6713 15.913 14.8942 16.002 15.1255 16C15.3569 15.998 15.5782 15.9052 15.7418 15.7416C15.9054 15.578 15.9982 15.3567 16.0002 15.1253C16.0022 14.894 15.9133 14.6711 15.7525 14.5047L14.5049 15.7523ZM5.82606 4.5782L5.20224 3.95438L3.95459 5.20202L4.57841 5.82585L5.82606 4.5782ZM15.7525 14.5047L5.82606 4.5782L4.57841 5.82585L14.5049 15.7523L15.7525 14.5047Z" fill="#333333"/>
<path d="M2.51702 1.26937C2.43562 1.1851 2.33826 1.11788 2.23061 1.07164C2.12296 1.02539 2.00718 1.00105 1.89002 1.00003C1.77286 0.999015 1.65667 1.02134 1.54824 1.06571C1.4398 1.11007 1.34128 1.17559 1.25844 1.25844C1.17559 1.34128 1.11007 1.4398 1.06571 1.54824C1.02134 1.65667 0.999015 1.77286 1.00003 1.89002C1.00105 2.00718 1.02539 2.12296 1.07164 2.23061C1.11788 2.33826 1.1851 2.43562 1.26937 2.51702L2.51702 1.26937ZM4.4079 3.16025L2.51702 1.26937L1.26937 2.51702L3.16025 4.4079L4.4079 3.16025Z" fill="#1E1E1E"/>
<path d="M1.82617 15.2847L15.2847 1.82614" stroke="#333333" stroke-width="2" stroke-linecap="round"/>
</svg>
