<svg width="14" height="15" viewBox="0 0 14 15" fill="none" xmlns="http://www.w3.org/2000/svg">
<path d="M12.6861 2.64858H8.91319C8.83752 2.18772 8.60482 1.76924 8.2564 1.46742C7.90797 1.16561 7.46638 1 7.01002 1C6.55365 1 6.11206 1.16561 5.76364 1.46742C5.41521 1.76924 5.18251 2.18772 5.10684 2.64858H1.33389C1.24534 2.64858 1.16041 2.6846 1.09779 2.74872C1.03518 2.81284 1 2.89981 1 2.99049C1.00171 3.08062 1.03744 3.16657 1.09969 3.23032C1.16194 3.29406 1.24587 3.33065 1.33389 3.3324H1.86811V12.2904C1.86981 12.7398 2.0435 13.1705 2.35189 13.4902C2.66029 13.8098 3.07879 13.9928 3.51753 14H10.4624C10.6817 14 10.8988 13.9558 11.1013 13.8699C11.3039 13.784 11.4879 13.658 11.6429 13.4993C11.7979 13.3405 11.9209 13.1521 12.0048 12.9447C12.0887 12.7373 12.1319 12.5149 12.1319 12.2904V3.3324H12.6661C12.7547 3.3324 12.8396 3.29638 12.9022 3.23226C12.9648 3.16813 13 3.08117 13 2.99049C13.0002 2.90325 12.9677 2.81926 12.9094 2.75569C12.851 2.69213 12.7712 2.65381 12.6861 2.64858ZM7.01002 1.69123C7.28914 1.69018 7.56081 1.78342 7.78294 1.95649C8.00508 2.12957 8.16528 2.37282 8.23873 2.64858H5.78798C5.86113 2.37395 6.02033 2.13153 6.24111 1.95857C6.4619 1.78561 6.73204 1.69168 7.01002 1.69123ZM11.4841 12.2904C11.4841 12.5625 11.3786 12.8234 11.1908 13.0157C11.0029 13.2081 10.7481 13.3162 10.4825 13.3162H3.51753C3.25241 13.3144 2.99865 13.2057 2.81118 13.0138C2.6237 12.8218 2.51761 12.5619 2.51586 12.2904V3.3324H11.4641L11.4841 12.2904Z" fill="#B4B4B4" stroke="#B4B4B4" stroke-width="0.3"/>
<path d="M7.01004 11.5999C6.92148 11.5999 6.83656 11.5639 6.77394 11.4998C6.71133 11.4357 6.67615 11.3487 6.67615 11.258V5.10363C6.67615 5.01295 6.71133 4.92598 6.77394 4.86186C6.83656 4.79774 6.92148 4.76172 7.01004 4.76172C7.09859 4.76172 7.18352 4.79774 7.24613 4.86186C7.30875 4.92598 7.34393 5.01295 7.34393 5.10363V11.258C7.34222 11.3481 7.30649 11.4341 7.24424 11.4978C7.18199 11.5616 7.09805 11.5982 7.01004 11.5999Z" fill="#B4B4B4" stroke="#B4B4B4" stroke-width="0.3"/>
<path d="M9.01333 11.5999C8.92478 11.5999 8.83985 11.5639 8.77724 11.4998C8.71462 11.4357 8.67944 11.3487 8.67944 11.258V5.10363C8.67944 5.01295 8.71462 4.92598 8.77724 4.86186C8.83985 4.79774 8.92478 4.76172 9.01333 4.76172C9.10189 4.76172 9.18681 4.79774 9.24943 4.86186C9.31205 4.92598 9.34722 5.01295 9.34722 5.10363V11.258C9.34551 11.3481 9.30979 11.4341 9.24754 11.4978C9.18529 11.5616 9.10135 11.5982 9.01333 11.5999Z" fill="#B4B4B4" stroke="#B4B4B4" stroke-width="0.3"/>
<path d="M5.00662 11.5999C4.91807 11.5999 4.83314 11.5639 4.77052 11.4998C4.70791 11.4357 4.67273 11.3487 4.67273 11.258V5.10363C4.67273 5.01295 4.70791 4.92598 4.77052 4.86186C4.83314 4.79774 4.91807 4.76172 5.00662 4.76172C5.09517 4.76172 5.1801 4.79774 5.24272 4.86186C5.30533 4.92598 5.34051 5.01295 5.34051 5.10363V11.258C5.3388 11.3481 5.30307 11.4341 5.24082 11.4978C5.17857 11.5616 5.09464 11.5982 5.00662 11.5999Z" fill="#B4B4B4" stroke="#B4B4B4" stroke-width="0.3"/>
</svg>
