<svg width="19" height="19" viewBox="0 0 19 19" fill="none" xmlns="http://www.w3.org/2000/svg">
<path fill-rule="evenodd" clip-rule="evenodd" d="M10.4048 1.2001C10.24 0.849121 9.88726 0.625 9.49954 0.625C9.11181 0.625 8.75904 0.849121 8.59429 1.2001L6.38751 5.90164L1.4735 6.65244C1.10299 6.70904 0.795249 6.96809 0.676264 7.32351C0.557279 7.67893 0.647033 8.07104 0.908781 8.33931L4.49383 12.0137L3.64556 17.214C3.58391 17.592 3.74352 17.9719 4.05658 18.1925C4.36963 18.413 4.78116 18.4354 5.11631 18.2502L9.49954 15.8272L13.8828 18.2502C14.2179 18.4354 14.6294 18.413 14.9425 18.1925C15.2556 17.9719 15.4152 17.592 15.3535 17.214L14.5052 12.0137L18.0903 8.33931C18.352 8.07104 18.4418 7.67893 18.3228 7.32351C18.2038 6.96809 17.8961 6.70904 17.5256 6.65244L12.6116 5.90164L10.4048 1.2001ZM7.97127 7.23448L9.49954 3.97851L11.0278 7.23448C11.1695 7.53636 11.4524 7.74774 11.782 7.79811L15.2997 8.33556L12.7213 10.9782C12.4996 11.2054 12.399 11.5243 12.4501 11.8376L13.0481 15.5035L9.98333 13.8094C9.68227 13.643 9.3168 13.643 9.01575 13.8094L5.951 15.5035L6.54899 11.8376C6.60009 11.5243 6.49944 11.2054 6.27779 10.9782L3.69937 8.33556L7.21706 7.79811C7.54672 7.74774 7.82957 7.53636 7.97127 7.23448Z" fill="black"/>
</svg>
