<svg width="28" height="17" viewBox="0 0 28 17" fill="none" xmlns="http://www.w3.org/2000/svg">
<path d="M27.4615 0H8.58106C8.28356 0 8.0426 0.23923 8.0426 0.534591C8.0426 0.972956 7.68519 1.32779 7.24365 1.32779C6.80212 1.32779 6.44471 0.972956 6.44471 0.534591C6.44538 0.23923 6.20442 0 5.90692 0H0.538462C0.240962 0 0 0.23923 0 0.534591V16.4654C0 16.7608 0.240962 17 0.538462 17H5.90692C6.20442 17 6.44538 16.7608 6.44538 16.4654C6.44538 16.027 6.80279 15.6722 7.24433 15.6722C7.68587 15.6722 8.04327 16.027 8.04327 16.4654C8.04327 16.7608 8.28423 17 8.58173 17H27.4615C27.759 17 28 16.7608 28 16.4654V0.534591C28 0.23923 27.759 0 27.4615 0ZM26.9231 15.9308H9.04077C8.74327 14.9458 7.69798 14.3865 6.70519 14.6819C6.10077 14.8616 5.62827 15.3314 5.44721 15.9308H1.07692V1.06918H5.44721C5.74471 2.05417 6.79 2.61348 7.78279 2.31812C8.38721 2.13836 8.85971 1.66859 9.04077 1.06918H26.9231V15.9308Z" fill="#1E1E1E"/>
<path d="M15.071 8.073C16.1419 8.073 17.0101 7.21164 17.0101 6.14914C17.0101 5.63861 16.8062 5.14879 16.4421 4.78727C15.7091 4.05956 14.4316 4.05956 13.6993 4.78727C12.9421 5.53837 12.9414 6.75657 13.6973 7.50834C14.0614 7.86986 14.5554 8.073 15.0703 8.073H15.071ZM14.4612 5.54305C14.7971 5.20893 15.3423 5.20826 15.6788 5.54171L15.6801 5.54305C16.0174 5.87717 16.0174 6.41978 15.6801 6.75457C15.3436 7.08935 14.7971 7.08935 14.4599 6.75457C14.1226 6.41978 14.1226 5.87784 14.4599 5.54305H14.4612Z" fill="#1E1E1E"/>
<path d="M21.1784 9.49033C20.4461 8.76262 19.1686 8.76262 18.4356 9.49033C17.6784 10.2421 17.6784 11.4616 18.4356 12.2134C19.1928 12.9652 20.4212 12.9652 21.1784 12.2134C21.9356 11.4616 21.9356 10.2428 21.1784 9.491V9.49033ZM20.4171 11.457C20.0759 11.7804 19.5388 11.7804 19.1975 11.457C18.861 11.1228 18.8603 10.5802 19.1975 10.2461C19.5347 9.91199 20.0806 9.91132 20.4171 10.2461C20.7537 10.5802 20.7543 11.1228 20.4171 11.457Z" fill="#1E1E1E"/>
<path d="M13.6661 12.2461C13.8761 12.4546 14.2173 12.4553 14.4273 12.2461L21.2119 5.50962C21.4219 5.30113 21.4219 4.96233 21.2119 4.75384C21.0019 4.54535 20.6607 4.54535 20.4507 4.75384L13.6661 11.4897C13.4561 11.6982 13.4554 12.037 13.6661 12.2455V12.2461Z" fill="#1E1E1E"/>
<path d="M7.24452 3.55637C6.94702 3.55637 6.70605 3.7956 6.70605 4.09096V5.32386C6.70605 5.61922 6.94702 5.85845 7.24452 5.85845C7.54202 5.85845 7.78298 5.61922 7.78298 5.32386V4.09096C7.78298 3.7956 7.54202 3.55637 7.24452 3.55637Z" fill="#1E1E1E"/>
<path d="M7.24452 7.3493C6.94702 7.3493 6.70605 7.58853 6.70605 7.8839V9.1168C6.70605 9.41216 6.94702 9.65139 7.24452 9.65139C7.54202 9.65139 7.78298 9.41216 7.78298 9.1168V7.8839C7.78298 7.58853 7.54202 7.3493 7.24452 7.3493Z" fill="#1E1E1E"/>
<path d="M7.24452 11.1416C6.94702 11.1416 6.70605 11.3808 6.70605 11.6762V12.9097C6.70605 13.2051 6.94702 13.4443 7.24452 13.4443C7.54202 13.4443 7.78298 13.2051 7.78298 12.9097V11.6768C7.78298 11.3815 7.54202 11.1422 7.24452 11.1422V11.1416Z" fill="#1E1E1E"/>
</svg>
