<svg width="878" height="74" viewBox="0 0 878 74" fill="none" xmlns="http://www.w3.org/2000/svg">
<path d="M869.813 35.9031C872.737 32.367 874.508 27.8346 874.508 22.8769C874.508 11.5716 865.341 2.4 854.039 2.4H820.574H819.974V3V71V71.6H820.574H856.13C867.432 71.6 876.6 62.4284 876.6 51.1231C876.6 45.0762 873.968 39.6534 869.813 35.9031ZM832.678 15.1077H854.039C858.33 15.1077 861.805 18.5841 861.805 22.8769C861.805 27.1698 858.33 30.6462 854.039 30.6462H832.678V15.1077ZM856.13 58.8923H832.678V43.3538H856.13C860.421 43.3538 863.897 46.8302 863.897 51.1231C863.897 55.4159 860.421 58.8923 856.13 58.8923Z" stroke="black" stroke-width="1.2"/>
<path d="M739.005 58.8923H700.911V3V2.4H700.311H688.808H688.208V3V59.4923V71V71.6H688.808H700.311H739.005H739.605V71V59.4923V58.8923H739.005Z" stroke="black" stroke-width="1.2"/>
<path d="M780.362 2.742L779.821 1.60576L779.279 2.74159L746.829 70.7416L746.419 71.6H747.371H759.836H760.212L760.376 71.2614L779.807 31.1124L799.034 71.2592L799.197 71.6H799.575H812.208H813.159L812.75 70.742L780.362 2.742Z" stroke="black" stroke-width="1.2"/>
<path d="M642.01 16.1538H642.61V15.5538V4.04614V3.44614H642.01L593.904 3.44614H593.304V4.04614V15.5538V16.1538H593.904L642.01 16.1538Z" stroke="black" stroke-width="1.2"/>
<path d="M642.01 70.5539H642.61V69.9539V58.4462V57.8462H642.01H593.904H593.304V58.4462V69.9539V70.5539H593.904H642.01Z" stroke="black" stroke-width="1.2"/>
<path d="M642.01 43.3538H642.61V42.7538V31.2461V30.6461H642.01L593.904 30.6461H593.304V31.2461V42.7538V43.3538H593.904H642.01Z" stroke="black" stroke-width="1.2"/>
<path d="M493.065 3V2.4H492.465H442.268H441.668V3V14.5077V15.1077H442.268H461.015V71V71.6H461.615H473.118H473.718V71V15.1077H492.465H493.065V14.5077V3Z" stroke="black" stroke-width="1.2"/>
<path d="M512.934 3V2.4H512.334H500.831H500.231V3V71V71.6H500.831H512.334H512.934V71V3Z" stroke="black" stroke-width="1.2"/>
<path d="M339.31 2.742L338.769 1.60576L338.227 2.74159L305.777 70.7416L305.367 71.6H306.318H318.784H319.16L319.324 71.2614L338.755 31.1124L357.982 71.2592L358.145 71.6H358.523H371.156H372.106L371.698 70.742L339.31 2.742Z" stroke="black" stroke-width="1.2"/>
<path d="M552.609 71.2584L553.151 72.3942L553.692 71.258L586.08 3.258L586.488 2.4H585.538H572.905H572.527L572.364 2.74084L553.137 42.8876L533.706 2.73862L533.542 2.4H533.166H520.701H519.749L520.159 3.25841L552.609 71.2584Z" stroke="black" stroke-width="1.2"/>
<path d="M422.813 49.4847V50.2614C418.784 55.4999 412.456 58.8923 405.342 58.8923C393.204 58.8923 383.322 49.0726 383.322 37C383.322 24.9272 393.194 15.1077 405.342 15.1077C412.528 15.1077 418.901 18.5587 422.924 23.877L423.224 24.2737L423.669 24.0524L434.158 18.8426L434.767 18.5401L434.391 17.9734C428.167 8.59602 417.483 2.4 405.342 2.4C386.138 2.4 370.556 17.887 370.556 37C370.556 56.113 386.138 71.6 405.342 71.6C417.494 71.6 428.188 65.3934 434.402 56.005L434.777 55.4391L434.169 55.1367L423.68 49.9164L422.813 49.4847Z" stroke="black" stroke-width="1.2"/>
<path d="M277.469 58.4462V57.8462H276.869H265.366H264.766V58.4462V69.9539V70.5539H265.366H276.869H277.469V69.9539V58.4462Z" stroke="black" stroke-width="1.2"/>
<path d="M118.519 16.1538H119.119V15.5538V4.04614V3.44614H118.519L70.4141 3.44614H69.8141V4.04614V15.5538V16.1538H70.4141L118.519 16.1538Z" stroke="black" stroke-width="1.2"/>
<path d="M118.519 70.5539H119.119V69.9539V58.4462V57.8462H118.519H70.4141H69.8141V58.4462V69.9539V70.5539H70.4141H118.519Z" stroke="black" stroke-width="1.2"/>
<path d="M118.519 43.3538H119.119V42.7538V31.2461V30.6461H118.519L70.4141 30.6461H69.8141V31.2461V42.7538V43.3538H70.4141H118.519Z" stroke="black" stroke-width="1.2"/>
<path d="M2 2.4H1.4V3V71V71.6H2H13.5034H14.1034V71V45.4462H37.5561C49.4434 45.4462 59.0714 35.8142 59.0714 23.9231C59.0714 12.0319 49.4434 2.4 37.5561 2.4H2ZM37.5561 32.7385H14.1034V15.1077H37.5561C42.422 15.1077 46.368 19.0549 46.368 23.9231C46.368 28.7913 42.422 32.7385 37.5561 32.7385Z" stroke="black" stroke-width="1.2"/>
<path d="M132.376 2.4H131.776V3V71V71.6H132.376H143.879H144.479V71V45.4462H155.412L174.244 71.3528L174.424 71.6H174.729H188.324H189.503L188.81 70.6471L170.369 45.2879C181.1 44.0739 189.447 34.9875 189.447 23.9231C189.447 12.0319 179.819 2.4 167.932 2.4H132.376ZM167.932 32.7385H144.479V15.1077H167.932C172.798 15.1077 176.744 19.0549 176.744 23.9231C176.744 28.7913 172.798 32.7385 167.932 32.7385Z" stroke="black" stroke-width="1.2"/>
<path d="M254.03 15.1077H254.63V14.5077V3V2.4H254.03H219.52C208.218 2.4 199.05 11.5716 199.05 22.8769C199.05 34.1822 208.218 43.3538 219.52 43.3538H236.252C240.543 43.3538 244.018 46.8302 244.018 51.1231C244.018 55.4159 240.543 58.8923 236.252 58.8923H201.742H201.142V59.4923V71V71.6H201.742H236.252C247.554 71.6 256.721 62.4284 256.721 51.1231C256.721 39.8178 247.554 30.6462 236.252 30.6462H219.52C215.229 30.6462 211.753 27.1698 211.753 22.8769C211.753 18.5841 215.229 15.1077 219.52 15.1077H254.03Z" stroke="black" stroke-width="1.2"/>
</svg>
