<svg width="152" height="109" viewBox="0 0 152 109" fill="none" xmlns="http://www.w3.org/2000/svg">
<path d="M6.7789 104.025V79.6021H1.80774V104.025V109H6.7789H23.5001V104.025H6.7789Z" fill="white"/>
<path d="M41.7804 79.6021L27.7572 109H33.1441L41.7759 91.1579L50.3172 109H55.7765L41.7804 79.6021Z" fill="white"/>
<path d="M152 45.228V40.2529H131.212V45.228H152Z" fill="white"/>
<path d="M152 68.7471V63.772H131.212V68.7471H152Z" fill="white"/>
<path d="M152 56.9868V52.0117H131.212V56.9868H152Z" fill="white"/>
<path d="M82.1008 39.8008H60.4084V44.7759H68.769V69.1991H73.7402V44.7759H82.1008V39.8008Z" fill="white"/>
<path d="M94.0002 39.8008H89.0291V69.1991H94.0002V39.8008Z" fill="white"/>
<path d="M80.8672 93.8535C82.1913 92.3428 83.0003 90.3664 83.0003 88.1954C83.0003 83.451 79.1544 79.6021 74.4137 79.6021H59.9521V109H75.3176C80.0582 109 83.9041 105.151 83.9041 100.407C83.9041 97.7793 82.7201 95.4319 80.8672 93.8535ZM64.9233 84.5772H74.4137C76.4112 84.5772 78.0291 86.1963 78.0291 88.1954C78.0291 90.1945 76.4112 91.8137 74.4137 91.8137H64.9233V84.5772ZM75.3176 104.025H64.9233V96.7888H75.3176C77.3151 96.7888 78.9329 98.408 78.9329 100.407C78.9329 102.406 77.3151 104.025 75.3176 104.025Z" fill="white"/>
<path d="M14.0232 39.8008L0 69.1991H5.38693L14.0187 51.3566L22.56 69.1991H28.0193L14.0232 39.8008Z" fill="white"/>
<path d="M113.6 69.1991L99.5768 39.8008H104.964L113.595 57.6433L122.137 39.8008H127.596L113.6 69.1991Z" fill="white"/>
<path d="M50.7917 60.3208C49.0066 62.6863 46.1731 64.224 42.9825 64.224C37.5956 64.224 33.2074 59.864 33.2074 54.5C33.2074 49.1359 37.591 44.7759 42.9825 44.7759C46.1731 44.7759 49.0021 46.3091 50.7872 48.67L55.32 46.4177C52.6763 42.4331 48.1389 39.8008 42.9825 39.8008C34.8253 39.8008 28.2091 46.3815 28.2091 54.5C28.2091 62.6184 34.8253 69.1991 42.9825 69.1991C48.1435 69.1991 52.6853 66.5623 55.3245 62.5732L50.7917 60.3163V60.3208Z" fill="white"/>
<path d="M122.399 23.9712H117.428V28.9463H122.399V23.9712Z" fill="white"/>
<path d="M52.161 5.42726V0.452148L31.3725 0.452148V5.42726L52.161 5.42726Z" fill="white"/>
<path d="M52.161 28.9463V23.9712H31.3725V28.9463H52.161Z" fill="white"/>
<path d="M52.161 17.187V12.2119L31.3725 12.2119V17.187H52.161Z" fill="white"/>
<path d="M17.1731 0H1.80774V29.3984H6.7789V18.0913H17.1731C22.1669 18.0913 26.2116 14.0434 26.2116 9.04565C26.2116 4.04793 22.1669 0 17.1731 0ZM17.1731 13.1162H6.7789V4.97511H17.1731C19.4192 4.97511 21.2405 6.79781 21.2405 9.04565C21.2405 11.2935 19.4192 13.1162 17.1731 13.1162Z" fill="white"/>
<path d="M84.3605 9.04565C84.3605 4.04793 80.3158 0 75.3221 0H59.9567V29.3984H64.9278V18.0913H70.0436L78.2596 29.3984H84.1346L75.896 18.0642C80.6186 17.7657 84.3605 13.8489 84.3605 9.04565ZM75.3221 13.1162H64.9278V4.97511H75.3221C77.5681 4.97511 79.3894 6.79781 79.3894 9.04565C79.3894 11.2935 77.5681 13.1162 75.3221 13.1162Z" fill="white"/>
<path d="M97.6156 4.97511H112.529V0H97.6156C92.8749 0 89.0291 3.84892 89.0291 8.59337C89.0291 13.3378 92.8749 17.1867 97.6156 17.1867H104.846C106.844 17.1867 108.462 18.8059 108.462 20.805C108.462 22.8041 106.844 24.4233 104.846 24.4233H89.9329V29.3984H104.846C109.587 29.3984 113.433 25.5494 113.433 20.805C113.433 16.0606 109.587 12.2116 104.846 12.2116H97.6156C95.6181 12.2116 94.0002 10.5925 94.0002 8.59337C94.0002 6.59428 95.6181 4.97511 97.6156 4.97511Z" fill="white"/>
</svg>
