<svg width="80" height="58" viewBox="0 0 80 58" fill="none" xmlns="http://www.w3.org/2000/svg">
<path d="M3.56769 55.3527V42.3569H0.951286V58H12.3683V55.3527H3.56769Z" fill="#1E1E1E"/>
<path d="M21.99 42.3569L14.6094 58H17.4446L21.9876 48.5058L26.4831 58H29.3564L21.99 42.3569Z" fill="#1E1E1E"/>
<path d="M80 24.0662V21.4189H69.0587V24.0662H80Z" fill="#1E1E1E"/>
<path d="M80 36.5809V33.9336H69.0586V36.5809H80Z" fill="#1E1E1E"/>
<path d="M80 30.3232V27.6759H69.0586V30.3232H80Z" fill="#1E1E1E"/>
<path d="M43.211 21.1783H31.794V23.8256H36.1943V36.8214H38.8107V23.8256H43.211V21.1783Z" fill="#1E1E1E"/>
<path d="M49.4736 21.1783H46.8572V36.8214H49.4736V21.1783Z" fill="#1E1E1E"/>
<path d="M42.5618 49.9402C43.2587 49.1364 43.6844 48.0847 43.6844 46.9295C43.6844 44.4049 41.6603 42.3569 39.1652 42.3569H31.5539V58H39.6409C42.136 58 44.1602 55.952 44.1602 53.4274C44.1602 52.0291 43.537 50.7801 42.5618 49.9402ZM34.1703 45.0042H39.1652C40.2165 45.0042 41.068 45.8658 41.068 46.9295C41.068 47.9932 40.2165 48.8548 39.1652 48.8548H34.1703V45.0042ZM39.6409 55.3527H34.1703V51.5021H39.6409C40.6922 51.5021 41.5438 52.3637 41.5438 53.4274C41.5438 54.4911 40.6922 55.3527 39.6409 55.3527Z" fill="#1E1E1E"/>
<path d="M7.38063 21.1784L0 36.8215H2.83523L7.37825 27.3274L11.8737 36.8215H14.747L7.38063 21.1784Z" fill="#1E1E1E"/>
<path d="M59.7893 36.8214L52.4086 21.1783H55.2439L59.7869 30.6725L64.2823 21.1783H67.1556L59.7893 36.8214Z" fill="#1E1E1E"/>
<path d="M26.7322 32.0972C25.7927 33.3559 24.3013 34.1741 22.6221 34.1741C19.7869 34.1741 17.4773 31.8541 17.4773 28.9999C17.4773 26.1456 19.7845 23.8256 22.6221 23.8256C24.3013 23.8256 25.7903 24.6415 26.7298 25.8977L29.1155 24.6992C27.7241 22.579 25.336 21.1783 22.6221 21.1783C18.3288 21.1783 14.8466 24.68 14.8466 28.9999C14.8466 33.3198 18.3288 36.8214 22.6221 36.8214C25.3384 36.8214 27.7288 35.4184 29.1179 33.2957L26.7322 32.0948V32.0972Z" fill="#1E1E1E"/>
<path d="M64.4207 12.7553H61.8043V15.4026H64.4207V12.7553Z" fill="#1E1E1E"/>
<path d="M27.4535 2.88788V0.240584H16.5122V2.88788H27.4535Z" fill="#1E1E1E"/>
<path d="M27.4535 15.4026V12.7553H16.5121V15.4026H27.4535Z" fill="#1E1E1E"/>
<path d="M27.4535 9.14537V6.49808H16.5121V9.14537H27.4535Z" fill="#1E1E1E"/>
<path d="M9.03834 0H0.951287V15.6431H3.56769V9.62653H9.03834C11.6666 9.62653 13.7954 7.47259 13.7954 4.81326C13.7954 2.15394 11.6666 0 9.03834 0ZM9.03834 6.97923H3.56769V2.64729H9.03834C10.2205 2.64729 11.179 3.61717 11.179 4.81326C11.179 6.00936 10.2205 6.97923 9.03834 6.97923Z" fill="#1E1E1E"/>
<path d="M44.4003 4.81326C44.4003 2.15394 42.2715 0 39.6432 0H31.5562V15.6431H34.1726V9.62653H36.8651L41.1893 15.6431H44.2814L39.9453 9.61209C42.4309 9.45325 44.4003 7.36911 44.4003 4.81326ZM39.6432 6.97923H34.1726V2.64729H39.6432C40.8254 2.64729 41.7839 3.61717 41.7839 4.81326C41.7839 6.00936 40.8254 6.97923 39.6432 6.97923Z" fill="#1E1E1E"/>
<path d="M51.3764 2.64729H59.2256V0H51.3764C48.8813 0 46.8572 2.04804 46.8572 4.5726C46.8572 7.09716 48.8813 9.1452 51.3764 9.1452H55.1821C56.2334 9.1452 57.0849 10.0068 57.0849 11.0705C57.0849 12.1342 56.2334 12.9958 55.1821 12.9958H47.3329V15.6431H55.1821C57.6772 15.6431 59.7013 13.5951 59.7013 11.0705C59.7013 8.54595 57.6772 6.49791 55.1821 6.49791H51.3764C50.3251 6.49791 49.4736 5.63633 49.4736 4.5726C49.4736 3.50887 50.3251 2.64729 51.3764 2.64729Z" fill="#1E1E1E"/>
</svg>
