<svg width="2195" height="61" viewBox="0 0 2195 61" fill="none" xmlns="http://www.w3.org/2000/svg">
<path d="M664.165 2.4H663.565V3V58V58.6H664.165H692.927C702.132 58.6 709.6 51.1305 709.6 41.9231C709.6 37.0376 707.49 32.6524 704.153 29.6013C706.493 26.7341 707.908 23.0753 707.908 19.0769C707.908 9.86954 700.441 2.4 691.235 2.4H664.165ZM674.07 12.9077H691.235C694.643 12.9077 697.403 15.6682 697.403 19.0769C697.403 22.4857 694.643 25.2462 691.235 25.2462H674.07V12.9077ZM692.927 48.0923H674.07V35.7538H692.927C696.335 35.7538 699.095 38.5143 699.095 41.9231C699.095 45.3318 696.335 48.0923 692.927 48.0923Z" stroke="black" stroke-width="1.2"/>
<path d="M598.181 48.0923H567.481V3V2.4H566.881H557.575H556.975V3V48.6923V58V58.6H557.575H566.881H598.181H598.781V58V48.6923V48.0923H598.181Z" stroke="black" stroke-width="1.2"/>
<path d="M631.74 2.74197L631.199 1.6059L630.657 2.74156L604.407 57.7416L603.997 58.6H604.948H615.032H615.408L615.572 58.2614L631.187 26.0023L646.637 58.2592L646.8 58.6H647.178H657.397H658.348L657.939 57.742L631.74 2.74197Z" stroke="black" stroke-width="1.2"/>
<path d="M520.319 3.84619V3.24619H519.719L480.806 3.24619L480.206 3.24619V3.84619V13.1539V13.7539H480.806L519.719 13.7539H520.319V13.1539V3.84619Z" stroke="black" stroke-width="1.2"/>
<path d="M520.319 47.8462V47.2462H519.719H480.806H480.206V47.8462V57.1539V57.7539H480.806H519.719H520.319V57.1539V47.8462Z" stroke="black" stroke-width="1.2"/>
<path d="M520.319 25.8467V25.2467H519.719L480.806 25.2467H480.206V25.8467V35.1544V35.7544H480.806H519.719H520.319V35.1544V25.8467Z" stroke="black" stroke-width="1.2"/>
<path d="M399.349 3V2.4H398.749H358.144H357.544V3V12.3077V12.9077H358.144H373.194V58V58.6H373.794H383.099H383.699V58V12.9077H398.749H399.349V12.3077V3Z" stroke="black" stroke-width="1.2"/>
<path d="M405.517 2.4H404.917V3V58V58.6H405.517H414.823H415.423V58V3V2.4H414.823H405.517Z" stroke="black" stroke-width="1.2"/>
<path d="M274.962 2.74197L274.421 1.6059L273.879 2.74156L247.629 57.7416L247.219 58.6H248.17H258.254H258.63L258.794 58.2614L274.409 26.0023L289.859 58.2592L290.022 58.6H290.4H300.619H301.57L301.161 57.742L274.962 2.74197Z" stroke="black" stroke-width="1.2"/>
<path d="M447.298 58.2584L447.84 59.3941L448.381 58.258L474.58 3.25803L474.989 2.4H474.038H463.819H463.441L463.278 2.74081L447.828 34.9977L432.213 2.73859L432.049 2.4H431.673H421.59H420.638L421.048 3.25844L447.298 58.2584Z" stroke="black" stroke-width="1.2"/>
<path d="M342.291 40.4128V41.1871C339.051 45.3797 333.977 48.0923 328.273 48.0923C318.517 48.0923 310.575 40.2005 310.575 30.5C310.575 20.7993 318.509 12.9077 328.273 12.9077C334.049 12.9077 339.171 15.6808 342.404 19.9551L342.704 20.3516L343.15 20.1305L351.634 15.9166L352.244 15.6141L351.867 15.0474C346.812 7.43199 338.134 2.4 328.273 2.4C312.676 2.4 300.019 14.977 300.019 30.5C300.019 46.023 312.676 58.6 328.273 58.6C338.143 58.6 346.829 53.5595 351.876 45.935L352.251 45.3691L351.643 45.0667L343.159 40.8444L342.291 40.4128Z" stroke="black" stroke-width="1.2"/>
<path d="M215.043 47.2462H214.443V47.8462V57.1539V57.7539H215.043H224.349H224.949V57.1539V47.8462V47.2462H224.349H215.043Z" stroke="black" stroke-width="1.2"/>
<path d="M96.8555 3.84619V3.24619H96.2555L57.3419 3.24619L56.7419 3.24619V3.84619V13.1539V13.7539H57.3419L96.2555 13.7539H96.8555V13.1539V3.84619Z" stroke="black" stroke-width="1.2"/>
<path d="M96.8555 47.8462V47.2462H96.2555H57.3419H56.7419V47.8462V57.1539V57.7539H57.3419H96.2555H96.8555V57.1539V47.8462Z" stroke="black" stroke-width="1.2"/>
<path d="M96.8555 25.8467V25.2467H96.2555L57.3419 25.2467H56.7419V25.8467V35.1544V35.7544H57.3419H96.2555H96.8555V35.1544V25.8467Z" stroke="black" stroke-width="1.2"/>
<path d="M2 2.4H1.4V3V58V58.6H2H11.3054H11.9054V58V37.4462H30.7622C40.4414 37.4462 48.2811 29.6043 48.2811 19.9231C48.2811 10.2418 40.4414 2.4 30.7622 2.4H2ZM30.7622 26.9385H11.9054V12.9077H30.7622C34.635 12.9077 37.7757 16.0489 37.7757 19.9231C37.7757 23.7972 34.635 26.9385 30.7622 26.9385Z" stroke="black" stroke-width="1.2"/>
<path d="M107.464 2.4H106.864V3V58V58.6H107.464H116.77H117.37V58V37.4462H126.04L141.24 58.3528L141.419 58.6H141.725H152.722H153.901L153.208 57.6471L138.405 37.2943C147.049 36.2188 153.745 28.8644 153.745 19.9231C153.745 10.2418 145.906 2.4 136.226 2.4H107.464ZM136.226 26.9385H117.37V12.9077H136.226C140.099 12.9077 143.24 16.0489 143.24 19.9231C143.24 23.7972 140.099 26.9385 136.226 26.9385Z" stroke="black" stroke-width="1.2"/>
<path d="M205.873 12.9077H206.473V12.3077V3V2.4H205.873H177.957C168.751 2.4 161.284 9.86954 161.284 19.0769C161.284 28.2843 168.751 35.7538 177.957 35.7538H191.492C194.9 35.7538 197.66 38.5143 197.66 41.9231C197.66 45.3318 194.9 48.0923 191.492 48.0923H163.576H162.976V48.6923V58V58.6H163.576H191.492C200.698 58.6 208.165 51.1305 208.165 41.9231C208.165 32.7157 200.698 25.2462 191.492 25.2462H177.957C174.549 25.2462 171.789 22.4857 171.789 19.0769C171.789 15.6682 174.549 12.9077 177.957 12.9077H205.873Z" stroke="black" stroke-width="1.2"/>
<path d="M1406.16 2.4H1405.56V3V58V58.6H1406.16H1434.93C1444.13 58.6 1451.6 51.1305 1451.6 41.9231C1451.6 37.0376 1449.49 32.6524 1446.15 29.6013C1448.49 26.7341 1449.91 23.0753 1449.91 19.0769C1449.91 9.86954 1442.44 2.4 1433.24 2.4H1406.16ZM1416.07 12.9077H1433.24C1436.64 12.9077 1439.4 15.6682 1439.4 19.0769C1439.4 22.4857 1436.64 25.2462 1433.24 25.2462H1416.07V12.9077ZM1434.93 48.0923H1416.07V35.7538H1434.93C1438.33 35.7538 1441.09 38.5143 1441.09 41.9231C1441.09 45.3318 1438.33 48.0923 1434.93 48.0923Z" stroke="black" stroke-width="1.2"/>
<path d="M1340.18 48.0923H1309.48V3V2.4H1308.88H1299.58H1298.98V3V48.6923V58V58.6H1299.58H1308.88H1340.18H1340.78V58V48.6923V48.0923H1340.18Z" stroke="black" stroke-width="1.2"/>
<path d="M1373.74 2.74197L1373.2 1.6059L1372.66 2.74156L1346.41 57.7416L1346 58.6H1346.95H1357.03H1357.41L1357.57 58.2614L1373.19 26.0023L1388.64 58.2592L1388.8 58.6H1389.18H1399.4H1400.35L1399.94 57.742L1373.74 2.74197Z" stroke="black" stroke-width="1.2"/>
<path d="M1262.32 3.84619V3.24619H1261.72L1222.81 3.24619L1222.21 3.24619V3.84619V13.1539V13.7539H1222.81L1261.72 13.7539H1262.32V13.1539V3.84619Z" stroke="black" stroke-width="1.2"/>
<path d="M1262.32 47.8462V47.2462H1261.72H1222.81H1222.21V47.8462V57.1539V57.7539H1222.81H1261.72H1262.32V57.1539V47.8462Z" stroke="black" stroke-width="1.2"/>
<path d="M1262.32 25.8467V25.2467H1261.72L1222.81 25.2467H1222.21V25.8467V35.1544V35.7544H1222.81H1261.72H1262.32V35.1544V25.8467Z" stroke="black" stroke-width="1.2"/>
<path d="M1141.35 3V2.4H1140.75H1100.14H1099.54V3V12.3077V12.9077H1100.14H1115.19V58V58.6H1115.79H1125.1H1125.7V58V12.9077H1140.75H1141.35V12.3077V3Z" stroke="black" stroke-width="1.2"/>
<path d="M1147.52 2.4H1146.92V3V58V58.6H1147.52H1156.82H1157.42V58V3V2.4H1156.82H1147.52Z" stroke="black" stroke-width="1.2"/>
<path d="M1016.96 2.74197L1016.42 1.6059L1015.88 2.74156L989.629 57.7416L989.219 58.6H990.17H1000.25H1000.63L1000.79 58.2614L1016.41 26.0023L1031.86 58.2592L1032.02 58.6H1032.4H1042.62H1043.57L1043.16 57.742L1016.96 2.74197Z" stroke="black" stroke-width="1.2"/>
<path d="M1189.3 58.2584L1189.84 59.3941L1190.38 58.258L1216.58 3.25803L1216.99 2.4H1216.04H1205.82H1205.44L1205.28 2.74081L1189.83 34.9977L1174.21 2.73859L1174.05 2.4H1173.67H1163.59H1162.64L1163.05 3.25844L1189.3 58.2584Z" stroke="black" stroke-width="1.2"/>
<path d="M1084.29 40.4128V41.1871C1081.05 45.3797 1075.98 48.0923 1070.27 48.0923C1060.52 48.0923 1052.58 40.2005 1052.58 30.5C1052.58 20.7993 1060.51 12.9077 1070.27 12.9077C1076.05 12.9077 1081.17 15.6808 1084.4 19.9551L1084.7 20.3516L1085.15 20.1305L1093.63 15.9166L1094.24 15.6141L1093.87 15.0474C1088.81 7.43199 1080.13 2.4 1070.27 2.4C1054.68 2.4 1042.02 14.977 1042.02 30.5C1042.02 46.023 1054.68 58.6 1070.27 58.6C1080.14 58.6 1088.83 53.5595 1093.88 45.935L1094.25 45.3691L1093.64 45.0667L1085.16 40.8444L1084.29 40.4128Z" stroke="black" stroke-width="1.2"/>
<path d="M957.043 47.2462H956.443V47.8462V57.1539V57.7539H957.043H966.349H966.949V57.1539V47.8462V47.2462H966.349H957.043Z" stroke="black" stroke-width="1.2"/>
<path d="M838.855 3.84619V3.24619H838.255L799.342 3.24619L798.742 3.24619V3.84619V13.1539V13.7539H799.342L838.255 13.7539H838.855V13.1539V3.84619Z" stroke="black" stroke-width="1.2"/>
<path d="M838.855 47.8462V47.2462H838.255H799.342H798.742V47.8462V57.1539V57.7539H799.342H838.255H838.855V57.1539V47.8462Z" stroke="black" stroke-width="1.2"/>
<path d="M838.855 25.8467V25.2467H838.255L799.342 25.2467H798.742V25.8467V35.1544V35.7544H799.342H838.255H838.855V35.1544V25.8467Z" stroke="black" stroke-width="1.2"/>
<path d="M744 2.4H743.4V3V58V58.6H744H753.305H753.905V58V37.4462H772.762C782.441 37.4462 790.281 29.6043 790.281 19.9231C790.281 10.2418 782.441 2.4 772.762 2.4H744ZM772.762 26.9385H753.905V12.9077H772.762C776.635 12.9077 779.776 16.0489 779.776 19.9231C779.776 23.7972 776.635 26.9385 772.762 26.9385Z" stroke="black" stroke-width="1.2"/>
<path d="M849.464 2.4H848.864V3V58V58.6H849.464H858.77H859.37V58V37.4462H868.04L883.24 58.3528L883.419 58.6H883.725H894.722H895.901L895.208 57.6471L880.405 37.2943C889.049 36.2188 895.745 28.8644 895.745 19.9231C895.745 10.2418 887.906 2.4 878.226 2.4H849.464ZM878.226 26.9385H859.37V12.9077H878.226C882.099 12.9077 885.24 16.0489 885.24 19.9231C885.24 23.7972 882.099 26.9385 878.226 26.9385Z" stroke="black" stroke-width="1.2"/>
<path d="M947.873 12.9077H948.473V12.3077V3V2.4H947.873H919.957C910.751 2.4 903.284 9.86954 903.284 19.0769C903.284 28.2843 910.751 35.7538 919.957 35.7538H933.492C936.9 35.7538 939.66 38.5143 939.66 41.9231C939.66 45.3318 936.9 48.0923 933.492 48.0923H905.576H904.976V48.6923V58V58.6H905.576H933.492C942.698 58.6 950.165 51.1305 950.165 41.9231C950.165 32.7157 942.698 25.2462 933.492 25.2462H919.957C916.549 25.2462 913.789 22.4857 913.789 19.0769C913.789 15.6682 916.549 12.9077 919.957 12.9077H947.873Z" stroke="black" stroke-width="1.2"/>
<path d="M2148.16 2.4H2147.56V3V58V58.6H2148.16H2176.93C2186.13 58.6 2193.6 51.1305 2193.6 41.9231C2193.6 37.0376 2191.49 32.6524 2188.15 29.6013C2190.49 26.7341 2191.91 23.0753 2191.91 19.0769C2191.91 9.86954 2184.44 2.4 2175.24 2.4H2148.16ZM2158.07 12.9077H2175.24C2178.64 12.9077 2181.4 15.6682 2181.4 19.0769C2181.4 22.4857 2178.64 25.2462 2175.24 25.2462H2158.07V12.9077ZM2176.93 48.0923H2158.07V35.7538H2176.93C2180.33 35.7538 2183.09 38.5143 2183.09 41.9231C2183.09 45.3318 2180.33 48.0923 2176.93 48.0923Z" stroke="black" stroke-width="1.2"/>
<path d="M2082.18 48.0923H2051.48V3V2.4H2050.88H2041.58H2040.98V3V48.6923V58V58.6H2041.58H2050.88H2082.18H2082.78V58V48.6923V48.0923H2082.18Z" stroke="black" stroke-width="1.2"/>
<path d="M2115.74 2.74197L2115.2 1.6059L2114.66 2.74156L2088.41 57.7416L2088 58.6H2088.95H2099.03H2099.41L2099.57 58.2614L2115.19 26.0023L2130.64 58.2592L2130.8 58.6H2131.18H2141.4H2142.35L2141.94 57.742L2115.74 2.74197Z" stroke="black" stroke-width="1.2"/>
<path d="M2004.32 3.84619V3.24619H2003.72L1964.81 3.24619L1964.21 3.24619V3.84619V13.1539V13.7539H1964.81L2003.72 13.7539H2004.32V13.1539V3.84619Z" stroke="black" stroke-width="1.2"/>
<path d="M2004.32 47.8462V47.2462H2003.72H1964.81H1964.21V47.8462V57.1539V57.7539H1964.81H2003.72H2004.32V57.1539V47.8462Z" stroke="black" stroke-width="1.2"/>
<path d="M2004.32 25.8467V25.2467H2003.72L1964.81 25.2467H1964.21V25.8467V35.1544V35.7544H1964.81H2003.72H2004.32V35.1544V25.8467Z" stroke="black" stroke-width="1.2"/>
<path d="M1883.35 3V2.4H1882.75H1842.14H1841.54V3V12.3077V12.9077H1842.14H1857.19V58V58.6H1857.79H1867.1H1867.7V58V12.9077H1882.75H1883.35V12.3077V3Z" stroke="black" stroke-width="1.2"/>
<path d="M1889.52 2.4H1888.92V3V58V58.6H1889.52H1898.82H1899.42V58V3V2.4H1898.82H1889.52Z" stroke="black" stroke-width="1.2"/>
<path d="M1758.96 2.74197L1758.42 1.6059L1757.88 2.74156L1731.63 57.7416L1731.22 58.6H1732.17H1742.25H1742.63L1742.79 58.2614L1758.41 26.0023L1773.86 58.2592L1774.02 58.6H1774.4H1784.62H1785.57L1785.16 57.742L1758.96 2.74197Z" stroke="black" stroke-width="1.2"/>
<path d="M1931.3 58.2584L1931.84 59.3941L1932.38 58.258L1958.58 3.25803L1958.99 2.4H1958.04H1947.82H1947.44L1947.28 2.74081L1931.83 34.9977L1916.21 2.73859L1916.05 2.4H1915.67H1905.59H1904.64L1905.05 3.25844L1931.3 58.2584Z" stroke="black" stroke-width="1.2"/>
<path d="M1826.29 40.4128V41.1871C1823.05 45.3797 1817.98 48.0923 1812.27 48.0923C1802.52 48.0923 1794.58 40.2005 1794.58 30.5C1794.58 20.7993 1802.51 12.9077 1812.27 12.9077C1818.05 12.9077 1823.17 15.6808 1826.4 19.9551L1826.7 20.3516L1827.15 20.1305L1835.63 15.9166L1836.24 15.6141L1835.87 15.0474C1830.81 7.43199 1822.13 2.4 1812.27 2.4C1796.68 2.4 1784.02 14.977 1784.02 30.5C1784.02 46.023 1796.68 58.6 1812.27 58.6C1822.14 58.6 1830.83 53.5595 1835.88 45.935L1836.25 45.3691L1835.64 45.0667L1827.16 40.8444L1826.29 40.4128Z" stroke="black" stroke-width="1.2"/>
<path d="M1699.04 47.2462H1698.44V47.8462V57.1539V57.7539H1699.04H1708.35H1708.95V57.1539V47.8462V47.2462H1708.35H1699.04Z" stroke="black" stroke-width="1.2"/>
<path d="M1580.86 3.84619V3.24619H1580.26L1541.34 3.24619L1540.74 3.24619V3.84619V13.1539V13.7539H1541.34L1580.26 13.7539H1580.86V13.1539V3.84619Z" stroke="black" stroke-width="1.2"/>
<path d="M1580.86 47.8462V47.2462H1580.26H1541.34H1540.74V47.8462V57.1539V57.7539H1541.34H1580.26H1580.86V57.1539V47.8462Z" stroke="black" stroke-width="1.2"/>
<path d="M1580.86 25.8467V25.2467H1580.26L1541.34 25.2467H1540.74V25.8467V35.1544V35.7544H1541.34H1580.26H1580.86V35.1544V25.8467Z" stroke="black" stroke-width="1.2"/>
<path d="M1486 2.4H1485.4V3V58V58.6H1486H1495.31H1495.91V58V37.4462H1514.76C1524.44 37.4462 1532.28 29.6043 1532.28 19.9231C1532.28 10.2418 1524.44 2.4 1514.76 2.4H1486ZM1514.76 26.9385H1495.91V12.9077H1514.76C1518.64 12.9077 1521.78 16.0489 1521.78 19.9231C1521.78 23.7972 1518.64 26.9385 1514.76 26.9385Z" stroke="black" stroke-width="1.2"/>
<path d="M1591.46 2.4H1590.86V3V58V58.6H1591.46H1600.77H1601.37V58V37.4462H1610.04L1625.24 58.3528L1625.42 58.6H1625.73H1636.72H1637.9L1637.21 57.6471L1622.41 37.2943C1631.05 36.2188 1637.75 28.8644 1637.75 19.9231C1637.75 10.2418 1629.91 2.4 1620.23 2.4H1591.46ZM1620.23 26.9385H1601.37V12.9077H1620.23C1624.1 12.9077 1627.24 16.0489 1627.24 19.9231C1627.24 23.7972 1624.1 26.9385 1620.23 26.9385Z" stroke="black" stroke-width="1.2"/>
<path d="M1689.87 12.9077H1690.47V12.3077V3V2.4H1689.87H1661.96C1652.75 2.4 1645.28 9.86954 1645.28 19.0769C1645.28 28.2843 1652.75 35.7538 1661.96 35.7538H1675.49C1678.9 35.7538 1681.66 38.5143 1681.66 41.9231C1681.66 45.3318 1678.9 48.0923 1675.49 48.0923H1647.58H1646.98V48.6923V58V58.6H1647.58H1675.49C1684.7 58.6 1692.17 51.1305 1692.17 41.9231C1692.17 32.7157 1684.7 25.2462 1675.49 25.2462H1661.96C1658.55 25.2462 1655.79 22.4857 1655.79 19.0769C1655.79 15.6682 1658.55 12.9077 1661.96 12.9077H1689.87Z" stroke="black" stroke-width="1.2"/>
</svg>
