<?xml version="1.0" encoding="utf-8"?>
<!-- Generator: Adobe Illustrator 27.0.0, SVG Export Plug-In . SVG Version: 6.00 Build 0)  -->
<svg version="1.1" id="Layer_1" xmlns="http://www.w3.org/2000/svg" xmlns:xlink="http://www.w3.org/1999/xlink" x="0px" y="0px"
	 viewBox="0 0 1236 79" style="enable-background:new 0 0 1236 79;" xml:space="preserve">
<style type="text/css">
	.st0{fill:#FFFFFF;filter:url(#Adobe_OpacityMaskFilter);}
	.st1{mask:url(#path-1-outside-1_1_593_00000021813478110567679250000009352477826716428174_);fill:#1E1E1E;}
	.st2{fill:#1E1E1E;}
</style>
<defs>
	<filter id="Adobe_OpacityMaskFilter" filterUnits="userSpaceOnUse" x="906.3" y="0.8" width="329" height="77.4">
		<feColorMatrix  type="matrix" values="1 0 0 0 0  0 1 0 0 0  0 0 1 0 0  0 0 0 1 0"/>
	</filter>
</defs>
<mask maskUnits="userSpaceOnUse" x="906.3" y="0.8" width="329" height="77.4" id="path-1-outside-1_1_593_00000021813478110567679250000009352477826716428174_">
	<rect x="906.2" y="0.2" class="st0" width="330" height="78"/>
	<path d="M930,59.4c1.2,4.7,1.8,10.9,1.6,14.8l8.2-1c0.1-4-0.8-10.1-2.2-14.7L930,59.4z M942.1,58.6c1.6,4.2,3.2,9.7,3.7,13.3
		l7.6-1.9c-0.6-3.6-2.2-9-3.8-13L942.1,58.6z M965.7,38.8c-0.5,2.3-1,4.6-1.4,6.5h-30.6c2.2-2.1,4.2-4.2,6-6.5H965.7z M959.4,24.2
		c-0.4,2.2-0.9,4.4-1.4,6.3h-12.2c1.4-2.1,2.6-4.2,3.8-6.3H959.4z M981.4,45.3h-8.6c1-4.3,2-9.9,2.9-14.7h-9.1c1-4.4,2.2-9.8,3-14.6
		H954c1.7-3.6,3.2-7.3,4.6-11L949,2.2c-1.4,4.6-3.3,9.2-5.5,13.7h-11.6l4-1.7c-1.1-3.3-3.7-8.1-6.2-11.7l-8.2,3.2
		c1.9,3.1,3.8,7,5,10.2h-13.4v8.3h25.7c-7.4,11.4-17.4,21.4-30.6,27.4c1.6,2.2,3.8,5.9,5,8.3c2-1,4-2.1,5.9-3.3
		c-1.4,5.9-4.4,11.5-8.6,15.1l7.4,4.7c5-4.3,7.8-11.2,9.4-18.1l-7.3-2.3c1.4-0.9,2.8-1.8,4.1-2.7h47.6c-1,9.1-2,13.1-3.3,14.4
		c-0.8,0.7-1.5,0.9-2.6,0.9c-1.5,0-4.6,0-7.8-0.4c1.4,2.4,2.4,5.9,2.6,8.5c3.8,0.2,7.4,0.1,9.5-0.2c2.5-0.3,4.2-1,6-3
		c2.5-2.6,3.8-9.3,5.2-24.8L981.4,45.3z M965.6,65.2c-0.8-3-3-7.4-5.2-10.6l-6.6,2.2c2,3.4,4.1,8,4.7,10.8L965.6,65.2z M1024,61.5
		V35h8.9v-9.1h-8.9V2.3h-10.1v60.9l-5.7,1V18.8h-9.4v46.8c-2.1,0.3-4,0.6-5.8,0.9l1.5,10.1c10.5-2,25.1-4.6,38.6-7.2l-0.6-9.4
		L1024,61.5z M1048.7,65.8c-2.6,0-2.9-0.6-2.9-5V35h18.1v-9.1h-18.1V2.3h-10.1v58.3c0,11.3,2.6,14.6,11.4,14.6h9.8
		c8.1,0,10.6-5,11.6-18.3c-2.8-0.7-6.7-2.6-9.1-4.2c-0.4,10.4-0.9,13.2-3.4,13.2H1048.7z M1150.4,14.9V5.2h-72.6v9.7h29
		c-0.6,2.8-1.2,5.7-2,8.4h-23.3V77h9.8V32.2h8.6v42.3h9.4V32.2h8.8v42.3h9.5V32.2h9.4v34.6c0,1.1-0.3,1.4-1.4,1.4s-4.6,0.1-7.8-0.1
		c1.2,2.3,2.6,6.1,3,8.6c5.4,0,9.4-0.2,12.2-1.6c2.9-1.5,3.7-3.8,3.7-8.3V23.3h-31.6c1-2.6,1.9-5.4,2.9-8.4H1150.4z M1203.1,65.4
		V49.3h23.9v-9.2h-23.9V26h27v-9.3h-27V2.3h-10v14.4h-12.3c1.4-3.7,2.6-7.4,3.8-11.3l-9.8-2.2c-2.7,10.9-7.9,21.9-14.2,28.6
		c2.4,1.3,6.6,4.2,8.6,5.7c2.6-3.1,5.1-7.2,7.4-11.6h16.6v14.1h-21.7v9.2h21.7v16.1h-30.9v9.4h71.9v-9.4H1203.1z"/>
</mask>
<path class="st1" d="M1092.6,78.2h-12.2V22.1h23.6c0.5-1.7,1-3.7,1.4-6h-28.8V4h75v12.1H1119c-0.7,2.1-1.4,4.1-2,6h31.1v44.8
	c0,4.4-0.7,7.5-4.3,9.4c-3.1,1.5-7,1.7-12.8,1.7h-1l-0.2-1c-0.1-0.9-0.4-2-0.8-3.2v1.9H1117V33.4h-6.4v42.3h-11.8V33.4h-6.2V78.2z
	 M1082.8,75.8h7.4V31h11v42.3h7V31h11.2v42.3h7.1v-5.1l-0.7-1.3l0.7,0V31h11.8v35.8c0,1.8-0.9,2.6-2.6,2.6l-0.9,0c-1.2,0-3,0-5,0
	c0.8,1.9,1.7,4.2,2.1,6.2c4.8,0,8.3-0.3,10.7-1.5c2.3-1.2,3-3,3-7.2V24.5h-32.1l0.6-1.6c1-2.6,1.9-5.4,2.9-8.4l0.3-0.8h31.9V6.4
	H1079v7.3h29.3l-0.3,1.4c-0.7,3.4-1.3,6.1-2,8.5l-0.3,0.9h-23V75.8z M1129,67c2.3,0.1,4.6,0.1,5.9,0l0.9,0c0.1,0,0.2,0,0.2,0
	c0-0.1,0-0.1,0-0.2V33.4h-7V67z M964.4,78.1c-1.3,0-2.6,0-4-0.1l-1.1,0l-0.1-1.1c-0.2-2.6-1.1-5.9-2.4-7.9l-1.3-2.1l1.5,0.2
	c-0.8-2.6-2.5-6.5-4.3-9.5l-0.8-1.3l4.6-1.6h-32.3c-0.5,0.4-1.1,0.8-1.7,1.2l5.9,1.9l-0.3,1.1c-2,8.7-5.2,14.8-9.7,18.7l-0.7,0.6
	l-9.6-6.1l1.2-1.1c3.2-2.7,5.8-6.8,7.4-11.7c-1.1,0.6-2.3,1.2-3.4,1.8l-1.1,0.6l-0.5-1.1c-1.1-2.3-3.3-6-4.8-8.1l-0.9-1.2l1.3-0.6
	c11.4-5.3,21.1-13.7,28.9-25.1h-24.6V14.7h12.9c-1.2-2.8-2.8-5.9-4.3-8.3l-0.8-1.2l10.5-4.1l0.5,0.8c2.6,3.8,5.2,8.7,6.3,12l0.3,0.9
	h5.4c2.1-4.2,3.8-8.5,5.1-12.8l0.3-1.1l11.9,3.3l-0.4,1.2c-1.1,3.2-2.4,6.3-3.8,9.4h15.2l-0.2,1.4c-0.6,3.7-1.5,8.1-2.7,13.2h9
	l-0.3,1.4c-0.8,4.3-1.7,9.2-2.6,13.3h8.4l-0.3,4.9c-1.4,16.3-2.8,22.8-5.5,25.6c-2,2.3-4.1,3-6.7,3.3
	C968.7,78,966.7,78.1,964.4,78.1z M961.6,75.6c3.3,0.1,6.4,0,8.3-0.2c2.2-0.3,3.7-0.8,5.2-2.6c2.2-2.3,3.6-9,4.9-24.1l0.2-2.3h-8.8
	l0.3-1.5c0.9-3.9,1.8-8.8,2.6-13.3h-9.2l0.3-1.5c1.2-5,2.1-9.5,2.8-13.2h-16.1l0.8-1.7c1.5-3.2,2.8-6.4,4.1-9.7l-7.2-2
	c-1.4,4.3-3.2,8.6-5.2,12.8l-0.3,0.7h-12.3l-0.5-2.3l2.9-1.2c-1.1-2.8-3.1-6.5-5.1-9.6l-6,2.3c1.7,2.9,3.3,6.2,4.4,9.1l0.6,1.6h-14
	V23H941l-1.2,1.8c-7.9,12.3-18,21.5-29.8,27.3c1.3,1.9,2.7,4.3,3.7,6.2c1.1-0.6,2.3-1.2,3.4-1.9l0,0l2.2-1.4c1.7-1,2.9-1.8,4-2.7
	l0.3-0.2h49.3l-0.1,1.3c-1.2,11.3-2.4,13.9-3.6,15.1c-1.1,1-2.2,1.2-3.5,1.2c-1.2,0-3.3,0-5.7-0.2C960.8,71.7,961.3,73.9,961.6,75.6
	z M912.4,71.7l5.3,3.4c3.6-3.4,6.3-8.6,8.1-15.8l-5.7-1.8C918.6,63.2,915.9,68.2,912.4,71.7z M962.7,67.5c1.2,0,2.3,0,2.9,0
	c0.9,0,1.3-0.1,1.8-0.6c1-1,1.9-5.2,2.7-12.3h-8.4c2.2,3.4,4.2,7.5,4.9,10.2L967,66L962.7,67.5z M955.6,57.5c1.6,2.9,3,6.1,3.8,8.6
	l4.7-1.7c-0.8-2.4-2.5-5.7-4.2-8.4L955.6,57.5z M993.5,78l-1.9-12.5l1.2-0.2c1.3-0.2,2.7-0.4,4.1-0.6l0.6-0.1v-47h11.8v45.1l3.3-0.6
	V1.1h12.5v23.6h8.9v11.5h-8.9v23.8l8.3-1.5l0.8,11.8l-1,0.2c-7,1.3-14.4,2.7-21.3,4c-6.3,1.2-12.3,2.3-17.3,3.2L993.5,78z
	 M994.3,67.5l1.2,7.6c4.7-0.9,10.3-1.9,16.1-3c6.6-1.2,13.5-2.5,20.2-3.8l-0.5-7l-8.5,1.5V33.8h8.9v-6.7h-8.9V3.5h-7.7v60.7
	l-8.1,1.4V20h-7v46.6l-2.7,0.4C996.3,67.2,995.3,67.4,994.3,67.5z M1056.9,76.4h-9.8c-9.5,0-12.6-3.8-12.6-15.8V1.1h12.5v23.6h18.1
	v11.5H1047v24.6c0,3.8,0,3.8,1.7,3.8h7.2c1.4,0,1.9-2.6,2.2-12l0.1-2.2l1.8,1.3c2.3,1.6,6.1,3.4,8.7,4.1l1,0.3l-0.1,1
	C1068.7,69.6,1066.4,76.4,1056.9,76.4z M1037,3.5v57.1c0,11.3,2.7,13.4,10.2,13.4h9.8c6.8,0,9.2-3.7,10.3-16.2
	c-2.1-0.7-4.6-1.8-6.7-3c-0.4,8.5-0.9,12.3-4.6,12.3h-7.2c-3.9,0-4.1-2.1-4.1-6.2v-27h18.1v-6.7h-18.1V3.5H1037z M1235.4,75.9H1161
	V64.2h30.9V50.5h-21.7V38.9h21.7V27.2h-14.6c-2.6,4.8-4.9,8.4-7.2,11.2l-0.8,0.9l-0.9-0.7c-1.9-1.5-6.1-4.3-8.4-5.6l-1.4-0.7
	l1.1-1.1c5.9-6.3,11.1-16.8,13.9-28.1l0.3-1.1l12.2,2.7l-0.4,1.2c-0.9,3.1-2,6.3-3.2,9.7h9.4V1.1h12.4v14.4h27v11.7h-27v11.7h23.9
	v11.6h-23.9v13.7h31V75.9z M1163.4,73.5h69.5v-7h-31V48.1h23.9v-6.8h-23.9V24.8h27v-6.9h-27V3.5h-7.6v14.4h-15.2l0.6-1.6
	c1.3-3.6,2.4-6.8,3.4-10l-7.5-1.6c-2.8,10.6-7.6,20.5-13.1,26.9c2.1,1.2,4.7,3,6.5,4.3c2.1-2.6,4.2-6.1,6.6-10.5l0.3-0.6h18.5v16.5
	h-21.7v6.8h21.7v18.5h-30.9V73.5z M930.3,75.5l0.1-1.4c0.2-3.9-0.4-9.9-1.6-14.4l-0.3-1.3l10-1.3l0.3,1c1.4,4.7,2.3,10.9,2.2,15.1
	l0,1L930.3,75.5z M931.5,60.4c0.9,4,1.4,8.8,1.4,12.4l5.8-0.7c-0.1-3.6-0.8-8.4-1.8-12.3L931.5,60.4z M944.7,73.3l-0.2-1.3
	c-0.5-3.7-2.2-9.2-3.6-13l-0.5-1.3l9.8-2.1l0.4,0.9c1.7,4.1,3.4,9.6,3.9,13.2l0.2,1.1L944.7,73.3z M943.7,59.4
	c1.1,3.2,2.4,7.4,3.1,10.9L952,69c-0.6-3.1-1.8-7.3-3.2-10.7L943.7,59.4z M965.2,46.5h-34.5l2.1-2.1c2.1-2,4.1-4.2,5.9-6.4l0.4-0.4
	h28l-0.3,1.4c-0.4,2.1-0.9,4.5-1.5,6.5L965.2,46.5z M936.6,44.1h26.7c0.3-1.3,0.6-2.7,0.9-4.1h-24C939.1,41.4,937.9,42.8,936.6,44.1
	z M959,31.8h-15.4l1.2-1.9c1.5-2.2,2.7-4.3,3.8-6.2L949,23h11.9l-0.3,1.4c-0.4,2.1-0.8,4.2-1.4,6.4L959,31.8z M948,29.4h9.1
	c0.3-1.3,0.6-2.6,0.9-3.9h-7.6C949.7,26.7,948.9,28,948,29.4z"/>
<path class="st2" d="M856.1,75.2h-36.8V4.8H854c11.6,0,21.1,9.5,21.1,21.1c0,4.7-1.6,9.3-4.5,13c4.2,4,6.6,9.5,6.6,15.3
	C877.2,65.7,867.7,75.2,856.1,75.2z M820.6,74h35.6c11,0,19.9-8.9,19.9-19.9c0-5.6-2.4-11-6.6-14.8L869,39l0.4-0.4
	c2.9-3.6,4.6-8,4.6-12.6C873.9,14.9,865,6,854,6h-33.5V74z M856.1,62.5h-24.1V45.8h24.1c4.6,0,8.4,3.8,8.4,8.4
	S860.7,62.5,856.1,62.5z M833.3,61.3h22.9c4,0,7.2-3.2,7.2-7.2s-3.2-7.2-7.2-7.2h-22.9V61.3z M854,34.2h-22V17.5h22
	c4.6,0,8.4,3.8,8.4,8.4S858.7,34.2,854,34.2z M833.3,33H854c4,0,7.2-3.2,7.2-7.2s-3.2-7.2-7.2-7.2h-20.8V33z"/>
<path class="st2" d="M740.2,75.2h-52.6V4.8h13.9v56.5h38.7V75.2z M688.8,74H739l0-11.5h-38.7l0-56.5h-11.5V74z"/>
<path class="st2" d="M814.1,75.2h-15.3l-19-39.7l-19.2,39.7h-15.1l0.8-1.7l33.5-70.3L814.1,75.2z M799.6,74h12.6L779.8,6l-32.4,68
	h12.5l20-41.3L799.6,74z"/>
<path class="st2" d="M643.2,19.8h-50.5V5.8h50.5V19.8z M593.9,18.6H642L642,7h-48.1L593.9,18.6z"/>
<path class="st2" d="M643.2,74.2h-50.5V60.2h50.5V74.2z M593.9,73H642l0-11.5h-48.1L593.9,73z"/>
<path class="st2" d="M643.2,47h-50.5V33h50.5V47z M593.9,45.8H642l0-11.5h-48.1L593.9,45.8z"/>
<path class="st2" d="M474.3,75.2h-13.9V18.7h-19.3V4.8h52.6v13.9h-19.3V75.2z M461.6,74h11.5V17.5h19.3V6h-50.2v11.5h19.3V74z"/>
<path class="st2" d="M513.5,75.2h-13.9V4.8h13.9V75.2z M500.8,74h11.5V6h-11.5V74z"/>
<path class="st2" d="M373.1,75.2h-15.3l-19-39.7l-19.2,39.7h-15.1l34.4-72L373.1,75.2z M358.5,74h12.6L338.8,6l-32.5,68h12.5
	l20-41.3L358.5,74z"/>
<path class="st2" d="M553.2,76.8l-34.4-72h15.1l19.2,39.7l19-39.7h15.3l-0.8,1.7L553.2,76.8z M520.7,6l32.4,68l32.4-68h-12.6
	l-19.8,41.3L533.2,6L520.7,6z"/>
<path class="st2" d="M405.3,75.2C385.8,75.2,370,59.4,370,40s15.9-35.2,35.4-35.2c11.9,0,23,5.9,29.5,15.8l0.8,1.1L423,28l-0.6-0.8
	c-4.1-5.4-10.3-8.5-17.1-8.5c-11.8,0-21.4,9.6-21.4,21.3c0,11.7,9.6,21.3,21.4,21.3c6.6,0,12.8-3,16.9-8.2v-1.5l13.4,6.7l-0.8,1.1
	C428.3,69.3,417.3,75.2,405.3,75.2z M405.3,6c-18.9,0-34.2,15.3-34.2,34c0,18.7,15.3,34,34.2,34c11.5,0,22.2-5.7,28.6-15.3
	l-10.5-5.2v0l-0.1,0.2c-4.3,5.6-10.9,8.9-17.9,8.9c-12.5,0-22.6-10.1-22.6-22.5s10.1-22.5,22.6-22.5c7.1,0,13.7,3.3,18.1,9l10.5-5.2
	C427.5,11.7,416.9,6,405.3,6z"/>
<path class="st2" d="M278.1,74.2h-13.9V60.2h13.9V74.2z M265.4,73h11.5V61.4h-11.5V73z"/>
<path class="st2" d="M119.7,19.8H69.2V5.8h50.5V19.8z M70.4,18.6h48.1V7H70.4V18.6z"/>
<path class="st2" d="M119.7,74.2H69.2V60.2h50.5V74.2z M70.4,73h48.1V61.4H70.4V73z"/>
<path class="st2" d="M119.7,47H69.2V33h50.5V47z M70.4,45.8h48.1V34.2H70.4V45.8z"/>
<path class="st2" d="M14.7,75.2H0.8V4.8h36.8c12.2,0,22.1,9.9,22.1,22.1S49.8,49,37.6,49H14.7V75.2z M2,74h11.5V47.8h24.1
	c11.5,0,20.9-9.4,20.9-20.9S49.1,6,37.6,6H2V74z M37.6,36.3H13.5V17.5h24.1c5.2,0,9.4,4.2,9.4,9.4C47,32.1,42.7,36.3,37.6,36.3z
	 M14.7,35.1h22.9c4.5,0,8.2-3.7,8.2-8.2s-3.7-8.2-8.2-8.2H14.7V35.1z"/>
<path class="st2" d="M190.7,75.2h-16.6l-19-26.2h-10v26.2h-13.9V4.8h36.8c12.2,0,22.1,9.9,22.1,22.1c0,10.9-7.9,20.1-18.6,21.8
	L190.7,75.2z M174.7,74h13.6l-19-26.2l1-0.1c10.6-1.2,18.5-10.1,18.5-20.8c0-11.5-9.4-20.9-20.9-20.9h-35.6v68h11.5V47.8h11.8
	L174.7,74L174.7,74z M167.9,36.3h-24.1V17.5h24.1c5.2,0,9.4,4.2,9.4,9.4C177.3,32.1,173.1,36.3,167.9,36.3z M145.1,35.1h22.9
	c4.5,0,8.2-3.7,8.2-8.2s-3.7-8.2-8.2-8.2h-22.9V35.1z"/>
<path class="st2" d="M236.3,75.2h-35.7V61.3h35.7c4,0,7.2-3.2,7.2-7.2s-3.2-7.2-7.2-7.2h-16.7c-11.6,0-21.1-9.5-21.1-21.1
	c0-11.6,9.5-21.1,21.1-21.1h35.7v13.9h-35.7c-4,0-7.2,3.2-7.2,7.2s3.2,7.2,7.2,7.2h16.7c11.6,0,21.1,9.5,21.1,21.1
	S247.9,75.2,236.3,75.2z M201.7,74h34.5c11,0,19.9-8.9,19.9-19.9s-8.9-19.9-19.9-19.9h-16.7c-4.6,0-8.4-3.8-8.4-8.4s3.8-8.4,8.4-8.4
	H254V6h-34.5c-11,0-19.9,8.9-19.9,19.9c0,11,8.9,19.9,19.9,19.9h16.7c4.6,0,8.4,3.8,8.4,8.4s-3.8,8.4-8.4,8.4h-34.5V74z"/>
</svg>
