<?xml version="1.0" encoding="utf-8"?>
<!-- Generator: Adobe Illustrator 25.0.1, SVG Export Plug-In . SVG Version: 6.00 Build 0)  -->
<svg version="1.1" id="圖層_1" xmlns="http://www.w3.org/2000/svg" xmlns:xlink="http://www.w3.org/1999/xlink" x="0px" y="0px"
	 viewBox="0 0 337.7 81.5" style="enable-background:new 0 0 337.7 81.5;" xml:space="preserve">
<style type="text/css">
	.st0{fill-rule:evenodd;clip-rule:evenodd;fill:#1E1E1E;}
</style>
<g>
	<path class="st0" d="M18.8,45c0.2-0.2,0.4-0.3,0.6-0.5c5.8-5.3,10.5-11.5,14.3-18.2c0.2-0.4,0.4-0.8,0.7-1.2H9.3v-8.6H25
		c-0.2-0.4-0.4-0.8-0.7-1.2c-1.4-2.4-3.3-5.2-5.2-7.5c-0.3-0.3-0.5-0.7-0.8-1l8.6-3.4c2.5,2.7,5.5,6.5,7.2,9.4
		c0.2,0.4,0.4,0.7,0.6,1.1l-6.3,2.6h10c0.2-0.4,0.3-0.8,0.5-1.2c1.6-3.9,2.9-7.9,3.9-11.9l9.8,2.3c-0.1,0.4-0.2,0.8-0.4,1.1
		c-0.9,2.8-1.9,5.7-3,8.5c-0.2,0.4-0.3,0.8-0.5,1.2H69c-0.1,0.4-0.1,0.8-0.2,1.2c-0.8,4.1-1.7,8.5-2.7,12.3
		c-0.1,0.4-0.2,0.8-0.3,1.2h8.4C74.1,31.6,74,32,74,32.4c-0.8,4-1.7,8.4-2.6,12.1c-0.1,0.4-0.2,0.8-0.3,1.2H80c0,0,0,0.5-0.1,1.2
		c-0.1,0.8-0.1,1.8-0.2,2.5c-1.3,16.2-2.7,23.2-5.3,25.9c-1.9,2.1-3.8,2.8-6.5,3.1c-2.2,0.2-6.1,0.2-10.2,0.2
		c-0.1-2.2-0.9-5.2-2-7.5c-0.2-0.5-0.5-0.9-0.7-1.3c0.5,0.1,1,0.1,1.5,0.2c3,0.3,5.6,0.3,7,0.2c1.4,0,2.2-0.2,3-0.9
		c1.3-1.3,2.4-5.3,3.3-14.2c0-0.4,0.1-0.8,0.1-1.2H23c-0.5,0.4-1,0.8-1.5,1.2c-0.2,0.2-0.5,0.4-0.7,0.6c-0.3,0.3-0.7,0.5-1,0.8
		l-0.1,0.1l7,2.3c-1.6,6.9-4.1,14.4-8.8,19.4L10.5,73c0.3-0.3,0.6-0.6,0.8-0.9c2.9-3.3,5.1-8,6.5-12.8c0.2-0.6,0.3-1.2,0.5-1.8
		c-0.5,0.4-1,0.7-1.5,1.1c-1.7,1.1-3.5,2.2-5.3,3.3c-0.3,0.2-0.7,0.4-1.1,0.6c-0.2-0.3-0.3-0.7-0.5-1.1c-1-2-2.6-4.5-3.9-6.3
		c-0.3-0.4-0.5-0.7-0.7-1c0.4-0.2,0.7-0.4,1.1-0.6C11,51.2,15.2,48.2,18.8,45z M63.8,40.7c0.1-0.4,0.2-0.8,0.3-1.2H36.6
		c-0.3,0.4-0.6,0.8-0.9,1.2c-1,1.3-2,2.6-3.1,3.8c-0.3,0.4-0.7,0.8-1,1.2h31.1c0.1-0.4,0.2-0.8,0.3-1.2C63.2,43.2,63.4,42,63.8,40.7
		z M61.7,44.5c0.3-1.2,0.6-2.5,0.9-3.8H37.1c-1,1.3-2,2.6-3,3.8H61.7z M58.4,26.3c0.1-0.4,0.2-0.8,0.3-1.2H45
		c-0.2,0.4-0.4,0.8-0.6,1.2c-0.6,1.2-1.3,2.5-2,3.7c-0.2,0.4-0.4,0.8-0.7,1.2h15.5c0.1-0.4,0.2-0.8,0.3-1.2
		C57.8,28.8,58.2,27.5,58.4,26.3z M56.3,29.9c0.3-1.2,0.6-2.4,0.9-3.7H45.8c-0.6,1.2-1.3,2.5-1.9,3.7H56.3z M16.3,60.3
		c-1.7,1.1-3.4,2.1-5.2,3.1L10,64.1l-0.5-1.2c-1.1-2.3-3.4-6.1-5-8.1l-0.9-1.2l1.3-0.7c12-6,21-15.6,27.3-26.7H8v-11h14.8
		c-1.5-2.5-3.6-5.4-5.6-7.7l-1.1-1.3l11-4.3l0.6,0.6c2.8,3.1,6.3,7.6,8,10.7l0.6,1.2l-1.8,0.7h3.1c1.6-4,3-8.1,4.1-12.2L42,1.8
		l12.2,2.9l-0.4,1.2c-1,3.1-2,6.2-3.2,9.2h20l-0.3,1.4c-0.8,4.3-1.8,9.2-2.8,13.3h8.3l-0.3,1.4c-0.8,4.2-1.8,9-2.7,13.1h8.7
		l-0.1,1.3l0,0v0.1c0,0.1,0,0.2,0,0.3c0,0.3,0,0.6-0.1,1c-0.1,0.8-0.1,1.7-0.2,2.3c-0.6,8.1-1.3,14-2.2,18.1
		c-0.8,4.1-1.9,6.8-3.4,8.5c-2.2,2.3-4.4,3.1-7.2,3.5l0,0l0,0c-2.3,0.2-6.2,0.2-10.4,0.2h-1.1v-1.1c-0.1-2.3-1-5.6-2.3-7.8l0.1,0.8
		l-10.1,2.6l-0.2-1.4c-0.5-3.8-2.1-9.7-3.8-14.2L40,57.2l9.7-2.2l0.4,0.9c1.6,3.8,3.1,8.6,4,12.3l1.4,0.2c0.7,0.1,1.4,0.1,2.1,0.2
		l-0.2-0.9c-0.7-2.7-2.7-7.3-4.7-10.6l-0.8-1.3l2.7-1H23.8c-0.4,0.3-0.8,0.7-1.3,1l5.7,1.9v-0.2l10.1-1.3l0.3,1
		c1.6,5.3,2.4,12.2,2.4,16.7v1l-10.7,1.5l0.1-1.4c0.2-4.3-0.5-11-1.8-16.2l-0.2-0.6l-0.1,0.6c-1.6,6.9-4.1,14.7-9.1,19.9l-0.7,0.8
		l-9.4-6.7l1-1C12.6,69.2,14.8,65,16.3,60.3z M53.6,56.7c0.2,0.3,0.4,0.7,0.6,1.1c1.5,2.8,3.1,6.1,3.9,8.7c0.1,0.4,0.2,0.8,0.3,1.2
		l7-2.6c-0.7-2.7-2.7-6.7-4.7-9.9c-0.2-0.2-0.3-0.5-0.5-0.7L53.6,56.7z M62,55.2c1.9,3.2,3.7,7,4.4,9.6l0.3,1.1L58.4,69
		c2.2,0.1,4.1,0.2,5.1,0.1l0,0l0,0c1.2,0,1.7-0.1,2.1-0.5c0.2-0.2,0.5-0.7,0.9-1.6c0.3-0.9,0.7-2.2,1-4c0.4-2,0.7-4.5,1.1-7.7H62
		V55.2z M122.3,27.2h9v9.2h-9v26.5c0.4-0.1,0.8-0.1,1.2-0.2c2-0.4,4.1-0.7,6.1-1.1c0.4-0.1,0.8-0.1,1.2-0.2l0.7,9.4
		c-6.8,1.3-13.9,2.6-20.6,3.9c-6.2,1.1-12,2.2-17.1,3.2C93.4,77.9,93,78,92.6,78L91,67.8c0.4-0.1,0.8-0.1,1.2-0.2
		c1.1-0.2,2.3-0.3,3.5-0.5c0.4-0.1,0.8-0.1,1.2-0.2v-47h9.5v45.5c0.4-0.1,0.8-0.1,1.2-0.2c1.1-0.2,2.2-0.4,3.3-0.5
		c0.4-0.1,0.8-0.1,1.2-0.2V3.3h10.2L122.3,27.2L122.3,27.2z M110.8,63.7V2.2h12.6V26h9v11.6h-9v23.9c2.4-0.4,4.7-0.8,7.1-1.2
		l1.3-0.2l0.9,11.8l-1,0.2c-6.9,1.3-14,2.6-20.7,3.9c-6.7,1.2-12.9,2.4-18.2,3.4l-1.2,0.2l-2-12.6l1.2-0.2c1.5-0.2,3.2-0.5,4.9-0.7
		V18.9h11.9v45.3C108.7,64,109.8,63.8,110.8,63.7z M132.8,2.2h12.6V26h18.2v11.6h-18.2v24.6c0,1.1,0,1.9,0.1,2.5s0.2,0.9,0.2,1.1
		c0,0.1,0.1,0.1,0.2,0.2c0.2,0.1,0.5,0.1,1.2,0.1h7.2c0.4,0,0.6-0.1,0.7-0.2c0.2-0.2,0.5-0.6,0.7-1.6c0.5-1.9,0.7-5,0.9-10.2
		l0.1-2.3l1.8,1.4c2.2,1.7,6,3.4,8.7,4l1,0.2l-0.1,1c-0.5,6.6-1.4,11.5-3.3,14.7c-1,1.7-2.2,2.9-3.9,3.7c-1.6,0.8-3.5,1.1-5.6,1.1
		h-9.8c-4.5,0-7.9-0.8-10-3.5c-2-2.6-2.6-6.7-2.6-12.4V2.2H132.8z M144.3,36.3h18.2v-9.2h-18.2V3.3h-10.2V62
		c0,11.4,2.6,14.7,11.4,14.7h9.8c8.1,0,10.6-5.2,11.6-18.5c-2.4-0.5-5.6-1.9-8-3.4c-0.4-0.3-0.8-0.5-1.2-0.8c0,0.5,0,1-0.1,1.4
		c-0.4,9.2-1,11.8-3.5,11.8h-7.3c-2.6,0-2.9-0.6-2.9-5V36.3H144.3z M198.2,33.5h-8.6v45h-9.9v-54h23.5c0.1-0.4,0.2-0.8,0.3-1.2
		c0.5-2,1-4,1.4-6c0.1-0.4,0.2-0.8,0.2-1.2h-29V6.3H249v9.8h-32.4c-0.1,0.4-0.3,0.8-0.4,1.2c-0.7,2.1-1.4,4.1-2.1,6
		c-0.2,0.4-0.3,0.8-0.5,1.2h31.8v43.9c0,4.5-0.8,6.9-3.7,8.3c-3,1.4-7,1.6-12.4,1.6c-0.3-1.8-1-4.2-1.9-6.3
		c-0.2-0.4-0.3-0.7-0.5-1.1c-0.2-0.4-0.4-0.9-0.6-1.2c0.4,0,0.7,0,1.1,0c0.1,0,0.2,0,0.3,0c2.8,0.1,5.6,0,6.5-0.1
		c1.1,0,1.4-0.3,1.4-1.4V33.3h-9.4V76h-9.6V33.3h-8.9V76h-9.5L198.2,33.5L198.2,33.5z M196.9,34.7h-6.2v45h-12.3V23.3h23.7
		c0.5-1.9,1-4,1.4-6h-28.9V5.2H250v12.2h-32.7c-0.7,2.1-1.4,4.1-2.1,6h31.3v45.1c0,2.3-0.2,4.2-0.9,5.8s-1.8,2.8-3.5,3.6l0,0
		c-3.3,1.6-7.5,1.7-12.9,1.7h-1l-0.2-1c-0.1-0.9-0.4-1.9-0.7-3v1.8h-12V34.8h-6.5v42.6h-11.9V34.7L196.9,34.7z M227.3,68.5V34.6h7
		v33.7c0,0.1,0,0.1,0,0.2c-0.1,0-0.1,0-0.2,0l0,0l0,0C233.3,68.7,230.3,68.7,227.3,68.5z M279.6,16.8c-0.2,0.4-0.3,0.8-0.5,1.2h12.4
		V3.4h10v14.5h27.1v9.4h-27.1v14.2h24.1v9.2h-24.1v16.2h31.2v9.4h-72.3v-9.4h31.1V50.7h-21.8v-9.2h21.8V27.3h-16.7
		c-0.2,0.4-0.4,0.8-0.6,1.2c-1.9,3.6-4,6.9-6.1,9.6c-0.2,0.3-0.5,0.6-0.7,0.9c-0.3-0.2-0.6-0.5-0.9-0.8c-1.8-1.4-4.5-3.2-6.6-4.5
		c-0.4-0.2-0.7-0.4-1.1-0.6c0.3-0.3,0.6-0.6,0.8-0.9c5.9-6.8,10.7-17.3,13.5-27.9l9.9,2.2c-0.1,0.4-0.2,0.8-0.3,1.2
		C281.6,10.8,280.6,13.8,279.6,16.8z M275.6,28.4c-2.3,4.3-4.7,8.2-7.3,11.3l-0.8,1l-0.9-0.8c-1.8-1.6-6-4.4-8.4-5.7l-1.4-0.7
		l1.1-1.1c6.1-6.5,11.2-17.3,14-28.3l0.3-1.1l12.3,2.8L284.2,7c-0.9,3.3-2,6.6-3.2,9.8h9.5V2.3h12.3v14.5h27.1v11.8h-27.1v11.7h24.1
		V52h-24.1v13.8H334v11.8h-74.7V65.8h31.1V52h-21.8V40.3h21.8V28.5L275.6,28.4L275.6,28.4z M31.3,75.5l8.2-1.1
		c0-4.5-0.8-11.2-2.3-16.4l-7.8,1c0.1,0.4,0.2,0.8,0.3,1.2c1,4.6,1.7,10.1,1.6,14.2C31.3,74.7,31.3,75,31.3,75.5z M45.3,72.7l7.8-2
		c-0.6-3.8-2.4-9.7-4.3-14.2l-7.4,1.7c0.1,0.4,0.3,0.7,0.4,1.1c1.4,3.9,2.7,8.6,3.3,12.2C45.3,72,45.3,72.3,45.3,72.7z"/>
</g>
</svg>
