<?xml version="1.0" encoding="utf-8"?>
<!-- Generator: Adobe Illustrator 25.0.1, SVG Export Plug-In . SVG Version: 6.00 Build 0)  -->
<svg version="1.1" id="圖層_1" xmlns="http://www.w3.org/2000/svg" xmlns:xlink="http://www.w3.org/1999/xlink" x="0px" y="0px"
	 viewBox="0 0 941.5 200.1" style="enable-background:new 0 0 941.5 200.1;" xml:space="preserve">
<style type="text/css">
	.st0{fill-rule:evenodd;clip-rule:evenodd;}
	.st1{fill-rule:evenodd;clip-rule:evenodd;fill:#1E1E1E;}
</style>
<g>
	<path class="st0" d="M852.3,85.4v-68h33.5c11,0,19.9,8.9,19.9,19.9c0,4.8-1.7,9.2-4.6,12.6c-0.1,0.2-0.3,0.3-0.4,0.4
		c0.1,0.1,0.3,0.3,0.4,0.4c4,3.6,6.6,8.9,6.6,14.8c0,11-8.9,19.9-19.9,19.9H852.3z M902.4,50.3c4,3.8,6.6,9.3,6.6,15.3
		c0,11.6-9.4,21.1-21.1,21.1h-36.8V16.2h34.7c11.6,0,21.1,9.4,21.1,21.1C906.8,42.2,905.2,46.7,902.4,50.3z M770.7,73.9v11.5h-50.2
		v-68H732v56.5H770.7z M733.2,72.7h38.7v13.9h-52.6V16.2h13.9V72.7z M811.6,14.6l34.3,72h-15.3l-19-39.7l-19.2,39.7h-15.1
		L811.6,14.6z M791.6,85.4h-12.5l32.5-68l32.4,68h-12.6l-19.8-41.3L791.6,85.4z M674.9,31.2h-50.5V17.3h50.5V31.2z M674.9,85.6
		h-50.5V71.7h50.5V85.6z M674.9,58.4h-50.5V44.5h50.5V58.4z M525.4,16.2v13.9H506v56.5h-13.9V30.1h-19.3V16.2H525.4z M474,28.9V17.4
		h50.2v11.5h-19.3v56.5h-11.5V28.9H474z M545.3,16.2v70.4h-13.9V16.2H545.3z M370.5,14.6l34.3,72h-15.3l-19-39.7l-19.2,39.7h-15.1
		L370.5,14.6z M350.5,85.4H338l32.5-68l32.4,68h-12.6l-19.8-41.3L350.5,85.4z M584.9,88.2l-34.4-72h15.1l19.2,39.7l19-39.7h15.3
		L584.9,88.2z M604.6,17.4h12.6l-32.4,68l-32.5-68h12.5l20,41.3L604.6,17.4z M455.1,64.9c-4.1,5.5-10.7,9-18.1,9
		c-12.5,0-22.6-10.1-22.6-22.5s10.1-22.5,22.6-22.5c7.4,0,13.9,3.5,18.1,9l10.5-5.2c-0.2-0.3-0.5-0.7-0.7-1
		c-6.2-8.7-16.4-14.3-27.9-14.3c-18.9,0-34.2,15.2-34.2,34c0,18.8,15.3,34,34.2,34c11.5,0,21.7-5.7,27.9-14.3c0.2-0.3,0.5-0.7,0.7-1
		L455.1,64.9L455.1,64.9C455.1,64.9,455.1,64.9,455.1,64.9z M453.9,64.5c-3.9,5-10,8.2-16.9,8.2c-11.8,0-21.4-9.6-21.4-21.3
		c0-11.7,9.6-21.3,21.4-21.3c7,0,13.2,3.4,17.1,8.5l0.6,0.8l12.6-6.3l-0.8-1.1c-6.3-9.5-17.2-15.8-29.5-15.8
		c-19.5,0-35.4,15.8-35.4,35.2s15.9,35.2,35.4,35.2c12.4,0,23.2-6.3,29.6-15.9l0.7-1.1l-13.4-6.7V64.5z M309.8,71.7v13.9h-13.9V71.7
		H309.8z M151.4,31.2h-50.5V17.3h50.5V31.2z M151.4,85.6h-50.5V71.7h50.5V85.6z M151.4,58.4h-50.5V44.5h50.5V58.4z M32.5,16.2h36.8
		c12.2,0,22.1,9.9,22.1,22.1s-9.9,22.1-22.1,22.1H46.4v26.2H32.5V16.2z M45.2,59.3h24.1c11.6,0,20.9-9.4,20.9-20.9
		s-9.4-20.9-20.9-20.9H33.7v68h11.5V59.3z M162.9,16.2h36.8c12.2,0,22.1,9.9,22.1,22.1c0,11-8.1,20.1-18.6,21.8l19.2,26.5h-16.6
		l-19-26.2h-10v26.2h-13.9V16.2z M187.4,59.3l19,26.2h13.6L201,59.2c0.5,0,0.9-0.1,1.4-0.1c10.3-1.3,18.2-10.1,18.2-20.7
		c0-11.6-9.4-20.9-20.9-20.9h-35.6v68h11.5V59.3H187.4z M287,30.1h-35.7c-4,0-7.2,3.2-7.2,7.2c0,4,3.2,7.2,7.2,7.2H268
		c11.6,0,21.1,9.4,21.1,21.1s-9.4,21.1-21.1,21.1h-35.7V72.7H268c4,0,7.2-3.2,7.2-7.2s-3.2-7.2-7.2-7.2h-16.7
		c-11.6,0-21.1-9.4-21.1-21.1c0-11.6,9.4-21.1,21.1-21.1H287V30.1z M885.8,30.1H865v14.3h20.8c4,0,7.2-3.2,7.2-7.2
		C892.9,33.3,889.7,30.1,885.8,30.1z M865,72.7h22.9c4,0,7.2-3.2,7.2-7.2s-3.2-7.2-7.2-7.2H865V72.7z M673.7,18.5V30h-48.1V18.5
		H673.7z M673.7,72.9v11.5h-48.1V72.9H673.7z M673.7,45.7v11.5h-48.1V45.7H673.7z M532.6,85.4h11.5v-68h-11.5V85.4z M297.1,84.4
		h11.5V72.9h-11.5V84.4z M150.2,18.5V30h-48.1V18.5H150.2z M150.2,72.9v11.5h-48.1V72.9H150.2z M150.2,45.7v11.5h-48.1V45.7H150.2z
		 M46.4,46.6h22.9c4.5,0,8.2-3.7,8.2-8.2s-3.7-8.2-8.2-8.2H46.4V46.6z M176.8,46.6h22.9c4.5,0,8.2-3.7,8.2-8.2s-3.7-8.2-8.2-8.2
		h-22.9V46.6z M285.8,17.4h-34.5c-11,0-19.9,8.9-19.9,19.9c0,11,8.9,19.9,19.9,19.9H268c4.6,0,8.4,3.7,8.4,8.4s-3.7,8.4-8.4,8.4
		h-34.5v11.5H268c11,0,19.9-8.9,19.9-19.9S279,45.7,268,45.7h-16.7c-4.6,0-8.4-3.7-8.4-8.4s3.7-8.4,8.4-8.4h34.5V17.4z M69.3,47.8
		c5.2,0,9.4-4.2,9.4-9.4s-4.2-9.4-9.4-9.4H45.2v18.8H69.3z M863.8,28.9v16.7h22c4.6,0,8.4-3.7,8.4-8.4s-3.7-8.4-8.4-8.4H863.8z
		 M887.9,73.9c4.6,0,8.4-3.7,8.4-8.4s-3.7-8.4-8.4-8.4h-24.1v16.7H887.9z M175.6,47.8V28.9h24.1c5.2,0,9.4,4.2,9.4,9.4
		s-4.2,9.4-9.4,9.4H175.6z"/>
	<path class="st1" d="M322.8,150.6c0.2-0.2,0.4-0.3,0.6-0.5c5.8-5.3,10.5-11.5,14.3-18.2c0.2-0.4,0.4-0.8,0.7-1.2h-25.1v-8.6h15.7
		c-0.2-0.4-0.4-0.8-0.7-1.2c-1.4-2.4-3.3-5.2-5.2-7.5c-0.3-0.3-0.5-0.7-0.8-1l8.6-3.4c2.5,2.7,5.5,6.5,7.2,9.4
		c0.2,0.4,0.4,0.7,0.6,1.1l-6.3,2.6h10c0.2-0.4,0.3-0.8,0.5-1.2c1.6-3.9,2.9-7.9,3.9-11.9l9.8,2.3c-0.1,0.4-0.2,0.8-0.4,1.1
		c-0.9,2.8-1.9,5.7-3,8.5c-0.2,0.4-0.3,0.8-0.5,1.2h20.3c-0.1,0.4-0.1,0.8-0.2,1.2c-0.8,4.1-1.7,8.5-2.7,12.3
		c-0.1,0.4-0.2,0.8-0.3,1.2h8.4c-0.1,0.4-0.2,0.8-0.2,1.2c-0.8,4-1.7,8.4-2.6,12.1c-0.1,0.4-0.2,0.8-0.3,1.2h8.9c0,0,0,0.5-0.1,1.2
		c-0.1,0.8-0.1,1.8-0.2,2.5c-1.3,16.2-2.7,23.2-5.3,25.9c-1.9,2.1-3.8,2.8-6.5,3.1c-2.2,0.2-6.1,0.2-10.2,0.2
		c-0.1-2.2-0.9-5.2-2-7.5c-0.2-0.5-0.5-0.9-0.7-1.3c0.5,0.1,1,0.1,1.5,0.2c3,0.3,5.6,0.3,7,0.2c1.4,0,2.2-0.2,3-0.9
		c1.3-1.3,2.4-5.3,3.3-14.2c0-0.4,0.1-0.8,0.1-1.2H327c-0.5,0.4-1,0.8-1.5,1.2c-0.2,0.2-0.5,0.4-0.7,0.6c-0.3,0.3-0.7,0.5-1,0.8
		c0,0-0.1,0.1-0.1,0.1l7,2.3c-1.6,6.9-4.1,14.4-8.8,19.4l-7.4-5.3c0.3-0.3,0.6-0.6,0.8-0.9c2.9-3.3,5.1-8,6.5-12.8
		c0.2-0.6,0.3-1.2,0.5-1.8c-0.5,0.4-1,0.7-1.5,1.1c-1.7,1.1-3.5,2.2-5.3,3.3c-0.3,0.2-0.7,0.4-1.1,0.6c-0.2-0.3-0.3-0.7-0.5-1.1
		c-1-2-2.6-4.5-3.9-6.3c-0.3-0.4-0.5-0.7-0.7-1c0.4-0.2,0.7-0.4,1.1-0.6C315,156.8,319.1,153.9,322.8,150.6z M367.7,146.3
		c0.1-0.4,0.2-0.8,0.3-1.2h-27.5c-0.3,0.4-0.6,0.8-0.9,1.2c-1,1.3-2,2.6-3.1,3.8c-0.3,0.4-0.7,0.8-1,1.2h31.1
		c0.1-0.4,0.2-0.8,0.3-1.2C367.1,148.9,367.4,147.6,367.7,146.3z M365.6,150.1c0.3-1.2,0.6-2.5,0.9-3.8H341c-1,1.3-2,2.6-3,3.8
		H365.6z M362.4,132c0.1-0.4,0.2-0.8,0.3-1.2H349c-0.2,0.4-0.4,0.8-0.6,1.2c-0.6,1.2-1.3,2.5-2,3.7c-0.2,0.4-0.4,0.8-0.7,1.2h15.5
		c0.1-0.4,0.2-0.8,0.3-1.2C361.8,134.5,362.1,133.2,362.4,132z M360.3,135.6c0.3-1.2,0.6-2.4,0.9-3.7h-11.4
		c-0.6,1.2-1.3,2.5-1.9,3.7H360.3z M320.3,166c-1.7,1.1-3.4,2.1-5.2,3.1l-1.1,0.6l-0.5-1.2c-1.1-2.3-3.4-6.1-5-8.1l-0.9-1.2l1.3-0.7
		c12-6,21-15.6,27.3-26.7H312v-11h14.8c-1.5-2.5-3.6-5.4-5.6-7.7l-1.1-1.3l11-4.3l0.6,0.6c2.8,3.1,6.3,7.6,8,10.7l0.6,1.2l-1.8,0.7
		h3.1c1.6-4,3-8.1,4.1-12.2l0.3-1.1l12.2,2.9l-0.4,1.2c-1,3.1-2,6.2-3.2,9.2h20l-0.3,1.4c-0.8,4.3-1.8,9.2-2.8,13.3h8.3l-0.3,1.4
		c-0.8,4.2-1.8,9-2.7,13.1h8.7l-0.1,1.3l0,0l0,0.1c0,0.1,0,0.2,0,0.3c0,0.3,0,0.6-0.1,1c-0.1,0.8-0.1,1.7-0.2,2.3
		c-0.6,8.1-1.3,14-2.2,18.1c-0.8,4.1-1.9,6.8-3.4,8.5c-2.2,2.3-4.4,3.1-7.2,3.5l0,0l0,0c-2.3,0.2-6.2,0.2-10.4,0.2l-1.1,0l0-1.1
		c-0.1-2.3-1-5.6-2.3-7.8l0.1,0.8l-10.1,2.6l-0.2-1.4c-0.5-3.8-2.1-9.7-3.8-14.2l-0.5-1.3l9.7-2.2l0.4,0.9c1.6,3.8,3.1,8.6,4,12.3
		l1.4,0.2c0.7,0.1,1.4,0.1,2.1,0.2l-0.2-0.9c-0.7-2.7-2.7-7.3-4.7-10.6l-0.8-1.3l2.7-1h-30.9c-0.4,0.3-0.8,0.7-1.3,1l5.7,1.9l0-0.2
		l10.1-1.3l0.3,1c1.6,5.3,2.4,12.2,2.4,16.7v1l-10.7,1.5l0.1-1.4c0.2-4.3-0.5-11-1.8-16.2l-0.2-0.6l-0.1,0.6
		c-1.6,6.9-4.1,14.7-9.1,19.9l-0.7,0.8l-9.4-6.7l1-1C316.5,174.9,318.8,170.6,320.3,166z M357.5,162.4c0.2,0.3,0.4,0.7,0.6,1.1
		c1.5,2.8,3.1,6.1,3.9,8.7c0.1,0.4,0.2,0.8,0.3,1.2l7-2.6c-0.7-2.7-2.7-6.7-4.7-9.9c-0.2-0.2-0.3-0.5-0.5-0.7L357.5,162.4z
		 M366,160.8c1.9,3.2,3.7,7,4.4,9.6l0.3,1.1l-8.3,3.1c2.2,0.1,4.1,0.2,5.1,0.1l0,0h0c1.2,0,1.7-0.1,2.1-0.5c0.2-0.2,0.5-0.7,0.9-1.6
		c0.3-0.9,0.7-2.2,1-4c0.4-2,0.7-4.5,1.1-7.7H366z M426.2,132.8h9v9.2h-9v26.5c0.4-0.1,0.8-0.1,1.2-0.2c2-0.4,4.1-0.7,6.1-1.1
		c0.4-0.1,0.8-0.1,1.2-0.2l0.7,9.4c-6.8,1.3-13.9,2.6-20.6,3.9c-6.2,1.1-12,2.2-17.1,3.2c-0.4,0.1-0.8,0.2-1.2,0.2l-1.6-10.2
		c0.4-0.1,0.8-0.1,1.2-0.2c1.1-0.2,2.3-0.3,3.5-0.5c0.4-0.1,0.8-0.1,1.2-0.2v-47h9.5v45.5c0.4-0.1,0.8-0.1,1.2-0.2
		c1.1-0.2,2.2-0.4,3.3-0.5c0.4-0.1,0.8-0.1,1.2-0.2v-61.2h10.2V132.8z M414.8,169.3v-61.4h12.6v23.8h9v11.6h-9v23.9
		c2.4-0.4,4.7-0.8,7.1-1.2l1.3-0.2l0.9,11.8l-1,0.2c-6.9,1.3-14,2.6-20.7,3.9c-6.7,1.2-12.9,2.4-18.2,3.4l-1.2,0.2l-2-12.6l1.2-0.2
		c1.5-0.2,3.2-0.5,4.9-0.7v-47.2h11.9v45.3C412.6,169.7,413.7,169.5,414.8,169.3z M436.8,107.9h12.6v23.8h18.2v11.6h-18.2v24.6
		c0,1.1,0,1.9,0.1,2.5c0.1,0.6,0.2,0.9,0.2,1.1c0,0.1,0.1,0.1,0.2,0.2c0.2,0.1,0.5,0.1,1.2,0.1h7.2c0.4,0,0.6-0.1,0.7-0.2
		c0.2-0.2,0.5-0.6,0.7-1.6c0.5-1.9,0.7-5,0.9-10.2l0.1-2.3l1.8,1.4c2.2,1.7,6,3.4,8.7,4l1,0.2l-0.1,1c-0.5,6.6-1.4,11.5-3.3,14.7
		c-1,1.7-2.2,2.9-3.9,3.7c-1.6,0.8-3.5,1.1-5.6,1.1h-9.8c-4.5,0-7.9-0.8-10-3.5c-2-2.6-2.6-6.7-2.6-12.4V107.9z M448.2,142h18.2
		v-9.2h-18.2v-23.8H438v58.6c0,11.4,2.6,14.7,11.4,14.7h9.8c8.1,0,10.6-5.2,11.6-18.5c-2.4-0.5-5.6-1.9-8-3.4
		c-0.4-0.3-0.8-0.5-1.2-0.8c0,0.5,0,1-0.1,1.4c-0.4,9.2-1,11.8-3.5,11.8h-7.2c-2.6,0-2.9-0.6-2.9-5V142z M502.1,139.2h-8.6v45h-9.9
		v-54h23.5c0.1-0.4,0.2-0.8,0.3-1.2c0.5-2,1-4,1.4-6c0.1-0.4,0.2-0.8,0.2-1.2H480V112h72.9v9.8h-32.4c-0.1,0.4-0.3,0.8-0.4,1.2
		c-0.7,2.1-1.4,4.1-2.1,6c-0.2,0.4-0.3,0.8-0.5,1.2h31.8v43.9c0,4.5-0.8,6.9-3.7,8.3c-3,1.4-7,1.6-12.4,1.6c-0.3-1.8-1-4.2-1.9-6.3
		c-0.2-0.4-0.3-0.7-0.5-1.1c-0.2-0.4-0.4-0.9-0.6-1.2c0.4,0,0.7,0,1.1,0c0.1,0,0.2,0,0.3,0c2.8,0.1,5.6,0,6.5-0.1
		c1.1,0,1.4-0.3,1.4-1.4v-34.9h-9.4v42.6h-9.6v-42.6h-8.9v42.6h-9.5V139.2z M500.9,140.4h-6.2v45h-12.3V129h23.7c0.5-1.9,1-4,1.4-6
		h-28.9v-12.2H554V123h-32.7c-0.7,2.1-1.4,4.1-2.1,6h31.3v45.1c0,2.3-0.2,4.2-0.9,5.8c-0.7,1.6-1.8,2.8-3.5,3.6l0,0
		c-3.3,1.6-7.5,1.7-12.9,1.7h-1l-0.2-1c-0.1-0.9-0.4-1.9-0.7-3v1.8h-12v-42.6h-6.5V183h-11.9V140.4z M531.3,174.2v-33.9h7V174
		c0,0.1,0,0.1,0,0.2c-0.1,0-0.1,0-0.2,0h0l0,0C537.2,174.3,534.2,174.3,531.3,174.2z M583.5,122.4c-0.2,0.4-0.3,0.8-0.5,1.2h12.4
		v-14.5h10v14.5h27.1v9.4h-27.1v14.2h24.1v9.2h-24.1v16.2h31.2v9.4h-72.3v-9.4h31.1v-16.2h-21.8v-9.2h21.8v-14.2h-16.7
		c-0.2,0.4-0.4,0.8-0.6,1.2c-1.9,3.6-4,6.9-6.1,9.6c-0.2,0.3-0.5,0.6-0.7,0.9c-0.3-0.2-0.6-0.5-0.9-0.8c-1.8-1.4-4.5-3.2-6.6-4.5
		c-0.4-0.2-0.7-0.4-1.1-0.6c0.3-0.3,0.6-0.6,0.8-0.9c5.9-6.8,10.7-17.3,13.5-27.9l9.9,2.2c-0.1,0.4-0.2,0.8-0.3,1.2
		C585.6,116.4,584.6,119.4,583.5,122.4z M579.5,134.1c-2.3,4.3-4.7,8.2-7.3,11.3l-0.8,1l-0.9-0.8c-1.8-1.6-6-4.4-8.4-5.7l-1.4-0.7
		l1.1-1.1c6.1-6.5,11.2-17.3,14-28.3l0.3-1.1l12.3,2.8l-0.3,1.2c-0.9,3.3-2,6.6-3.2,9.8h9.5v-14.5h12.4v14.5h27.1v11.8h-27.1V146
		h24.1v11.6h-24.1v13.8h31.2v11.8h-74.7v-11.8h31.1v-13.8h-21.8V146h21.8v-11.8H579.5z M335.2,181.1l8.2-1.1
		c0-4.5-0.8-11.2-2.3-16.4l-7.8,1c0.1,0.4,0.2,0.8,0.3,1.2c1,4.6,1.7,10.1,1.6,14.2C335.2,180.3,335.2,180.7,335.2,181.1z
		 M349.3,178.4l7.8-2c-0.6-3.8-2.4-9.7-4.3-14.2l-7.4,1.7c0.1,0.4,0.3,0.7,0.4,1.1c1.4,3.9,2.7,8.6,3.3,12.2
		C349.2,177.6,349.3,178,349.3,178.4z"/>
</g>
</svg>
