<?xml version="1.0" encoding="utf-8"?>
<!-- Generator: Adobe Illustrator 25.0.1, SVG Export Plug-In . SVG Version: 6.00 Build 0)  -->
<svg version="1.1" id="圖層_1" xmlns="http://www.w3.org/2000/svg" xmlns:xlink="http://www.w3.org/1999/xlink" x="0px" y="0px"
	 viewBox="0 0 886.7 81.5" style="enable-background:new 0 0 886.7 81.5;" xml:space="preserve">
<style type="text/css">
	.st0{fill-rule:evenodd;clip-rule:evenodd;}
</style>
<g>
	<path class="st0" d="M823.2,74.9v-68h33.5c11,0,19.9,8.9,19.9,19.9c0,4.8-1.7,9.2-4.6,12.6c-0.1,0.2-0.3,0.3-0.4,0.4
		c0.1,0.1,0.3,0.3,0.4,0.4c4,3.6,6.6,8.9,6.6,14.8c0,11-8.9,19.9-19.9,19.9H823.2z M873.2,39.8c4,3.8,6.6,9.3,6.6,15.3
		c0,11.6-9.4,21.1-21.1,21.1h-36.8V5.7h34.7c11.6,0,21.1,9.4,21.1,21.1C877.7,31.7,876,36.2,873.2,39.8z M741.6,63.4v11.5h-50.2v-68
		h11.5v56.5H741.6z M704.1,62.2h38.7v13.9h-52.6V5.7h13.9L704.1,62.2L704.1,62.2z M782.4,4.1l34.3,72h-15.3l-19-39.7l-19.2,39.7
		h-15.1L782.4,4.1z M762.4,74.9h-12.5l32.5-68l32.4,68h-12.6l-19.8-41.3L762.4,74.9z M645.8,20.7h-50.5V6.8h50.5V20.7z M645.8,75.1
		h-50.5V61.2h50.5V75.1z M645.8,47.9h-50.5V34h50.5V47.9z M496.3,5.7v13.9H477v56.5h-13.9V19.6h-19.3V5.7H496.3z M444.9,18.4V6.9
		h50.2v11.5h-19.3v56.5h-11.5V18.4H444.9z M516.1,5.7v70.4h-13.9V5.7H516.1z M341.4,4.1l34.3,72h-15.3l-19-39.7l-19.2,39.7h-15.1
		L341.4,4.1z M321.4,74.9h-12.5l32.5-68l32.4,68h-12.6l-19.8-41.3L321.4,74.9z M555.8,77.7l-34.4-72h15.1l19.2,39.7l19-39.7H590
		L555.8,77.7z M575.5,6.9h12.6l-32.4,68l-32.5-68h12.5l20,41.3L575.5,6.9z M426,54.4c-4.1,5.5-10.7,9-18.1,9
		c-12.5,0-22.6-10.1-22.6-22.5s10.1-22.5,22.6-22.5c7.4,0,13.9,3.5,18.1,9l10.5-5.2c-0.2-0.3-0.5-0.7-0.7-1
		c-6.2-8.7-16.4-14.3-27.9-14.3c-18.9,0-34.2,15.2-34.2,34s15.3,34,34.2,34c11.5,0,21.7-5.7,27.9-14.3c0.2-0.3,0.5-0.7,0.7-1
		L426,54.4L426,54.4L426,54.4z M424.8,54c-3.9,5-10,8.2-16.9,8.2c-11.8,0-21.4-9.6-21.4-21.3s9.6-21.3,21.4-21.3
		c7,0,13.2,3.4,17.1,8.5l0.6,0.8l12.6-6.3l-0.8-1.1c-6.3-9.5-17.2-15.8-29.5-15.8c-19.5,0-35.4,15.8-35.4,35.2s15.9,35.2,35.4,35.2
		c12.4,0,23.2-6.3,29.6-15.9l0.7-1.1l-13.4-6.7L424.8,54L424.8,54z M280.7,61.2v13.9h-13.9V61.2H280.7z M122.3,20.7H71.8V6.8h50.5
		V20.7z M122.3,75.1H71.8V61.2h50.5V75.1z M122.3,47.9H71.8V34h50.5V47.9z M3.4,5.7h36.8c12.2,0,22.1,9.9,22.1,22.1
		s-9.9,22.1-22.1,22.1H17.3v26.2H3.4V5.7z M16.1,48.8h24.1c11.6,0,20.9-9.4,20.9-20.9S51.7,7,40.2,7H4.6v68h11.5V48.8z M133.8,5.7
		h36.8c12.2,0,22.1,9.9,22.1,22.1c0,11-8.1,20.1-18.6,21.8l19.2,26.5h-16.6l-19-26.2h-10v26.2h-13.9V5.7z M158.3,48.8l19,26.2h13.6
		l-19.1-26.2c0.5,0,0.9-0.1,1.4-0.1c10.3-1.3,18.2-10.1,18.2-20.7c0-11.6-9.4-20.9-20.9-20.9h-35.6v68h11.5V48.8H158.3z M257.8,19.6
		h-35.7c-4,0-7.2,3.2-7.2,7.2s3.2,7.2,7.2,7.2h16.7c11.6,0,21.1,9.4,21.1,21.1s-9.4,21.1-21.1,21.1h-35.7v-14h35.7
		c4,0,7.2-3.2,7.2-7.2s-3.2-7.2-7.2-7.2h-16.7c-11.6,0-21.1-9.4-21.1-21.1c0-11.6,9.4-21.1,21.1-21.1h35.7V19.6z M856.6,19.6h-20.8
		v14.3h20.8c4,0,7.2-3.2,7.2-7.2C863.8,22.8,860.6,19.6,856.6,19.6z M835.9,62.2h22.9c4,0,7.2-3.2,7.2-7.2s-3.2-7.2-7.2-7.2h-22.9
		V62.2z M644.6,8v11.5h-48.1V8H644.6z M644.6,62.4v11.5h-48.1V62.4H644.6z M644.6,35.2v11.5h-48.1V35.2H644.6z M503.4,74.9h11.5v-68
		h-11.5L503.4,74.9L503.4,74.9z M268,73.9h11.5V62.4H268V73.9z M121.1,8v11.5H73V8H121.1z M121.1,62.4v11.5H73V62.4H121.1z
		 M121.1,35.2v11.5H73V35.2H121.1z M17.3,36.1h22.9c4.5,0,8.2-3.7,8.2-8.2s-3.7-8.2-8.2-8.2H17.3V36.1z M147.7,36.1h22.9
		c4.5,0,8.2-3.7,8.2-8.2s-3.7-8.2-8.2-8.2h-22.9V36.1z M256.6,6.9h-34.5c-11,0-19.9,8.9-19.9,19.9s8.9,19.9,19.9,19.9h16.7
		c4.6,0,8.4,3.7,8.4,8.4s-3.7,8.4-8.4,8.4h-34.5V75h34.5c11,0,19.9-8.9,19.9-19.9s-8.9-19.9-19.9-19.9h-16.7c-4.6,0-8.4-3.7-8.4-8.4
		s3.7-8.4,8.4-8.4h34.5L256.6,6.9L256.6,6.9z M40.2,37.3c5.2,0,9.4-4.2,9.4-9.4s-4.2-9.4-9.4-9.4H16.1v18.8H40.2z M834.7,18.4v16.7
		h22c4.6,0,8.4-3.7,8.4-8.4s-3.7-8.4-8.4-8.4L834.7,18.4L834.7,18.4z M858.7,63.4c4.6,0,8.4-3.7,8.4-8.4s-3.7-8.4-8.4-8.4h-24.1
		v16.7L858.7,63.4L858.7,63.4z M146.5,37.3V18.4h24.1c5.2,0,9.4,4.2,9.4,9.4s-4.2,9.4-9.4,9.4L146.5,37.3L146.5,37.3z"/>
</g>
</svg>
