<?xml version="1.0" encoding="utf-8"?>
<!-- Generator: Adobe Illustrator 25.0.1, SVG Export Plug-In . SVG Version: 6.00 Build 0)  -->
<svg version="1.1" id="圖層_1" xmlns="http://www.w3.org/2000/svg" xmlns:xlink="http://www.w3.org/1999/xlink" x="0px" y="0px"
	 viewBox="0 0 1289.2 114.8" style="enable-background:new 0 0 1289.2 114.8;" xml:space="preserve">
<style type="text/css">
	.st0{fill-rule:evenodd;clip-rule:evenodd;}
	.st1{fill-rule:evenodd;clip-rule:evenodd;fill:#1E1E1E;}
</style>
<g>
	<path class="st0" d="M847.9,91.4v-68h33.5c11,0,19.9,8.9,19.9,19.9c0,4.8-1.7,9.2-4.6,12.6c-0.1,0.2-0.3,0.3-0.4,0.4
		c0.1,0.1,0.3,0.3,0.4,0.4c4,3.6,6.6,8.9,6.6,14.8c0,11-8.9,19.9-19.9,19.9H847.9z M897.9,56.3c4,3.8,6.6,9.3,6.6,15.3
		c0,11.6-9.4,21.1-21.1,21.1h-36.8V22.2h34.7c11.6,0,21.1,9.4,21.1,21.1C902.4,48.2,900.7,52.7,897.9,56.3z M766.3,79.9v11.5h-50.2
		v-68h11.5v56.5H766.3z M728.8,78.7h38.7v13.9h-52.6V22.2h13.9V78.7z M807.1,20.6l34.3,72h-15.3l-19-39.7l-19.2,39.7h-15.1
		L807.1,20.6z M787.1,91.4h-12.5l32.5-68l32.4,68h-12.6l-19.8-41.3L787.1,91.4z M670.5,37.2H620V23.3h50.5V37.2z M670.5,91.6H620
		V77.7h50.5V91.6z M670.5,64.4H620V50.5h50.5V64.4z M521,22.2v13.9h-19.3v56.5h-13.9V36.1h-19.3V22.2H521z M469.6,34.9V23.4h50.2
		v11.5h-19.3v56.5h-11.5V34.9H469.6z M540.8,22.2v70.4h-13.9V22.2H540.8z M366.1,20.6l34.3,72h-15.3l-19-39.7l-19.2,39.7h-15.1
		L366.1,20.6z M346.1,91.4h-12.5l32.5-68l32.4,68h-12.6l-19.8-41.3L346.1,91.4z M580.5,94.2l-34.4-72h15.1l19.2,39.7l19-39.7h15.3
		L580.5,94.2z M600.2,23.4h12.6l-32.4,68l-32.5-68h12.5l20,41.3L600.2,23.4z M450.7,70.9c-4.1,5.5-10.7,9-18.1,9
		c-12.5,0-22.6-10.1-22.6-22.5s10.1-22.5,22.6-22.5c7.4,0,13.9,3.5,18.1,9l10.5-5.2c-0.2-0.3-0.5-0.7-0.7-1
		c-6.2-8.7-16.4-14.3-27.9-14.3c-18.9,0-34.2,15.2-34.2,34c0,18.8,15.3,34,34.2,34c11.5,0,21.7-5.7,27.9-14.3c0.2-0.3,0.5-0.7,0.7-1
		L450.7,70.9L450.7,70.9C450.7,70.9,450.7,70.9,450.7,70.9z M449.5,70.5c-3.9,5-10,8.2-16.9,8.2c-11.8,0-21.4-9.6-21.4-21.3
		c0-11.7,9.6-21.3,21.4-21.3c7,0,13.2,3.4,17.1,8.5l0.6,0.8l12.6-6.3l-0.8-1.1c-6.3-9.5-17.2-15.8-29.5-15.8
		c-19.5,0-35.4,15.8-35.4,35.2s15.9,35.2,35.4,35.2c12.4,0,23.2-6.3,29.6-15.9l0.7-1.1l-13.4-6.7V70.5z M305.4,77.7v13.9h-13.9V77.7
		H305.4z M147,37.2H96.5V23.3H147V37.2z M147,91.6H96.5V77.7H147V91.6z M147,64.4H96.5V50.5H147V64.4z M28.1,22.2h36.8
		c12.2,0,22.1,9.9,22.1,22.1s-9.9,22.1-22.1,22.1H42v26.2H28.1V22.2z M40.8,65.3h24.1c11.6,0,20.9-9.4,20.9-20.9
		s-9.4-20.9-20.9-20.9H29.3v68h11.5V65.3z M158.5,22.2h36.8c12.2,0,22.1,9.9,22.1,22.1c0,11-8.1,20.1-18.6,21.8L218,92.6h-16.6
		l-19-26.2h-10v26.2h-13.9V22.2z M183,65.3l19,26.2h13.6l-19.1-26.2c0.5,0,0.9-0.1,1.4-0.1c10.3-1.3,18.2-10.1,18.2-20.7
		c0-11.6-9.4-20.9-20.9-20.9h-35.6v68h11.5V65.3H183z M282.5,36.1h-35.7c-4,0-7.2,3.2-7.2,7.2c0,4,3.2,7.2,7.2,7.2h16.7
		c11.6,0,21.1,9.4,21.1,21.1s-9.4,21.1-21.1,21.1h-35.7V78.7h35.7c4,0,7.2-3.2,7.2-7.2s-3.2-7.2-7.2-7.2h-16.7
		c-11.6,0-21.1-9.4-21.1-21.1c0-11.6,9.4-21.1,21.1-21.1h35.7V36.1z M881.3,36.1h-20.8v14.3h20.8c4,0,7.2-3.2,7.2-7.2
		C888.5,39.3,885.3,36.1,881.3,36.1z M860.6,78.7h22.9c4,0,7.2-3.2,7.2-7.2s-3.2-7.2-7.2-7.2h-22.9V78.7z M669.3,24.5V36h-48.1V24.5
		H669.3z M669.3,78.9v11.5h-48.1V78.9H669.3z M669.3,51.7v11.5h-48.1V51.7H669.3z M528.1,91.4h11.5v-68h-11.5V91.4z M292.7,90.4
		h11.5V78.9h-11.5V90.4z M145.8,24.5V36H97.7V24.5H145.8z M145.8,78.9v11.5H97.7V78.9H145.8z M145.8,51.7v11.5H97.7V51.7H145.8z
		 M42,52.6h22.9c4.5,0,8.2-3.7,8.2-8.2s-3.7-8.2-8.2-8.2H42V52.6z M172.4,52.6h22.9c4.5,0,8.2-3.7,8.2-8.2s-3.7-8.2-8.2-8.2h-22.9
		V52.6z M281.3,23.4h-34.5c-11,0-19.9,8.9-19.9,19.9c0,11,8.9,19.9,19.9,19.9h16.7c4.6,0,8.4,3.7,8.4,8.4s-3.7,8.4-8.4,8.4H229v11.5
		h34.5c11,0,19.9-8.9,19.9-19.9s-8.9-19.9-19.9-19.9h-16.7c-4.6,0-8.4-3.7-8.4-8.4s3.7-8.4,8.4-8.4h34.5V23.4z M64.9,53.8
		c5.2,0,9.4-4.2,9.4-9.4s-4.2-9.4-9.4-9.4H40.8v18.8H64.9z M859.4,34.9v16.7h22c4.6,0,8.4-3.7,8.4-8.4s-3.7-8.4-8.4-8.4H859.4z
		 M883.4,79.9c4.6,0,8.4-3.7,8.4-8.4s-3.7-8.4-8.4-8.4h-24.1v16.7H883.4z M171.2,53.8V34.9h24.1c5.2,0,9.4,4.2,9.4,9.4
		s-4.2,9.4-9.4,9.4H171.2z"/>
	<path class="st1" d="M946.1,61.5c0.2-0.2,0.4-0.3,0.6-0.5c5.8-5.3,10.5-11.5,14.3-18.2c0.2-0.4,0.4-0.8,0.7-1.2h-25.1V33h15.7
		c-0.2-0.4-0.4-0.8-0.7-1.2c-1.4-2.4-3.3-5.2-5.2-7.5c-0.3-0.3-0.5-0.7-0.8-1l8.6-3.4c2.5,2.7,5.5,6.5,7.2,9.4
		c0.2,0.4,0.4,0.7,0.6,1.1l-6.3,2.6h10c0.2-0.4,0.3-0.8,0.5-1.2c1.6-3.9,2.9-7.9,3.9-11.9l9.8,2.3c-0.1,0.4-0.2,0.8-0.4,1.1
		c-0.9,2.8-1.9,5.7-3,8.5c-0.2,0.4-0.3,0.8-0.5,1.2h20.3c-0.1,0.4-0.1,0.8-0.2,1.2c-0.8,4.1-1.7,8.5-2.7,12.3
		c-0.1,0.4-0.2,0.8-0.3,1.2h8.4c-0.1,0.4-0.2,0.8-0.2,1.2c-0.8,4-1.7,8.4-2.6,12.1c-0.1,0.4-0.2,0.8-0.3,1.2h8.9c0,0,0,0.5-0.1,1.2
		c-0.1,0.8-0.1,1.8-0.2,2.5c-1.3,16.2-2.7,23.2-5.3,25.9c-1.9,2.1-3.8,2.8-6.5,3.1c-2.2,0.2-6.1,0.2-10.2,0.2
		c-0.1-2.2-0.9-5.2-2-7.5c-0.2-0.5-0.5-0.9-0.7-1.3c0.5,0.1,1,0.1,1.5,0.2c3,0.3,5.6,0.3,7,0.2c1.4,0,2.2-0.2,3-0.9
		c1.3-1.3,2.4-5.3,3.3-14.2c0-0.4,0.1-0.8,0.1-1.2h-46.9c-0.5,0.4-1,0.8-1.5,1.2c-0.2,0.2-0.5,0.4-0.7,0.6c-0.3,0.3-0.7,0.5-1,0.8
		c0,0-0.1,0.1-0.1,0.1l7,2.3c-1.6,6.9-4.1,14.4-8.8,19.4l-7.4-5.3c0.3-0.3,0.6-0.6,0.8-0.9c2.9-3.3,5.1-8,6.5-12.8
		c0.2-0.6,0.3-1.2,0.5-1.8c-0.5,0.4-1,0.7-1.5,1.1c-1.7,1.1-3.5,2.2-5.3,3.3c-0.3,0.2-0.7,0.4-1.1,0.6c-0.2-0.3-0.3-0.7-0.5-1.1
		c-1-2-2.6-4.5-3.9-6.3c-0.3-0.4-0.5-0.7-0.7-1c0.4-0.2,0.7-0.4,1.1-0.6C938.3,67.7,942.4,64.8,946.1,61.5z M991.1,57.2
		c0.1-0.4,0.2-0.8,0.3-1.2h-27.5c-0.3,0.4-0.6,0.8-0.9,1.2c-1,1.3-2,2.6-3.1,3.8c-0.3,0.4-0.7,0.8-1,1.2h31.1
		c0.1-0.4,0.2-0.8,0.3-1.2C990.5,59.8,990.8,58.5,991.1,57.2z M988.9,61c0.3-1.2,0.6-2.5,0.9-3.8h-25.4c-1,1.3-2,2.6-3,3.8H988.9z
		 M985.7,42.9c0.1-0.4,0.2-0.8,0.3-1.2h-13.6c-0.2,0.4-0.4,0.8-0.6,1.2c-0.6,1.2-1.3,2.5-2,3.7c-0.2,0.4-0.4,0.8-0.7,1.2h15.5
		c0.1-0.4,0.2-0.8,0.3-1.2C985.1,45.4,985.4,44.1,985.7,42.9z M983.6,46.5c0.3-1.2,0.6-2.4,0.9-3.7h-11.4c-0.6,1.2-1.3,2.5-1.9,3.7
		H983.6z M943.6,76.9c-1.7,1.1-3.4,2.1-5.2,3.1l-1.1,0.6l-0.5-1.2c-1.1-2.3-3.4-6.1-5-8.1l-0.9-1.2l1.3-0.7c12-6,21-15.6,27.3-26.7
		h-24.2v-11h14.8c-1.5-2.5-3.6-5.4-5.6-7.7l-1.1-1.3l11-4.3l0.6,0.6c2.8,3.1,6.3,7.6,8,10.7l0.6,1.2l-1.8,0.7h3.1
		c1.6-4,3-8.1,4.1-12.2l0.3-1.1l12.2,2.9l-0.4,1.2c-1,3.1-2,6.2-3.2,9.2h20l-0.3,1.4c-0.8,4.3-1.8,9.2-2.8,13.3h8.3l-0.3,1.4
		c-0.8,4.2-1.8,9-2.7,13.1h8.7l-0.1,1.3l0,0l0,0.1c0,0.1,0,0.2,0,0.3c0,0.3,0,0.6-0.1,1c-0.1,0.8-0.1,1.7-0.2,2.3
		c-0.6,8.1-1.3,14-2.2,18.1c-0.8,4.1-1.9,6.8-3.4,8.5c-2.2,2.3-4.4,3.1-7.2,3.5l0,0l0,0c-2.3,0.2-6.2,0.2-10.4,0.2l-1.1,0l0-1.1
		c-0.1-2.3-1-5.6-2.3-7.8l0.1,0.8l-10.1,2.6l-0.2-1.4c-0.5-3.8-2.1-9.7-3.8-14.2l-0.5-1.3l9.7-2.2l0.4,0.9c1.6,3.8,3.1,8.6,4,12.3
		l1.4,0.2c0.7,0.1,1.4,0.1,2.1,0.2l-0.2-0.9c-0.7-2.7-2.7-7.3-4.7-10.6l-0.8-1.3l2.7-1h-30.9c-0.4,0.3-0.8,0.7-1.3,1l5.7,1.9l0-0.2
		l10.1-1.3l0.3,1c1.6,5.3,2.4,12.2,2.4,16.7v1l-10.7,1.5l0.1-1.4c0.2-4.3-0.5-11-1.8-16.2l-0.2-0.6l-0.1,0.6
		c-1.6,6.9-4.1,14.7-9.1,19.9l-0.7,0.8l-9.4-6.7l1-1C939.9,85.8,942.1,81.5,943.6,76.9z M980.8,73.3c0.2,0.3,0.4,0.7,0.6,1.1
		c1.5,2.8,3.1,6.1,3.9,8.7c0.1,0.4,0.2,0.8,0.3,1.2l7-2.6c-0.7-2.7-2.7-6.7-4.7-9.9c-0.2-0.2-0.3-0.5-0.5-0.7L980.8,73.3z
		 M989.3,71.7c1.9,3.2,3.7,7,4.4,9.6l0.3,1.1l-8.3,3.1c2.2,0.1,4.1,0.2,5.1,0.1l0,0h0c1.2,0,1.7-0.1,2.1-0.5
		c0.2-0.2,0.5-0.7,0.9-1.6c0.3-0.9,0.7-2.2,1-4c0.4-2,0.7-4.5,1.1-7.7H989.3z M1049.5,43.7h9v9.2h-9v26.5c0.4-0.1,0.8-0.1,1.2-0.2
		c2-0.4,4.1-0.7,6.1-1.1c0.4-0.1,0.8-0.1,1.2-0.2l0.7,9.4c-6.8,1.3-13.9,2.6-20.6,3.9c-6.2,1.1-12,2.2-17.1,3.2
		c-0.4,0.1-0.8,0.2-1.2,0.2l-1.6-10.2c0.4-0.1,0.8-0.1,1.2-0.2c1.1-0.2,2.3-0.3,3.5-0.5c0.4-0.1,0.8-0.1,1.2-0.2v-47h9.5v45.5
		c0.4-0.1,0.8-0.1,1.2-0.2c1.1-0.2,2.2-0.4,3.3-0.5c0.4-0.1,0.8-0.1,1.2-0.2V20h10.2V43.7z M1038.2,80.2V18.8h12.6v23.8h9v11.6h-9
		V78c2.4-0.4,4.7-0.8,7.1-1.2l1.3-0.2l0.9,11.8l-1,0.2c-6.9,1.3-14,2.6-20.7,3.9c-6.7,1.2-12.9,2.4-18.2,3.4l-1.2,0.2l-2-12.6
		l1.2-0.2c1.5-0.2,3.2-0.5,4.9-0.7V35.4h11.9v45.3C1036,80.6,1037.1,80.4,1038.2,80.2z M1060.2,18.8h12.6v23.8h18.2v11.6h-18.2v24.6
		c0,1.1,0,1.9,0.1,2.5c0.1,0.6,0.2,0.9,0.2,1.1c0,0.1,0.1,0.1,0.2,0.2c0.2,0.1,0.5,0.1,1.2,0.1h7.2c0.4,0,0.6-0.1,0.7-0.2
		c0.2-0.2,0.5-0.6,0.7-1.6c0.5-1.9,0.7-5,0.9-10.2l0.1-2.3l1.8,1.4c2.2,1.7,6,3.4,8.7,4l1,0.2l-0.1,1c-0.5,6.6-1.4,11.5-3.3,14.7
		c-1,1.7-2.2,2.9-3.9,3.7c-1.6,0.8-3.5,1.1-5.6,1.1h-9.8c-4.5,0-7.9-0.8-10-3.5c-2-2.6-2.6-6.7-2.6-12.4V18.8z M1071.5,52.9h18.2
		v-9.2h-18.2V20h-10.2v58.6c0,11.4,2.6,14.7,11.4,14.7h9.8c8.1,0,10.6-5.2,11.6-18.5c-2.4-0.5-5.6-1.9-8-3.4
		c-0.4-0.3-0.8-0.5-1.2-0.8c0,0.5,0,1-0.1,1.4c-0.4,9.2-1,11.8-3.5,11.8h-7.2c-2.6,0-2.9-0.6-2.9-5V52.9z M1125.5,50.1h-8.6v45h-9.9
		v-54h23.5c0.1-0.4,0.2-0.8,0.3-1.2c0.5-2,1-4,1.4-6c0.1-0.4,0.2-0.8,0.2-1.2h-29.1v-9.8h72.9v9.8h-32.4c-0.1,0.4-0.3,0.8-0.4,1.2
		c-0.7,2.1-1.4,4.1-2.1,6c-0.2,0.4-0.3,0.8-0.5,1.2h31.8V85c0,4.5-0.8,6.9-3.7,8.3c-3,1.4-7,1.6-12.4,1.6c-0.3-1.8-1-4.2-1.9-6.3
		c-0.2-0.4-0.3-0.7-0.5-1.1c-0.2-0.4-0.4-0.9-0.6-1.2c0.4,0,0.7,0,1.1,0c0.1,0,0.2,0,0.3,0c2.8,0.1,5.6,0,6.5-0.1
		c1.1,0,1.4-0.3,1.4-1.4V50.1h-9.4v42.6h-9.6V50.1h-8.9v42.6h-9.5V50.1z M1124.3,51.3h-6.2v45h-12.3V39.9h23.7c0.5-1.9,1-4,1.4-6
		h-28.9V21.7h75.3v12.2h-32.7c-0.7,2.1-1.4,4.1-2.1,6h31.3V85c0,2.3-0.2,4.2-0.9,5.8c-0.7,1.6-1.8,2.8-3.5,3.6l0,0
		c-3.3,1.6-7.6,1.7-12.9,1.7h-1l-0.2-1c-0.1-0.9-0.4-1.9-0.7-3v1.8h-12V51.3h-6.5v42.6h-11.9V51.3z M1154.7,85.1V51.3h7v33.7
		c0,0.1,0,0.1,0,0.2c-0.1,0-0.1,0-0.2,0h0l0,0C1160.5,85.2,1157.5,85.2,1154.7,85.1z M1206.8,33.3c-0.2,0.4-0.3,0.8-0.5,1.2h12.4V20
		h10v14.5h27.1v9.4h-27.1v14.2h24.1v9.2h-24.1v16.2h31.2v9.4h-72.3v-9.4h31.1V67.3h-21.8v-9.2h21.8V43.8h-16.7
		c-0.2,0.4-0.4,0.8-0.6,1.2c-1.9,3.6-4,6.9-6.1,9.6c-0.2,0.3-0.5,0.6-0.7,0.9c-0.3-0.2-0.6-0.5-0.9-0.8c-1.8-1.4-4.5-3.2-6.6-4.5
		c-0.4-0.2-0.7-0.4-1.1-0.6c0.3-0.3,0.6-0.6,0.8-0.9c5.9-6.8,10.7-17.3,13.5-27.9l9.9,2.2c-0.1,0.4-0.2,0.8-0.3,1.2
		C1209,27.3,1207.9,30.3,1206.8,33.3z M1202.8,45c-2.3,4.3-4.7,8.2-7.3,11.3l-0.8,1l-0.9-0.8c-1.8-1.6-6-4.4-8.4-5.7L1184,50
		l1.1-1.1c6.1-6.5,11.2-17.3,14-28.3l0.3-1.1l12.3,2.8l-0.3,1.2c-0.9,3.3-2,6.6-3.2,9.8h9.5V18.8h12.4v14.5h27.1V45h-27.1v11.8h24.1
		v11.6h-24.1v13.8h31.2V94h-74.7V82.2h31.1V68.5h-21.8V56.9h21.8V45H1202.8z M958.5,92l8.2-1.1c0-4.5-0.8-11.2-2.3-16.4l-7.8,1
		c0.1,0.4,0.2,0.8,0.3,1.2c1,4.6,1.7,10.1,1.6,14.2C958.5,91.2,958.5,91.6,958.5,92z M972.7,89.3l7.8-2c-0.6-3.8-2.4-9.7-4.3-14.2
		l-7.4,1.7c0.1,0.4,0.3,0.7,0.4,1.1c1.4,3.9,2.7,8.6,3.3,12.2C972.5,88.5,972.6,88.9,972.7,89.3z"/>
</g>
</svg>
