<?xml version="1.0" encoding="utf-8"?>
<!-- Generator: Adobe Illustrator 25.0.1, SVG Export Plug-In . SVG Version: 6.00 Build 0)  -->
<svg version="1.1" id="圖層_1" xmlns="http://www.w3.org/2000/svg" xmlns:xlink="http://www.w3.org/1999/xlink" x="0px" y="0px"
	 viewBox="0 0 1240.1 81.5" style="enable-background:new 0 0 1240.1 81.5;" xml:space="preserve">
<style type="text/css">
	.st0{fill-rule:evenodd;clip-rule:evenodd;}
	.st1{fill-rule:evenodd;clip-rule:evenodd;fill:#1E1E1E;}
</style>
<g>
	<path class="st0" d="M823.2,74.9v-68h33.5c11,0,19.9,8.9,19.9,19.9c0,4.8-1.7,9.2-4.6,12.6c-0.1,0.2-0.3,0.3-0.4,0.4
		c0.1,0.1,0.3,0.3,0.4,0.4c4,3.6,6.6,8.9,6.6,14.8c0,11-8.9,19.9-19.9,19.9C858.7,74.9,823.2,74.9,823.2,74.9z M873.2,39.8
		c4,3.8,6.6,9.3,6.6,15.3c0,11.6-9.4,21.1-21.1,21.1h-36.8V5.7h34.7c11.6,0,21.1,9.4,21.1,21.1C877.7,31.7,876,36.2,873.2,39.8z
		 M741.6,63.4v11.5h-50.2v-68h11.5v56.5H741.6z M704.1,62.2h38.7v13.9h-52.6V5.7h13.9L704.1,62.2L704.1,62.2z M782.4,4.1l34.3,72
		h-15.3l-19-39.7l-19.2,39.7h-15.1L782.4,4.1z M762.4,74.9h-12.5l32.5-68l32.4,68h-12.6l-19.8-41.3L762.4,74.9z M645.8,20.7h-50.5
		V6.8h50.5V20.7z M645.8,75.1h-50.5V61.2h50.5V75.1z M645.8,47.9h-50.5V34h50.5V47.9z M496.3,5.7v13.9H477v56.5h-13.9V19.6h-19.3
		V5.7H496.3z M444.9,18.4V6.9h50.2v11.5h-19.3v56.5h-11.5V18.4H444.9z M516.1,5.7v70.4h-13.9V5.7H516.1z M341.4,4.1l34.3,72h-15.3
		l-19-39.7l-19.2,39.7h-15.1L341.4,4.1z M321.4,74.9h-12.5l32.5-68l32.4,68h-12.6l-19.8-41.3L321.4,74.9z M555.8,77.7l-34.4-72h15.1
		l19.2,39.7l19-39.7H590L555.8,77.7z M575.5,6.9h12.6l-32.4,68l-32.5-68h12.5l20,41.3L575.5,6.9z M426,54.4c-4.1,5.5-10.7,9-18.1,9
		c-12.5,0-22.6-10.1-22.6-22.5s10.1-22.5,22.6-22.5c7.4,0,13.9,3.5,18.1,9l10.5-5.2c-0.2-0.3-0.5-0.7-0.7-1
		c-6.2-8.7-16.4-14.3-27.9-14.3c-18.9,0-34.2,15.2-34.2,34s15.3,34,34.2,34c11.5,0,21.7-5.7,27.9-14.3c0.2-0.3,0.5-0.7,0.7-1
		L426,54.4L426,54.4L426,54.4z M424.8,54c-3.9,5-10,8.2-16.9,8.2c-11.8,0-21.4-9.6-21.4-21.3s9.6-21.3,21.4-21.3
		c7,0,13.2,3.4,17.1,8.5l0.6,0.8l12.6-6.3l-0.8-1.1c-6.3-9.5-17.2-15.8-29.5-15.8c-19.5,0-35.4,15.8-35.4,35.2s15.9,35.2,35.4,35.2
		c12.4,0,23.2-6.3,29.6-15.9l0.7-1.1l-13.4-6.7L424.8,54L424.8,54z M280.7,61.2v13.9h-13.9V61.2H280.7z M122.3,20.7H71.8V6.8h50.5
		V20.7z M122.3,75.1H71.8V61.2h50.5V75.1z M122.3,47.9H71.8V34h50.5V47.9z M3.4,5.7h36.8c12.2,0,22.1,9.9,22.1,22.1
		s-9.9,22.1-22.1,22.1H17.3v26.2H3.4V5.7z M16.1,48.8h24.1c11.6,0,20.9-9.4,20.9-20.9S51.7,7,40.2,7H4.6v68h11.5V48.8z M133.8,5.7
		h36.8c12.2,0,22.1,9.9,22.1,22.1c0,11-8.1,20.1-18.6,21.8l19.2,26.5h-16.6l-19-26.2h-10v26.2h-13.9V5.7z M158.3,48.8l19,26.2h13.6
		l-19.1-26.2c0.5,0,0.9-0.1,1.4-0.1c10.3-1.3,18.2-10.1,18.2-20.7c0-11.6-9.4-20.9-20.9-20.9h-35.6v68h11.5V48.8H158.3z M257.8,19.6
		h-35.7c-4,0-7.2,3.2-7.2,7.2s3.2,7.2,7.2,7.2h16.7c11.6,0,21.1,9.4,21.1,21.1s-9.4,21.1-21.1,21.1h-35.7v-14h35.7
		c4,0,7.2-3.2,7.2-7.2s-3.2-7.2-7.2-7.2h-16.7c-11.6,0-21.1-9.4-21.1-21.1c0-11.6,9.4-21.1,21.1-21.1h35.7V19.6z M856.6,19.6h-20.8
		v14.3h20.8c4,0,7.2-3.2,7.2-7.2C863.8,22.8,860.6,19.6,856.6,19.6z M835.9,62.2h22.9c4,0,7.2-3.2,7.2-7.2s-3.2-7.2-7.2-7.2h-22.9
		V62.2z M644.6,8v11.5h-48.1V8H644.6z M644.6,62.4v11.5h-48.1V62.4H644.6z M644.6,35.2v11.5h-48.1V35.2H644.6z M503.4,74.9h11.5v-68
		h-11.5V74.9z M268,73.9h11.5V62.4H268V73.9z M121.1,8v11.5H73V8H121.1z M121.1,62.4v11.5H73V62.4H121.1z M121.1,35.2v11.5H73V35.2
		H121.1z M17.3,36.1h22.9c4.5,0,8.2-3.7,8.2-8.2s-3.7-8.2-8.2-8.2H17.3V36.1z M147.7,36.1h22.9c4.5,0,8.2-3.7,8.2-8.2
		s-3.7-8.2-8.2-8.2h-22.9V36.1z M256.6,6.9h-34.5c-11,0-19.9,8.9-19.9,19.9s8.9,19.9,19.9,19.9h16.7c4.6,0,8.4,3.7,8.4,8.4
		s-3.7,8.4-8.4,8.4h-34.5V75h34.5c11,0,19.9-8.9,19.9-19.9s-8.9-19.9-19.9-19.9h-16.7c-4.6,0-8.4-3.7-8.4-8.4s3.7-8.4,8.4-8.4h34.5
		V6.9z M40.2,37.3c5.2,0,9.4-4.2,9.4-9.4s-4.2-9.4-9.4-9.4H16.1v18.8H40.2z M834.7,18.4v16.7h22c4.6,0,8.4-3.7,8.4-8.4
		s-3.7-8.4-8.4-8.4L834.7,18.4L834.7,18.4z M858.7,63.4c4.6,0,8.4-3.7,8.4-8.4s-3.7-8.4-8.4-8.4h-24.1v16.7L858.7,63.4L858.7,63.4z
		 M146.5,37.3V18.4h24.1c5.2,0,9.4,4.2,9.4,9.4s-4.2,9.4-9.4,9.4L146.5,37.3L146.5,37.3z"/>
	<path class="st1" d="M921.4,45c0.2-0.2,0.4-0.3,0.6-0.5c5.8-5.3,10.5-11.5,14.3-18.2c0.2-0.4,0.4-0.8,0.7-1.2h-25.1v-8.6h15.7
		c-0.2-0.4-0.4-0.8-0.7-1.2c-1.4-2.4-3.3-5.2-5.2-7.5c-0.3-0.3-0.5-0.7-0.8-1l8.6-3.4c2.5,2.7,5.5,6.5,7.2,9.4
		c0.2,0.4,0.4,0.7,0.6,1.1l-6.3,2.6h10c0.2-0.4,0.3-0.8,0.5-1.2c1.6-3.9,2.9-7.9,3.9-11.9l9.8,2.3c-0.1,0.4-0.2,0.8-0.4,1.1
		c-0.9,2.8-1.9,5.7-3,8.5c-0.2,0.4-0.3,0.8-0.5,1.2h20.3c-0.1,0.4-0.1,0.8-0.2,1.2c-0.8,4.1-1.7,8.5-2.7,12.3
		c-0.1,0.4-0.2,0.8-0.3,1.2h8.4c-0.1,0.4-0.2,0.8-0.2,1.2c-0.8,4-1.7,8.4-2.6,12.1c-0.1,0.4-0.2,0.8-0.3,1.2h8.9c0,0,0,0.5-0.1,1.2
		c-0.1,0.8-0.1,1.8-0.2,2.5c-1.3,16.2-2.7,23.2-5.3,25.9c-1.9,2.1-3.8,2.8-6.5,3.1c-2.2,0.2-6.1,0.2-10.2,0.2
		c-0.1-2.2-0.9-5.2-2-7.5c-0.2-0.5-0.5-0.9-0.7-1.3c0.5,0.1,1,0.1,1.5,0.2c3,0.3,5.6,0.3,7,0.2c1.4,0,2.2-0.2,3-0.9
		c1.3-1.3,2.4-5.3,3.3-14.2c0-0.4,0.1-0.8,0.1-1.2h-46.9c-0.5,0.4-1,0.8-1.5,1.2c-0.2,0.2-0.5,0.4-0.7,0.6c-0.3,0.3-0.7,0.5-1,0.8
		l-0.1,0.1l7,2.3c-1.6,6.9-4.1,14.4-8.8,19.4l-7.4-5.3c0.3-0.3,0.6-0.6,0.8-0.9c2.9-3.3,5.1-8,6.5-12.8c0.2-0.6,0.3-1.2,0.5-1.8
		c-0.5,0.4-1,0.7-1.5,1.1c-1.7,1.1-3.5,2.2-5.3,3.3c-0.3,0.2-0.7,0.4-1.1,0.6c-0.2-0.3-0.3-0.7-0.5-1.1c-1-2-2.6-4.5-3.9-6.3
		c-0.3-0.4-0.5-0.7-0.7-1c0.4-0.2,0.7-0.4,1.1-0.6C913.6,51.2,917.7,48.3,921.4,45z M966.4,40.7c0.1-0.4,0.2-0.8,0.3-1.2h-27.5
		c-0.3,0.4-0.6,0.8-0.9,1.2c-1,1.3-2,2.6-3.1,3.8c-0.3,0.4-0.7,0.8-1,1.2h31.1c0.1-0.4,0.2-0.8,0.3-1.2
		C965.8,43.3,966.1,42,966.4,40.7z M964.2,44.5c0.3-1.2,0.6-2.5,0.9-3.8h-25.4c-1,1.3-2,2.6-3,3.8H964.2z M961,26.4
		c0.1-0.4,0.2-0.8,0.3-1.2h-13.6c-0.2,0.4-0.4,0.8-0.6,1.2c-0.6,1.2-1.3,2.5-2,3.7c-0.2,0.4-0.4,0.8-0.7,1.2h15.5
		c0.1-0.4,0.2-0.8,0.3-1.2C960.4,28.9,960.7,27.6,961,26.4z M958.9,30c0.3-1.2,0.6-2.4,0.9-3.7h-11.4c-0.6,1.2-1.3,2.5-1.9,3.7
		H958.9z M918.9,60.4c-1.7,1.1-3.4,2.1-5.2,3.1l-1.1,0.6l-0.5-1.2c-1.1-2.3-3.4-6.1-5-8.1l-0.9-1.2l1.3-0.7c12-6,21-15.6,27.3-26.7
		h-24.2v-11h14.8c-1.5-2.5-3.6-5.4-5.6-7.7l-1.1-1.3l11-4.3l0.6,0.6c2.8,3.1,6.3,7.6,8,10.7l0.6,1.2l-1.8,0.7h3.1
		c1.6-4,3-8.1,4.1-12.2l0.3-1.1l12.2,2.9l-0.4,1.2c-1,3.1-2,6.2-3.2,9.2h20l-0.3,1.4c-0.8,4.3-1.8,9.2-2.8,13.3h8.3l-0.3,1.4
		c-0.8,4.2-1.8,9-2.7,13.1h8.7l-0.1,1.3l0,0v0.1c0,0.1,0,0.2,0,0.3c0,0.3,0,0.6-0.1,1c-0.1,0.8-0.1,1.7-0.2,2.3
		c-0.6,8.1-1.3,14-2.2,18.1c-0.8,4.1-1.9,6.8-3.4,8.5c-2.2,2.3-4.4,3.1-7.2,3.5l0,0l0,0c-2.3,0.2-6.2,0.2-10.4,0.2h-1.1v-1.1
		c-0.1-2.3-1-5.6-2.3-7.8l0.1,0.8l-10.1,2.6l-0.2-1.4c-0.5-3.8-2.1-9.7-3.8-14.2l-0.5-1.3l9.7-2.2l0.4,0.9c1.6,3.8,3.1,8.6,4,12.3
		l1.4,0.2c0.7,0.1,1.4,0.1,2.1,0.2l-0.2-0.9c-0.7-2.7-2.7-7.3-4.7-10.6l-0.8-1.3l2.7-1h-30.9c-0.4,0.3-0.8,0.7-1.3,1l5.7,1.9v-0.2
		l10.1-1.3l0.3,1c1.6,5.3,2.4,12.2,2.4,16.7v1l-10.7,1.5l0.1-1.4c0.2-4.3-0.5-11-1.8-16.2l-0.2-0.6l-0.1,0.6
		c-1.6,6.9-4.1,14.7-9.1,19.9l-0.7,0.8l-9.4-6.7l1-1C915.2,69.3,917.4,65,918.9,60.4z M956.1,56.8c0.2,0.3,0.4,0.7,0.6,1.1
		c1.5,2.8,3.1,6.1,3.9,8.7c0.1,0.4,0.2,0.8,0.3,1.2l7-2.6c-0.7-2.7-2.7-6.7-4.7-9.9c-0.2-0.2-0.3-0.5-0.5-0.7L956.1,56.8z
		 M964.6,55.2c1.9,3.2,3.7,7,4.4,9.6l0.3,1.1L961,69c2.2,0.1,4.1,0.2,5.1,0.1l0,0l0,0c1.2,0,1.7-0.1,2.1-0.5
		c0.2-0.2,0.5-0.7,0.9-1.6c0.3-0.9,0.7-2.2,1-4c0.4-2,0.7-4.5,1.1-7.7L964.6,55.2L964.6,55.2z M1024.8,27.2h9v9.2h-9v26.5
		c0.4-0.1,0.8-0.1,1.2-0.2c2-0.4,4.1-0.7,6.1-1.1c0.4-0.1,0.8-0.1,1.2-0.2l0.7,9.4c-6.8,1.3-13.9,2.6-20.6,3.9
		c-6.2,1.1-12,2.2-17.1,3.2c-0.4,0.1-0.8,0.2-1.2,0.2l-1.6-10.2c0.4-0.1,0.8-0.1,1.2-0.2c1.1-0.2,2.3-0.3,3.5-0.5
		c0.4-0.1,0.8-0.1,1.2-0.2V20h9.5v45.5c0.4-0.1,0.8-0.1,1.2-0.2c1.1-0.2,2.2-0.4,3.3-0.5c0.4-0.1,0.8-0.1,1.2-0.2V3.5h10.2
		L1024.8,27.2L1024.8,27.2z M1013.5,63.7V2.3h12.6v23.8h9v11.6h-9v23.8c2.4-0.4,4.7-0.8,7.1-1.2l1.3-0.2l0.9,11.8l-1,0.2
		c-6.9,1.3-14,2.6-20.7,3.9c-6.7,1.2-12.9,2.4-18.2,3.4l-1.2,0.2l-2-12.6l1.2-0.2c1.5-0.2,3.2-0.5,4.9-0.7V18.9h11.9v45.3
		C1011.3,64.1,1012.4,63.9,1013.5,63.7z M1035.5,2.3h12.6v23.8h18.2v11.6h-18.2v24.6c0,1.1,0,1.9,0.1,2.5s0.2,0.9,0.2,1.1
		c0,0.1,0.1,0.1,0.2,0.2c0.2,0.1,0.5,0.1,1.2,0.1h7.2c0.4,0,0.6-0.1,0.7-0.2c0.2-0.2,0.5-0.6,0.7-1.6c0.5-1.9,0.7-5,0.9-10.2
		l0.1-2.3l1.8,1.4c2.2,1.7,6,3.4,8.7,4l1,0.2l-0.1,1c-0.5,6.6-1.4,11.5-3.3,14.7c-1,1.7-2.2,2.9-3.9,3.7c-1.6,0.8-3.5,1.1-5.6,1.1
		h-9.8c-4.5,0-7.9-0.8-10-3.5c-2-2.6-2.6-6.7-2.6-12.4L1035.5,2.3L1035.5,2.3z M1046.8,36.4h18.2v-9.2h-18.2V3.5h-10.2v58.6
		c0,11.4,2.6,14.7,11.4,14.7h9.8c8.1,0,10.6-5.2,11.6-18.5c-2.4-0.5-5.6-1.9-8-3.4c-0.4-0.3-0.8-0.5-1.2-0.8c0,0.5,0,1-0.1,1.4
		c-0.4,9.2-1,11.8-3.5,11.8h-7.2c-2.6,0-2.9-0.6-2.9-5V36.4H1046.8z M1100.8,33.6h-8.6v45h-9.9v-54h23.5c0.1-0.4,0.2-0.8,0.3-1.2
		c0.5-2,1-4,1.4-6c0.1-0.4,0.2-0.8,0.2-1.2h-29.1V6.4h72.9v9.8h-32.4c-0.1,0.4-0.3,0.8-0.4,1.2c-0.7,2.1-1.4,4.1-2.1,6
		c-0.2,0.4-0.3,0.8-0.5,1.2h31.8v43.9c0,4.5-0.8,6.9-3.7,8.3c-3,1.4-7,1.6-12.4,1.6c-0.3-1.8-1-4.2-1.9-6.3
		c-0.2-0.4-0.3-0.7-0.5-1.1s-0.4-0.9-0.6-1.2c0.4,0,0.7,0,1.1,0c0.1,0,0.2,0,0.3,0c2.8,0.1,5.6,0,6.5-0.1c1.1,0,1.4-0.3,1.4-1.4
		V33.6h-9.4v42.6h-9.6V33.6h-8.9v42.6h-9.5L1100.8,33.6L1100.8,33.6z M1099.6,34.8h-6.2v45h-12.3V23.4h23.7c0.5-1.9,1-4,1.4-6h-28.9
		V5.2h75.3v12.2h-32.7c-0.7,2.1-1.4,4.1-2.1,6h31.3v45.1c0,2.3-0.2,4.2-0.9,5.8c-0.7,1.6-1.8,2.8-3.5,3.6l0,0
		c-3.3,1.6-7.6,1.7-12.9,1.7h-1l-0.2-1c-0.1-0.9-0.4-1.9-0.7-3v1.8h-12V34.8h-6.5v42.6h-11.9L1099.6,34.8L1099.6,34.8z M1130,68.6
		V34.8h7v33.7c0,0.1,0,0.1,0,0.2c-0.1,0-0.1,0-0.2,0l0,0l0,0C1135.8,68.7,1132.8,68.7,1130,68.6z M1182.1,16.8
		c-0.2,0.4-0.3,0.8-0.5,1.2h12.4V3.5h10V18h27.1v9.4H1204v14.2h24.1v9.2H1204V67h31.2v9.4h-72.3V67h31.1V50.8h-21.8v-9.2h21.8V27.3
		h-16.7c-0.2,0.4-0.4,0.8-0.6,1.2c-1.9,3.6-4,6.9-6.1,9.6c-0.2,0.3-0.5,0.6-0.7,0.9c-0.3-0.2-0.6-0.5-0.9-0.8
		c-1.8-1.4-4.5-3.2-6.6-4.5c-0.4-0.2-0.7-0.4-1.1-0.6c0.3-0.3,0.6-0.6,0.8-0.9c5.9-6.8,10.7-17.3,13.5-27.9l9.9,2.2
		c-0.1,0.4-0.2,0.8-0.3,1.2C1184.3,10.8,1183.2,13.8,1182.1,16.8z M1178.1,28.5c-2.3,4.3-4.7,8.2-7.3,11.3l-0.8,1l-0.9-0.8
		c-1.8-1.6-6-4.4-8.4-5.7l-1.4-0.8l1.1-1.1c6.1-6.5,11.2-17.3,14-28.3l0.3-1.1l12.3,2.8l-0.3,1.2c-0.9,3.3-2,6.6-3.2,9.8h9.5V2.3
		h12.4v14.5h27.1v11.7h-27.1v11.8h24.1v11.6h-24.1v13.8h31.2v11.8h-74.7V65.7h31.1V52h-21.8V40.4h21.8V28.5H1178.1z M933.8,75.5
		l8.2-1.1c0-4.5-0.8-11.2-2.3-16.4l-7.8,1c0.1,0.4,0.2,0.8,0.3,1.2c1,4.6,1.7,10.1,1.6,14.2C933.8,74.7,933.8,75.1,933.8,75.5z
		 M948,72.8l7.8-2c-0.6-3.8-2.4-9.7-4.3-14.2l-7.4,1.7c0.1,0.4,0.3,0.7,0.4,1.1c1.4,3.9,2.7,8.6,3.3,12.2
		C947.8,72,947.9,72.4,948,72.8z"/>
</g>
</svg>
